<svg width="1198" height="389" viewBox="0 0 1198 389" fill="none" xmlns="http://www.w3.org/2000/svg">
<path d="M92.997 14.771C92.997 15.839 92.6097 16.6719 91.8349 17.2695C91.0602 17.8672 90.0088 18.166 88.6806 18.166C87.2418 18.166 86.1351 17.9806 85.3603 17.6099V16.2485C85.8584 16.4588 86.4007 16.6248 86.9873 16.7466C87.5739 16.8683 88.1549 16.9292 88.7304 16.9292C89.6712 16.9292 90.3795 16.7521 90.8554 16.3979C91.3314 16.0382 91.5693 15.5402 91.5693 14.9038C91.5693 14.4832 91.4835 14.1401 91.312 13.8745C91.146 13.6034 90.8637 13.3543 90.4653 13.1274C90.0724 12.9006 89.472 12.6432 88.664 12.3555C87.5351 11.9515 86.7272 11.4728 86.2402 10.9194C85.7588 10.366 85.518 9.64388 85.518 8.75293C85.518 7.81771 85.8694 7.0734 86.5722 6.52002C87.275 5.96663 88.2047 5.68994 89.3613 5.68994C90.5677 5.68994 91.6772 5.9113 92.6899 6.354L92.25 7.58252C91.2483 7.16195 90.2744 6.95166 89.3281 6.95166C88.581 6.95166 87.9972 7.11214 87.5766 7.43311C87.1561 7.75407 86.9458 8.19954 86.9458 8.76953C86.9458 9.1901 87.0232 9.53597 87.1782 9.80713C87.3331 10.0728 87.5932 10.319 87.9585 10.5459C88.3292 10.7673 88.8937 11.0135 89.6518 11.2847C90.9246 11.7384 91.799 12.2254 92.2749 12.7456C92.7563 13.2658 92.997 13.9409 92.997 14.771ZM98.519 17.0288C98.7625 17.0288 98.9977 17.0122 99.2246 16.979C99.4515 16.9403 99.6313 16.9015 99.7641 16.8628V17.917C99.6147 17.9889 99.3934 18.047 99.1001 18.0913C98.8123 18.1411 98.5522 18.166 98.3198 18.166C96.56 18.166 95.6802 17.2391 95.6802 15.3853V9.97314H94.3769V9.30908L95.6802 8.73633L96.2612 6.79395H97.0581V8.90234H99.6977V9.97314H97.0581V15.3271C97.0581 15.875 97.1881 16.2956 97.4482 16.5889C97.7083 16.8822 98.0652 17.0288 98.519 17.0288ZM105.743 18.166C104.398 18.166 103.335 17.7565 102.555 16.9375C101.78 16.1185 101.393 14.9813 101.393 13.5259C101.393 12.0594 101.753 10.8945 102.472 10.0312C103.197 9.16797 104.168 8.73633 105.386 8.73633C106.526 8.73633 107.428 9.11263 108.092 9.86523C108.756 10.6123 109.088 11.6001 109.088 12.8286V13.7002H102.821C102.848 14.7682 103.117 15.5789 103.626 16.1323C104.141 16.6857 104.863 16.9624 105.792 16.9624C106.772 16.9624 107.74 16.7576 108.698 16.3481V17.5767C108.211 17.7869 107.749 17.9364 107.312 18.0249C106.88 18.119 106.357 18.166 105.743 18.166ZM105.369 9.89014C104.639 9.89014 104.055 10.1281 103.618 10.604C103.186 11.0799 102.931 11.7384 102.854 12.5796H107.61C107.61 11.7108 107.417 11.0467 107.029 10.5874C106.642 10.1226 106.089 9.89014 105.369 9.89014ZM115.988 18.166C115.396 18.166 114.853 18.0581 114.361 17.8423C113.874 17.6209 113.464 17.2834 113.132 16.8296H113.033C113.099 17.3608 113.132 17.8644 113.132 18.3403V22.084H111.754V8.90234H112.875L113.066 10.1475H113.132C113.486 9.64941 113.899 9.28971 114.369 9.06836C114.84 8.84701 115.379 8.73633 115.988 8.73633C117.194 8.73633 118.124 9.1486 118.777 9.97314C119.435 10.7977 119.765 11.9543 119.765 13.4429C119.765 14.937 119.43 16.0991 118.76 16.9292C118.096 17.7537 117.172 18.166 115.988 18.166ZM115.789 9.90674C114.859 9.90674 114.187 10.1641 113.771 10.6787C113.356 11.1934 113.143 12.0124 113.132 13.1357V13.4429C113.132 14.7212 113.345 15.637 113.771 16.1904C114.198 16.7383 114.881 17.0122 115.822 17.0122C116.608 17.0122 117.222 16.694 117.665 16.0576C118.113 15.4212 118.337 14.5441 118.337 13.4263C118.337 12.2918 118.113 11.423 117.665 10.8198C117.222 10.2111 116.597 9.90674 115.789 9.90674ZM134.627 11.9155C134.627 14.0129 134.295 15.5789 133.631 16.6138C132.972 17.6486 131.962 18.166 130.601 18.166C129.295 18.166 128.302 17.6375 127.621 16.5806C126.94 15.5181 126.6 13.9631 126.6 11.9155C126.6 9.8016 126.929 8.23275 127.588 7.20898C128.246 6.18522 129.251 5.67334 130.601 5.67334C131.918 5.67334 132.917 6.20736 133.598 7.27539C134.284 8.34342 134.627 9.89014 134.627 11.9155ZM127.995 11.9155C127.995 13.6808 128.202 14.9674 128.617 15.7754C129.032 16.5778 129.694 16.979 130.601 16.979C131.52 16.979 132.184 16.5723 132.593 15.7588C133.008 14.9398 133.216 13.6587 133.216 11.9155C133.216 10.1724 133.008 8.89681 132.593 8.08887C132.184 7.27539 131.52 6.86865 130.601 6.86865C129.694 6.86865 129.032 7.26986 128.617 8.07227C128.202 8.86914 127.995 10.1502 127.995 11.9155ZM141.726 18H140.381V9.35059C140.381 8.63118 140.404 7.95052 140.448 7.30859C140.332 7.4248 140.202 7.54655 140.058 7.67383C139.914 7.80111 139.255 8.34066 138.082 9.29248L137.352 8.34619L140.564 5.86426H141.726V18Z" fill="#717171"/>
<path d="M331.997 14.771C331.997 15.839 331.61 16.6719 330.835 17.2695C330.06 17.8672 329.009 18.166 327.681 18.166C326.242 18.166 325.135 17.9806 324.36 17.6099V16.2485C324.858 16.4588 325.401 16.6248 325.987 16.7466C326.574 16.8683 327.155 16.9292 327.73 16.9292C328.671 16.9292 329.38 16.7521 329.855 16.3979C330.331 16.0382 330.569 15.5402 330.569 14.9038C330.569 14.4832 330.484 14.1401 330.312 13.8745C330.146 13.6034 329.864 13.3543 329.465 13.1274C329.072 12.9006 328.472 12.6432 327.664 12.3555C326.535 11.9515 325.727 11.4728 325.24 10.9194C324.759 10.366 324.518 9.64388 324.518 8.75293C324.518 7.81771 324.869 7.0734 325.572 6.52002C326.275 5.96663 327.205 5.68994 328.361 5.68994C329.568 5.68994 330.677 5.9113 331.69 6.354L331.25 7.58252C330.248 7.16195 329.274 6.95166 328.328 6.95166C327.581 6.95166 326.997 7.11214 326.577 7.43311C326.156 7.75407 325.946 8.19954 325.946 8.76953C325.946 9.1901 326.023 9.53597 326.178 9.80713C326.333 10.0728 326.593 10.319 326.958 10.5459C327.329 10.7673 327.894 11.0135 328.652 11.2847C329.925 11.7384 330.799 12.2254 331.275 12.7456C331.756 13.2658 331.997 13.9409 331.997 14.771ZM337.519 17.0288C337.763 17.0288 337.998 17.0122 338.225 16.979C338.451 16.9403 338.631 16.9015 338.764 16.8628V17.917C338.615 17.9889 338.393 18.047 338.1 18.0913C337.812 18.1411 337.552 18.166 337.32 18.166C335.56 18.166 334.68 17.2391 334.68 15.3853V9.97314H333.377V9.30908L334.68 8.73633L335.261 6.79395H336.058V8.90234H338.698V9.97314H336.058V15.3271C336.058 15.875 336.188 16.2956 336.448 16.5889C336.708 16.8822 337.065 17.0288 337.519 17.0288ZM344.743 18.166C343.398 18.166 342.335 17.7565 341.555 16.9375C340.78 16.1185 340.393 14.9813 340.393 13.5259C340.393 12.0594 340.753 10.8945 341.472 10.0312C342.197 9.16797 343.168 8.73633 344.386 8.73633C345.526 8.73633 346.428 9.11263 347.092 9.86523C347.756 10.6123 348.088 11.6001 348.088 12.8286V13.7002H341.821C341.848 14.7682 342.117 15.5789 342.626 16.1323C343.141 16.6857 343.863 16.9624 344.792 16.9624C345.772 16.9624 346.74 16.7576 347.698 16.3481V17.5767C347.211 17.7869 346.749 17.9364 346.312 18.0249C345.88 18.119 345.357 18.166 344.743 18.166ZM344.369 9.89014C343.639 9.89014 343.055 10.1281 342.618 10.604C342.186 11.0799 341.931 11.7384 341.854 12.5796H346.61C346.61 11.7108 346.417 11.0467 346.029 10.5874C345.642 10.1226 345.089 9.89014 344.369 9.89014ZM354.988 18.166C354.396 18.166 353.853 18.0581 353.361 17.8423C352.874 17.6209 352.464 17.2834 352.132 16.8296H352.033C352.099 17.3608 352.132 17.8644 352.132 18.3403V22.084H350.754V8.90234H351.875L352.066 10.1475H352.132C352.486 9.64941 352.899 9.28971 353.369 9.06836C353.84 8.84701 354.379 8.73633 354.988 8.73633C356.194 8.73633 357.124 9.1486 357.777 9.97314C358.435 10.7977 358.765 11.9543 358.765 13.4429C358.765 14.937 358.43 16.0991 357.76 16.9292C357.096 17.7537 356.172 18.166 354.988 18.166ZM354.789 9.90674C353.859 9.90674 353.187 10.1641 352.771 10.6787C352.356 11.1934 352.143 12.0124 352.132 13.1357V13.4429C352.132 14.7212 352.345 15.637 352.771 16.1904C353.198 16.7383 353.881 17.0122 354.822 17.0122C355.608 17.0122 356.222 16.694 356.665 16.0576C357.113 15.4212 357.337 14.5441 357.337 13.4263C357.337 12.2918 357.113 11.423 356.665 10.8198C356.222 10.2111 355.597 9.90674 354.789 9.90674ZM373.627 11.9155C373.627 14.0129 373.295 15.5789 372.631 16.6138C371.972 17.6486 370.962 18.166 369.601 18.166C368.295 18.166 367.302 17.6375 366.621 16.5806C365.94 15.5181 365.6 13.9631 365.6 11.9155C365.6 9.8016 365.929 8.23275 366.588 7.20898C367.246 6.18522 368.251 5.67334 369.601 5.67334C370.918 5.67334 371.917 6.20736 372.598 7.27539C373.284 8.34342 373.627 9.89014 373.627 11.9155ZM366.995 11.9155C366.995 13.6808 367.202 14.9674 367.617 15.7754C368.032 16.5778 368.694 16.979 369.601 16.979C370.52 16.979 371.184 16.5723 371.593 15.7588C372.008 14.9398 372.216 13.6587 372.216 11.9155C372.216 10.1724 372.008 8.89681 371.593 8.08887C371.184 7.27539 370.52 6.86865 369.601 6.86865C368.694 6.86865 368.032 7.26986 367.617 8.07227C367.202 8.86914 366.995 10.1502 366.995 11.9155ZM383.598 18H375.621V16.813L378.817 13.6006C379.791 12.6156 380.433 11.9128 380.743 11.4922C381.053 11.0716 381.285 10.6621 381.44 10.2637C381.595 9.86523 381.672 9.43636 381.672 8.97705C381.672 8.32959 381.476 7.81771 381.083 7.44141C380.69 7.05957 380.145 6.86865 379.448 6.86865C378.944 6.86865 378.466 6.95166 378.012 7.11768C377.564 7.28369 377.063 7.58529 376.509 8.02246L375.779 7.08447C376.897 6.15479 378.114 5.68994 379.431 5.68994C380.571 5.68994 381.465 5.98324 382.112 6.56982C382.76 7.15088 383.084 7.93392 383.084 8.91895C383.084 9.68815 382.868 10.4491 382.436 11.2017C382.004 11.9543 381.196 12.9061 380.012 14.0571L377.356 16.6553V16.7217H383.598V18Z" fill="#717171"/>
<path d="M317.668 325V312.864H319.08V325H317.668ZM326.619 316.973H324.303V325H322.925V316.973H321.298V316.351L322.925 315.853V315.346C322.925 313.111 323.902 311.993 325.855 311.993C326.336 311.993 326.901 312.09 327.548 312.283L327.191 313.387C326.66 313.216 326.206 313.13 325.83 313.13C325.31 313.13 324.925 313.304 324.676 313.653C324.427 313.996 324.303 314.549 324.303 315.313V315.902H326.619V316.973ZM334.691 325H333.313V312.084H334.691V325ZM341.765 325.166C340.42 325.166 339.358 324.757 338.578 323.938C337.803 323.118 337.416 321.981 337.416 320.526C337.416 319.059 337.775 317.895 338.495 317.031C339.22 316.168 340.191 315.736 341.408 315.736C342.548 315.736 343.45 316.113 344.114 316.865C344.778 317.612 345.11 318.6 345.11 319.829V320.7H338.843C338.871 321.768 339.139 322.579 339.648 323.132C340.163 323.686 340.885 323.962 341.815 323.962C342.794 323.962 343.763 323.758 344.72 323.348V324.577C344.233 324.787 343.771 324.936 343.334 325.025C342.902 325.119 342.379 325.166 341.765 325.166ZM341.392 316.89C340.661 316.89 340.077 317.128 339.64 317.604C339.209 318.08 338.954 318.738 338.877 319.58H343.633C343.633 318.711 343.439 318.047 343.052 317.587C342.664 317.123 342.111 316.89 341.392 316.89ZM353.372 325L353.098 323.705H353.031C352.578 324.275 352.124 324.662 351.67 324.867C351.222 325.066 350.66 325.166 349.985 325.166C349.083 325.166 348.375 324.934 347.86 324.469C347.351 324.004 347.096 323.343 347.096 322.485C347.096 320.648 348.565 319.685 351.504 319.596L353.048 319.546V318.982C353.048 318.268 352.893 317.742 352.583 317.405C352.279 317.062 351.789 316.89 351.114 316.89C350.356 316.89 349.498 317.123 348.541 317.587L348.117 316.533C348.565 316.29 349.055 316.099 349.586 315.96C350.123 315.822 350.66 315.753 351.197 315.753C352.281 315.753 353.084 315.994 353.604 316.475C354.13 316.957 354.393 317.729 354.393 318.791V325H353.372ZM350.259 324.029C351.117 324.029 351.789 323.794 352.276 323.323C352.768 322.853 353.015 322.194 353.015 321.348V320.526L351.637 320.584C350.541 320.623 349.75 320.794 349.263 321.099C348.781 321.397 348.541 321.865 348.541 322.501C348.541 323 348.69 323.379 348.989 323.639C349.293 323.899 349.717 324.029 350.259 324.029ZM361.699 315.736C362.103 315.736 362.466 315.77 362.787 315.836L362.596 317.114C362.219 317.031 361.887 316.99 361.6 316.99C360.864 316.99 360.233 317.289 359.707 317.886C359.187 318.484 358.927 319.228 358.927 320.119V325H357.549V315.902H358.686L358.844 317.587H358.91C359.248 316.995 359.655 316.539 360.13 316.218C360.606 315.897 361.129 315.736 361.699 315.736ZM371.023 325V319.115C371.023 318.373 370.854 317.82 370.517 317.455C370.179 317.089 369.651 316.907 368.931 316.907C367.979 316.907 367.282 317.164 366.839 317.679C366.397 318.193 366.175 319.043 366.175 320.227V325H364.797V315.902H365.918L366.142 317.147H366.209C366.491 316.699 366.886 316.353 367.396 316.11C367.905 315.861 368.472 315.736 369.097 315.736C370.193 315.736 371.017 316.002 371.571 316.533C372.124 317.059 372.401 317.903 372.401 319.065V325H371.023ZM379.392 325.166C378.047 325.166 376.985 324.757 376.205 323.938C375.43 323.118 375.043 321.981 375.043 320.526C375.043 319.059 375.402 317.895 376.122 317.031C376.847 316.168 377.818 315.736 379.035 315.736C380.175 315.736 381.077 316.113 381.741 316.865C382.405 317.612 382.737 318.6 382.737 319.829V320.7H376.47C376.498 321.768 376.766 322.579 377.275 323.132C377.79 323.686 378.512 323.962 379.442 323.962C380.421 323.962 381.39 323.758 382.347 323.348V324.577C381.86 324.787 381.398 324.936 380.961 325.025C380.529 325.119 380.006 325.166 379.392 325.166ZM379.019 316.89C378.288 316.89 377.704 317.128 377.267 317.604C376.836 318.08 376.581 318.738 376.503 319.58H381.26C381.26 318.711 381.066 318.047 380.679 317.587C380.291 317.123 379.738 316.89 379.019 316.89ZM389.554 315.736C389.958 315.736 390.321 315.77 390.642 315.836L390.451 317.114C390.074 317.031 389.742 316.99 389.455 316.99C388.719 316.99 388.088 317.289 387.562 317.886C387.042 318.484 386.782 319.228 386.782 320.119V325H385.404V315.902H386.541L386.699 317.587H386.765C387.103 316.995 387.51 316.539 387.985 316.218C388.461 315.897 388.984 315.736 389.554 315.736ZM398.739 320.343C398.977 320.006 399.339 319.563 399.826 319.015L402.765 315.902H404.4L400.714 319.779L404.657 325H402.989L399.776 320.7L398.739 321.597V325H397.378V312.084H398.739V318.932C398.739 319.236 398.717 319.707 398.672 320.343H398.739ZM410.462 325.166C409.117 325.166 408.054 324.757 407.274 323.938C406.499 323.118 406.112 321.981 406.112 320.526C406.112 319.059 406.472 317.895 407.191 317.031C407.916 316.168 408.887 315.736 410.105 315.736C411.245 315.736 412.147 316.113 412.811 316.865C413.475 317.612 413.807 318.6 413.807 319.829V320.7H407.54C407.567 321.768 407.836 322.579 408.345 323.132C408.859 323.686 409.582 323.962 410.511 323.962C411.491 323.962 412.459 323.758 413.417 323.348V324.577C412.93 324.787 412.468 324.936 412.03 325.025C411.599 325.119 411.076 325.166 410.462 325.166ZM410.088 316.89C409.358 316.89 408.774 317.128 408.337 317.604C407.905 318.08 407.65 318.738 407.573 319.58H412.329C412.329 318.711 412.136 318.047 411.748 317.587C411.361 317.123 410.807 316.89 410.088 316.89ZM420.317 325.166C418.972 325.166 417.909 324.757 417.129 323.938C416.354 323.118 415.967 321.981 415.967 320.526C415.967 319.059 416.327 317.895 417.046 317.031C417.771 316.168 418.742 315.736 419.96 315.736C421.1 315.736 422.002 316.113 422.666 316.865C423.33 317.612 423.662 318.6 423.662 319.829V320.7H417.395C417.422 321.768 417.691 322.579 418.2 323.132C418.714 323.686 419.437 323.962 420.366 323.962C421.346 323.962 422.314 323.758 423.272 323.348V324.577C422.785 324.787 422.323 324.936 421.885 325.025C421.454 325.119 420.931 325.166 420.317 325.166ZM419.943 316.89C419.213 316.89 418.629 317.128 418.192 317.604C417.76 318.08 417.505 318.738 417.428 319.58H422.184C422.184 318.711 421.991 318.047 421.603 317.587C421.216 317.123 420.662 316.89 419.943 316.89ZM430.562 325.166C429.97 325.166 429.427 325.058 428.935 324.842C428.448 324.621 428.038 324.283 427.706 323.83H427.607C427.673 324.361 427.706 324.864 427.706 325.34V329.084H426.328V315.902H427.449L427.64 317.147H427.706C428.06 316.649 428.473 316.29 428.943 316.068C429.413 315.847 429.953 315.736 430.562 315.736C431.768 315.736 432.698 316.149 433.351 316.973C434.009 317.798 434.339 318.954 434.339 320.443C434.339 321.937 434.004 323.099 433.334 323.929C432.67 324.754 431.746 325.166 430.562 325.166ZM430.362 316.907C429.433 316.907 428.76 317.164 428.345 317.679C427.93 318.193 427.717 319.012 427.706 320.136V320.443C427.706 321.721 427.919 322.637 428.345 323.19C428.771 323.738 429.455 324.012 430.396 324.012C431.181 324.012 431.796 323.694 432.238 323.058C432.687 322.421 432.911 321.544 432.911 320.426C432.911 319.292 432.687 318.423 432.238 317.82C431.796 317.211 431.17 316.907 430.362 316.907ZM329.057 348V342.082C329.057 341.357 328.902 340.814 328.592 340.455C328.282 340.089 327.801 339.907 327.148 339.907C326.29 339.907 325.657 340.153 325.247 340.646C324.838 341.138 324.633 341.896 324.633 342.92V348H323.255V342.082C323.255 341.357 323.1 340.814 322.79 340.455C322.48 340.089 321.996 339.907 321.337 339.907C320.474 339.907 319.84 340.167 319.437 340.687C319.038 341.202 318.839 342.048 318.839 343.227V348H317.461V338.902H318.582L318.806 340.147H318.872C319.132 339.705 319.497 339.359 319.968 339.11C320.444 338.861 320.975 338.736 321.562 338.736C322.984 338.736 323.913 339.251 324.351 340.28H324.417C324.688 339.804 325.081 339.428 325.596 339.151C326.11 338.875 326.697 338.736 327.355 338.736C328.385 338.736 329.154 339.002 329.663 339.533C330.178 340.059 330.435 340.903 330.435 342.065V348H329.057ZM339.186 348L338.912 346.705H338.846C338.392 347.275 337.938 347.662 337.484 347.867C337.036 348.066 336.474 348.166 335.799 348.166C334.897 348.166 334.189 347.934 333.674 347.469C333.165 347.004 332.911 346.343 332.911 345.485C332.911 343.648 334.38 342.685 337.318 342.596L338.862 342.546V341.982C338.862 341.268 338.707 340.742 338.397 340.405C338.093 340.062 337.603 339.89 336.928 339.89C336.17 339.89 335.312 340.123 334.355 340.587L333.932 339.533C334.38 339.29 334.87 339.099 335.401 338.96C335.938 338.822 336.474 338.753 337.011 338.753C338.096 338.753 338.898 338.994 339.418 339.475C339.944 339.957 340.207 340.729 340.207 341.791V348H339.186ZM336.073 347.029C336.931 347.029 337.603 346.794 338.09 346.323C338.583 345.853 338.829 345.194 338.829 344.348V343.526L337.451 343.584C336.355 343.623 335.564 343.794 335.077 344.099C334.596 344.397 334.355 344.865 334.355 345.501C334.355 346 334.504 346.379 334.803 346.639C335.108 346.899 335.531 347.029 336.073 347.029ZM344.725 343.343C344.963 343.006 345.325 342.563 345.812 342.015L348.751 338.902H350.386L346.7 342.779L350.643 348H348.975L345.762 343.7L344.725 344.597V348H343.363V335.084H344.725V341.932C344.725 342.236 344.702 342.707 344.658 343.343H344.725ZM353.982 348H352.604V338.902H353.982V348ZM352.488 336.437C352.488 336.122 352.565 335.892 352.72 335.748C352.875 335.599 353.069 335.524 353.301 335.524C353.523 335.524 353.714 335.599 353.874 335.748C354.035 335.897 354.115 336.127 354.115 336.437C354.115 336.747 354.035 336.979 353.874 337.134C353.714 337.284 353.523 337.358 353.301 337.358C353.069 337.358 352.875 337.284 352.72 337.134C352.565 336.979 352.488 336.747 352.488 336.437ZM363.439 348V342.115C363.439 341.373 363.27 340.82 362.932 340.455C362.595 340.089 362.066 339.907 361.347 339.907C360.395 339.907 359.698 340.164 359.255 340.679C358.812 341.193 358.591 342.043 358.591 343.227V348H357.213V338.902H358.334L358.558 340.147H358.624C358.906 339.699 359.302 339.353 359.811 339.11C360.32 338.861 360.887 338.736 361.513 338.736C362.608 338.736 363.433 339.002 363.986 339.533C364.54 340.059 364.816 340.903 364.816 342.065V348H363.439ZM375.41 338.902V339.774L373.725 339.973C373.88 340.167 374.018 340.421 374.14 340.737C374.262 341.047 374.323 341.398 374.323 341.791C374.323 342.682 374.018 343.393 373.41 343.924C372.801 344.456 371.965 344.721 370.903 344.721C370.632 344.721 370.377 344.699 370.139 344.655C369.553 344.965 369.259 345.355 369.259 345.825C369.259 346.074 369.362 346.26 369.566 346.381C369.771 346.498 370.123 346.556 370.621 346.556H372.231C373.216 346.556 373.971 346.763 374.497 347.178C375.028 347.593 375.294 348.196 375.294 348.988C375.294 349.995 374.89 350.761 374.082 351.287C373.274 351.818 372.095 352.084 370.546 352.084C369.356 352.084 368.438 351.863 367.79 351.42C367.148 350.977 366.827 350.352 366.827 349.544C366.827 348.991 367.004 348.512 367.358 348.108C367.713 347.704 368.211 347.43 368.853 347.286C368.62 347.181 368.424 347.018 368.263 346.796C368.108 346.575 368.031 346.318 368.031 346.024C368.031 345.692 368.119 345.402 368.296 345.153C368.474 344.904 368.753 344.663 369.135 344.431C368.664 344.237 368.28 343.908 367.981 343.443C367.688 342.978 367.541 342.447 367.541 341.849C367.541 340.853 367.84 340.087 368.438 339.55C369.035 339.007 369.882 338.736 370.978 338.736C371.453 338.736 371.882 338.792 372.264 338.902H375.41ZM368.155 349.527C368.155 350.02 368.363 350.393 368.778 350.648C369.193 350.903 369.788 351.03 370.563 351.03C371.719 351.03 372.574 350.855 373.127 350.507C373.686 350.164 373.966 349.696 373.966 349.104C373.966 348.611 373.814 348.268 373.509 348.075C373.205 347.887 372.632 347.792 371.791 347.792H370.139C369.514 347.792 369.027 347.942 368.678 348.241C368.33 348.54 368.155 348.968 368.155 349.527ZM368.902 341.816C368.902 342.452 369.082 342.934 369.442 343.26C369.802 343.587 370.302 343.75 370.944 343.75C372.289 343.75 372.961 343.097 372.961 341.791C372.961 340.424 372.281 339.741 370.919 339.741C370.272 339.741 369.774 339.915 369.425 340.264C369.077 340.612 368.902 341.13 368.902 341.816ZM393.908 348V342.082C393.908 341.357 393.753 340.814 393.443 340.455C393.134 340.089 392.652 339.907 391.999 339.907C391.141 339.907 390.508 340.153 390.098 340.646C389.689 341.138 389.484 341.896 389.484 342.92V348H388.106V342.082C388.106 341.357 387.951 340.814 387.641 340.455C387.331 340.089 386.847 339.907 386.189 339.907C385.325 339.907 384.692 340.167 384.288 340.687C383.889 341.202 383.69 342.048 383.69 343.227V348H382.312V338.902H383.433L383.657 340.147H383.723C383.983 339.705 384.349 339.359 384.819 339.11C385.295 338.861 385.826 338.736 386.413 338.736C387.835 338.736 388.765 339.251 389.202 340.28H389.268C389.539 339.804 389.932 339.428 390.447 339.151C390.961 338.875 391.548 338.736 392.207 338.736C393.236 338.736 394.005 339.002 394.514 339.533C395.029 340.059 395.286 340.903 395.286 342.065V348H393.908ZM399.82 348H398.442V338.902H399.82V348ZM398.326 336.437C398.326 336.122 398.404 335.892 398.559 335.748C398.714 335.599 398.907 335.524 399.14 335.524C399.361 335.524 399.552 335.599 399.712 335.748C399.873 335.897 399.953 336.127 399.953 336.437C399.953 336.747 399.873 336.979 399.712 337.134C399.552 337.284 399.361 337.358 399.14 337.358C398.907 337.358 398.714 337.284 398.559 337.134C398.404 336.979 398.326 336.747 398.326 336.437ZM408.92 345.518C408.92 346.365 408.605 347.018 407.974 347.477C407.343 347.936 406.457 348.166 405.317 348.166C404.111 348.166 403.17 347.975 402.495 347.593V346.315C402.932 346.536 403.4 346.711 403.898 346.838C404.402 346.965 404.886 347.029 405.351 347.029C406.07 347.029 406.623 346.915 407.011 346.688C407.398 346.456 407.592 346.105 407.592 345.634C407.592 345.28 407.437 344.979 407.127 344.729C406.823 344.475 406.225 344.176 405.334 343.833C404.487 343.518 403.884 343.244 403.524 343.011C403.17 342.773 402.905 342.505 402.728 342.206C402.556 341.907 402.47 341.55 402.47 341.135C402.47 340.394 402.772 339.81 403.375 339.384C403.978 338.952 404.806 338.736 405.857 338.736C406.837 338.736 407.794 338.936 408.729 339.334L408.239 340.455C407.326 340.078 406.499 339.89 405.757 339.89C405.104 339.89 404.612 339.993 404.28 340.197C403.948 340.402 403.782 340.684 403.782 341.044C403.782 341.287 403.843 341.495 403.964 341.667C404.092 341.838 404.294 342.001 404.57 342.156C404.847 342.311 405.378 342.535 406.164 342.829C407.243 343.222 407.971 343.617 408.347 344.016C408.729 344.414 408.92 344.915 408.92 345.518ZM414.417 347.029C414.661 347.029 414.896 347.012 415.123 346.979C415.35 346.94 415.529 346.902 415.662 346.863V347.917C415.513 347.989 415.291 348.047 414.998 348.091C414.71 348.141 414.45 348.166 414.218 348.166C412.458 348.166 411.578 347.239 411.578 345.385V339.973H410.275V339.309L411.578 338.736L412.159 336.794H412.956V338.902H415.596V339.973H412.956V345.327C412.956 345.875 413.086 346.296 413.346 346.589C413.606 346.882 413.963 347.029 414.417 347.029ZM423.392 348L423.118 346.705H423.052C422.598 347.275 422.144 347.662 421.691 347.867C421.242 348.066 420.681 348.166 420.005 348.166C419.103 348.166 418.395 347.934 417.88 347.469C417.371 347.004 417.117 346.343 417.117 345.485C417.117 343.648 418.586 342.685 421.525 342.596L423.068 342.546V341.982C423.068 341.268 422.914 340.742 422.604 340.405C422.299 340.062 421.81 339.89 421.134 339.89C420.376 339.89 419.518 340.123 418.561 340.587L418.138 339.533C418.586 339.29 419.076 339.099 419.607 338.96C420.144 338.822 420.681 338.753 421.217 338.753C422.302 338.753 423.104 338.994 423.625 339.475C424.15 339.957 424.413 340.729 424.413 341.791V348H423.392ZM420.279 347.029C421.137 347.029 421.81 346.794 422.296 346.323C422.789 345.853 423.035 345.194 423.035 344.348V343.526L421.657 343.584C420.562 343.623 419.77 343.794 419.283 344.099C418.802 344.397 418.561 344.865 418.561 345.501C418.561 346 418.711 346.379 419.009 346.639C419.314 346.899 419.737 347.029 420.279 347.029ZM428.931 343.343C429.169 343.006 429.531 342.563 430.018 342.015L432.957 338.902H434.592L430.906 342.779L434.849 348H433.181L429.968 343.7L428.931 344.597V348H427.569V335.084H428.931V341.932C428.931 342.236 428.909 342.707 428.864 343.343H428.931ZM440.653 348.166C439.309 348.166 438.246 347.757 437.466 346.938C436.691 346.118 436.304 344.981 436.304 343.526C436.304 342.059 436.664 340.895 437.383 340.031C438.108 339.168 439.079 338.736 440.297 338.736C441.436 338.736 442.338 339.113 443.003 339.865C443.667 340.612 443.999 341.6 443.999 342.829V343.7H437.732C437.759 344.768 438.028 345.579 438.537 346.132C439.051 346.686 439.774 346.962 440.703 346.962C441.683 346.962 442.651 346.758 443.609 346.348V347.577C443.122 347.787 442.659 347.936 442.222 348.025C441.791 348.119 441.268 348.166 440.653 348.166ZM440.28 339.89C439.549 339.89 438.966 340.128 438.528 340.604C438.097 341.08 437.842 341.738 437.765 342.58H442.521C442.521 341.711 442.327 341.047 441.94 340.587C441.553 340.123 440.999 339.89 440.28 339.89ZM452.534 345.518C452.534 346.365 452.218 347.018 451.588 347.477C450.957 347.936 450.071 348.166 448.931 348.166C447.725 348.166 446.784 347.975 446.109 347.593V346.315C446.546 346.536 447.014 346.711 447.512 346.838C448.015 346.965 448.5 347.029 448.964 347.029C449.684 347.029 450.237 346.915 450.625 346.688C451.012 346.456 451.206 346.105 451.206 345.634C451.206 345.28 451.051 344.979 450.741 344.729C450.436 344.475 449.839 344.176 448.948 343.833C448.101 343.518 447.498 343.244 447.138 343.011C446.784 342.773 446.519 342.505 446.341 342.206C446.17 341.907 446.084 341.55 446.084 341.135C446.084 340.394 446.386 339.81 446.989 339.384C447.592 338.952 448.419 338.736 449.471 338.736C450.45 338.736 451.408 338.936 452.343 339.334L451.853 340.455C450.94 340.078 450.113 339.89 449.371 339.89C448.718 339.89 448.226 339.993 447.894 340.197C447.562 340.402 447.396 340.684 447.396 341.044C447.396 341.287 447.457 341.495 447.578 341.667C447.706 341.838 447.908 342.001 448.184 342.156C448.461 342.311 448.992 342.535 449.778 342.829C450.857 343.222 451.585 343.617 451.961 344.016C452.343 344.414 452.534 344.915 452.534 345.518ZM456.537 346.024L456.661 346.215C456.517 346.769 456.31 347.411 456.039 348.141C455.768 348.877 455.485 349.561 455.192 350.191H454.154C454.304 349.616 454.467 348.905 454.644 348.058C454.827 347.211 454.954 346.534 455.026 346.024H456.537ZM324.89 371L323.222 365.663C323.117 365.336 322.92 364.595 322.632 363.438H322.566C322.345 364.406 322.151 365.153 321.985 365.679L320.267 371H318.673L316.191 361.902H317.635C318.222 364.188 318.667 365.928 318.972 367.124C319.282 368.319 319.459 369.124 319.503 369.539H319.569C319.63 369.224 319.727 368.817 319.86 368.319C319.998 367.815 320.117 367.417 320.217 367.124L321.885 361.902H323.379L325.006 367.124C325.316 368.075 325.527 368.875 325.637 369.522H325.704C325.726 369.323 325.784 369.016 325.878 368.601C325.978 368.186 326.556 365.953 327.613 361.902H329.041L326.525 371H324.89ZM336.596 371L336.322 369.705H336.256C335.802 370.275 335.348 370.662 334.895 370.867C334.446 371.066 333.885 371.166 333.209 371.166C332.307 371.166 331.599 370.934 331.084 370.469C330.575 370.004 330.321 369.343 330.321 368.485C330.321 366.648 331.79 365.685 334.729 365.596L336.272 365.546V364.982C336.272 364.268 336.118 363.742 335.808 363.405C335.503 363.062 335.014 362.89 334.338 362.89C333.58 362.89 332.723 363.123 331.765 363.587L331.342 362.533C331.79 362.29 332.28 362.099 332.811 361.96C333.348 361.822 333.885 361.753 334.421 361.753C335.506 361.753 336.308 361.994 336.829 362.475C337.354 362.957 337.617 363.729 337.617 364.791V371H336.596ZM333.483 370.029C334.341 370.029 335.014 369.794 335.5 369.323C335.993 368.853 336.239 368.194 336.239 367.348V366.526L334.861 366.584C333.766 366.623 332.974 366.794 332.487 367.099C332.006 367.397 331.765 367.865 331.765 368.501C331.765 369 331.915 369.379 332.213 369.639C332.518 369.899 332.941 370.029 333.483 370.029ZM343.712 370.029C343.955 370.029 344.191 370.012 344.417 369.979C344.644 369.94 344.824 369.902 344.957 369.863V370.917C344.808 370.989 344.586 371.047 344.293 371.091C344.005 371.141 343.745 371.166 343.513 371.166C341.753 371.166 340.873 370.239 340.873 368.385V362.973H339.57V362.309L340.873 361.736L341.454 359.794H342.251V361.902H344.891V362.973H342.251V368.327C342.251 368.875 342.381 369.296 342.641 369.589C342.901 369.882 343.258 370.029 343.712 370.029ZM350.728 371.166C349.411 371.166 348.39 370.762 347.665 369.954C346.946 369.141 346.586 367.992 346.586 366.509C346.586 364.987 346.951 363.812 347.682 362.981C348.418 362.151 349.464 361.736 350.819 361.736C351.257 361.736 351.694 361.783 352.131 361.877C352.568 361.972 352.911 362.082 353.16 362.209L352.737 363.38C352.432 363.258 352.1 363.159 351.741 363.081C351.381 362.998 351.063 362.957 350.786 362.957C348.938 362.957 348.014 364.135 348.014 366.493C348.014 367.611 348.238 368.468 348.686 369.066C349.14 369.664 349.809 369.962 350.695 369.962C351.453 369.962 352.23 369.799 353.027 369.473V370.693C352.419 371.008 351.652 371.166 350.728 371.166ZM361.729 371V365.115C361.729 364.373 361.56 363.82 361.222 363.455C360.885 363.089 360.356 362.907 359.637 362.907C358.679 362.907 357.979 363.167 357.537 363.687C357.099 364.207 356.881 365.059 356.881 366.244V371H355.503V358.084H356.881V361.994C356.881 362.464 356.859 362.854 356.814 363.164H356.897C357.169 362.727 357.553 362.384 358.051 362.135C358.555 361.88 359.128 361.753 359.77 361.753C360.882 361.753 361.715 362.019 362.268 362.55C362.827 363.076 363.106 363.914 363.106 365.065V371H361.729ZM373.918 370.029C374.162 370.029 374.397 370.012 374.624 369.979C374.85 369.94 375.03 369.902 375.163 369.863V370.917C375.014 370.989 374.792 371.047 374.499 371.091C374.211 371.141 373.951 371.166 373.719 371.166C371.959 371.166 371.079 370.239 371.079 368.385V362.973H369.776V362.309L371.079 361.736L371.66 359.794H372.457V361.902H375.097V362.973H372.457V368.327C372.457 368.875 372.587 369.296 372.847 369.589C373.107 369.882 373.464 370.029 373.918 370.029ZM383.524 371V365.115C383.524 364.373 383.355 363.82 383.018 363.455C382.68 363.089 382.152 362.907 381.432 362.907C380.475 362.907 379.775 363.167 379.332 363.687C378.895 364.207 378.676 365.059 378.676 366.244V371H377.298V358.084H378.676V361.994C378.676 362.464 378.654 362.854 378.61 363.164H378.693C378.964 362.727 379.349 362.384 379.847 362.135C380.35 361.88 380.923 361.753 381.565 361.753C382.677 361.753 383.51 362.019 384.064 362.55C384.622 363.076 384.902 363.914 384.902 365.065V371H383.524ZM391.893 371.166C390.548 371.166 389.486 370.757 388.706 369.938C387.931 369.118 387.544 367.981 387.544 366.526C387.544 365.059 387.903 363.895 388.623 363.031C389.348 362.168 390.319 361.736 391.536 361.736C392.676 361.736 393.578 362.113 394.242 362.865C394.906 363.612 395.238 364.6 395.238 365.829V366.7H388.971C388.999 367.768 389.267 368.579 389.776 369.132C390.291 369.686 391.013 369.962 391.943 369.962C392.922 369.962 393.891 369.758 394.848 369.348V370.577C394.361 370.787 393.899 370.936 393.462 371.025C393.03 371.119 392.507 371.166 391.893 371.166ZM391.52 362.89C390.789 362.89 390.205 363.128 389.768 363.604C389.336 364.08 389.082 364.738 389.004 365.58H393.761C393.761 364.711 393.567 364.047 393.18 363.587C392.792 363.123 392.239 362.89 391.52 362.89ZM404.622 371L401.169 361.902H402.647L404.606 367.298C405.048 368.56 405.308 369.379 405.386 369.755H405.452C405.513 369.462 405.704 368.856 406.025 367.937C406.351 367.013 407.079 365.001 408.208 361.902H409.686L406.233 371H404.622ZM412.834 371H411.456V361.902H412.834V371ZM411.339 359.437C411.339 359.122 411.417 358.892 411.572 358.748C411.727 358.599 411.921 358.524 412.153 358.524C412.374 358.524 412.565 358.599 412.726 358.748C412.886 358.897 412.966 359.127 412.966 359.437C412.966 359.747 412.886 359.979 412.726 360.134C412.565 360.284 412.374 360.358 412.153 360.358C411.921 360.358 411.727 360.284 411.572 360.134C411.417 359.979 411.339 359.747 411.339 359.437ZM422.257 369.78H422.182C421.546 370.704 420.594 371.166 419.327 371.166C418.137 371.166 417.21 370.759 416.546 369.946C415.887 369.132 415.558 367.976 415.558 366.476C415.558 364.976 415.89 363.812 416.554 362.981C417.218 362.151 418.143 361.736 419.327 361.736C420.561 361.736 421.507 362.185 422.166 363.081H422.274L422.215 362.425L422.182 361.786V358.084H423.56V371H422.44L422.257 369.78ZM419.501 370.012C420.442 370.012 421.123 369.758 421.543 369.249C421.969 368.734 422.182 367.907 422.182 366.767V366.476C422.182 365.187 421.966 364.268 421.535 363.72C421.109 363.167 420.425 362.89 419.484 362.89C418.677 362.89 418.057 363.206 417.625 363.836C417.199 364.462 416.986 365.347 416.986 366.493C416.986 367.655 417.199 368.532 417.625 369.124C418.051 369.716 418.677 370.012 419.501 370.012ZM430.643 371.166C429.298 371.166 428.235 370.757 427.455 369.938C426.68 369.118 426.293 367.981 426.293 366.526C426.293 365.059 426.653 363.895 427.372 363.031C428.097 362.168 429.068 361.736 430.286 361.736C431.426 361.736 432.328 362.113 432.992 362.865C433.656 363.612 433.988 364.6 433.988 365.829V366.7H427.721C427.748 367.768 428.017 368.579 428.526 369.132C429.041 369.686 429.763 369.962 430.692 369.962C431.672 369.962 432.64 369.758 433.598 369.348V370.577C433.111 370.787 432.649 370.936 432.212 371.025C431.78 371.119 431.257 371.166 430.643 371.166ZM430.269 362.89C429.539 362.89 428.955 363.128 428.518 363.604C428.086 364.08 427.831 364.738 427.754 365.58H432.51C432.51 364.711 432.317 364.047 431.929 363.587C431.542 363.123 430.989 362.89 430.269 362.89ZM444.507 366.443C444.507 367.926 444.133 369.085 443.386 369.921C442.639 370.751 441.607 371.166 440.29 371.166C439.477 371.166 438.755 370.975 438.124 370.593C437.493 370.211 437.006 369.664 436.663 368.95C436.32 368.236 436.148 367.4 436.148 366.443C436.148 364.96 436.519 363.806 437.26 362.981C438.002 362.151 439.031 361.736 440.348 361.736C441.621 361.736 442.631 362.16 443.378 363.006C444.131 363.853 444.507 364.999 444.507 366.443ZM437.576 366.443C437.576 367.605 437.808 368.49 438.273 369.099C438.738 369.708 439.421 370.012 440.323 370.012C441.225 370.012 441.909 369.711 442.374 369.107C442.844 368.499 443.079 367.611 443.079 366.443C443.079 365.286 442.844 364.409 442.374 363.812C441.909 363.208 441.22 362.907 440.307 362.907C439.405 362.907 438.724 363.203 438.265 363.795C437.805 364.387 437.576 365.27 437.576 366.443Z" fill="#717171"/>
<path d="M774.246 218H772.834V207.118H768.991V205.864H778.089V207.118H774.246V218ZM781.403 218H780.025V208.902H781.403V218ZM779.909 206.437C779.909 206.122 779.986 205.892 780.141 205.748C780.296 205.599 780.49 205.524 780.722 205.524C780.943 205.524 781.134 205.599 781.295 205.748C781.455 205.897 781.536 206.127 781.536 206.437C781.536 206.747 781.455 206.979 781.295 207.134C781.134 207.284 780.943 207.358 780.722 207.358C780.49 207.358 780.296 207.284 780.141 207.134C779.986 206.979 779.909 206.747 779.909 206.437ZM788.867 218.166C788.275 218.166 787.733 218.058 787.24 217.842C786.753 217.621 786.344 217.283 786.012 216.83H785.912C785.978 217.361 786.012 217.864 786.012 218.34V222.084H784.634V208.902H785.754L785.945 210.147H786.012C786.366 209.649 786.778 209.29 787.248 209.068C787.719 208.847 788.258 208.736 788.867 208.736C790.074 208.736 791.003 209.149 791.656 209.973C792.315 210.798 792.644 211.954 792.644 213.443C792.644 214.937 792.309 216.099 791.64 216.929C790.976 217.754 790.051 218.166 788.867 218.166ZM788.668 209.907C787.738 209.907 787.066 210.164 786.651 210.679C786.236 211.193 786.023 212.012 786.012 213.136V213.443C786.012 214.721 786.225 215.637 786.651 216.19C787.077 216.738 787.76 217.012 788.701 217.012C789.487 217.012 790.101 216.694 790.544 216.058C790.992 215.421 791.216 214.544 791.216 213.426C791.216 212.292 790.992 211.423 790.544 210.82C790.101 210.211 789.476 209.907 788.668 209.907ZM801.237 215.518C801.237 216.365 800.922 217.018 800.291 217.477C799.66 217.936 798.775 218.166 797.635 218.166C796.428 218.166 795.488 217.975 794.812 217.593V216.315C795.25 216.536 795.717 216.711 796.215 216.838C796.719 216.965 797.203 217.029 797.668 217.029C798.387 217.029 798.941 216.915 799.328 216.688C799.715 216.456 799.909 216.105 799.909 215.634C799.909 215.28 799.754 214.979 799.444 214.729C799.14 214.475 798.542 214.176 797.651 213.833C796.805 213.518 796.201 213.244 795.842 213.011C795.488 212.773 795.222 212.505 795.045 212.206C794.873 211.907 794.788 211.55 794.788 211.135C794.788 210.394 795.089 209.81 795.692 209.384C796.296 208.952 797.123 208.736 798.174 208.736C799.154 208.736 800.111 208.936 801.046 209.334L800.557 210.455C799.644 210.078 798.816 209.89 798.075 209.89C797.422 209.89 796.929 209.993 796.597 210.197C796.265 210.402 796.099 210.684 796.099 211.044C796.099 211.287 796.16 211.495 796.282 211.667C796.409 211.838 796.611 212.001 796.888 212.156C797.164 212.311 797.696 212.535 798.481 212.829C799.56 213.222 800.288 213.617 800.665 214.016C801.046 214.414 801.237 214.915 801.237 215.518ZM812.622 209.973H810.306V218H808.928V209.973H807.301V209.351L808.928 208.853V208.346C808.928 206.111 809.904 204.993 811.858 204.993C812.339 204.993 812.904 205.09 813.551 205.283L813.194 206.387C812.663 206.216 812.209 206.13 811.833 206.13C811.313 206.13 810.928 206.304 810.679 206.653C810.43 206.996 810.306 207.549 810.306 208.313V208.902H812.622V209.973ZM822.443 213.443C822.443 214.926 822.07 216.085 821.323 216.921C820.576 217.751 819.544 218.166 818.227 218.166C817.413 218.166 816.691 217.975 816.06 217.593C815.429 217.211 814.942 216.664 814.599 215.95C814.256 215.236 814.084 214.4 814.084 213.443C814.084 211.96 814.455 210.806 815.197 209.981C815.938 209.151 816.968 208.736 818.285 208.736C819.557 208.736 820.567 209.16 821.314 210.006C822.067 210.853 822.443 211.999 822.443 213.443ZM815.512 213.443C815.512 214.605 815.745 215.49 816.209 216.099C816.674 216.708 817.358 217.012 818.26 217.012C819.162 217.012 819.845 216.711 820.31 216.107C820.78 215.499 821.016 214.611 821.016 213.443C821.016 212.286 820.78 211.409 820.31 210.812C819.845 210.208 819.156 209.907 818.243 209.907C817.341 209.907 816.66 210.203 816.201 210.795C815.742 211.387 815.512 212.27 815.512 213.443ZM829.327 208.736C829.731 208.736 830.093 208.77 830.414 208.836L830.223 210.114C829.847 210.031 829.515 209.99 829.227 209.99C828.491 209.99 827.86 210.289 827.334 210.886C826.814 211.484 826.554 212.228 826.554 213.119V218H825.176V208.902H826.313L826.471 210.587H826.538C826.875 209.995 827.282 209.539 827.758 209.218C828.234 208.897 828.757 208.736 829.327 208.736ZM838.528 218H837.15V208.902H838.528V218ZM837.034 206.437C837.034 206.122 837.111 205.892 837.266 205.748C837.421 205.599 837.615 205.524 837.847 205.524C838.069 205.524 838.259 205.599 838.42 205.748C838.58 205.897 838.661 206.127 838.661 206.437C838.661 206.747 838.58 206.979 838.42 207.134C838.259 207.284 838.069 207.358 837.847 207.358C837.615 207.358 837.421 207.284 837.266 207.134C837.111 206.979 837.034 206.747 837.034 206.437ZM853.355 218V212.082C853.355 211.357 853.2 210.814 852.89 210.455C852.58 210.089 852.099 209.907 851.446 209.907C850.588 209.907 849.954 210.153 849.545 210.646C849.135 211.138 848.931 211.896 848.931 212.92V218H847.553V212.082C847.553 211.357 847.398 210.814 847.088 210.455C846.778 210.089 846.294 209.907 845.635 209.907C844.772 209.907 844.138 210.167 843.734 210.687C843.336 211.202 843.137 212.048 843.137 213.227V218H841.759V208.902H842.879L843.104 210.147H843.17C843.43 209.705 843.795 209.359 844.266 209.11C844.742 208.861 845.273 208.736 845.859 208.736C847.282 208.736 848.211 209.251 848.648 210.28H848.715C848.986 209.804 849.379 209.428 849.894 209.151C850.408 208.875 850.995 208.736 851.653 208.736C852.683 208.736 853.452 209.002 853.961 209.533C854.476 210.059 854.733 210.903 854.733 212.065V218H853.355ZM862.123 218.166C861.53 218.166 860.988 218.058 860.496 217.842C860.009 217.621 859.599 217.283 859.267 216.83H859.168C859.234 217.361 859.267 217.864 859.267 218.34V222.084H857.889V208.902H859.01L859.201 210.147H859.267C859.621 209.649 860.034 209.29 860.504 209.068C860.974 208.847 861.514 208.736 862.123 208.736C863.329 208.736 864.259 209.149 864.912 209.973C865.57 210.798 865.899 211.954 865.899 213.443C865.899 214.937 865.565 216.099 864.895 216.929C864.231 217.754 863.307 218.166 862.123 218.166ZM861.923 209.907C860.994 209.907 860.321 210.164 859.906 210.679C859.491 211.193 859.278 212.012 859.267 213.136V213.443C859.267 214.721 859.48 215.637 859.906 216.19C860.332 216.738 861.016 217.012 861.957 217.012C862.742 217.012 863.357 216.694 863.799 216.058C864.248 215.421 864.472 214.544 864.472 213.426C864.472 212.292 864.248 211.423 863.799 210.82C863.357 210.211 862.731 209.907 861.923 209.907ZM876.477 213.443C876.477 214.926 876.103 216.085 875.356 216.921C874.609 217.751 873.577 218.166 872.26 218.166C871.446 218.166 870.724 217.975 870.093 217.593C869.462 217.211 868.975 216.664 868.632 215.95C868.289 215.236 868.118 214.4 868.118 213.443C868.118 211.96 868.488 210.806 869.23 209.981C869.972 209.151 871.001 208.736 872.318 208.736C873.591 208.736 874.601 209.16 875.348 210.006C876.1 210.853 876.477 211.999 876.477 213.443ZM869.545 213.443C869.545 214.605 869.778 215.49 870.243 216.099C870.708 216.708 871.391 217.012 872.293 217.012C873.195 217.012 873.878 216.711 874.343 216.107C874.814 215.499 875.049 214.611 875.049 213.443C875.049 212.286 874.814 211.409 874.343 210.812C873.878 210.208 873.189 209.907 872.276 209.907C871.374 209.907 870.694 210.203 870.234 210.795C869.775 211.387 869.545 212.27 869.545 213.443ZM883.36 208.736C883.764 208.736 884.126 208.77 884.447 208.836L884.256 210.114C883.88 210.031 883.548 209.99 883.26 209.99C882.524 209.99 881.893 210.289 881.368 210.886C880.848 211.484 880.587 212.228 880.587 213.119V218H879.21V208.902H880.347L880.504 210.587H880.571C880.908 209.995 881.315 209.539 881.791 209.218C882.267 208.897 882.79 208.736 883.36 208.736ZM889.397 217.029C889.64 217.029 889.875 217.012 890.102 216.979C890.329 216.94 890.509 216.902 890.642 216.863V217.917C890.492 217.989 890.271 218.047 889.978 218.091C889.69 218.141 889.43 218.166 889.197 218.166C887.438 218.166 886.558 217.239 886.558 215.385V209.973H885.254V209.309L886.558 208.736L887.139 206.794H887.936V208.902H890.575V209.973H887.936V215.327C887.936 215.875 888.066 216.296 888.326 216.589C888.586 216.882 888.943 217.029 889.397 217.029ZM898.372 218L898.098 216.705H898.031C897.578 217.275 897.124 217.662 896.67 217.867C896.222 218.066 895.66 218.166 894.985 218.166C894.083 218.166 893.375 217.934 892.86 217.469C892.351 217.004 892.096 216.343 892.096 215.485C892.096 213.648 893.565 212.685 896.504 212.596L898.048 212.546V211.982C898.048 211.268 897.893 210.742 897.583 210.405C897.279 210.062 896.789 209.89 896.114 209.89C895.356 209.89 894.498 210.123 893.541 210.587L893.117 209.533C893.565 209.29 894.055 209.099 894.586 208.96C895.123 208.822 895.66 208.753 896.197 208.753C897.281 208.753 898.084 208.994 898.604 209.475C899.13 209.957 899.393 210.729 899.393 211.791V218H898.372ZM895.259 217.029C896.117 217.029 896.789 216.794 897.276 216.323C897.768 215.853 898.015 215.194 898.015 214.348V213.526L896.637 213.584C895.541 213.623 894.75 213.794 894.263 214.099C893.781 214.397 893.541 214.865 893.541 215.501C893.541 216 893.69 216.379 893.989 216.639C894.293 216.899 894.717 217.029 895.259 217.029ZM908.774 218V212.115C908.774 211.373 908.606 210.82 908.268 210.455C907.931 210.089 907.402 209.907 906.683 209.907C905.731 209.907 905.034 210.164 904.591 210.679C904.148 211.193 903.927 212.043 903.927 213.227V218H902.549V208.902H903.669L903.894 210.147H903.96C904.242 209.699 904.638 209.353 905.147 209.11C905.656 208.861 906.223 208.736 906.849 208.736C907.944 208.736 908.769 209.002 909.322 209.533C909.876 210.059 910.152 210.903 910.152 212.065V218H908.774ZM916.239 217.029C916.482 217.029 916.718 217.012 916.944 216.979C917.171 216.94 917.351 216.902 917.484 216.863V217.917C917.335 217.989 917.113 218.047 916.82 218.091C916.532 218.141 916.272 218.166 916.04 218.166C914.28 218.166 913.4 217.239 913.4 215.385V209.973H912.097V209.309L913.4 208.736L913.981 206.794H914.778V208.902H917.418V209.973H914.778V215.327C914.778 215.875 914.908 216.296 915.168 216.589C915.428 216.882 915.785 217.029 916.239 217.029ZM756.737 241.166C755.42 241.166 754.399 240.762 753.674 239.954C752.955 239.141 752.595 237.992 752.595 236.509C752.595 234.987 752.96 233.812 753.691 232.981C754.427 232.151 755.473 231.736 756.829 231.736C757.266 231.736 757.703 231.783 758.14 231.877C758.577 231.972 758.92 232.082 759.169 232.209L758.746 233.38C758.442 233.258 758.11 233.159 757.75 233.081C757.39 232.998 757.072 232.957 756.795 232.957C754.947 232.957 754.023 234.135 754.023 236.493C754.023 237.611 754.247 238.468 754.695 239.066C755.149 239.664 755.819 239.962 756.704 239.962C757.462 239.962 758.24 239.799 759.037 239.473V240.693C758.428 241.008 757.661 241.166 756.737 241.166ZM769.365 236.443C769.365 237.926 768.991 239.085 768.244 239.921C767.497 240.751 766.465 241.166 765.148 241.166C764.334 241.166 763.612 240.975 762.981 240.593C762.351 240.211 761.864 239.664 761.52 238.95C761.177 238.236 761.006 237.4 761.006 236.443C761.006 234.96 761.377 233.806 762.118 232.981C762.86 232.151 763.889 231.736 765.206 231.736C766.479 231.736 767.489 232.16 768.236 233.006C768.988 233.853 769.365 234.999 769.365 236.443ZM762.434 236.443C762.434 237.605 762.666 238.49 763.131 239.099C763.596 239.708 764.279 240.012 765.181 240.012C766.083 240.012 766.767 239.711 767.231 239.107C767.702 238.499 767.937 237.611 767.937 236.443C767.937 235.286 767.702 234.409 767.231 233.812C766.767 233.208 766.078 232.907 765.164 232.907C764.262 232.907 763.582 233.203 763.122 233.795C762.663 234.387 762.434 235.27 762.434 236.443ZM778.323 241V235.115C778.323 234.373 778.154 233.82 777.817 233.455C777.479 233.089 776.951 232.907 776.231 232.907C775.28 232.907 774.582 233.164 774.14 233.679C773.697 234.193 773.476 235.043 773.476 236.227V241H772.098V231.902H773.218L773.442 233.147H773.509C773.791 232.699 774.187 232.353 774.696 232.11C775.205 231.861 775.772 231.736 776.397 231.736C777.493 231.736 778.318 232.002 778.871 232.533C779.424 233.059 779.701 233.903 779.701 235.065V241H778.323ZM786.485 241.166C785.168 241.166 784.147 240.762 783.422 239.954C782.702 239.141 782.343 237.992 782.343 236.509C782.343 234.987 782.708 233.812 783.438 232.981C784.174 232.151 785.22 231.736 786.576 231.736C787.013 231.736 787.45 231.783 787.888 231.877C788.325 231.972 788.668 232.082 788.917 232.209L788.494 233.38C788.189 233.258 787.857 233.159 787.497 233.081C787.138 232.998 786.82 232.957 786.543 232.957C784.695 232.957 783.77 234.135 783.77 236.493C783.77 237.611 783.995 238.468 784.443 239.066C784.897 239.664 785.566 239.962 786.452 239.962C787.21 239.962 787.987 239.799 788.784 239.473V240.693C788.175 241.008 787.409 241.166 786.485 241.166ZM795.103 241.166C793.758 241.166 792.696 240.757 791.915 239.938C791.141 239.118 790.753 237.981 790.753 236.526C790.753 235.059 791.113 233.895 791.832 233.031C792.557 232.168 793.529 231.736 794.746 231.736C795.886 231.736 796.788 232.113 797.452 232.865C798.116 233.612 798.448 234.6 798.448 235.829V236.7H792.181C792.209 237.768 792.477 238.579 792.986 239.132C793.501 239.686 794.223 239.962 795.153 239.962C796.132 239.962 797.101 239.758 798.058 239.348V240.577C797.571 240.787 797.109 240.936 796.672 241.025C796.24 241.119 795.717 241.166 795.103 241.166ZM794.729 232.89C793.999 232.89 793.415 233.128 792.978 233.604C792.546 234.08 792.292 234.738 792.214 235.58H796.971C796.971 234.711 796.777 234.047 796.39 233.587C796.002 233.123 795.449 232.89 794.729 232.89ZM805.348 241.166C804.756 241.166 804.214 241.058 803.721 240.842C803.234 240.621 802.825 240.283 802.493 239.83H802.393C802.459 240.361 802.493 240.864 802.493 241.34V245.084H801.115V231.902H802.235L802.426 233.147H802.493C802.847 232.649 803.259 232.29 803.729 232.068C804.2 231.847 804.739 231.736 805.348 231.736C806.554 231.736 807.484 232.149 808.137 232.973C808.796 233.798 809.125 234.954 809.125 236.443C809.125 237.937 808.79 239.099 808.121 239.929C807.456 240.754 806.532 241.166 805.348 241.166ZM805.149 232.907C804.219 232.907 803.547 233.164 803.132 233.679C802.717 234.193 802.504 235.012 802.493 236.136V236.443C802.493 237.721 802.706 238.637 803.132 239.19C803.558 239.738 804.241 240.012 805.182 240.012C805.968 240.012 806.582 239.694 807.025 239.058C807.473 238.421 807.697 237.544 807.697 236.426C807.697 235.292 807.473 234.423 807.025 233.82C806.582 233.211 805.957 232.907 805.149 232.907ZM814.788 240.029C815.032 240.029 815.267 240.012 815.494 239.979C815.721 239.94 815.9 239.902 816.033 239.863V240.917C815.884 240.989 815.662 241.047 815.369 241.091C815.081 241.141 814.821 241.166 814.589 241.166C812.829 241.166 811.949 240.239 811.949 238.385V232.973H810.646V232.309L811.949 231.736L812.53 229.794H813.327V231.902H815.967V232.973H813.327V238.327C813.327 238.875 813.457 239.296 813.717 239.589C813.977 239.882 814.334 240.029 814.788 240.029ZM819.463 231.902V237.804C819.463 238.546 819.632 239.099 819.97 239.464C820.307 239.83 820.836 240.012 821.555 240.012C822.507 240.012 823.201 239.752 823.639 239.232C824.081 238.712 824.303 237.862 824.303 236.684V231.902H825.681V241H824.543L824.344 239.78H824.27C823.987 240.228 823.594 240.571 823.091 240.809C822.593 241.047 822.023 241.166 821.381 241.166C820.274 241.166 819.444 240.903 818.891 240.377C818.343 239.852 818.069 239.011 818.069 237.854V231.902H819.463ZM834.515 241L834.241 239.705H834.174C833.721 240.275 833.267 240.662 832.813 240.867C832.365 241.066 831.803 241.166 831.128 241.166C830.226 241.166 829.518 240.934 829.003 240.469C828.494 240.004 828.239 239.343 828.239 238.485C828.239 236.648 829.708 235.685 832.647 235.596L834.191 235.546V234.982C834.191 234.268 834.036 233.742 833.726 233.405C833.422 233.062 832.932 232.89 832.257 232.89C831.499 232.89 830.641 233.123 829.684 233.587L829.26 232.533C829.708 232.29 830.198 232.099 830.729 231.96C831.266 231.822 831.803 231.753 832.34 231.753C833.424 231.753 834.227 231.994 834.747 232.475C835.273 232.957 835.536 233.729 835.536 234.791V241H834.515ZM831.402 240.029C832.26 240.029 832.932 239.794 833.419 239.323C833.911 238.853 834.158 238.194 834.158 237.348V236.526L832.78 236.584C831.684 236.623 830.893 236.794 830.406 237.099C829.924 237.397 829.684 237.865 829.684 238.501C829.684 239 829.833 239.379 830.132 239.639C830.436 239.899 830.86 240.029 831.402 240.029ZM840.07 241H838.692V228.084H840.07V241ZM849.387 236.343C849.625 236.006 849.988 235.563 850.475 235.015L853.413 231.902H855.048L851.363 235.779L855.306 241H853.637L850.425 236.7L849.387 237.597V241H848.026V228.084H849.387V234.932C849.387 235.236 849.365 235.707 849.321 236.343H849.387ZM863.492 241V235.115C863.492 234.373 863.323 233.82 862.986 233.455C862.648 233.089 862.12 232.907 861.4 232.907C860.449 232.907 859.751 233.164 859.309 233.679C858.866 234.193 858.645 235.043 858.645 236.227V241H857.267V231.902H858.387L858.611 233.147H858.678C858.96 232.699 859.356 232.353 859.865 232.11C860.374 231.861 860.941 231.736 861.566 231.736C862.662 231.736 863.487 232.002 864.04 232.533C864.593 233.059 864.87 233.903 864.87 235.065V241H863.492ZM875.871 236.443C875.871 237.926 875.497 239.085 874.75 239.921C874.003 240.751 872.971 241.166 871.654 241.166C870.84 241.166 870.118 240.975 869.487 240.593C868.856 240.211 868.369 239.664 868.026 238.95C867.683 238.236 867.512 237.4 867.512 236.443C867.512 234.96 867.883 233.806 868.624 232.981C869.366 232.151 870.395 231.736 871.712 231.736C872.985 231.736 873.995 232.16 874.742 233.006C875.494 233.853 875.871 234.999 875.871 236.443ZM868.939 236.443C868.939 237.605 869.172 238.49 869.637 239.099C870.102 239.708 870.785 240.012 871.687 240.012C872.589 240.012 873.272 239.711 873.737 239.107C874.208 238.499 874.443 237.611 874.443 236.443C874.443 235.286 874.208 234.409 873.737 233.812C873.272 233.208 872.584 232.907 871.67 232.907C870.768 232.907 870.088 233.203 869.628 233.795C869.169 234.387 868.939 235.27 868.939 236.443ZM886.033 241L884.364 235.663C884.259 235.336 884.063 234.595 883.775 233.438H883.709C883.487 234.406 883.293 235.153 883.127 235.679L881.409 241H879.815L877.334 231.902H878.778C879.364 234.188 879.81 235.928 880.114 237.124C880.424 238.319 880.601 239.124 880.646 239.539H880.712C880.773 239.224 880.87 238.817 881.002 238.319C881.141 237.815 881.26 237.417 881.359 237.124L883.028 231.902H884.522L886.149 237.124C886.459 238.075 886.669 238.875 886.78 239.522H886.846C886.868 239.323 886.926 239.016 887.021 238.601C887.12 238.186 887.698 235.953 888.755 231.902H890.183L887.668 241H886.033ZM893.522 241H892.144V228.084H893.522V241ZM900.596 241.166C899.252 241.166 898.189 240.757 897.409 239.938C896.634 239.118 896.247 237.981 896.247 236.526C896.247 235.059 896.606 233.895 897.326 233.031C898.051 232.168 899.022 231.736 900.239 231.736C901.379 231.736 902.281 232.113 902.945 232.865C903.609 233.612 903.941 234.6 903.941 235.829V236.7H897.674C897.702 237.768 897.97 238.579 898.48 239.132C898.994 239.686 899.716 239.962 900.646 239.962C901.626 239.962 902.594 239.758 903.551 239.348V240.577C903.064 240.787 902.602 240.936 902.165 241.025C901.733 241.119 901.21 241.166 900.596 241.166ZM900.223 232.89C899.492 232.89 898.908 233.128 898.471 233.604C898.04 234.08 897.785 234.738 897.708 235.58H902.464C902.464 234.711 902.27 234.047 901.883 233.587C901.495 233.123 900.942 232.89 900.223 232.89ZM912.8 239.78H912.726C912.089 240.704 911.137 241.166 909.87 241.166C908.68 241.166 907.753 240.759 907.089 239.946C906.431 239.132 906.102 237.976 906.102 236.476C906.102 234.976 906.434 233.812 907.098 232.981C907.762 232.151 908.686 231.736 909.87 231.736C911.104 231.736 912.051 232.185 912.709 233.081H912.817L912.759 232.425L912.726 231.786V228.084H914.104V241H912.983L912.8 239.78ZM910.044 240.012C910.985 240.012 911.666 239.758 912.086 239.249C912.513 238.734 912.726 237.907 912.726 236.767V236.476C912.726 235.187 912.51 234.268 912.078 233.72C911.652 233.167 910.969 232.89 910.028 232.89C909.22 232.89 908.6 233.206 908.169 233.836C907.742 234.462 907.529 235.347 907.529 236.493C907.529 237.655 907.742 238.532 908.169 239.124C908.595 239.716 909.22 240.012 910.044 240.012ZM924.789 231.902V232.774L923.104 232.973C923.259 233.167 923.397 233.421 923.519 233.737C923.64 234.047 923.701 234.398 923.701 234.791C923.701 235.682 923.397 236.393 922.788 236.924C922.179 237.456 921.344 237.721 920.281 237.721C920.01 237.721 919.756 237.699 919.518 237.655C918.931 237.965 918.638 238.355 918.638 238.825C918.638 239.074 918.74 239.26 918.945 239.381C919.15 239.498 919.501 239.556 919.999 239.556H921.609C922.594 239.556 923.35 239.763 923.876 240.178C924.407 240.593 924.672 241.196 924.672 241.988C924.672 242.995 924.268 243.761 923.461 244.287C922.653 244.818 921.474 245.084 919.924 245.084C918.735 245.084 917.816 244.863 917.169 244.42C916.527 243.977 916.206 243.352 916.206 242.544C916.206 241.991 916.383 241.512 916.737 241.108C917.091 240.704 917.589 240.43 918.231 240.286C917.999 240.181 917.802 240.018 917.642 239.796C917.487 239.575 917.409 239.318 917.409 239.024C917.409 238.692 917.498 238.402 917.675 238.153C917.852 237.904 918.131 237.663 918.513 237.431C918.043 237.237 917.658 236.908 917.359 236.443C917.066 235.978 916.919 235.447 916.919 234.849C916.919 233.853 917.218 233.087 917.816 232.55C918.414 232.007 919.26 231.736 920.356 231.736C920.832 231.736 921.261 231.792 921.643 231.902H924.789ZM917.534 242.527C917.534 243.02 917.741 243.393 918.156 243.648C918.571 243.903 919.166 244.03 919.941 244.03C921.098 244.03 921.953 243.855 922.506 243.507C923.065 243.164 923.344 242.696 923.344 242.104C923.344 241.611 923.192 241.268 922.888 241.075C922.583 240.887 922.011 240.792 921.169 240.792H919.518C918.892 240.792 918.405 240.942 918.057 241.241C917.708 241.54 917.534 241.968 917.534 242.527ZM918.281 234.816C918.281 235.452 918.461 235.934 918.82 236.26C919.18 236.587 919.681 236.75 920.323 236.75C921.668 236.75 922.34 236.097 922.34 234.791C922.34 233.424 921.659 232.741 920.298 232.741C919.65 232.741 919.152 232.915 918.804 233.264C918.455 233.612 918.281 234.13 918.281 234.816ZM930.809 241.166C929.464 241.166 928.401 240.757 927.621 239.938C926.846 239.118 926.459 237.981 926.459 236.526C926.459 235.059 926.819 233.895 927.538 233.031C928.263 232.168 929.234 231.736 930.452 231.736C931.592 231.736 932.494 232.113 933.158 232.865C933.822 233.612 934.154 234.6 934.154 235.829V236.7H927.887C927.914 237.768 928.183 238.579 928.692 239.132C929.207 239.686 929.929 239.962 930.858 239.962C931.838 239.962 932.806 239.758 933.764 239.348V240.577C933.277 240.787 932.815 240.936 932.378 241.025C931.946 241.119 931.423 241.166 930.809 241.166ZM930.435 232.89C929.705 232.89 929.121 233.128 928.684 233.604C928.252 234.08 927.997 234.738 927.92 235.58H932.676C932.676 234.711 932.483 234.047 932.095 233.587C931.708 233.123 931.155 232.89 930.435 232.89Z" fill="#717171"/>
<path d="M577.997 14.771C577.997 15.839 577.61 16.6719 576.835 17.2695C576.06 17.8672 575.009 18.166 573.681 18.166C572.242 18.166 571.135 17.9806 570.36 17.6099V16.2485C570.858 16.4588 571.401 16.6248 571.987 16.7466C572.574 16.8683 573.155 16.9292 573.73 16.9292C574.671 16.9292 575.38 16.7521 575.855 16.3979C576.331 16.0382 576.569 15.5402 576.569 14.9038C576.569 14.4832 576.484 14.1401 576.312 13.8745C576.146 13.6034 575.864 13.3543 575.465 13.1274C575.072 12.9006 574.472 12.6432 573.664 12.3555C572.535 11.9515 571.727 11.4728 571.24 10.9194C570.759 10.366 570.518 9.64388 570.518 8.75293C570.518 7.81771 570.869 7.0734 571.572 6.52002C572.275 5.96663 573.205 5.68994 574.361 5.68994C575.568 5.68994 576.677 5.9113 577.69 6.354L577.25 7.58252C576.248 7.16195 575.274 6.95166 574.328 6.95166C573.581 6.95166 572.997 7.11214 572.577 7.43311C572.156 7.75407 571.946 8.19954 571.946 8.76953C571.946 9.1901 572.023 9.53597 572.178 9.80713C572.333 10.0728 572.593 10.319 572.958 10.5459C573.329 10.7673 573.894 11.0135 574.652 11.2847C575.925 11.7384 576.799 12.2254 577.275 12.7456C577.756 13.2658 577.997 13.9409 577.997 14.771ZM583.519 17.0288C583.763 17.0288 583.998 17.0122 584.225 16.979C584.451 16.9403 584.631 16.9015 584.764 16.8628V17.917C584.615 17.9889 584.393 18.047 584.1 18.0913C583.812 18.1411 583.552 18.166 583.32 18.166C581.56 18.166 580.68 17.2391 580.68 15.3853V9.97314H579.377V9.30908L580.68 8.73633L581.261 6.79395H582.058V8.90234H584.698V9.97314H582.058V15.3271C582.058 15.875 582.188 16.2956 582.448 16.5889C582.708 16.8822 583.065 17.0288 583.519 17.0288ZM590.743 18.166C589.398 18.166 588.335 17.7565 587.555 16.9375C586.78 16.1185 586.393 14.9813 586.393 13.5259C586.393 12.0594 586.753 10.8945 587.472 10.0312C588.197 9.16797 589.168 8.73633 590.386 8.73633C591.526 8.73633 592.428 9.11263 593.092 9.86523C593.756 10.6123 594.088 11.6001 594.088 12.8286V13.7002H587.821C587.848 14.7682 588.117 15.5789 588.626 16.1323C589.141 16.6857 589.863 16.9624 590.792 16.9624C591.772 16.9624 592.74 16.7576 593.698 16.3481V17.5767C593.211 17.7869 592.749 17.9364 592.312 18.0249C591.88 18.119 591.357 18.166 590.743 18.166ZM590.369 9.89014C589.639 9.89014 589.055 10.1281 588.618 10.604C588.186 11.0799 587.931 11.7384 587.854 12.5796H592.61C592.61 11.7108 592.417 11.0467 592.029 10.5874C591.642 10.1226 591.089 9.89014 590.369 9.89014ZM600.988 18.166C600.396 18.166 599.853 18.0581 599.361 17.8423C598.874 17.6209 598.464 17.2834 598.132 16.8296H598.033C598.099 17.3608 598.132 17.8644 598.132 18.3403V22.084H596.754V8.90234H597.875L598.066 10.1475H598.132C598.486 9.64941 598.899 9.28971 599.369 9.06836C599.84 8.84701 600.379 8.73633 600.988 8.73633C602.194 8.73633 603.124 9.1486 603.777 9.97314C604.435 10.7977 604.765 11.9543 604.765 13.4429C604.765 14.937 604.43 16.0991 603.76 16.9292C603.096 17.7537 602.172 18.166 600.988 18.166ZM600.789 9.90674C599.859 9.90674 599.187 10.1641 598.771 10.6787C598.356 11.1934 598.143 12.0124 598.132 13.1357V13.4429C598.132 14.7212 598.345 15.637 598.771 16.1904C599.198 16.7383 599.881 17.0122 600.822 17.0122C601.608 17.0122 602.222 16.694 602.665 16.0576C603.113 15.4212 603.337 14.5441 603.337 13.4263C603.337 12.2918 603.113 11.423 602.665 10.8198C602.222 10.2111 601.597 9.90674 600.789 9.90674ZM619.627 11.9155C619.627 14.0129 619.295 15.5789 618.631 16.6138C617.972 17.6486 616.962 18.166 615.601 18.166C614.295 18.166 613.302 17.6375 612.621 16.5806C611.94 15.5181 611.6 13.9631 611.6 11.9155C611.6 9.8016 611.929 8.23275 612.588 7.20898C613.246 6.18522 614.251 5.67334 615.601 5.67334C616.918 5.67334 617.917 6.20736 618.598 7.27539C619.284 8.34342 619.627 9.89014 619.627 11.9155ZM612.995 11.9155C612.995 13.6808 613.202 14.9674 613.617 15.7754C614.032 16.5778 614.694 16.979 615.601 16.979C616.52 16.979 617.184 16.5723 617.593 15.7588C618.008 14.9398 618.216 13.6587 618.216 11.9155C618.216 10.1724 618.008 8.89681 617.593 8.08887C617.184 7.27539 616.52 6.86865 615.601 6.86865C614.694 6.86865 614.032 7.26986 613.617 8.07227C613.202 8.86914 612.995 10.1502 612.995 11.9155ZM629.142 8.71973C629.142 9.49447 628.923 10.1281 628.486 10.6206C628.054 11.1131 627.44 11.4424 626.643 11.6084V11.6748C627.617 11.7965 628.339 12.1064 628.81 12.6045C629.28 13.1025 629.515 13.7555 629.515 14.5635C629.515 15.7201 629.114 16.611 628.312 17.2363C627.509 17.8561 626.369 18.166 624.892 18.166C624.25 18.166 623.66 18.1162 623.124 18.0166C622.592 17.9225 622.075 17.7537 621.571 17.5103V16.1987C622.097 16.4588 622.656 16.658 623.248 16.7964C623.846 16.9292 624.41 16.9956 624.941 16.9956C627.039 16.9956 628.087 16.1738 628.087 14.5303C628.087 13.0583 626.931 12.3223 624.618 12.3223H623.422V11.1353H624.634C625.581 11.1353 626.33 10.9277 626.884 10.5127C627.437 10.0921 627.714 9.51107 627.714 8.76953C627.714 8.17741 627.509 7.71257 627.1 7.375C626.696 7.03743 626.145 6.86865 625.448 6.86865C624.917 6.86865 624.416 6.94059 623.945 7.08447C623.475 7.22835 622.938 7.49398 622.335 7.88135L621.638 6.95166C622.136 6.55876 622.709 6.25163 623.356 6.03027C624.009 5.80339 624.695 5.68994 625.415 5.68994C626.593 5.68994 627.509 5.9611 628.162 6.50342C628.815 7.0402 629.142 7.77897 629.142 8.71973Z" fill="#717171"/>
<path d="M1066 14.771C1066 15.839 1065.61 16.6719 1064.83 17.2695C1064.06 17.8672 1063.01 18.166 1061.68 18.166C1060.24 18.166 1059.14 17.9806 1058.36 17.6099V16.2485C1058.86 16.4588 1059.4 16.6248 1059.99 16.7466C1060.57 16.8683 1061.15 16.9292 1061.73 16.9292C1062.67 16.9292 1063.38 16.7521 1063.86 16.3979C1064.33 16.0382 1064.57 15.5402 1064.57 14.9038C1064.57 14.4832 1064.48 14.1401 1064.31 13.8745C1064.15 13.6034 1063.86 13.3543 1063.47 13.1274C1063.07 12.9006 1062.47 12.6432 1061.66 12.3555C1060.54 11.9515 1059.73 11.4728 1059.24 10.9194C1058.76 10.366 1058.52 9.64388 1058.52 8.75293C1058.52 7.81771 1058.87 7.0734 1059.57 6.52002C1060.28 5.96663 1061.2 5.68994 1062.36 5.68994C1063.57 5.68994 1064.68 5.9113 1065.69 6.354L1065.25 7.58252C1064.25 7.16195 1063.27 6.95166 1062.33 6.95166C1061.58 6.95166 1061 7.11214 1060.58 7.43311C1060.16 7.75407 1059.95 8.19954 1059.95 8.76953C1059.95 9.1901 1060.02 9.53597 1060.18 9.80713C1060.33 10.0728 1060.59 10.319 1060.96 10.5459C1061.33 10.7673 1061.89 11.0135 1062.65 11.2847C1063.92 11.7384 1064.8 12.2254 1065.27 12.7456C1065.76 13.2658 1066 13.9409 1066 14.771ZM1071.52 17.0288C1071.76 17.0288 1072 17.0122 1072.22 16.979C1072.45 16.9403 1072.63 16.9015 1072.76 16.8628V17.917C1072.61 17.9889 1072.39 18.047 1072.1 18.0913C1071.81 18.1411 1071.55 18.166 1071.32 18.166C1069.56 18.166 1068.68 17.2391 1068.68 15.3853V9.97314H1067.38V9.30908L1068.68 8.73633L1069.26 6.79395H1070.06V8.90234H1072.7V9.97314H1070.06V15.3271C1070.06 15.875 1070.19 16.2956 1070.45 16.5889C1070.71 16.8822 1071.07 17.0288 1071.52 17.0288ZM1078.74 18.166C1077.4 18.166 1076.34 17.7565 1075.56 16.9375C1074.78 16.1185 1074.39 14.9813 1074.39 13.5259C1074.39 12.0594 1074.75 10.8945 1075.47 10.0312C1076.2 9.16797 1077.17 8.73633 1078.39 8.73633C1079.53 8.73633 1080.43 9.11263 1081.09 9.86523C1081.76 10.6123 1082.09 11.6001 1082.09 12.8286V13.7002H1075.82C1075.85 14.7682 1076.12 15.5789 1076.63 16.1323C1077.14 16.6857 1077.86 16.9624 1078.79 16.9624C1079.77 16.9624 1080.74 16.7576 1081.7 16.3481V17.5767C1081.21 17.7869 1080.75 17.9364 1080.31 18.0249C1079.88 18.119 1079.36 18.166 1078.74 18.166ZM1078.37 9.89014C1077.64 9.89014 1077.05 10.1281 1076.62 10.604C1076.19 11.0799 1075.93 11.7384 1075.85 12.5796H1080.61C1080.61 11.7108 1080.42 11.0467 1080.03 10.5874C1079.64 10.1226 1079.09 9.89014 1078.37 9.89014ZM1088.99 18.166C1088.4 18.166 1087.85 18.0581 1087.36 17.8423C1086.87 17.6209 1086.46 17.2834 1086.13 16.8296H1086.03C1086.1 17.3608 1086.13 17.8644 1086.13 18.3403V22.084H1084.75V8.90234H1085.88L1086.07 10.1475H1086.13C1086.49 9.64941 1086.9 9.28971 1087.37 9.06836C1087.84 8.84701 1088.38 8.73633 1088.99 8.73633C1090.19 8.73633 1091.12 9.1486 1091.78 9.97314C1092.44 10.7977 1092.76 11.9543 1092.76 13.4429C1092.76 14.937 1092.43 16.0991 1091.76 16.9292C1091.1 17.7537 1090.17 18.166 1088.99 18.166ZM1088.79 9.90674C1087.86 9.90674 1087.19 10.1641 1086.77 10.6787C1086.36 11.1934 1086.14 12.0124 1086.13 13.1357V13.4429C1086.13 14.7212 1086.35 15.637 1086.77 16.1904C1087.2 16.7383 1087.88 17.0122 1088.82 17.0122C1089.61 17.0122 1090.22 16.694 1090.66 16.0576C1091.11 15.4212 1091.34 14.5441 1091.34 13.4263C1091.34 12.2918 1091.11 11.423 1090.66 10.8198C1090.22 10.2111 1089.6 9.90674 1088.79 9.90674ZM1107.63 11.9155C1107.63 14.0129 1107.29 15.5789 1106.63 16.6138C1105.97 17.6486 1104.96 18.166 1103.6 18.166C1102.3 18.166 1101.3 17.6375 1100.62 16.5806C1099.94 15.5181 1099.6 13.9631 1099.6 11.9155C1099.6 9.8016 1099.93 8.23275 1100.59 7.20898C1101.25 6.18522 1102.25 5.67334 1103.6 5.67334C1104.92 5.67334 1105.92 6.20736 1106.6 7.27539C1107.28 8.34342 1107.63 9.89014 1107.63 11.9155ZM1100.99 11.9155C1100.99 13.6808 1101.2 14.9674 1101.62 15.7754C1102.03 16.5778 1102.69 16.979 1103.6 16.979C1104.52 16.979 1105.18 16.5723 1105.59 15.7588C1106.01 14.9398 1106.22 13.6587 1106.22 11.9155C1106.22 10.1724 1106.01 8.89681 1105.59 8.08887C1105.18 7.27539 1104.52 6.86865 1103.6 6.86865C1102.69 6.86865 1102.03 7.26986 1101.62 8.07227C1101.2 8.86914 1100.99 10.1502 1100.99 11.9155ZM1118.17 15.2109H1116.37V18H1115.05V15.2109H1109.15V14.0073L1114.91 5.79785H1116.37V13.9575H1118.17V15.2109ZM1115.05 13.9575V9.92334C1115.05 9.132 1115.08 8.23828 1115.13 7.24219H1115.07C1114.8 7.77344 1114.55 8.21338 1114.32 8.56201L1110.53 13.9575H1115.05Z" fill="#717171"/>
<path d="M770.361 21.5693C769.78 21.5693 769.273 21.5085 768.842 21.3867V19.2451C769.284 19.3558 769.688 19.4111 770.054 19.4111C770.618 19.4111 771.022 19.234 771.266 18.8799C771.509 18.5312 771.631 17.9834 771.631 17.2363V5.86426H774.204V17.2197C774.204 18.6364 773.88 19.7155 773.233 20.457C772.585 21.1986 771.628 21.5693 770.361 21.5693ZM783.943 18L783.602 16.813H783.47C783.199 17.2446 782.814 17.5794 782.316 17.8174C781.818 18.0498 781.251 18.166 780.614 18.166C779.524 18.166 778.702 17.8755 778.149 17.2944C777.595 16.7078 777.319 15.8667 777.319 14.771V8.71973H779.851V14.1401C779.851 14.8097 779.97 15.3133 780.207 15.6509C780.445 15.9829 780.824 16.1489 781.345 16.1489C782.053 16.1489 782.565 15.9137 782.88 15.4434C783.196 14.9674 783.353 14.1816 783.353 13.0859V8.71973H785.885V18H783.943ZM795.325 15.2441C795.325 16.196 794.993 16.9209 794.329 17.4189C793.671 17.917 792.683 18.166 791.366 18.166C790.691 18.166 790.115 18.119 789.639 18.0249C789.163 17.9364 788.718 17.8035 788.303 17.6265V15.5347C788.773 15.756 789.302 15.9414 789.888 16.0908C790.48 16.2402 791 16.3149 791.449 16.3149C792.367 16.3149 792.827 16.0493 792.827 15.5181C792.827 15.3188 792.766 15.1584 792.644 15.0366C792.522 14.9093 792.312 14.7682 792.013 14.6133C791.714 14.4528 791.316 14.2674 790.818 14.0571C790.104 13.7583 789.578 13.4816 789.241 13.2271C788.909 12.9725 788.665 12.682 788.51 12.3555C788.361 12.0234 788.286 11.6167 788.286 11.1353C788.286 10.3107 788.604 9.67432 789.241 9.22607C789.883 8.7723 790.79 8.54541 791.963 8.54541C793.081 8.54541 794.169 8.7889 795.226 9.27588L794.462 11.1021C793.997 10.9028 793.563 10.7396 793.159 10.6123C792.755 10.485 792.342 10.4214 791.922 10.4214C791.175 10.4214 790.801 10.6234 790.801 11.0273C790.801 11.2542 790.92 11.4507 791.158 11.6167C791.402 11.7827 791.93 12.029 792.744 12.3555C793.469 12.6488 794 12.9227 794.337 13.1772C794.675 13.4318 794.924 13.7251 795.084 14.0571C795.245 14.3892 795.325 14.7848 795.325 15.2441ZM801.519 16.1489C801.962 16.1489 802.493 16.0521 803.113 15.8584V17.7427C802.482 18.0249 801.708 18.166 800.789 18.166C799.776 18.166 799.038 17.9115 798.573 17.4023C798.113 16.8877 797.884 16.1185 797.884 15.0947V10.6206H796.672V9.5498L798.066 8.70312L798.797 6.74414H800.415V8.71973H803.014V10.6206H800.415V15.0947C800.415 15.4544 800.515 15.7201 800.714 15.8916C800.919 16.0632 801.187 16.1489 801.519 16.1489ZM804.485 14.4805V12.4053H808.942V14.4805H804.485ZM811.293 18V5.86426H813.867V18H811.293ZM825.598 18H823.066V12.5796C823.066 11.91 822.947 11.4092 822.709 11.0771C822.471 10.7396 822.092 10.5708 821.572 10.5708C820.863 10.5708 820.352 10.8088 820.036 11.2847C819.721 11.755 819.563 12.5381 819.563 13.6338V18H817.031V8.71973H818.965L819.306 9.90674H819.447C819.729 9.4585 820.116 9.12093 820.609 8.89404C821.107 8.66162 821.671 8.54541 822.302 8.54541C823.381 8.54541 824.2 8.8387 824.759 9.42529C825.318 10.0063 825.598 10.8475 825.598 11.9487V18ZM827.691 14.4805V12.4053H832.149V14.4805H827.691ZM839.182 18H836.608V8.00586H833.313V5.86426H842.477V8.00586H839.182V18ZM844.347 6.3208C844.347 5.49626 844.806 5.08398 845.725 5.08398C846.643 5.08398 847.103 5.49626 847.103 6.3208C847.103 6.7137 846.986 7.02083 846.754 7.24219C846.527 7.45801 846.184 7.56592 845.725 7.56592C844.806 7.56592 844.347 7.15088 844.347 6.3208ZM846.986 18H844.455V8.71973H846.986V18ZM858.269 18H855.737V12.5796C855.737 11.91 855.624 11.4092 855.397 11.0771C855.176 10.7396 854.824 10.5708 854.343 10.5708C853.695 10.5708 853.225 10.8088 852.932 11.2847C852.638 11.7606 852.492 12.5436 852.492 13.6338V18H849.96V8.71973H851.894L852.234 9.90674H852.376C852.625 9.48063 852.984 9.1486 853.455 8.91064C853.925 8.66715 854.465 8.54541 855.073 8.54541C856.462 8.54541 857.403 8.99919 857.896 9.90674H858.12C858.369 9.4751 858.734 9.1403 859.215 8.90234C859.702 8.66439 860.25 8.54541 860.859 8.54541C861.91 8.54541 862.704 8.81657 863.241 9.35889C863.784 9.89567 864.055 10.759 864.055 11.9487V18H861.515V12.5796C861.515 11.91 861.401 11.4092 861.174 11.0771C860.953 10.7396 860.602 10.5708 860.12 10.5708C859.5 10.5708 859.036 10.7922 858.726 11.2349C858.421 11.6776 858.269 12.3804 858.269 13.3433V18ZM870.814 10.3467C870.277 10.3467 869.856 10.5182 869.552 10.8613C869.247 11.1989 869.073 11.6803 869.029 12.3057H872.582C872.571 11.6803 872.407 11.1989 872.092 10.8613C871.776 10.5182 871.35 10.3467 870.814 10.3467ZM871.17 18.166C869.676 18.166 868.509 17.7537 867.668 16.9292C866.826 16.1047 866.406 14.937 866.406 13.4263C866.406 11.8713 866.793 10.6704 867.568 9.82373C868.348 8.97152 869.425 8.54541 870.797 8.54541C872.108 8.54541 873.129 8.91895 873.86 9.66602C874.59 10.4131 874.956 11.4451 874.956 12.7622V13.9907H868.971C868.998 14.7101 869.211 15.2718 869.61 15.6758C870.008 16.0798 870.567 16.2817 871.287 16.2817C871.846 16.2817 872.374 16.2236 872.872 16.1074C873.37 15.9912 873.89 15.8058 874.433 15.5513V17.5103C873.99 17.7316 873.517 17.8949 873.013 18C872.51 18.1107 871.895 18.166 871.17 18.166ZM886.929 18H884.356V8.00586H881.061V5.86426H890.225V8.00586H886.929V18ZM892.094 6.3208C892.094 5.49626 892.554 5.08398 893.472 5.08398C894.391 5.08398 894.85 5.49626 894.85 6.3208C894.85 6.7137 894.734 7.02083 894.502 7.24219C894.275 7.45801 893.932 7.56592 893.472 7.56592C892.554 7.56592 892.094 7.15088 892.094 6.3208ZM894.734 18H892.202V8.71973H894.734V18ZM902.804 18.166C901.714 18.166 900.859 17.7703 900.239 16.979H900.107C900.195 17.7537 900.239 18.202 900.239 18.3237V22.084H897.708V8.71973H899.766L900.123 9.92334H900.239C900.831 9.00472 901.709 8.54541 902.871 8.54541C903.966 8.54541 904.824 8.96875 905.444 9.81543C906.064 10.6621 906.374 11.8381 906.374 13.3433C906.374 14.3338 906.227 15.1943 905.934 15.9248C905.646 16.6553 905.234 17.2114 904.697 17.5933C904.16 17.9751 903.529 18.166 902.804 18.166ZM902.057 10.5708C901.432 10.5708 900.975 10.7645 900.688 11.1519C900.4 11.5337 900.25 12.1673 900.239 13.0527V13.3267C900.239 14.3228 900.386 15.0366 900.679 15.4683C900.978 15.8999 901.448 16.1157 902.09 16.1157C903.225 16.1157 903.792 15.1805 903.792 13.3101C903.792 12.397 903.651 11.7135 903.369 11.2598C903.092 10.8005 902.655 10.5708 902.057 10.5708ZM915.249 15.2441C915.249 16.196 914.917 16.9209 914.253 17.4189C913.594 17.917 912.607 18.166 911.29 18.166C910.614 18.166 910.039 18.119 909.563 18.0249C909.087 17.9364 908.642 17.8035 908.227 17.6265V15.5347C908.697 15.756 909.225 15.9414 909.812 16.0908C910.404 16.2402 910.924 16.3149 911.373 16.3149C912.291 16.3149 912.751 16.0493 912.751 15.5181C912.751 15.3188 912.69 15.1584 912.568 15.0366C912.446 14.9093 912.236 14.7682 911.937 14.6133C911.638 14.4528 911.24 14.2674 910.742 14.0571C910.028 13.7583 909.502 13.4816 909.165 13.2271C908.833 12.9725 908.589 12.682 908.434 12.3555C908.285 12.0234 908.21 11.6167 908.21 11.1353C908.21 10.3107 908.528 9.67432 909.165 9.22607C909.807 8.7723 910.714 8.54541 911.887 8.54541C913.005 8.54541 914.093 8.7889 915.149 9.27588L914.386 11.1021C913.921 10.9028 913.487 10.7396 913.083 10.6123C912.679 10.485 912.266 10.4214 911.846 10.4214C911.099 10.4214 910.725 10.6234 910.725 11.0273C910.725 11.2542 910.844 11.4507 911.082 11.6167C911.326 11.7827 911.854 12.029 912.668 12.3555C913.392 12.6488 913.924 12.9227 914.261 13.1772C914.599 13.4318 914.848 13.7251 915.008 14.0571C915.169 14.3892 915.249 14.7848 915.249 15.2441Z" fill="#649DFF"/>
<rect y="27" width="220" height="165" rx="6" fill="#F3F5F8"/>
<path d="M0 33C0 29.6863 2.68629 27 6 27H214C217.314 27 220 29.6863 220 33V51H0V33Z" fill="#E0E7EC"/>
<path fill-rule="evenodd" clip-rule="evenodd" d="M12 42C13.6569 42 15 40.6569 15 39C15 37.3431 13.6569 36 12 36C10.3431 36 9 37.3431 9 39C9 40.6569 10.3431 42 12 42ZM22 42C23.6569 42 25 40.6569 25 39C25 37.3431 23.6569 36 22 36C20.3431 36 19 37.3431 19 39C19 40.6569 20.3431 42 22 42ZM35 39C35 40.6569 33.6569 42 32 42C30.3431 42 29 40.6569 29 39C29 37.3431 30.3431 36 32 36C33.6569 36 35 37.3431 35 39Z" fill="#94A2AB"/>
<rect x="50" y="120" width="73" height="52" rx="12" fill="white"/>
<rect x="61" y="134" width="52" height="8" rx="2" fill="#27AE60"/>
<rect x="61" y="146" width="48" height="8" rx="2" fill="#27AE60"/>
<circle cx="35" cy="130" r="10" fill="#C4C4C4"/>
<rect x="245" y="27" width="220" height="165" rx="6" fill="#F3F5F8"/>
<path d="M245 33C245 29.6863 247.686 27 251 27H459C462.314 27 465 29.6863 465 33V51H245V33Z" fill="#E0E7EC"/>
<rect x="334" y="78" width="73" height="52" rx="12" fill="white"/>
<rect x="345" y="92" width="52" height="8" rx="2" fill="#FA6D00"/>
<rect x="345" y="104" width="48" height="8" rx="2" fill="#FA6D00"/>
<circle cx="425" cy="88" r="10" fill="#C4C4C4"/>
<rect x="490" y="27" width="220" height="165" rx="6" fill="#F3F5F8"/>
<path d="M490 33C490 29.6863 492.686 27 496 27H704C707.314 27 710 29.6863 710 33V51H490V33Z" fill="#E0E7EC"/>
<rect x="574" y="104" width="73" height="52" rx="12" fill="white"/>
<rect x="585" y="118" width="52" height="8" rx="2" fill="#27AE60"/>
<rect x="585" y="130" width="48" height="8" rx="2" fill="#27AE60"/>
<circle cx="554" cy="119" r="10" fill="#C4C4C4"/>
<rect x="978" y="27" width="220" height="165" rx="6" fill="#F3F5F8"/>
<path d="M978 33C978 29.6863 980.686 27 984 27H1192C1195.31 27 1198 29.6863 1198 33V51H978V33Z" fill="#E0E7EC"/>
<rect x="1062" y="104" width="73" height="52" rx="12" fill="white"/>
<rect x="1073" y="118" width="52" height="8" rx="2" fill="#27AE60"/>
<rect x="1073" y="130" width="48" height="8" rx="2" fill="#27AE60"/>
<circle cx="1042" cy="119" r="10" fill="#C4C4C4"/>
<path d="M151.5 11.5H313.5" stroke="#979797" stroke-linecap="square"/>
<path d="M397.5 11.5H557.5" stroke="#979797" stroke-linecap="square"/>
<path d="M397.5 11.5H557.5" stroke="#979797" stroke-linecap="square"/>
<path d="M639 12L759.5 12.5" stroke="#979797" stroke-linecap="square"/>
<path d="M924.75 12.25L1045.25 12.75" stroke="#979797" stroke-linecap="square"/>
<rect x="490" y="224" width="220" height="165" rx="6" fill="#F3F5F8"/>
<path d="M490 230C490 226.686 492.686 224 496 224H704C707.314 224 710 226.686 710 230V248H490V230Z" fill="#E0E7EC"/>
<rect x="513" y="265" width="174" height="84" rx="4" fill="#D2D2D2"/>
<path fill-rule="evenodd" clip-rule="evenodd" d="M608.873 306.855C609.61 307.224 609.61 308.276 608.873 308.644L593.447 316.357C592.782 316.69 592 316.206 592 315.463V300.037C592 299.293 592.782 298.81 593.447 299.142L608.873 306.855Z" fill="white"/>
<path fill-rule="evenodd" clip-rule="evenodd" d="M687 369C687 371.209 685.209 373 683 373H517C514.791 373 513 371.209 513 369V343H687V369Z" fill="white"/>
<rect x="523" y="356" width="92" height="4" rx="2" fill="#E0E7EC"/>
<rect x="733" y="27" width="220" height="165" rx="6" fill="#F3F5F8"/>
<path d="M733 33C733 29.6863 735.686 27 739 27H947C950.314 27 953 29.6863 953 33V51H733V33Z" fill="#E0E7EC"/>
<path fill-rule="evenodd" clip-rule="evenodd" d="M745 42C746.657 42 748 40.6569 748 39C748 37.3431 746.657 36 745 36C743.343 36 742 37.3431 742 39C742 40.6569 743.343 42 745 42ZM755 42C756.657 42 758 40.6569 758 39C758 37.3431 756.657 36 755 36C753.343 36 752 37.3431 752 39C752 40.6569 753.343 42 755 42ZM768 39C768 40.6569 766.657 42 765 42C763.343 42 762 40.6569 762 39C762 37.3431 763.343 36 765 36C766.657 36 768 37.3431 768 39Z" fill="#94A2AB"/>
<rect x="864" y="158" width="40" height="14" rx="7" fill="#649DFF"/>
<rect x="782" y="72" width="122" height="76" rx="8" fill="#E7EDF2"/>
<rect x="782" y="83" width="122" height="16" fill="#94A2AB"/>
<rect x="790" y="125" width="56" height="14" rx="3.2" fill="white"/>
<rect x="873" y="125" width="22" height="14" rx="3.2" fill="white"/>
<rect x="790" y="105" width="105" height="14" rx="3.2" fill="white"/>
<path d="M353.448 192C353.448 236 445.932 316.464 490 316.464" stroke="#979797"/>
<path d="M601 221V192" stroke="#979797" stroke-linecap="square"/>
</svg>
