<?xml version="1.0" encoding="UTF-8"?>
<svg width="1198px" height="385px" viewBox="0 0 1198 385" version="1.1" xmlns="http://www.w3.org/2000/svg" xmlns:xlink="http://www.w3.org/1999/xlink">
    <!-- Generator: Sketch 57.1 (83088) - https://sketch.com -->
    <title>编组 11</title>
    <desc>Created with Sketch.</desc>
    <g id="页面-2----Design-Simple" stroke="none" stroke-width="1" fill="none" fill-rule="evenodd">
        <g id="3" transform="translate(-124.000000, -9117.000000)">
            <g id="编组-11" transform="translate(124.000000, 9113.000000)">
                <text id="Step-01" font-family="OpenSans-Regular, Open Sans" font-size="17" font-weight="normal" letter-spacing="0.309090909" fill="#717171">
                    <tspan x="84.3466486" y="18">Step 01</tspan>
                </text>
                <text id="Step-02" font-family="OpenSans-Regular, Open Sans" font-size="17" font-weight="normal" letter-spacing="0.309090909" fill="#717171">
                    <tspan x="323.346649" y="18">Step 02</tspan>
                </text>
                <text id="If-learner-keep-maki" font-family="OpenSans-Regular, Open Sans" font-size="17" font-weight="normal" letter-spacing="0.309090909" fill="#717171">
                    <tspan x="316" y="325">If learner keep </tspan>
                    <tspan x="316" y="348">making mistakes, </tspan>
                    <tspan x="316" y="371">watch the video</tspan>
                </text>
                <text id="Tips-for-important-c" font-family="OpenSans-Regular, Open Sans" font-size="17" font-weight="normal" letter-spacing="0.309090909" fill="#717171">
                    <tspan x="768.887371" y="218">Tips for important </tspan>
                    <tspan x="751.706942" y="241">conceptual knowledge </tspan>
                </text>
                <text id="Step-03" font-family="OpenSans-Regular, Open Sans" font-size="17" font-weight="normal" letter-spacing="0.309090909" fill="#717171">
                    <tspan x="569.346649" y="18">Step 03</tspan>
                </text>
                <text id="Step-04" font-family="OpenSans-Regular, Open Sans" font-size="17" font-weight="normal" letter-spacing="0.309090909" fill="#717171">
                    <tspan x="1057.34665" y="18">Step 04</tspan>
                </text>
                <text id="Just-In-Time-Tips" font-family="OpenSans-Bold, Open Sans" font-size="17" font-weight="bold" letter-spacing="0.309090909" fill="#649DFF">
                    <tspan x="770.473801" y="18">Just-In-Time Tips</tspan>
                </text>
                <g id="Browser" transform="translate(0.000000, 27.000000)">
                    <rect id="矩形" fill="#F3F5F8" fill-rule="nonzero" x="0" y="0" width="220" height="165" rx="6"></rect>
                    <path d="M0,6 C0,2.68629 2.68629,0 6,0 L214,0 C217.314,0 220,2.68629 220,6 L220,24 L0,24 L0,6 Z" id="路径" fill="#E0E7EC" fill-rule="nonzero"></path>
                    <path d="M12,15 C13.6569,15 15,13.6569 15,12 C15,10.3431 13.6569,9 12,9 C10.3431,9 9,10.3431 9,12 C9,13.6569 10.3431,15 12,15 Z M22,15 C23.6569,15 25,13.6569 25,12 C25,10.3431 23.6569,9 22,9 C20.3431,9 19,10.3431 19,12 C19,13.6569 20.3431,15 22,15 Z M35,12 C35,13.6569 33.6569,15 32,15 C30.3431,15 29,13.6569 29,12 C29,10.3431 30.3431,9 32,9 C33.6569,9 35,10.3431 35,12 Z" id="形状" fill="#94A2AB"></path>
                    <rect id="矩形" fill="#FFFFFF" fill-rule="nonzero" x="50" y="93" width="73" height="52" rx="12"></rect>
                    <rect id="矩形" fill="#27AE60" fill-rule="nonzero" x="61" y="107" width="52" height="8" rx="2"></rect>
                    <rect id="矩形" fill="#27AE60" fill-rule="nonzero" x="61" y="119" width="48" height="8" rx="2"></rect>
                    <circle id="椭圆形" fill="#C4C4C4" fill-rule="nonzero" cx="35" cy="103" r="10"></circle>
                </g>
                <g id="Group-574" transform="translate(245.000000, 27.000000)" fill-rule="nonzero">
                    <rect id="矩形" fill="#F3F5F8" x="0" y="0" width="220" height="165" rx="6"></rect>
                    <path d="M0,6 C0,2.68629 2.68629,0 6,0 L214,0 C217.314,0 220,2.68629 220,6 L220,24 L0,24 L0,6 Z" id="路径" fill="#E0E7EC"></path>
                    <rect id="矩形" fill="#FFFFFF" x="89" y="51" width="73" height="52" rx="12"></rect>
                    <rect id="矩形" fill="#FA6D00" x="100" y="65" width="52" height="8" rx="2"></rect>
                    <rect id="矩形" fill="#FA6D00" x="100" y="77" width="48" height="8" rx="2"></rect>
                    <circle id="椭圆形" fill="#C4C4C4" cx="180" cy="61" r="10"></circle>
                </g>
                <g id="Group-575" transform="translate(490.000000, 27.000000)" fill-rule="nonzero">
                    <rect id="矩形" fill="#F3F5F8" x="0" y="0" width="220" height="165" rx="6"></rect>
                    <path d="M0,6 C0,2.68629 2.68629,0 6,0 L214,0 C217.314,0 220,2.68629 220,6 L220,24 L0,24 L0,6 Z" id="路径" fill="#E0E7EC"></path>
                    <rect id="矩形" fill="#FFFFFF" x="84" y="77" width="73" height="52" rx="12"></rect>
                    <rect id="矩形" fill="#27AE60" x="95" y="91" width="52" height="8" rx="2"></rect>
                    <rect id="矩形" fill="#27AE60" x="95" y="103" width="48" height="8" rx="2"></rect>
                    <circle id="椭圆形" fill="#C4C4C4" cx="64" cy="92" r="10"></circle>
                </g>
                <g id="Group-575" transform="translate(978.000000, 27.000000)" fill-rule="nonzero">
                    <rect id="矩形" fill="#F3F5F8" x="0" y="0" width="220" height="165" rx="6"></rect>
                    <path d="M0,6 C0,2.68629 2.68629,0 6,0 L214,0 C217.314,0 220,2.68629 220,6 L220,24 L0,24 L0,6 Z" id="路径" fill="#E0E7EC"></path>
                    <rect id="矩形" fill="#FFFFFF" x="84" y="77" width="73" height="52" rx="12"></rect>
                    <rect id="矩形" fill="#27AE60" x="95" y="91" width="52" height="8" rx="2"></rect>
                    <rect id="矩形" fill="#27AE60" x="95" y="103" width="48" height="8" rx="2"></rect>
                    <circle id="椭圆形" fill="#C4C4C4" cx="64" cy="92" r="10"></circle>
                </g>
                <path d="M151.5,11.5 L313.5,11.5" id="直线-8" stroke="#979797" stroke-linecap="square"></path>
                <path d="M397.5,11.5 L557.5,11.5" id="直线-8" stroke="#979797" stroke-linecap="square"></path>
                <path d="M397.5,11.5 L557.5,11.5" id="直线-8" stroke="#979797" stroke-linecap="square"></path>
                <path d="M639,12 L759.5,12.5" id="直线-8" stroke="#979797" stroke-linecap="square"></path>
                <path d="M924.75,12.25 L1045.25,12.75" id="直线-8" stroke="#979797" stroke-linecap="square"></path>
                <rect id="矩形" fill="#F3F5F8" fill-rule="nonzero" x="490" y="224" width="220" height="165" rx="6"></rect>
                <path d="M490,230 C490,226.68629 492.686,224 496,224 L704,224 C707.314,224 710,226.68629 710,230 L710,248 L490,248 L490,230 Z" id="路径" fill="#E0E7EC" fill-rule="nonzero"></path>
                <rect id="矩形" fill="#D2D2D2" fill-rule="nonzero" x="513" y="265" width="174" height="84" rx="4"></rect>
                <path d="M608.873,306.8554 C609.61,307.2239 609.61,308.2758 608.873,308.6443 L593.447,316.3573 C592.782,316.6898 592,316.2063 592,315.4629 L592,300.0368 C592,299.2934 592.782,298.81 593.447,299.1424 L608.873,306.8554 Z" id="路径" fill="#FFFFFF"></path>
                <path d="M687,369 C687,371.209 685.209,373 683,373 L517,373 C514.791,373 513,371.209 513,369 L513,343 L687,343 L687,369 Z" id="路径" fill="#FFFFFF"></path>
                <rect id="矩形" fill="#E0E7EC" fill-rule="nonzero" x="523" y="356" width="92" height="4" rx="2"></rect>
                <g id="Group" transform="translate(733.000000, 27.000000)">
                    <rect id="矩形" fill="#F3F5F8" fill-rule="nonzero" x="0" y="0" width="220" height="165" rx="6"></rect>
                    <path d="M0,6 C0,2.68629 2.68629,0 6,0 L214,0 C217.314,0 220,2.68629 220,6 L220,24 L0,24 L0,6 Z" id="路径" fill="#E0E7EC" fill-rule="nonzero"></path>
                    <path d="M12,15 C13.6569,15 15,13.6569 15,12 C15,10.3431 13.6569,9 12,9 C10.3431,9 9,10.3431 9,12 C9,13.6569 10.3431,15 12,15 Z M22,15 C23.6569,15 25,13.6569 25,12 C25,10.3431 23.6569,9 22,9 C20.3431,9 19,10.3431 19,12 C19,13.6569 20.3431,15 22,15 Z M35,12 C35,13.6569 33.6569,15 32,15 C30.3431,15 29,13.6569 29,12 C29,10.3431 30.3431,9 32,9 C33.6569,9 35,10.3431 35,12 Z" id="形状" fill="#94A2AB"></path>
                    <rect id="矩形" fill="#649DFF" fill-rule="nonzero" x="131" y="131" width="40" height="14" rx="7"></rect>
                    <rect id="矩形" fill="#E7EDF2" fill-rule="nonzero" x="49" y="45" width="122" height="76" rx="8"></rect>
                    <rect id="矩形" fill="#94A2AB" fill-rule="nonzero" x="49" y="56" width="122" height="16"></rect>
                    <rect id="矩形" fill="#FFFFFF" fill-rule="nonzero" x="57" y="98" width="56" height="14" rx="3.2"></rect>
                    <rect id="矩形" fill="#FFFFFF" fill-rule="nonzero" x="140" y="98" width="22" height="14" rx="3.2"></rect>
                    <rect id="矩形" fill="#FFFFFF" fill-rule="nonzero" x="57" y="78" width="105" height="14" rx="3.2"></rect>
                </g>
                <path d="M353.448,192 C353.448,236 445.932257,316.464188 490,316.464188" id="路径-9" stroke="#979797"></path>
                <path d="M601,221 L601,192" id="直线-9" stroke="#979797" stroke-linecap="square"></path>
            </g>
        </g>
    </g>
</svg>