<?xml version="1.0" encoding="UTF-8"?>
<svg width="653px" height="481px" viewBox="0 0 653 481" version="1.1" xmlns="http://www.w3.org/2000/svg" xmlns:xlink="http://www.w3.org/1999/xlink">
    <!-- Generator: Sketch 57.1 (83088) - https://sketch.com -->
    <title>编组 17</title>
    <desc>Created with Sketch.</desc>
    <g id="页面-2----Design-Simple" stroke="none" stroke-width="1" fill="none" fill-rule="evenodd">
        <g id="3" transform="translate(-394.000000, -8475.000000)">
            <g id="编组-17" transform="translate(394.000000, 8475.000000)">
                <text id="Novices" font-family="OpenSans-Regular, Open Sans" font-size="24" font-weight="normal" line-spacing="28" letter-spacing="0.564705882" fill="#404040">
                    <tspan x="25.5" y="191">Novices</tspan>
                </text>
                <text id="Experts" font-family="OpenSans-Regular, Open Sans" font-size="24" font-weight="normal" line-spacing="28" letter-spacing="0.564705882" fill="#404040">
                    <tspan x="27.5" y="478">Experts</tspan>
                </text>
                <g id="man-(1)" fill-rule="nonzero">
                    <polygon id="路径" fill="#E6AF78" points="95 109.733199 95 92 44 92 44 109.733199 69.5 130"></polygon>
                    <path d="M133.579491,119.33864 L99.7882486,111.349678 C99.2778022,111.229071 98.8085009,111.024226 98.3692076,110.775863 L71.0003094,126.817509 L44.6987081,110 C44.0178035,110.644066 43.172628,111.122763 42.2126795,111.349989 L8.42143744,119.338951 C3.48712228,120.505542 0,124.929452 0,130.022606 L0,151.512387 C0,154.543412 2.44519292,157 5.46146707,157 L136.538533,157 C139.555116,157 142,154.543101 142,151.512387 L142,130.022606 C142,124.929141 138.513496,120.504921 133.579491,119.33864 Z" id="路径" fill="#EFF2FA"></path>
                    <path d="M44,91.0003256 L44,112.230041 C76.1231182,123.97179 95,94.5850158 95,94.5850158 L95,91 L44,91 L44,91.0003256 Z" id="路径" fill="#D29B6E"></path>
                    <path d="M35,30 L37.4131239,80.6670659 C37.6383739,85.4002994 40.0703209,89.7898204 44.0419991,92.6326347 L55.4921026,100.828443 C58.3682752,102.886826 61.8662382,104 65.461454,104 L76.538546,104 C80.1337618,104 83.6317248,102.887126 86.5078974,100.828443 L97.9580009,92.6326347 C101.929679,89.789521 104.361626,85.4005988 104.586876,80.6670659 L107,30 C107,30 35,30 35,30 Z" id="路径" fill="#F0C087"></path>
                    <path d="M65.1401444,40.5715569 C75.5962613,40.5715569 91.2799926,37.9287425 95,30 L39,30 L41.2778456,80.6670659 C41.4904683,85.4002994 43.7860818,89.789521 47.5354063,92.6326347 L58.3436239,100.828443 C61.0585601,102.886826 64.3604294,104 67.7540996,104 L72.98201,104 C67.7540996,104 57.2979826,93.4284431 57.2979826,80.2143713 C57.2979826,73.751497 57.2979826,56.4287425 57.2979826,48.5 C57.2979826,45.8571856 59.9119378,40.5715569 65.1401444,40.5715569 Z" id="路径" fill="#E6AF78"></path>
                    <g id="编组" transform="translate(0.000000, 122.000000)" fill="#E4EAF6">
                        <path d="M20.1578261,16.4544545 L2.50074348,0.105636364 C1.02116522,2.03668182 0.153730435,4.46663636 0.153730435,7.06809091 L0.153730435,29.0652727 C0.153730435,32.1678636 2.59366087,34.6824545 5.60344348,34.6824545 L24.6777478,34.6824545 L24.6777478,26.9016364 C24.6774391,22.9157727 23.0342522,19.1176364 20.1578261,16.4544545 Z" id="路径"></path>
                        <path d="M121.843717,16.4544545 L139.5008,0.105636364 C140.980378,2.03668182 141.847813,4.46663636 141.847813,7.06809091 L141.847813,29.0652727 C141.847813,32.1678636 139.407883,34.6824545 136.3981,34.6824545 L117.323796,34.6824545 L117.323796,26.9016364 C117.323796,22.9157727 118.966983,19.1176364 121.843717,16.4544545 Z" id="路径"></path>
                    </g>
                    <polygon id="路径" fill="#5B5D6E" points="77 157 66 157 67.375 133 75.625 133"></polygon>
                    <path d="M77,127 L66,127 L66,132.645986 C66,134.498527 67.1010966,136 68.4596475,136 L74.5401033,136 C75.8986542,136 76.9997508,134.498527 76.9997508,132.645986 L76.9997508,127 L77,127 Z" id="路径" fill="#515262"></path>
                    <g id="编组" transform="translate(39.000000, 101.000000)" fill="#E4EAF6">
                        <path d="M7.76290094,0.7146875 L32.5009198,23.406875 C32.5009198,23.406875 25.5729009,26.9715625 17.0235613,34.15625 C15.2599764,35.638125 12.592217,35.0378125 11.6463443,32.916875 L0.0239150943,6.85625 L3.70070755,1.2353125 C4.61561321,-0.1646875 6.53617925,-0.4103125 7.76290094,0.7146875 Z" id="路径"></path>
                        <path d="M57.2386321,0.7146875 L32.5006132,23.406875 C32.5006132,23.406875 39.4286321,26.9715625 47.9779717,34.15625 C49.7415566,35.638125 52.409316,35.0378125 53.3551887,32.916875 L64.9776179,6.85625 L61.3008255,1.2353125 C60.3856132,-0.1646875 58.4650472,-0.4103125 57.2386321,0.7146875 Z" id="路径"></path>
                    </g>
                    <path d="M89,10.7183446 L91.4648157,29.0428528 C102.716587,31.4101863 104.338153,49.9859984 104.571678,55.2915828 C104.613974,56.2544969 104.906178,57.1841962 105.402715,57.9941971 L109.695813,65 C109.695813,65 108.226456,53.4174569 114.954285,45.6383146 C114.954583,45.6383146 117.264808,-0.345609896 89,10.7183446 Z" id="路径" fill="#785550"></path>
                    <path d="M111.833162,60.7209737 L108.837219,74.2681932 C108.482155,75.8740388 107.206211,77 105.741762,77 L105.741762,77 C104.132401,77 102.775282,75.6456519 102.575653,73.8406474 L101.043257,59.9844938 C100.633175,56.2755852 103.191076,53 106.497587,53 L106.5,53 C110.076484,53.0003399 112.700528,56.7989719 111.833162,60.7209737 Z" id="路径" fill="#F0C087"></path>
                    <path d="M37.0470347,7.00382084 L41.0804466,9.73999325 C22.8439013,23.1107005 26.2523444,46.0440528 26.2523444,46.0440528 C31.7062241,51.45995 31.7062241,65 31.7062241,65 L37.1601037,59.5841027 C37.1601037,59.5841027 35.0553523,43.9389272 45.3409232,37.9202069 C54.8853671,32.3349669 63.2367169,35.2122582 71.7585969,35.2122582 C94.5969883,35.2122582 100.988476,26.6650557 99.8806466,16.256311 C99.3072694,10.8704782 91.0149256,-0.348472914 69.8839995,0.00831243315 C61.3562498,0.152192337 45.3415411,2.71626107 37.0470347,7.00382084 Z" id="路径" fill="#694B4B"></path>
                    <path d="M36.5253489,32.4117549 C36.5253489,32.4117549 33.6066405,20.9200795 42.1909855,9 C23.8207673,22.549756 27.2541941,45.7902115 27.2541941,45.7902115 C32.7480504,51.2786336 32.7480504,65 32.7480504,65 L38.2419067,59.5115778 C38.2419067,59.5115778 36.1217276,43.6568959 46.4826912,37.5575782 C56.0970954,31.8975456 64.5096601,34.8133671 73.0940051,34.8133671 C76.835516,34.8133671 80.0959178,34.563102 83,34.1340761 C65.2829824,34.727251 54.8389294,21.3201928 36.5253489,32.4117549 Z" id="路径" fill="#5A4146"></path>
                    <path d="M30.1668377,60.7209737 L33.1627809,74.2681932 C33.5178445,75.8740388 34.7937886,77 36.2582382,77 L36.2582382,77 C37.8675993,77 39.224718,75.6456519 39.4243474,73.8406474 L40.956743,59.9844938 C41.366825,56.2755852 38.8089238,53 35.5024126,53 L35.5,53 C31.9235157,53.0003399 29.2994723,56.7989719 30.1668377,60.7209737 Z" id="路径" fill="#E6AF78"></path>
                    <path d="M107.333367,150 L88.6666331,150 C87.1938976,150 86,151.56701 86,153.5 L86,157 L110,157 L110,153.5 C110,151.567407 108.8058,150 107.333367,150 Z" id="路径" fill="#E4EAF6"></path>
                </g>
                <g id="student-(1)" transform="translate(0.000000, 285.000000)" fill-rule="nonzero">
                    <rect id="矩形" fill="#FCB47E" x="53.96" y="96.5357143" width="34.08" height="34.0714286"></rect>
                    <path d="M82.36,129.482014 C76.3586186,132.931943 72.3761049,133.446429 72.3761049,133.446429 C72.3761049,133.446429 68.3945271,132.932225 62.3943937,129.483425 C62.3943937,129.483425 58.7884482,121.223735 59.8283008,122.163855 C60.8681534,123.103976 72.3761049,122.163855 72.3761049,122.163855 L82.2913629,124.42037 L82.36,129.482014 Z" id="路径" fill="#4296D9"></path>
                    <path d="M100.312289,110.732143 L125.793944,114.962519 C136.05375,117.796144 142,127.722429 142,137.02093 L142,152.660319 C142,156.161548 138.711659,159 134.655172,159 L7.34482759,159 C3.28834052,159 0,156.161548 0,152.660319 L0,137.02093 C0,127.722429 5.94625,117.796144 16.206056,114.962519 L41.5536681,110.732143 L71,122.799107 L100.312289,110.732143 Z" id="路径" fill="#996459"></path>
                    <path d="M28.4,109.825387 C28.4382738,109.903916 28.4379652,109.9941 28.4848814,110.068948 C47.2575698,140.154456 65.5336245,144.132707 67.5544201,144.484857 L69.1532778,144.765228 C69.29557,144.791608 69.4378622,144.803571 69.5826236,144.803571 C69.727385,144.803571 69.8696772,144.791608 70.0119694,144.765228 L71.6108271,144.484857 C73.6316227,144.132707 91.9076774,140.154456 110.680366,110.068948 C110.725121,109.997475 110.723269,109.911584 110.76,109.836737 L99.1466755,107.892857 L69.5829323,120.16289 L39.8839961,107.892857 L28.4,109.825387 Z" id="路径" fill="#7E5C62"></path>
                    <path d="M48.9909587,99.375 L39.76,111.175135 L54.6668459,132.410068 C55.5282553,133.636987 57.3345251,133.803074 58.4206102,132.755222 L71,122.97527 L48.9909587,99.375 Z" id="路径" fill="#4BB9EC"></path>
                    <path d="M93.0090413,99.375 L102.24,111.175135 L87.3331541,132.410068 C86.4717447,133.636987 84.6654749,133.803074 83.5793898,132.755222 L71,122.97527 L93.0090413,99.375 Z" id="路径" fill="#4BB9EC"></path>
                    <path d="M105.583887,56.8862848 L100.603379,45.1996584 C100.603379,45.1996584 79.0667123,33.4684335 43.9927123,37.9182713 L43.9253333,37.9182713 C37.629858,45.753954 34.08,55.3784309 34.08,67.0438199 C34.08,91.1722132 50.6096993,110.732143 71,110.732143 C91.3903007,110.732143 107.92,91.1722132 107.92,67.0438199 C107.92,63.128254 107.443732,59.3522479 106.627185,55.7415901 C105.990007,56.4436372 105.583887,56.8862848 105.583887,56.8862848 Z" id="路径" fill="#FFDCAD"></path>
                    <ellipse id="椭圆形" fill="#D5F7FF" cx="55.38" cy="66.7232143" rx="9.94" ry="9.9375"></ellipse>
                    <ellipse id="椭圆形" fill="#D5F7FF" cx="83.78" cy="66.7232143" rx="9.94" ry="9.9375"></ellipse>
                    <path d="M111.049727,6.2827785 C110.598375,5.29259554 109.526808,4.71737801 108.396546,4.86586018 C102.104306,5.74045641 94.4755878,4.25744542 86.4055626,2.70140051 C72.8697281,0.0890799568 58.8803451,-2.61287312 47.9437048,4.88940004 C47.7842566,4.85861715 47.6175892,4.84232033 47.4458999,4.84232033 C36.2321085,4.84232033 28.4,13.7781104 28.4,26.5714192 C28.4,36.9902203 33.203848,56.9158039 33.4097496,57.759919 C33.6671267,58.818609 34.631035,59.5824472 35.7612968,59.6225857 C35.793312,59.625 35.8250133,59.625 35.8545175,59.625 C36.948056,59.625 37.9216945,58.941137 38.250321,57.9322428 L45.378723,36.0214646 C75.3659714,32.6899712 95.2527409,40.95397 99.2621728,42.811808 L103.985041,53.6196203 C104.392136,54.5485393 105.358242,55.1898495 106.410349,55.0956901 C107.462456,55.0510247 108.372064,54.3813459 108.693158,53.4168154 C116.218925,30.7397846 113.462793,11.5544993 111.049727,6.2827785 Z" id="路径" fill="#7E5C62"></path>
                    <path d="M74.7866667,68.1428571 C73.7401267,68.1428571 72.8933333,67.1904542 72.8933333,66.0133929 C72.8933333,64.8384609 72.0446467,63.8839286 71,63.8839286 C69.9553533,63.8839286 69.1066667,64.8384609 69.1066667,66.0133929 C69.1066667,67.1904542 68.2598733,68.1428571 67.2133333,68.1428571 C66.1667933,68.1428571 65.32,67.1904542 65.32,66.0133929 C65.32,62.4907266 67.8679533,59.625 71,59.625 C74.1320467,59.625 76.68,62.4907266 76.68,66.0133929 C76.68,67.1904542 75.8332067,68.1428571 74.7866667,68.1428571 Z" id="路径" fill="#5C546A"></path>
                    <path d="M45.855197,62.4642857 L33.664803,62.4642857 C32.3244931,62.4642857 31.24,61.1944152 31.24,59.625 C31.24,58.0555848 32.3244931,56.7857143 33.664803,56.7857143 L45.855197,56.7857143 C47.1955069,56.7857143 48.28,58.0555848 48.28,59.625 C48.28,61.1944152 47.1955069,62.4642857 45.855197,62.4642857 Z" id="路径" fill="#5C546A"></path>
                    <path d="M108.316157,62.4642857 L96.1638429,62.4642857 C94.8130087,62.4642857 93.72,61.1944152 93.72,59.625 C93.72,58.0555848 94.8130087,56.7857143 96.1638429,56.7857143 L108.316157,56.7857143 C109.666991,56.7857143 110.76,58.0555848 110.76,59.625 C110.76,61.1944152 109.666991,62.4642857 108.316157,62.4642857 Z" id="路径" fill="#5C546A"></path>
                    <path d="M55.38,76.6607143 C48.3334275,76.6607143 42.6,70.9287288 42.6,63.8839286 C42.6,56.8391283 48.3334275,51.1071429 55.38,51.1071429 C62.4265725,51.1071429 68.16,56.8391283 68.16,63.8839286 C68.16,70.9287288 62.4265725,76.6607143 55.38,76.6607143 Z M55.38,56.2178571 C51.151737,56.2178571 47.712,59.656729 47.712,63.8839286 C47.712,68.1111281 51.151737,71.55 55.38,71.55 C59.608263,71.55 63.048,68.1111281 63.048,63.8839286 C63.048,59.656729 59.608263,56.2178571 55.38,56.2178571 Z" id="形状" fill="#868491"></path>
                    <path d="M83.78,76.6607143 C76.7334275,76.6607143 71,70.9287288 71,63.8839286 C71,56.8391283 76.7334275,51.1071429 83.78,51.1071429 C90.8265725,51.1071429 96.56,56.8391283 96.56,63.8839286 C96.56,70.9287288 90.8265725,76.6607143 83.78,76.6607143 Z M83.78,56.2178571 C79.551737,56.2178571 76.112,59.656729 76.112,63.8839286 C76.112,68.1111281 79.551737,71.55 83.78,71.55 C88.008263,71.55 91.448,68.1111281 91.448,63.8839286 C91.448,59.656729 88.008263,56.2178571 83.78,56.2178571 Z" id="形状" fill="#868491"></path>
                    <path d="M25.56,159 L25.56,141.992963 C25.56,135.877895 23.1610154,130.130354 18.8081327,125.808411 L9.34315857,116.410714 C7.98548442,117.465289 6.75877458,118.65848 5.68,119.966763 L15.1859605,129.405155 C18.5731014,132.76822 20.4367013,137.239272 20.4367013,141.993281 L20.4367013,159 L25.56,159 L25.56,159 Z" id="路径" fill="#7E5C62"></path>
                    <path d="M132.65658,116.410714 L123.191759,125.808481 C118.836384,130.130456 116.44,135.87804 116.44,141.993154 L116.44,159 L121.563216,159 L121.563216,141.993154 C121.563216,137.239109 123.426786,132.768024 126.813872,129.404934 L136.32,119.966154 C135.241243,118.658497 134.014233,117.465614 132.65658,116.410714 Z" id="路径" fill="#7E5C62"></path>
                </g>
                <text id="Prefer-the-video-ver" font-family="OpenSans-Bold, Open Sans" font-size="24" font-weight="bold" letter-spacing="0.564705882" fill="#1051F4">
                    <tspan x="202.016498" y="47">Prefer the video version</tspan>
                </text>
                <g id="编组-8" transform="translate(202.000000, 62.000000)">
                    <text id="More-intuitive-with" font-family="OpenSans-Regular, Open Sans" font-size="24" font-weight="normal" letter-spacing="0.564705882" fill="#404040">
                        <tspan x="29" y="26">More intuitive with demo</tspan>
                    </text>
                    <circle id="椭圆形" fill-opacity="0.2" fill="#1051F4" cx="9" cy="17" r="9"></circle>
                </g>
                <g id="编组-10" transform="translate(202.000000, 411.000000)">
                    <text id="Read-feedback-is-qui" font-family="OpenSans-Regular, Open Sans" font-size="24" font-weight="normal" letter-spacing="0.564705882" fill="#404040">
                        <tspan x="30" y="26">Read feedback is quicker than listen</tspan>
                    </text>
                    <circle id="椭圆形" fill-opacity="0.2" fill="#1051F4" cx="9" cy="17" r="9"></circle>
                </g>
                <g id="编组-9" transform="translate(202.000000, 370.000000)">
                    <text id="Video-is-mandatory," font-family="OpenSans-Regular, Open Sans" font-size="24" font-weight="normal" letter-spacing="0.564705882" fill="#404040">
                        <tspan x="30" y="26">Video is mandatory, can’t skip</tspan>
                    </text>
                    <circle id="椭圆形" fill-opacity="0.2" fill="#1051F4" cx="9" cy="17" r="9"></circle>
                </g>
                <g id="编组-7" transform="translate(202.000000, 103.000000)">
                    <text id="Provide-straightforw" font-family="OpenSans-Regular, Open Sans" font-size="24" font-weight="normal" letter-spacing="0.564705882" fill="#404040">
                        <tspan x="29" y="26">Provide straightforward information</tspan>
                    </text>
                    <circle id="椭圆形" fill-opacity="0.2" fill="#1051F4" cx="9" cy="17" r="9"></circle>
                </g>
                <text id="Prefer-the-click-thr" font-family="OpenSans-Bold, Open Sans" font-size="24" font-weight="bold" letter-spacing="0.564705882" fill="#1051F4">
                    <tspan x="201.365097" y="355">Prefer the click-through version</tspan>
                </text>
            </g>
        </g>
    </g>
</svg>