<?xml version="1.0" encoding="UTF-8"?>
<svg width="720px" height="293px" viewBox="0 0 720 293" version="1.1" xmlns="http://www.w3.org/2000/svg" xmlns:xlink="http://www.w3.org/1999/xlink">
    <!-- Generator: Sketch 57.1 (83088) - https://sketch.com -->
    <title>编组 16</title>
    <desc>Created with Sketch.</desc>
    <g id="页面-2----Design-Simple" stroke="none" stroke-width="1" fill="none" fill-rule="evenodd">
        <g id="3" transform="translate(-361.000000, -7424.000000)">
            <g id="编组-16" transform="translate(361.000000, 7424.000000)">
                <rect id="矩形" fill="#F3F5F8" fill-rule="nonzero" x="0" y="64" width="220" height="165" rx="6"></rect>
                <path d="M0,70 C0,66.6863 2.68629,64 6,64 L214,64 C217.314,64 220,66.6863 220,70 L220,88 L0,88 L0,70 Z" id="路径" fill="#E0E7EC" fill-rule="nonzero"></path>
                <path d="M12,79 C13.6569,79 15,77.6569 15,76 C15,74.3431 13.6569,73 12,73 C10.3431,73 9,74.3431 9,76 C9,77.6569 10.3431,79 12,79 Z M22,79 C23.6569,79 25,77.6569 25,76 C25,74.3431 23.6569,73 22,73 C20.3431,73 19,74.3431 19,76 C19,77.6569 20.3431,79 22,79 Z M35,76 C35,77.6569 33.6569,79 32,79 C30.3431,79 29,77.6569 29,76 C29,74.3431 30.3431,73 32,73 C33.6569,73 35,74.3431 35,76 Z" id="形状" fill="#94A2AB"></path>
                <rect id="矩形" fill="#D2D2D2" fill-rule="nonzero" x="23" y="105" width="174" height="84" rx="4"></rect>
                <rect id="矩形" fill="#FFFFFF" fill-rule="nonzero" x="102" y="138" width="6" height="18" rx="2"></rect>
                <rect id="矩形" fill="#FFFFFF" fill-rule="nonzero" x="112" y="138" width="6" height="18" rx="2"></rect>
                <circle id="椭圆形" fill="#FA6D00" fill-rule="nonzero" cx="161" cy="130" r="8"></circle>
                <circle id="椭圆形" fill="#27AE60" fill-rule="nonzero" cx="57" cy="168" r="8"></circle>
                <path d="M162,131 C207.751381,131 208.254144,81 253,81" id="路径" stroke="#FA6D00" stroke-width="2"></path>
                <path d="M197,209 C197,211.209 195.209,213 193,213 L27,213 C24.7909,213 23,211.209 23,209 L23,183 L197,183 L197,209 Z" id="路径" fill="#FFFFFF"></path>
                <rect id="矩形" fill="#E0E7EC" fill-rule="nonzero" x="33" y="196" width="92" height="4" rx="2"></rect>
                <path d="M55,202 C57.2091,202 59,200.209 59,198 C59,195.791 57.2091,194 55,194 C52.7909,194 51,195.791 51,198 C51,200.209 52.7909,202 55,202 Z" id="路径" fill="#94A2AB"></path>
                <rect id="矩形" fill="#E0E7EC" fill-rule="nonzero" x="157" y="196" width="30" height="4" rx="2"></rect>
                <path d="M177,202 C179.209,202 181,200.209 181,198 C181,195.791 179.209,194 177,194 C174.791,194 173,195.791 173,198 C173,200.209 174.791,202 177,202 Z" id="路径" fill="#94A2AB"></path>
                <path d="M59,169 C98.5,169 396,219 500,219" id="路径" stroke="#27AE60" stroke-width="2"></path>
                <rect id="矩形" fill="#F3F5F8" fill-rule="nonzero" x="250" y="0" width="220" height="165" rx="6"></rect>
                <path d="M250,6 C250,2.68629 252.686,0 256,0 L464,0 C467.314,0 470,2.68629 470,6 L470,24 L250,24 L250,6 Z" id="路径" fill="#E0E7EC" fill-rule="nonzero"></path>
                <path d="M262,15 C263.657,15 265,13.6569 265,12 C265,10.3431 263.657,9 262,9 C260.343,9 259,10.3431 259,12 C259,13.6569 260.343,15 262,15 Z M272,15 C273.657,15 275,13.6569 275,12 C275,10.3431 273.657,9 272,9 C270.343,9 269,10.3431 269,12 C269,13.6569 270.343,15 272,15 Z M285,12 C285,13.6569 283.657,15 282,15 C280.343,15 279,13.6569 279,12 C279,10.3431 280.343,9 282,9 C283.657,9 285,10.3431 285,12 Z" id="形状" fill="#94A2AB"></path>
                <path d="M354.347892,18 C354.259883,18 354.177052,17.9685714 354.099398,17.9057143 C354.033133,17.8428571 354,17.7642857 354,17.67 L354.033133,17.5285714 L358.025602,7.39285714 C358.103257,7.13094911 358.29584,7 358.605422,7 L360.411145,7 C360.697948,7 360.891566,7.13094911 360.990964,7.39285714 L364.983434,17.5285714 C364.994823,17.56 365,17.6071429 365,17.67 C365,17.7642857 364.966867,17.8428571 364.900602,17.9057143 C364.834337,17.9685714 364.756683,18 364.668675,18 L363.22741,18 C363.08349,18 362.973739,17.9685714 362.896084,17.9057143 C362.81843,17.8428571 362.768731,17.7747946 362.746988,17.7014286 L361.968373,15.7842857 L357.048193,15.7842857 L356.269578,17.7014286 C356.18157,17.9005089 356.021084,18 355.789157,18 L354.347892,18 Z M361.388554,13.9771429 L359.5,9.12142857 L357.628012,13.9771429 L361.388554,13.9771429 Z" id="形状" fill="#000000" fill-rule="nonzero"></path>
                <rect id="矩形" fill="#D2D2D2" fill-rule="nonzero" x="273" y="41" width="174" height="84" rx="4"></rect>
                <path d="M368.460755,82.6275283 C369.179748,82.9869655 369.179748,84.0129953 368.460755,84.3724325 L353.411647,91.8957405 C352.762894,92.220063 352,91.7484541 352,91.0233372 L352,75.9766236 C352,75.2515067 352.762894,74.7799953 353.411647,75.1042203 L368.460755,82.6275283 Z" id="路径" fill="#FFFFFF"></path>
                <path d="M447,145 C447,147.209 445.209,149 443,149 L277,149 C274.791,149 273,147.209 273,145 L273,119 L447,119 L447,145 Z" id="路径" fill="#FFFFFF"></path>
                <rect id="矩形" fill="#E0E7EC" fill-rule="nonzero" x="283" y="132" width="92" height="4" rx="2"></rect>
                <path d="M305,130 C307.209,130 309,131.791 309,134 C309,136.209 307.209,138 305,138 C302.791,138 301,136.209 301,134 C301,131.791 302.791,130 305,130 Z M435,132 C436.104569,132 437,132.895431 437,134 C437,135.104569 436.104569,136 435,136 L409,136 C407.895431,136 407,135.104569 407,134 C407,132.895431 407.895431,132 409,132 L435,132 Z" id="路径-2" fill="#94A2AB"></path>
                <path d="M427,138 C429.209,138 431,136.209 431,134 C431,131.791 429.209,130 427,130 C424.791,130 423,131.791 423,134 C423,136.209 424.791,138 427,138 Z" id="路径" fill="#94A2AB"></path>
                <rect id="矩形" fill="#F3F5F8" fill-rule="nonzero" x="500" y="128" width="220" height="165" rx="6"></rect>
                <path d="M500,134 C500,130.686 502.686,128 506,128 L714,128 C717.314,128 720,130.686 720,134 L720,152 L500,152 L500,134 Z" id="路径" fill="#E0E7EC" fill-rule="nonzero"></path>
                <path d="M512,143 C513.657,143 515,141.657 515,140 C515,138.343 513.657,137 512,137 C510.343,137 509,138.343 509,140 C509,141.657 510.343,143 512,143 Z M522,143 C523.657,143 525,141.657 525,140 C525,138.343 523.657,137 522,137 C520.343,137 519,138.343 519,140 C519,141.657 520.343,143 522,143 Z M535,140 C535,141.657 533.657,143 532,143 C530.343,143 529,141.657 529,140 C529,138.343 530.343,137 532,137 C533.657,137 535,138.343 535,140 Z" id="形状" fill="#94A2AB"></path>
                <path d="M606.385714,146 C606.278237,146 606.18683,145.963661 606.1125,145.89 C606.037165,145.816339 606,145.727946 606,145.622857 L606,135.392857 C606,135.277946 606.032143,135.183661 606.096429,135.11 C606.170759,135.036339 606.267187,135 606.385714,135 L611.046429,135 C612.3,135 613.232143,135.272054 613.842857,135.817143 C614.463616,136.351429 614.775,137.085089 614.775,138.017143 C614.775,138.562232 614.635379,139.027768 614.357143,139.415714 C614.088951,139.792857 613.772545,140.064911 613.408929,140.232857 C613.858929,140.432232 614.233594,140.756339 614.533929,141.207143 C614.844308,141.657946 615,142.170625 615,142.747143 C615,143.721429 614.6625,144.507143 613.9875,145.104286 C613.322545,145.701429 612.385379,146 611.175,146 L606.385714,146 Z M610.757143,139.51 C611.313616,139.51 611.7375,139.379375 612.026786,139.117143 C612.316071,138.854911 612.460714,138.504286 612.460714,138.064286 C612.460714,137.613482 612.316071,137.267768 612.026786,137.027143 C611.7375,136.775714 611.313616,136.65 610.757143,136.65 L608.233929,136.65 L608.233929,139.51 L610.757143,139.51 Z M610.917857,144.334286 C611.47433,144.334286 611.908259,144.187946 612.219643,143.894286 C612.530022,143.590804 612.685714,143.207768 612.685714,142.747143 C612.685714,142.275714 612.530022,141.893661 612.219643,141.6 C611.908259,141.296518 611.47433,141.144286 610.917857,141.144286 L608.233929,141.144286 L608.233929,144.334286 L610.917857,144.334286 Z" id="形状" fill="#000000" fill-rule="nonzero"></path>
                <rect id="矩形" fill="#D2D2D2" fill-rule="nonzero" x="523" y="169" width="174" height="84" rx="4"></rect>
                <path d="M618.460755,210.627305 C619.179748,210.987227 619.179748,212.013346 618.460755,212.372293 L603.411647,219.895541 C602.762894,220.220349 602,219.748256 602,219.023535 L602,203.977038 C602,203.251342 602.762894,202.780224 603.411647,203.104057 L618.460755,210.627305 Z" id="路径" fill="#FFFFFF"></path>
                <path d="M697,273 C697,275.209 695.209,277 693,277 L527,277 C524.791,277 523,275.209 523,273 L523,247 L697,247 L697,273 Z" id="路径" fill="#FFFFFF"></path>
                <rect id="矩形" fill="#E0E7EC" fill-rule="nonzero" x="533" y="260" width="92" height="4" rx="2"></rect>
                <path d="M555,266 C557.209,266 559,264.209 559,262 C559,259.791 557.209,258 555,258 C552.791,258 551,259.791 551,262 C551,264.209 552.791,266 555,266 Z" id="路径" fill="#94A2AB"></path>
                <rect id="矩形" fill="#E0E7EC" fill-rule="nonzero" x="657" y="260" width="30" height="4" rx="2"></rect>
                <path d="M677,266 C679.209,266 681,264.209 681,262 C681,259.791 679.209,258 677,258 C674.791,258 673,259.791 673,262 C673,264.209 674.791,266 677,266 Z" id="路径" fill="#94A2AB"></path>
                <path d="M471,83.8258837 C510.143911,83.8258837 607,68.2645473 607,128" id="路径" stroke="#D2D2D2" stroke-width="3"></path>
            </g>
        </g>
    </g>
</svg>