<svg width="720" height="293" viewBox="0 0 720 293" fill="none" xmlns="http://www.w3.org/2000/svg">
<rect y="64" width="220" height="165" rx="6" fill="#F3F5F8"/>
<path d="M0 70C0 66.6863 2.68629 64 6 64H214C217.314 64 220 66.6863 220 70V88H0V70Z" fill="#E0E7EC"/>
<path fill-rule="evenodd" clip-rule="evenodd" d="M12 79C13.6569 79 15 77.6569 15 76C15 74.3431 13.6569 73 12 73C10.3431 73 9 74.3431 9 76C9 77.6569 10.3431 79 12 79ZM22 79C23.6569 79 25 77.6569 25 76C25 74.3431 23.6569 73 22 73C20.3431 73 19 74.3431 19 76C19 77.6569 20.3431 79 22 79ZM35 76C35 77.6569 33.6569 79 32 79C30.3431 79 29 77.6569 29 76C29 74.3431 30.3431 73 32 73C33.6569 73 35 74.3431 35 76Z" fill="#94A2AB"/>
<rect x="23" y="105" width="174" height="84" rx="4" fill="#D2D2D2"/>
<rect x="102" y="138" width="6" height="18" rx="2" fill="white"/>
<rect x="112" y="138" width="6" height="18" rx="2" fill="white"/>
<circle cx="161" cy="130" r="8" fill="#FA6D00"/>
<circle cx="57" cy="168" r="8" fill="#27AE60"/>
<path d="M162 131C207.751 131 208.254 81 253 81" stroke="#FA6D00" stroke-width="2"/>
<path fill-rule="evenodd" clip-rule="evenodd" d="M197 209C197 211.209 195.209 213 193 213H27C24.7909 213 23 211.209 23 209V183H197V209Z" fill="white"/>
<rect x="33" y="196" width="92" height="4" rx="2" fill="#E0E7EC"/>
<path fill-rule="evenodd" clip-rule="evenodd" d="M55 202C57.2091 202 59 200.209 59 198C59 195.791 57.2091 194 55 194C52.7909 194 51 195.791 51 198C51 200.209 52.7909 202 55 202Z" fill="#94A2AB"/>
<rect x="157" y="196" width="30" height="4" rx="2" fill="#E0E7EC"/>
<path fill-rule="evenodd" clip-rule="evenodd" d="M177 202C179.209 202 181 200.209 181 198C181 195.791 179.209 194 177 194C174.791 194 173 195.791 173 198C173 200.209 174.791 202 177 202Z" fill="#94A2AB"/>
<path d="M59 169C98.5 169 396 219 500 219" stroke="#27AE60" stroke-width="2"/>
<rect x="250" width="220" height="165" rx="6" fill="#F3F5F8"/>
<path d="M250 6C250 2.68629 252.686 0 256 0H464C467.314 0 470 2.68629 470 6V24H250V6Z" fill="#E0E7EC"/>
<path fill-rule="evenodd" clip-rule="evenodd" d="M262 15C263.657 15 265 13.6569 265 12C265 10.3431 263.657 9 262 9C260.343 9 259 10.3431 259 12C259 13.6569 260.343 15 262 15ZM272 15C273.657 15 275 13.6569 275 12C275 10.3431 273.657 9 272 9C270.343 9 269 10.3431 269 12C269 13.6569 270.343 15 272 15ZM285 12C285 13.6569 283.657 15 282 15C280.343 15 279 13.6569 279 12C279 10.3431 280.343 9 282 9C283.657 9 285 10.3431 285 12Z" fill="#94A2AB"/>
<path fill-rule="evenodd" clip-rule="evenodd" d="M354.099 17.9057C354.177 17.9686 354.26 18 354.348 18H355.789C356.021 18 356.182 17.9005 356.27 17.7014L357.048 15.7843H361.968L362.747 17.7014C362.769 17.7748 362.818 17.8429 362.896 17.9057C362.974 17.9686 363.083 18 363.227 18H364.669C364.757 18 364.834 17.9686 364.901 17.9057C364.967 17.8429 365 17.7643 365 17.67C365 17.6071 364.995 17.56 364.983 17.5286L360.991 7.39286C360.892 7.13095 360.698 7 360.411 7H358.605C358.296 7 358.103 7.13095 358.026 7.39286L354.033 17.5286L354 17.67C354 17.7643 354.033 17.8429 354.099 17.9057ZM359.5 9.12143L361.389 13.9771H357.628L359.5 9.12143Z" fill="black"/>
<rect x="273" y="41" width="174" height="84" rx="4" fill="#D2D2D2"/>
<path fill-rule="evenodd" clip-rule="evenodd" d="M368.461 82.6275C369.18 82.987 369.18 84.013 368.461 84.3724L353.412 91.8957C352.763 92.2201 352 91.7485 352 91.0233V75.9766C352 75.2515 352.763 74.78 353.412 75.1042L368.461 82.6275Z" fill="white"/>
<path fill-rule="evenodd" clip-rule="evenodd" d="M447 145C447 147.209 445.209 149 443 149H277C274.791 149 273 147.209 273 145V119H447V145Z" fill="white"/>
<rect x="283" y="132" width="92" height="4" rx="2" fill="#E0E7EC"/>
<path fill-rule="evenodd" clip-rule="evenodd" d="M309 134C309 136.209 307.209 138 305 138C302.791 138 301 136.209 301 134C301 131.791 302.791 130 305 130C307.209 130 309 131.791 309 134ZM409 132C407.895 132 407 132.895 407 134C407 135.105 407.895 136 409 136H435C436.105 136 437 135.105 437 134C437 132.895 436.105 132 435 132H409Z" fill="#94A2AB"/>
<path fill-rule="evenodd" clip-rule="evenodd" d="M427 138C429.209 138 431 136.209 431 134C431 131.791 429.209 130 427 130C424.791 130 423 131.791 423 134C423 136.209 424.791 138 427 138Z" fill="#94A2AB"/>
<rect x="500" y="128" width="220" height="165" rx="6" fill="#F3F5F8"/>
<path d="M500 134C500 130.686 502.686 128 506 128H714C717.314 128 720 130.686 720 134V152H500V134Z" fill="#E0E7EC"/>
<path fill-rule="evenodd" clip-rule="evenodd" d="M512 143C513.657 143 515 141.657 515 140C515 138.343 513.657 137 512 137C510.343 137 509 138.343 509 140C509 141.657 510.343 143 512 143ZM522 143C523.657 143 525 141.657 525 140C525 138.343 523.657 137 522 137C520.343 137 519 138.343 519 140C519 141.657 520.343 143 522 143ZM535 140C535 141.657 533.657 143 532 143C530.343 143 529 141.657 529 140C529 138.343 530.343 137 532 137C533.657 137 535 138.343 535 140Z" fill="#94A2AB"/>
<path fill-rule="evenodd" clip-rule="evenodd" d="M606.386 146C606.278 146 606.187 145.964 606.112 145.89C606.037 145.816 606 145.728 606 145.623V135.393C606 135.278 606.032 135.184 606.096 135.11C606.171 135.036 606.267 135 606.386 135H611.046C612.3 135 613.232 135.272 613.843 135.817C614.464 136.351 614.775 137.085 614.775 138.017C614.775 138.562 614.635 139.028 614.357 139.416C614.089 139.793 613.773 140.065 613.409 140.233C613.859 140.432 614.234 140.756 614.534 141.207C614.844 141.658 615 142.171 615 142.747C615 143.721 614.663 144.507 613.988 145.104C613.323 145.701 612.385 146 611.175 146H606.386ZM610.757 139.51C611.314 139.51 611.738 139.379 612.027 139.117C612.316 138.855 612.461 138.504 612.461 138.064C612.461 137.613 612.316 137.268 612.027 137.027C611.738 136.776 611.314 136.65 610.757 136.65H608.234V139.51H610.757ZM612.22 143.894C611.908 144.188 611.474 144.334 610.918 144.334H608.234V141.144H610.918C611.474 141.144 611.908 141.297 612.22 141.6C612.53 141.894 612.686 142.276 612.686 142.747C612.686 143.208 612.53 143.591 612.22 143.894Z" fill="black"/>
<rect x="523" y="169" width="174" height="84" rx="4" fill="#D2D2D2"/>
<path fill-rule="evenodd" clip-rule="evenodd" d="M618.461 210.627C619.18 210.987 619.18 212.013 618.461 212.372L603.412 219.896C602.763 220.22 602 219.748 602 219.024V203.977C602 203.251 602.763 202.78 603.412 203.104L618.461 210.627Z" fill="white"/>
<path fill-rule="evenodd" clip-rule="evenodd" d="M697 273C697 275.209 695.209 277 693 277H527C524.791 277 523 275.209 523 273V247H697V273Z" fill="white"/>
<rect x="533" y="260" width="92" height="4" rx="2" fill="#E0E7EC"/>
<path fill-rule="evenodd" clip-rule="evenodd" d="M555 266C557.209 266 559 264.209 559 262C559 259.791 557.209 258 555 258C552.791 258 551 259.791 551 262C551 264.209 552.791 266 555 266Z" fill="#94A2AB"/>
<rect x="657" y="260" width="30" height="4" rx="2" fill="#E0E7EC"/>
<path fill-rule="evenodd" clip-rule="evenodd" d="M677 266C679.209 266 681 264.209 681 262C681 259.791 679.209 258 677 258C674.791 258 673 259.791 673 262C673 264.209 674.791 266 677 266Z" fill="#94A2AB"/>
<path d="M471 83.8259C510.144 83.8259 607 68.2645 607 128" stroke="#D2D2D2" stroke-width="3"/>
</svg>
