<svg width="710" height="192" viewBox="0 0 710 192" fill="none" xmlns="http://www.w3.org/2000/svg">
<path d="M92.997 14.771C92.997 15.839 92.6097 16.6719 91.8349 17.2695C91.0602 17.8672 90.0088 18.166 88.6806 18.166C87.2418 18.166 86.1351 17.9806 85.3603 17.6099V16.2485C85.8584 16.4588 86.4007 16.6248 86.9873 16.7466C87.5739 16.8683 88.1549 16.9292 88.7304 16.9292C89.6712 16.9292 90.3795 16.7521 90.8554 16.3979C91.3314 16.0382 91.5693 15.5402 91.5693 14.9038C91.5693 14.4832 91.4835 14.1401 91.312 13.8745C91.146 13.6034 90.8637 13.3543 90.4653 13.1274C90.0724 12.9006 89.472 12.6432 88.664 12.3555C87.5351 11.9515 86.7272 11.4728 86.2402 10.9194C85.7588 10.366 85.518 9.64388 85.518 8.75293C85.518 7.81771 85.8694 7.0734 86.5722 6.52002C87.275 5.96663 88.2047 5.68994 89.3613 5.68994C90.5677 5.68994 91.6772 5.9113 92.6899 6.354L92.25 7.58252C91.2483 7.16195 90.2744 6.95166 89.3281 6.95166C88.581 6.95166 87.9972 7.11214 87.5766 7.43311C87.1561 7.75407 86.9458 8.19954 86.9458 8.76953C86.9458 9.1901 87.0232 9.53597 87.1782 9.80713C87.3331 10.0728 87.5932 10.319 87.9585 10.5459C88.3292 10.7673 88.8937 11.0135 89.6518 11.2847C90.9246 11.7384 91.799 12.2254 92.2749 12.7456C92.7563 13.2658 92.997 13.9409 92.997 14.771ZM98.519 17.0288C98.7625 17.0288 98.9977 17.0122 99.2246 16.979C99.4515 16.9403 99.6313 16.9015 99.7641 16.8628V17.917C99.6147 17.9889 99.3934 18.047 99.1001 18.0913C98.8123 18.1411 98.5522 18.166 98.3198 18.166C96.56 18.166 95.6802 17.2391 95.6802 15.3853V9.97314H94.3769V9.30908L95.6802 8.73633L96.2612 6.79395H97.0581V8.90234H99.6977V9.97314H97.0581V15.3271C97.0581 15.875 97.1881 16.2956 97.4482 16.5889C97.7083 16.8822 98.0652 17.0288 98.519 17.0288ZM105.743 18.166C104.398 18.166 103.335 17.7565 102.555 16.9375C101.78 16.1185 101.393 14.9813 101.393 13.5259C101.393 12.0594 101.753 10.8945 102.472 10.0312C103.197 9.16797 104.168 8.73633 105.386 8.73633C106.526 8.73633 107.428 9.11263 108.092 9.86523C108.756 10.6123 109.088 11.6001 109.088 12.8286V13.7002H102.821C102.848 14.7682 103.117 15.5789 103.626 16.1323C104.141 16.6857 104.863 16.9624 105.792 16.9624C106.772 16.9624 107.74 16.7576 108.698 16.3481V17.5767C108.211 17.7869 107.749 17.9364 107.312 18.0249C106.88 18.119 106.357 18.166 105.743 18.166ZM105.369 9.89014C104.639 9.89014 104.055 10.1281 103.618 10.604C103.186 11.0799 102.931 11.7384 102.854 12.5796H107.61C107.61 11.7108 107.417 11.0467 107.029 10.5874C106.642 10.1226 106.089 9.89014 105.369 9.89014ZM115.988 18.166C115.396 18.166 114.853 18.0581 114.361 17.8423C113.874 17.6209 113.464 17.2834 113.132 16.8296H113.033C113.099 17.3608 113.132 17.8644 113.132 18.3403V22.084H111.754V8.90234H112.875L113.066 10.1475H113.132C113.486 9.64941 113.899 9.28971 114.369 9.06836C114.84 8.84701 115.379 8.73633 115.988 8.73633C117.194 8.73633 118.124 9.1486 118.777 9.97314C119.435 10.7977 119.765 11.9543 119.765 13.4429C119.765 14.937 119.43 16.0991 118.76 16.9292C118.096 17.7537 117.172 18.166 115.988 18.166ZM115.789 9.90674C114.859 9.90674 114.187 10.1641 113.771 10.6787C113.356 11.1934 113.143 12.0124 113.132 13.1357V13.4429C113.132 14.7212 113.345 15.637 113.771 16.1904C114.198 16.7383 114.881 17.0122 115.822 17.0122C116.608 17.0122 117.222 16.694 117.665 16.0576C118.113 15.4212 118.337 14.5441 118.337 13.4263C118.337 12.2918 118.113 11.423 117.665 10.8198C117.222 10.2111 116.597 9.90674 115.789 9.90674ZM134.627 11.9155C134.627 14.0129 134.295 15.5789 133.631 16.6138C132.972 17.6486 131.962 18.166 130.601 18.166C129.295 18.166 128.302 17.6375 127.621 16.5806C126.94 15.5181 126.6 13.9631 126.6 11.9155C126.6 9.8016 126.929 8.23275 127.588 7.20898C128.246 6.18522 129.251 5.67334 130.601 5.67334C131.918 5.67334 132.917 6.20736 133.598 7.27539C134.284 8.34342 134.627 9.89014 134.627 11.9155ZM127.995 11.9155C127.995 13.6808 128.202 14.9674 128.617 15.7754C129.032 16.5778 129.694 16.979 130.601 16.979C131.52 16.979 132.184 16.5723 132.593 15.7588C133.008 14.9398 133.216 13.6587 133.216 11.9155C133.216 10.1724 133.008 8.89681 132.593 8.08887C132.184 7.27539 131.52 6.86865 130.601 6.86865C129.694 6.86865 129.032 7.26986 128.617 8.07227C128.202 8.86914 127.995 10.1502 127.995 11.9155ZM141.726 18H140.381V9.35059C140.381 8.63118 140.404 7.95052 140.448 7.30859C140.332 7.4248 140.202 7.54655 140.058 7.67383C139.914 7.80111 139.255 8.34066 138.082 9.29248L137.352 8.34619L140.564 5.86426H141.726V18Z" fill="#717171"/>
<path d="M331.997 14.771C331.997 15.839 331.61 16.6719 330.835 17.2695C330.06 17.8672 329.009 18.166 327.681 18.166C326.242 18.166 325.135 17.9806 324.36 17.6099V16.2485C324.858 16.4588 325.401 16.6248 325.987 16.7466C326.574 16.8683 327.155 16.9292 327.73 16.9292C328.671 16.9292 329.38 16.7521 329.855 16.3979C330.331 16.0382 330.569 15.5402 330.569 14.9038C330.569 14.4832 330.484 14.1401 330.312 13.8745C330.146 13.6034 329.864 13.3543 329.465 13.1274C329.072 12.9006 328.472 12.6432 327.664 12.3555C326.535 11.9515 325.727 11.4728 325.24 10.9194C324.759 10.366 324.518 9.64388 324.518 8.75293C324.518 7.81771 324.869 7.0734 325.572 6.52002C326.275 5.96663 327.205 5.68994 328.361 5.68994C329.568 5.68994 330.677 5.9113 331.69 6.354L331.25 7.58252C330.248 7.16195 329.274 6.95166 328.328 6.95166C327.581 6.95166 326.997 7.11214 326.577 7.43311C326.156 7.75407 325.946 8.19954 325.946 8.76953C325.946 9.1901 326.023 9.53597 326.178 9.80713C326.333 10.0728 326.593 10.319 326.958 10.5459C327.329 10.7673 327.894 11.0135 328.652 11.2847C329.925 11.7384 330.799 12.2254 331.275 12.7456C331.756 13.2658 331.997 13.9409 331.997 14.771ZM337.519 17.0288C337.763 17.0288 337.998 17.0122 338.225 16.979C338.451 16.9403 338.631 16.9015 338.764 16.8628V17.917C338.615 17.9889 338.393 18.047 338.1 18.0913C337.812 18.1411 337.552 18.166 337.32 18.166C335.56 18.166 334.68 17.2391 334.68 15.3853V9.97314H333.377V9.30908L334.68 8.73633L335.261 6.79395H336.058V8.90234H338.698V9.97314H336.058V15.3271C336.058 15.875 336.188 16.2956 336.448 16.5889C336.708 16.8822 337.065 17.0288 337.519 17.0288ZM344.743 18.166C343.398 18.166 342.335 17.7565 341.555 16.9375C340.78 16.1185 340.393 14.9813 340.393 13.5259C340.393 12.0594 340.753 10.8945 341.472 10.0312C342.197 9.16797 343.168 8.73633 344.386 8.73633C345.526 8.73633 346.428 9.11263 347.092 9.86523C347.756 10.6123 348.088 11.6001 348.088 12.8286V13.7002H341.821C341.848 14.7682 342.117 15.5789 342.626 16.1323C343.141 16.6857 343.863 16.9624 344.792 16.9624C345.772 16.9624 346.74 16.7576 347.698 16.3481V17.5767C347.211 17.7869 346.749 17.9364 346.312 18.0249C345.88 18.119 345.357 18.166 344.743 18.166ZM344.369 9.89014C343.639 9.89014 343.055 10.1281 342.618 10.604C342.186 11.0799 341.931 11.7384 341.854 12.5796H346.61C346.61 11.7108 346.417 11.0467 346.029 10.5874C345.642 10.1226 345.089 9.89014 344.369 9.89014ZM354.988 18.166C354.396 18.166 353.853 18.0581 353.361 17.8423C352.874 17.6209 352.464 17.2834 352.132 16.8296H352.033C352.099 17.3608 352.132 17.8644 352.132 18.3403V22.084H350.754V8.90234H351.875L352.066 10.1475H352.132C352.486 9.64941 352.899 9.28971 353.369 9.06836C353.84 8.84701 354.379 8.73633 354.988 8.73633C356.194 8.73633 357.124 9.1486 357.777 9.97314C358.435 10.7977 358.765 11.9543 358.765 13.4429C358.765 14.937 358.43 16.0991 357.76 16.9292C357.096 17.7537 356.172 18.166 354.988 18.166ZM354.789 9.90674C353.859 9.90674 353.187 10.1641 352.771 10.6787C352.356 11.1934 352.143 12.0124 352.132 13.1357V13.4429C352.132 14.7212 352.345 15.637 352.771 16.1904C353.198 16.7383 353.881 17.0122 354.822 17.0122C355.608 17.0122 356.222 16.694 356.665 16.0576C357.113 15.4212 357.337 14.5441 357.337 13.4263C357.337 12.2918 357.113 11.423 356.665 10.8198C356.222 10.2111 355.597 9.90674 354.789 9.90674ZM373.627 11.9155C373.627 14.0129 373.295 15.5789 372.631 16.6138C371.972 17.6486 370.962 18.166 369.601 18.166C368.295 18.166 367.302 17.6375 366.621 16.5806C365.94 15.5181 365.6 13.9631 365.6 11.9155C365.6 9.8016 365.929 8.23275 366.588 7.20898C367.246 6.18522 368.251 5.67334 369.601 5.67334C370.918 5.67334 371.917 6.20736 372.598 7.27539C373.284 8.34342 373.627 9.89014 373.627 11.9155ZM366.995 11.9155C366.995 13.6808 367.202 14.9674 367.617 15.7754C368.032 16.5778 368.694 16.979 369.601 16.979C370.52 16.979 371.184 16.5723 371.593 15.7588C372.008 14.9398 372.216 13.6587 372.216 11.9155C372.216 10.1724 372.008 8.89681 371.593 8.08887C371.184 7.27539 370.52 6.86865 369.601 6.86865C368.694 6.86865 368.032 7.26986 367.617 8.07227C367.202 8.86914 366.995 10.1502 366.995 11.9155ZM383.598 18H375.621V16.813L378.817 13.6006C379.791 12.6156 380.433 11.9128 380.743 11.4922C381.053 11.0716 381.285 10.6621 381.44 10.2637C381.595 9.86523 381.672 9.43636 381.672 8.97705C381.672 8.32959 381.476 7.81771 381.083 7.44141C380.69 7.05957 380.145 6.86865 379.448 6.86865C378.944 6.86865 378.466 6.95166 378.012 7.11768C377.564 7.28369 377.063 7.58529 376.509 8.02246L375.779 7.08447C376.897 6.15479 378.114 5.68994 379.431 5.68994C380.571 5.68994 381.465 5.98324 382.112 6.56982C382.76 7.15088 383.084 7.93392 383.084 8.91895C383.084 9.68815 382.868 10.4491 382.436 11.2017C382.004 11.9543 381.196 12.9061 380.012 14.0571L377.356 16.6553V16.7217H383.598V18Z" fill="#717171"/>
<path d="M577.997 14.771C577.997 15.839 577.61 16.6719 576.835 17.2695C576.06 17.8672 575.009 18.166 573.681 18.166C572.242 18.166 571.135 17.9806 570.36 17.6099V16.2485C570.858 16.4588 571.401 16.6248 571.987 16.7466C572.574 16.8683 573.155 16.9292 573.73 16.9292C574.671 16.9292 575.38 16.7521 575.855 16.3979C576.331 16.0382 576.569 15.5402 576.569 14.9038C576.569 14.4832 576.484 14.1401 576.312 13.8745C576.146 13.6034 575.864 13.3543 575.465 13.1274C575.072 12.9006 574.472 12.6432 573.664 12.3555C572.535 11.9515 571.727 11.4728 571.24 10.9194C570.759 10.366 570.518 9.64388 570.518 8.75293C570.518 7.81771 570.869 7.0734 571.572 6.52002C572.275 5.96663 573.205 5.68994 574.361 5.68994C575.568 5.68994 576.677 5.9113 577.69 6.354L577.25 7.58252C576.248 7.16195 575.274 6.95166 574.328 6.95166C573.581 6.95166 572.997 7.11214 572.577 7.43311C572.156 7.75407 571.946 8.19954 571.946 8.76953C571.946 9.1901 572.023 9.53597 572.178 9.80713C572.333 10.0728 572.593 10.319 572.958 10.5459C573.329 10.7673 573.894 11.0135 574.652 11.2847C575.925 11.7384 576.799 12.2254 577.275 12.7456C577.756 13.2658 577.997 13.9409 577.997 14.771ZM583.519 17.0288C583.763 17.0288 583.998 17.0122 584.225 16.979C584.451 16.9403 584.631 16.9015 584.764 16.8628V17.917C584.615 17.9889 584.393 18.047 584.1 18.0913C583.812 18.1411 583.552 18.166 583.32 18.166C581.56 18.166 580.68 17.2391 580.68 15.3853V9.97314H579.377V9.30908L580.68 8.73633L581.261 6.79395H582.058V8.90234H584.698V9.97314H582.058V15.3271C582.058 15.875 582.188 16.2956 582.448 16.5889C582.708 16.8822 583.065 17.0288 583.519 17.0288ZM590.743 18.166C589.398 18.166 588.335 17.7565 587.555 16.9375C586.78 16.1185 586.393 14.9813 586.393 13.5259C586.393 12.0594 586.753 10.8945 587.472 10.0312C588.197 9.16797 589.168 8.73633 590.386 8.73633C591.526 8.73633 592.428 9.11263 593.092 9.86523C593.756 10.6123 594.088 11.6001 594.088 12.8286V13.7002H587.821C587.848 14.7682 588.117 15.5789 588.626 16.1323C589.141 16.6857 589.863 16.9624 590.792 16.9624C591.772 16.9624 592.74 16.7576 593.698 16.3481V17.5767C593.211 17.7869 592.749 17.9364 592.312 18.0249C591.88 18.119 591.357 18.166 590.743 18.166ZM590.369 9.89014C589.639 9.89014 589.055 10.1281 588.618 10.604C588.186 11.0799 587.931 11.7384 587.854 12.5796H592.61C592.61 11.7108 592.417 11.0467 592.029 10.5874C591.642 10.1226 591.089 9.89014 590.369 9.89014ZM600.988 18.166C600.396 18.166 599.853 18.0581 599.361 17.8423C598.874 17.6209 598.464 17.2834 598.132 16.8296H598.033C598.099 17.3608 598.132 17.8644 598.132 18.3403V22.084H596.754V8.90234H597.875L598.066 10.1475H598.132C598.486 9.64941 598.899 9.28971 599.369 9.06836C599.84 8.84701 600.379 8.73633 600.988 8.73633C602.194 8.73633 603.124 9.1486 603.777 9.97314C604.435 10.7977 604.765 11.9543 604.765 13.4429C604.765 14.937 604.43 16.0991 603.76 16.9292C603.096 17.7537 602.172 18.166 600.988 18.166ZM600.789 9.90674C599.859 9.90674 599.187 10.1641 598.771 10.6787C598.356 11.1934 598.143 12.0124 598.132 13.1357V13.4429C598.132 14.7212 598.345 15.637 598.771 16.1904C599.198 16.7383 599.881 17.0122 600.822 17.0122C601.608 17.0122 602.222 16.694 602.665 16.0576C603.113 15.4212 603.337 14.5441 603.337 13.4263C603.337 12.2918 603.113 11.423 602.665 10.8198C602.222 10.2111 601.597 9.90674 600.789 9.90674ZM619.627 11.9155C619.627 14.0129 619.295 15.5789 618.631 16.6138C617.972 17.6486 616.962 18.166 615.601 18.166C614.295 18.166 613.302 17.6375 612.621 16.5806C611.94 15.5181 611.6 13.9631 611.6 11.9155C611.6 9.8016 611.929 8.23275 612.588 7.20898C613.246 6.18522 614.251 5.67334 615.601 5.67334C616.918 5.67334 617.917 6.20736 618.598 7.27539C619.284 8.34342 619.627 9.89014 619.627 11.9155ZM612.995 11.9155C612.995 13.6808 613.202 14.9674 613.617 15.7754C614.032 16.5778 614.694 16.979 615.601 16.979C616.52 16.979 617.184 16.5723 617.593 15.7588C618.008 14.9398 618.216 13.6587 618.216 11.9155C618.216 10.1724 618.008 8.89681 617.593 8.08887C617.184 7.27539 616.52 6.86865 615.601 6.86865C614.694 6.86865 614.032 7.26986 613.617 8.07227C613.202 8.86914 612.995 10.1502 612.995 11.9155ZM629.142 8.71973C629.142 9.49447 628.923 10.1281 628.486 10.6206C628.054 11.1131 627.44 11.4424 626.643 11.6084V11.6748C627.617 11.7965 628.339 12.1064 628.81 12.6045C629.28 13.1025 629.515 13.7555 629.515 14.5635C629.515 15.7201 629.114 16.611 628.312 17.2363C627.509 17.8561 626.369 18.166 624.892 18.166C624.25 18.166 623.66 18.1162 623.124 18.0166C622.592 17.9225 622.075 17.7537 621.571 17.5103V16.1987C622.097 16.4588 622.656 16.658 623.248 16.7964C623.846 16.9292 624.41 16.9956 624.941 16.9956C627.039 16.9956 628.087 16.1738 628.087 14.5303C628.087 13.0583 626.931 12.3223 624.618 12.3223H623.422V11.1353H624.634C625.581 11.1353 626.33 10.9277 626.884 10.5127C627.437 10.0921 627.714 9.51107 627.714 8.76953C627.714 8.17741 627.509 7.71257 627.1 7.375C626.696 7.03743 626.145 6.86865 625.448 6.86865C624.917 6.86865 624.416 6.94059 623.945 7.08447C623.475 7.22835 622.938 7.49398 622.335 7.88135L621.638 6.95166C622.136 6.55876 622.709 6.25163 623.356 6.03027C624.009 5.80339 624.695 5.68994 625.415 5.68994C626.593 5.68994 627.509 5.9611 628.162 6.50342C628.815 7.0402 629.142 7.77897 629.142 8.71973Z" fill="#717171"/>
<rect y="27" width="220" height="165" rx="6" fill="#F3F5F8"/>
<path d="M0 33C0 29.6863 2.68629 27 6 27H214C217.314 27 220 29.6863 220 33V51H0V33Z" fill="#E0E7EC"/>
<path fill-rule="evenodd" clip-rule="evenodd" d="M12 42C13.6569 42 15 40.6569 15 39C15 37.3431 13.6569 36 12 36C10.3431 36 9 37.3431 9 39C9 40.6569 10.3431 42 12 42ZM22 42C23.6569 42 25 40.6569 25 39C25 37.3431 23.6569 36 22 36C20.3431 36 19 37.3431 19 39C19 40.6569 20.3431 42 22 42ZM35 39C35 40.6569 33.6569 42 32 42C30.3431 42 29 40.6569 29 39C29 37.3431 30.3431 36 32 36C33.6569 36 35 37.3431 35 39Z" fill="#94A2AB"/>
<rect x="50" y="120" width="73" height="52" rx="12" fill="white"/>
<rect x="61" y="134" width="52" height="8" rx="2" fill="#27AE60"/>
<rect x="61" y="146" width="48" height="8" rx="2" fill="#27AE60"/>
<circle cx="35" cy="130" r="10" fill="#C4C4C4"/>
<rect x="245" y="27" width="220" height="165" rx="6" fill="#F3F5F8"/>
<path d="M245 33C245 29.6863 247.686 27 251 27H459C462.314 27 465 29.6863 465 33V51H245V33Z" fill="#E0E7EC"/>
<rect x="334" y="78" width="73" height="52" rx="12" fill="white"/>
<rect x="345" y="92" width="52" height="8" rx="2" fill="#FA6D00"/>
<rect x="345" y="104" width="48" height="8" rx="2" fill="#FA6D00"/>
<circle cx="425" cy="88" r="10" fill="#C4C4C4"/>
<rect x="490" y="27" width="220" height="165" rx="6" fill="#F3F5F8"/>
<path d="M490 33C490 29.6863 492.686 27 496 27H704C707.314 27 710 29.6863 710 33V51H490V33Z" fill="#E0E7EC"/>
<rect x="574" y="104" width="73" height="52" rx="12" fill="white"/>
<rect x="585" y="118" width="52" height="8" rx="2" fill="#27AE60"/>
<rect x="585" y="130" width="48" height="8" rx="2" fill="#27AE60"/>
<circle cx="554" cy="119" r="10" fill="#C4C4C4"/>
<path d="M151.5 11.5H313.5" stroke="#979797" stroke-linecap="square"/>
<path d="M397.5 11.5H557.5" stroke="#979797" stroke-linecap="square"/>
</svg>
