<svg width="767" height="249" viewBox="0 0 767 249" fill="none" xmlns="http://www.w3.org/2000/svg">
<rect x="181" y="29" width="284" height="101" fill="#1051F4" fill-opacity="0.12"/>
<rect x="181" y="148" width="284" height="101" fill="#F7F7F7"/>
<rect x="483" y="29" width="284" height="101" fill="#1051F4" fill-opacity="0.07"/>
<rect x="483" y="148" width="284" height="101" fill="#1051F4" fill-opacity="0.07"/>
<path d="M575.259 188.452C575.259 190.567 574.656 192.188 573.449 193.312C572.248 194.438 570.51 195 568.237 195H564.598V182.15H568.633C570.73 182.15 572.359 182.704 573.519 183.812C574.679 184.919 575.259 186.466 575.259 188.452ZM572.429 188.522C572.429 185.763 571.211 184.383 568.773 184.383H567.323V192.75H568.492C571.117 192.75 572.429 191.341 572.429 188.522ZM584.375 195L583.857 193.664H583.787C583.335 194.232 582.87 194.628 582.389 194.851C581.914 195.067 581.293 195.176 580.526 195.176C579.582 195.176 578.838 194.906 578.293 194.367C577.754 193.828 577.485 193.061 577.485 192.064C577.485 191.021 577.848 190.254 578.575 189.762C579.307 189.264 580.409 188.988 581.879 188.936L583.584 188.883V188.452C583.584 187.456 583.075 186.958 582.055 186.958C581.27 186.958 580.347 187.195 579.287 187.67L578.399 185.859C579.53 185.268 580.784 184.972 582.161 184.972C583.479 184.972 584.49 185.259 585.193 185.833C585.896 186.407 586.247 187.28 586.247 188.452V195H584.375ZM583.584 190.447L582.547 190.482C581.768 190.506 581.188 190.646 580.807 190.904C580.426 191.162 580.236 191.555 580.236 192.082C580.236 192.838 580.669 193.216 581.537 193.216C582.158 193.216 582.653 193.037 583.022 192.68C583.397 192.322 583.584 191.848 583.584 191.256V190.447ZM593.579 193.04C594.048 193.04 594.61 192.938 595.267 192.732V194.728C594.599 195.026 593.778 195.176 592.806 195.176C591.733 195.176 590.951 194.906 590.459 194.367C589.973 193.822 589.73 193.008 589.73 191.924V187.187H588.446V186.053L589.923 185.156L590.696 183.082H592.41V185.174H595.161V187.187H592.41V191.924C592.41 192.305 592.516 192.586 592.727 192.768C592.943 192.949 593.228 193.04 593.579 193.04ZM603.926 195L603.407 193.664H603.337C602.886 194.232 602.42 194.628 601.939 194.851C601.465 195.067 600.844 195.176 600.076 195.176C599.133 195.176 598.388 194.906 597.844 194.367C597.304 193.828 597.035 193.061 597.035 192.064C597.035 191.021 597.398 190.254 598.125 189.762C598.857 189.264 599.959 188.988 601.429 188.936L603.135 188.883V188.452C603.135 187.456 602.625 186.958 601.605 186.958C600.82 186.958 599.897 187.195 598.837 187.67L597.949 185.859C599.08 185.268 600.334 184.972 601.711 184.972C603.029 184.972 604.04 185.259 604.743 185.833C605.446 186.407 605.798 187.28 605.798 188.452V195H603.926ZM603.135 190.447L602.097 190.482C601.318 190.506 600.738 190.646 600.357 190.904C599.976 191.162 599.786 191.555 599.786 192.082C599.786 192.838 600.219 193.216 601.087 193.216C601.708 193.216 602.203 193.037 602.572 192.68C602.947 192.322 603.135 191.848 603.135 191.256V190.447ZM624.961 188.452C624.961 190.567 624.358 192.188 623.151 193.312C621.949 194.438 620.212 195 617.939 195H614.3V182.15H618.334C620.432 182.15 622.061 182.704 623.221 183.812C624.381 184.919 624.961 186.466 624.961 188.452ZM622.131 188.522C622.131 185.763 620.912 184.383 618.475 184.383H617.025V192.75H618.194C620.819 192.75 622.131 191.341 622.131 188.522ZM627.723 182.634C627.723 181.761 628.209 181.324 629.181 181.324C630.154 181.324 630.64 181.761 630.64 182.634C630.64 183.05 630.517 183.375 630.271 183.609C630.031 183.838 629.668 183.952 629.181 183.952C628.209 183.952 627.723 183.513 627.723 182.634ZM630.517 195H627.837V185.174H630.517V195ZM640.618 192.082C640.618 193.09 640.266 193.857 639.563 194.385C638.866 194.912 637.82 195.176 636.425 195.176C635.71 195.176 635.101 195.126 634.597 195.026C634.093 194.933 633.622 194.792 633.182 194.604V192.39C633.68 192.624 634.24 192.82 634.861 192.979C635.488 193.137 636.039 193.216 636.513 193.216C637.486 193.216 637.972 192.935 637.972 192.372C637.972 192.161 637.908 191.991 637.779 191.862C637.65 191.728 637.427 191.578 637.111 191.414C636.794 191.244 636.373 191.048 635.845 190.825C635.089 190.509 634.533 190.216 634.175 189.946C633.824 189.677 633.566 189.369 633.402 189.023C633.244 188.672 633.165 188.241 633.165 187.731C633.165 186.858 633.502 186.185 634.175 185.71C634.855 185.229 635.816 184.989 637.058 184.989C638.242 184.989 639.393 185.247 640.512 185.763L639.704 187.696C639.211 187.485 638.752 187.312 638.324 187.178C637.896 187.043 637.46 186.976 637.014 186.976C636.223 186.976 635.828 187.189 635.828 187.617C635.828 187.857 635.954 188.065 636.206 188.241C636.463 188.417 637.023 188.678 637.884 189.023C638.652 189.334 639.214 189.624 639.572 189.894C639.929 190.163 640.193 190.474 640.363 190.825C640.533 191.177 640.618 191.596 640.618 192.082ZM648.53 195.176C647.375 195.176 646.47 194.757 645.814 193.919H645.673C645.767 194.739 645.814 195.214 645.814 195.343V199.324H643.133V185.174H645.313L645.691 186.448H645.814C646.441 185.476 647.369 184.989 648.6 184.989C649.76 184.989 650.668 185.438 651.324 186.334C651.981 187.23 652.309 188.476 652.309 190.069C652.309 191.118 652.154 192.029 651.843 192.803C651.538 193.576 651.102 194.165 650.533 194.569C649.965 194.974 649.297 195.176 648.53 195.176ZM647.739 187.134C647.076 187.134 646.593 187.339 646.288 187.749C645.984 188.153 645.825 188.824 645.814 189.762V190.052C645.814 191.106 645.969 191.862 646.28 192.319C646.596 192.776 647.094 193.005 647.774 193.005C648.975 193.005 649.575 192.015 649.575 190.034C649.575 189.067 649.426 188.344 649.127 187.863C648.834 187.377 648.371 187.134 647.739 187.134ZM657.628 195H654.947V181.324H657.628V195ZM667.113 195L666.594 193.664H666.524C666.073 194.232 665.607 194.628 665.127 194.851C664.652 195.067 664.031 195.176 663.263 195.176C662.32 195.176 661.576 194.906 661.031 194.367C660.492 193.828 660.222 193.061 660.222 192.064C660.222 191.021 660.586 190.254 661.312 189.762C662.045 189.264 663.146 188.988 664.617 188.936L666.322 188.883V188.452C666.322 187.456 665.812 186.958 664.793 186.958C664.007 186.958 663.085 187.195 662.024 187.67L661.136 185.859C662.267 185.268 663.521 184.972 664.898 184.972C666.216 184.972 667.227 185.259 667.93 185.833C668.633 186.407 668.985 187.28 668.985 188.452V195H667.113ZM666.322 190.447L665.285 190.482C664.505 190.506 663.925 190.646 663.545 190.904C663.164 191.162 662.973 191.555 662.973 192.082C662.973 192.838 663.407 193.216 664.274 193.216C664.895 193.216 665.39 193.037 665.759 192.68C666.134 192.322 666.322 191.848 666.322 191.256V190.447ZM670.771 185.174H673.706L675.561 190.702C675.719 191.183 675.827 191.751 675.886 192.407H675.939C676.003 191.804 676.129 191.235 676.317 190.702L678.136 185.174H681.01L676.853 196.257C676.472 197.282 675.927 198.05 675.218 198.56C674.515 199.069 673.692 199.324 672.748 199.324C672.285 199.324 671.831 199.274 671.386 199.175V197.048C671.708 197.124 672.06 197.162 672.441 197.162C672.915 197.162 673.328 197.016 673.68 196.723C674.037 196.436 674.316 195.999 674.515 195.413L674.673 194.93L670.771 185.174Z" fill="#404040"/>
<path d="M287.416 88H280.016V75.1504H287.416V77.3828H282.74V80.2041H287.091V82.4365H282.74V85.75H287.416V88ZM295.75 80.1865H293.429V88H290.749V80.1865H289.272V78.8945L290.749 78.1738V77.4531C290.749 76.334 291.024 75.5166 291.575 75.001C292.126 74.4854 293.008 74.2275 294.22 74.2275C295.146 74.2275 295.969 74.3652 296.69 74.6406L296.005 76.6094C295.466 76.4395 294.968 76.3545 294.511 76.3545C294.13 76.3545 293.854 76.4688 293.684 76.6973C293.514 76.9199 293.429 77.207 293.429 77.5586V78.1738H295.75V80.1865ZM302.719 80.1865H300.399V88H297.719V80.1865H296.242V78.8945L297.719 78.1738V77.4531C297.719 76.334 297.994 75.5166 298.545 75.001C299.095 74.4854 299.977 74.2275 301.19 74.2275C302.116 74.2275 302.939 74.3652 303.66 74.6406L302.974 76.6094C302.435 76.4395 301.937 76.3545 301.48 76.3545C301.099 76.3545 300.824 76.4688 300.654 76.6973C300.484 76.9199 300.399 77.207 300.399 77.5586V78.1738H302.719V80.1865ZM304.117 75.6338C304.117 74.7607 304.603 74.3242 305.576 74.3242C306.549 74.3242 307.035 74.7607 307.035 75.6338C307.035 76.0498 306.912 76.375 306.666 76.6094C306.426 76.8379 306.062 76.9521 305.576 76.9521C304.603 76.9521 304.117 76.5127 304.117 75.6338ZM306.912 88H304.231V78.1738H306.912V88ZM314.138 88.1758C311.08 88.1758 309.55 86.4971 309.55 83.1396C309.55 81.4697 309.966 80.1953 310.798 79.3164C311.63 78.4316 312.823 77.9893 314.375 77.9893C315.512 77.9893 316.532 78.2119 317.434 78.6572L316.643 80.7314C316.221 80.5615 315.829 80.4238 315.465 80.3184C315.102 80.207 314.739 80.1514 314.375 80.1514C312.981 80.1514 312.284 81.1416 312.284 83.1221C312.284 85.0439 312.981 86.0049 314.375 86.0049C314.891 86.0049 315.369 85.9375 315.808 85.8027C316.248 85.6621 316.687 85.4453 317.126 85.1523V87.4463C316.693 87.7217 316.253 87.9121 315.808 88.0176C315.369 88.123 314.812 88.1758 314.138 88.1758ZM319.721 75.6338C319.721 74.7607 320.207 74.3242 321.18 74.3242C322.152 74.3242 322.639 74.7607 322.639 75.6338C322.639 76.0498 322.516 76.375 322.27 76.6094C322.029 76.8379 321.666 76.9521 321.18 76.9521C320.207 76.9521 319.721 76.5127 319.721 75.6338ZM322.516 88H319.835V78.1738H322.516V88ZM329.83 79.8965C329.262 79.8965 328.816 80.0781 328.494 80.4414C328.172 80.7988 327.987 81.3086 327.94 81.9707H331.702C331.69 81.3086 331.517 80.7988 331.183 80.4414C330.849 80.0781 330.398 79.8965 329.83 79.8965ZM330.208 88.1758C328.626 88.1758 327.389 87.7393 326.499 86.8662C325.608 85.9932 325.163 84.7568 325.163 83.1572C325.163 81.5107 325.573 80.2393 326.393 79.3428C327.22 78.4404 328.359 77.9893 329.812 77.9893C331.201 77.9893 332.282 78.3848 333.056 79.1758C333.829 79.9668 334.216 81.0596 334.216 82.4541V83.7549H327.879C327.908 84.5166 328.134 85.1113 328.556 85.5391C328.977 85.9668 329.569 86.1807 330.331 86.1807C330.923 86.1807 331.482 86.1191 332.01 85.9961C332.537 85.873 333.088 85.6768 333.662 85.4072V87.4814C333.193 87.7158 332.692 87.8887 332.159 88C331.626 88.1172 330.975 88.1758 330.208 88.1758ZM345.889 88H343.209V82.2607C343.209 81.5518 343.083 81.0215 342.831 80.6699C342.579 80.3125 342.177 80.1338 341.627 80.1338C340.877 80.1338 340.335 80.3857 340.001 80.8896C339.667 81.3877 339.5 82.2168 339.5 83.377V88H336.819V78.1738H338.867L339.227 79.4307H339.377C339.675 78.9561 340.085 78.5986 340.607 78.3584C341.134 78.1123 341.732 77.9893 342.4 77.9893C343.543 77.9893 344.41 78.2998 345.002 78.9209C345.593 79.5361 345.889 80.4268 345.889 81.5928V88ZM353.063 88.1758C350.004 88.1758 348.475 86.4971 348.475 83.1396C348.475 81.4697 348.891 80.1953 349.723 79.3164C350.555 78.4316 351.747 77.9893 353.3 77.9893C354.437 77.9893 355.456 78.2119 356.359 78.6572L355.568 80.7314C355.146 80.5615 354.753 80.4238 354.39 80.3184C354.027 80.207 353.663 80.1514 353.3 80.1514C351.906 80.1514 351.208 81.1416 351.208 83.1221C351.208 85.0439 351.906 86.0049 353.3 86.0049C353.816 86.0049 354.293 85.9375 354.733 85.8027C355.172 85.6621 355.612 85.4453 356.051 85.1523V87.4463C355.617 87.7217 355.178 87.9121 354.733 88.0176C354.293 88.123 353.737 88.1758 353.063 88.1758ZM357.353 78.1738H360.289L362.143 83.7021C362.302 84.1826 362.41 84.751 362.469 85.4072H362.521C362.586 84.8037 362.712 84.2354 362.899 83.7021L364.719 78.1738H367.593L363.435 89.2568C363.055 90.2822 362.51 91.0498 361.801 91.5596C361.098 92.0693 360.274 92.3242 359.331 92.3242C358.868 92.3242 358.414 92.2744 357.969 92.1748V90.0479C358.291 90.124 358.643 90.1621 359.023 90.1621C359.498 90.1621 359.911 90.0156 360.263 89.7227C360.62 89.4355 360.898 88.999 361.098 88.4131L361.256 87.9297L357.353 78.1738Z" fill="#1E4095"/>
<path d="M313.721 202.843V201.507H330.279V202.843H313.721Z" fill="#404040"/>
<path d="M36.8569 76V64.5781H38.185V74.7969H43.2241V76H36.8569ZM48.9677 76.1562C47.7021 76.1562 46.7021 75.7708 45.9677 75C45.2386 74.2292 44.874 73.1589 44.874 71.7891C44.874 70.4089 45.2125 69.3125 45.8896 68.5C46.5719 67.6875 47.486 67.2812 48.6318 67.2812C49.7047 67.2812 50.5537 67.6354 51.1787 68.3438C51.8037 69.0469 52.1162 69.9766 52.1162 71.1328V71.9531H46.2177C46.2438 72.9583 46.4964 73.7214 46.9755 74.2422C47.4599 74.763 48.1396 75.0234 49.0146 75.0234C49.9365 75.0234 50.8479 74.8307 51.749 74.4453V75.6016C51.2907 75.7995 50.8558 75.9401 50.4443 76.0234C50.038 76.112 49.5459 76.1562 48.9677 76.1562ZM48.6162 68.3672C47.9287 68.3672 47.3792 68.5911 46.9677 69.0391C46.5615 69.487 46.3219 70.1068 46.249 70.8984H50.7255C50.7255 70.0807 50.5433 69.4557 50.1787 69.0234C49.8141 68.5859 49.2933 68.3672 48.6162 68.3672ZM59.977 76L59.7192 74.7812H59.6567C59.2296 75.3177 58.8025 75.6823 58.3755 75.875C57.9536 76.0625 57.4249 76.1562 56.7895 76.1562C55.9406 76.1562 55.2739 75.9375 54.7895 75.5C54.3104 75.0625 54.0708 74.4401 54.0708 73.6328C54.0708 71.9036 55.4536 70.9974 58.2192 70.9141L59.6723 70.8672V70.3359C59.6723 69.6641 59.5265 69.1693 59.2348 68.8516C58.9484 68.5286 58.4874 68.3672 57.852 68.3672C57.1385 68.3672 56.3312 68.5859 55.4301 69.0234L55.0317 68.0312C55.4536 67.8021 55.9145 67.6224 56.4145 67.4922C56.9197 67.362 57.4249 67.2969 57.9301 67.2969C58.951 67.2969 59.7062 67.5234 60.1958 67.9766C60.6906 68.4297 60.938 69.1562 60.938 70.1562V76H59.977ZM57.0473 75.0859C57.8546 75.0859 58.4874 74.8646 58.9458 74.4219C59.4093 73.9792 59.6411 73.3594 59.6411 72.5625V71.7891L58.3442 71.8438C57.313 71.8802 56.5682 72.0417 56.1098 72.3281C55.6567 72.6094 55.4301 73.0495 55.4301 73.6484C55.4301 74.1172 55.5708 74.474 55.852 74.7188C56.1385 74.9635 56.5369 75.0859 57.0473 75.0859ZM67.9004 67.2812C68.2806 67.2812 68.6217 67.3125 68.9238 67.375L68.7441 68.5781C68.39 68.5 68.0775 68.4609 67.8066 68.4609C67.1139 68.4609 66.5202 68.7422 66.0254 69.3047C65.5358 69.8672 65.291 70.5677 65.291 71.4062V76H63.9941V67.4375H65.0644L65.2129 69.0234H65.2754C65.5931 68.4661 65.9759 68.0365 66.4238 67.7344C66.8717 67.4323 67.3639 67.2812 67.9004 67.2812ZM76.7612 76V70.4609C76.7612 69.763 76.6024 69.2422 76.2847 68.8984C75.9669 68.5547 75.4695 68.3828 74.7925 68.3828C73.8966 68.3828 73.2404 68.625 72.8237 69.1094C72.407 69.5938 72.1987 70.3932 72.1987 71.5078V76H70.9018V67.4375H71.9565L72.1675 68.6094H72.23C72.4956 68.1875 72.868 67.862 73.3472 67.6328C73.8263 67.3984 74.3602 67.2812 74.9487 67.2812C75.98 67.2812 76.756 67.5312 77.2768 68.0312C77.7977 68.526 78.0581 69.3203 78.0581 70.4141V76H76.7612ZM84.7236 76.1562C83.458 76.1562 82.458 75.7708 81.7236 75C80.9945 74.2292 80.6299 73.1589 80.6299 71.7891C80.6299 70.4089 80.9684 69.3125 81.6455 68.5C82.3278 67.6875 83.2418 67.2812 84.3877 67.2812C85.4606 67.2812 86.3096 67.6354 86.9346 68.3438C87.5596 69.0469 87.8721 69.9766 87.8721 71.1328V71.9531H81.9736C81.9997 72.9583 82.2523 73.7214 82.7314 74.2422C83.2158 74.763 83.8955 75.0234 84.7705 75.0234C85.6924 75.0234 86.6038 74.8307 87.5049 74.4453V75.6016C87.0465 75.7995 86.6116 75.9401 86.2002 76.0234C85.7939 76.112 85.3017 76.1562 84.7236 76.1562ZM84.3721 68.3672C83.6846 68.3672 83.1351 68.5911 82.7236 69.0391C82.3174 69.487 82.0778 70.1068 82.0049 70.8984H86.4814C86.4814 70.0807 86.2991 69.4557 85.9346 69.0234C85.57 68.5859 85.0491 68.3672 84.3721 68.3672ZM94.3735 67.2812C94.7537 67.2812 95.0949 67.3125 95.397 67.375L95.2173 68.5781C94.8631 68.5 94.5506 68.4609 94.2798 68.4609C93.5871 68.4609 92.9933 68.7422 92.4985 69.3047C92.0089 69.8672 91.7642 70.5677 91.7642 71.4062V76H90.4673V67.4375H91.5376L91.686 69.0234H91.7485C92.0662 68.4661 92.449 68.0365 92.897 67.7344C93.3449 67.4323 93.8371 67.2812 94.3735 67.2812ZM71.2612 94.9609C71.2612 95.9661 70.8966 96.75 70.1675 97.3125C69.4383 97.875 68.4487 98.1562 67.1987 98.1562C65.8445 98.1562 64.8029 97.9818 64.0737 97.6328V96.3516C64.5425 96.5495 65.0529 96.7057 65.605 96.8203C66.157 96.9349 66.7039 96.9922 67.2456 96.9922C68.131 96.9922 68.7977 96.8255 69.2456 96.4922C69.6935 96.1536 69.9175 95.6849 69.9175 95.0859C69.9175 94.6901 69.8367 94.3672 69.6753 94.1172C69.519 93.862 69.2534 93.6276 68.8784 93.4141C68.5086 93.2005 67.9435 92.9583 67.1831 92.6875C66.1206 92.3073 65.3602 91.8568 64.9018 91.3359C64.4487 90.8151 64.2221 90.1354 64.2221 89.2969C64.2221 88.4167 64.5529 87.7161 65.2143 87.1953C65.8758 86.6745 66.7508 86.4141 67.8393 86.4141C68.9748 86.4141 70.019 86.6224 70.9721 87.0391L70.5581 88.1953C69.6154 87.7995 68.6987 87.6016 67.8081 87.6016C67.105 87.6016 66.5555 87.7526 66.1596 88.0547C65.7638 88.3568 65.5659 88.776 65.5659 89.3125C65.5659 89.7083 65.6388 90.0339 65.7846 90.2891C65.9305 90.5391 66.1753 90.7708 66.519 90.9844C66.868 91.1927 67.3992 91.4245 68.1128 91.6797C69.3107 92.1068 70.1336 92.5651 70.5815 93.0547C71.0346 93.5443 71.2612 94.1797 71.2612 94.9609ZM75.0752 98H73.7783V89.4375H75.0752V98ZM73.6689 87.1172C73.6689 86.8203 73.7418 86.6042 73.8877 86.4688C74.0335 86.3281 74.2158 86.2578 74.4346 86.2578C74.6429 86.2578 74.8226 86.3281 74.9736 86.4688C75.1247 86.6094 75.2002 86.8255 75.2002 87.1172C75.2002 87.4089 75.1247 87.6276 74.9736 87.7734C74.8226 87.9141 74.6429 87.9844 74.4346 87.9844C74.2158 87.9844 74.0335 87.9141 73.8877 87.7734C73.7418 87.6276 73.6689 87.4089 73.6689 87.1172ZM84.0298 96.8516H83.9595C83.3605 97.7214 82.4647 98.1562 81.272 98.1562C80.1522 98.1562 79.2798 97.7734 78.6548 97.0078C78.035 96.2422 77.7251 95.1536 77.7251 93.7422C77.7251 92.3307 78.0376 91.2344 78.6626 90.4531C79.2876 89.6719 80.1574 89.2812 81.272 89.2812C82.4334 89.2812 83.324 89.7031 83.9438 90.5469H84.0454L83.9907 89.9297L83.9595 89.3281V85.8438H85.2563V98H84.2017L84.0298 96.8516ZM81.436 97.0703C82.3214 97.0703 82.9621 96.8307 83.3579 96.3516C83.7589 95.8672 83.9595 95.0885 83.9595 94.0156V93.7422C83.9595 92.5286 83.7563 91.6641 83.3501 91.1484C82.949 90.6276 82.3058 90.3672 81.4204 90.3672C80.66 90.3672 80.0767 90.6641 79.6704 91.2578C79.2694 91.8464 79.0688 92.6797 79.0688 93.7578C79.0688 94.8516 79.2694 95.6771 79.6704 96.2344C80.0714 96.7917 80.66 97.0703 81.436 97.0703ZM92.0078 98.1562C90.7422 98.1562 89.7422 97.7708 89.0078 97C88.2786 96.2292 87.9141 95.1589 87.9141 93.7891C87.9141 92.4089 88.2526 91.3125 88.9297 90.5C89.612 89.6875 90.526 89.2812 91.6719 89.2812C92.7448 89.2812 93.5938 89.6354 94.2188 90.3438C94.8438 91.0469 95.1562 91.9766 95.1562 93.1328V93.9531H89.2578C89.2839 94.9583 89.5365 95.7214 90.0156 96.2422C90.5 96.763 91.1797 97.0234 92.0547 97.0234C92.9766 97.0234 93.888 96.8307 94.7891 96.4453V97.6016C94.3307 97.7995 93.8958 97.9401 93.4844 98.0234C93.0781 98.112 92.5859 98.1562 92.0078 98.1562ZM91.6562 90.3672C90.9688 90.3672 90.4193 90.5911 90.0078 91.0391C89.6016 91.487 89.362 92.1068 89.2891 92.8984H93.7656C93.7656 92.0807 93.5833 91.4557 93.2188 91.0234C92.8542 90.5859 92.3333 90.3672 91.6562 90.3672Z" fill="#717171"/>
<path d="M43.7631 200H42.435V189.758H38.8178V188.578H47.3803V189.758H43.7631V200ZM53.1943 191.281C53.5745 191.281 53.9157 191.312 54.2177 191.375L54.038 192.578C53.6839 192.5 53.3714 192.461 53.1005 192.461C52.4078 192.461 51.8141 192.742 51.3193 193.305C50.8297 193.867 50.5849 194.568 50.5849 195.406V200H49.288V191.438H50.3584L50.5068 193.023H50.5693C50.887 192.466 51.2698 192.036 51.7177 191.734C52.1657 191.432 52.6578 191.281 53.1943 191.281ZM61.4614 200L61.2036 198.781H61.1411C60.714 199.318 60.2869 199.682 59.8598 199.875C59.438 200.062 58.9093 200.156 58.2739 200.156C57.4249 200.156 56.7583 199.938 56.2739 199.5C55.7947 199.062 55.5551 198.44 55.5551 197.633C55.5551 195.904 56.938 194.997 59.7036 194.914L61.1567 194.867V194.336C61.1567 193.664 61.0109 193.169 60.7192 192.852C60.4327 192.529 59.9718 192.367 59.3364 192.367C58.6229 192.367 57.8156 192.586 56.9145 193.023L56.5161 192.031C56.938 191.802 57.3989 191.622 57.8989 191.492C58.4041 191.362 58.9093 191.297 59.4145 191.297C60.4354 191.297 61.1906 191.523 61.6801 191.977C62.1749 192.43 62.4223 193.156 62.4223 194.156V200H61.4614ZM58.5317 199.086C59.339 199.086 59.9718 198.865 60.4301 198.422C60.8937 197.979 61.1255 197.359 61.1255 196.562V195.789L59.8286 195.844C58.7973 195.88 58.0525 196.042 57.5942 196.328C57.1411 196.609 56.9145 197.049 56.9145 197.648C56.9145 198.117 57.0551 198.474 57.3364 198.719C57.6229 198.964 58.0213 199.086 58.5317 199.086ZM66.7754 200H65.4785V191.438H66.7754V200ZM65.3691 189.117C65.3691 188.82 65.442 188.604 65.5879 188.469C65.7337 188.328 65.916 188.258 66.1347 188.258C66.3431 188.258 66.5228 188.328 66.6738 188.469C66.8248 188.609 66.9004 188.826 66.9004 189.117C66.9004 189.409 66.8248 189.628 66.6738 189.773C66.5228 189.914 66.3431 189.984 66.1347 189.984C65.916 189.984 65.7337 189.914 65.5879 189.773C65.442 189.628 65.3691 189.409 65.3691 189.117ZM75.7612 200V194.461C75.7612 193.763 75.6024 193.242 75.2846 192.898C74.9669 192.555 74.4695 192.383 73.7925 192.383C72.8966 192.383 72.2404 192.625 71.8237 193.109C71.407 193.594 71.1987 194.393 71.1987 195.508V200H69.9018V191.438H70.9565L71.1675 192.609H71.23C71.4956 192.188 71.868 191.862 72.3471 191.633C72.8263 191.398 73.3602 191.281 73.9487 191.281C74.98 191.281 75.756 191.531 76.2768 192.031C76.7977 192.526 77.0581 193.32 77.0581 194.414V200H75.7612ZM83.7236 200.156C82.458 200.156 81.458 199.771 80.7236 199C79.9945 198.229 79.6299 197.159 79.6299 195.789C79.6299 194.409 79.9684 193.312 80.6455 192.5C81.3278 191.688 82.2419 191.281 83.3877 191.281C84.4606 191.281 85.3096 191.635 85.9346 192.344C86.5596 193.047 86.8721 193.977 86.8721 195.133V195.953H80.9736C80.9997 196.958 81.2523 197.721 81.7314 198.242C82.2158 198.763 82.8955 199.023 83.7705 199.023C84.6924 199.023 85.6038 198.831 86.5049 198.445V199.602C86.0465 199.799 85.6116 199.94 85.2002 200.023C84.7939 200.112 84.3017 200.156 83.7236 200.156ZM83.3721 192.367C82.6846 192.367 82.1351 192.591 81.7236 193.039C81.3174 193.487 81.0778 194.107 81.0049 194.898H85.4814C85.4814 194.081 85.2991 193.456 84.9346 193.023C84.57 192.586 84.0491 192.367 83.3721 192.367ZM93.3735 191.281C93.7537 191.281 94.0949 191.312 94.397 191.375L94.2173 192.578C93.8631 192.5 93.5506 192.461 93.2798 192.461C92.5871 192.461 91.9933 192.742 91.4985 193.305C91.0089 193.867 90.7642 194.568 90.7642 195.406V200H89.4673V191.438H90.5376L90.686 193.023H90.7485C91.0662 192.466 91.449 192.036 91.897 191.734C92.3449 191.432 92.8371 191.281 93.3735 191.281ZM70.2612 218.961C70.2612 219.966 69.8966 220.75 69.1675 221.312C68.4383 221.875 67.4487 222.156 66.1987 222.156C64.8445 222.156 63.8029 221.982 63.0737 221.633V220.352C63.5425 220.549 64.0529 220.706 64.605 220.82C65.157 220.935 65.7039 220.992 66.2456 220.992C67.131 220.992 67.7977 220.826 68.2456 220.492C68.6935 220.154 68.9175 219.685 68.9175 219.086C68.9175 218.69 68.8367 218.367 68.6753 218.117C68.519 217.862 68.2534 217.628 67.8784 217.414C67.5086 217.201 66.9435 216.958 66.1831 216.688C65.1206 216.307 64.3602 215.857 63.9018 215.336C63.4487 214.815 63.2221 214.135 63.2221 213.297C63.2221 212.417 63.5529 211.716 64.2143 211.195C64.8758 210.674 65.7508 210.414 66.8393 210.414C67.9748 210.414 69.019 210.622 69.9721 211.039L69.5581 212.195C68.6154 211.799 67.6987 211.602 66.8081 211.602C66.105 211.602 65.5555 211.753 65.1596 212.055C64.7638 212.357 64.5659 212.776 64.5659 213.312C64.5659 213.708 64.6388 214.034 64.7846 214.289C64.9305 214.539 65.1753 214.771 65.519 214.984C65.868 215.193 66.3992 215.424 67.1128 215.68C68.3107 216.107 69.1336 216.565 69.5815 217.055C70.0346 217.544 70.2612 218.18 70.2612 218.961ZM74.0752 222H72.7783V213.438H74.0752V222ZM72.6689 211.117C72.6689 210.82 72.7418 210.604 72.8877 210.469C73.0335 210.328 73.2158 210.258 73.4346 210.258C73.6429 210.258 73.8226 210.328 73.9736 210.469C74.1247 210.609 74.2002 210.826 74.2002 211.117C74.2002 211.409 74.1247 211.628 73.9736 211.773C73.8226 211.914 73.6429 211.984 73.4346 211.984C73.2158 211.984 73.0335 211.914 72.8877 211.773C72.7418 211.628 72.6689 211.409 72.6689 211.117ZM83.0298 220.852H82.9595C82.3605 221.721 81.4647 222.156 80.272 222.156C79.1522 222.156 78.2798 221.773 77.6548 221.008C77.035 220.242 76.7251 219.154 76.7251 217.742C76.7251 216.331 77.0376 215.234 77.6626 214.453C78.2876 213.672 79.1574 213.281 80.272 213.281C81.4334 213.281 82.324 213.703 82.9438 214.547H83.0454L82.9907 213.93L82.9595 213.328V209.844H84.2563V222H83.2017L83.0298 220.852ZM80.436 221.07C81.3214 221.07 81.9621 220.831 82.3579 220.352C82.7589 219.867 82.9595 219.089 82.9595 218.016V217.742C82.9595 216.529 82.7563 215.664 82.3501 215.148C81.949 214.628 81.3058 214.367 80.4204 214.367C79.66 214.367 79.0767 214.664 78.6704 215.258C78.2694 215.846 78.0688 216.68 78.0688 217.758C78.0688 218.852 78.2694 219.677 78.6704 220.234C79.0714 220.792 79.66 221.07 80.436 221.07ZM91.0078 222.156C89.7422 222.156 88.7422 221.771 88.0078 221C87.2786 220.229 86.9141 219.159 86.9141 217.789C86.9141 216.409 87.2526 215.312 87.9297 214.5C88.612 213.688 89.526 213.281 90.6719 213.281C91.7448 213.281 92.5938 213.635 93.2188 214.344C93.8438 215.047 94.1562 215.977 94.1562 217.133V217.953H88.2578C88.2839 218.958 88.5365 219.721 89.0156 220.242C89.5 220.763 90.1797 221.023 91.0547 221.023C91.9766 221.023 92.888 220.831 93.7891 220.445V221.602C93.3307 221.799 92.8958 221.94 92.4844 222.023C92.0781 222.112 91.5859 222.156 91.0078 222.156ZM90.6562 214.367C89.9688 214.367 89.4193 214.591 89.0078 215.039C88.6016 215.487 88.362 216.107 88.2891 216.898H92.7656C92.7656 216.081 92.5833 215.456 92.2188 215.023C91.8542 214.586 91.3333 214.367 90.6562 214.367Z" fill="#717171"/>
<path d="M526.038 65L523.288 56.0391H523.217C523.316 57.862 523.366 59.0781 523.366 59.6875V65H521.202V53.5781H524.499L527.202 62.3125H527.249L530.116 53.5781H533.413V65H531.155V59.5938C531.155 59.3385 531.158 59.0443 531.163 58.7109C531.173 58.3776 531.21 57.4922 531.272 56.0547H531.202L528.257 65H526.038ZM538.383 60.6172C538.383 61.4818 538.524 62.1354 538.805 62.5781C539.091 63.0208 539.555 63.2422 540.195 63.2422C540.831 63.2422 541.287 63.0234 541.563 62.5859C541.844 62.1432 541.985 61.487 541.985 60.6172C541.985 59.7526 541.844 59.1042 541.563 58.6719C541.281 58.2396 540.82 58.0234 540.18 58.0234C539.544 58.0234 539.086 58.2396 538.805 58.6719C538.524 59.099 538.383 59.7474 538.383 60.6172ZM544.422 60.6172C544.422 62.0391 544.047 63.151 543.297 63.9531C542.547 64.7552 541.503 65.1562 540.164 65.1562C539.326 65.1562 538.586 64.974 537.945 64.6094C537.305 64.2396 536.813 63.7109 536.469 63.0234C536.125 62.3359 535.953 61.5339 535.953 60.6172C535.953 59.1901 536.326 58.0807 537.07 57.2891C537.815 56.4974 538.862 56.1016 540.211 56.1016C541.05 56.1016 541.789 56.2839 542.43 56.6484C543.07 57.013 543.563 57.5365 543.906 58.2188C544.25 58.901 544.422 59.7005 544.422 60.6172ZM550.447 63.2578C550.864 63.2578 551.364 63.1667 551.947 62.9844V64.7578C551.353 65.0234 550.624 65.1562 549.759 65.1562C548.806 65.1562 548.111 64.9167 547.674 64.4375C547.241 63.9531 547.025 63.2292 547.025 62.2656V58.0547H545.884V57.0469L547.197 56.25L547.884 54.4062H549.408V56.2656H551.853V58.0547H549.408V62.2656C549.408 62.6042 549.502 62.8542 549.689 63.0156C549.882 63.1771 550.134 63.2578 550.447 63.2578ZM553.995 54.0078C553.995 53.2318 554.428 52.8438 555.292 52.8438C556.157 52.8438 556.589 53.2318 556.589 54.0078C556.589 54.3776 556.48 54.6667 556.261 54.875C556.047 55.0781 555.724 55.1797 555.292 55.1797C554.428 55.1797 553.995 54.7891 553.995 54.0078ZM556.48 65H554.097V56.2656H556.48V65ZM561.442 65L558.114 56.2656H560.606L562.294 61.2422C562.481 61.8724 562.598 62.4688 562.645 63.0312H562.692C562.718 62.5312 562.835 61.9349 563.044 61.2422L564.723 56.2656H567.216L563.887 65H561.442ZM574.397 65L573.936 63.8125H573.873C573.472 64.3177 573.058 64.6693 572.631 64.8672C572.209 65.0599 571.657 65.1562 570.975 65.1562C570.136 65.1562 569.475 64.9167 568.99 64.4375C568.511 63.9583 568.272 63.276 568.272 62.3906C568.272 61.4635 568.595 60.7812 569.24 60.3438C569.891 59.901 570.871 59.6562 572.178 59.6094L573.694 59.5625V59.1797C573.694 58.2943 573.24 57.8516 572.334 57.8516C571.636 57.8516 570.816 58.0625 569.873 58.4844L569.084 56.875C570.089 56.349 571.204 56.0859 572.428 56.0859C573.6 56.0859 574.498 56.3411 575.123 56.8516C575.748 57.362 576.061 58.138 576.061 59.1797V65H574.397ZM573.694 60.9531L572.772 60.9844C572.079 61.0052 571.563 61.1302 571.225 61.3594C570.886 61.5885 570.717 61.9375 570.717 62.4062C570.717 63.0781 571.102 63.4141 571.873 63.4141C572.425 63.4141 572.865 63.2552 573.194 62.9375C573.527 62.6198 573.694 62.1979 573.694 61.6719V60.9531ZM582.578 63.2578C582.995 63.2578 583.495 63.1667 584.078 62.9844V64.7578C583.484 65.0234 582.755 65.1562 581.89 65.1562C580.937 65.1562 580.242 64.9167 579.804 64.4375C579.372 63.9531 579.156 63.2292 579.156 62.2656V58.0547H578.015V57.0469L579.328 56.25L580.015 54.4062H581.539V56.2656H583.984V58.0547H581.539V62.2656C581.539 62.6042 581.633 62.8542 581.82 63.0156C582.013 63.1771 582.265 63.2578 582.578 63.2578ZM586.126 54.0078C586.126 53.2318 586.558 52.8438 587.423 52.8438C588.288 52.8438 588.72 53.2318 588.72 54.0078C588.72 54.3776 588.611 54.6667 588.392 54.875C588.178 55.0781 587.855 55.1797 587.423 55.1797C586.558 55.1797 586.126 54.7891 586.126 54.0078ZM588.611 65H586.228V56.2656H588.611V65ZM593.393 60.6172C593.393 61.4818 593.534 62.1354 593.815 62.5781C594.102 63.0208 594.565 63.2422 595.206 63.2422C595.841 63.2422 596.297 63.0234 596.573 62.5859C596.854 62.1432 596.995 61.487 596.995 60.6172C596.995 59.7526 596.854 59.1042 596.573 58.6719C596.292 58.2396 595.831 58.0234 595.19 58.0234C594.555 58.0234 594.096 58.2396 593.815 58.6719C593.534 59.099 593.393 59.7474 593.393 60.6172ZM599.432 60.6172C599.432 62.0391 599.057 63.151 598.307 63.9531C597.557 64.7552 596.513 65.1562 595.175 65.1562C594.336 65.1562 593.596 64.974 592.956 64.6094C592.315 64.2396 591.823 63.7109 591.479 63.0234C591.135 62.3359 590.964 61.5339 590.964 60.6172C590.964 59.1901 591.336 58.0807 592.081 57.2891C592.826 56.4974 593.872 56.1016 595.221 56.1016C596.06 56.1016 596.8 56.2839 597.44 56.6484C598.081 57.013 598.573 57.5365 598.917 58.2188C599.26 58.901 599.432 59.7005 599.432 60.6172ZM609.84 65H607.457V59.8984C607.457 59.2682 607.345 58.7969 607.121 58.4844C606.897 58.1667 606.541 58.0078 606.051 58.0078C605.384 58.0078 604.903 58.2318 604.606 58.6797C604.309 59.1224 604.16 59.8594 604.16 60.8906V65H601.778V56.2656H603.598L603.918 57.3828H604.051C604.317 56.9609 604.681 56.6432 605.145 56.4297C605.614 56.2109 606.145 56.1016 606.739 56.1016C607.754 56.1016 608.525 56.3776 609.051 56.9297C609.577 57.4766 609.84 58.2682 609.84 59.3047V65ZM615.006 63.3203C614.735 64.3724 614.276 65.6198 613.631 67.0625H611.912C612.25 65.6771 612.513 64.3698 612.701 63.1406H614.888L615.006 63.3203ZM629.149 61.8281C629.149 62.8594 628.777 63.6719 628.032 64.2656C627.292 64.8594 626.261 65.1562 624.938 65.1562C623.719 65.1562 622.641 64.9271 621.704 64.4688V62.2188C622.475 62.5625 623.126 62.8047 623.657 62.9453C624.193 63.0859 624.683 63.1562 625.126 63.1562C625.657 63.1562 626.063 63.0547 626.344 62.8516C626.631 62.6484 626.774 62.3464 626.774 61.9453C626.774 61.7214 626.712 61.5234 626.587 61.3516C626.462 61.1745 626.277 61.0052 626.032 60.8438C625.792 60.6823 625.3 60.4245 624.555 60.0703C623.858 59.7422 623.334 59.4271 622.985 59.125C622.636 58.8229 622.358 58.4714 622.149 58.0703C621.941 57.6693 621.837 57.2005 621.837 56.6641C621.837 55.6536 622.178 54.8594 622.86 54.2812C623.548 53.7031 624.496 53.4141 625.704 53.4141C626.298 53.4141 626.863 53.4844 627.399 53.625C627.941 53.7656 628.506 53.9635 629.094 54.2188L628.313 56.1016C627.704 55.8516 627.199 55.6771 626.798 55.5781C626.402 55.4792 626.011 55.4297 625.626 55.4297C625.167 55.4297 624.816 55.5365 624.571 55.75C624.326 55.9635 624.204 56.2422 624.204 56.5859C624.204 56.7995 624.253 56.987 624.352 57.1484C624.451 57.3047 624.608 57.4583 624.821 57.6094C625.04 57.7552 625.553 58.0208 626.36 58.4062C627.428 58.9167 628.16 59.4297 628.555 59.9453C628.951 60.4557 629.149 61.0833 629.149 61.8281ZM634.955 65.1562C632.237 65.1562 630.877 63.6641 630.877 60.6797C630.877 59.1953 631.247 58.0625 631.987 57.2812C632.726 56.4948 633.786 56.1016 635.166 56.1016C636.177 56.1016 637.083 56.2995 637.885 56.6953L637.182 58.5391C636.807 58.388 636.458 58.2656 636.135 58.1719C635.812 58.0729 635.489 58.0234 635.166 58.0234C633.927 58.0234 633.307 58.9036 633.307 60.6641C633.307 62.3724 633.927 63.2266 635.166 63.2266C635.625 63.2266 636.049 63.1667 636.44 63.0469C636.83 62.9219 637.221 62.7292 637.612 62.4688V64.5078C637.226 64.7526 636.836 64.9219 636.44 65.0156C636.049 65.1094 635.554 65.1562 634.955 65.1562ZM645.566 65L645.105 63.8125H645.043C644.642 64.3177 644.228 64.6693 643.801 64.8672C643.379 65.0599 642.827 65.1562 642.144 65.1562C641.306 65.1562 640.644 64.9167 640.16 64.4375C639.681 63.9583 639.441 63.276 639.441 62.3906C639.441 61.4635 639.764 60.7812 640.41 60.3438C641.061 59.901 642.04 59.6562 643.347 59.6094L644.863 59.5625V59.1797C644.863 58.2943 644.41 57.8516 643.504 57.8516C642.806 57.8516 641.985 58.0625 641.043 58.4844L640.254 56.875C641.259 56.349 642.373 56.0859 643.597 56.0859C644.769 56.0859 645.668 56.3411 646.293 56.8516C646.918 57.362 647.23 58.138 647.23 59.1797V65H645.566ZM644.863 60.9531L643.941 60.9844C643.248 61.0052 642.733 61.1302 642.394 61.3594C642.056 61.5885 641.886 61.9375 641.886 62.4062C641.886 63.0781 642.272 63.4141 643.043 63.4141C643.595 63.4141 644.035 63.2552 644.363 62.9375C644.696 62.6198 644.863 62.1979 644.863 61.6719V60.9531ZM654.896 58.0547H652.833V65H650.45V58.0547H649.138V56.9062L650.45 56.2656V55.625C650.45 54.6302 650.695 53.9036 651.185 53.4453C651.674 52.987 652.458 52.7578 653.536 52.7578C654.359 52.7578 655.091 52.8802 655.732 53.125L655.122 54.875C654.643 54.724 654.2 54.6484 653.794 54.6484C653.456 54.6484 653.211 54.75 653.06 54.9531C652.909 55.151 652.833 55.4062 652.833 55.7188V56.2656H654.896V58.0547ZM661.091 58.0547H659.029V65H656.646V58.0547H655.333V56.9062L656.646 56.2656V55.625C656.646 54.6302 656.891 53.9036 657.38 53.4453C657.87 52.987 658.654 52.7578 659.732 52.7578C660.555 52.7578 661.286 52.8802 661.927 53.125L661.318 54.875C660.838 54.724 660.396 54.6484 659.99 54.6484C659.651 54.6484 659.406 54.75 659.255 54.9531C659.104 55.151 659.029 55.4062 659.029 55.7188V56.2656H661.091V58.0547ZM664.733 60.6172C664.733 61.4818 664.874 62.1354 665.155 62.5781C665.442 63.0208 665.905 63.2422 666.546 63.2422C667.181 63.2422 667.637 63.0234 667.913 62.5859C668.194 62.1432 668.335 61.487 668.335 60.6172C668.335 59.7526 668.194 59.1042 667.913 58.6719C667.632 58.2396 667.171 58.0234 666.53 58.0234C665.895 58.0234 665.436 58.2396 665.155 58.6719C664.874 59.099 664.733 59.7474 664.733 60.6172ZM670.772 60.6172C670.772 62.0391 670.397 63.151 669.647 63.9531C668.897 64.7552 667.853 65.1562 666.514 65.1562C665.676 65.1562 664.936 64.974 664.296 64.6094C663.655 64.2396 663.163 63.7109 662.819 63.0234C662.475 62.3359 662.303 61.5339 662.303 60.6172C662.303 59.1901 662.676 58.0807 663.421 57.2891C664.165 56.4974 665.212 56.1016 666.561 56.1016C667.4 56.1016 668.139 56.2839 668.78 56.6484C669.421 57.013 669.913 57.5365 670.257 58.2188C670.6 58.901 670.772 59.7005 670.772 60.6172ZM675.5 65H673.117V52.8438H675.5V65ZM681.15 65.1562C680.124 65.1562 679.317 64.7578 678.728 63.9609C678.145 63.1641 677.853 62.0599 677.853 60.6484C677.853 59.2161 678.15 58.1016 678.744 57.3047C679.343 56.5026 680.166 56.1016 681.213 56.1016C682.312 56.1016 683.15 56.5286 683.728 57.3828H683.806C683.687 56.7318 683.627 56.151 683.627 55.6406V52.8438H686.017V65H684.189L683.728 63.8672H683.627C683.085 64.7266 682.26 65.1562 681.15 65.1562ZM681.986 63.2578C682.595 63.2578 683.041 63.0807 683.322 62.7266C683.609 62.3724 683.765 61.7708 683.791 60.9219V60.6641C683.791 59.7266 683.645 59.0547 683.353 58.6484C683.067 58.2422 682.598 58.0391 681.947 58.0391C681.416 58.0391 681.002 58.2656 680.705 58.7188C680.413 59.1667 680.267 59.8203 680.267 60.6797C680.267 61.5391 680.416 62.1849 680.713 62.6172C681.01 63.0443 681.434 63.2578 681.986 63.2578ZM688.784 54.0078C688.784 53.2318 689.217 52.8438 690.081 52.8438C690.946 52.8438 691.378 53.2318 691.378 54.0078C691.378 54.3776 691.269 54.6667 691.05 54.875C690.837 55.0781 690.514 55.1797 690.081 55.1797C689.217 55.1797 688.784 54.7891 688.784 54.0078ZM691.269 65H688.886V56.2656H691.269V65ZM702.216 65H699.833V59.8984C699.833 59.2682 699.721 58.7969 699.497 58.4844C699.273 58.1667 698.916 58.0078 698.427 58.0078C697.76 58.0078 697.278 58.2318 696.981 58.6797C696.684 59.1224 696.536 59.8594 696.536 60.8906V65H694.153V56.2656H695.973L696.294 57.3828H696.427C696.692 56.9609 697.057 56.6432 697.52 56.4297C697.989 56.2109 698.52 56.1016 699.114 56.1016C700.13 56.1016 700.901 56.3776 701.427 56.9297C701.953 57.4766 702.216 58.2682 702.216 59.3047V65ZM712.647 56.2656V57.4766L711.28 57.8281C711.53 58.2188 711.655 58.6562 711.655 59.1406C711.655 60.0781 711.326 60.8099 710.67 61.3359C710.019 61.8568 709.113 62.1172 707.951 62.1172L707.522 62.0938L707.17 62.0547C706.925 62.2422 706.803 62.4505 706.803 62.6797C706.803 63.0234 707.241 63.1953 708.116 63.1953H709.6C710.558 63.1953 711.287 63.401 711.787 63.8125C712.293 64.224 712.545 64.8281 712.545 65.625C712.545 66.6458 712.118 67.4375 711.264 68C710.415 68.5625 709.194 68.8438 707.6 68.8438C706.381 68.8438 705.449 68.6302 704.803 68.2031C704.162 67.7812 703.842 67.1875 703.842 66.4219C703.842 65.8958 704.006 65.4557 704.334 65.1016C704.662 64.7474 705.144 64.4948 705.78 64.3438C705.535 64.2396 705.321 64.0703 705.139 63.8359C704.957 63.5964 704.866 63.3438 704.866 63.0781C704.866 62.7448 704.962 62.4688 705.155 62.25C705.347 62.026 705.626 61.8073 705.991 61.5938C705.532 61.3958 705.168 61.0781 704.897 60.6406C704.631 60.2031 704.498 59.6875 704.498 59.0938C704.498 58.1406 704.808 57.4036 705.428 56.8828C706.048 56.362 706.933 56.1016 708.084 56.1016C708.329 56.1016 708.618 56.125 708.951 56.1719C709.29 56.2135 709.506 56.2448 709.6 56.2656H712.647ZM705.905 66.2344C705.905 66.5625 706.061 66.8203 706.373 67.0078C706.691 67.1953 707.134 67.2891 707.701 67.2891C708.556 67.2891 709.225 67.1719 709.709 66.9375C710.194 66.7031 710.436 66.3828 710.436 65.9766C710.436 65.6484 710.293 65.4219 710.006 65.2969C709.72 65.1719 709.277 65.1094 708.678 65.1094H707.444C707.006 65.1094 706.639 65.2109 706.342 65.4141C706.05 65.6224 705.905 65.8958 705.905 66.2344ZM706.772 59.125C706.772 59.599 706.879 59.974 707.092 60.25C707.311 60.526 707.642 60.6641 708.084 60.6641C708.532 60.6641 708.86 60.526 709.069 60.25C709.277 59.974 709.381 59.599 709.381 59.125C709.381 58.0729 708.949 57.5469 708.084 57.5469C707.209 57.5469 706.772 58.0729 706.772 59.125ZM716.805 63.3203C716.534 64.3724 716.075 65.6198 715.43 67.0625H713.711C714.049 65.6771 714.312 64.3698 714.5 63.1406H716.687L716.805 63.3203ZM527.045 87H520.467V75.5781H527.045V77.5625H522.889V80.0703H526.756V82.0547H522.889V85H527.045V87ZM537.687 87H535.304V81.8984C535.304 81.2682 535.192 80.7969 534.968 80.4844C534.744 80.1667 534.387 80.0078 533.898 80.0078C533.231 80.0078 532.749 80.2318 532.453 80.6797C532.156 81.1224 532.007 81.8594 532.007 82.8906V87H529.624V78.2656H531.445L531.765 79.3828H531.898C532.164 78.9609 532.528 78.6432 532.992 78.4297C533.46 78.2109 533.992 78.1016 534.585 78.1016C535.601 78.1016 536.372 78.3776 536.898 78.9297C537.424 79.4766 537.687 80.2682 537.687 81.3047V87ZM548.118 78.2656V79.4766L546.751 79.8281C547.001 80.2188 547.126 80.6562 547.126 81.1406C547.126 82.0781 546.798 82.8099 546.142 83.3359C545.491 83.8568 544.584 84.1172 543.423 84.1172L542.993 84.0938L542.642 84.0547C542.397 84.2422 542.274 84.4505 542.274 84.6797C542.274 85.0234 542.712 85.1953 543.587 85.1953H545.071C546.03 85.1953 546.759 85.401 547.259 85.8125C547.764 86.224 548.017 86.8281 548.017 87.625C548.017 88.6458 547.589 89.4375 546.735 90C545.886 90.5625 544.665 90.8438 543.071 90.8438C541.852 90.8438 540.92 90.6302 540.274 90.2031C539.634 89.7812 539.313 89.1875 539.313 88.4219C539.313 87.8958 539.477 87.4557 539.806 87.1016C540.134 86.7474 540.616 86.4948 541.251 86.3438C541.006 86.2396 540.793 86.0703 540.61 85.8359C540.428 85.5964 540.337 85.3438 540.337 85.0781C540.337 84.7448 540.433 84.4688 540.626 84.25C540.819 84.026 541.097 83.8073 541.462 83.5938C541.004 83.3958 540.639 83.0781 540.368 82.6406C540.102 82.2031 539.97 81.6875 539.97 81.0938C539.97 80.1406 540.28 79.4036 540.899 78.8828C541.519 78.362 542.405 78.1016 543.556 78.1016C543.8 78.1016 544.089 78.125 544.423 78.1719C544.761 78.2135 544.977 78.2448 545.071 78.2656H548.118ZM541.376 88.2344C541.376 88.5625 541.532 88.8203 541.845 89.0078C542.162 89.1953 542.605 89.2891 543.173 89.2891C544.027 89.2891 544.696 89.1719 545.181 88.9375C545.665 88.7031 545.907 88.3828 545.907 87.9766C545.907 87.6484 545.764 87.4219 545.477 87.2969C545.191 87.1719 544.748 87.1094 544.149 87.1094H542.915C542.477 87.1094 542.11 87.2109 541.813 87.4141C541.522 87.6224 541.376 87.8958 541.376 88.2344ZM542.243 81.125C542.243 81.599 542.35 81.974 542.563 82.25C542.782 82.526 543.113 82.6641 543.556 82.6641C544.004 82.6641 544.332 82.526 544.54 82.25C544.748 81.974 544.852 81.599 544.852 81.125C544.852 80.0729 544.42 79.5469 543.556 79.5469C542.681 79.5469 542.243 80.0729 542.243 81.125ZM555.487 87L555.026 85.8125H554.963C554.562 86.3177 554.148 86.6693 553.721 86.8672C553.299 87.0599 552.747 87.1562 552.065 87.1562C551.226 87.1562 550.565 86.9167 550.081 86.4375C549.601 85.9583 549.362 85.276 549.362 84.3906C549.362 83.4635 549.685 82.7812 550.331 82.3438C550.982 81.901 551.961 81.6562 553.268 81.6094L554.784 81.5625V81.1797C554.784 80.2943 554.331 79.8516 553.424 79.8516C552.726 79.8516 551.906 80.0625 550.963 80.4844L550.174 78.875C551.179 78.349 552.294 78.0859 553.518 78.0859C554.69 78.0859 555.588 78.3411 556.213 78.8516C556.838 79.362 557.151 80.138 557.151 81.1797V87H555.487ZM554.784 82.9531L553.862 82.9844C553.169 83.0052 552.653 83.1302 552.315 83.3594C551.976 83.5885 551.807 83.9375 551.807 84.4062C551.807 85.0781 552.192 85.4141 552.963 85.4141C553.515 85.4141 553.956 85.2552 554.284 84.9375C554.617 84.6198 554.784 84.1979 554.784 83.6719V82.9531ZM567.59 78.2656V79.4766L566.223 79.8281C566.473 80.2188 566.598 80.6562 566.598 81.1406C566.598 82.0781 566.269 82.8099 565.613 83.3359C564.962 83.8568 564.056 84.1172 562.894 84.1172L562.465 84.0938L562.113 84.0547C561.868 84.2422 561.746 84.4505 561.746 84.6797C561.746 85.0234 562.184 85.1953 563.059 85.1953H564.543C565.501 85.1953 566.23 85.401 566.73 85.8125C567.236 86.224 567.488 86.8281 567.488 87.625C567.488 88.6458 567.061 89.4375 566.207 90C565.358 90.5625 564.137 90.8438 562.543 90.8438C561.324 90.8438 560.392 90.6302 559.746 90.2031C559.105 89.7812 558.785 89.1875 558.785 88.4219C558.785 87.8958 558.949 87.4557 559.277 87.1016C559.605 86.7474 560.087 86.4948 560.723 86.3438C560.478 86.2396 560.264 86.0703 560.082 85.8359C559.9 85.5964 559.809 85.3438 559.809 85.0781C559.809 84.7448 559.905 84.4688 560.098 84.25C560.29 84.026 560.569 83.8073 560.934 83.5938C560.475 83.3958 560.111 83.0781 559.84 82.6406C559.574 82.2031 559.441 81.6875 559.441 81.0938C559.441 80.1406 559.751 79.4036 560.371 78.8828C560.991 78.362 561.876 78.1016 563.027 78.1016C563.272 78.1016 563.561 78.125 563.894 78.1719C564.233 78.2135 564.449 78.2448 564.543 78.2656H567.59ZM560.848 88.2344C560.848 88.5625 561.004 88.8203 561.316 89.0078C561.634 89.1953 562.077 89.2891 562.644 89.2891C563.499 89.2891 564.168 89.1719 564.652 88.9375C565.137 88.7031 565.379 88.3828 565.379 87.9766C565.379 87.6484 565.236 87.4219 564.949 87.2969C564.663 87.1719 564.22 87.1094 563.621 87.1094H562.387C561.949 87.1094 561.582 87.2109 561.285 87.4141C560.993 87.6224 560.848 87.8958 560.848 88.2344ZM561.715 81.125C561.715 81.599 561.822 81.974 562.035 82.25C562.254 82.526 562.585 82.6641 563.027 82.6641C563.475 82.6641 563.803 82.526 564.012 82.25C564.22 81.974 564.324 81.599 564.324 81.125C564.324 80.0729 563.892 79.5469 563.027 79.5469C562.152 79.5469 561.715 80.0729 561.715 81.125ZM573.029 79.7969C572.524 79.7969 572.128 79.9583 571.841 80.2812C571.555 80.599 571.391 81.0521 571.349 81.6406H574.693C574.682 81.0521 574.529 80.599 574.232 80.2812C573.935 79.9583 573.534 79.7969 573.029 79.7969ZM573.365 87.1562C571.958 87.1562 570.859 86.7682 570.068 85.9922C569.276 85.2161 568.88 84.1172 568.88 82.6953C568.88 81.2318 569.245 80.1016 569.974 79.3047C570.708 78.5026 571.721 78.1016 573.013 78.1016C574.248 78.1016 575.208 78.4531 575.896 79.1562C576.583 79.8594 576.927 80.8307 576.927 82.0703V83.2266H571.294C571.32 83.9036 571.521 84.4323 571.896 84.8125C572.271 85.1927 572.797 85.3828 573.474 85.3828C574 85.3828 574.498 85.3281 574.966 85.2188C575.435 85.1094 575.925 84.9349 576.435 84.6953V86.5391C576.018 86.7474 575.573 86.901 575.099 87C574.625 87.1042 574.047 87.1562 573.365 87.1562ZM587.061 87H584.679V81.8984C584.679 81.2682 584.572 80.7969 584.358 80.4844C584.15 80.1667 583.819 80.0078 583.366 80.0078C582.757 80.0078 582.314 80.2318 582.038 80.6797C581.762 81.1276 581.624 81.8646 581.624 82.8906V87H579.241V78.2656H581.061L581.382 79.3828H581.515C581.749 78.9818 582.088 78.6693 582.53 78.4453C582.973 78.2161 583.481 78.1016 584.054 78.1016C585.361 78.1016 586.246 78.5286 586.71 79.3828H586.921C587.155 78.9766 587.499 78.6615 587.952 78.4375C588.41 78.2135 588.926 78.1016 589.499 78.1016C590.489 78.1016 591.236 78.3568 591.741 78.8672C592.252 79.3724 592.507 80.1849 592.507 81.3047V87H590.116V81.8984C590.116 81.2682 590.009 80.7969 589.796 80.4844C589.588 80.1667 589.257 80.0078 588.804 80.0078C588.22 80.0078 587.783 80.2161 587.491 80.6328C587.205 81.0495 587.061 81.7109 587.061 82.6172V87ZM598.954 79.7969C598.448 79.7969 598.053 79.9583 597.766 80.2812C597.48 80.599 597.316 81.0521 597.274 81.6406H600.618C600.607 81.0521 600.454 80.599 600.157 80.2812C599.86 79.9583 599.459 79.7969 598.954 79.7969ZM599.29 87.1562C597.883 87.1562 596.784 86.7682 595.993 85.9922C595.201 85.2161 594.805 84.1172 594.805 82.6953C594.805 81.2318 595.17 80.1016 595.899 79.3047C596.633 78.5026 597.646 78.1016 598.938 78.1016C600.172 78.1016 601.133 78.4531 601.821 79.1562C602.508 79.8594 602.852 80.8307 602.852 82.0703V83.2266H597.219C597.245 83.9036 597.446 84.4323 597.821 84.8125C598.196 85.1927 598.722 85.3828 599.399 85.3828C599.925 85.3828 600.422 85.3281 600.891 85.2188C601.36 85.1094 601.849 84.9349 602.36 84.6953V86.5391C601.943 86.7474 601.498 86.901 601.024 87C600.55 87.1042 599.972 87.1562 599.29 87.1562ZM613.228 87H610.846V81.8984C610.846 81.2682 610.734 80.7969 610.51 80.4844C610.286 80.1667 609.929 80.0078 609.439 80.0078C608.773 80.0078 608.291 80.2318 607.994 80.6797C607.697 81.1224 607.549 81.8594 607.549 82.8906V87H605.166V78.2656H606.986L607.307 79.3828H607.439C607.705 78.9609 608.07 78.6432 608.533 78.4297C609.002 78.2109 609.533 78.1016 610.127 78.1016C611.143 78.1016 611.913 78.3776 612.439 78.9297C612.965 79.4766 613.228 80.2682 613.228 81.3047V87ZM619.738 85.2578C620.154 85.2578 620.654 85.1667 621.238 84.9844V86.7578C620.644 87.0234 619.915 87.1562 619.05 87.1562C618.097 87.1562 617.402 86.9167 616.964 86.4375C616.532 85.9531 616.316 85.2292 616.316 84.2656V80.0547H615.175V79.0469L616.488 78.25L617.175 76.4062H618.699V78.2656H621.144V80.0547H618.699V84.2656C618.699 84.6042 618.792 84.8542 618.98 85.0156C619.173 85.1771 619.425 85.2578 619.738 85.2578ZM625.724 85.3203C625.453 86.3724 624.994 87.6198 624.349 89.0625H622.63C622.968 87.6771 623.231 86.3698 623.419 85.1406H625.606L625.724 85.3203ZM635.508 87H633.125V75.5781H639.672V77.5625H635.508V80.5078H639.383V82.4844H635.508V87ZM644.478 87H642.095V74.8438H644.478V87ZM650.98 79.7969C650.474 79.7969 650.078 79.9583 649.792 80.2812C649.506 80.599 649.341 81.0521 649.3 81.6406H652.644C652.633 81.0521 652.48 80.599 652.183 80.2812C651.886 79.9583 651.485 79.7969 650.98 79.7969ZM651.315 87.1562C649.909 87.1562 648.81 86.7682 648.019 85.9922C647.227 85.2161 646.831 84.1172 646.831 82.6953C646.831 81.2318 647.196 80.1016 647.925 79.3047C648.659 78.5026 649.672 78.1016 650.964 78.1016C652.198 78.1016 653.159 78.4531 653.847 79.1562C654.534 79.8594 654.878 80.8307 654.878 82.0703V83.2266H649.245C649.271 83.9036 649.472 84.4323 649.847 84.8125C650.222 85.1927 650.748 85.3828 651.425 85.3828C651.951 85.3828 652.448 85.3281 652.917 85.2188C653.386 85.1094 653.875 84.9349 654.386 84.6953V86.5391C653.969 86.7474 653.524 86.901 653.05 87C652.576 87.1042 651.998 87.1562 651.315 87.1562ZM658.981 82.5391L656.168 78.2656H658.872L660.567 81.0469L662.278 78.2656H664.981L662.137 82.5391L665.114 87H662.403L660.567 84.0078L658.723 87H656.02L658.981 82.5391ZM666.717 76.0078C666.717 75.2318 667.149 74.8438 668.014 74.8438C668.878 74.8438 669.311 75.2318 669.311 76.0078C669.311 76.3776 669.201 76.6667 668.982 76.875C668.769 77.0781 668.446 77.1797 668.014 77.1797C667.149 77.1797 666.717 76.7891 666.717 76.0078ZM669.201 87H666.818V78.2656H669.201V87ZM676.945 78.1016C677.976 78.1016 678.783 78.5052 679.367 79.3125C679.95 80.1146 680.242 81.2161 680.242 82.6172C680.242 84.0599 679.94 85.1771 679.335 85.9688C678.737 86.7604 677.919 87.1562 676.882 87.1562C675.856 87.1562 675.052 86.7839 674.468 86.0391H674.304L673.906 87H672.085V74.8438H674.468V77.6719C674.468 78.0312 674.437 78.6068 674.375 79.3984H674.468C675.026 78.5339 675.851 78.1016 676.945 78.1016ZM676.179 80.0078C675.591 80.0078 675.161 80.1901 674.89 80.5547C674.619 80.9141 674.479 81.5104 674.468 82.3438V82.6016C674.468 83.5391 674.606 84.2109 674.882 84.6172C675.164 85.0234 675.606 85.2266 676.21 85.2266C676.7 85.2266 677.088 85.0026 677.375 84.5547C677.666 84.1016 677.812 83.4453 677.812 82.5859C677.812 81.7266 677.666 81.0833 677.375 80.6562C677.083 80.224 676.684 80.0078 676.179 80.0078ZM682.485 76.0078C682.485 75.2318 682.918 74.8438 683.782 74.8438C684.647 74.8438 685.079 75.2318 685.079 76.0078C685.079 76.3776 684.97 76.6667 684.751 76.875C684.537 77.0781 684.215 77.1797 683.782 77.1797C682.918 77.1797 682.485 76.7891 682.485 76.0078ZM684.97 87H682.587V78.2656H684.97V87ZM690.237 87H687.854V74.8438H690.237V87ZM693.02 76.0078C693.02 75.2318 693.452 74.8438 694.316 74.8438C695.181 74.8438 695.613 75.2318 695.613 76.0078C695.613 76.3776 695.504 76.6667 695.285 76.875C695.072 77.0781 694.749 77.1797 694.316 77.1797C693.452 77.1797 693.02 76.7891 693.02 76.0078ZM695.504 87H693.121V78.2656H695.504V87ZM702.068 85.2578C702.485 85.2578 702.985 85.1667 703.568 84.9844V86.7578C702.974 87.0234 702.245 87.1562 701.38 87.1562C700.427 87.1562 699.732 86.9167 699.294 86.4375C698.862 85.9531 698.646 85.2292 698.646 84.2656V80.0547H697.505V79.0469L698.818 78.25L699.505 76.4062H701.029V78.2656H703.474V80.0547H701.029V84.2656C701.029 84.6042 701.123 84.8542 701.31 85.0156C701.503 85.1771 701.755 85.2578 702.068 85.2578ZM704.468 78.2656H707.077L708.726 83.1797C708.866 83.6068 708.963 84.112 709.015 84.6953H709.062C709.119 84.1589 709.231 83.6536 709.398 83.1797L711.015 78.2656H713.569L709.874 88.1172C709.536 89.0286 709.051 89.7109 708.421 90.1641C707.796 90.6172 707.064 90.8438 706.226 90.8438C705.814 90.8438 705.411 90.7995 705.015 90.7109V88.8203C705.301 88.888 705.614 88.9219 705.952 88.9219C706.374 88.9219 706.741 88.7917 707.054 88.5312C707.371 88.276 707.619 87.888 707.796 87.3672L707.937 86.9375L704.468 78.2656ZM717.54 85.3203C717.269 86.3724 716.81 87.6198 716.165 89.0625H714.446C714.784 87.6771 715.047 86.3698 715.235 85.1406H717.422L717.54 85.3203ZM578.367 97.5781V104.969C578.367 105.812 578.177 106.552 577.797 107.188C577.422 107.823 576.877 108.31 576.164 108.648C575.45 108.987 574.606 109.156 573.633 109.156C572.164 109.156 571.023 108.781 570.211 108.031C569.398 107.276 568.992 106.245 568.992 104.938V97.5781H571.406V104.57C571.406 105.451 571.583 106.096 571.937 106.508C572.291 106.919 572.877 107.125 573.695 107.125C574.487 107.125 575.06 106.919 575.414 106.508C575.773 106.091 575.953 105.44 575.953 104.555V97.5781H578.367ZM587.447 106.406C587.447 107.302 587.134 107.984 586.509 108.453C585.889 108.922 584.96 109.156 583.72 109.156C583.085 109.156 582.543 109.112 582.095 109.023C581.647 108.94 581.228 108.815 580.837 108.648V106.68C581.28 106.888 581.777 107.062 582.329 107.203C582.887 107.344 583.376 107.414 583.798 107.414C584.663 107.414 585.095 107.164 585.095 106.664C585.095 106.477 585.038 106.326 584.923 106.211C584.808 106.091 584.611 105.958 584.329 105.812C584.048 105.661 583.673 105.487 583.204 105.289C582.532 105.008 582.038 104.747 581.72 104.508C581.407 104.268 581.178 103.995 581.032 103.688C580.892 103.375 580.822 102.992 580.822 102.539C580.822 101.763 581.121 101.164 581.72 100.742C582.324 100.315 583.178 100.102 584.282 100.102C585.335 100.102 586.358 100.331 587.353 100.789L586.634 102.508C586.197 102.32 585.788 102.167 585.407 102.047C585.027 101.927 584.639 101.867 584.243 101.867C583.54 101.867 583.189 102.057 583.189 102.438C583.189 102.651 583.301 102.836 583.525 102.992C583.754 103.148 584.251 103.38 585.017 103.688C585.699 103.964 586.199 104.221 586.517 104.461C586.835 104.701 587.069 104.977 587.22 105.289C587.371 105.602 587.447 105.974 587.447 106.406ZM593.3 101.797C592.794 101.797 592.399 101.958 592.112 102.281C591.826 102.599 591.662 103.052 591.62 103.641H594.964C594.953 103.052 594.8 102.599 594.503 102.281C594.206 101.958 593.805 101.797 593.3 101.797ZM593.635 109.156C592.229 109.156 591.13 108.768 590.339 107.992C589.547 107.216 589.151 106.117 589.151 104.695C589.151 103.232 589.516 102.102 590.245 101.305C590.979 100.503 591.992 100.102 593.284 100.102C594.518 100.102 595.479 100.453 596.167 101.156C596.854 101.859 597.198 102.831 597.198 104.07V105.227H591.565C591.591 105.904 591.792 106.432 592.167 106.812C592.542 107.193 593.068 107.383 593.745 107.383C594.271 107.383 594.768 107.328 595.237 107.219C595.706 107.109 596.195 106.935 596.706 106.695V108.539C596.289 108.747 595.844 108.901 595.37 109C594.896 109.104 594.318 109.156 593.635 109.156ZM604.387 100.102C604.71 100.102 604.978 100.125 605.192 100.172L605.012 102.406C604.819 102.354 604.585 102.328 604.309 102.328C603.548 102.328 602.955 102.523 602.528 102.914C602.106 103.305 601.895 103.852 601.895 104.555V109H599.512V100.266H601.317L601.668 101.734H601.785C602.056 101.245 602.421 100.852 602.879 100.555C603.343 100.253 603.845 100.102 604.387 100.102ZM615.234 109.156C612.515 109.156 611.156 107.664 611.156 104.68C611.156 103.195 611.525 102.062 612.265 101.281C613.004 100.495 614.064 100.102 615.445 100.102C616.455 100.102 617.361 100.299 618.163 100.695L617.46 102.539C617.085 102.388 616.736 102.266 616.413 102.172C616.09 102.073 615.767 102.023 615.445 102.023C614.205 102.023 613.585 102.904 613.585 104.664C613.585 106.372 614.205 107.227 615.445 107.227C615.903 107.227 616.327 107.167 616.718 107.047C617.109 106.922 617.499 106.729 617.89 106.469V108.508C617.504 108.753 617.114 108.922 616.718 109.016C616.327 109.109 615.833 109.156 615.234 109.156ZM622.196 104.617C622.196 105.482 622.337 106.135 622.618 106.578C622.904 107.021 623.368 107.242 624.009 107.242C624.644 107.242 625.1 107.023 625.376 106.586C625.657 106.143 625.798 105.487 625.798 104.617C625.798 103.753 625.657 103.104 625.376 102.672C625.094 102.24 624.634 102.023 623.993 102.023C623.358 102.023 622.899 102.24 622.618 102.672C622.337 103.099 622.196 103.747 622.196 104.617ZM628.235 104.617C628.235 106.039 627.86 107.151 627.11 107.953C626.36 108.755 625.316 109.156 623.977 109.156C623.139 109.156 622.399 108.974 621.759 108.609C621.118 108.24 620.626 107.711 620.282 107.023C619.938 106.336 619.766 105.534 619.766 104.617C619.766 103.19 620.139 102.081 620.884 101.289C621.628 100.497 622.675 100.102 624.024 100.102C624.863 100.102 625.602 100.284 626.243 100.648C626.884 101.013 627.376 101.536 627.719 102.219C628.063 102.901 628.235 103.701 628.235 104.617ZM638.643 109H636.26V103.898C636.26 103.268 636.148 102.797 635.924 102.484C635.7 102.167 635.343 102.008 634.854 102.008C634.187 102.008 633.705 102.232 633.408 102.68C633.112 103.122 632.963 103.859 632.963 104.891V109H630.58V100.266H632.401L632.721 101.383H632.854C633.119 100.961 633.484 100.643 633.948 100.43C634.416 100.211 634.948 100.102 635.541 100.102C636.557 100.102 637.328 100.378 637.854 100.93C638.38 101.477 638.643 102.268 638.643 103.305V109ZM645.152 107.258C645.569 107.258 646.069 107.167 646.652 106.984V108.758C646.058 109.023 645.329 109.156 644.465 109.156C643.511 109.156 642.816 108.917 642.379 108.438C641.946 107.953 641.73 107.229 641.73 106.266V102.055H640.59V101.047L641.902 100.25L642.59 98.4062H644.113V100.266H646.558V102.055H644.113V106.266C644.113 106.604 644.207 106.854 644.394 107.016C644.587 107.177 644.84 107.258 645.152 107.258ZM653.677 100.102C654 100.102 654.268 100.125 654.482 100.172L654.302 102.406C654.109 102.354 653.875 102.328 653.599 102.328C652.838 102.328 652.245 102.523 651.818 102.914C651.396 103.305 651.185 103.852 651.185 104.555V109H648.802V100.266H650.607L650.958 101.734H651.075C651.346 101.245 651.711 100.852 652.169 100.555C652.633 100.253 653.135 100.102 653.677 100.102ZM658.343 104.617C658.343 105.482 658.483 106.135 658.764 106.578C659.051 107.021 659.514 107.242 660.155 107.242C660.79 107.242 661.246 107.023 661.522 106.586C661.803 106.143 661.944 105.487 661.944 104.617C661.944 103.753 661.803 103.104 661.522 102.672C661.241 102.24 660.78 102.023 660.139 102.023C659.504 102.023 659.046 102.24 658.764 102.672C658.483 103.099 658.343 103.747 658.343 104.617ZM664.382 104.617C664.382 106.039 664.007 107.151 663.257 107.953C662.507 108.755 661.462 109.156 660.124 109.156C659.285 109.156 658.546 108.974 657.905 108.609C657.264 108.24 656.772 107.711 656.428 107.023C656.085 106.336 655.913 105.534 655.913 104.617C655.913 103.19 656.285 102.081 657.03 101.289C657.775 100.497 658.822 100.102 660.171 100.102C661.009 100.102 661.749 100.284 662.389 100.648C663.03 101.013 663.522 101.536 663.866 102.219C664.21 102.901 664.382 103.701 664.382 104.617ZM669.11 109H666.727V96.8438H669.11V109Z" fill="#404040"/>
<path d="M555.49 221H548.09V208.15H555.49V210.383H550.815V213.204H555.165V215.437H550.815V218.75H555.49V221ZM563.824 213.187H561.504V221H558.823V213.187H557.347V211.895L558.823 211.174V210.453C558.823 209.334 559.098 208.517 559.649 208.001C560.2 207.485 561.082 207.228 562.295 207.228C563.221 207.228 564.044 207.365 564.764 207.641L564.079 209.609C563.54 209.439 563.042 209.354 562.585 209.354C562.204 209.354 561.929 209.469 561.759 209.697C561.589 209.92 561.504 210.207 561.504 210.559V211.174H563.824V213.187ZM570.794 213.187H568.473V221H565.793V213.187H564.316V211.895L565.793 211.174V210.453C565.793 209.334 566.068 208.517 566.619 208.001C567.17 207.485 568.052 207.228 569.264 207.228C570.19 207.228 571.014 207.365 571.734 207.641L571.049 209.609C570.51 209.439 570.012 209.354 569.555 209.354C569.174 209.354 568.898 209.469 568.728 209.697C568.558 209.92 568.473 210.207 568.473 210.559V211.174H570.794V213.187ZM572.191 208.634C572.191 207.761 572.678 207.324 573.65 207.324C574.623 207.324 575.109 207.761 575.109 208.634C575.109 209.05 574.986 209.375 574.74 209.609C574.5 209.838 574.137 209.952 573.65 209.952C572.678 209.952 572.191 209.513 572.191 208.634ZM574.986 221H572.306V211.174H574.986V221ZM582.212 221.176C579.154 221.176 577.625 219.497 577.625 216.14C577.625 214.47 578.041 213.195 578.873 212.316C579.705 211.432 580.897 210.989 582.45 210.989C583.586 210.989 584.606 211.212 585.508 211.657L584.717 213.731C584.295 213.562 583.903 213.424 583.54 213.318C583.176 213.207 582.813 213.151 582.45 213.151C581.055 213.151 580.358 214.142 580.358 216.122C580.358 218.044 581.055 219.005 582.45 219.005C582.965 219.005 583.443 218.938 583.882 218.803C584.322 218.662 584.761 218.445 585.201 218.152V220.446C584.767 220.722 584.328 220.912 583.882 221.018C583.443 221.123 582.886 221.176 582.212 221.176ZM587.795 208.634C587.795 207.761 588.281 207.324 589.254 207.324C590.227 207.324 590.713 207.761 590.713 208.634C590.713 209.05 590.59 209.375 590.344 209.609C590.104 209.838 589.74 209.952 589.254 209.952C588.281 209.952 587.795 209.513 587.795 208.634ZM590.59 221H587.909V211.174H590.59V221ZM597.904 212.896C597.336 212.896 596.891 213.078 596.568 213.441C596.246 213.799 596.061 214.309 596.015 214.971H599.776C599.765 214.309 599.592 213.799 599.258 213.441C598.924 213.078 598.473 212.896 597.904 212.896ZM598.282 221.176C596.7 221.176 595.464 220.739 594.573 219.866C593.683 218.993 593.237 217.757 593.237 216.157C593.237 214.511 593.647 213.239 594.468 212.343C595.294 211.44 596.434 210.989 597.887 210.989C599.275 210.989 600.356 211.385 601.13 212.176C601.903 212.967 602.29 214.06 602.29 215.454V216.755H595.953C595.982 217.517 596.208 218.111 596.63 218.539C597.052 218.967 597.643 219.181 598.405 219.181C598.997 219.181 599.557 219.119 600.084 218.996C600.611 218.873 601.162 218.677 601.736 218.407V220.481C601.267 220.716 600.767 220.889 600.233 221C599.7 221.117 599.05 221.176 598.282 221.176ZM613.963 221H611.283V215.261C611.283 214.552 611.157 214.021 610.905 213.67C610.653 213.312 610.252 213.134 609.701 213.134C608.951 213.134 608.409 213.386 608.075 213.89C607.741 214.388 607.574 215.217 607.574 216.377V221H604.893V211.174H606.941L607.301 212.431H607.451C607.75 211.956 608.16 211.599 608.681 211.358C609.209 211.112 609.806 210.989 610.474 210.989C611.617 210.989 612.484 211.3 613.076 211.921C613.668 212.536 613.963 213.427 613.963 214.593V221ZM621.137 221.176C618.078 221.176 616.549 219.497 616.549 216.14C616.549 214.47 616.965 213.195 617.797 212.316C618.629 211.432 619.822 210.989 621.374 210.989C622.511 210.989 623.531 211.212 624.433 211.657L623.642 213.731C623.22 213.562 622.827 213.424 622.464 213.318C622.101 213.207 621.738 213.151 621.374 213.151C619.98 213.151 619.283 214.142 619.283 216.122C619.283 218.044 619.98 219.005 621.374 219.005C621.89 219.005 622.367 218.938 622.807 218.803C623.246 218.662 623.686 218.445 624.125 218.152V220.446C623.692 220.722 623.252 220.912 622.807 221.018C622.367 221.123 621.811 221.176 621.137 221.176ZM625.428 211.174H628.363L630.218 216.702C630.376 217.183 630.484 217.751 630.543 218.407H630.596C630.66 217.804 630.786 217.235 630.974 216.702L632.793 211.174H635.667L631.51 222.257C631.129 223.282 630.584 224.05 629.875 224.56C629.172 225.069 628.349 225.324 627.405 225.324C626.942 225.324 626.488 225.274 626.043 225.175V223.048C626.365 223.124 626.717 223.162 627.098 223.162C627.572 223.162 627.985 223.016 628.337 222.723C628.694 222.436 628.973 221.999 629.172 221.413L629.33 220.93L625.428 211.174ZM644.741 216.069C644.741 217.042 644.899 217.777 645.215 218.275C645.537 218.773 646.059 219.022 646.78 219.022C647.495 219.022 648.007 218.776 648.318 218.284C648.634 217.786 648.792 217.048 648.792 216.069C648.792 215.097 648.634 214.367 648.318 213.881C648.001 213.395 647.483 213.151 646.762 213.151C646.047 213.151 645.532 213.395 645.215 213.881C644.899 214.361 644.741 215.091 644.741 216.069ZM651.535 216.069C651.535 217.669 651.113 218.92 650.269 219.822C649.425 220.725 648.25 221.176 646.745 221.176C645.801 221.176 644.969 220.971 644.248 220.561C643.528 220.145 642.974 219.55 642.587 218.776C642.201 218.003 642.007 217.101 642.007 216.069C642.007 214.464 642.426 213.216 643.264 212.325C644.102 211.435 645.28 210.989 646.797 210.989C647.741 210.989 648.573 211.194 649.293 211.604C650.014 212.015 650.568 212.604 650.954 213.371C651.341 214.139 651.535 215.038 651.535 216.069ZM659.605 213.187H657.284V221H654.604V213.187H653.127V211.895L654.604 211.174V210.453C654.604 209.334 654.879 208.517 655.43 208.001C655.981 207.485 656.862 207.228 658.075 207.228C659.001 207.228 659.824 207.365 660.545 207.641L659.859 209.609C659.32 209.439 658.822 209.354 658.365 209.354C657.984 209.354 657.709 209.469 657.539 209.697C657.369 209.92 657.284 210.207 657.284 210.559V211.174H659.605V213.187ZM673.635 221L673.275 219.743H673.134C672.847 220.2 672.44 220.555 671.913 220.807C671.385 221.053 670.785 221.176 670.111 221.176C668.957 221.176 668.086 220.868 667.5 220.253C666.915 219.632 666.622 218.741 666.622 217.581V211.174H669.302V216.913C669.302 217.622 669.428 218.155 669.68 218.513C669.932 218.864 670.333 219.04 670.884 219.04C671.634 219.04 672.176 218.791 672.51 218.293C672.844 217.789 673.011 216.957 673.011 215.797V211.174H675.692V221H673.635ZM685.783 218.082C685.783 219.09 685.432 219.857 684.729 220.385C684.031 220.912 682.986 221.176 681.591 221.176C680.876 221.176 680.267 221.126 679.763 221.026C679.259 220.933 678.787 220.792 678.348 220.604V218.39C678.846 218.624 679.405 218.82 680.027 218.979C680.653 219.137 681.204 219.216 681.679 219.216C682.652 219.216 683.138 218.935 683.138 218.372C683.138 218.161 683.073 217.991 682.945 217.862C682.816 217.728 682.593 217.578 682.277 217.414C681.96 217.244 681.538 217.048 681.011 216.825C680.255 216.509 679.698 216.216 679.341 215.946C678.989 215.677 678.732 215.369 678.568 215.023C678.409 214.672 678.33 214.241 678.33 213.731C678.33 212.858 678.667 212.185 679.341 211.71C680.021 211.229 680.982 210.989 682.224 210.989C683.407 210.989 684.559 211.247 685.678 211.763L684.869 213.696C684.377 213.485 683.917 213.312 683.489 213.178C683.062 213.043 682.625 212.976 682.18 212.976C681.389 212.976 680.993 213.189 680.993 213.617C680.993 213.857 681.119 214.065 681.371 214.241C681.629 214.417 682.189 214.678 683.05 215.023C683.818 215.334 684.38 215.624 684.737 215.894C685.095 216.163 685.359 216.474 685.528 216.825C685.698 217.177 685.783 217.596 685.783 218.082ZM692.368 212.896C691.8 212.896 691.354 213.078 691.032 213.441C690.71 213.799 690.525 214.309 690.478 214.971H694.24C694.228 214.309 694.056 213.799 693.722 213.441C693.388 213.078 692.936 212.896 692.368 212.896ZM692.746 221.176C691.164 221.176 689.928 220.739 689.037 219.866C688.146 218.993 687.701 217.757 687.701 216.157C687.701 214.511 688.111 213.239 688.932 212.343C689.758 211.44 690.897 210.989 692.35 210.989C693.739 210.989 694.82 211.385 695.594 212.176C696.367 212.967 696.754 214.06 696.754 215.454V216.755H690.417C690.446 217.517 690.672 218.111 691.094 218.539C691.515 218.967 692.107 219.181 692.869 219.181C693.461 219.181 694.02 219.119 694.548 218.996C695.075 218.873 695.626 218.677 696.2 218.407V220.481C695.731 220.716 695.23 220.889 694.697 221C694.164 221.117 693.514 221.176 692.746 221.176Z" fill="#404040"/>
<path d="M246.891 11.2734C246.891 12.737 246.597 13.9531 246.008 14.9219C245.419 15.8906 244.589 16.5469 243.516 16.8906L246.235 19.7188H244.305L242.078 17.1406L241.649 17.1562C239.966 17.1562 238.667 16.6432 237.75 15.6172C236.839 14.5859 236.383 13.1328 236.383 11.2578C236.383 9.39844 236.841 7.95833 237.758 6.9375C238.675 5.91146 239.977 5.39844 241.664 5.39844C243.305 5.39844 244.586 5.91927 245.508 6.96094C246.43 8.0026 246.891 9.4401 246.891 11.2734ZM237.789 11.2734C237.789 12.8203 238.117 13.9948 238.774 14.7969C239.435 15.5938 240.393 15.9922 241.649 15.9922C242.914 15.9922 243.87 15.5938 244.516 14.7969C245.162 14 245.485 12.8255 245.485 11.2734C245.485 9.73698 245.162 8.57292 244.516 7.78125C243.875 6.98438 242.925 6.58594 241.664 6.58594C240.399 6.58594 239.435 6.98698 238.774 7.78906C238.117 8.58594 237.789 9.7474 237.789 11.2734ZM250.845 8.4375V13.9922C250.845 14.6901 251.004 15.2109 251.322 15.5547C251.64 15.8984 252.137 16.0703 252.814 16.0703C253.71 16.0703 254.364 15.8255 254.775 15.3359C255.192 14.8464 255.4 14.0469 255.4 12.9375V8.4375H256.697V17H255.627L255.439 15.8516H255.369C255.103 16.2734 254.733 16.5964 254.259 16.8203C253.791 17.0443 253.254 17.1562 252.65 17.1562C251.608 17.1562 250.827 16.9089 250.306 16.4141C249.791 15.9193 249.533 15.1276 249.533 14.0391V8.4375H250.845ZM265.097 17L264.839 15.7812H264.777C264.349 16.3177 263.922 16.6823 263.495 16.875C263.073 17.0625 262.545 17.1562 261.909 17.1562C261.06 17.1562 260.394 16.9375 259.909 16.5C259.43 16.0625 259.191 15.4401 259.191 14.6328C259.191 12.9036 260.573 11.9974 263.339 11.9141L264.792 11.8672V11.3359C264.792 10.6641 264.646 10.1693 264.355 9.85156C264.068 9.52865 263.607 9.36719 262.972 9.36719C262.258 9.36719 261.451 9.58594 260.55 10.0234L260.152 9.03125C260.573 8.80208 261.034 8.6224 261.534 8.49219C262.04 8.36198 262.545 8.29688 263.05 8.29688C264.071 8.29688 264.826 8.52344 265.316 8.97656C265.81 9.42969 266.058 10.1562 266.058 11.1562V17H265.097ZM262.167 16.0859C262.974 16.0859 263.607 15.8646 264.066 15.4219C264.529 14.9792 264.761 14.3594 264.761 13.5625V12.7891L263.464 12.8438C262.433 12.8802 261.688 13.0417 261.23 13.3281C260.777 13.6094 260.55 14.0495 260.55 14.6484C260.55 15.1172 260.691 15.474 260.972 15.7188C261.258 15.9635 261.657 16.0859 262.167 16.0859ZM274.973 17V11.4609C274.973 10.763 274.814 10.2422 274.497 9.89844C274.179 9.55469 273.682 9.38281 273.005 9.38281C272.109 9.38281 271.453 9.625 271.036 10.1094C270.619 10.5938 270.411 11.3932 270.411 12.5078V17H269.114V8.4375H270.169L270.38 9.60938H270.442C270.708 9.1875 271.08 8.86198 271.559 8.63281C272.038 8.39844 272.572 8.28125 273.161 8.28125C274.192 8.28125 274.968 8.53125 275.489 9.03125C276.01 9.52604 276.27 10.3203 276.27 11.4141V17H274.973ZM282.084 16.0859C282.313 16.0859 282.535 16.0703 282.748 16.0391C282.962 16.0026 283.131 15.9661 283.256 15.9297V16.9219C283.115 16.9896 282.907 17.0443 282.631 17.0859C282.36 17.1328 282.115 17.1562 281.897 17.1562C280.24 17.1562 279.412 16.2839 279.412 14.5391V9.44531H278.186V8.82031L279.412 8.28125L279.959 6.45312H280.709V8.4375H283.194V9.44531H280.709V14.4844C280.709 15 280.832 15.3958 281.076 15.6719C281.321 15.9479 281.657 16.0859 282.084 16.0859ZM286.648 17H285.351V8.4375H286.648V17ZM285.242 6.11719C285.242 5.82031 285.315 5.60417 285.461 5.46875C285.606 5.32812 285.789 5.25781 286.008 5.25781C286.216 5.25781 286.396 5.32812 286.547 5.46875C286.698 5.60938 286.773 5.82552 286.773 6.11719C286.773 6.40885 286.698 6.6276 286.547 6.77344C286.396 6.91406 286.216 6.98438 286.008 6.98438C285.789 6.98438 285.606 6.91406 285.461 6.77344C285.315 6.6276 285.242 6.40885 285.242 6.11719ZM292.54 16.0859C292.769 16.0859 292.991 16.0703 293.204 16.0391C293.418 16.0026 293.587 15.9661 293.712 15.9297V16.9219C293.572 16.9896 293.363 17.0443 293.087 17.0859C292.816 17.1328 292.572 17.1562 292.353 17.1562C290.697 17.1562 289.868 16.2839 289.868 14.5391V9.44531H288.642V8.82031L289.868 8.28125L290.415 6.45312H291.165V8.4375H293.65V9.44531H291.165V14.4844C291.165 15 291.288 15.3958 291.532 15.6719C291.777 15.9479 292.113 16.0859 292.54 16.0859ZM297.104 17H295.807V8.4375H297.104V17ZM295.698 6.11719C295.698 5.82031 295.771 5.60417 295.917 5.46875C296.063 5.32812 296.245 5.25781 296.464 5.25781C296.672 5.25781 296.852 5.32812 297.003 5.46875C297.154 5.60938 297.229 5.82552 297.229 6.11719C297.229 6.40885 297.154 6.6276 297.003 6.77344C296.852 6.91406 296.672 6.98438 296.464 6.98438C296.245 6.98438 296.063 6.91406 295.917 6.77344C295.771 6.6276 295.698 6.40885 295.698 6.11719ZM302.106 17L298.856 8.4375H300.246L302.09 13.5156C302.507 14.7031 302.752 15.474 302.824 15.8281H302.887C302.944 15.5521 303.124 14.9818 303.426 14.1172C303.733 13.2474 304.418 11.3542 305.481 8.4375H306.871L303.621 17H302.106ZM312.24 17.1562C310.974 17.1562 309.974 16.7708 309.24 16C308.511 15.2292 308.146 14.1589 308.146 12.7891C308.146 11.4089 308.485 10.3125 309.162 9.5C309.844 8.6875 310.758 8.28125 311.904 8.28125C312.977 8.28125 313.826 8.63542 314.451 9.34375C315.076 10.0469 315.388 10.9766 315.388 12.1328V12.9531H309.49C309.516 13.9583 309.769 14.7214 310.248 15.2422C310.732 15.763 311.412 16.0234 312.287 16.0234C313.209 16.0234 314.12 15.8307 315.021 15.4453V16.6016C314.563 16.7995 314.128 16.9401 313.717 17.0234C313.31 17.112 312.818 17.1562 312.24 17.1562ZM311.888 9.36719C311.201 9.36719 310.651 9.59115 310.24 10.0391C309.834 10.487 309.594 11.1068 309.521 11.8984H313.998C313.998 11.0807 313.816 10.4557 313.451 10.0234C313.086 9.58594 312.566 9.36719 311.888 9.36719ZM327.766 17L323.891 6.875H323.829C323.902 7.67708 323.938 8.63021 323.938 9.73438V17H322.712V5.57812H324.712L328.329 15H328.391L332.04 5.57812H334.024V17H332.696V9.64062C332.696 8.79688 332.733 7.88021 332.805 6.89062H332.743L328.837 17H327.766ZM340.963 17.1562C339.698 17.1562 338.698 16.7708 337.963 16C337.234 15.2292 336.869 14.1589 336.869 12.7891C336.869 11.4089 337.208 10.3125 337.885 9.5C338.567 8.6875 339.481 8.28125 340.627 8.28125C341.7 8.28125 342.549 8.63542 343.174 9.34375C343.799 10.0469 344.112 10.9766 344.112 12.1328V12.9531H338.213C338.239 13.9583 338.492 14.7214 338.971 15.2422C339.455 15.763 340.135 16.0234 341.01 16.0234C341.932 16.0234 342.843 15.8307 343.744 15.4453V16.6016C343.286 16.7995 342.851 16.9401 342.44 17.0234C342.033 17.112 341.541 17.1562 340.963 17.1562ZM340.612 9.36719C339.924 9.36719 339.375 9.59115 338.963 10.0391C338.557 10.487 338.317 11.1068 338.244 11.8984H342.721C342.721 11.0807 342.539 10.4557 342.174 10.0234C341.809 9.58594 341.289 9.36719 340.612 9.36719ZM351.972 17L351.715 15.7812H351.652C351.225 16.3177 350.798 16.6823 350.371 16.875C349.949 17.0625 349.42 17.1562 348.785 17.1562C347.936 17.1562 347.269 16.9375 346.785 16.5C346.306 16.0625 346.066 15.4401 346.066 14.6328C346.066 12.9036 347.449 11.9974 350.215 11.9141L351.668 11.8672V11.3359C351.668 10.6641 351.522 10.1693 351.23 9.85156C350.944 9.52865 350.483 9.36719 349.847 9.36719C349.134 9.36719 348.327 9.58594 347.426 10.0234L347.027 9.03125C347.449 8.80208 347.91 8.6224 348.41 8.49219C348.915 8.36198 349.42 8.29688 349.926 8.29688C350.946 8.29688 351.702 8.52344 352.191 8.97656C352.686 9.42969 352.933 10.1562 352.933 11.1562V17H351.972ZM349.043 16.0859C349.85 16.0859 350.483 15.8646 350.941 15.4219C351.405 14.9792 351.636 14.3594 351.636 13.5625V12.7891L350.34 12.8438C349.308 12.8802 348.564 13.0417 348.105 13.3281C347.652 13.6094 347.426 14.0495 347.426 14.6484C347.426 15.1172 347.566 15.474 347.847 15.7188C348.134 15.9635 348.532 16.0859 349.043 16.0859ZM361.513 14.6641C361.513 15.4609 361.216 16.0755 360.622 16.5078C360.029 16.9401 359.195 17.1562 358.122 17.1562C356.987 17.1562 356.102 16.9766 355.466 16.6172V15.4141C355.878 15.6224 356.318 15.7865 356.786 15.9062C357.26 16.026 357.716 16.0859 358.154 16.0859C358.831 16.0859 359.352 15.9792 359.716 15.7656C360.081 15.5469 360.263 15.2161 360.263 14.7734C360.263 14.4401 360.117 14.1562 359.825 13.9219C359.539 13.6823 358.977 13.401 358.138 13.0781C357.341 12.7812 356.773 12.5234 356.435 12.3047C356.102 12.0807 355.852 11.8281 355.685 11.5469C355.523 11.2656 355.443 10.9297 355.443 10.5391C355.443 9.84115 355.727 9.29167 356.294 8.89062C356.862 8.48438 357.641 8.28125 358.63 8.28125C359.552 8.28125 360.453 8.46875 361.333 8.84375L360.872 9.89844C360.013 9.54427 359.234 9.36719 358.536 9.36719C357.922 9.36719 357.458 9.46354 357.146 9.65625C356.833 9.84896 356.677 10.1146 356.677 10.4531C356.677 10.6823 356.734 10.8776 356.849 11.0391C356.969 11.2005 357.159 11.3542 357.419 11.5C357.68 11.6458 358.18 11.8568 358.919 12.1328C359.935 12.5026 360.62 12.875 360.974 13.25C361.333 13.625 361.513 14.0964 361.513 14.6641ZM365.225 8.4375V13.9922C365.225 14.6901 365.384 15.2109 365.702 15.5547C366.02 15.8984 366.517 16.0703 367.194 16.0703C368.09 16.0703 368.744 15.8255 369.155 15.3359C369.572 14.8464 369.78 14.0469 369.78 12.9375V8.4375H371.077V17H370.007L369.819 15.8516H369.749C369.483 16.2734 369.113 16.5964 368.639 16.8203C368.171 17.0443 367.634 17.1562 367.03 17.1562C365.988 17.1562 365.207 16.9089 364.686 16.4141C364.171 15.9193 363.913 15.1276 363.913 14.0391V8.4375H365.225ZM378.117 8.28125C378.498 8.28125 378.839 8.3125 379.141 8.375L378.961 9.57812C378.607 9.5 378.295 9.46094 378.024 9.46094C377.331 9.46094 376.737 9.74219 376.242 10.3047C375.753 10.8672 375.508 11.5677 375.508 12.4062V17H374.211V8.4375H375.282L375.43 10.0234H375.492C375.81 9.46615 376.193 9.03646 376.641 8.73438C377.089 8.43229 377.581 8.28125 378.117 8.28125ZM384.736 17.1562C383.47 17.1562 382.47 16.7708 381.736 16C381.007 15.2292 380.642 14.1589 380.642 12.7891C380.642 11.4089 380.981 10.3125 381.658 9.5C382.34 8.6875 383.254 8.28125 384.4 8.28125C385.473 8.28125 386.322 8.63542 386.947 9.34375C387.572 10.0469 387.885 10.9766 387.885 12.1328V12.9531H381.986C382.012 13.9583 382.265 14.7214 382.744 15.2422C383.228 15.763 383.908 16.0234 384.783 16.0234C385.705 16.0234 386.616 15.8307 387.517 15.4453V16.6016C387.059 16.7995 386.624 16.9401 386.213 17.0234C385.806 17.112 385.314 17.1562 384.736 17.1562ZM384.385 9.36719C383.697 9.36719 383.148 9.59115 382.736 10.0391C382.33 10.487 382.09 11.1068 382.017 11.8984H386.494C386.494 11.0807 386.312 10.4557 385.947 10.0234C385.582 9.58594 385.062 9.36719 384.385 9.36719ZM401.394 17V11.4297C401.394 10.7474 401.248 10.237 400.956 9.89844C400.665 9.55469 400.212 9.38281 399.597 9.38281C398.79 9.38281 398.193 9.61458 397.808 10.0781C397.422 10.5417 397.23 11.2552 397.23 12.2188V17H395.933V11.4297C395.933 10.7474 395.787 10.237 395.495 9.89844C395.204 9.55469 394.748 9.38281 394.128 9.38281C393.316 9.38281 392.719 9.6276 392.339 10.1172C391.964 10.6016 391.777 11.3984 391.777 12.5078V17H390.48V8.4375H391.534L391.745 9.60938H391.808C392.053 9.19271 392.396 8.86719 392.839 8.63281C393.287 8.39844 393.787 8.28125 394.339 8.28125C395.678 8.28125 396.553 8.76562 396.964 9.73438H397.027C397.282 9.28646 397.652 8.93229 398.136 8.67188C398.62 8.41146 399.172 8.28125 399.792 8.28125C400.761 8.28125 401.485 8.53125 401.964 9.03125C402.449 9.52604 402.691 10.3203 402.691 11.4141V17H401.394ZM409.364 17.1562C408.098 17.1562 407.098 16.7708 406.364 16C405.635 15.2292 405.27 14.1589 405.27 12.7891C405.27 11.4089 405.609 10.3125 406.286 9.5C406.968 8.6875 407.882 8.28125 409.028 8.28125C410.101 8.28125 410.95 8.63542 411.575 9.34375C412.2 10.0469 412.512 10.9766 412.512 12.1328V12.9531H406.614C406.64 13.9583 406.893 14.7214 407.372 15.2422C407.856 15.763 408.536 16.0234 409.411 16.0234C410.333 16.0234 411.244 15.8307 412.145 15.4453V16.6016C411.687 16.7995 411.252 16.9401 410.841 17.0234C410.434 17.112 409.942 17.1562 409.364 17.1562ZM409.012 9.36719C408.325 9.36719 407.776 9.59115 407.364 10.0391C406.958 10.487 406.718 11.1068 406.645 11.8984H411.122C411.122 11.0807 410.94 10.4557 410.575 10.0234C410.21 9.58594 409.69 9.36719 409.012 9.36719ZM420.967 17V11.4609C420.967 10.763 420.808 10.2422 420.491 9.89844C420.173 9.55469 419.675 9.38281 418.998 9.38281C418.103 9.38281 417.446 9.625 417.03 10.1094C416.613 10.5938 416.405 11.3932 416.405 12.5078V17H415.108V8.4375H416.162L416.373 9.60938H416.436C416.701 9.1875 417.074 8.86198 417.553 8.63281C418.032 8.39844 418.566 8.28125 419.155 8.28125C420.186 8.28125 420.962 8.53125 421.483 9.03125C422.004 9.52604 422.264 10.3203 422.264 11.4141V17H420.967ZM428.078 16.0859C428.307 16.0859 428.528 16.0703 428.742 16.0391C428.956 16.0026 429.125 15.9661 429.25 15.9297V16.9219C429.109 16.9896 428.901 17.0443 428.625 17.0859C428.354 17.1328 428.109 17.1562 427.89 17.1562C426.234 17.1562 425.406 16.2839 425.406 14.5391V9.44531H424.18V8.82031L425.406 8.28125L425.953 6.45312H426.703V8.4375H429.187V9.44531H426.703V14.4844C426.703 15 426.825 15.3958 427.07 15.6719C427.315 15.9479 427.651 16.0859 428.078 16.0859Z" fill="#717171"/>
<path d="M532.781 11.2734C532.781 12.737 532.487 13.9531 531.899 14.9219C531.31 15.8906 530.479 16.5469 529.406 16.8906L532.125 19.7188H530.195L527.969 17.1406L527.539 17.1562C525.857 17.1562 524.557 16.6432 523.641 15.6172C522.729 14.5859 522.274 13.1328 522.274 11.2578C522.274 9.39844 522.732 7.95833 523.649 6.9375C524.565 5.91146 525.867 5.39844 527.555 5.39844C529.195 5.39844 530.477 5.91927 531.399 6.96094C532.32 8.0026 532.781 9.4401 532.781 11.2734ZM523.68 11.2734C523.68 12.8203 524.008 13.9948 524.664 14.7969C525.326 15.5938 526.284 15.9922 527.539 15.9922C528.805 15.9922 529.761 15.5938 530.406 14.7969C531.052 14 531.375 12.8255 531.375 11.2734C531.375 9.73698 531.052 8.57292 530.406 7.78125C529.766 6.98438 528.815 6.58594 527.555 6.58594C526.289 6.58594 525.326 6.98698 524.664 7.78906C524.008 8.58594 523.68 9.7474 523.68 11.2734ZM536.736 8.4375V13.9922C536.736 14.6901 536.895 15.2109 537.213 15.5547C537.53 15.8984 538.028 16.0703 538.705 16.0703C539.601 16.0703 540.254 15.8255 540.666 15.3359C541.082 14.8464 541.291 14.0469 541.291 12.9375V8.4375H542.588V17H541.517L541.33 15.8516H541.259C540.994 16.2734 540.624 16.5964 540.15 16.8203C539.681 17.0443 539.145 17.1562 538.541 17.1562C537.499 17.1562 536.718 16.9089 536.197 16.4141C535.681 15.9193 535.424 15.1276 535.424 14.0391V8.4375H536.736ZM550.987 17L550.73 15.7812H550.667C550.24 16.3177 549.813 16.6823 549.386 16.875C548.964 17.0625 548.435 17.1562 547.8 17.1562C546.951 17.1562 546.284 16.9375 545.8 16.5C545.321 16.0625 545.081 15.4401 545.081 14.6328C545.081 12.9036 546.464 11.9974 549.23 11.9141L550.683 11.8672V11.3359C550.683 10.6641 550.537 10.1693 550.245 9.85156C549.959 9.52865 549.498 9.36719 548.862 9.36719C548.149 9.36719 547.342 9.58594 546.441 10.0234L546.042 9.03125C546.464 8.80208 546.925 8.6224 547.425 8.49219C547.93 8.36198 548.435 8.29688 548.941 8.29688C549.961 8.29688 550.717 8.52344 551.206 8.97656C551.701 9.42969 551.948 10.1562 551.948 11.1562V17H550.987ZM548.058 16.0859C548.865 16.0859 549.498 15.8646 549.956 15.4219C550.42 14.9792 550.652 14.3594 550.652 13.5625V12.7891L549.355 12.8438C548.323 12.8802 547.579 13.0417 547.12 13.3281C546.667 13.6094 546.441 14.0495 546.441 14.6484C546.441 15.1172 546.581 15.474 546.862 15.7188C547.149 15.9635 547.547 16.0859 548.058 16.0859ZM556.301 17H555.005V4.84375H556.301V17ZM562.194 16.0859C562.423 16.0859 562.644 16.0703 562.858 16.0391C563.071 16.0026 563.24 15.9661 563.365 15.9297V16.9219C563.225 16.9896 563.016 17.0443 562.74 17.0859C562.47 17.1328 562.225 17.1562 562.006 17.1562C560.35 17.1562 559.522 16.2839 559.522 14.5391V9.44531H558.295V8.82031L559.522 8.28125L560.069 6.45312H560.819V8.4375H563.303V9.44531H560.819V14.4844C560.819 15 560.941 15.3958 561.186 15.6719C561.431 15.9479 561.766 16.0859 562.194 16.0859ZM566.758 17H565.461V8.4375H566.758V17ZM565.351 6.11719C565.351 5.82031 565.424 5.60417 565.57 5.46875C565.716 5.32812 565.898 5.25781 566.117 5.25781C566.325 5.25781 566.505 5.32812 566.656 5.46875C566.807 5.60938 566.883 5.82552 566.883 6.11719C566.883 6.40885 566.807 6.6276 566.656 6.77344C566.505 6.91406 566.325 6.98438 566.117 6.98438C565.898 6.98438 565.716 6.91406 565.57 6.77344C565.424 6.6276 565.351 6.40885 565.351 6.11719ZM572.65 16.0859C572.879 16.0859 573.1 16.0703 573.314 16.0391C573.527 16.0026 573.697 15.9661 573.822 15.9297V16.9219C573.681 16.9896 573.473 17.0443 573.197 17.0859C572.926 17.1328 572.681 17.1562 572.462 17.1562C570.806 17.1562 569.978 16.2839 569.978 14.5391V9.44531H568.751V8.82031L569.978 8.28125L570.525 6.45312H571.275V8.4375H573.759V9.44531H571.275V14.4844C571.275 15 571.397 15.3958 571.642 15.6719C571.887 15.9479 572.223 16.0859 572.65 16.0859ZM577.214 17H575.917V8.4375H577.214V17ZM575.807 6.11719C575.807 5.82031 575.88 5.60417 576.026 5.46875C576.172 5.32812 576.354 5.25781 576.573 5.25781C576.781 5.25781 576.961 5.32812 577.112 5.46875C577.263 5.60938 577.339 5.82552 577.339 6.11719C577.339 6.40885 577.263 6.6276 577.112 6.77344C576.961 6.91406 576.781 6.98438 576.573 6.98438C576.354 6.98438 576.172 6.91406 576.026 6.77344C575.88 6.6276 575.807 6.40885 575.807 6.11719ZM582.215 17L578.965 8.4375H580.356L582.199 13.5156C582.616 14.7031 582.861 15.474 582.934 15.8281H582.996C583.054 15.5521 583.233 14.9818 583.535 14.1172C583.843 13.2474 584.528 11.3542 585.59 8.4375H586.981L583.731 17H582.215ZM592.349 17.1562C591.084 17.1562 590.084 16.7708 589.349 16C588.62 15.2292 588.256 14.1589 588.256 12.7891C588.256 11.4089 588.594 10.3125 589.271 9.5C589.954 8.6875 590.868 8.28125 592.013 8.28125C593.086 8.28125 593.935 8.63542 594.56 9.34375C595.185 10.0469 595.498 10.9766 595.498 12.1328V12.9531H589.599C589.625 13.9583 589.878 14.7214 590.357 15.2422C590.842 15.763 591.521 16.0234 592.396 16.0234C593.318 16.0234 594.23 15.8307 595.131 15.4453V16.6016C594.672 16.7995 594.237 16.9401 593.826 17.0234C593.42 17.112 592.927 17.1562 592.349 17.1562ZM591.998 9.36719C591.31 9.36719 590.761 9.59115 590.349 10.0391C589.943 10.487 589.704 11.1068 589.631 11.8984H594.107C594.107 11.0807 593.925 10.4557 593.56 10.0234C593.196 9.58594 592.675 9.36719 591.998 9.36719ZM607.876 17L604.001 6.875H603.938C604.011 7.67708 604.048 8.63021 604.048 9.73438V17H602.821V5.57812H604.821L608.438 15H608.501L612.149 5.57812H614.134V17H612.805V9.64062C612.805 8.79688 612.842 7.88021 612.915 6.89062H612.852L608.946 17H607.876ZM621.073 17.1562C619.807 17.1562 618.807 16.7708 618.073 16C617.343 15.2292 616.979 14.1589 616.979 12.7891C616.979 11.4089 617.317 10.3125 617.994 9.5C618.677 8.6875 619.591 8.28125 620.737 8.28125C621.809 8.28125 622.658 8.63542 623.283 9.34375C623.908 10.0469 624.221 10.9766 624.221 12.1328V12.9531H618.323C618.349 13.9583 618.601 14.7214 619.08 15.2422C619.565 15.763 620.244 16.0234 621.119 16.0234C622.041 16.0234 622.953 15.8307 623.854 15.4453V16.6016C623.395 16.7995 622.961 16.9401 622.549 17.0234C622.143 17.112 621.651 17.1562 621.073 17.1562ZM620.721 9.36719C620.033 9.36719 619.484 9.59115 619.073 10.0391C618.666 10.487 618.427 11.1068 618.354 11.8984H622.83C622.83 11.0807 622.648 10.4557 622.283 10.0234C621.919 9.58594 621.398 9.36719 620.721 9.36719ZM632.082 17L631.824 15.7812H631.761C631.334 16.3177 630.907 16.6823 630.48 16.875C630.058 17.0625 629.53 17.1562 628.894 17.1562C628.045 17.1562 627.379 16.9375 626.894 16.5C626.415 16.0625 626.176 15.4401 626.176 14.6328C626.176 12.9036 627.558 11.9974 630.324 11.9141L631.777 11.8672V11.3359C631.777 10.6641 631.631 10.1693 631.34 9.85156C631.053 9.52865 630.592 9.36719 629.957 9.36719C629.243 9.36719 628.436 9.58594 627.535 10.0234L627.136 9.03125C627.558 8.80208 628.019 8.6224 628.519 8.49219C629.025 8.36198 629.53 8.29688 630.035 8.29688C631.056 8.29688 631.811 8.52344 632.301 8.97656C632.795 9.42969 633.043 10.1562 633.043 11.1562V17H632.082ZM629.152 16.0859C629.959 16.0859 630.592 15.8646 631.051 15.4219C631.514 14.9792 631.746 14.3594 631.746 13.5625V12.7891L630.449 12.8438C629.418 12.8802 628.673 13.0417 628.215 13.3281C627.761 13.6094 627.535 14.0495 627.535 14.6484C627.535 15.1172 627.676 15.474 627.957 15.7188C628.243 15.9635 628.642 16.0859 629.152 16.0859ZM641.622 14.6641C641.622 15.4609 641.325 16.0755 640.732 16.5078C640.138 16.9401 639.305 17.1562 638.232 17.1562C637.096 17.1562 636.211 16.9766 635.575 16.6172V15.4141C635.987 15.6224 636.427 15.7865 636.896 15.9062C637.37 16.026 637.825 16.0859 638.263 16.0859C638.94 16.0859 639.461 15.9792 639.825 15.7656C640.19 15.5469 640.372 15.2161 640.372 14.7734C640.372 14.4401 640.227 14.1562 639.935 13.9219C639.648 13.6823 639.086 13.401 638.247 13.0781C637.45 12.7812 636.883 12.5234 636.544 12.3047C636.211 12.0807 635.961 11.8281 635.794 11.5469C635.633 11.2656 635.552 10.9297 635.552 10.5391C635.552 9.84115 635.836 9.29167 636.404 8.89062C636.971 8.48438 637.75 8.28125 638.74 8.28125C639.661 8.28125 640.562 8.46875 641.443 8.84375L640.982 9.89844C640.122 9.54427 639.344 9.36719 638.646 9.36719C638.031 9.36719 637.568 9.46354 637.255 9.65625C636.943 9.84896 636.786 10.1146 636.786 10.4531C636.786 10.6823 636.844 10.8776 636.958 11.0391C637.078 11.2005 637.268 11.3542 637.529 11.5C637.789 11.6458 638.289 11.8568 639.029 12.1328C640.044 12.5026 640.729 12.875 641.083 13.25C641.443 13.625 641.622 14.0964 641.622 14.6641ZM645.335 8.4375V13.9922C645.335 14.6901 645.494 15.2109 645.811 15.5547C646.129 15.8984 646.626 16.0703 647.303 16.0703C648.199 16.0703 648.853 15.8255 649.264 15.3359C649.681 14.8464 649.889 14.0469 649.889 12.9375V8.4375H651.186V17H650.116L649.928 15.8516H649.858C649.593 16.2734 649.223 16.5964 648.749 16.8203C648.28 17.0443 647.744 17.1562 647.139 17.1562C646.098 17.1562 645.317 16.9089 644.796 16.4141C644.28 15.9193 644.022 15.1276 644.022 14.0391V8.4375H645.335ZM658.227 8.28125C658.607 8.28125 658.948 8.3125 659.25 8.375L659.071 9.57812C658.716 9.5 658.404 9.46094 658.133 9.46094C657.44 9.46094 656.847 9.74219 656.352 10.3047C655.862 10.8672 655.617 11.5677 655.617 12.4062V17H654.321V8.4375H655.391L655.539 10.0234H655.602C655.92 9.46615 656.302 9.03646 656.75 8.73438C657.198 8.43229 657.69 8.28125 658.227 8.28125ZM664.845 17.1562C663.58 17.1562 662.58 16.7708 661.845 16C661.116 15.2292 660.752 14.1589 660.752 12.7891C660.752 11.4089 661.09 10.3125 661.767 9.5C662.45 8.6875 663.364 8.28125 664.51 8.28125C665.582 8.28125 666.431 8.63542 667.056 9.34375C667.681 10.0469 667.994 10.9766 667.994 12.1328V12.9531H662.095C662.122 13.9583 662.374 14.7214 662.853 15.2422C663.338 15.763 664.017 16.0234 664.892 16.0234C665.814 16.0234 666.726 15.8307 667.627 15.4453V16.6016C667.168 16.7995 666.734 16.9401 666.322 17.0234C665.916 17.112 665.424 17.1562 664.845 17.1562ZM664.494 9.36719C663.806 9.36719 663.257 9.59115 662.845 10.0391C662.439 10.487 662.2 11.1068 662.127 11.8984H666.603C666.603 11.0807 666.421 10.4557 666.056 10.0234C665.692 9.58594 665.171 9.36719 664.494 9.36719ZM681.503 17V11.4297C681.503 10.7474 681.357 10.237 681.066 9.89844C680.774 9.55469 680.321 9.38281 679.706 9.38281C678.899 9.38281 678.303 9.61458 677.917 10.0781C677.532 10.5417 677.339 11.2552 677.339 12.2188V17H676.042V11.4297C676.042 10.7474 675.896 10.237 675.605 9.89844C675.313 9.55469 674.857 9.38281 674.238 9.38281C673.425 9.38281 672.829 9.6276 672.449 10.1172C672.074 10.6016 671.886 11.3984 671.886 12.5078V17H670.589V8.4375H671.644L671.855 9.60938H671.917C672.162 9.19271 672.506 8.86719 672.949 8.63281C673.396 8.39844 673.896 8.28125 674.449 8.28125C675.787 8.28125 676.662 8.76562 677.074 9.73438H677.136C677.391 9.28646 677.761 8.93229 678.245 8.67188C678.73 8.41146 679.282 8.28125 679.902 8.28125C680.87 8.28125 681.594 8.53125 682.074 9.03125C682.558 9.52604 682.8 10.3203 682.8 11.4141V17H681.503ZM689.473 17.1562C688.208 17.1562 687.208 16.7708 686.473 16C685.744 15.2292 685.38 14.1589 685.38 12.7891C685.38 11.4089 685.718 10.3125 686.395 9.5C687.078 8.6875 687.992 8.28125 689.137 8.28125C690.21 8.28125 691.059 8.63542 691.684 9.34375C692.309 10.0469 692.622 10.9766 692.622 12.1328V12.9531H686.723C686.749 13.9583 687.002 14.7214 687.481 15.2422C687.966 15.763 688.645 16.0234 689.52 16.0234C690.442 16.0234 691.354 15.8307 692.255 15.4453V16.6016C691.796 16.7995 691.361 16.9401 690.95 17.0234C690.544 17.112 690.052 17.1562 689.473 17.1562ZM689.122 9.36719C688.434 9.36719 687.885 9.59115 687.473 10.0391C687.067 10.487 686.828 11.1068 686.755 11.8984H691.231C691.231 11.0807 691.049 10.4557 690.684 10.0234C690.32 9.58594 689.799 9.36719 689.122 9.36719ZM701.076 17V11.4609C701.076 10.763 700.918 10.2422 700.6 9.89844C700.282 9.55469 699.785 9.38281 699.108 9.38281C698.212 9.38281 697.556 9.625 697.139 10.1094C696.722 10.5938 696.514 11.3932 696.514 12.5078V17H695.217V8.4375H696.272L696.483 9.60938H696.545C696.811 9.1875 697.183 8.86198 697.662 8.63281C698.142 8.39844 698.675 8.28125 699.264 8.28125C700.295 8.28125 701.071 8.53125 701.592 9.03125C702.113 9.52604 702.373 10.3203 702.373 11.4141V17H701.076ZM708.187 16.0859C708.416 16.0859 708.638 16.0703 708.851 16.0391C709.065 16.0026 709.234 15.9661 709.359 15.9297V16.9219C709.219 16.9896 709.01 17.0443 708.734 17.0859C708.463 17.1328 708.219 17.1562 708 17.1562C706.344 17.1562 705.515 16.2839 705.515 14.5391V9.44531H704.289V8.82031L705.515 8.28125L706.062 6.45312H706.812V8.4375H709.297V9.44531H706.812V14.4844C706.812 15 706.935 15.3958 707.18 15.6719C707.424 15.9479 707.76 16.0859 708.187 16.0859Z" fill="#717171"/>
<path d="M147 87.0666V81H130V87.0666L138.5 94L147 87.0666Z" fill="#E6AF78"/>
<path d="M160.154 90.1791L148.731 87.4595C148.559 87.4184 148.4 87.3487 148.252 87.2641L139 92.7251L130.109 87C129.879 87.2193 129.594 87.3822 129.269 87.4596L117.847 90.1792C116.179 90.5764 115 92.0824 115 93.8162V101.132C115 102.164 115.827 103 116.846 103H161.154C162.174 103 163 102.164 163 101.132V93.8162C163 92.0823 161.821 90.5761 160.154 90.1791Z" fill="#EFF2FA"/>
<path d="M130 81.0001V88.0767C140.708 91.9906 147 82.195 147 82.195V81H130V81.0001Z" fill="#D29B6E"/>
<path d="M127 60L127.804 77.1173C127.879 78.7163 128.69 80.1993 130.014 81.1597L133.831 83.9285C134.789 84.6239 135.955 85 137.154 85H140.846C142.045 85 143.211 84.624 144.169 83.9285L147.986 81.1597C149.31 80.1992 150.121 78.7164 150.196 77.1173L151 60C151 60 127 60 127 60Z" fill="#F0C087"/>
<path d="M136.869 63.5715C140.417 63.5715 145.738 62.6786 147 60H128L128.773 77.1173C128.845 78.7163 129.624 80.1992 130.896 81.1597L134.563 83.9285C135.484 84.6239 136.604 85 137.756 85H139.53C137.756 85 134.208 81.4285 134.208 76.9643C134.208 74.7809 134.208 68.9286 134.208 66.25C134.208 65.3572 135.095 63.5715 136.869 63.5715Z" fill="#E6AF78"/>
<path d="M121.814 96.6415L115.845 91.0362C115.345 91.6983 115.052 92.5314 115.052 93.4234V100.965C115.052 102.029 115.877 102.891 116.894 102.891H123.342V100.223C123.342 98.8568 122.786 97.5546 121.814 96.6415Z" fill="#E4EAF6"/>
<path d="M156.187 96.6415L162.155 91.0362C162.655 91.6983 162.948 92.5314 162.948 93.4234V100.965C162.948 102.029 162.124 102.891 161.106 102.891H154.659V100.223C154.659 98.8568 155.214 97.5546 156.187 96.6415Z" fill="#E4EAF6"/>
<path d="M141 103H137L137.5 95H140.5L141 103Z" fill="#5B5D6E"/>
<path d="M141 93H137V94.882C137 95.4995 137.4 96 137.894 96H140.105C140.6 96 141 95.4995 141 94.882V93H141Z" fill="#515262"/>
<path d="M130.627 84.245L139 92.0252C139 92.0252 136.655 93.2474 133.762 95.7107C133.165 96.2188 132.262 96.013 131.942 95.2858L128.008 86.3507L129.253 84.4235C129.562 83.9435 130.212 83.8593 130.627 84.245Z" fill="#E4EAF6"/>
<path d="M147.373 84.245L139 92.0252C139 92.0252 141.345 93.2474 144.239 95.7107C144.836 96.2188 145.739 96.013 146.059 95.2858L149.992 86.3507L148.748 84.4235C148.438 83.9435 147.788 83.8593 147.373 84.245Z" fill="#E4EAF6"/>
<path d="M145 53.583L145.853 59.8003C149.748 60.6035 150.309 66.906 150.39 68.7061C150.405 69.0328 150.506 69.3482 150.678 69.623L152.164 72C152.164 72 151.655 68.0702 153.984 65.4309C153.984 65.4309 154.784 49.8292 145 53.583Z" fill="#785550"/>
<path d="M152.939 70.5737L151.85 75.0894C151.721 75.6247 151.257 76 150.724 76V76C150.139 76 149.646 75.5486 149.573 74.9469L149.016 70.3282C148.867 69.0919 149.797 68 150.999 68H151C152.301 68.0001 153.255 69.2663 152.939 70.5737Z" fill="#F0C087"/>
<path d="M127.732 52.3705L129.095 53.2966C122.934 57.8221 124.085 65.5841 124.085 65.5841C125.928 67.4172 125.928 72 125.928 72L127.77 70.1669C127.77 70.1669 127.059 64.8716 130.534 62.8345C133.759 60.9441 136.58 61.918 139.459 61.918C147.175 61.918 149.334 59.0251 148.96 55.5021C148.766 53.6792 145.965 49.8821 138.826 50.0028C135.945 50.0515 130.534 50.9193 127.732 52.3705Z" fill="#694B4B"/>
<path d="M127.232 60.9433C127.232 60.9433 126.242 57.0443 129.154 53C122.921 57.5972 124.086 65.4824 124.086 65.4824C125.95 67.3445 125.95 72 125.95 72L127.814 70.1379C127.814 70.1379 127.095 64.7586 130.61 62.6892C133.872 60.7688 136.726 61.7581 139.639 61.7581C140.908 61.7581 142.015 61.6732 143 61.5276C136.989 61.7289 133.445 57.1801 127.232 60.9433Z" fill="#5A4146"/>
<path d="M125.061 70.5737L126.15 75.0894C126.279 75.6247 126.743 76 127.276 76V76C127.861 76 128.354 75.5486 128.427 74.9469L128.984 70.3282C129.133 69.0919 128.203 68 127.001 68H127C125.699 68.0001 124.745 69.2663 125.061 70.5737Z" fill="#E6AF78"/>
<path d="M151.111 101H144.889C144.398 101 144 101.448 144 102V103H152V102C152 101.448 151.602 101 151.111 101Z" fill="#E4EAF6"/>
<rect x="132" y="206" width="12" height="12" fill="#FCB47E"/>
<path d="M142 217.604C139.887 218.819 138.485 219 138.485 219C138.485 219 137.083 218.819 134.97 217.604C134.97 217.604 133.7 214.695 134.066 215.026C134.432 215.357 138.485 215.026 138.485 215.026L141.976 215.821L142 217.604Z" fill="#4296D9"/>
<path d="M148.321 211L157.294 212.49C160.906 213.488 163 216.984 163 220.259V225.767C163 227 161.842 228 160.414 228H115.586C114.158 228 113 227 113 225.767V220.259C113 216.984 115.094 213.488 118.706 212.49L127.632 211L138 215.25L148.321 211Z" fill="#996459"/>
<path d="M123 210.681C123.013 210.708 123.013 210.74 123.03 210.766C129.64 221.363 136.075 222.764 136.787 222.888L137.35 222.986C137.4 222.996 137.45 223 137.501 223C137.552 223 137.602 222.996 137.652 222.986L138.215 222.888C138.927 222.764 145.362 221.363 151.972 210.766C151.988 210.741 151.987 210.711 152 210.685L147.911 210L137.501 214.322L127.044 210L123 210.681Z" fill="#7E5C62"/>
<path d="M130.25 207L127 211.156L132.249 218.635C132.552 219.067 133.188 219.126 133.571 218.757L138 215.312L130.25 207Z" fill="#4BB9EC"/>
<path d="M145.75 207L149 211.156L143.751 218.635C143.448 219.067 142.812 219.126 142.429 218.757L138 215.312L145.75 207Z" fill="#4BB9EC"/>
<path d="M150.177 192.035L148.424 187.919C148.424 187.919 140.84 183.788 128.49 185.355H128.467C126.25 188.115 125 191.504 125 195.613C125 204.111 130.82 211 138 211C145.18 211 151 204.111 151 195.613C151 194.234 150.832 192.904 150.545 191.632C150.32 191.88 150.177 192.035 150.177 192.035Z" fill="#FFDCAD"/>
<circle cx="132.5" cy="195.5" r="3.5" fill="#D5F7FF"/>
<circle cx="142.5" cy="195.5" r="3.5" fill="#D5F7FF"/>
<path d="M152.102 174.213C151.943 173.864 151.566 173.661 151.168 173.714C148.952 174.022 146.266 173.499 143.424 172.951C138.658 172.031 133.733 171.08 129.882 173.722C129.825 173.711 129.767 173.705 129.706 173.705C125.758 173.705 123 176.853 123 181.358C123 185.028 124.691 192.046 124.764 192.343C124.855 192.716 125.194 192.985 125.592 192.999C125.603 193 125.614 193 125.625 193C126.01 193 126.353 192.759 126.468 192.404L128.978 184.687C139.537 183.513 146.54 186.424 147.951 187.078L149.614 190.885C149.758 191.212 150.098 191.438 150.468 191.405C150.839 191.389 151.159 191.153 151.272 190.813C153.922 182.827 152.952 176.07 152.102 174.213Z" fill="#7E5C62"/>
<path d="M139.333 196C138.965 196 138.667 195.665 138.667 195.25C138.667 194.836 138.368 194.5 138 194.5C137.632 194.5 137.333 194.836 137.333 195.25C137.333 195.665 137.035 196 136.667 196C136.298 196 136 195.665 136 195.25C136 194.009 136.897 193 138 193C139.103 193 140 194.009 140 195.25C140 195.665 139.702 196 139.333 196Z" fill="#5C546A"/>
<path d="M129.146 194H124.854C124.382 194 124 193.553 124 193C124 192.447 124.382 192 124.854 192H129.146C129.618 192 130 192.447 130 193C130 193.553 129.618 194 129.146 194Z" fill="#5C546A"/>
<path d="M151.139 194H146.861C146.385 194 146 193.553 146 193C146 192.447 146.385 192 146.861 192H151.139C151.615 192 152 192.447 152 193C152 193.553 151.615 194 151.139 194Z" fill="#5C546A"/>
<path fill-rule="evenodd" clip-rule="evenodd" d="M128 194.5C128 196.981 130.019 199 132.5 199C134.981 199 137 196.981 137 194.5C137 192.019 134.981 190 132.5 190C130.019 190 128 192.019 128 194.5ZM129.8 194.5C129.8 193.011 131.011 191.8 132.5 191.8C133.989 191.8 135.2 193.011 135.2 194.5C135.2 195.989 133.989 197.2 132.5 197.2C131.011 197.2 129.8 195.989 129.8 194.5Z" fill="#868491"/>
<path fill-rule="evenodd" clip-rule="evenodd" d="M138 194.5C138 196.981 140.019 199 142.5 199C144.981 199 147 196.981 147 194.5C147 192.019 144.981 190 142.5 190C140.019 190 138 192.019 138 194.5ZM139.8 194.5C139.8 193.011 141.011 191.8 142.5 191.8C143.989 191.8 145.2 193.011 145.2 194.5C145.2 195.989 143.989 197.2 142.5 197.2C141.011 197.2 139.8 195.989 139.8 194.5Z" fill="#868491"/>
<path d="M122 228V222.01C122 219.856 121.155 217.832 119.623 216.31L116.29 213C115.812 213.371 115.38 213.792 115 214.252L118.347 217.577C119.54 218.761 120.196 220.336 120.196 222.01V228L122 228V228Z" fill="#7E5C62"/>
<path d="M159.71 213L156.377 216.31C154.844 217.832 154 219.856 154 222.01V228H155.804V222.01C155.804 220.336 156.46 218.761 157.653 217.577L161 214.252C160.62 213.792 160.188 213.372 159.71 213Z" fill="#7E5C62"/>
</svg>
