<?xml version="1.0" encoding="UTF-8"?>
<svg width="587px" height="271px" viewBox="0 0 587 271" version="1.1" xmlns="http://www.w3.org/2000/svg" xmlns:xlink="http://www.w3.org/1999/xlink">
    <!-- Generator: Sketch 57.1 (83088) - https://sketch.com -->
    <title>编组 56</title>
    <desc>Created with Sketch.</desc>
    <g id="页面-2----Design-Simple" stroke="none" stroke-width="1" fill="none" fill-rule="evenodd">
        <g id="2" transform="translate(-436.000000, -1060.000000)">
            <g id="编组-56" transform="translate(416.000000, 1056.000000)">
                <text id="1(not-satisified)--" font-family="OpenSans-Regular, Open Sans" font-size="15" font-weight="normal" letter-spacing="0.352941176" fill="#8C8C8C">
                    <tspan x="312" y="272">1(not satisified) - 5(satfisied)</tspan>
                </text>
                <text id="Heuristic-Evaluation" font-family="OpenSans-Regular, Open Sans" font-size="17" font-weight="normal" letter-spacing="0.4" fill="#404040">
                    <tspan x="38.354248" y="153">Heuristic Evaluation</tspan>
                </text>
                <text id="6-experts-from-Acron" font-family="OpenSans-Regular, Open Sans" font-size="17" font-weight="normal" letter-spacing="0.4" fill="#404040">
                    <tspan x="27" y="202">6 experts from Acronis</tspan>
                </text>
                <text id="(Trainer,-Designer," font-family="OpenSans-Regular, Open Sans" font-size="15" font-weight="normal" letter-spacing="0.352941176" fill="#8C8C8C">
                    <tspan x="20.092558" y="223">(Trainer, Designer, PM, etc.)</tspan>
                </text>
                <g id="test" transform="translate(80.000000, 46.000000)" fill-rule="nonzero">
                    <path d="M84,12.4545455 L84,59.0909091 L79.078125,64 L4.921875,64 L0,59.0909091 L0,12.4545455 C0,11.0798364 1.08264844,10 2.4609375,10 L81.5390625,10 C82.9173516,10 84,11.0798364 84,12.4545455 Z" id="路径" fill="#2C3B73"></path>
                    <path d="M84,12.4545455 L84,59.0909091 L79.078125,64 L42,64 L42,10 L81.5390625,10 C82.9173516,10 84,11.0798364 84,12.4545455 Z" id="路径" fill="#293939"></path>
                    <rect id="矩形" fill="#979FEF" x="5" y="15" width="74" height="49"></rect>
                    <rect id="矩形" fill="#737EE6" x="42" y="15" width="37" height="49"></rect>
                    <path d="M69,2.45524297 L69,61.544757 C69,62.9195294 67.9201636,64 66.5454545,64 L17.4545455,64 C16.0798364,64 15,62.9195294 15,61.544757 L15,2.45524297 C15,1.08014322 16.0798364,0 17.4545455,0 L66.5454545,0 C67.9201636,0 69,1.08014322 69,2.45524297 Z" id="路径" fill="#EDF5FF"></path>
                    <path d="M70,2.45524297 L70,61.544757 C70,62.9195294 68.9201636,64 67.5454545,64 L43,64 L43,0 L67.5454545,0 C68.9201636,0 70,1.08014322 70,2.45524297 Z" id="路径" fill="#D7E9FF"></path>
                    <rect id="矩形" fill="#EDF5FF" x="30" y="67" width="25" height="14"></rect>
                    <rect id="矩形" fill="#D7E9FF" x="41" y="67" width="13" height="14"></rect>
                    <path d="M64,81.5 C64,82.8998333 62.9246074,84 61.5555556,84 L22.4444444,84 C21.0753926,84 20,82.8998333 20,81.5 C20,80.0998333 21.0753926,79 22.4444444,79 L61.5555556,79 C62.9246074,79 64,80.0998333 64,81.5 Z" id="路径" fill="#D7E9FF"></path>
                    <path d="M32.2856276,23 C31.6642341,23 31.0428407,22.7460675 30.5686194,22.2382025 L25.7114534,17.0382199 C24.7628489,16.0226633 24.7628489,14.3772154 25.7114534,13.3616588 C26.6600579,12.3461022 28.1970271,12.3461022 29.1456316,13.3616588 L32.2856276,16.7234476 L37.8543684,10.7616675 C38.8029729,9.74611085 40.3399421,9.74611085 41.2885466,10.7616675 C42.2371511,11.7772241 42.2371511,13.4226719 41.2885466,14.4382285 L34.0027976,22.2382025 C33.5284144,22.7460675 32.907021,23 32.2856276,23 Z" id="路径" fill="#979FEF"></path>
                    <path d="M32.2856276,37 C31.6642341,37 31.0428407,36.7460675 30.5686194,36.2382025 L25.7114534,31.0382199 C24.7628489,30.0226633 24.7628489,28.3772154 25.7114534,27.3616588 C26.6600579,26.3461022 28.1970271,26.3461022 29.1456316,27.3616588 L32.2856276,30.7234476 L37.8543684,24.7616675 C38.8029729,23.7461108 40.3399421,23.7461108 41.2885466,24.7616675 C42.2371511,25.7772241 42.2371511,27.4226719 41.2885466,28.4382285 L34.0027976,36.2382025 C33.5284144,36.7460675 32.907021,37 32.2856276,37 Z" id="路径" fill="#979FEF"></path>
                    <path d="M32.2856276,53 C31.6642341,53 31.0428407,52.7460675 30.5686194,52.2382025 L25.7114534,47.0382199 C24.7628489,46.0226633 24.7628489,44.3772154 25.7114534,43.3616588 C26.6600579,42.3461022 28.1970271,42.3461022 29.1456316,43.3616588 L32.2856276,46.7234476 L37.8543684,40.7616675 C38.8029729,39.7461108 40.3399421,39.7461108 41.2885466,40.7616675 C42.2371511,41.7772241 42.2371511,43.4226719 41.2885466,44.4382285 L34.0027976,52.2382025 C33.5284144,52.7460675 32.907021,53 32.2856276,53 Z" id="路径" fill="#979FEF"></path>
                    <path d="M56.6666667,19 L47.3333333,19 C46.0436222,19 45,17.8818333 45,16.5 C45,15.1181667 46.0436222,14 47.3333333,14 L56.6666667,14 C57.9563778,14 59,15.1181667 59,16.5 C59,17.8818333 57.9563778,19 56.6666667,19 Z" id="路径" fill="#B0D5F7"></path>
                    <path d="M56.6666667,35 L47.3333333,35 C46.0436222,35 45,33.8818333 45,32.5 C45,31.1181667 46.0436222,30 47.3333333,30 L56.6666667,30 C57.9563778,30 59,31.1181667 59,32.5 C59,33.8818333 57.9563778,35 56.6666667,35 Z" id="路径" fill="#B0D5F7"></path>
                    <path d="M56.6666667,49 L47.3333333,49 C46.0436222,49 45,47.8818333 45,46.5 C45,45.1181667 46.0436222,44 47.3333333,44 L56.6666667,44 C57.9563778,44 59,45.1181667 59,46.5 C59,47.8818333 57.9563778,49 56.6666667,49 Z" id="路径" fill="#B0D5F7"></path>
                    <path d="M64,81.5 C64,82.8998333 62.9246074,84 61.5555556,84 L42,84 L42,79 L61.5555556,79 C62.9246074,79 64,80.0998333 64,81.5 Z" id="路径" fill="#B0D5F7"></path>
                    <path d="M84,59 L84,66.5 C84,67.8998333 82.9173516,69 81.5390625,69 L2.4609375,69 C1.08264844,69 0,67.8998333 0,66.5 L0,59 L84,59 Z" id="路径" fill="#D7E9FF"></path>
                    <path d="M84,59 L84,66.5 C84,67.8998333 82.9173516,69 81.5390625,69 L42,69 L42,59 L84,59 Z" id="路径" fill="#B0D5F7"></path>
                </g>
                <g id="编组-7" transform="translate(312.000000, 0.000000)">
                    <text id="Scaffolding" font-family="OpenSans-Regular, Open Sans" font-size="16" font-weight="normal" letter-spacing="0.376470588" fill="#404040">
                        <tspan x="0" y="17">Scaffolding</tspan>
                    </text>
                    <text id="5" font-family="OpenSans-SemiBold, Open Sans" font-size="17" font-weight="500" letter-spacing="0.4" fill="#0D44CC">
                        <tspan x="285" y="18">5</tspan>
                    </text>
                    <text id="Motivation" font-family="OpenSans-Regular, Open Sans" font-size="16" font-weight="normal" line-spacing="18" letter-spacing="0.376470588" fill="#404040">
                        <tspan x="0" y="55">Motivation</tspan>
                    </text>
                    <text id="4" font-family="OpenSans-SemiBold, Open Sans" font-size="17" font-weight="500" letter-spacing="0.4" fill="#0D44CC">
                        <tspan x="285" y="55">4</tspan>
                    </text>
                    <text id="Aesthetic-and-minima" font-family="OpenSans-Regular, Open Sans" font-size="16" font-weight="normal" letter-spacing="0.376470588" fill="#404040">
                        <tspan x="0" y="240">Aesthetic and minimalist  </tspan>
                    </text>
                    <text id="4" font-family="OpenSans-SemiBold, Open Sans" font-size="17" font-weight="500" letter-spacing="0.4" fill="#0D44CC">
                        <tspan x="285" y="241">4</tspan>
                    </text>
                    <text id="User-control-and-fre" font-family="OpenSans-Regular, Open Sans" font-size="16" font-weight="normal" letter-spacing="0.376470588" fill="#404040">
                        <tspan x="0" y="89">User control and freedom</tspan>
                    </text>
                    <text id="3" font-family="OpenSans-SemiBold, Open Sans" font-size="17" font-weight="500" letter-spacing="0.4" fill="#0D44CC">
                        <tspan x="285" y="92">3</tspan>
                    </text>
                    <text id="Consistency-and-stan" font-family="OpenSans-Regular, Open Sans" font-size="16" font-weight="normal" letter-spacing="0.376470588" fill="#404040">
                        <tspan x="0" y="127">Consistency and standards</tspan>
                    </text>
                    <text id="4" font-family="OpenSans-SemiBold, Open Sans" font-size="17" font-weight="500" letter-spacing="0.4" fill="#0D44CC">
                        <tspan x="285" y="130">4</tspan>
                    </text>
                    <text id="Engagement" font-family="OpenSans-Regular, Open Sans" font-size="16" font-weight="normal" letter-spacing="0.376470588" fill="#404040">
                        <tspan x="0" y="164">Engagement</tspan>
                    </text>
                    <text id="4" font-family="OpenSans-SemiBold, Open Sans" font-size="17" font-weight="500" letter-spacing="0.4" fill="#0D44CC">
                        <tspan x="285" y="167">4</tspan>
                    </text>
                    <text id="Flexibility-and-effi" font-family="OpenSans-Regular, Open Sans" font-size="16" font-weight="normal" letter-spacing="0.376470588" fill="#404040">
                        <tspan x="0" y="202">Flexibility and efficiency of use</tspan>
                    </text>
                    <text id="5" font-family="OpenSans-SemiBold, Open Sans" font-size="17" font-weight="500" letter-spacing="0.4" fill="#0D44CC">
                        <tspan x="285" y="204">5</tspan>
                    </text>
                </g>
            </g>
        </g>
    </g>
</svg>