<?xml version="1.0" encoding="UTF-8"?>
<svg width="533px" height="193px" viewBox="0 0 533 193" version="1.1" xmlns="http://www.w3.org/2000/svg" xmlns:xlink="http://www.w3.org/1999/xlink">
    <!-- Generator: Sketch 57.1 (83088) - https://sketch.com -->
    <title>编组 52</title>
    <desc>Created with Sketch.</desc>
    <g id="页面-2----Design-Simple" stroke="none" stroke-width="1" fill="none" fill-rule="evenodd">
        <g id="2" transform="translate(-451.000000, -795.000000)">
            <g id="编组-52" transform="translate(450.000000, 795.000000)">
                <g id="编组-6" transform="translate(317.000000, 49.000000)">
                    <text id="91" font-family="OpenSans-Bold, Open Sans" font-size="30" font-weight="bold" letter-spacing="0.705882353" fill="#0D44CC">
                        <tspan x="90.1700942" y="32">91</tspan>
                    </text>
                    <text id="（0-100）" font-family="PingFangSC-Regular, PingFang SC" font-size="15" font-weight="normal" letter-spacing="0.352941176" fill="#8C8C8C">
                        <tspan x="72.6980555" y="94">（</tspan>
                        <tspan x="88.0509967" y="94" font-family="OpenSans-Regular, Open Sans">0-100</tspan>
                        <tspan x="128.949003" y="94">）</tspan>
                    </text>
                    <text id="average-users’-satis" font-family="OpenSans-Regular, Open Sans" font-size="17" font-weight="normal" letter-spacing="0.4" fill="#404040">
                        <tspan x="0" y="71">average users’ satisfaction </tspan>
                    </text>
                </g>
                <text id="Final-Usability-Test" font-family="OpenSans-Regular, Open Sans" font-size="17" font-weight="normal" letter-spacing="0.4" fill="#404040">
                    <tspan x="0.389501953" y="118">Final Usability Testing</tspan>
                </text>
                <text id="4-target-users" font-family="OpenSans-Regular, Open Sans" font-size="17" font-weight="normal" letter-spacing="0.4" fill="#404040">
                    <tspan x="31.2344238" y="188">4 target users</tspan>
                </text>
                <text id="4-tasks" font-family="OpenSans-Regular, Open Sans" font-size="17" font-weight="normal" letter-spacing="0.4" fill="#404040">
                    <tspan x="60.2323242" y="160">4 tasks</tspan>
                </text>
                <g id="woman" transform="translate(56.000000, 0.000000)" fill-rule="nonzero">
                    <path d="M52.4600782,24.2856634 L52.4600782,19.0959153 C52.4600782,9.09596279 44.6145011,0.491533514 34.4166461,0.0211693492 C23.5285965,-0.48102527 14.539995,8.01701417 14.539995,18.5714048 L14.539995,24.2856634 C14.539995,33.8996716 12.9089952,39.5198228 12.086166,41.7434568 C11.8408537,42.4061877 12.1349105,43.139845 12.7703558,43.470951 C15.6766615,44.9853195 23.5950022,48.8592934 30.5831343,50 L36.4169389,50 C43.405071,48.8591204 51.3234117,44.9851465 54.2297174,43.470951 C54.8651627,43.139845 55.1590429,42.4061877 54.9139072,41.7434568 C54.091078,39.5198228 52.4600782,33.8996716 52.4600782,24.2856634 Z" id="路径" fill="#5C414B"></path>
                    <path d="M14.5209268,18.437717 L14.5209268,24.2275272 C14.5209268,33.9682974 12.9018936,39.6625806 12.085013,41.91579 C11.8407728,42.5893865 12.1390158,43.3337957 12.7717958,43.6699805 C15.4635218,45.0999051 22.4547856,48.5923357 29,50 L29,21.3326221 L26.1041854,18.437717 C21.2875879,13.6226323 20.9614668,7.54133341 21.2798732,4 C17.1509352,7.45159066 14.5209268,12.6359878 14.5209268,18.437717 Z" id="路径" fill="#503441"></path>
                    <rect id="矩形" fill="#E6AF78" x="26" y="40" width="14" height="18"></rect>
                    <path d="M53.9385539,53.4197392 L46.373501,50 L36.2645666,54.3333139 L34.6049525,56.8637915 C34.042456,57.7213937 32.8028645,57.7213937 32.240368,56.8637915 L30.5807538,54.3333139 L20.6265104,50 L13.0614574,53.4197392 C9.90517927,54.8465109 7.90761985,58.0684227 8.00329071,61.5784174 L8.74990199,89 L58.2501093,89 L58.9967206,61.5784174 C59.0922194,58.0682478 57.094832,54.8465109 53.9385539,53.4197392 Z" id="路径" fill="#3558B0"></path>
                    <g id="编组" transform="translate(7.000000, 55.000000)" fill="#9BB6FB">
                        <path d="M9.71874747,9.26843523 L2.45520539,0.133005181 C0.891353535,1.78508808 -0.0175084175,4.01094301 0.0476228956,6.38195855 L0.807313131,33.9998238 L9.71874747,33.9998238 L9.71874747,9.26843523 Z" id="路径"></path>
                        <path d="M42.2632189,9.26843523 L49.5267609,0.133005181 C51.0906128,1.78508808 51.9996498,4.01094301 51.9343434,6.38195855 L51.1746532,33.9998238 L42.2632189,33.9998238 L42.2632189,9.26843523 L42.2632189,9.26843523 Z" id="路径"></path>
                    </g>
                    <path d="M26,44.3570477 C28.1420441,45.4109349 30.5146525,46 33,46 C35.4855171,46 37.8581255,45.4111165 40,44.3570477 L40,40 L26,40 L26,44.3570477 Z" id="路径" fill="#D29B6E"></path>
                    <path d="M46.3845891,33.2668761 C46.7561217,32.1169217 46.9657087,30.915667 46.9971206,29.7090757 C47.2098487,21.5271851 35.5937398,23.4430297 26.0506397,17.2489419 C25.3857552,16.8173647 24.4995915,16.9549116 24.0451665,17.5996091 C22.5372223,19.7397636 20.8305108,21.4318147 19.8241094,22.3450643 C19.2897586,22.8300076 18.5964289,23.0971826 17.8702912,23.0971826 L16.8333505,23.0971826 C16.832478,23.0971826 16.8319544,23.0976991 16.8310819,23.0976991 C16.6729755,23.1006256 16.5112044,23.1169798 16.3466411,23.148483 C14.9441012,23.4163466 14,24.7401713 14,26.1493818 L14,27.177799 C14,28.537775 14.8826735,29.8208004 16.2251818,30.1296354 C16.5274338,30.1991835 16.8214838,30.2188085 17.1031436,30.1967734 C17.8196832,30.1403086 18.4453029,30.6546894 18.5742661,31.3522365 C19.7995034,37.9760079 25.6658443,43 32.7345618,43 C38.7419071,43 43.8691965,39.3655934 46.0291115,34.2102518 C46.1332942,33.9592587 46.3639969,33.3279889 46.3845891,33.2668761 Z" id="路径" fill="#F0C087"></path>
                    <path d="M24.8112584,28.4782015 L24.8112584,17 C23.3339772,19.211303 21.6514992,20.9604745 20.6645518,21.9012675 C20.1448557,22.3966345 19.4705407,22.6695524 18.7643175,22.6695524 L17.7558151,22.6695524 C17.7549665,22.6695524 17.7544573,22.6700799 17.7536087,22.6700799 C17.6000081,22.6730694 17.443013,22.689775 17.2833024,22.7217796 C15.9192273,22.9948733 15,24.3459223 15,25.7854235 L15,26.8377048 C15,28.2267372 15.8582963,29.537165 17.1639861,29.8529901 C17.4579488,29.9240332 17.7441041,29.9442558 18.0180393,29.9215713 C18.7149277,29.8638928 19.3233896,30.38933 19.448816,31.1018708 C20.640451,37.8680185 26.3459064,43 33.220763,43 C34.1737655,43 35.1009699,42.8922045 36,42.7043976 C29.6146286,41.3491282 24.8112584,35.4949342 24.8112584,28.4782015 Z" id="路径" fill="#E6AF78"></path>
                    <path d="M64.565055,89 L1.43477128,89 C0.641633607,89 0,88.3282877 0,87.5 C0,86.6717123 0.64180735,86 1.43477128,86 L64.5652287,86 C65.3583664,86 66,86.6717123 66,87.5 C66,88.3282877 65.3581926,89 64.565055,89 Z" id="路径" fill="#C39772"></path>
                    <g id="编组" transform="translate(20.000000, 48.000000)" fill="#C9D8FF">
                        <path d="M2.87733333,8.31316667 L0.117173333,3.00516667 L3.22816,0.450166667 C3.86498667,-0.073 4.83097333,0.0393333333 5.31994667,0.693166667 L10.1370533,7.13433333 L7.15572,9.28433333 C5.72676,10.3146667 3.67622667,9.84933333 2.87733333,8.31316667 Z" id="路径"></path>
                        <path d="M23.12232,8.31316667 L25.88248,3.00516667 L22.7714933,0.450166667 C22.1346667,-0.073 21.16868,0.0393333333 20.6797067,0.693166667 L15.8626,7.13433333 L18.8439333,9.28433333 C20.2728933,10.3146667 22.3234267,9.84933333 23.12232,8.31316667 Z" id="路径"></path>
                    </g>
                    <path d="M49.0159901,86 L16.9841844,86 C15.4581873,86 14.1967312,84.8347639 14.1070385,83.342318 L13.0050749,64.9893366 C12.9077042,63.367477 14.2239531,62 15.8822208,62 L50.1177792,62 C51.7760469,62 53.0922958,63.367477 52.9949251,64.9893366 L51.8929615,83.342318 C51.8034433,84.8345929 50.5419872,86 49.0159901,86 Z" id="路径" fill="#DBD9DC"></path>
                    <circle id="椭圆形" fill="#FFFFFF" cx="33.5" cy="74.5" r="3.5"></circle>
                </g>
            </g>
        </g>
    </g>
</svg>