<svg width="541" height="193" viewBox="0 0 541 193" fill="none" xmlns="http://www.w3.org/2000/svg">
<g id="&#231;&#188;&#150;&#231;&#187;&#132; 52">
<g id="&#231;&#188;&#150;&#231;&#187;&#132; 6">
<path id="91" d="M424.092 68.7246C424.092 72.9434 423.204 76.0928 421.426 78.1729C419.649 80.2529 416.959 81.293 413.355 81.293C412.086 81.293 411.124 81.2246 410.469 81.0879V77.4551C411.29 77.6602 412.149 77.7627 413.047 77.7627C414.561 77.7627 415.806 77.543 416.783 77.1035C417.759 76.6543 418.506 75.9561 419.024 75.0088C419.542 74.0518 419.839 72.7383 419.918 71.0684H419.742C419.175 71.9863 418.521 72.6309 417.779 73.002C417.037 73.373 416.109 73.5586 414.996 73.5586C413.13 73.5586 411.661 72.9629 410.587 71.7715C409.512 70.5703 408.975 68.9053 408.975 66.7764C408.975 64.4814 409.625 62.6699 410.923 61.3418C412.232 60.0039 414.009 59.335 416.255 59.335C417.837 59.335 419.219 59.7061 420.401 60.4482C421.592 61.1904 422.505 62.2695 423.14 63.6855C423.775 65.0918 424.092 66.7715 424.092 68.7246ZM416.343 62.9678C415.406 62.9678 414.673 63.29 414.146 63.9346C413.619 64.5791 413.355 65.5068 413.355 66.7178C413.355 67.7529 413.594 68.5732 414.073 69.1787C414.551 69.7842 415.279 70.0869 416.255 70.0869C417.173 70.0869 417.96 69.7891 418.614 69.1934C419.268 68.5879 419.595 67.8945 419.595 67.1133C419.595 65.9512 419.288 64.9697 418.672 64.1689C418.067 63.3682 417.291 62.9678 416.343 62.9678ZM438.246 81H433.719V68.6074L433.763 66.5713L433.836 64.3447C433.084 65.0967 432.562 65.5898 432.269 65.8242L429.808 67.8018L427.625 65.0771L434.525 59.584H438.246V81Z" fill="#0D44CC"/>
<path id="&#239;&#188;&#136;0-100&#239;&#188;&#137;" d="M402.606 130.595C401.946 131.555 401.436 132.59 401.061 133.685C400.611 134.975 400.401 136.28 400.401 137.615C400.401 138.92 400.611 140.225 401.061 141.515C401.436 142.595 401.946 143.63 402.606 144.605H403.656C403.056 143.6 402.576 142.565 402.231 141.5C401.781 140.18 401.571 138.875 401.571 137.6C401.571 136.31 401.781 135.02 402.231 133.7C402.576 132.62 403.056 131.585 403.656 130.595H402.606ZM413.039 137.631C413.039 139.482 412.746 140.864 412.16 141.777C411.579 142.69 410.688 143.146 409.487 143.146C408.334 143.146 407.458 142.68 406.857 141.748C406.257 140.81 405.956 139.438 405.956 137.631C405.956 135.766 406.247 134.382 406.828 133.479C407.409 132.575 408.295 132.124 409.487 132.124C410.649 132.124 411.53 132.595 412.131 133.537C412.736 134.479 413.039 135.844 413.039 137.631ZM407.187 137.631C407.187 139.189 407.37 140.324 407.736 141.037C408.102 141.745 408.686 142.099 409.487 142.099C410.297 142.099 410.883 141.74 411.244 141.022C411.611 140.3 411.794 139.169 411.794 137.631C411.794 136.093 411.611 134.968 411.244 134.255C410.883 133.537 410.297 133.178 409.487 133.178C408.686 133.178 408.102 133.532 407.736 134.24C407.37 134.943 407.187 136.074 407.187 137.631ZM414.761 139.536V138.422H418.358V139.536H414.761ZM424.57 143H423.383V135.368C423.383 134.733 423.403 134.133 423.442 133.566C423.339 133.669 423.225 133.776 423.098 133.889C422.971 134.001 422.39 134.477 421.354 135.317L420.71 134.482L423.544 132.292H424.57V143ZM436.1 137.631C436.1 139.482 435.807 140.864 435.221 141.777C434.64 142.69 433.748 143.146 432.547 143.146C431.395 143.146 430.518 142.68 429.918 141.748C429.317 140.81 429.017 139.438 429.017 137.631C429.017 135.766 429.308 134.382 429.889 133.479C430.47 132.575 431.356 132.124 432.547 132.124C433.709 132.124 434.591 132.595 435.191 133.537C435.797 134.479 436.1 135.844 436.1 137.631ZM430.247 137.631C430.247 139.189 430.431 140.324 430.797 141.037C431.163 141.745 431.746 142.099 432.547 142.099C433.358 142.099 433.944 141.74 434.305 141.022C434.671 140.3 434.854 139.169 434.854 137.631C434.854 136.093 434.671 134.968 434.305 134.255C433.944 133.537 433.358 133.178 432.547 133.178C431.746 133.178 431.163 133.532 430.797 134.24C430.431 134.943 430.247 136.074 430.247 137.631ZM445.036 137.631C445.036 139.482 444.743 140.864 444.158 141.777C443.576 142.69 442.685 143.146 441.484 143.146C440.332 143.146 439.455 142.68 438.855 141.748C438.254 140.81 437.954 139.438 437.954 137.631C437.954 135.766 438.244 134.382 438.826 133.479C439.407 132.575 440.293 132.124 441.484 132.124C442.646 132.124 443.528 132.595 444.128 133.537C444.734 134.479 445.036 135.844 445.036 137.631ZM439.184 137.631C439.184 139.189 439.368 140.324 439.734 141.037C440.1 141.745 440.683 142.099 441.484 142.099C442.295 142.099 442.881 141.74 443.242 141.022C443.608 140.3 443.791 139.169 443.791 137.631C443.791 136.093 443.608 134.968 443.242 134.255C442.881 133.537 442.295 133.178 441.484 133.178C440.683 133.178 440.1 133.532 439.734 134.24C439.368 134.943 439.184 136.074 439.184 137.631ZM447.344 130.595C447.944 131.585 448.409 132.62 448.769 133.7C449.204 135.02 449.429 136.31 449.429 137.6C449.429 138.875 449.204 140.18 448.769 141.5C448.409 142.565 447.944 143.6 447.344 144.605H448.394C449.039 143.63 449.549 142.595 449.939 141.515C450.374 140.225 450.599 138.92 450.599 137.615C450.599 136.28 450.374 134.975 449.939 133.685C449.549 132.59 449.039 131.555 448.394 130.595H447.344Z" fill="#8C8C8C"/>
<path id="average users&#226;&#128;&#153; satis" d="M324.056 120L323.782 118.705H323.715C323.262 119.275 322.808 119.662 322.354 119.867C321.906 120.066 321.344 120.166 320.669 120.166C319.767 120.166 319.059 119.934 318.544 119.469C318.035 119.004 317.78 118.343 317.78 117.485C317.78 115.648 319.25 114.685 322.188 114.596L323.732 114.546V113.982C323.732 113.268 323.577 112.742 323.267 112.405C322.963 112.062 322.473 111.89 321.798 111.89C321.04 111.89 320.182 112.123 319.225 112.587L318.801 111.533C319.25 111.29 319.739 111.099 320.271 110.96C320.807 110.822 321.344 110.753 321.881 110.753C322.965 110.753 323.768 110.994 324.288 111.475C324.814 111.957 325.077 112.729 325.077 113.791V120H324.056ZM320.943 119.029C321.801 119.029 322.473 118.794 322.96 118.323C323.452 117.853 323.699 117.194 323.699 116.348V115.526L322.321 115.584C321.225 115.623 320.434 115.794 319.947 116.099C319.465 116.397 319.225 116.865 319.225 117.501C319.225 118 319.374 118.379 319.673 118.639C319.977 118.899 320.401 119.029 320.943 119.029ZM330.316 120L326.863 110.902H328.34L330.299 116.298C330.742 117.56 331.002 118.379 331.08 118.755H331.146C331.207 118.462 331.398 117.856 331.719 116.937C332.045 116.013 332.773 114.001 333.902 110.902H335.379L331.926 120H330.316ZM341.084 120.166C339.739 120.166 338.676 119.757 337.896 118.938C337.121 118.118 336.734 116.981 336.734 115.526C336.734 114.059 337.094 112.895 337.813 112.031C338.538 111.168 339.509 110.736 340.727 110.736C341.867 110.736 342.769 111.113 343.433 111.865C344.097 112.612 344.429 113.6 344.429 114.829V115.7H338.162C338.189 116.768 338.458 117.579 338.967 118.132C339.482 118.686 340.204 118.962 341.133 118.962C342.113 118.962 343.081 118.758 344.039 118.348V119.577C343.552 119.787 343.09 119.936 342.653 120.025C342.221 120.119 341.698 120.166 341.084 120.166ZM340.71 111.89C339.98 111.89 339.396 112.128 338.959 112.604C338.527 113.08 338.272 113.738 338.195 114.58H342.951C342.951 113.711 342.758 113.047 342.37 112.587C341.983 112.123 341.43 111.89 340.71 111.89ZM351.337 110.736C351.741 110.736 352.103 110.77 352.424 110.836L352.233 112.114C351.857 112.031 351.525 111.99 351.237 111.99C350.501 111.99 349.87 112.289 349.345 112.886C348.824 113.484 348.564 114.228 348.564 115.119V120H347.186V110.902H348.324L348.481 112.587H348.548C348.885 111.995 349.292 111.539 349.768 111.218C350.244 110.897 350.767 110.736 351.337 110.736ZM360.121 120L359.847 118.705H359.78C359.326 119.275 358.873 119.662 358.419 119.867C357.971 120.066 357.409 120.166 356.734 120.166C355.832 120.166 355.123 119.934 354.609 119.469C354.1 119.004 353.845 118.343 353.845 117.485C353.845 115.648 355.314 114.685 358.253 114.596L359.797 114.546V113.982C359.797 113.268 359.642 112.742 359.332 112.405C359.028 112.062 358.538 111.89 357.863 111.89C357.105 111.89 356.247 112.123 355.289 112.587L354.866 111.533C355.314 111.29 355.804 111.099 356.335 110.96C356.872 110.822 357.409 110.753 357.946 110.753C359.03 110.753 359.833 110.994 360.353 111.475C360.879 111.957 361.142 112.729 361.142 113.791V120H360.121ZM357.008 119.029C357.865 119.029 358.538 118.794 359.025 118.323C359.517 117.853 359.764 117.194 359.764 116.348V115.526L358.386 115.584C357.29 115.623 356.499 115.794 356.012 116.099C355.53 116.397 355.289 116.865 355.289 117.501C355.289 118 355.439 118.379 355.738 118.639C356.042 118.899 356.465 119.029 357.008 119.029ZM371.834 110.902V111.774L370.149 111.973C370.304 112.167 370.443 112.421 370.564 112.737C370.686 113.047 370.747 113.398 370.747 113.791C370.747 114.682 370.443 115.393 369.834 115.924C369.225 116.456 368.39 116.721 367.327 116.721C367.056 116.721 366.801 116.699 366.563 116.655C365.977 116.965 365.684 117.355 365.684 117.825C365.684 118.074 365.786 118.26 365.991 118.381C366.195 118.498 366.547 118.556 367.045 118.556H368.655C369.64 118.556 370.396 118.763 370.921 119.178C371.453 119.593 371.718 120.196 371.718 120.988C371.718 121.995 371.314 122.761 370.506 123.287C369.698 123.818 368.52 124.084 366.97 124.084C365.78 124.084 364.862 123.863 364.214 123.42C363.572 122.977 363.251 122.352 363.251 121.544C363.251 120.991 363.429 120.512 363.783 120.108C364.137 119.704 364.635 119.43 365.277 119.286C365.044 119.181 364.848 119.018 364.688 118.796C364.533 118.575 364.455 118.318 364.455 118.024C364.455 117.692 364.544 117.402 364.721 117.153C364.898 116.904 365.177 116.663 365.559 116.431C365.089 116.237 364.704 115.908 364.405 115.443C364.112 114.978 363.965 114.447 363.965 113.849C363.965 112.853 364.264 112.087 364.862 111.55C365.459 111.007 366.306 110.736 367.402 110.736C367.878 110.736 368.307 110.792 368.688 110.902H371.834ZM364.58 121.527C364.58 122.02 364.787 122.393 365.202 122.648C365.617 122.903 366.212 123.03 366.987 123.03C368.143 123.03 368.998 122.855 369.552 122.507C370.111 122.164 370.39 121.696 370.39 121.104C370.39 120.611 370.238 120.268 369.934 120.075C369.629 119.887 369.056 119.792 368.215 119.792H366.563C365.938 119.792 365.451 119.942 365.103 120.241C364.754 120.54 364.58 120.968 364.58 121.527ZM365.327 113.816C365.327 114.452 365.507 114.934 365.866 115.26C366.226 115.587 366.727 115.75 367.369 115.75C368.713 115.75 369.386 115.097 369.386 113.791C369.386 112.424 368.705 111.741 367.344 111.741C366.696 111.741 366.198 111.915 365.85 112.264C365.501 112.612 365.327 113.13 365.327 113.816ZM377.945 120.166C376.601 120.166 375.538 119.757 374.758 118.938C373.983 118.118 373.596 116.981 373.596 115.526C373.596 114.059 373.956 112.895 374.675 112.031C375.4 111.168 376.371 110.736 377.588 110.736C378.728 110.736 379.63 111.113 380.295 111.865C380.959 112.612 381.291 113.6 381.291 114.829V115.7H375.024C375.051 116.768 375.32 117.579 375.829 118.132C376.343 118.686 377.066 118.962 377.995 118.962C378.975 118.962 379.943 118.758 380.9 118.348V119.577C380.414 119.787 379.951 119.936 379.514 120.025C379.083 120.119 378.56 120.166 377.945 120.166ZM377.572 111.89C376.841 111.89 376.258 112.128 375.82 112.604C375.389 113.08 375.134 113.738 375.057 114.58H379.813C379.813 113.711 379.619 113.047 379.232 112.587C378.845 112.123 378.291 111.89 377.572 111.89ZM390.159 110.902V116.804C390.159 117.546 390.328 118.099 390.665 118.464C391.003 118.83 391.531 119.012 392.251 119.012C393.203 119.012 393.897 118.752 394.334 118.232C394.777 117.712 394.998 116.862 394.998 115.684V110.902H396.376V120H395.239L395.04 118.78H394.965C394.683 119.228 394.29 119.571 393.786 119.809C393.288 120.047 392.718 120.166 392.076 120.166C390.97 120.166 390.14 119.903 389.586 119.377C389.038 118.852 388.764 118.011 388.764 116.854V110.902H390.159ZM405.575 117.518C405.575 118.365 405.26 119.018 404.629 119.477C403.998 119.936 403.113 120.166 401.973 120.166C400.766 120.166 399.825 119.975 399.15 119.593V118.315C399.587 118.536 400.055 118.711 400.553 118.838C401.057 118.965 401.541 119.029 402.006 119.029C402.725 119.029 403.279 118.915 403.666 118.688C404.053 118.456 404.247 118.105 404.247 117.634C404.247 117.28 404.092 116.979 403.782 116.729C403.478 116.475 402.88 116.176 401.989 115.833C401.142 115.518 400.539 115.244 400.18 115.011C399.825 114.773 399.56 114.505 399.383 114.206C399.211 113.907 399.125 113.55 399.125 113.135C399.125 112.394 399.427 111.81 400.03 111.384C400.633 110.952 401.461 110.736 402.512 110.736C403.492 110.736 404.449 110.936 405.384 111.334L404.894 112.455C403.981 112.078 403.154 111.89 402.412 111.89C401.76 111.89 401.267 111.993 400.935 112.197C400.603 112.402 400.437 112.684 400.437 113.044C400.437 113.287 400.498 113.495 400.62 113.667C400.747 113.838 400.949 114.001 401.225 114.156C401.502 114.311 402.033 114.535 402.819 114.829C403.898 115.222 404.626 115.617 405.002 116.016C405.384 116.414 405.575 116.915 405.575 117.518ZM412.068 120.166C410.723 120.166 409.661 119.757 408.88 118.938C408.106 118.118 407.718 116.981 407.718 115.526C407.718 114.059 408.078 112.895 408.797 112.031C409.522 111.168 410.493 110.736 411.711 110.736C412.851 110.736 413.753 111.113 414.417 111.865C415.081 112.612 415.413 113.6 415.413 114.829V115.7H409.146C409.174 116.768 409.442 117.579 409.951 118.132C410.466 118.686 411.188 118.962 412.118 118.962C413.097 118.962 414.066 118.758 415.023 118.348V119.577C414.536 119.787 414.074 119.936 413.637 120.025C413.205 120.119 412.682 120.166 412.068 120.166ZM411.694 111.89C410.964 111.89 410.38 112.128 409.943 112.604C409.511 113.08 409.257 113.738 409.179 114.58H413.936C413.936 113.711 413.742 113.047 413.354 112.587C412.967 112.123 412.414 111.89 411.694 111.89ZM422.321 110.736C422.725 110.736 423.087 110.77 423.408 110.836L423.217 112.114C422.841 112.031 422.509 111.99 422.221 111.99C421.485 111.99 420.854 112.289 420.329 112.886C419.809 113.484 419.548 114.228 419.548 115.119V120H418.171V110.902H419.308L419.465 112.587H419.532C419.869 111.995 420.276 111.539 420.752 111.218C421.228 110.897 421.751 110.736 422.321 110.736ZM431.379 117.518C431.379 118.365 431.063 119.018 430.432 119.477C429.801 119.936 428.916 120.166 427.776 120.166C426.57 120.166 425.629 119.975 424.954 119.593V118.315C425.391 118.536 425.859 118.711 426.357 118.838C426.86 118.965 427.344 119.029 427.809 119.029C428.529 119.029 429.082 118.915 429.469 118.688C429.857 118.456 430.05 118.105 430.05 117.634C430.05 117.28 429.896 116.979 429.586 116.729C429.281 116.475 428.684 116.176 427.793 115.833C426.946 115.518 426.343 115.244 425.983 115.011C425.629 114.773 425.363 114.505 425.186 114.206C425.015 113.907 424.929 113.55 424.929 113.135C424.929 112.394 425.231 111.81 425.834 111.384C426.437 110.952 427.264 110.736 428.316 110.736C429.295 110.736 430.252 110.936 431.188 111.334L430.698 112.455C429.785 112.078 428.958 111.89 428.216 111.89C427.563 111.89 427.071 111.993 426.738 112.197C426.406 112.402 426.24 112.684 426.24 113.044C426.24 113.287 426.301 113.495 426.423 113.667C426.55 113.838 426.752 114.001 427.029 114.156C427.306 114.311 427.837 114.535 428.623 114.829C429.702 115.222 430.43 115.617 430.806 116.016C431.188 116.414 431.379 116.915 431.379 117.518ZM435.132 107.864L435.257 108.047C435.113 108.6 434.905 109.245 434.634 109.981C434.363 110.711 434.081 111.392 433.787 112.023H432.775C433.162 110.446 433.444 109.06 433.621 107.864H435.132ZM448.001 117.518C448.001 118.365 447.686 119.018 447.055 119.477C446.424 119.936 445.539 120.166 444.399 120.166C443.193 120.166 442.252 119.975 441.577 119.593V118.315C442.014 118.536 442.481 118.711 442.979 118.838C443.483 118.965 443.967 119.029 444.432 119.029C445.152 119.029 445.705 118.915 446.092 118.688C446.48 118.456 446.673 118.105 446.673 117.634C446.673 117.28 446.518 116.979 446.208 116.729C445.904 116.475 445.306 116.176 444.416 115.833C443.569 115.518 442.966 115.244 442.606 115.011C442.252 114.773 441.986 114.505 441.809 114.206C441.638 113.907 441.552 113.55 441.552 113.135C441.552 112.394 441.853 111.81 442.457 111.384C443.06 110.952 443.887 110.736 444.938 110.736C445.918 110.736 446.875 110.936 447.811 111.334L447.321 112.455C446.408 112.078 445.58 111.89 444.839 111.89C444.186 111.89 443.693 111.993 443.361 112.197C443.029 112.402 442.863 112.684 442.863 113.044C442.863 113.287 442.924 113.495 443.046 113.667C443.173 113.838 443.375 114.001 443.652 114.156C443.929 114.311 444.46 114.535 445.246 114.829C446.325 115.222 447.052 115.617 447.429 116.016C447.811 116.414 448.001 116.915 448.001 117.518ZM456.246 120L455.972 118.705H455.905C455.452 119.275 454.998 119.662 454.544 119.867C454.096 120.066 453.534 120.166 452.859 120.166C451.957 120.166 451.249 119.934 450.734 119.469C450.225 119.004 449.97 118.343 449.97 117.485C449.97 115.648 451.44 114.685 454.378 114.596L455.922 114.546V113.982C455.922 113.268 455.767 112.742 455.457 112.405C455.153 112.062 454.663 111.89 453.988 111.89C453.23 111.89 452.372 112.123 451.415 112.587L450.991 111.533C451.44 111.29 451.929 111.099 452.461 110.96C452.997 110.822 453.534 110.753 454.071 110.753C455.156 110.753 455.958 110.994 456.478 111.475C457.004 111.957 457.267 112.729 457.267 113.791V120H456.246ZM453.133 119.029C453.991 119.029 454.663 118.794 455.15 118.323C455.643 117.853 455.889 117.194 455.889 116.348V115.526L454.511 115.584C453.415 115.623 452.624 115.794 452.137 116.099C451.655 116.397 451.415 116.865 451.415 117.501C451.415 118 451.564 118.379 451.863 118.639C452.167 118.899 452.591 119.029 453.133 119.029ZM463.452 119.029C463.696 119.029 463.931 119.012 464.158 118.979C464.385 118.94 464.565 118.902 464.697 118.863V119.917C464.548 119.989 464.327 120.047 464.033 120.091C463.746 120.141 463.486 120.166 463.253 120.166C461.493 120.166 460.613 119.239 460.613 117.385V111.973H459.31V111.309L460.613 110.736L461.195 108.794H461.991V110.902H464.631V111.973H461.991V117.327C461.991 117.875 462.121 118.296 462.382 118.589C462.642 118.882 462.999 119.029 463.452 119.029ZM468.302 120H466.924V110.902H468.302V120ZM466.807 108.437C466.807 108.122 466.885 107.892 467.04 107.748C467.195 107.599 467.388 107.524 467.621 107.524C467.842 107.524 468.033 107.599 468.194 107.748C468.354 107.897 468.434 108.127 468.434 108.437C468.434 108.747 468.354 108.979 468.194 109.134C468.033 109.284 467.842 109.358 467.621 109.358C467.388 109.358 467.195 109.284 467.04 109.134C466.885 108.979 466.807 108.747 466.807 108.437ZM477.492 117.518C477.492 118.365 477.177 119.018 476.546 119.477C475.915 119.936 475.03 120.166 473.89 120.166C472.683 120.166 471.742 119.975 471.067 119.593V118.315C471.504 118.536 471.972 118.711 472.47 118.838C472.974 118.965 473.458 119.029 473.923 119.029C474.642 119.029 475.196 118.915 475.583 118.688C475.97 118.456 476.164 118.105 476.164 117.634C476.164 117.28 476.009 116.979 475.699 116.729C475.395 116.475 474.797 116.176 473.906 115.833C473.059 115.518 472.456 115.244 472.097 115.011C471.742 114.773 471.477 114.505 471.3 114.206C471.128 113.907 471.042 113.55 471.042 113.135C471.042 112.394 471.344 111.81 471.947 111.384C472.55 110.952 473.378 110.736 474.429 110.736C475.409 110.736 476.366 110.936 477.301 111.334L476.811 112.455C475.898 112.078 475.071 111.89 474.329 111.89C473.677 111.89 473.184 111.993 472.852 112.197C472.52 112.402 472.354 112.684 472.354 113.044C472.354 113.287 472.415 113.495 472.537 113.667C472.664 113.838 472.866 114.001 473.142 114.156C473.419 114.311 473.95 114.535 474.736 114.829C475.815 115.222 476.543 115.617 476.919 116.016C477.301 116.414 477.492 116.915 477.492 117.518ZM484.242 111.973H481.926V120H480.548V111.973H478.921V111.351L480.548 110.853V110.346C480.548 108.111 481.525 106.993 483.479 106.993C483.96 106.993 484.524 107.09 485.172 107.283L484.815 108.387C484.284 108.216 483.83 108.13 483.454 108.13C482.933 108.13 482.549 108.304 482.3 108.653C482.051 108.996 481.926 109.549 481.926 110.313V110.902H484.242V111.973ZM491.897 120L491.623 118.705H491.557C491.103 119.275 490.649 119.662 490.195 119.867C489.747 120.066 489.185 120.166 488.51 120.166C487.608 120.166 486.9 119.934 486.385 119.469C485.876 119.004 485.622 118.343 485.622 117.485C485.622 115.648 487.091 114.685 490.029 114.596L491.573 114.546V113.982C491.573 113.268 491.418 112.742 491.108 112.405C490.804 112.062 490.314 111.89 489.639 111.89C488.881 111.89 488.023 112.123 487.066 112.587L486.643 111.533C487.091 111.29 487.581 111.099 488.112 110.96C488.649 110.822 489.185 110.753 489.722 110.753C490.807 110.753 491.609 110.994 492.129 111.475C492.655 111.957 492.918 112.729 492.918 113.791V120H491.897ZM488.784 119.029C489.642 119.029 490.314 118.794 490.801 118.323C491.294 117.853 491.54 117.194 491.54 116.348V115.526L490.162 115.584C489.066 115.623 488.275 115.794 487.788 116.099C487.307 116.397 487.066 116.865 487.066 117.501C487.066 118 487.215 118.379 487.514 118.639C487.819 118.899 488.242 119.029 488.784 119.029ZM499.801 120.166C498.484 120.166 497.463 119.762 496.738 118.954C496.019 118.141 495.659 116.992 495.659 115.509C495.659 113.987 496.024 112.812 496.755 111.981C497.491 111.151 498.536 110.736 499.892 110.736C500.329 110.736 500.767 110.783 501.204 110.877C501.641 110.972 501.984 111.082 502.233 111.209L501.81 112.38C501.505 112.258 501.173 112.159 500.814 112.081C500.454 111.998 500.136 111.957 499.859 111.957C498.011 111.957 497.087 113.135 497.087 115.493C497.087 116.611 497.311 117.468 497.759 118.066C498.213 118.664 498.882 118.962 499.768 118.962C500.526 118.962 501.303 118.799 502.1 118.473V119.693C501.492 120.008 500.725 120.166 499.801 120.166ZM507.605 119.029C507.849 119.029 508.084 119.012 508.311 118.979C508.538 118.94 508.718 118.902 508.85 118.863V119.917C508.701 119.989 508.48 120.047 508.186 120.091C507.899 120.141 507.638 120.166 507.406 120.166C505.646 120.166 504.766 119.239 504.766 117.385V111.973H503.463V111.309L504.766 110.736L505.347 108.794H506.144V110.902H508.784V111.973H506.144V117.327C506.144 117.875 506.274 118.296 506.534 118.589C506.795 118.882 507.151 119.029 507.605 119.029ZM512.454 120H511.077V110.902H512.454V120ZM510.96 108.437C510.96 108.122 511.038 107.892 511.193 107.748C511.348 107.599 511.541 107.524 511.774 107.524C511.995 107.524 512.186 107.599 512.347 107.748C512.507 107.897 512.587 108.127 512.587 108.437C512.587 108.747 512.507 108.979 512.347 109.134C512.186 109.284 511.995 109.358 511.774 109.358C511.541 109.358 511.348 109.284 511.193 109.134C511.038 108.979 510.96 108.747 510.96 108.437ZM523.629 115.443C523.629 116.926 523.255 118.085 522.508 118.921C521.761 119.751 520.729 120.166 519.412 120.166C518.599 120.166 517.876 119.975 517.246 119.593C516.615 119.211 516.128 118.664 515.785 117.95C515.442 117.236 515.27 116.4 515.27 115.443C515.27 113.96 515.641 112.806 516.382 111.981C517.124 111.151 518.153 110.736 519.47 110.736C520.743 110.736 521.753 111.16 522.5 112.006C523.253 112.853 523.629 113.999 523.629 115.443ZM516.698 115.443C516.698 116.605 516.93 117.49 517.395 118.099C517.86 118.708 518.543 119.012 519.445 119.012C520.347 119.012 521.031 118.711 521.496 118.107C521.966 117.499 522.201 116.611 522.201 115.443C522.201 114.286 521.966 113.409 521.496 112.812C521.031 112.208 520.342 111.907 519.429 111.907C518.527 111.907 517.846 112.203 517.387 112.795C516.927 113.387 516.698 114.27 516.698 115.443ZM532.678 120V114.115C532.678 113.373 532.51 112.82 532.172 112.455C531.834 112.089 531.306 111.907 530.587 111.907C529.635 111.907 528.937 112.164 528.495 112.679C528.052 113.193 527.831 114.043 527.831 115.227V120H526.453V110.902H527.573L527.797 112.147H527.864C528.146 111.699 528.542 111.353 529.051 111.11C529.56 110.861 530.127 110.736 530.753 110.736C531.848 110.736 532.673 111.002 533.226 111.533C533.78 112.059 534.056 112.903 534.056 114.065V120H532.678Z" fill="#404040"/>
</g>
<path id="Final Usability Test" d="M3.11514 118H1.704V105.864H8.46914V107.118H3.11514V111.559H8.14541V112.812H3.11514V118ZM12.0566 118H10.6787V108.902H12.0566V118ZM10.5625 106.437C10.5625 106.122 10.64 105.892 10.7949 105.748C10.9499 105.599 11.1436 105.524 11.376 105.524C11.5973 105.524 11.7882 105.599 11.9487 105.748C12.1092 105.897 12.1895 106.127 12.1895 106.437C12.1895 106.747 12.1092 106.979 11.9487 107.134C11.7882 107.284 11.5973 107.358 11.376 107.358C11.1436 107.358 10.9499 107.284 10.7949 107.134C10.64 106.979 10.5625 106.747 10.5625 106.437ZM21.6041 118V112.115C21.6041 111.373 21.4353 110.82 21.0978 110.455C20.7602 110.089 20.2317 109.907 19.5123 109.907C18.5605 109.907 17.8632 110.164 17.4205 110.679C16.9778 111.193 16.7564 112.043 16.7564 113.227V118H15.3785V108.902H16.4991L16.7232 110.147H16.7896C17.0719 109.699 17.4675 109.353 17.9767 109.11C18.4858 108.861 19.053 108.736 19.6783 108.736C20.774 108.736 21.5986 109.002 22.152 109.533C22.7053 110.059 22.982 110.903 22.982 112.065V118H21.6041ZM31.8156 118L31.5417 116.705H31.4753C31.0215 117.275 30.5677 117.662 30.114 117.867C29.6657 118.066 29.104 118.166 28.4289 118.166C27.5269 118.166 26.8186 117.934 26.3039 117.469C25.7948 117.004 25.5402 116.343 25.5402 115.485C25.5402 113.648 27.0095 112.685 29.9479 112.596L31.4919 112.546V111.982C31.4919 111.268 31.3369 110.742 31.0271 110.405C30.7227 110.062 30.2329 109.89 29.5578 109.89C28.7997 109.89 27.9419 110.123 26.9846 110.587L26.5612 109.533C27.0095 109.29 27.4992 109.099 28.0305 108.96C28.5673 108.822 29.104 108.753 29.6408 108.753C30.7255 108.753 31.5279 108.994 32.048 109.475C32.5738 109.957 32.8366 110.729 32.8366 111.791V118H31.8156ZM28.7028 117.029C29.5606 117.029 30.2329 116.794 30.7199 116.323C31.2124 115.853 31.4587 115.194 31.4587 114.348V113.526L30.0808 113.584C28.9851 113.623 28.1937 113.794 27.7067 114.099C27.2253 114.397 26.9846 114.865 26.9846 115.501C26.9846 116 27.134 116.379 27.4328 116.639C27.7372 116.899 28.1605 117.029 28.7028 117.029ZM37.4617 118H36.0838V105.084H37.4617V118ZM54.9712 105.864V113.717C54.9712 115.1 54.5534 116.188 53.7178 116.979C52.8822 117.77 51.7339 118.166 50.2729 118.166C48.812 118.166 47.6803 117.768 46.8779 116.971C46.0811 116.174 45.6826 115.078 45.6826 113.684V105.864H47.0938V113.783C47.0938 114.796 47.3704 115.573 47.9238 116.116C48.4772 116.658 49.2907 116.929 50.3643 116.929C51.388 116.929 52.1766 116.658 52.73 116.116C53.2834 115.568 53.5601 114.785 53.5601 113.767V105.864H54.9712ZM64.253 115.518C64.253 116.365 63.9376 117.018 63.3067 117.477C62.6759 117.936 61.7905 118.166 60.6505 118.166C59.4441 118.166 58.5034 117.975 57.8282 117.593V116.315C58.2654 116.536 58.733 116.711 59.2311 116.838C59.7346 116.965 60.2188 117.029 60.6837 117.029C61.4031 117.029 61.9565 116.915 62.3438 116.688C62.7312 116.456 62.9249 116.105 62.9249 115.634C62.9249 115.28 62.77 114.979 62.4601 114.729C62.1557 114.475 61.558 114.176 60.6671 113.833C59.8204 113.518 59.2172 113.244 58.8575 113.011C58.5034 112.773 58.2377 112.505 58.0606 112.206C57.8891 111.907 57.8033 111.55 57.8033 111.135C57.8033 110.394 58.1049 109.81 58.7081 109.384C59.3113 108.952 60.1386 108.736 61.19 108.736C62.1695 108.736 63.1269 108.936 64.0621 109.334L63.5724 110.455C62.6593 110.078 61.832 109.89 61.0904 109.89C60.4374 109.89 59.9449 109.993 59.6129 110.197C59.2809 110.402 59.1148 110.684 59.1148 111.044C59.1148 111.287 59.1757 111.495 59.2975 111.667C59.4247 111.838 59.6267 112.001 59.9034 112.156C60.1801 112.311 60.7114 112.535 61.4972 112.829C62.5763 113.222 63.304 113.617 63.6803 114.016C64.0621 114.414 64.253 114.915 64.253 115.518ZM72.4973 118L72.2233 116.705H72.1569C71.7032 117.275 71.2494 117.662 70.7956 117.867C70.3474 118.066 69.7857 118.166 69.1105 118.166C68.2085 118.166 67.5002 117.934 66.9855 117.469C66.4764 117.004 66.2219 116.343 66.2219 115.485C66.2219 113.648 67.6911 112.685 70.6296 112.596L72.1735 112.546V111.982C72.1735 111.268 72.0186 110.742 71.7087 110.405C71.4043 110.062 70.9146 109.89 70.2394 109.89C69.4813 109.89 68.6236 110.123 67.6662 110.587L67.2429 109.533C67.6911 109.29 68.1809 109.099 68.7121 108.96C69.2489 108.822 69.7857 108.753 70.3225 108.753C71.4071 108.753 72.2095 108.994 72.7297 109.475C73.2554 109.957 73.5183 110.729 73.5183 111.791V118H72.4973ZM69.3845 117.029C70.2422 117.029 70.9146 116.794 71.4016 116.323C71.8941 115.853 72.1403 115.194 72.1403 114.348V113.526L70.7624 113.584C69.6667 113.623 68.8754 113.794 68.3884 114.099C67.9069 114.397 67.6662 114.865 67.6662 115.501C67.6662 116 67.8156 116.379 68.1144 116.639C68.4188 116.899 68.8422 117.029 69.3845 117.029ZM80.9988 108.753C82.1941 108.753 83.1211 109.162 83.7796 109.981C84.4436 110.795 84.7757 111.949 84.7757 113.443C84.7757 114.937 84.4409 116.099 83.7713 116.929C83.1072 117.754 82.1831 118.166 80.9988 118.166C80.4067 118.166 79.8644 118.058 79.3719 117.842C78.8849 117.621 78.4754 117.283 78.1434 116.83H78.0437L77.7532 118H76.7654V105.084H78.1434V108.222C78.1434 108.924 78.1212 109.555 78.077 110.114H78.1434C78.7853 109.207 79.7371 108.753 80.9988 108.753ZM80.7996 109.907C79.8589 109.907 79.181 110.178 78.7659 110.72C78.3509 111.257 78.1434 112.165 78.1434 113.443C78.1434 114.721 78.3564 115.637 78.7825 116.19C79.2086 116.738 79.8921 117.012 80.8328 117.012C81.6795 117.012 82.3103 116.705 82.7254 116.091C83.1404 115.471 83.3479 114.583 83.3479 113.426C83.3479 112.242 83.1404 111.359 82.7254 110.778C82.3103 110.197 81.6684 109.907 80.7996 109.907ZM88.9691 118H87.5912V108.902H88.9691V118ZM87.475 106.437C87.475 106.122 87.5525 105.892 87.7074 105.748C87.8624 105.599 88.0561 105.524 88.2885 105.524C88.5098 105.524 88.7007 105.599 88.8612 105.748C89.0217 105.897 89.102 106.127 89.102 106.437C89.102 106.747 89.0217 106.979 88.8612 107.134C88.7007 107.284 88.5098 107.358 88.2885 107.358C88.0561 107.358 87.8624 107.284 87.7074 107.134C87.5525 106.979 87.475 106.747 87.475 106.437ZM93.6689 118H92.291V105.084H93.6689V118ZM98.3688 118H96.9908V108.902H98.3688V118ZM96.8746 106.437C96.8746 106.122 96.9521 105.892 97.107 105.748C97.262 105.599 97.4557 105.524 97.6881 105.524C97.9094 105.524 98.1004 105.599 98.2608 105.748C98.4213 105.897 98.5016 106.127 98.5016 106.437C98.5016 106.747 98.4213 106.979 98.2608 107.134C98.1004 107.284 97.9094 107.358 97.6881 107.358C97.4557 107.358 97.262 107.284 97.107 107.134C96.9521 106.979 96.8746 106.747 96.8746 106.437ZM104.629 117.029C104.873 117.029 105.108 117.012 105.335 116.979C105.562 116.94 105.741 116.902 105.874 116.863V117.917C105.725 117.989 105.503 118.047 105.21 118.091C104.922 118.141 104.662 118.166 104.43 118.166C102.67 118.166 101.79 117.239 101.79 115.385V109.973H100.487V109.309L101.79 108.736L102.371 106.794H103.168V108.902H105.808V109.973H103.168V115.327C103.168 115.875 103.298 116.296 103.558 116.589C103.818 116.882 104.175 117.029 104.629 117.029ZM106.656 108.902H108.134L110.126 114.09C110.563 115.275 110.834 116.13 110.939 116.655H111.006C111.078 116.373 111.227 115.892 111.454 115.211C111.686 114.525 112.439 112.422 113.712 108.902H115.189L111.28 119.262C110.892 120.285 110.438 121.01 109.918 121.437C109.404 121.868 108.77 122.084 108.017 122.084C107.597 122.084 107.182 122.037 106.772 121.943V120.839C107.077 120.905 107.417 120.938 107.793 120.938C108.74 120.938 109.415 120.407 109.819 119.345L110.325 118.05L106.656 108.902ZM125.826 118H124.415V107.118H120.571V105.864H129.669V107.118H125.826V118ZM135.539 118.166C134.194 118.166 133.132 117.757 132.352 116.938C131.577 116.118 131.19 114.981 131.19 113.526C131.19 112.059 131.549 110.895 132.269 110.031C132.994 109.168 133.965 108.736 135.182 108.736C136.322 108.736 137.224 109.113 137.888 109.865C138.552 110.612 138.884 111.6 138.884 112.829V113.7H132.617C132.645 114.768 132.913 115.579 133.422 116.132C133.937 116.686 134.659 116.962 135.589 116.962C136.568 116.962 137.537 116.758 138.494 116.348V117.577C138.007 117.787 137.545 117.936 137.108 118.025C136.676 118.119 136.153 118.166 135.539 118.166ZM135.166 109.89C134.435 109.89 133.851 110.128 133.414 110.604C132.983 111.08 132.728 111.738 132.65 112.58H137.407C137.407 111.711 137.213 111.047 136.826 110.587C136.438 110.123 135.885 109.89 135.166 109.89ZM147.51 115.518C147.51 116.365 147.195 117.018 146.564 117.477C145.933 117.936 145.048 118.166 143.908 118.166C142.702 118.166 141.761 117.975 141.086 117.593V116.315C141.523 116.536 141.99 116.711 142.488 116.838C142.992 116.965 143.476 117.029 143.941 117.029C144.661 117.029 145.214 116.915 145.601 116.688C145.989 116.456 146.182 116.105 146.182 115.634C146.182 115.28 146.027 114.979 145.717 114.729C145.413 114.475 144.815 114.176 143.924 113.833C143.078 113.518 142.475 113.244 142.115 113.011C141.761 112.773 141.495 112.505 141.318 112.206C141.147 111.907 141.061 111.55 141.061 111.135C141.061 110.394 141.362 109.81 141.966 109.384C142.569 108.952 143.396 108.736 144.447 108.736C145.427 108.736 146.384 108.936 147.32 109.334L146.83 110.455C145.917 110.078 145.089 109.89 144.348 109.89C143.695 109.89 143.202 109.993 142.87 110.197C142.538 110.402 142.372 110.684 142.372 111.044C142.372 111.287 142.433 111.495 142.555 111.667C142.682 111.838 142.884 112.001 143.161 112.156C143.438 112.311 143.969 112.535 144.755 112.829C145.834 113.222 146.561 113.617 146.938 114.016C147.32 114.414 147.51 114.915 147.51 115.518ZM153.098 117.029C153.342 117.029 153.577 117.012 153.804 116.979C154.031 116.94 154.211 116.902 154.344 116.863V117.917C154.194 117.989 153.973 118.047 153.68 118.091C153.392 118.141 153.132 118.166 152.899 118.166C151.139 118.166 150.26 117.239 150.26 115.385V109.973H148.956V109.309L150.26 108.736L150.841 106.794H151.638V108.902H154.277V109.973H151.638V115.327C151.638 115.875 151.768 116.296 152.028 116.589C152.288 116.882 152.645 117.029 153.098 117.029ZM157.948 118H156.57V108.902H157.948V118ZM156.454 106.437C156.454 106.122 156.531 105.892 156.686 105.748C156.841 105.599 157.035 105.524 157.267 105.524C157.488 105.524 157.679 105.599 157.84 105.748C158 105.897 158.08 106.127 158.08 106.437C158.08 106.747 158 106.979 157.84 107.134C157.679 107.284 157.488 107.358 157.267 107.358C157.035 107.358 156.841 107.284 156.686 107.134C156.531 106.979 156.454 106.747 156.454 106.437ZM167.495 118V112.115C167.495 111.373 167.326 110.82 166.989 110.455C166.651 110.089 166.123 109.907 165.403 109.907C164.451 109.907 163.754 110.164 163.312 110.679C162.869 111.193 162.647 112.043 162.647 113.227V118H161.27V108.902H162.39L162.614 110.147H162.681C162.963 109.699 163.359 109.353 163.868 109.11C164.377 108.861 164.944 108.736 165.569 108.736C166.665 108.736 167.49 109.002 168.043 109.533C168.596 110.059 168.873 110.903 168.873 112.065V118H167.495ZM179.558 108.902V109.774L177.873 109.973C178.028 110.167 178.166 110.421 178.288 110.737C178.409 111.047 178.47 111.398 178.47 111.791C178.47 112.682 178.166 113.393 177.557 113.924C176.948 114.456 176.113 114.721 175.05 114.721C174.779 114.721 174.525 114.699 174.287 114.655C173.7 114.965 173.407 115.355 173.407 115.825C173.407 116.074 173.509 116.26 173.714 116.381C173.919 116.498 174.27 116.556 174.768 116.556H176.379C177.364 116.556 178.119 116.763 178.645 117.178C179.176 117.593 179.441 118.196 179.441 118.988C179.441 119.995 179.038 120.761 178.23 121.287C177.422 121.818 176.243 122.084 174.693 122.084C173.504 122.084 172.585 121.863 171.938 121.42C171.296 120.977 170.975 120.352 170.975 119.544C170.975 118.991 171.152 118.512 171.506 118.108C171.86 117.704 172.358 117.43 173 117.286C172.768 117.181 172.571 117.018 172.411 116.796C172.256 116.575 172.178 116.318 172.178 116.024C172.178 115.692 172.267 115.402 172.444 115.153C172.621 114.904 172.9 114.663 173.282 114.431C172.812 114.237 172.427 113.908 172.129 113.443C171.835 112.978 171.689 112.447 171.689 111.849C171.689 110.853 171.987 110.087 172.585 109.55C173.183 109.007 174.029 108.736 175.125 108.736C175.601 108.736 176.03 108.792 176.412 108.902H179.558ZM172.303 119.527C172.303 120.02 172.51 120.393 172.925 120.648C173.34 120.903 173.935 121.03 174.71 121.03C175.867 121.03 176.722 120.855 177.275 120.507C177.834 120.164 178.113 119.696 178.113 119.104C178.113 118.611 177.961 118.268 177.657 118.075C177.352 117.887 176.78 117.792 175.939 117.792H174.287C173.661 117.792 173.174 117.942 172.826 118.241C172.477 118.54 172.303 118.968 172.303 119.527ZM173.05 111.816C173.05 112.452 173.23 112.934 173.589 113.26C173.949 113.587 174.45 113.75 175.092 113.75C176.437 113.75 177.109 113.097 177.109 111.791C177.109 110.424 176.428 109.741 175.067 109.741C174.42 109.741 173.921 109.915 173.573 110.264C173.224 110.612 173.05 111.13 173.05 111.816Z" fill="#404040"/>
<path id="4 target users" d="M40.777 185.211H38.9757V188H37.6559V185.211H31.754V184.007L37.5147 175.798H38.9757V183.958H40.777V185.211ZM37.6559 183.958V179.923C37.6559 179.132 37.6835 178.238 37.7389 177.242H37.6725C37.4068 177.773 37.1578 178.213 36.9254 178.562L33.1319 183.958H37.6559ZM50.741 187.029C50.9845 187.029 51.2197 187.012 51.4466 186.979C51.6735 186.94 51.8533 186.902 51.9861 186.863V187.917C51.8367 187.989 51.6154 188.047 51.3221 188.091C51.0343 188.141 50.7742 188.166 50.5418 188.166C48.782 188.166 47.9022 187.239 47.9022 185.385V179.973H46.5989V179.309L47.9022 178.736L48.4832 176.794H49.2801V178.902H51.9197V179.973H49.2801V185.327C49.2801 185.875 49.4101 186.296 49.6702 186.589C49.9303 186.882 50.2872 187.029 50.741 187.029ZM59.807 188L59.5331 186.705H59.4667C59.0129 187.275 58.5591 187.662 58.1054 187.867C57.6571 188.066 57.0954 188.166 56.4203 188.166C55.5183 188.166 54.81 187.934 54.2953 187.469C53.7862 187.004 53.5316 186.343 53.5316 185.485C53.5316 183.648 55.0009 182.685 57.9394 182.596L59.4833 182.546V181.982C59.4833 181.268 59.3284 180.742 59.0185 180.405C58.7141 180.062 58.2244 179.89 57.5492 179.89C56.7911 179.89 55.9333 180.123 54.976 180.587L54.5526 179.533C55.0009 179.29 55.4906 179.099 56.0219 178.96C56.5587 178.822 57.0954 178.753 57.6322 178.753C58.7169 178.753 59.5193 178.994 60.0395 179.475C60.5652 179.957 60.828 180.729 60.828 181.791V188H59.807ZM56.6942 187.029C57.552 187.029 58.2244 186.794 58.7113 186.323C59.2038 185.853 59.4501 185.194 59.4501 184.348V183.526L58.0722 183.584C56.9765 183.623 56.1851 183.794 55.6981 184.099C55.2167 184.397 54.976 184.865 54.976 185.501C54.976 186 55.1254 186.379 55.4242 186.639C55.7286 186.899 56.1519 187.029 56.6942 187.029ZM68.2256 178.736C68.6296 178.736 68.992 178.77 69.313 178.836L69.1221 180.114C68.7458 180.031 68.4137 179.99 68.126 179.99C67.39 179.99 66.7591 180.289 66.2334 180.886C65.7132 181.484 65.4531 182.228 65.4531 183.119V188H64.0752V178.902H65.2124L65.3701 180.587H65.4365C65.7741 179.995 66.1808 179.539 66.6567 179.218C67.1327 178.897 67.6556 178.736 68.2256 178.736ZM78.8605 178.902V179.774L77.1754 179.973C77.3303 180.167 77.4687 180.421 77.5904 180.737C77.7122 181.047 77.773 181.398 77.773 181.791C77.773 182.682 77.4687 183.393 76.86 183.924C76.2512 184.456 75.4156 184.721 74.3531 184.721C74.082 184.721 73.8274 184.699 73.5895 184.655C73.0029 184.965 72.7096 185.355 72.7096 185.825C72.7096 186.074 72.8119 186.26 73.0167 186.381C73.2215 186.498 73.5729 186.556 74.0709 186.556H75.6813C76.6663 186.556 77.4216 186.763 77.9474 187.178C78.4786 187.593 78.7442 188.196 78.7442 188.988C78.7442 189.995 78.3403 190.761 77.5323 191.287C76.7244 191.818 75.5457 192.084 73.9962 192.084C72.8064 192.084 71.8878 191.863 71.2403 191.42C70.5984 190.977 70.2774 190.352 70.2774 189.544C70.2774 188.991 70.4545 188.512 70.8087 188.108C71.1629 187.704 71.6609 187.43 72.3028 187.286C72.0704 187.181 71.874 187.018 71.7135 186.796C71.5585 186.575 71.4811 186.318 71.4811 186.024C71.4811 185.692 71.5696 185.402 71.7467 185.153C71.9238 184.904 72.2032 184.663 72.5851 184.431C72.1147 184.237 71.7301 183.908 71.4313 183.443C71.138 182.978 70.9913 182.447 70.9913 181.849C70.9913 180.853 71.2901 180.087 71.8878 179.55C72.4855 179.007 73.3321 178.736 74.4278 178.736C74.9037 178.736 75.3326 178.792 75.7145 178.902H78.8605ZM71.6056 189.527C71.6056 190.02 71.8131 190.393 72.2281 190.648C72.6432 190.903 73.2381 191.03 74.0128 191.03C75.1694 191.03 76.0244 190.855 76.5777 190.507C77.1367 190.164 77.4161 189.696 77.4161 189.104C77.4161 188.611 77.2639 188.268 76.9596 188.075C76.6552 187.887 76.0825 187.792 75.2413 187.792H73.5895C72.9641 187.792 72.4771 187.942 72.1285 188.241C71.7799 188.54 71.6056 188.968 71.6056 189.527ZM72.3526 181.816C72.3526 182.452 72.5325 182.934 72.8922 183.26C73.2519 183.587 73.7527 183.75 74.3946 183.75C75.7394 183.75 76.4117 183.097 76.4117 181.791C76.4117 180.424 75.7311 179.741 74.3697 179.741C73.7223 179.741 73.2242 179.915 72.8756 180.264C72.527 180.612 72.3526 181.13 72.3526 181.816ZM84.9714 188.166C83.6267 188.166 82.5642 187.757 81.7839 186.938C81.0092 186.118 80.6218 184.981 80.6218 183.526C80.6218 182.059 80.9815 180.895 81.7009 180.031C82.4258 179.168 83.397 178.736 84.6145 178.736C85.7544 178.736 86.6564 179.113 87.3205 179.865C87.9846 180.612 88.3166 181.6 88.3166 182.829V183.7H82.0495C82.0772 184.768 82.3456 185.579 82.8547 186.132C83.3693 186.686 84.0915 186.962 85.0212 186.962C86.0007 186.962 86.9691 186.758 87.9265 186.348V187.577C87.4395 187.787 86.9774 187.936 86.5402 188.025C86.1086 188.119 85.5856 188.166 84.9714 188.166ZM84.5979 179.89C83.8674 179.89 83.2836 180.128 82.8464 180.604C82.4147 181.08 82.1602 181.738 82.0827 182.58H86.8391C86.8391 181.711 86.6454 181.047 86.258 180.587C85.8706 180.123 85.3173 179.89 84.5979 179.89ZM94.0125 187.029C94.256 187.029 94.4912 187.012 94.7181 186.979C94.945 186.94 95.1248 186.902 95.2576 186.863V187.917C95.1082 187.989 94.8868 188.047 94.5936 188.091C94.3058 188.141 94.0457 188.166 93.8133 188.166C92.0535 188.166 91.1736 187.239 91.1736 185.385V179.973H89.8704V179.309L91.1736 178.736L91.7547 176.794H92.5516V178.902H95.1912V179.973H92.5516V185.327C92.5516 185.875 92.6816 186.296 92.9417 186.589C93.2018 186.882 93.5587 187.029 94.0125 187.029ZM103.595 178.902V184.804C103.595 185.546 103.764 186.099 104.101 186.464C104.439 186.83 104.967 187.012 105.687 187.012C106.638 187.012 107.333 186.752 107.77 186.232C108.213 185.712 108.434 184.862 108.434 183.684V178.902H109.812V188H108.675L108.476 186.78H108.401C108.119 187.228 107.726 187.571 107.222 187.809C106.724 188.047 106.154 188.166 105.512 188.166C104.405 188.166 103.575 187.903 103.022 187.377C102.474 186.852 102.2 186.011 102.2 184.854V178.902H103.595ZM119.011 185.518C119.011 186.365 118.695 187.018 118.065 187.477C117.434 187.936 116.548 188.166 115.408 188.166C114.202 188.166 113.261 187.975 112.586 187.593V186.315C113.023 186.536 113.491 186.711 113.989 186.838C114.492 186.965 114.977 187.029 115.442 187.029C116.161 187.029 116.714 186.915 117.102 186.688C117.489 186.456 117.683 186.105 117.683 185.634C117.683 185.28 117.528 184.979 117.218 184.729C116.914 184.475 116.316 184.176 115.425 183.833C114.578 183.518 113.975 183.244 113.615 183.011C113.261 182.773 112.996 182.505 112.818 182.206C112.647 181.907 112.561 181.55 112.561 181.135C112.561 180.394 112.863 179.81 113.466 179.384C114.069 178.952 114.896 178.736 115.948 178.736C116.927 178.736 117.885 178.936 118.82 179.334L118.33 180.455C117.417 180.078 116.59 179.89 115.848 179.89C115.195 179.89 114.703 179.993 114.371 180.197C114.039 180.402 113.873 180.684 113.873 181.044C113.873 181.287 113.934 181.495 114.055 181.667C114.183 181.838 114.385 182.001 114.661 182.156C114.938 182.311 115.469 182.535 116.255 182.829C117.334 183.222 118.062 183.617 118.438 184.016C118.82 184.414 119.011 184.915 119.011 185.518ZM125.504 188.166C124.159 188.166 123.096 187.757 122.316 186.938C121.541 186.118 121.154 184.981 121.154 183.526C121.154 182.059 121.514 180.895 122.233 180.031C122.958 179.168 123.929 178.736 125.147 178.736C126.287 178.736 127.189 179.113 127.853 179.865C128.517 180.612 128.849 181.6 128.849 182.829V183.7H122.582C122.609 184.768 122.878 185.579 123.387 186.132C123.902 186.686 124.624 186.962 125.553 186.962C126.533 186.962 127.501 186.758 128.459 186.348V187.577C127.972 187.787 127.51 187.936 127.072 188.025C126.641 188.119 126.118 188.166 125.504 188.166ZM125.13 179.89C124.4 179.89 123.816 180.128 123.379 180.604C122.947 181.08 122.692 181.738 122.615 182.58H127.371C127.371 181.711 127.178 181.047 126.79 180.587C126.403 180.123 125.849 179.89 125.13 179.89ZM135.757 178.736C136.161 178.736 136.523 178.77 136.844 178.836L136.653 180.114C136.277 180.031 135.945 179.99 135.657 179.99C134.921 179.99 134.29 180.289 133.764 180.886C133.244 181.484 132.984 182.228 132.984 183.119V188H131.606V178.902H132.743L132.901 180.587H132.968C133.305 179.995 133.712 179.539 134.188 179.218C134.664 178.897 135.187 178.736 135.757 178.736ZM144.814 185.518C144.814 186.365 144.499 187.018 143.868 187.477C143.237 187.936 142.352 188.166 141.212 188.166C140.005 188.166 139.065 187.975 138.39 187.593V186.315C138.827 186.536 139.294 186.711 139.792 186.838C140.296 186.965 140.78 187.029 141.245 187.029C141.964 187.029 142.518 186.915 142.905 186.688C143.293 186.456 143.486 186.105 143.486 185.634C143.486 185.28 143.331 184.979 143.021 184.729C142.717 184.475 142.119 184.176 141.228 183.833C140.382 183.518 139.779 183.244 139.419 183.011C139.065 182.773 138.799 182.505 138.622 182.206C138.45 181.907 138.365 181.55 138.365 181.135C138.365 180.394 138.666 179.81 139.269 179.384C139.873 178.952 140.7 178.736 141.751 178.736C142.731 178.736 143.688 178.936 144.623 179.334L144.134 180.455C143.221 180.078 142.393 179.89 141.652 179.89C140.999 179.89 140.506 179.993 140.174 180.197C139.842 180.402 139.676 180.684 139.676 181.044C139.676 181.287 139.737 181.495 139.859 181.667C139.986 181.838 140.188 182.001 140.465 182.156C140.741 182.311 141.273 182.535 142.058 182.829C143.138 183.222 143.865 183.617 144.242 184.016C144.623 184.414 144.814 184.915 144.814 185.518Z" fill="#404040"/>
<path id="4 tasks" d="M69.7873 157.211H67.986V160H66.6662V157.211H60.7644V156.007L66.5251 147.798H67.986V155.958H69.7873V157.211ZM66.6662 155.958V151.923C66.6662 151.132 66.6939 150.238 66.7492 149.242H66.6828C66.4172 149.773 66.1682 150.213 65.9357 150.562L62.1423 155.958H66.6662ZM79.7514 159.029C79.9949 159.029 80.23 159.012 80.4569 158.979C80.6838 158.94 80.8637 158.902 80.9965 158.863V159.917C80.8471 159.989 80.6257 160.047 80.3324 160.091C80.0447 160.141 79.7846 160.166 79.5521 160.166C77.7924 160.166 76.9125 159.239 76.9125 157.385V151.973H75.6093V151.309L76.9125 150.736L77.4936 148.794H78.2904V150.902H80.9301V151.973H78.2904V157.327C78.2904 157.875 78.4205 158.296 78.6806 158.589C78.9407 158.882 79.2976 159.029 79.7514 159.029ZM88.8174 160L88.5435 158.705H88.4771C88.0233 159.275 87.5695 159.662 87.1157 159.867C86.6675 160.066 86.1058 160.166 85.4307 160.166C84.5286 160.166 83.8203 159.934 83.3057 159.469C82.7965 159.004 82.542 158.343 82.542 157.485C82.542 155.648 84.0112 154.685 86.9497 154.596L88.4937 154.546V153.982C88.4937 153.268 88.3387 152.742 88.0288 152.405C87.7244 152.062 87.2347 151.89 86.5596 151.89C85.8014 151.89 84.9437 152.123 83.9863 152.587L83.563 151.533C84.0112 151.29 84.501 151.099 85.0322 150.96C85.569 150.822 86.1058 150.753 86.6426 150.753C87.7272 150.753 88.5296 150.994 89.0498 151.475C89.5755 151.957 89.8384 152.729 89.8384 153.791V160H88.8174ZM85.7046 159.029C86.5623 159.029 87.2347 158.794 87.7217 158.323C88.2142 157.853 88.4604 157.194 88.4604 156.348V155.526L87.0825 155.584C85.9868 155.623 85.1955 155.794 84.7085 156.099C84.2271 156.397 83.9863 156.865 83.9863 157.501C83.9863 158 84.1357 158.379 84.4346 158.639C84.7389 158.899 85.1623 159.029 85.7046 159.029ZM98.9542 157.518C98.9542 158.365 98.6388 159.018 98.0079 159.477C97.3771 159.936 96.4916 160.166 95.3517 160.166C94.1453 160.166 93.2045 159.975 92.5294 159.593V158.315C92.9666 158.536 93.4342 158.711 93.9322 158.838C94.4358 158.965 94.92 159.029 95.3849 159.029C96.1043 159.029 96.6576 158.915 97.045 158.688C97.4324 158.456 97.6261 158.105 97.6261 157.634C97.6261 157.28 97.4711 156.979 97.1612 156.729C96.8569 156.475 96.2592 156.176 95.3683 155.833C94.5216 155.518 93.9184 155.244 93.5587 155.011C93.2045 154.773 92.9389 154.505 92.7618 154.206C92.5903 153.907 92.5045 153.55 92.5045 153.135C92.5045 152.394 92.8061 151.81 93.4093 151.384C94.0125 150.952 94.8398 150.736 95.8912 150.736C96.8707 150.736 97.8281 150.936 98.7633 151.334L98.2735 152.455C97.3604 152.078 96.5331 151.89 95.7916 151.89C95.1386 151.89 94.6461 151.993 94.3141 152.197C93.982 152.402 93.816 152.684 93.816 153.044C93.816 153.287 93.8769 153.495 93.9986 153.667C94.1259 153.838 94.3279 154.001 94.6046 154.156C94.8813 154.311 95.4125 154.535 96.1983 154.829C97.2774 155.222 98.0051 155.617 98.3814 156.016C98.7633 156.414 98.9542 156.915 98.9542 157.518ZM102.965 155.343C103.203 155.006 103.565 154.563 104.052 154.015L106.991 150.902H108.626L104.941 154.779L108.883 160H107.215L104.003 155.7L102.965 156.597V160H101.604V147.084H102.965V153.932C102.965 154.236 102.943 154.707 102.899 155.343H102.965ZM116.804 157.518C116.804 158.365 116.489 159.018 115.858 159.477C115.227 159.936 114.341 160.166 113.201 160.166C111.995 160.166 111.054 159.975 110.379 159.593V158.315C110.816 158.536 111.284 158.711 111.782 158.838C112.286 158.965 112.77 159.029 113.235 159.029C113.954 159.029 114.507 158.915 114.895 158.688C115.282 158.456 115.476 158.105 115.476 157.634C115.476 157.28 115.321 156.979 115.011 156.729C114.707 156.475 114.109 156.176 113.218 155.833C112.371 155.518 111.768 155.244 111.408 155.011C111.054 154.773 110.789 154.505 110.612 154.206C110.44 153.907 110.354 153.55 110.354 153.135C110.354 152.394 110.656 151.81 111.259 151.384C111.862 150.952 112.69 150.736 113.741 150.736C114.721 150.736 115.678 150.936 116.613 151.334L116.123 152.455C115.21 152.078 114.383 151.89 113.641 151.89C112.988 151.89 112.496 151.993 112.164 152.197C111.832 152.402 111.666 152.684 111.666 153.044C111.666 153.287 111.727 153.495 111.848 153.667C111.976 153.838 112.178 154.001 112.454 154.156C112.731 154.311 113.262 154.535 114.048 154.829C115.127 155.222 115.855 155.617 116.231 156.016C116.613 156.414 116.804 156.915 116.804 157.518Z" fill="#404040"/>
<g id="woman">
<path id="&#232;&#183;&#175;&#229;&#190;&#132;" d="M108.46 24.2857V19.0959C108.46 9.09596 100.615 0.491534 90.4166 0.0211693C79.5286 -0.481025 70.54 8.01701 70.54 18.5714V24.2857C70.54 33.8997 68.909 39.5198 68.0862 41.7435C67.8409 42.4062 68.1349 43.1398 68.7704 43.471C71.6767 44.9853 79.595 48.8593 86.5831 50H92.4169C99.4051 48.8591 107.323 44.9851 110.23 43.471C110.865 43.1398 111.159 42.4062 110.914 41.7435C110.091 39.5198 108.46 33.8997 108.46 24.2857Z" fill="#5C414B"/>
<path id="&#232;&#183;&#175;&#229;&#190;&#132;_2" d="M70.5209 18.4377V24.2275C70.5209 33.9683 68.9019 39.6626 68.085 41.9158C67.8408 42.5894 68.139 43.3338 68.7718 43.67C71.4635 45.0999 78.4548 48.5923 85 50V21.3326L82.1042 18.4377C77.2876 13.6226 76.9615 7.54133 77.2799 4C73.1509 7.45159 70.5209 12.636 70.5209 18.4377Z" fill="#503441"/>
<rect id="&#231;&#159;&#169;&#229;&#189;&#162;" x="82" y="40" width="14" height="18" fill="#E6AF78"/>
<path id="&#232;&#183;&#175;&#229;&#190;&#132;_3" d="M109.939 53.4197L102.374 50L92.2646 54.3333L90.605 56.8638C90.0425 57.7214 88.8029 57.7214 88.2404 56.8638L86.5808 54.3333L76.6265 50L69.0615 53.4197C65.9052 54.8465 63.9076 58.0684 64.0033 61.5784L64.7499 89H114.25L114.997 61.5784C115.092 58.0682 113.095 54.8465 109.939 53.4197Z" fill="#3558B0"/>
<g id="&#231;&#188;&#150;&#231;&#187;&#132;">
<path id="&#232;&#183;&#175;&#229;&#190;&#132;_4" d="M72.7187 64.2682L65.4552 55.1328C63.8913 56.7849 62.9825 59.0108 63.0476 61.3818L63.8073 88.9996H72.7187V64.2682Z" fill="#9BB6FB"/>
<path id="&#232;&#183;&#175;&#229;&#190;&#132;_5" d="M105.263 64.2682L112.527 55.1328C114.091 56.7849 115 59.0108 114.934 61.3818L114.175 88.9996H105.263L105.263 64.2682V64.2682Z" fill="#9BB6FB"/>
</g>
<path id="&#232;&#183;&#175;&#229;&#190;&#132;_6" d="M82 44.357C84.142 45.4109 86.5147 46 89 46C91.4855 46 93.8581 45.4111 96 44.357V40H82V44.357Z" fill="#D29B6E"/>
<path id="&#232;&#183;&#175;&#229;&#190;&#132;_7" d="M102.385 33.2669C102.756 32.1169 102.966 30.9157 102.997 29.7091C103.21 21.5272 91.5937 23.443 82.0506 17.2489C81.3858 16.8174 80.4996 16.9549 80.0452 17.5996C78.5372 19.7398 76.8305 21.4318 75.8241 22.3451C75.2898 22.83 74.5964 23.0972 73.8703 23.0972H72.8334C72.8325 23.0972 72.832 23.0977 72.8311 23.0977C72.673 23.1006 72.5112 23.117 72.3466 23.1485C70.9441 23.4163 70 24.7402 70 26.1494V27.1778C70 28.5378 70.8827 29.8208 72.2252 30.1296C72.5274 30.1992 72.8215 30.2188 73.1031 30.1968C73.8197 30.1403 74.4453 30.6547 74.5743 31.3522C75.7995 37.976 81.6658 43 88.7346 43C94.7419 43 99.8692 39.3656 102.029 34.2103C102.133 33.9593 102.364 33.328 102.385 33.2669Z" fill="#F0C087"/>
<path id="&#232;&#183;&#175;&#229;&#190;&#132;_8" d="M80.8113 28.4782V17C79.334 19.2113 77.6515 20.9605 76.6646 21.9013C76.1449 22.3966 75.4705 22.6696 74.7643 22.6696H73.7558C73.755 22.6696 73.7545 22.6701 73.7536 22.6701C73.6 22.6731 73.443 22.6898 73.2833 22.7218C71.9192 22.9949 71 24.3459 71 25.7854V26.8377C71 28.2267 71.8583 29.5372 73.164 29.853C73.4579 29.924 73.7441 29.9443 74.018 29.9216C74.7149 29.8639 75.3234 30.3893 75.4488 31.1019C76.6405 37.868 82.3459 43 89.2208 43C90.1738 43 91.101 42.8922 92 42.7044C85.6146 41.3491 80.8113 35.4949 80.8113 28.4782Z" fill="#E6AF78"/>
<path id="&#232;&#183;&#175;&#229;&#190;&#132;_9" d="M120.565 89H57.4348C56.6416 89 56 88.3283 56 87.5C56 86.6717 56.6418 86 57.4348 86H120.565C121.358 86 122 86.6717 122 87.5C122 88.3283 121.358 89 120.565 89Z" fill="#C39772"/>
<g id="&#231;&#188;&#150;&#231;&#187;&#132;_2">
<path id="&#232;&#183;&#175;&#229;&#190;&#132;_10" d="M78.8773 56.313L76.1172 51.005L79.2282 48.45C79.865 47.9268 80.831 48.0392 81.32 48.693L86.1371 55.1342L83.1557 57.2842C81.7268 58.3145 79.6762 57.8492 78.8773 56.313Z" fill="#C9D8FF"/>
<path id="&#232;&#183;&#175;&#229;&#190;&#132;_11" d="M99.1223 56.313L101.882 51.005L98.7714 48.45C98.1346 47.9268 97.1686 48.0392 96.6797 48.693L91.8625 55.1342L94.8439 57.2842C96.2728 58.3145 98.3234 57.8492 99.1223 56.313Z" fill="#C9D8FF"/>
</g>
<path id="&#232;&#183;&#175;&#229;&#190;&#132;_12" d="M105.016 86H72.9842C71.4582 86 70.1967 84.8348 70.107 83.3423L69.0051 64.9893C68.9077 63.3675 70.224 62 71.8822 62H106.118C107.776 62 109.092 63.3675 108.995 64.9893L107.893 83.3423C107.803 84.8346 106.542 86 105.016 86Z" fill="#DBD9DC"/>
<circle id="&#230;&#164;&#173;&#229;&#156;&#134;&#229;&#189;&#162;" cx="89.5" cy="74.5" r="3.5" fill="white"/>
</g>
</g>
</svg>
