<svg width="628" height="93" viewBox="0 0 628 93" fill="none" xmlns="http://www.w3.org/2000/svg">
<g id="&#231;&#188;&#150;&#231;&#187;&#132; 51">
<g id="&#231;&#188;&#150;&#231;&#187;&#132; 4">
<g id="&#231;&#188;&#150;&#231;&#187;&#132;">
<path id="15" d="M66.401 32H61.8746V19.6074L61.9185 17.5713L61.9918 15.3447C61.2398 16.0967 60.7174 16.5898 60.4244 16.8242L57.9635 18.8018L55.7808 16.0771L62.6803 10.584H66.401V32ZM80.8471 18.3184C82.9174 18.3184 84.5629 18.8994 85.7836 20.0615C87.0141 21.2236 87.6293 22.8154 87.6293 24.8369C87.6293 27.2295 86.892 29.0703 85.4174 30.3594C83.9428 31.6484 81.8334 32.293 79.0893 32.293C76.7065 32.293 74.7826 31.9072 73.3178 31.1357V27.2246C74.0893 27.6348 74.9877 27.9717 76.0131 28.2354C77.0385 28.4893 78.0102 28.6162 78.9281 28.6162C81.6918 28.6162 83.0736 27.4834 83.0736 25.2178C83.0736 23.0596 81.643 21.9805 78.7817 21.9805C78.2641 21.9805 77.6928 22.0342 77.0678 22.1416C76.4428 22.2393 75.935 22.3467 75.5443 22.4639L73.7426 21.4971L74.5483 10.584H86.1645V14.4219H78.518L78.1225 18.626L78.6352 18.5234C79.2309 18.3867 79.9682 18.3184 80.8471 18.3184Z" fill="#888888"/>
<path id="hous passive learnin" d="M24.6952 65V59.1147C24.6952 58.3732 24.5264 57.8198 24.1889 57.4546C23.8513 57.0894 23.3228 56.9067 22.6034 56.9067C21.6461 56.9067 20.946 57.1668 20.5033 57.687C20.0661 58.2072 19.8476 59.0594 19.8476 60.2437V65H18.4696V52.084H19.8476V55.9937C19.8476 56.464 19.8254 56.8542 19.7812 57.1641H19.8642C20.1353 56.7269 20.5199 56.3838 21.018 56.1348C21.5215 55.8802 22.0943 55.7529 22.7362 55.7529C23.8485 55.7529 24.6814 56.0186 25.2348 56.5498C25.7937 57.0755 26.0731 57.9139 26.0731 59.0649V65H24.6952ZM37.1645 60.4429C37.1645 61.9259 36.791 63.0853 36.0439 63.9209C35.2969 64.751 34.2648 65.166 32.9478 65.166C32.1343 65.166 31.4121 64.9751 30.7812 64.5933C30.1504 64.2114 29.6634 63.6636 29.3203 62.9497C28.9772 62.2358 28.8057 61.4002 28.8057 60.4429C28.8057 58.9598 29.1764 57.806 29.918 56.9814C30.6595 56.1514 31.6888 55.7363 33.0059 55.7363C34.2786 55.7363 35.2886 56.1597 36.0356 57.0063C36.7882 57.853 37.1645 58.9985 37.1645 60.4429ZM30.2334 60.4429C30.2334 61.605 30.4658 62.4904 30.9307 63.0991C31.3955 63.7078 32.0789 64.0122 32.981 64.0122C33.883 64.0122 34.5664 63.7106 35.0312 63.1074C35.5016 62.4987 35.7368 61.6105 35.7368 60.4429C35.7368 59.2863 35.5016 58.4092 35.0312 57.8115C34.5664 57.2083 33.8774 56.9067 32.9644 56.9067C32.0623 56.9067 31.3817 57.2028 30.9224 57.7949C30.4631 58.387 30.2334 59.2697 30.2334 60.4429ZM41.2833 55.9023V61.8042C41.2833 62.5457 41.4521 63.0991 41.7896 63.4644C42.1272 63.8296 42.6557 64.0122 43.3751 64.0122C44.3269 64.0122 45.0214 63.7521 45.4586 63.2319C45.9013 62.7118 46.1227 61.8623 46.1227 60.6836V55.9023H47.5006V65H46.3634L46.1642 63.7798H46.0895C45.8072 64.228 45.4143 64.5711 44.9107 64.8091C44.4127 65.047 43.8427 65.166 43.2008 65.166C42.094 65.166 41.2639 64.9032 40.7105 64.3774C40.1627 63.8517 39.8888 63.0106 39.8888 61.854V55.9023H41.2833ZM56.6994 62.5181C56.6994 63.3647 56.384 64.0177 55.7531 64.4771C55.1223 64.9364 54.2368 65.166 53.0969 65.166C51.8905 65.166 50.9497 64.9751 50.2746 64.5933V63.3149C50.7118 63.5363 51.1794 63.7106 51.6774 63.8379C52.181 63.9652 52.6652 64.0288 53.1301 64.0288C53.8495 64.0288 54.4029 63.9154 54.7902 63.6885C55.1776 63.4561 55.3713 63.1047 55.3713 62.6343C55.3713 62.2801 55.2163 61.9785 54.9064 61.7295C54.6021 61.4749 54.0044 61.1761 53.1135 60.833C52.2668 60.5176 51.6636 60.2437 51.3039 60.0112C50.9497 59.7733 50.6841 59.5049 50.507 59.2061C50.3355 58.9072 50.2497 58.5503 50.2497 58.1353C50.2497 57.3937 50.5513 56.8099 51.1545 56.3838C51.7577 55.9521 52.585 55.7363 53.6364 55.7363C54.6159 55.7363 55.5733 55.9355 56.5085 56.334L56.0187 57.4546C55.1057 57.0783 54.2784 56.8901 53.5368 56.8901C52.8838 56.8901 52.3913 56.9925 52.0593 57.1973C51.7272 57.402 51.5612 57.6842 51.5612 58.0439C51.5612 58.2874 51.6221 58.495 51.7438 58.6665C51.8711 58.8381 52.0731 59.0013 52.3498 59.1562C52.6265 59.3112 53.1577 59.5353 53.9436 59.8286C55.0227 60.2215 55.7504 60.6172 56.1267 61.0156C56.5085 61.4141 56.6994 61.9149 56.6994 62.5181ZM68.3983 65.166C67.8062 65.166 67.2639 65.0581 66.7714 64.8423C66.2844 64.6209 65.8749 64.2834 65.5429 63.8296H65.4433C65.5097 64.3608 65.5429 64.8644 65.5429 65.3403V69.084H64.1649V55.9023H65.2855L65.4765 57.1475H65.5429C65.897 56.6494 66.3093 56.2897 66.7797 56.0684C67.2501 55.847 67.7896 55.7363 68.3983 55.7363C69.6047 55.7363 70.5344 56.1486 71.1874 56.9731C71.8459 57.7977 72.1752 58.9543 72.1752 60.4429C72.1752 61.937 71.8404 63.0991 71.1708 63.9292C70.5067 64.7537 69.5826 65.166 68.3983 65.166ZM68.1991 56.9067C67.2694 56.9067 66.5971 57.1641 66.182 57.6787C65.767 58.1934 65.5539 59.0124 65.5429 60.1357V60.4429C65.5429 61.7212 65.7559 62.637 66.182 63.1904C66.6081 63.7383 67.2916 64.0122 68.2323 64.0122C69.0181 64.0122 69.6324 63.694 70.0751 63.0576C70.5233 62.4212 70.7475 61.5441 70.7475 60.4263C70.7475 59.2918 70.5233 58.423 70.0751 57.8198C69.6324 57.2111 69.0071 56.9067 68.1991 56.9067ZM80.5854 65L80.3115 63.7051H80.2451C79.7913 64.2751 79.3376 64.6624 78.8838 64.8672C78.4355 65.0664 77.8739 65.166 77.1987 65.166C76.2967 65.166 75.5884 64.9336 75.0737 64.4688C74.5646 64.0039 74.3101 63.3426 74.3101 62.4849C74.3101 60.6476 75.7793 59.6847 78.7178 59.5962L80.2617 59.5464V58.9819C80.2617 58.2681 80.1068 57.7424 79.7969 57.4048C79.4925 57.0617 79.0028 56.8901 78.3276 56.8901C77.5695 56.8901 76.7118 57.1226 75.7544 57.5874L75.3311 56.5332C75.7793 56.2897 76.269 56.0988 76.8003 55.9604C77.3371 55.8221 77.8739 55.7529 78.4106 55.7529C79.4953 55.7529 80.2977 55.9937 80.8179 56.4751C81.3436 56.9565 81.6064 57.7285 81.6064 58.791V65H80.5854ZM77.4727 64.0288C78.3304 64.0288 79.0028 63.7936 79.4897 63.3232C79.9823 62.8529 80.2285 62.1943 80.2285 61.3477V60.5259L78.8506 60.584C77.7549 60.6227 76.9635 60.7943 76.4766 61.0986C75.9951 61.3975 75.7544 61.8651 75.7544 62.5015C75.7544 62.9995 75.9038 63.3786 76.2026 63.6387C76.507 63.8988 76.9303 64.0288 77.4727 64.0288ZM90.7223 62.5181C90.7223 63.3647 90.4068 64.0177 89.776 64.4771C89.1451 64.9364 88.2597 65.166 87.1197 65.166C85.9133 65.166 84.9726 64.9751 84.2975 64.5933V63.3149C84.7346 63.5363 85.2022 63.7106 85.7003 63.8379C86.2039 63.9652 86.6881 64.0288 87.1529 64.0288C87.8723 64.0288 88.4257 63.9154 88.8131 63.6885C89.2005 63.4561 89.3941 63.1047 89.3941 62.6343C89.3941 62.2801 89.2392 61.9785 88.9293 61.7295C88.6249 61.4749 88.0273 61.1761 87.1363 60.833C86.2896 60.5176 85.6865 60.2437 85.3268 60.0112C84.9726 59.7733 84.707 59.5049 84.5299 59.2061C84.3583 58.9072 84.2726 58.5503 84.2726 58.1353C84.2726 57.3937 84.5742 56.8099 85.1773 56.3838C85.7805 55.9521 86.6078 55.7363 87.6593 55.7363C88.6388 55.7363 89.5961 55.9355 90.5313 56.334L90.0416 57.4546C89.1285 57.0783 88.3012 56.8901 87.5597 56.8901C86.9067 56.8901 86.4142 56.9925 86.0821 57.1973C85.7501 57.402 85.5841 57.6842 85.5841 58.0439C85.5841 58.2874 85.645 58.495 85.7667 58.6665C85.894 58.8381 86.096 59.0013 86.3727 59.1562C86.6494 59.3112 87.1806 59.5353 87.9664 59.8286C89.0455 60.2215 89.7732 60.6172 90.1495 61.0156C90.5313 61.4141 90.7223 61.9149 90.7223 62.5181ZM99.2404 62.5181C99.2404 63.3647 98.925 64.0177 98.2941 64.4771C97.6633 64.9364 96.7779 65.166 95.6379 65.166C94.4315 65.166 93.4908 64.9751 92.8156 64.5933V63.3149C93.2528 63.5363 93.7204 63.7106 94.2185 63.8379C94.722 63.9652 95.2062 64.0288 95.6711 64.0288C96.3905 64.0288 96.9439 63.9154 97.3312 63.6885C97.7186 63.4561 97.9123 63.1047 97.9123 62.6343C97.9123 62.2801 97.7574 61.9785 97.4475 61.7295C97.1431 61.4749 96.5454 61.1761 95.6545 60.833C94.8078 60.5176 94.2046 60.2437 93.8449 60.0112C93.4908 59.7733 93.2251 59.5049 93.048 59.2061C92.8765 58.9072 92.7907 58.5503 92.7907 58.1353C92.7907 57.3937 93.0923 56.8099 93.6955 56.3838C94.2987 55.9521 95.126 55.7363 96.1774 55.7363C97.1569 55.7363 98.1143 55.9355 99.0495 56.334L98.5598 57.4546C97.6467 57.0783 96.8194 56.8901 96.0778 56.8901C95.4248 56.8901 94.9323 56.9925 94.6003 57.1973C94.2683 57.402 94.1022 57.6842 94.1022 58.0439C94.1022 58.2874 94.1631 58.495 94.2849 58.6665C94.4121 58.8381 94.6141 59.0013 94.8908 59.1562C95.1675 59.3112 95.6988 59.5353 96.4846 59.8286C97.5637 60.2215 98.2914 60.6172 98.6677 61.0156C99.0495 61.4141 99.2404 61.9149 99.2404 62.5181ZM103.268 65H101.89V55.9023H103.268V65ZM101.774 53.437C101.774 53.1216 101.851 52.8919 102.006 52.748C102.161 52.5986 102.355 52.5239 102.587 52.5239C102.809 52.5239 102.999 52.5986 103.16 52.748C103.32 52.8975 103.401 53.1271 103.401 53.437C103.401 53.7469 103.32 53.9793 103.16 54.1343C102.999 54.2837 102.809 54.3584 102.587 54.3584C102.355 54.3584 102.161 54.2837 102.006 54.1343C101.851 53.9793 101.774 53.7469 101.774 53.437ZM108.582 65L105.129 55.9023H106.606L108.565 61.2979C109.008 62.5596 109.268 63.3786 109.346 63.7549H109.412C109.473 63.4616 109.664 62.8556 109.985 61.937C110.311 61.0129 111.039 59.0013 112.168 55.9023H113.645L110.192 65H108.582ZM119.35 65.166C118.005 65.166 116.942 64.7565 116.162 63.9375C115.387 63.1185 115 61.9813 115 60.5259C115 59.0594 115.36 57.8945 116.079 57.0312C116.804 56.168 117.775 55.7363 118.993 55.7363C120.133 55.7363 121.035 56.1126 121.699 56.8652C122.363 57.6123 122.695 58.6001 122.695 59.8286V60.7002H116.428C116.455 61.7682 116.724 62.5789 117.233 63.1323C117.748 63.6857 118.47 63.9624 119.399 63.9624C120.379 63.9624 121.347 63.7576 122.305 63.3481V64.5767C121.818 64.7869 121.356 64.9364 120.918 65.0249C120.487 65.119 119.964 65.166 119.35 65.166ZM118.976 56.8901C118.246 56.8901 117.662 57.1281 117.225 57.604C116.793 58.0799 116.538 58.7384 116.461 59.5796H121.217C121.217 58.7108 121.024 58.0467 120.636 57.5874C120.249 57.1226 119.695 56.8901 118.976 56.8901ZM39.5658 88H38.1879V75.084H39.5658V88ZM46.731 88.166C45.3862 88.166 44.3237 87.7565 43.5435 86.9375C42.7687 86.1185 42.3813 84.9813 42.3813 83.5259C42.3813 82.0594 42.741 80.8945 43.4604 80.0312C44.1854 79.168 45.1566 78.7363 46.374 78.7363C47.514 78.7363 48.416 79.1126 49.0801 79.8652C49.7441 80.6123 50.0762 81.6001 50.0762 82.8286V83.7002H43.8091C43.8368 84.7682 44.1051 85.5789 44.6143 86.1323C45.1289 86.6857 45.8511 86.9624 46.7808 86.9624C47.7603 86.9624 48.7287 86.7576 49.686 86.3481V87.5767C49.1991 87.7869 48.737 87.9364 48.2998 88.0249C47.8682 88.119 47.3452 88.166 46.731 88.166ZM46.3574 79.8901C45.627 79.8901 45.0431 80.1281 44.606 80.604C44.1743 81.0799 43.9198 81.7384 43.8423 82.5796H48.5986C48.5986 81.7108 48.4049 81.0467 48.0176 80.5874C47.6302 80.1226 47.0768 79.8901 46.3574 79.8901ZM58.4283 88L58.1544 86.7051H58.088C57.6342 87.2751 57.1804 87.6624 56.7267 87.8672C56.2784 88.0664 55.7167 88.166 55.0416 88.166C54.1396 88.166 53.4312 87.9336 52.9166 87.4688C52.4075 87.0039 52.1529 86.3426 52.1529 85.4849C52.1529 83.6476 53.6222 82.6847 56.5606 82.5962L58.1046 82.5464V81.9819C58.1046 81.2681 57.9496 80.7424 57.6397 80.4048C57.3354 80.0617 56.8456 79.8901 56.1705 79.8901C55.4124 79.8901 54.5546 80.1226 53.5973 80.5874L53.1739 79.5332C53.6222 79.2897 54.1119 79.0988 54.6432 78.9604C55.1799 78.8221 55.7167 78.7529 56.2535 78.7529C57.3381 78.7529 58.1406 78.9937 58.6607 79.4751C59.1865 79.9565 59.4493 80.7285 59.4493 81.791V88H58.4283ZM55.3155 87.0288C56.1733 87.0288 56.8456 86.7936 57.3326 86.3232C57.8251 85.8529 58.0714 85.1943 58.0714 84.3477V83.5259L56.6935 83.584C55.5978 83.6227 54.8064 83.7943 54.3194 84.0986C53.838 84.3975 53.5973 84.8651 53.5973 85.5015C53.5973 85.9995 53.7467 86.3786 54.0455 86.6387C54.3499 86.8988 54.7732 87.0288 55.3155 87.0288ZM66.8469 78.7363C67.2508 78.7363 67.6133 78.7695 67.9343 78.8359L67.7434 80.1143C67.3671 80.0312 67.035 79.9897 66.7473 79.9897C66.0113 79.9897 65.3804 80.2886 64.8547 80.8862C64.3345 81.4839 64.0744 82.2282 64.0744 83.1191V88H62.6965V78.9023H63.8337L63.9914 80.5874H64.0578C64.3954 79.9953 64.8021 79.5387 65.278 79.2178C65.7539 78.8968 66.2769 78.7363 66.8469 78.7363ZM76.2615 88V82.1147C76.2615 81.3732 76.0927 80.8198 75.7552 80.4546C75.4176 80.0894 74.8891 79.9067 74.1697 79.9067C73.2179 79.9067 72.5206 80.1641 72.0779 80.6787C71.6352 81.1934 71.4139 82.0428 71.4139 83.2271V88H70.0359V78.9023H71.1565L71.3807 80.1475H71.4471C71.7293 79.6992 72.125 79.3534 72.6341 79.1099C73.1432 78.8608 73.7104 78.7363 74.3357 78.7363C75.4314 78.7363 76.256 79.002 76.8094 79.5332C77.3628 80.0589 77.6395 80.9028 77.6395 82.0649V88H76.2615ZM82.2562 88H80.8783V78.9023H82.2562V88ZM80.7621 76.437C80.7621 76.1216 80.8396 75.8919 80.9945 75.748C81.1495 75.5986 81.3432 75.5239 81.5756 75.5239C81.7969 75.5239 81.9879 75.5986 82.1483 75.748C82.3088 75.8975 82.3891 76.1271 82.3891 76.437C82.3891 76.7469 82.3088 76.9793 82.1483 77.1343C81.9879 77.2837 81.7969 77.3584 81.5756 77.3584C81.3432 77.3584 81.1495 77.2837 80.9945 77.1343C80.8396 76.9793 80.7621 76.7469 80.7621 76.437ZM91.8037 88V82.1147C91.8037 81.3732 91.6349 80.8198 91.2974 80.4546C90.9598 80.0894 90.4313 79.9067 89.7119 79.9067C88.7601 79.9067 88.0628 80.1641 87.6201 80.6787C87.1774 81.1934 86.9561 82.0428 86.9561 83.2271V88H85.5781V78.9023H86.6987L86.9229 80.1475H86.9893C87.2715 79.6992 87.6672 79.3534 88.1763 79.1099C88.6854 78.8608 89.2526 78.7363 89.8779 78.7363C90.9736 78.7363 91.7982 79.002 92.3516 79.5332C92.9049 80.0589 93.1816 80.9028 93.1816 82.0649V88H91.8037ZM103.866 78.9023V79.7739L102.181 79.9731C102.336 80.1668 102.475 80.4214 102.596 80.7368C102.718 81.0467 102.779 81.3981 102.779 81.791C102.779 82.682 102.475 83.3931 101.866 83.9243C101.257 84.4556 100.421 84.7212 99.359 84.7212C99.0878 84.7212 98.8333 84.6991 98.5953 84.6548C98.0087 84.9647 97.7154 85.3548 97.7154 85.8252C97.7154 86.0742 97.8178 86.2596 98.0226 86.3813C98.2273 86.4976 98.5787 86.5557 99.0768 86.5557H100.687C101.672 86.5557 102.428 86.7632 102.953 87.1782C103.484 87.5933 103.75 88.1965 103.75 88.9878C103.75 89.995 103.346 90.7614 102.538 91.2871C101.73 91.8184 100.552 92.084 99.002 92.084C97.8123 92.084 96.8936 91.8626 96.2462 91.4199C95.6043 90.9772 95.2833 90.3519 95.2833 89.5439C95.2833 88.9906 95.4604 88.5119 95.8145 88.1079C96.1687 87.7039 96.6668 87.43 97.3087 87.2861C97.0763 87.181 96.8798 87.0177 96.7193 86.7964C96.5644 86.575 96.4869 86.3177 96.4869 86.0244C96.4869 85.6924 96.5754 85.4019 96.7525 85.1528C96.9296 84.9038 97.2091 84.6631 97.5909 84.4307C97.1205 84.237 96.7359 83.9077 96.4371 83.4429C96.1438 82.978 95.9972 82.4468 95.9972 81.8491C95.9972 80.853 96.296 80.0866 96.8936 79.5498C97.4913 79.0075 98.338 78.7363 99.4337 78.7363C99.9096 78.7363 100.338 78.7917 100.72 78.9023H103.866ZM96.6114 89.5273C96.6114 90.0199 96.8189 90.3934 97.234 90.6479C97.649 90.9025 98.2439 91.0298 99.0186 91.0298C100.175 91.0298 101.03 90.8555 101.584 90.5068C102.143 90.1637 102.422 89.6961 102.422 89.104C102.422 88.6115 102.27 88.2684 101.965 88.0747C101.661 87.8866 101.088 87.7925 100.247 87.7925H98.5953C97.97 87.7925 97.483 87.9419 97.1344 88.2407C96.7857 88.5396 96.6114 88.9684 96.6114 89.5273ZM97.3585 81.8159C97.3585 82.4523 97.5383 82.9338 97.898 83.2603C98.2577 83.5868 98.7586 83.75 99.4005 83.75C100.745 83.75 101.418 83.097 101.418 81.791C101.418 80.4242 100.737 79.7407 99.3756 79.7407C98.7281 79.7407 98.2301 79.915 97.8814 80.2637C97.5328 80.6123 97.3585 81.1297 97.3585 81.8159Z" fill="#888888"/>
</g>
<g id="&#231;&#188;&#150;&#231;&#187;&#132; 2">
<path id="5-15" d="M235.393 18.3184C237.464 18.3184 239.109 18.8994 240.33 20.0615C241.56 21.2236 242.176 22.8154 242.176 24.8369C242.176 27.2295 241.438 29.0703 239.964 30.3594C238.489 31.6484 236.38 32.293 233.636 32.293C231.253 32.293 229.329 31.9072 227.864 31.1357V27.2246C228.636 27.6348 229.534 27.9717 230.559 28.2354C231.585 28.4893 232.556 28.6162 233.474 28.6162C236.238 28.6162 237.62 27.4834 237.62 25.2178C237.62 23.0596 236.189 21.9805 233.328 21.9805C232.81 21.9805 232.239 22.0342 231.614 22.1416C230.989 22.2393 230.481 22.3467 230.091 22.4639L228.289 21.4971L229.094 10.584H240.711V14.4219H233.064L232.669 18.626L233.181 18.5234C233.777 18.3867 234.514 18.3184 235.393 18.3184ZM245.137 25.7891V22.127H253.004V25.7891H245.137ZM267.01 32H262.484V19.6074L262.528 17.5713L262.601 15.3447C261.849 16.0967 261.327 16.5898 261.034 16.8242L258.573 18.8018L256.39 16.0771L263.289 10.584H267.01V32ZM281.456 18.3184C283.527 18.3184 285.172 18.8994 286.393 20.0615C287.623 21.2236 288.239 22.8154 288.239 24.8369C288.239 27.2295 287.501 29.0703 286.027 30.3594C284.552 31.6484 282.443 32.293 279.698 32.293C277.316 32.293 275.392 31.9072 273.927 31.1357V27.2246C274.698 27.6348 275.597 27.9717 276.622 28.2354C277.648 28.4893 278.619 28.6162 279.537 28.6162C282.301 28.6162 283.683 27.4834 283.683 25.2178C283.683 23.0596 282.252 21.9805 279.391 21.9805C278.873 21.9805 278.302 22.0342 277.677 22.1416C277.052 22.2393 276.544 22.3467 276.154 22.4639L274.352 21.4971L275.157 10.584H286.774V14.4219H279.127L278.732 18.626L279.244 18.5234C279.84 18.3867 280.577 18.3184 281.456 18.3184Z" fill="#0D44CC"/>
<g id="hours flexible learn">
<path d="M207.287 65V59.1147C207.287 58.3732 207.118 57.8198 206.78 57.4546C206.443 57.0894 205.914 56.9067 205.195 56.9067C204.238 56.9067 203.538 57.1668 203.095 57.687C202.658 58.2072 202.439 59.0594 202.439 60.2437V65H201.061V52.084H202.439V55.9937C202.439 56.464 202.417 56.8542 202.373 57.1641H202.456C202.727 56.7269 203.111 56.3838 203.609 56.1348C204.113 55.8802 204.686 55.7529 205.328 55.7529C206.44 55.7529 207.273 56.0186 207.826 56.5498C208.385 57.0755 208.665 57.9139 208.665 59.0649V65H207.287ZM219.756 60.4429C219.756 61.9259 219.383 63.0853 218.635 63.9209C217.888 64.751 216.856 65.166 215.539 65.166C214.726 65.166 214.004 64.9751 213.373 64.5933C212.742 64.2114 212.255 63.6636 211.912 62.9497C211.569 62.2358 211.397 61.4002 211.397 60.4429C211.397 58.9598 211.768 57.806 212.509 56.9814C213.251 56.1514 214.28 55.7363 215.597 55.7363C216.87 55.7363 217.88 56.1597 218.627 57.0063C219.38 57.853 219.756 58.9985 219.756 60.4429ZM212.825 60.4429C212.825 61.605 213.057 62.4904 213.522 63.0991C213.987 63.7078 214.67 64.0122 215.572 64.0122C216.474 64.0122 217.158 63.7106 217.623 63.1074C218.093 62.4987 218.328 61.6105 218.328 60.4429C218.328 59.2863 218.093 58.4092 217.623 57.8115C217.158 57.2083 216.469 56.9067 215.556 56.9067C214.654 56.9067 213.973 57.2028 213.514 57.7949C213.055 58.387 212.825 59.2697 212.825 60.4429ZM223.875 55.9023V61.8042C223.875 62.5457 224.044 63.0991 224.381 63.4644C224.719 63.8296 225.247 64.0122 225.967 64.0122C226.918 64.0122 227.613 63.7521 228.05 63.2319C228.493 62.7118 228.714 61.8623 228.714 60.6836V55.9023H230.092V65H228.955L228.756 63.7798H228.681C228.399 64.228 228.006 64.5711 227.502 64.8091C227.004 65.047 226.434 65.166 225.792 65.166C224.686 65.166 223.855 64.9032 223.302 64.3774C222.754 63.8517 222.48 63.0106 222.48 61.854V55.9023H223.875ZM237.573 55.7363C237.977 55.7363 238.339 55.7695 238.66 55.8359L238.469 57.1143C238.093 57.0312 237.761 56.9897 237.473 56.9897C236.737 56.9897 236.106 57.2886 235.58 57.8862C235.06 58.4839 234.8 59.2282 234.8 60.1191V65H233.422V55.9023H234.559L234.717 57.5874H234.784C235.121 56.9953 235.528 56.5387 236.004 56.2178C236.48 55.8968 237.003 55.7363 237.573 55.7363ZM246.63 62.5181C246.63 63.3647 246.315 64.0177 245.684 64.4771C245.053 64.9364 244.168 65.166 243.028 65.166C241.821 65.166 240.881 64.9751 240.206 64.5933V63.3149C240.643 63.5363 241.11 63.7106 241.608 63.8379C242.112 63.9652 242.596 64.0288 243.061 64.0288C243.78 64.0288 244.334 63.9154 244.721 63.6885C245.109 63.4561 245.302 63.1047 245.302 62.6343C245.302 62.2801 245.147 61.9785 244.837 61.7295C244.533 61.4749 243.935 61.1761 243.044 60.833C242.198 60.5176 241.595 60.2437 241.235 60.0112C240.881 59.7733 240.615 59.5049 240.438 59.2061C240.266 58.9072 240.181 58.5503 240.181 58.1353C240.181 57.3937 240.482 56.8099 241.085 56.3838C241.689 55.9521 242.516 55.7363 243.567 55.7363C244.547 55.7363 245.504 55.9355 246.439 56.334L245.95 57.4546C245.037 57.0783 244.209 56.8901 243.468 56.8901C242.815 56.8901 242.322 56.9925 241.99 57.1973C241.658 57.402 241.492 57.6842 241.492 58.0439C241.492 58.2874 241.553 58.495 241.675 58.6665C241.802 58.8381 242.004 59.0013 242.281 59.1562C242.557 59.3112 243.089 59.5353 243.875 59.8286C244.954 60.2215 245.681 60.6172 246.058 61.0156C246.439 61.4141 246.63 61.9149 246.63 62.5181ZM226.566 88H225.188V75.084H226.566V88ZM233.731 88.166C232.386 88.166 231.324 87.7565 230.543 86.9375C229.769 86.1185 229.381 84.9813 229.381 83.5259C229.381 82.0594 229.741 80.8945 230.46 80.0312C231.185 79.168 232.157 78.7363 233.374 78.7363C234.514 78.7363 235.416 79.1126 236.08 79.8652C236.744 80.6123 237.076 81.6001 237.076 82.8286V83.7002H230.809C230.837 84.7682 231.105 85.5789 231.614 86.1323C232.129 86.6857 232.851 86.9624 233.781 86.9624C234.76 86.9624 235.729 86.7576 236.686 86.3481V87.5767C236.199 87.7869 235.737 87.9364 235.3 88.0249C234.868 88.119 234.345 88.166 233.731 88.166ZM233.357 79.8901C232.627 79.8901 232.043 80.1281 231.606 80.604C231.174 81.0799 230.92 81.7384 230.842 82.5796H235.599C235.599 81.7108 235.405 81.0467 235.018 80.5874C234.63 80.1226 234.077 79.8901 233.357 79.8901ZM245.428 88L245.154 86.7051H245.088C244.634 87.2751 244.18 87.6624 243.727 87.8672C243.278 88.0664 242.717 88.166 242.042 88.166C241.14 88.166 240.431 87.9336 239.917 87.4688C239.407 87.0039 239.153 86.3426 239.153 85.4849C239.153 83.6476 240.622 82.6847 243.561 82.5962L245.105 82.5464V81.9819C245.105 81.2681 244.95 80.7424 244.64 80.4048C244.335 80.0617 243.846 79.8901 243.171 79.8901C242.412 79.8901 241.555 80.1226 240.597 80.5874L240.174 79.5332C240.622 79.2897 241.112 79.0988 241.643 78.9604C242.18 78.8221 242.717 78.7529 243.254 78.7529C244.338 78.7529 245.141 78.9937 245.661 79.4751C246.186 79.9565 246.449 80.7285 246.449 81.791V88H245.428ZM242.316 87.0288C243.173 87.0288 243.846 86.7936 244.333 86.3232C244.825 85.8529 245.071 85.1943 245.071 84.3477V83.5259L243.693 83.584C242.598 83.6227 241.806 83.7943 241.319 84.0986C240.838 84.3975 240.597 84.8651 240.597 85.5015C240.597 85.9995 240.747 86.3786 241.046 86.6387C241.35 86.8988 241.773 87.0288 242.316 87.0288ZM253.847 78.7363C254.251 78.7363 254.613 78.7695 254.934 78.8359L254.743 80.1143C254.367 80.0312 254.035 79.9897 253.747 79.9897C253.011 79.9897 252.38 80.2886 251.855 80.8862C251.335 81.4839 251.074 82.2282 251.074 83.1191V88H249.696V78.9023H250.834L250.991 80.5874H251.058C251.395 79.9953 251.802 79.5387 252.278 79.2178C252.754 78.8968 253.277 78.7363 253.847 78.7363ZM263.262 88V82.1147C263.262 81.3732 263.093 80.8198 262.755 80.4546C262.418 80.0894 261.889 79.9067 261.17 79.9067C260.218 79.9067 259.521 80.1641 259.078 80.6787C258.635 81.1934 258.414 82.0428 258.414 83.2271V88H257.036V78.9023H258.157L258.381 80.1475H258.447C258.729 79.6992 259.125 79.3534 259.634 79.1099C260.143 78.8608 260.71 78.7363 261.336 78.7363C262.431 78.7363 263.256 79.002 263.809 79.5332C264.363 80.0589 264.639 80.9028 264.639 82.0649V88H263.262ZM269.256 88H267.878V78.9023H269.256V88ZM267.762 76.437C267.762 76.1216 267.84 75.8919 267.995 75.748C268.149 75.5986 268.343 75.5239 268.576 75.5239C268.797 75.5239 268.988 75.5986 269.148 75.748C269.309 75.8975 269.389 76.1271 269.389 76.437C269.389 76.7469 269.309 76.9793 269.148 77.1343C268.988 77.2837 268.797 77.3584 268.576 77.3584C268.343 77.3584 268.149 77.2837 267.995 77.1343C267.84 76.9793 267.762 76.7469 267.762 76.437ZM278.804 88V82.1147C278.804 81.3732 278.635 80.8198 278.297 80.4546C277.96 80.0894 277.431 79.9067 276.712 79.9067C275.76 79.9067 275.063 80.1641 274.62 80.6787C274.177 81.1934 273.956 82.0428 273.956 83.2271V88H272.578V78.9023H273.699L273.923 80.1475H273.989C274.271 79.6992 274.667 79.3534 275.176 79.1099C275.685 78.8608 276.253 78.7363 276.878 78.7363C277.974 78.7363 278.798 79.002 279.352 79.5332C279.905 80.0589 280.182 80.9028 280.182 82.0649V88H278.804ZM290.866 78.9023V79.7739L289.181 79.9731C289.336 80.1668 289.475 80.4214 289.596 80.7368C289.718 81.0467 289.779 81.3981 289.779 81.791C289.779 82.682 289.475 83.3931 288.866 83.9243C288.257 84.4556 287.421 84.7212 286.359 84.7212C286.088 84.7212 285.833 84.6991 285.595 84.6548C285.009 84.9647 284.715 85.3548 284.715 85.8252C284.715 86.0742 284.818 86.2596 285.023 86.3813C285.227 86.4976 285.579 86.5557 286.077 86.5557H287.687C288.672 86.5557 289.428 86.7632 289.953 87.1782C290.484 87.5933 290.75 88.1965 290.75 88.9878C290.75 89.995 290.346 90.7614 289.538 91.2871C288.73 91.8184 287.552 92.084 286.002 92.084C284.812 92.084 283.894 91.8626 283.246 91.4199C282.604 90.9772 282.283 90.3519 282.283 89.5439C282.283 88.9906 282.46 88.5119 282.815 88.1079C283.169 87.7039 283.667 87.43 284.309 87.2861C284.076 87.181 283.88 87.0177 283.719 86.7964C283.564 86.575 283.487 86.3177 283.487 86.0244C283.487 85.6924 283.575 85.4019 283.753 85.1528C283.93 84.9038 284.209 84.6631 284.591 84.4307C284.121 84.237 283.736 83.9077 283.437 83.4429C283.144 82.978 282.997 82.4468 282.997 81.8491C282.997 80.853 283.296 80.0866 283.894 79.5498C284.491 79.0075 285.338 78.7363 286.434 78.7363C286.91 78.7363 287.338 78.7917 287.72 78.9023H290.866ZM283.611 89.5273C283.611 90.0199 283.819 90.3934 284.234 90.6479C284.649 90.9025 285.244 91.0298 286.019 91.0298C287.175 91.0298 288.03 90.8555 288.584 90.5068C289.143 90.1637 289.422 89.6961 289.422 89.104C289.422 88.6115 289.27 88.2684 288.965 88.0747C288.661 87.8866 288.088 87.7925 287.247 87.7925H285.595C284.97 87.7925 284.483 87.9419 284.134 88.2407C283.786 88.5396 283.611 88.9684 283.611 89.5273ZM284.358 81.8159C284.358 82.4523 284.538 82.9338 284.898 83.2603C285.258 83.5868 285.759 83.75 286.4 83.75C287.745 83.75 288.418 83.097 288.418 81.791C288.418 80.4242 287.737 79.7407 286.376 79.7407C285.728 79.7407 285.23 79.915 284.881 80.2637C284.533 80.6123 284.358 81.1297 284.358 81.8159Z" fill="#404040"/>
<path d="M258.636 57.2969H256.395V65H254.436V57.2969H252.925V56.3838L254.436 55.7861V55.1885C254.436 54.1038 254.691 53.3014 255.2 52.7812C255.709 52.2555 256.487 51.9927 257.532 51.9927C258.219 51.9927 258.894 52.1061 259.558 52.333L259.043 53.8105C258.562 53.6556 258.102 53.5781 257.665 53.5781C257.223 53.5781 256.899 53.7165 256.694 53.9932C256.495 54.2643 256.395 54.6738 256.395 55.2217V55.8193H258.636V57.2969ZM262.148 65H260.197V52.084H262.148V65ZM269.363 65.166C267.935 65.166 266.817 64.751 266.009 63.9209C265.207 63.0853 264.805 61.937 264.805 60.4761C264.805 58.9764 265.179 57.7977 265.926 56.9399C266.673 56.0822 267.7 55.6533 269.006 55.6533C270.218 55.6533 271.175 56.0213 271.878 56.7573C272.581 57.4933 272.932 58.506 272.932 59.7954V60.8496H266.814C266.842 61.7406 267.083 62.4268 267.536 62.9082C267.99 63.3841 268.629 63.6221 269.454 63.6221C269.996 63.6221 270.5 63.5723 270.965 63.4727C271.435 63.3675 271.939 63.196 272.475 62.958V64.5435C271.999 64.7703 271.518 64.9308 271.031 65.0249C270.544 65.119 269.988 65.166 269.363 65.166ZM269.006 57.1309C268.386 57.1309 267.888 57.3273 267.512 57.7202C267.141 58.1131 266.919 58.6859 266.847 59.4385H271.014C271.003 58.6803 270.821 58.1076 270.467 57.7202C270.112 57.3273 269.625 57.1309 269.006 57.1309ZM277.59 60.3101L274.511 55.8193H276.735L278.827 59.0317L280.935 55.8193H283.143L280.056 60.3101L283.301 65H281.093L278.827 61.5635L276.569 65H274.361L277.59 60.3101ZM287.262 65H285.312V55.8193H287.262V65ZM285.195 53.3872C285.195 53.0386 285.289 52.7702 285.478 52.582C285.671 52.3939 285.945 52.2998 286.299 52.2998C286.642 52.2998 286.908 52.3939 287.096 52.582C287.29 52.7702 287.387 53.0386 287.387 53.3872C287.387 53.7192 287.29 53.9821 287.096 54.1758C286.908 54.3639 286.642 54.458 286.299 54.458C285.945 54.458 285.671 54.3639 285.478 54.1758C285.289 53.9821 285.195 53.7192 285.195 53.3872ZM295.15 55.6533C296.295 55.6533 297.186 56.0684 297.822 56.8984C298.464 57.7285 298.785 58.8934 298.785 60.3931C298.785 61.8983 298.462 63.0715 297.814 63.9126C297.167 64.7482 296.267 65.166 295.116 65.166C293.954 65.166 293.052 64.7482 292.41 63.9126H292.277L291.921 65H290.46V52.084H292.41V55.1553C292.41 55.3822 292.399 55.7197 292.377 56.168C292.355 56.6162 292.338 56.9012 292.327 57.0229H292.41C293.03 56.1099 293.943 55.6533 295.15 55.6533ZM294.643 57.2471C293.857 57.2471 293.29 57.4795 292.942 57.9443C292.598 58.4036 292.421 59.1756 292.41 60.2603V60.3931C292.41 61.5109 292.587 62.3216 292.942 62.8252C293.296 63.3232 293.874 63.5723 294.676 63.5723C295.368 63.5723 295.891 63.2983 296.245 62.7505C296.605 62.2026 296.785 61.4113 296.785 60.3765C296.785 58.2902 296.071 57.2471 294.643 57.2471ZM303.402 65H301.451V52.084H303.402V65ZM310.609 65.166C309.181 65.166 308.063 64.751 307.255 63.9209C306.453 63.0853 306.052 61.937 306.052 60.4761C306.052 58.9764 306.425 57.7977 307.172 56.9399C307.919 56.0822 308.946 55.6533 310.252 55.6533C311.464 55.6533 312.421 56.0213 313.124 56.7573C313.827 57.4933 314.178 58.506 314.178 59.7954V60.8496H308.06C308.088 61.7406 308.329 62.4268 308.783 62.9082C309.236 63.3841 309.875 63.6221 310.7 63.6221C311.242 63.6221 311.746 63.5723 312.211 63.4727C312.681 63.3675 313.185 63.196 313.721 62.958V64.5435C313.246 64.7703 312.764 64.9308 312.277 65.0249C311.79 65.119 311.234 65.166 310.609 65.166ZM310.252 57.1309C309.632 57.1309 309.134 57.3273 308.758 57.7202C308.387 58.1131 308.165 58.6859 308.094 59.4385H312.261C312.249 58.6803 312.067 58.1076 311.713 57.7202C311.359 57.3273 310.872 57.1309 310.252 57.1309Z" fill="#1051F4"/>
</g>
</g>
<g id="&#231;&#188;&#150;&#231;&#187;&#132; 3">
<path id="&#231;&#155;&#180;&#231;&#186;&#191; 4" d="M178 51.1025L141 51" stroke="#1051F4" stroke-opacity="0.2" stroke-width="2" stroke-linecap="round" stroke-linejoin="round"/>
<path id="&#231;&#155;&#180;&#231;&#186;&#191; 4_2" d="M178 42L141 42" stroke="#1051F4" stroke-opacity="0.2" stroke-width="2" stroke-linecap="round" stroke-linejoin="round"/>
<path id="&#232;&#183;&#175;&#229;&#190;&#132; 6" d="M169 57L187 46.5767L169 36" stroke="#1051F4" stroke-opacity="0.2" stroke-width="2" stroke-linecap="round" stroke-linejoin="round"/>
</g>
</g>
<g id="&#231;&#188;&#150;&#231;&#187;&#132; 3_2">
<path id="37%" d="M500.472 15.374C500.472 16.7119 500.067 17.8496 499.256 18.7871C498.445 19.7246 497.308 20.3691 495.843 20.7207V20.8086C497.571 21.0234 498.88 21.5508 499.769 22.3906C500.657 23.2207 501.102 24.3438 501.102 25.7598C501.102 27.8203 500.355 29.4268 498.861 30.5791C497.366 31.7217 495.233 32.293 492.459 32.293C490.135 32.293 488.074 31.9072 486.278 31.1357V27.2832C487.108 27.7031 488.021 28.0449 489.017 28.3086C490.013 28.5723 490.999 28.7041 491.976 28.7041C493.47 28.7041 494.573 28.4502 495.286 27.9424C495.999 27.4346 496.356 26.6191 496.356 25.4961C496.356 24.4902 495.945 23.7773 495.125 23.3574C494.305 22.9375 492.996 22.7275 491.199 22.7275H489.573V19.2559H491.229C492.889 19.2559 494.1 19.041 494.861 18.6113C495.633 18.1719 496.019 17.4248 496.019 16.3701C496.019 14.749 495.003 13.9385 492.972 13.9385C492.269 13.9385 491.551 14.0557 490.819 14.29C490.096 14.5244 489.29 14.9297 488.402 15.5059L486.307 12.3857C488.26 10.9795 490.589 10.2764 493.294 10.2764C495.511 10.2764 497.259 10.7256 498.538 11.624C499.827 12.5225 500.472 13.7725 500.472 15.374ZM506.305 32L514.347 14.4219H503.785V10.6133H519.151V13.4551L511.051 32H506.305ZM525.438 17C525.438 18.2402 525.546 19.168 525.761 19.7832C525.985 20.3887 526.342 20.6914 526.83 20.6914C527.767 20.6914 528.236 19.4609 528.236 17C528.236 14.5586 527.767 13.3379 526.83 13.3379C526.342 13.3379 525.985 13.6406 525.761 14.2461C525.546 14.8418 525.438 15.7598 525.438 17ZM531.928 16.9707C531.928 19.2168 531.493 20.9062 530.624 22.0391C529.755 23.1621 528.48 23.7236 526.801 23.7236C525.189 23.7236 523.944 23.1475 523.065 21.9951C522.186 20.833 521.747 19.1582 521.747 16.9707C521.747 12.5078 523.431 10.2764 526.801 10.2764C528.451 10.2764 529.716 10.8574 530.595 12.0195C531.483 13.1719 531.928 14.8223 531.928 16.9707ZM542.006 10.584L530.126 32H526.61L538.49 10.584H542.006ZM540.438 25.5547C540.438 26.7949 540.546 27.7227 540.761 28.3379C540.985 28.9434 541.342 29.2461 541.83 29.2461C542.767 29.2461 543.236 28.0156 543.236 25.5547C543.236 23.1133 542.767 21.8926 541.83 21.8926C541.342 21.8926 540.985 22.1953 540.761 22.8008C540.546 23.3965 540.438 24.3145 540.438 25.5547ZM546.928 25.5254C546.928 27.7617 546.493 29.4463 545.624 30.5791C544.755 31.7021 543.48 32.2637 541.801 32.2637C540.189 32.2637 538.944 31.6875 538.065 30.5352C537.186 29.373 536.747 27.7031 536.747 25.5254C536.747 21.0625 538.431 18.8311 541.801 18.8311C543.451 18.8311 544.716 19.4121 545.595 20.5742C546.483 21.7266 546.928 23.377 546.928 25.5254Z" fill="#0D44CC"/>
<g id="the hands-on lab lea">
<path d="M412.312 64.0288C412.556 64.0288 412.791 64.0122 413.018 63.979C413.244 63.9403 413.424 63.9015 413.557 63.8628V64.917C413.408 64.9889 413.186 65.047 412.893 65.0913C412.605 65.1411 412.345 65.166 412.113 65.166C410.353 65.166 409.473 64.2391 409.473 62.3853V56.9731H408.17V56.3091L409.473 55.7363L410.054 53.7939H410.851V55.9023H413.491V56.9731H410.851V62.3271C410.851 62.875 410.981 63.2956 411.241 63.5889C411.501 63.8822 411.858 64.0288 412.312 64.0288ZM422.009 65V59.1147C422.009 58.3732 421.84 57.8198 421.503 57.4546C421.165 57.0894 420.636 56.9067 419.917 56.9067C418.96 56.9067 418.26 57.1668 417.817 57.687C417.38 58.2072 417.161 59.0594 417.161 60.2437V65H415.783V52.084H417.161V55.9937C417.161 56.464 417.139 56.8542 417.095 57.1641H417.178C417.449 56.7269 417.834 56.3838 418.332 56.1348C418.835 55.8802 419.408 55.7529 420.05 55.7529C421.162 55.7529 421.995 56.0186 422.548 56.5498C423.107 57.0755 423.387 57.9139 423.387 59.0649V65H422.009ZM430.469 65.166C429.124 65.166 428.062 64.7565 427.281 63.9375C426.507 63.1185 426.119 61.9813 426.119 60.5259C426.119 59.0594 426.479 57.8945 427.198 57.0312C427.923 56.168 428.895 55.7363 430.112 55.7363C431.252 55.7363 432.154 56.1126 432.818 56.8652C433.482 57.6123 433.814 58.6001 433.814 59.8286V60.7002H427.547C427.575 61.7682 427.843 62.5789 428.352 63.1323C428.867 63.6857 429.589 63.9624 430.519 63.9624C431.498 63.9624 432.467 63.7576 433.424 63.3481V64.5767C432.937 64.7869 432.475 64.9364 432.038 65.0249C431.606 65.119 431.083 65.166 430.469 65.166ZM430.095 56.8901C429.365 56.8901 428.781 57.1281 428.344 57.604C427.912 58.0799 427.658 58.7384 427.58 59.5796H432.337C432.337 58.7108 432.143 58.0467 431.756 57.5874C431.368 57.1226 430.815 56.8901 430.095 56.8901ZM558.98 65H557.602V52.084H558.98V65ZM566.145 65.166C564.801 65.166 563.738 64.7565 562.958 63.9375C562.183 63.1185 561.796 61.9813 561.796 60.5259C561.796 59.0594 562.155 57.8945 562.875 57.0312C563.6 56.168 564.571 55.7363 565.788 55.7363C566.928 55.7363 567.83 56.1126 568.494 56.8652C569.158 57.6123 569.491 58.6001 569.491 59.8286V60.7002H563.223C563.251 61.7682 563.519 62.5789 564.029 63.1323C564.543 63.6857 565.265 63.9624 566.195 63.9624C567.175 63.9624 568.143 63.7576 569.1 63.3481V64.5767C568.613 64.7869 568.151 64.9364 567.714 65.0249C567.283 65.119 566.76 65.166 566.145 65.166ZM565.772 56.8901C565.041 56.8901 564.457 57.1281 564.02 57.604C563.589 58.0799 563.334 58.7384 563.257 59.5796H568.013C568.013 58.7108 567.819 58.0467 567.432 57.5874C567.045 57.1226 566.491 56.8901 565.772 56.8901ZM577.843 65L577.569 63.7051H577.502C577.049 64.2751 576.595 64.6624 576.141 64.8672C575.693 65.0664 575.131 65.166 574.456 65.166C573.554 65.166 572.846 64.9336 572.331 64.4688C571.822 64.0039 571.567 63.3426 571.567 62.4849C571.567 60.6476 573.037 59.6847 575.975 59.5962L577.519 59.5464V58.9819C577.519 58.2681 577.364 57.7424 577.054 57.4048C576.75 57.0617 576.26 56.8901 575.585 56.8901C574.827 56.8901 573.969 57.1226 573.012 57.5874L572.588 56.5332C573.037 56.2897 573.526 56.0988 574.058 55.9604C574.594 55.8221 575.131 55.7529 575.668 55.7529C576.753 55.7529 577.555 55.9937 578.075 56.4751C578.601 56.9565 578.864 57.7285 578.864 58.791V65H577.843ZM574.73 64.0288C575.588 64.0288 576.26 63.7936 576.747 63.3232C577.239 62.8529 577.486 62.1943 577.486 61.3477V60.5259L576.108 60.584C575.012 60.6227 574.221 60.7943 573.734 61.0986C573.252 61.3975 573.012 61.8651 573.012 62.5015C573.012 62.9995 573.161 63.3786 573.46 63.6387C573.764 63.8988 574.188 64.0288 574.73 64.0288ZM586.261 55.7363C586.665 55.7363 587.028 55.7695 587.349 55.8359L587.158 57.1143C586.781 57.0312 586.449 56.9897 586.162 56.9897C585.426 56.9897 584.795 57.2886 584.269 57.8862C583.749 58.4839 583.489 59.2282 583.489 60.1191V65H582.111V55.9023H583.248L583.406 57.5874H583.472C583.81 56.9953 584.216 56.5387 584.692 56.2178C585.168 55.8968 585.691 55.7363 586.261 55.7363ZM595.676 65V59.1147C595.676 58.3732 595.507 57.8198 595.17 57.4546C594.832 57.0894 594.303 56.9067 593.584 56.9067C592.632 56.9067 591.935 57.1641 591.492 57.6787C591.05 58.1934 590.828 59.0428 590.828 60.2271V65H589.45V55.9023H590.571L590.795 57.1475H590.861C591.144 56.6992 591.539 56.3534 592.048 56.1099C592.558 55.8608 593.125 55.7363 593.75 55.7363C594.846 55.7363 595.67 56.002 596.224 56.5332C596.777 57.0589 597.054 57.9028 597.054 59.0649V65H595.676ZM601.671 65H600.293V55.9023H601.671V65ZM600.176 53.437C600.176 53.1216 600.254 52.8919 600.409 52.748C600.564 52.5986 600.758 52.5239 600.99 52.5239C601.211 52.5239 601.402 52.5986 601.563 52.748C601.723 52.8975 601.803 53.1271 601.803 53.437C601.803 53.7469 601.723 53.9793 601.563 54.1343C601.402 54.2837 601.211 54.3584 600.99 54.3584C600.758 54.3584 600.564 54.2837 600.409 54.1343C600.254 53.9793 600.176 53.7469 600.176 53.437ZM611.218 65V59.1147C611.218 58.3732 611.049 57.8198 610.712 57.4546C610.374 57.0894 609.846 56.9067 609.126 56.9067C608.174 56.9067 607.477 57.1641 607.034 57.6787C606.592 58.1934 606.37 59.0428 606.37 60.2271V65H604.992V55.9023H606.113L606.337 57.1475H606.404C606.686 56.6992 607.082 56.3534 607.591 56.1099C608.1 55.8608 608.667 55.7363 609.292 55.7363C610.388 55.7363 611.213 56.002 611.766 56.5332C612.319 57.0589 612.596 57.9028 612.596 59.0649V65H611.218ZM623.281 55.9023V56.7739L621.596 56.9731C621.751 57.1668 621.889 57.4214 622.011 57.7368C622.132 58.0467 622.193 58.3981 622.193 58.791C622.193 59.682 621.889 60.3931 621.28 60.9243C620.671 61.4556 619.836 61.7212 618.773 61.7212C618.502 61.7212 618.248 61.6991 618.01 61.6548C617.423 61.9647 617.13 62.3548 617.13 62.8252C617.13 63.0742 617.232 63.2596 617.437 63.3813C617.642 63.4976 617.993 63.5557 618.491 63.5557H620.101C621.086 63.5557 621.842 63.7632 622.368 64.1782C622.899 64.5933 623.164 65.1965 623.164 65.9878C623.164 66.995 622.76 67.7614 621.953 68.2871C621.145 68.8184 619.966 69.084 618.416 69.084C617.227 69.084 616.308 68.8626 615.661 68.4199C615.019 67.9772 614.698 67.3519 614.698 66.5439C614.698 65.9906 614.875 65.5119 615.229 65.1079C615.583 64.7039 616.081 64.43 616.723 64.2861C616.491 64.181 616.294 64.0177 616.134 63.7964C615.979 63.575 615.901 63.3177 615.901 63.0244C615.901 62.6924 615.99 62.4019 616.167 62.1528C616.344 61.9038 616.623 61.6631 617.005 61.4307C616.535 61.237 616.15 60.9077 615.851 60.4429C615.558 59.978 615.412 59.4468 615.412 58.8491C615.412 57.853 615.71 57.0866 616.308 56.5498C616.906 56.0075 617.752 55.7363 618.848 55.7363C619.324 55.7363 619.753 55.7917 620.135 55.9023H623.281ZM616.026 66.5273C616.026 67.0199 616.233 67.3934 616.648 67.6479C617.063 67.9025 617.658 68.0298 618.433 68.0298C619.59 68.0298 620.445 67.8555 620.998 67.5068C621.557 67.1637 621.836 66.6961 621.836 66.104C621.836 65.6115 621.684 65.2684 621.38 65.0747C621.075 64.8866 620.503 64.7925 619.662 64.7925H618.01C617.384 64.7925 616.897 64.9419 616.549 65.2407C616.2 65.5396 616.026 65.9684 616.026 66.5273ZM616.773 58.8159C616.773 59.4523 616.953 59.9338 617.312 60.2603C617.672 60.5868 618.173 60.75 618.815 60.75C620.16 60.75 620.832 60.097 620.832 58.791C620.832 57.4242 620.151 56.7407 618.79 56.7407C618.142 56.7407 617.644 56.915 617.296 57.2637C616.947 57.6123 616.773 58.1297 616.773 58.8159ZM446.808 87.0288C447.051 87.0288 447.287 87.0122 447.514 86.979C447.74 86.9403 447.92 86.9015 448.053 86.8628V87.917C447.904 87.9889 447.682 88.047 447.389 88.0913C447.101 88.1411 446.841 88.166 446.609 88.166C444.849 88.166 443.969 87.2391 443.969 85.3853V79.9731H442.666V79.3091L443.969 78.7363L444.55 76.7939H445.347V78.9023H447.987V79.9731H445.347V85.3271C445.347 85.875 445.477 86.2956 445.737 86.5889C445.997 86.8822 446.354 87.0288 446.808 87.0288ZM451.657 88H450.279V78.9023H451.657V88ZM450.163 76.437C450.163 76.1216 450.241 75.8919 450.396 75.748C450.55 75.5986 450.744 75.5239 450.977 75.5239C451.198 75.5239 451.389 75.5986 451.549 75.748C451.71 75.8975 451.79 76.1271 451.79 76.437C451.79 76.7469 451.71 76.9793 451.549 77.1343C451.389 77.2837 451.198 77.3584 450.977 77.3584C450.744 77.3584 450.55 77.2837 450.396 77.1343C450.241 76.9793 450.163 76.7469 450.163 76.437ZM466.575 88V82.0815C466.575 81.3566 466.42 80.8143 466.11 80.4546C465.801 80.0894 465.319 79.9067 464.666 79.9067C463.808 79.9067 463.175 80.153 462.765 80.6455C462.356 81.138 462.151 81.8962 462.151 82.9199V88H460.773V82.0815C460.773 81.3566 460.618 80.8143 460.308 80.4546C459.998 80.0894 459.514 79.9067 458.856 79.9067C457.992 79.9067 457.359 80.1668 456.955 80.687C456.556 81.2017 456.357 82.0483 456.357 83.2271V88H454.979V78.9023H456.1L456.324 80.1475H456.39C456.65 79.7048 457.016 79.3589 457.486 79.1099C457.962 78.8608 458.493 78.7363 459.08 78.7363C460.502 78.7363 461.432 79.251 461.869 80.2803H461.935C462.206 79.8044 462.599 79.4281 463.114 79.1514C463.629 78.8747 464.215 78.7363 464.874 78.7363C465.903 78.7363 466.672 79.002 467.181 79.5332C467.696 80.0589 467.953 80.9028 467.953 82.0649V88H466.575ZM475.044 88.166C473.699 88.166 472.636 87.7565 471.856 86.9375C471.081 86.1185 470.694 84.9813 470.694 83.5259C470.694 82.0594 471.054 80.8945 471.773 80.0312C472.498 79.168 473.469 78.7363 474.687 78.7363C475.827 78.7363 476.729 79.1126 477.393 79.8652C478.057 80.6123 478.389 81.6001 478.389 82.8286V83.7002H472.122C472.149 84.7682 472.418 85.5789 472.927 86.1323C473.442 86.6857 474.164 86.9624 475.093 86.9624C476.073 86.9624 477.041 86.7576 477.999 86.3481V87.5767C477.512 87.7869 477.05 87.9364 476.613 88.0249C476.181 88.119 475.658 88.166 475.044 88.166ZM474.67 79.8901C473.94 79.8901 473.356 80.1281 472.919 80.604C472.487 81.0799 472.232 81.7384 472.155 82.5796H476.911C476.911 81.7108 476.718 81.0467 476.33 80.5874C475.943 80.1226 475.39 79.8901 474.67 79.8901ZM487.34 88H485.962V78.9023H487.34V88ZM485.846 76.437C485.846 76.1216 485.924 75.8919 486.079 75.748C486.233 75.5986 486.427 75.5239 486.66 75.5239C486.881 75.5239 487.072 75.5986 487.232 75.748C487.393 75.8975 487.473 76.1271 487.473 76.437C487.473 76.7469 487.393 76.9793 487.232 77.1343C487.072 77.2837 486.881 77.3584 486.66 77.3584C486.427 77.3584 486.233 77.2837 486.079 77.1343C485.924 76.9793 485.846 76.7469 485.846 76.437ZM496.888 88V82.1147C496.888 81.3732 496.719 80.8198 496.381 80.4546C496.044 80.0894 495.515 79.9067 494.796 79.9067C493.844 79.9067 493.147 80.1641 492.704 80.6787C492.261 81.1934 492.04 82.0428 492.04 83.2271V88H490.662V78.9023H491.783L492.007 80.1475H492.073C492.355 79.6992 492.751 79.3534 493.26 79.1099C493.769 78.8608 494.337 78.7363 494.962 78.7363C496.058 78.7363 496.882 79.002 497.436 79.5332C497.989 80.0589 498.266 80.9028 498.266 82.0649V88H496.888ZM505.14 88.166C503.823 88.166 502.802 87.762 502.077 86.9541C501.358 86.1406 500.998 84.9924 500.998 83.5093C500.998 81.9875 501.363 80.8115 502.094 79.9814C502.83 79.1514 503.876 78.7363 505.232 78.7363C505.669 78.7363 506.106 78.7834 506.543 78.8774C506.98 78.9715 507.323 79.0822 507.572 79.2095L507.149 80.3799C506.845 80.2581 506.513 80.1585 506.153 80.0811C505.793 79.998 505.475 79.9565 505.198 79.9565C503.35 79.9565 502.426 81.1353 502.426 83.4927C502.426 84.6105 502.65 85.4683 503.098 86.0659C503.552 86.6636 504.222 86.9624 505.107 86.9624C505.865 86.9624 506.643 86.7992 507.44 86.4727V87.6929C506.831 88.0083 506.064 88.166 505.14 88.166ZM514.156 78.7363C514.56 78.7363 514.923 78.7695 515.244 78.8359L515.053 80.1143C514.677 80.0312 514.345 79.9897 514.057 79.9897C513.321 79.9897 512.69 80.2886 512.164 80.8862C511.644 81.4839 511.384 82.2282 511.384 83.1191V88H510.006V78.9023H511.143L511.301 80.5874H511.367C511.705 79.9953 512.112 79.5387 512.588 79.2178C513.064 78.8968 513.586 78.7363 514.156 78.7363ZM521.189 88.166C519.844 88.166 518.782 87.7565 518.001 86.9375C517.227 86.1185 516.839 84.9813 516.839 83.5259C516.839 82.0594 517.199 80.8945 517.918 80.0312C518.643 79.168 519.614 78.7363 520.832 78.7363C521.972 78.7363 522.874 79.1126 523.538 79.8652C524.202 80.6123 524.534 81.6001 524.534 82.8286V83.7002H518.267C518.295 84.7682 518.563 85.5789 519.072 86.1323C519.587 86.6857 520.309 86.9624 521.239 86.9624C522.218 86.9624 523.186 86.7576 524.144 86.3481V87.5767C523.657 87.7869 523.195 87.9364 522.758 88.0249C522.326 88.119 521.803 88.166 521.189 88.166ZM520.815 79.8901C520.085 79.8901 519.501 80.1281 519.064 80.604C518.632 81.0799 518.378 81.7384 518.3 82.5796H523.056C523.056 81.7108 522.863 81.0467 522.475 80.5874C522.088 80.1226 521.535 79.8901 520.815 79.8901ZM532.886 88L532.612 86.7051H532.546C532.092 87.2751 531.638 87.6624 531.184 87.8672C530.736 88.0664 530.175 88.166 529.499 88.166C528.597 88.166 527.889 87.9336 527.374 87.4688C526.865 87.0039 526.611 86.3426 526.611 85.4849C526.611 83.6476 528.08 82.6847 531.018 82.5962L532.562 82.5464V81.9819C532.562 81.2681 532.407 80.7424 532.098 80.4048C531.793 80.0617 531.303 79.8901 530.628 79.8901C529.87 79.8901 529.012 80.1226 528.055 80.5874L527.632 79.5332C528.08 79.2897 528.57 79.0988 529.101 78.9604C529.638 78.8221 530.175 78.7529 530.711 78.7529C531.796 78.7529 532.598 78.9937 533.119 79.4751C533.644 79.9565 533.907 80.7285 533.907 81.791V88H532.886ZM529.773 87.0288C530.631 87.0288 531.303 86.7936 531.79 86.3232C532.283 85.8529 532.529 85.1943 532.529 84.3477V83.5259L531.151 83.584C530.056 83.6227 529.264 83.7943 528.777 84.0986C528.296 84.3975 528.055 84.8651 528.055 85.5015C528.055 85.9995 528.204 86.3786 528.503 86.6387C528.808 86.8988 529.231 87.0288 529.773 87.0288ZM543.023 85.5181C543.023 86.3647 542.708 87.0177 542.077 87.4771C541.446 87.9364 540.56 88.166 539.42 88.166C538.214 88.166 537.273 87.9751 536.598 87.5933V86.3149C537.035 86.5363 537.503 86.7106 538.001 86.8379C538.505 86.9652 538.989 87.0288 539.454 87.0288C540.173 87.0288 540.726 86.9154 541.114 86.6885C541.501 86.4561 541.695 86.1047 541.695 85.6343C541.695 85.2801 541.54 84.9785 541.23 84.7295C540.926 84.4749 540.328 84.1761 539.437 83.833C538.59 83.5176 537.987 83.2437 537.627 83.0112C537.273 82.7733 537.008 82.5049 536.831 82.2061C536.659 81.9072 536.573 81.5503 536.573 81.1353C536.573 80.3937 536.875 79.8099 537.478 79.3838C538.081 78.9521 538.909 78.7363 539.96 78.7363C540.939 78.7363 541.897 78.9355 542.832 79.334L542.342 80.4546C541.429 80.0783 540.602 79.8901 539.86 79.8901C539.207 79.8901 538.715 79.9925 538.383 80.1973C538.051 80.402 537.885 80.6842 537.885 81.0439C537.885 81.2874 537.946 81.495 538.067 81.6665C538.195 81.8381 538.397 82.0013 538.673 82.1562C538.95 82.3112 539.481 82.5353 540.267 82.8286C541.346 83.2215 542.074 83.6172 542.45 84.0156C542.832 84.4141 543.023 84.9149 543.023 85.5181ZM549.516 88.166C548.171 88.166 547.108 87.7565 546.328 86.9375C545.553 86.1185 545.166 84.9813 545.166 83.5259C545.166 82.0594 545.526 80.8945 546.245 80.0312C546.97 79.168 547.941 78.7363 549.159 78.7363C550.299 78.7363 551.201 79.1126 551.865 79.8652C552.529 80.6123 552.861 81.6001 552.861 82.8286V83.7002H546.594C546.622 84.7682 546.89 85.5789 547.399 86.1323C547.914 86.6857 548.636 86.9624 549.566 86.9624C550.545 86.9624 551.513 86.7576 552.471 86.3481V87.5767C551.984 87.7869 551.522 87.9364 551.085 88.0249C550.653 88.119 550.13 88.166 549.516 88.166ZM549.142 79.8901C548.412 79.8901 547.828 80.1281 547.391 80.604C546.959 81.0799 546.705 81.7384 546.627 82.5796H551.383C551.383 81.7108 551.19 81.0467 550.802 80.5874C550.415 80.1226 549.862 79.8901 549.142 79.8901ZM561.811 86.7798H561.736C561.1 87.7039 560.148 88.166 558.881 88.166C557.691 88.166 556.764 87.7593 556.1 86.9458C555.441 86.1323 555.112 84.9757 555.112 83.4761C555.112 81.9764 555.444 80.8115 556.108 79.9814C556.772 79.1514 557.696 78.7363 558.881 78.7363C560.115 78.7363 561.061 79.1846 561.719 80.0811H561.827L561.769 79.4253L561.736 78.7861V75.084H563.114V88H561.993L561.811 86.7798ZM559.055 87.0122C559.996 87.0122 560.676 86.7576 561.097 86.2485C561.523 85.7339 561.736 84.9066 561.736 83.7666V83.4761C561.736 82.1867 561.52 81.2681 561.089 80.7202C560.662 80.1668 559.979 79.8901 559.038 79.8901C558.23 79.8901 557.611 80.2056 557.179 80.8364C556.753 81.4618 556.54 82.3472 556.54 83.4927C556.54 84.6548 556.753 85.5319 557.179 86.124C557.605 86.7161 558.23 87.0122 559.055 87.0122ZM575.494 78.7529C576.689 78.7529 577.616 79.1624 578.274 79.9814C578.938 80.7949 579.27 81.9487 579.27 83.4429C579.27 84.937 578.936 86.0991 578.266 86.9292C577.602 87.7537 576.678 88.166 575.494 88.166C574.901 88.166 574.359 88.0581 573.867 87.8423C573.38 87.6209 572.97 87.2834 572.638 86.8296H572.538L572.248 88H571.26V75.084H572.638V78.2217C572.638 78.9245 572.616 79.5553 572.572 80.1143H572.638C573.28 79.2067 574.232 78.7529 575.494 78.7529ZM575.294 79.9067C574.354 79.9067 573.676 80.1779 573.261 80.7202C572.846 81.257 572.638 82.1646 572.638 83.4429C572.638 84.7212 572.851 85.637 573.277 86.1904C573.703 86.7383 574.387 87.0122 575.328 87.0122C576.174 87.0122 576.805 86.7051 577.22 86.0908C577.635 85.471 577.843 84.5828 577.843 83.4263C577.843 82.242 577.635 81.3594 577.22 80.7783C576.805 80.1973 576.163 79.9067 575.294 79.9067ZM580.642 78.9023H582.119L584.111 84.0903C584.549 85.2746 584.82 86.1296 584.925 86.6553H584.991C585.063 86.373 585.213 85.8916 585.439 85.2109C585.672 84.5247 586.424 82.4219 587.697 78.9023H589.175L585.265 89.2617C584.878 90.2855 584.424 91.0104 583.904 91.4365C583.389 91.8682 582.756 92.084 582.003 92.084C581.582 92.084 581.167 92.0369 580.758 91.9429V90.8389C581.062 90.9053 581.403 90.9385 581.779 90.9385C582.725 90.9385 583.4 90.4072 583.804 89.3447L584.311 88.0498L580.642 78.9023Z" fill="#404040"/>
<path d="M449.398 65H447.439V59.3555C447.439 58.6471 447.295 58.1187 447.007 57.77C446.725 57.4214 446.274 57.2471 445.654 57.2471C444.835 57.2471 444.232 57.4933 443.845 57.9858C443.463 58.4728 443.272 59.2918 443.272 60.4429V65H441.321V52.084H443.272V55.3628C443.272 55.8885 443.239 56.4502 443.172 57.0479H443.297C443.562 56.6051 443.93 56.262 444.401 56.0186C444.877 55.7751 445.43 55.6533 446.061 55.6533C448.286 55.6533 449.398 56.7739 449.398 59.0151V65ZM458.256 65L457.866 63.7217H457.8C457.357 64.2806 456.912 64.6624 456.463 64.8672C456.015 65.0664 455.44 65.166 454.737 65.166C453.835 65.166 453.129 64.9225 452.62 64.4355C452.117 63.9486 451.865 63.2596 451.865 62.3687C451.865 61.4224 452.216 60.7085 452.919 60.2271C453.622 59.7456 454.693 59.4827 456.131 59.4385L457.717 59.3887V58.8989C457.717 58.3123 457.578 57.8752 457.302 57.5874C457.031 57.2941 456.607 57.1475 456.032 57.1475C455.561 57.1475 455.11 57.2166 454.679 57.355C454.247 57.4933 453.832 57.6566 453.434 57.8447L452.803 56.4502C453.301 56.1901 453.846 55.9937 454.438 55.8608C455.03 55.7225 455.589 55.6533 456.115 55.6533C457.282 55.6533 458.162 55.9079 458.754 56.417C459.352 56.9261 459.651 57.7257 459.651 58.8159V65H458.256ZM455.351 63.6719C456.059 63.6719 456.627 63.4754 457.053 63.0825C457.484 62.6841 457.7 62.1279 457.7 61.4141V60.6172L456.521 60.667C455.603 60.7002 454.933 60.8551 454.513 61.1318C454.098 61.403 453.89 61.8208 453.89 62.3853C453.89 62.7948 454.012 63.113 454.255 63.3398C454.499 63.5612 454.864 63.6719 455.351 63.6719ZM470.85 65H468.891V59.3555C468.891 58.6471 468.747 58.1187 468.46 57.77C468.177 57.4214 467.726 57.2471 467.107 57.2471C466.282 57.2471 465.679 57.4906 465.297 57.9775C464.915 58.4645 464.724 59.2808 464.724 60.4263V65H462.774V55.8193H464.301L464.575 57.0229H464.674C464.951 56.5858 465.344 56.2482 465.853 56.0103C466.362 55.7723 466.927 55.6533 467.546 55.6533C469.749 55.6533 470.85 56.7739 470.85 59.0151V65ZM477.061 65.166C475.915 65.166 475.022 64.751 474.38 63.9209C473.738 63.0908 473.417 61.9259 473.417 60.4263C473.417 58.9211 473.74 57.7507 474.388 56.915C475.041 56.0739 475.943 55.6533 477.094 55.6533C478.3 55.6533 479.219 56.0988 479.85 56.9897H479.949C479.855 56.3312 479.808 55.811 479.808 55.4292V52.084H481.767V65H480.24L479.9 63.7964H479.808C479.183 64.7095 478.267 65.166 477.061 65.166ZM477.584 63.5889C478.386 63.5889 478.97 63.3647 479.335 62.9165C479.7 62.4627 479.889 61.7295 479.9 60.7168V60.4429C479.9 59.2863 479.711 58.4645 479.335 57.9775C478.959 57.4906 478.37 57.2471 477.567 57.2471C476.881 57.2471 476.352 57.5265 475.982 58.0854C475.611 58.6388 475.425 59.4302 475.425 60.4595C475.425 61.4777 475.605 62.2552 475.965 62.792C476.325 63.3232 476.864 63.5889 477.584 63.5889ZM491.124 62.3853C491.124 63.2817 490.797 63.9707 490.144 64.4521C489.491 64.9281 488.556 65.166 487.339 65.166C486.116 65.166 485.133 64.9806 484.392 64.6099V62.9248C485.471 63.4229 486.475 63.6719 487.405 63.6719C488.606 63.6719 489.206 63.3094 489.206 62.5845C489.206 62.3521 489.14 62.1584 489.007 62.0034C488.874 61.8485 488.656 61.688 488.351 61.522C488.047 61.356 487.624 61.1678 487.081 60.9575C486.024 60.548 485.308 60.1385 484.931 59.729C484.561 59.3195 484.375 58.7882 484.375 58.1353C484.375 57.3494 484.691 56.7407 485.322 56.3091C485.958 55.8719 486.821 55.6533 487.911 55.6533C488.991 55.6533 490.012 55.8719 490.974 56.3091L490.344 57.7783C489.353 57.3688 488.52 57.1641 487.845 57.1641C486.816 57.1641 486.301 57.4574 486.301 58.0439C486.301 58.3317 486.434 58.5752 486.7 58.7744C486.971 58.9736 487.557 59.2476 488.459 59.5962C489.217 59.8895 489.768 60.1579 490.111 60.4014C490.454 60.6449 490.709 60.9271 490.875 61.248C491.041 61.5635 491.124 61.9425 491.124 62.3853ZM492.844 61.2729V59.6128H497.11V61.2729H492.844ZM507.662 60.3931C507.662 61.8927 507.278 63.0632 506.508 63.9043C505.739 64.7454 504.668 65.166 503.296 65.166C502.438 65.166 501.68 64.9723 501.021 64.585C500.363 64.1976 499.857 63.6414 499.502 62.9165C499.148 62.1916 498.971 61.3504 498.971 60.3931C498.971 58.9045 499.353 57.7424 500.117 56.9067C500.88 56.0711 501.957 55.6533 503.346 55.6533C504.674 55.6533 505.725 56.0822 506.5 56.9399C507.275 57.7922 507.662 58.9432 507.662 60.3931ZM500.98 60.3931C500.98 62.5125 501.763 63.5723 503.329 63.5723C504.879 63.5723 505.653 62.5125 505.653 60.3931C505.653 58.2957 504.873 57.2471 503.312 57.2471C502.493 57.2471 501.899 57.5182 501.528 58.0605C501.163 58.6029 500.98 59.3804 500.98 60.3931ZM518.388 65H516.429V59.3555C516.429 58.6471 516.285 58.1187 515.998 57.77C515.715 57.4214 515.264 57.2471 514.645 57.2471C513.82 57.2471 513.217 57.4906 512.835 57.9775C512.453 58.4645 512.262 59.2808 512.262 60.4263V65H510.312V55.8193H511.839L512.113 57.0229H512.213C512.489 56.5858 512.882 56.2482 513.391 56.0103C513.9 55.7723 514.465 55.6533 515.085 55.6533C517.287 55.6533 518.388 56.7739 518.388 59.0151V65ZM528.269 65H526.319V52.084H528.269V65ZM537.211 65L536.821 63.7217H536.754C536.312 64.2806 535.866 64.6624 535.418 64.8672C534.97 65.0664 534.394 65.166 533.691 65.166C532.789 65.166 532.084 64.9225 531.575 64.4355C531.071 63.9486 530.819 63.2596 530.819 62.3687C530.819 61.4224 531.171 60.7085 531.873 60.2271C532.576 59.7456 533.647 59.4827 535.086 59.4385L536.671 59.3887V58.8989C536.671 58.3123 536.533 57.8752 536.256 57.5874C535.985 57.2941 535.562 57.1475 534.986 57.1475C534.516 57.1475 534.065 57.2166 533.633 57.355C533.202 57.4933 532.787 57.6566 532.388 57.8447L531.757 56.4502C532.255 56.1901 532.8 55.9937 533.392 55.8608C533.985 55.7225 534.544 55.6533 535.069 55.6533C536.237 55.6533 537.117 55.9079 537.709 56.417C538.307 56.9261 538.605 57.7257 538.605 58.8159V65H537.211ZM534.306 63.6719C535.014 63.6719 535.581 63.4754 536.007 63.0825C536.439 62.6841 536.655 62.1279 536.655 61.4141V60.6172L535.476 60.667C534.557 60.7002 533.888 60.8551 533.467 61.1318C533.052 61.403 532.845 61.8208 532.845 62.3853C532.845 62.7948 532.966 63.113 533.21 63.3398C533.453 63.5612 533.819 63.6719 534.306 63.6719ZM546.418 55.6533C547.563 55.6533 548.454 56.0684 549.091 56.8984C549.733 57.7285 550.054 58.8934 550.054 60.3931C550.054 61.8983 549.73 63.0715 549.083 63.9126C548.435 64.7482 547.536 65.166 546.385 65.166C545.223 65.166 544.321 64.7482 543.679 63.9126H543.546L543.189 65H541.728V52.084H543.679V55.1553C543.679 55.3822 543.668 55.7197 543.646 56.168C543.623 56.6162 543.607 56.9012 543.596 57.0229H543.679C544.299 56.1099 545.212 55.6533 546.418 55.6533ZM545.912 57.2471C545.126 57.2471 544.559 57.4795 544.21 57.9443C543.867 58.4036 543.69 59.1756 543.679 60.2603V60.3931C543.679 61.5109 543.856 62.3216 544.21 62.8252C544.564 63.3232 545.142 63.5723 545.945 63.5723C546.637 63.5723 547.16 63.2983 547.514 62.7505C547.873 62.2026 548.053 61.4113 548.053 60.3765C548.053 58.2902 547.339 57.2471 545.912 57.2471Z" fill="#1051F4"/>
</g>
</g>
</g>
</svg>
