<?xml version="1.0" encoding="UTF-8"?>
<svg width="974px" height="516px" viewBox="0 0 974 516" version="1.1" xmlns="http://www.w3.org/2000/svg" xmlns:xlink="http://www.w3.org/1999/xlink">
    <!-- Generator: Sketch 57.1 (83088) - https://sketch.com -->
    <title>编组 7</title>
    <desc>Created with Sketch.</desc>
    <g id="页面-2----Design-Simple" stroke="none" stroke-width="1" fill="none" fill-rule="evenodd">
        <g id="1" transform="translate(-190.000000, -2495.000000)">
            <g id="编组-7" transform="translate(189.000000, 2491.000000)">
                <rect id="矩形" fill-opacity="0.07" fill="#F4B466" x="87" y="176" width="888" height="94"></rect>
                <rect id="矩形" fill-opacity="0.07" fill="#F4B466" x="87" y="288" width="888" height="94"></rect>
                <text id="5-hr-per-day,-15-hou" font-family="OpenSans-SemiBold, Open Sans" font-size="17" font-weight="500" line-spacing="24" letter-spacing="0.4" fill="#082B80">
                    <tspan x="286" y="65">5 hr per day, 15-hour </tspan>
                    <tspan x="286" y="89">webinar via Zoom</tspan>
                </text>
                <path d="M286.5,27.5 L464.75,27.25" id="直线-2" stroke="#9BB6FB" stroke-width="3" stroke-linecap="square"></path>
                <text id="2" font-family="OpenSans-Bold, Open Sans" font-size="17" font-weight="bold" letter-spacing="0.4" fill="#9BB6FB">
                    <tspan x="286.448193" y="18">2</tspan>
                </text>
                <text id="Webinar:-lecture-for" font-family="OpenSans-SemiBold, Open Sans" font-size="17" font-weight="500" line-spacing="24" letter-spacing="0.4" fill="#082B80">
                    <tspan x="513" y="65">Webinar: lecture for </tspan>
                    <tspan x="513" y="89">conceptual knowledge + </tspan>
                    <tspan x="513" y="113">demo for hands-on activity</tspan>
                </text>
                <path d="M513.5,27.5 L736.875,27.375" id="直线-2" stroke="#9BB6FB" stroke-width="3" stroke-linecap="square"></path>
                <text id="3" font-family="OpenSans-Bold, Open Sans" font-size="17" font-weight="bold" letter-spacing="0.4" fill="#9BB6FB">
                    <tspan x="513.448193" y="18">3</tspan>
                </text>
                <text id="Voluntary-hands-on-l" font-family="OpenSans-SemiBold, Open Sans" font-size="17" font-weight="500" line-spacing="24" letter-spacing="0.4" fill="#082B80">
                    <tspan x="798" y="64">Voluntary hands-</tspan>
                    <tspan x="798" y="88">on lab assignment </tspan>
                    <tspan x="798" y="112">after webinar</tspan>
                </text>
                <path d="M798.5,27.5 L959.5,27.9375" id="直线-2" stroke="#9BB6FB" stroke-width="3" stroke-linecap="square"></path>
                <text id="4" font-family="OpenSans-Bold, Open Sans" font-size="17" font-weight="bold" letter-spacing="0.4" fill="#9BB6FB">
                    <tspan x="798.448193" y="18">4</tspan>
                </text>
                <text id="1-trainer-vs.-150+-l" font-family="OpenSans-SemiBold, Open Sans" font-size="17" font-weight="500" line-spacing="24" letter-spacing="0.4" fill="#082B80">
                    <tspan x="101" y="65">1 trainer vs. </tspan>
                    <tspan x="101" y="89">150+ learners</tspan>
                </text>
                <path d="M101.5,27.5 L209,27" id="直线-2" stroke="#9BB6FB" stroke-width="3" stroke-linecap="square"></path>
                <text id="1" font-family="OpenSans-Bold, Open Sans" font-size="17" font-weight="bold" letter-spacing="0.4" fill="#9BB6FB">
                    <tspan x="101.448193" y="18">1</tspan>
                </text>
                <g id="编组-12" transform="translate(283.000000, 194.000000)" fill="#404040" font-family="OpenSans-SemiBold, Open Sans" font-size="16" font-weight="500" letter-spacing="0.376470588" line-spacing="28">
                    <text id="Time-conflicts">
                        <tspan x="3" y="17">Time conflicts</tspan>
                    </text>
                    <text id="Boring-&amp;-Distracting">
                        <tspan x="0.688419118" y="42">Boring &amp; Distracting</tspan>
                    </text>
                </g>
                <text id="Not-on-the-same-page" font-family="OpenSans-SemiBold, Open Sans" font-size="16" font-weight="500" line-spacing="24" letter-spacing="0.376470588" fill="#404040">
                    <tspan x="100" y="214">Not on the same </tspan>
                    <tspan x="100" y="238">page/progress</tspan>
                </text>
                <text id="No-Enough-feedback" font-family="OpenSans-SemiBold, Open Sans" font-size="16" font-weight="500" line-spacing="24" letter-spacing="0.376470588" fill="#404040">
                    <tspan x="798" y="214">No Enough </tspan>
                    <tspan x="798" y="238">feedback</tspan>
                </text>
                <text id="Still-need-to-ask-fo" font-family="OpenSans-SemiBold, Open Sans" font-size="16" font-weight="500" line-spacing="24" letter-spacing="0.376470588" fill="#404040">
                    <tspan x="513" y="214">Still need to ask for </tspan>
                    <tspan x="513" y="238">help after the trainning</tspan>
                </text>
                <text id="Hard-to-track-learni" font-family="OpenSans-SemiBold, Open Sans" font-size="16" font-weight="500" line-spacing="24" letter-spacing="0.376470588" fill="#404040">
                    <tspan x="100" y="328">Hard to track </tspan>
                    <tspan x="100" y="352">learning progress</tspan>
                </text>
                <text id="Hard-to-continuously" font-family="OpenSans-SemiBold, Open Sans" font-size="16" font-weight="500" line-spacing="24" letter-spacing="0.376470588" fill="#404040">
                    <tspan x="286" y="328">Hard to continuously </tspan>
                    <tspan x="286" y="352">improve their course</tspan>
                </text>
                <text id="Learner" font-family="OpenSans-Regular, Open Sans" font-size="16" font-weight="normal" line-spacing="28" letter-spacing="0.376470588" fill="#404040">
                    <tspan x="0.162821691" y="263">Learner</tspan>
                </text>
                <text id="Trainer" font-family="PingFangSC-Regular, PingFang SC" font-size="16" font-weight="normal" letter-spacing="0.376470588" fill="#404040">
                    <tspan x="2.95835294" y="372">Trainer</tspan>
                </text>
                <text id="Pain-Points" font-family="OpenSans-Bold, Open Sans" font-size="17" font-weight="bold" letter-spacing="0.4" fill="#F09627">
                    <tspan x="100.244824" y="164">Pain Points</tspan>
                </text>
                <g id="编组-6" transform="translate(517.000000, 406.000000)">
                    <g id="编组-3" transform="translate(13.500000, 56.500000) scale(1, -1) translate(-13.500000, -56.500000) " stroke="#1051F4" stroke-linecap="round" stroke-linejoin="round" stroke-opacity="0.2" stroke-width="2">
                        <path d="M6.89742371,12 L7,112" id="直线-4"></path>
                        <path d="M21,12 L21,112" id="直线-4"></path>
                        <polyline id="路径-6" points="-1.13686838e-13 22.4243349 13.3974237 0 26.9921395 22.4243349"></polyline>
                    </g>
                    <text id="reframed" font-family="Charter-Italic, Charter" font-size="18" font-style="italic" font-weight="normal" letter-spacing="0.5625" fill="#979797">
                        <tspan x="47" y="56">reframed</tspan>
                    </text>
                </g>
                <g id="man-(1)" transform="translate(7.000000, 192.000000)" fill-rule="nonzero">
                    <polygon id="路径" fill="#E6AF78" points="32 37.0666208 32 31 15 31 15 37.0666208 23.5 44"></polygon>
                    <path d="M45.1536306,40.1791114 L33.731239,37.4594648 C33.5586937,37.4184072 33.4000566,37.3486726 33.2515631,37.2641235 L24.0001046,42.7251095 L15.1094225,37 C14.8792575,37.2192564 14.5935644,37.3822172 14.2690747,37.4595706 L2.84668308,40.1792172 C1.17874556,40.5763548 0,42.0823666 0,43.8162061 L0,51.1318766 C0,52.1637148 0.826544084,53 1.84612971,53 L46.1538703,53 C47.1735605,53 48,52.1636089 48,51.1318766 L48,43.8162061 C48,42.0822608 46.8214636,40.5761432 45.1536306,40.1791114 Z" id="路径" fill="#EFF2FA"></path>
                    <path d="M15,31.0001085 L15,38.0766802 C25.7077061,41.9905965 32,32.1950053 32,32.1950053 L32,31 L15,31 L15,31.0001085 Z" id="路径" fill="#D29B6E"></path>
                    <path d="M12,10 L12.8043746,27.117252 C12.879458,28.7163174 13.690107,30.1992636 15.0139997,31.1596739 L18.8307009,33.9285281 C19.7894251,34.6239278 20.9554127,35 22.153818,35 L25.846182,35 C27.0445873,35 28.2105749,34.624029 29.1692991,33.9285281 L32.9860003,31.1596739 C34.309893,30.1991625 35.120542,28.7164185 35.1956254,27.117252 L36,10 C36,10 12,10 12,10 Z" id="路径" fill="#F0C087"></path>
                    <path d="M21.8689776,13.5714719 C25.4165887,13.5714719 30.7378546,12.6786292 32,10 L13,10 L13.7728405,27.117252 C13.8449803,28.7163174 14.6238492,30.1991625 15.8959414,31.1596739 L19.5630153,33.9285281 C20.4841543,34.6239278 21.6044314,35 22.7558552,35 L24.5296105,35 C22.7558552,35 19.2082441,31.4285281 19.2082441,26.9643146 C19.2082441,24.7809112 19.2082441,18.9286292 19.2082441,16.25 C19.2082441,15.3571573 20.0951218,13.5714719 21.8689776,13.5714719 Z" id="路径" fill="#E6AF78"></path>
                    <g id="编组" transform="translate(0.000000, 41.000000)" fill="#E4EAF6">
                        <path d="M6.81391304,5.64152727 L0.845321739,0.0362181818 C0.345182609,0.698290909 0.0519652174,1.53141818 0.0519652174,2.42334545 L0.0519652174,9.96523636 C0.0519652174,11.0289818 0.876730435,11.8911273 1.89412174,11.8911273 L8.34177391,11.8911273 L8.34177391,9.22341818 C8.34166957,7.85683636 7.78622609,6.55461818 6.81391304,5.64152727 Z" id="路径"></path>
                        <path d="M41.1866087,5.64152727 L47.1552,0.0362181818 C47.6553391,0.698290909 47.9485565,1.53141818 47.9485565,2.42334545 L47.9485565,9.96523636 C47.9485565,11.0289818 47.1237913,11.8911273 46.1064,11.8911273 L39.6587478,11.8911273 L39.6587478,9.22341818 C39.6587478,7.85683636 40.2141913,6.55461818 41.1866087,5.64152727 Z" id="路径"></path>
                    </g>
                    <polygon id="路径" fill="#5B5D6E" points="26 53 22 53 22.5 45 25.5 45"></polygon>
                    <path d="M26,43 L22,43 L22,44.8819953 C22,45.4995091 22.4003988,46 22.8944173,46 L25.1054921,46 C25.5995106,46 25.9999094,45.4995091 25.9999094,44.8819953 L25.9999094,43 L26,43 Z" id="路径" fill="#515262"></path>
                    <g id="编组" transform="translate(13.000000, 34.000000)" fill="#E4EAF6">
                        <path d="M2.6274434,0.245035714 L11.0003113,8.02521429 C11.0003113,8.02521429 8.6554434,9.24739286 5.76182075,11.7107143 C5.16491509,12.2187857 4.26198113,12.0129643 3.94183962,11.2857857 L0.00809433962,2.35071429 L1.25254717,0.423535714 C1.56220755,-0.0564642857 2.21224528,-0.140678571 2.6274434,0.245035714 Z" id="路径"></path>
                        <path d="M19.3730755,0.245035714 L11.0002075,8.02521429 C11.0002075,8.02521429 13.3450755,9.24739286 16.2386981,11.7107143 C16.8356038,12.2187857 17.7385377,12.0129643 18.0586792,11.2857857 L21.9924245,2.35071429 L20.7479717,0.423535714 C20.4382075,-0.0564642857 19.7881698,-0.140678571 19.3730755,0.245035714 Z" id="路径"></path>
                    </g>
                    <path d="M30,3.58300978 L30.8532054,9.80025364 C34.7480495,10.6034561 35.3093607,16.9059638 35.3901961,18.7060727 C35.4048372,19.0327757 35.5059846,19.3482094 35.677863,19.6230312 L37.1639354,22 C37.1639354,22 36.6553116,18.0702086 38.9841757,15.4308567 C38.9842788,15.4308567 39.783972,-0.170831929 30,3.58300978 Z" id="路径" fill="#785550"></path>
                    <path d="M37.9393318,20.5736579 L36.8498979,25.0893977 C36.7207838,25.6246796 36.2568041,26 35.724277,26 L35.724277,26 C35.1390548,26 34.6455571,25.5485506 34.5729646,24.9468825 L34.0157298,20.3281646 C33.8666091,19.0918617 34.796755,18 35.9991227,18 L36,18 C37.3005398,18.0001133 38.2547374,19.266324 37.9393318,20.5736579 Z" id="路径" fill="#F0C087"></path>
                    <path d="M12.7321063,2.37052398 L14.0947455,3.2966131 C7.93375045,7.82208326 9.08525149,15.5841409 9.08525149,15.5841409 C10.9277784,17.4172139 10.9277784,22 10.9277784,22 L12.7703053,20.1669271 C12.7703053,20.1669271 12.0592406,14.8716369 15.5340957,12.8345316 C18.75857,10.9441427 21.5799719,11.9179951 24.4589854,11.9179951 C32.1746582,11.9179951 34.3339444,9.02509577 33.9596779,5.50213604 C33.7659694,3.67923878 30.9645019,-0.117944679 23.8256755,0.00281343891 C20.944679,0.0515112525 15.5343044,0.9193499 12.7321063,2.37052398 Z" id="路径" fill="#694B4B"></path>
                    <path d="M12.2318148,10.943274 C12.2318148,10.943274 11.2415387,7.04431269 14.1540844,3 C7.92133176,7.59723865 9.08624442,15.4823932 9.08624442,15.4823932 C10.9502314,17.3445364 10.9502314,22 10.9502314,22 L12.8142184,20.1378568 C12.8142184,20.1378568 12.0948718,14.7585897 15.6101988,12.6891783 C18.8722288,10.7688101 21.7264918,11.7581067 24.6390374,11.7581067 C25.9084787,11.7581067 27.0146864,11.6731953 28,11.527633 C21.988869,11.7288887 18.4453511,7.1800654 12.2318148,10.943274 Z" id="路径" fill="#5A4146"></path>
                    <path d="M10.0606682,20.5736579 L11.1501021,25.0893977 C11.2792162,25.6246796 11.7431959,26 12.275723,26 L12.275723,26 C12.8609452,26 13.3544429,25.5485506 13.4270354,24.9468825 L13.9842702,20.3281646 C14.1333909,19.0918617 13.203245,18 12.0008773,18 L12,18 C10.6994602,18.0001133 9.74526264,19.266324 10.0606682,20.5736579 Z" id="路径" fill="#E6AF78"></path>
                    <path d="M36.1111223,51 L29.8888777,51 C29.3979659,51 29,51.4477172 29,52 L29,53 L37,53 L37,52 C37,51.4478305 36.6019334,51 36.1111223,51 Z" id="路径" fill="#E4EAF6"></path>
                </g>
                <g id="student-(1)" transform="translate(6.000000, 295.000000)" fill-rule="nonzero">
                    <rect id="矩形" fill="#FCB47E" x="19" y="34" width="12" height="12"></rect>
                    <path d="M29,45.6037283 C26.8868375,46.8187976 25.484544,47 25.484544,47 C25.484544,47 24.08258,46.818897 21.9698569,45.604225 C21.9698569,45.604225 20.7001578,42.6951518 21.0663031,43.0262634 C21.4324484,43.357375 25.484544,43.0262634 25.484544,43.0262634 L28.975832,43.8210107 L29,45.6037283 Z" id="路径" fill="#4296D9"></path>
                    <path d="M35.3212284,39 L44.2936422,40.4899438 C47.90625,41.48795 50,44.984 50,48.2589438 L50,53.7671562 C50,55.0002937 48.8421336,56 47.4137931,56 L2.5862069,56 C1.15786638,56 0,55.0002937 0,53.7671562 L0,48.2589438 C0,44.984 2.09375,41.48795 5.70635776,40.4899438 L14.6315733,39 L25,43.25 L35.3212284,39 Z" id="路径" fill="#996459"></path>
                    <path d="M10,38.6806396 C10.0134767,38.7082973 10.013368,38.7400605 10.0298878,38.7664218 C16.6399894,49.3625756 23.0752199,50.7637208 23.7867677,50.8877485 L24.3497457,50.9864952 C24.3998486,50.9957865 24.4499515,51 24.5009238,51 C24.5518961,51 24.601999,50.9957865 24.6521019,50.9864952 L25.21508,50.8877485 C25.9266277,50.7637208 32.3618583,49.3625756 38.9719598,38.7664218 C38.9877188,38.7412489 38.9870667,38.7109983 39,38.684637 L34.9108012,38 L24.5010325,42.3215212 L14.0436606,38 L10,38.6806396 Z" id="路径" fill="#7E5C62"></path>
                    <path d="M17.2503376,35 L14,39.1560224 L19.2488894,46.6349924 C19.5522026,47.0671148 20.1882131,47.1256109 20.5706374,46.7565561 L25,43.3120447 L17.2503376,35 Z" id="路径" fill="#4BB9EC"></path>
                    <path d="M32.7496624,35 L36,39.1560224 L30.7511106,46.6349924 C30.4477974,47.0671148 29.8117869,47.1256109 29.4293626,46.7565561 L25,43.3120447 L32.7496624,35 Z" id="路径" fill="#4BB9EC"></path>
                    <path d="M37.177425,20.0354211 L35.423725,15.9193766 C35.423725,15.9193766 27.8403917,11.7876244 15.4903917,13.3548628 L15.4666667,13.3548628 C13.24995,16.1146002 12,19.504353 12,23.6129177 C12,32.1109682 17.8203167,39 25,39 C32.1796833,39 38,32.1109682 38,23.6129177 C38,22.2338504 37.8323,20.9039364 37.5447833,19.6322581 C37.320425,19.87952 37.177425,20.0354211 37.177425,20.0354211 Z" id="路径" fill="#FFDCAD"></path>
                    <circle id="椭圆形" fill="#D5F7FF" cx="19.5" cy="23.5" r="3.5"></circle>
                    <circle id="椭圆形" fill="#D5F7FF" cx="29.5" cy="23.5" r="3.5"></circle>
                    <path d="M39.1020164,2.21280249 C38.9430899,1.86405881 38.5657775,1.66146647 38.167798,1.71376208 C35.9522203,2.02179597 33.2660521,1.49947763 30.4244939,0.951436656 C25.658355,0.0313740728 20.7325159,-0.920257201 16.8815862,1.72205284 C16.8254424,1.71121107 16.7667568,1.70547131 16.7063028,1.70547131 C12.7577847,1.70547131 10,4.85266782 10,9.35848725 C10,13.0280021 11.6914958,20.0458177 11.7639964,20.3431161 C11.8546221,20.7159881 12.1940264,20.9850128 12.5920059,20.9991497 C12.6032789,21 12.6144413,21 12.6248301,21 C13.0098789,21 13.3527093,20.7591426 13.4684229,20.4038088 L15.9784236,12.6868051 C26.5373139,11.513449 33.5396975,14.4240398 34.9514693,15.0783726 L36.6144511,18.8848977 C36.7577945,19.2120642 37.0979725,19.4379344 37.4684327,19.4047713 C37.8388929,19.3890401 38.1591775,19.1531784 38.2722386,18.8134696 C40.9221565,10.8265908 39.9516878,4.06950919 39.1020164,2.21280249 Z" id="路径" fill="#7E5C62"></path>
                    <path d="M26.3333333,24 C25.9648333,24 25.6666667,23.6645625 25.6666667,23.25 C25.6666667,22.8361875 25.3678333,22.5 25,22.5 C24.6321667,22.5 24.3333333,22.8361875 24.3333333,23.25 C24.3333333,23.6645625 24.0351667,24 23.6666667,24 C23.2981667,24 23,23.6645625 23,23.25 C23,22.0093125 23.8971667,21 25,21 C26.1028333,21 27,22.0093125 27,23.25 C27,23.6645625 26.7018333,24 26.3333333,24 Z" id="路径" fill="#5C546A"></path>
                    <path d="M16.1461961,22 L11.8538039,22 C11.3818638,22 11,21.55275 11,21 C11,20.44725 11.3818638,20 11.8538039,20 L16.1461961,20 C16.6181362,20 17,20.44725 17,21 C17,21.55275 16.6181362,22 16.1461961,22 Z" id="路径" fill="#5C546A"></path>
                    <path d="M38.1394919,22 L33.8605081,22 C33.3848622,22 33,21.55275 33,21 C33,20.44725 33.3848622,20 33.8605081,20 L38.1394919,20 C38.6151378,20 39,20.44725 39,21 C39,21.55275 38.6151378,22 38.1394919,22 Z" id="路径" fill="#5C546A"></path>
                    <path d="M19.5,27 C17.0188125,27 15,24.9811875 15,22.5 C15,20.0188125 17.0188125,18 19.5,18 C21.9811875,18 24,20.0188125 24,22.5 C24,24.9811875 21.9811875,27 19.5,27 Z M19.5,19.8 C18.011175,19.8 16.8,21.011175 16.8,22.5 C16.8,23.988825 18.011175,25.2 19.5,25.2 C20.988825,25.2 22.2,23.988825 22.2,22.5 C22.2,21.011175 20.988825,19.8 19.5,19.8 Z" id="形状" fill="#868491"></path>
                    <path d="M29.5,27 C27.0188125,27 25,24.9811875 25,22.5 C25,20.0188125 27.0188125,18 29.5,18 C31.9811875,18 34,20.0188125 34,22.5 C34,24.9811875 31.9811875,27 29.5,27 Z M29.5,19.8 C28.011175,19.8 26.8,21.011175 26.8,22.5 C26.8,23.988825 28.011175,25.2 29.5,25.2 C30.988825,25.2 32.2,23.988825 32.2,22.5 C32.2,21.011175 30.988825,19.8 29.5,19.8 Z" id="形状" fill="#868491"></path>
                    <path d="M9,56 L9,50.0101002 C9,47.8563654 8.15528711,45.8320742 6.62258194,44.3098807 L3.28984457,41 C2.81179029,41.3714224 2.37985021,41.791666 2,42.2524448 L5.3471692,45.5766584 C6.53982443,46.7611341 7.19602158,48.3358441 7.19602158,50.0102122 L7.19602158,56 L9,56 L9,56 Z" id="路径" fill="#7E5C62"></path>
                    <path d="M46.7100635,41 L43.3773798,44.3099054 C41.8437973,45.8321103 41,47.8564166 41,50.0101674 L41,56 L42.8039494,56 L42.8039494,50.0101674 C42.8039494,48.3357869 43.4601359,46.7610651 44.652772,45.5765805 L48,42.2522302 C47.6201559,41.791672 47.18811,41.3715371 46.7100635,41 Z" id="路径" fill="#7E5C62"></path>
                </g>
            </g>
        </g>
    </g>
</svg>