<svg width="391" height="285" viewBox="0 0 391 285" fill="none" xmlns="http://www.w3.org/2000/svg">
<g clip-path="url(#clip0)">
<path d="M230.898 213.001C230.875 213.124 230.857 213.256 230.846 213.396C230.84 213.537 230.837 213.684 230.837 213.836C230.837 214.557 231.004 215.128 231.338 215.55C231.672 215.966 232.129 216.174 232.709 216.174C233.131 216.174 233.588 216.048 234.08 215.796C234.572 215.544 235.076 215.178 235.592 214.697V215.541C235.035 216.074 234.464 216.479 233.878 216.754C233.292 217.023 232.697 217.158 232.094 217.158C231.238 217.158 230.57 216.871 230.09 216.297C229.615 215.723 229.378 214.92 229.378 213.889C229.378 213.133 229.519 212.395 229.8 211.674C230.081 210.953 230.474 210.329 230.978 209.802C231.417 209.351 231.903 208.993 232.437 208.729C232.976 208.46 233.479 208.325 233.948 208.325C234.517 208.325 234.968 208.486 235.302 208.809C235.636 209.131 235.803 209.564 235.803 210.109C235.803 210.906 235.369 211.562 234.502 212.078C233.635 212.594 232.434 212.901 230.898 213.001ZM230.978 212.395C232.026 212.336 232.876 212.087 233.526 211.647C234.183 211.202 234.511 210.669 234.511 210.048C234.511 209.772 234.42 209.544 234.238 209.362C234.057 209.175 233.834 209.081 233.57 209.081C233.02 209.081 232.51 209.377 232.041 209.969C231.578 210.555 231.224 211.363 230.978 212.395ZM239.512 208.272C239.535 208.272 239.567 208.27 239.608 208.264C239.655 208.258 239.69 208.255 239.714 208.255C240.364 208.255 240.953 209.289 241.48 211.357C241.539 211.586 241.586 211.762 241.621 211.885C242.225 210.666 242.808 209.761 243.37 209.169C243.938 208.571 244.501 208.272 245.058 208.272C245.345 208.272 245.588 208.372 245.787 208.571C245.986 208.765 246.086 208.999 246.086 209.274C246.086 209.491 246.01 209.685 245.857 209.854C245.711 210.024 245.491 210.168 245.198 210.285L244.425 209.582C244.015 209.693 243.61 210.004 243.212 210.514C242.813 211.018 242.415 211.735 242.017 212.667C242.046 212.767 242.09 212.916 242.148 213.115C242.74 215.189 243.373 216.227 244.047 216.227C244.141 216.227 244.264 216.212 244.416 216.183C244.574 216.147 244.771 216.095 245.005 216.024V216.587C244.577 216.757 244.193 216.886 243.854 216.974C243.514 217.062 243.224 217.105 242.983 217.105C242.157 217.105 241.469 215.925 240.918 213.563L240.9 213.493C240.303 214.747 239.726 215.67 239.169 216.262C238.612 216.848 238.044 217.141 237.464 217.141C237.124 217.141 236.854 217.053 236.655 216.877C236.45 216.701 236.348 216.467 236.348 216.174C236.348 215.934 236.424 215.734 236.576 215.576C236.729 215.418 236.945 215.31 237.227 215.251L238.053 216.024C238.498 215.79 238.94 215.377 239.38 214.785C239.825 214.193 240.218 213.484 240.558 212.658C240.3 211.762 240.062 211.067 239.846 210.575C239.635 210.083 239.415 209.734 239.187 209.529L237.692 209.336V208.896L239.512 208.272ZM248.248 213.001C248.225 213.124 248.207 213.256 248.195 213.396C248.189 213.537 248.187 213.684 248.187 213.836C248.187 214.557 248.354 215.128 248.688 215.55C249.021 215.966 249.479 216.174 250.059 216.174C250.48 216.174 250.938 216.048 251.43 215.796C251.922 215.544 252.426 215.178 252.941 214.697V215.541C252.385 216.074 251.813 216.479 251.228 216.754C250.642 217.023 250.047 217.158 249.443 217.158C248.588 217.158 247.92 216.871 247.439 216.297C246.965 215.723 246.728 214.92 246.728 213.889C246.728 213.133 246.868 212.395 247.149 211.674C247.431 210.953 247.823 210.329 248.327 209.802C248.767 209.351 249.253 208.993 249.786 208.729C250.325 208.46 250.829 208.325 251.298 208.325C251.866 208.325 252.317 208.486 252.651 208.809C252.985 209.131 253.152 209.564 253.152 210.109C253.152 210.906 252.719 211.562 251.852 212.078C250.984 212.594 249.783 212.901 248.248 213.001ZM248.327 212.395C249.376 212.336 250.226 212.087 250.876 211.647C251.532 211.202 251.86 210.669 251.86 210.048C251.86 209.772 251.77 209.544 251.588 209.362C251.406 209.175 251.184 209.081 250.92 209.081C250.369 209.081 249.859 209.377 249.391 209.969C248.928 210.555 248.573 211.363 248.327 212.395ZM260.061 210.514L259.023 209.151H258.936C258.174 209.151 257.532 209.579 257.011 210.435C256.495 211.29 256.237 212.362 256.237 213.651C256.237 214.425 256.396 215.028 256.712 215.462C257.028 215.89 257.468 216.104 258.03 216.104C258.458 216.104 258.915 215.975 259.401 215.717C259.888 215.453 260.368 215.084 260.843 214.609V215.436C260.304 215.998 259.744 216.429 259.164 216.728C258.59 217.026 258.027 217.176 257.477 217.176C256.668 217.176 256.021 216.88 255.534 216.288C255.054 215.696 254.813 214.902 254.813 213.906C254.813 213.115 254.939 212.371 255.191 211.674C255.449 210.977 255.821 210.364 256.308 209.837C256.759 209.339 257.266 208.955 257.828 208.686C258.391 208.41 258.956 208.272 259.524 208.272C260.005 208.272 260.403 208.396 260.72 208.642C261.042 208.882 261.203 209.178 261.203 209.529C261.203 209.816 261.098 210.051 260.887 210.232C260.676 210.414 260.4 210.508 260.061 210.514ZM265.571 208.308L265.861 208.554L264.728 213.792C264.657 214.126 264.604 214.401 264.569 214.618C264.54 214.829 264.525 214.999 264.525 215.128C264.525 215.438 264.616 215.682 264.798 215.857C264.985 216.033 265.243 216.121 265.571 216.121C265.923 216.121 266.321 216.021 266.767 215.822C267.212 215.623 267.666 215.345 268.129 214.987L269.474 208.483H270.933L269.658 214.354C269.652 214.384 269.641 214.434 269.623 214.504C269.523 214.996 269.474 215.354 269.474 215.576C269.474 215.775 269.562 215.942 269.737 216.077C269.913 216.212 270.139 216.279 270.414 216.279C270.525 216.279 270.663 216.265 270.827 216.235C270.997 216.2 271.196 216.15 271.425 216.086V216.587C270.897 216.78 270.446 216.921 270.071 217.009C269.696 217.097 269.377 217.141 269.113 217.141C268.744 217.141 268.472 217.05 268.296 216.868C268.126 216.681 268.041 216.388 268.041 215.989C268.041 215.901 268.041 215.834 268.041 215.787C268.047 215.734 268.05 215.69 268.05 215.655C267.458 216.147 266.89 216.52 266.345 216.771C265.806 217.018 265.29 217.141 264.798 217.141C264.253 217.141 263.825 216.991 263.515 216.692C263.204 216.394 263.049 215.98 263.049 215.453C263.049 215.312 263.061 215.154 263.084 214.979C263.107 214.803 263.146 214.601 263.198 214.372L264.235 209.635L262.741 209.371V208.896L265.571 208.308ZM275.74 206.576H276.566L276.188 208.633H278.781V209.406H276.048L275.107 214.214C275.102 214.255 275.093 214.311 275.081 214.381C275.028 214.686 275.002 214.894 275.002 215.005C275.002 215.368 275.096 215.646 275.283 215.84C275.471 216.027 275.743 216.121 276.101 216.121C276.3 216.121 276.54 216.092 276.821 216.033C277.108 215.969 277.439 215.878 277.814 215.761V216.332C277.205 216.596 276.669 216.795 276.206 216.93C275.743 217.059 275.354 217.123 275.037 217.123C274.527 217.123 274.146 216.988 273.895 216.719C273.648 216.449 273.525 216.039 273.525 215.488C273.525 215.318 273.537 215.131 273.561 214.926C273.584 214.715 273.619 214.501 273.666 214.284L274.642 209.406L273.525 209.494V208.958L274.844 208.378L275.74 206.576ZM281.189 213.001C281.166 213.124 281.148 213.256 281.137 213.396C281.131 213.537 281.128 213.684 281.128 213.836C281.128 214.557 281.295 215.128 281.629 215.55C281.963 215.966 282.42 216.174 283 216.174C283.422 216.174 283.879 216.048 284.371 215.796C284.863 215.544 285.367 215.178 285.883 214.697V215.541C285.326 216.074 284.755 216.479 284.169 216.754C283.583 217.023 282.988 217.158 282.385 217.158C281.529 217.158 280.861 216.871 280.381 216.297C279.906 215.723 279.669 214.92 279.669 213.889C279.669 213.133 279.81 212.395 280.091 211.674C280.372 210.953 280.765 210.329 281.269 209.802C281.708 209.351 282.194 208.993 282.728 208.729C283.267 208.46 283.771 208.325 284.239 208.325C284.808 208.325 285.259 208.486 285.593 208.809C285.927 209.131 286.094 209.564 286.094 210.109C286.094 210.906 285.66 211.562 284.793 212.078C283.926 212.594 282.725 212.901 281.189 213.001ZM281.269 212.395C282.317 212.336 283.167 212.087 283.817 211.647C284.474 211.202 284.802 210.669 284.802 210.048C284.802 209.772 284.711 209.544 284.529 209.362C284.348 209.175 284.125 209.081 283.861 209.081C283.311 209.081 282.801 209.377 282.332 209.969C281.869 210.555 281.515 211.363 281.269 212.395ZM293.116 209.011C293.075 209.005 293.005 208.996 292.905 208.984C292.812 208.967 292.738 208.958 292.686 208.958C291.789 208.958 291.004 209.438 290.33 210.399C289.656 211.36 289.319 212.535 289.319 213.924C289.319 214.615 289.457 215.157 289.732 215.55C290.008 215.942 290.386 216.139 290.866 216.139C291.218 216.139 291.593 216.007 291.991 215.743C292.39 215.474 292.782 215.096 293.169 214.609L293.978 210.03L293.116 209.011ZM296.034 203.755H296.5L294.575 214.53C294.54 214.724 294.514 214.905 294.496 215.075C294.479 215.239 294.47 215.383 294.47 215.506C294.47 215.764 294.534 215.954 294.663 216.077C294.792 216.2 294.991 216.262 295.261 216.262C295.366 216.262 295.513 216.247 295.7 216.218C295.894 216.183 296.137 216.133 296.43 216.068V216.604C295.961 216.774 295.536 216.903 295.155 216.991C294.78 217.079 294.467 217.123 294.215 217.123C293.799 217.123 293.494 217.021 293.301 216.815C293.107 216.61 293.011 216.288 293.011 215.849C293.011 215.755 293.011 215.682 293.011 215.629C293.017 215.576 293.022 215.529 293.028 215.488C292.595 216.039 292.138 216.455 291.657 216.736C291.183 217.018 290.702 217.158 290.216 217.158C289.483 217.158 288.906 216.874 288.484 216.306C288.068 215.737 287.86 214.949 287.86 213.941C287.86 213.332 287.934 212.752 288.08 212.201C288.232 211.65 288.452 211.144 288.739 210.681C289.214 209.937 289.814 209.348 290.541 208.914C291.273 208.475 292.023 208.255 292.791 208.255C293.049 208.255 293.295 208.281 293.529 208.334C293.764 208.381 293.998 208.454 294.232 208.554L294.865 204.959L293.274 204.774V204.273L296.034 203.755ZM234.634 231.011C234.593 231.005 234.522 230.996 234.423 230.984C234.329 230.967 234.256 230.958 234.203 230.958C233.307 230.958 232.521 231.438 231.848 232.399C231.174 233.36 230.837 234.535 230.837 235.924C230.837 236.615 230.975 237.157 231.25 237.55C231.525 237.942 231.903 238.139 232.384 238.139C232.735 238.139 233.11 238.007 233.509 237.743C233.907 237.474 234.3 237.096 234.687 236.609L235.495 232.03L234.634 231.011ZM237.552 225.755H238.018L236.093 236.53C236.058 236.724 236.031 236.905 236.014 237.075C235.996 237.239 235.987 237.383 235.987 237.506C235.987 237.764 236.052 237.954 236.181 238.077C236.31 238.2 236.509 238.262 236.778 238.262C236.884 238.262 237.03 238.247 237.218 238.218C237.411 238.183 237.654 238.133 237.947 238.068V238.604C237.479 238.774 237.054 238.903 236.673 238.991C236.298 239.079 235.984 239.123 235.732 239.123C235.316 239.123 235.012 239.021 234.818 238.815C234.625 238.61 234.528 238.288 234.528 237.849C234.528 237.755 234.528 237.682 234.528 237.629C234.534 237.576 234.54 237.529 234.546 237.488C234.112 238.039 233.655 238.455 233.175 238.736C232.7 239.018 232.22 239.158 231.733 239.158C231.001 239.158 230.424 238.874 230.002 238.306C229.586 237.737 229.378 236.949 229.378 235.941C229.378 235.332 229.451 234.752 229.598 234.201C229.75 233.65 229.97 233.144 230.257 232.681C230.731 231.937 231.332 231.348 232.059 230.914C232.791 230.475 233.541 230.255 234.309 230.255C234.566 230.255 234.812 230.281 235.047 230.334C235.281 230.381 235.516 230.454 235.75 230.554L236.383 226.959L234.792 226.774V226.273L237.552 225.755ZM240.883 235.001C240.859 235.124 240.842 235.256 240.83 235.396C240.824 235.537 240.821 235.684 240.821 235.836C240.821 236.557 240.988 237.128 241.322 237.55C241.656 237.966 242.113 238.174 242.693 238.174C243.115 238.174 243.572 238.048 244.064 237.796C244.557 237.544 245.061 237.178 245.576 236.697V237.541C245.02 238.074 244.448 238.479 243.862 238.754C243.276 239.023 242.682 239.158 242.078 239.158C241.223 239.158 240.555 238.871 240.074 238.297C239.6 237.723 239.362 236.92 239.362 235.889C239.362 235.133 239.503 234.395 239.784 233.674C240.065 232.953 240.458 232.329 240.962 231.802C241.401 231.351 241.888 230.993 242.421 230.729C242.96 230.46 243.464 230.325 243.933 230.325C244.501 230.325 244.952 230.486 245.286 230.809C245.62 231.131 245.787 231.564 245.787 232.109C245.787 232.906 245.354 233.562 244.486 234.078C243.619 234.594 242.418 234.901 240.883 235.001ZM240.962 234.395C242.011 234.336 242.86 234.087 243.511 233.647C244.167 233.202 244.495 232.669 244.495 232.048C244.495 231.772 244.404 231.544 244.223 231.362C244.041 231.175 243.818 231.081 243.555 231.081C243.004 231.081 242.494 231.377 242.025 231.969C241.562 232.555 241.208 233.363 240.962 234.395ZM251.966 232.355L251.21 231.318C251.122 231.254 251.031 231.207 250.938 231.178C250.85 231.148 250.753 231.134 250.647 231.134C250.284 231.134 249.982 231.248 249.742 231.477C249.508 231.705 249.391 231.992 249.391 232.338C249.391 232.766 249.83 233.316 250.709 233.99L250.744 234.017C250.797 234.058 250.879 234.119 250.99 234.201C252.033 234.998 252.555 235.728 252.555 236.39C252.555 237.192 252.247 237.854 251.632 238.376C251.017 238.897 250.229 239.158 249.268 239.158C248.529 239.158 247.943 239.018 247.51 238.736C247.082 238.449 246.868 238.062 246.868 237.576C246.868 237.301 246.956 237.081 247.132 236.917C247.302 236.747 247.527 236.662 247.809 236.662C247.926 236.662 248.046 236.688 248.169 236.741C248.292 236.788 248.43 236.87 248.582 236.987L248.257 237.884C248.397 238.089 248.579 238.247 248.802 238.358C249.024 238.464 249.273 238.517 249.549 238.517C250.064 238.517 250.466 238.382 250.753 238.112C251.046 237.837 251.192 237.462 251.192 236.987C251.192 236.718 251.113 236.469 250.955 236.24C250.797 236.012 250.46 235.701 249.944 235.309L249.865 235.247C248.781 234.433 248.239 233.697 248.239 233.041C248.239 232.297 248.541 231.658 249.145 231.125C249.748 230.592 250.478 230.325 251.333 230.325C251.831 230.325 252.235 230.431 252.546 230.642C252.856 230.847 253.012 231.113 253.012 231.441C253.012 231.705 252.918 231.919 252.73 232.083C252.543 232.247 252.288 232.338 251.966 232.355ZM257.661 230.325H258.127L256.835 237.049C256.812 237.16 256.794 237.254 256.782 237.33C256.776 237.4 256.773 237.459 256.773 237.506C256.773 237.734 256.847 237.91 256.993 238.033C257.14 238.15 257.356 238.209 257.644 238.209C257.808 238.209 257.998 238.188 258.215 238.147C258.438 238.101 258.689 238.03 258.971 237.937V238.499C258.473 238.704 258.01 238.859 257.582 238.965C257.16 239.07 256.776 239.123 256.431 239.123C256.05 239.123 255.763 239.026 255.569 238.833C255.376 238.634 255.279 238.335 255.279 237.937C255.279 237.825 255.288 237.69 255.306 237.532C255.329 237.374 255.358 237.198 255.394 237.005L256.448 231.635L254.998 231.371V230.896L257.661 230.325ZM258.021 226.326C258.279 226.326 258.505 226.423 258.698 226.616C258.892 226.81 258.988 227.038 258.988 227.302C258.988 227.565 258.892 227.794 258.698 227.987C258.511 228.175 258.285 228.269 258.021 228.269C257.746 228.269 257.515 228.178 257.327 227.996C257.14 227.809 257.046 227.577 257.046 227.302C257.046 227.032 257.14 226.804 257.327 226.616C257.521 226.423 257.752 226.326 258.021 226.326ZM262.636 238.385C262.091 238.514 261.678 238.728 261.396 239.026C261.115 239.331 260.975 239.712 260.975 240.169C260.975 240.749 261.2 241.227 261.651 241.602C262.108 241.977 262.694 242.164 263.409 242.164C264.142 242.164 264.742 242.012 265.211 241.707C265.686 241.408 265.923 241.039 265.923 240.6C265.923 240.365 265.841 240.151 265.677 239.958C265.513 239.771 265.261 239.601 264.921 239.448L262.636 238.385ZM265.729 232.61C265.729 232.083 265.624 231.679 265.413 231.397C265.202 231.116 264.9 230.976 264.508 230.976C263.963 230.976 263.479 231.274 263.058 231.872C262.642 232.47 262.434 233.179 262.434 233.999C262.434 234.474 262.539 234.846 262.75 235.115C262.967 235.379 263.263 235.511 263.638 235.511C264.183 235.511 264.666 235.224 265.088 234.649C265.516 234.069 265.729 233.39 265.729 232.61ZM266.195 230.756H268.771V231.529H266.925C266.995 231.729 267.051 231.928 267.092 232.127C267.133 232.326 267.153 232.522 267.153 232.716C267.153 233.677 266.816 234.485 266.143 235.142C265.469 235.792 264.654 236.117 263.699 236.117C263.635 236.117 263.567 236.117 263.497 236.117C263.427 236.111 263.354 236.105 263.277 236.1C263.201 236.252 263.143 236.407 263.102 236.565C263.066 236.718 263.049 236.882 263.049 237.058V237.163L265.905 238.464C266.38 238.681 266.731 238.936 266.96 239.229C267.194 239.521 267.312 239.858 267.312 240.239C267.312 240.948 266.884 241.572 266.028 242.111C265.173 242.65 264.156 242.92 262.979 242.92C261.936 242.92 261.106 242.703 260.491 242.27C259.882 241.842 259.577 241.262 259.577 240.529C259.577 239.979 259.762 239.507 260.131 239.114C260.506 238.722 261.118 238.358 261.968 238.024C261.962 237.989 261.956 237.951 261.95 237.91C261.95 237.869 261.95 237.808 261.95 237.726C261.95 237.433 262.006 237.148 262.117 236.873C262.234 236.592 262.419 236.293 262.671 235.977C262.138 235.766 261.728 235.473 261.44 235.098C261.153 234.717 261.01 234.283 261.01 233.797C261.01 232.818 261.35 231.992 262.029 231.318C262.709 230.645 263.541 230.308 264.525 230.308C264.795 230.308 265.064 230.346 265.334 230.422C265.609 230.492 265.896 230.604 266.195 230.756ZM272.62 230.325H273.068L272.743 232.048C273.493 231.456 274.149 231.022 274.712 230.747C275.274 230.466 275.781 230.325 276.232 230.325C276.701 230.325 277.07 230.454 277.34 230.712C277.609 230.97 277.744 231.321 277.744 231.767C277.744 231.931 277.727 232.121 277.691 232.338C277.662 232.555 277.598 232.897 277.498 233.366L276.883 236.152C276.877 236.193 276.865 236.252 276.848 236.328C276.742 236.844 276.689 237.184 276.689 237.348C276.689 237.629 276.769 237.846 276.927 237.998C277.091 238.15 277.322 238.227 277.621 238.227C277.744 238.227 277.885 238.215 278.043 238.191C278.207 238.162 278.395 238.121 278.605 238.068L278.614 238.569C278.146 238.751 277.729 238.886 277.366 238.974C277.009 239.062 276.704 239.105 276.452 239.105C276.013 239.105 275.682 239.018 275.459 238.842C275.242 238.66 275.134 238.388 275.134 238.024C275.134 237.913 275.146 237.775 275.169 237.611C275.198 237.447 275.236 237.263 275.283 237.058L276.057 233.727C276.109 233.504 276.147 233.296 276.171 233.103C276.2 232.903 276.215 232.728 276.215 232.575C276.215 232.177 276.139 231.89 275.986 231.714C275.834 231.532 275.588 231.441 275.248 231.441C274.914 231.441 274.513 231.57 274.044 231.828C273.581 232.086 273.095 232.449 272.585 232.918L271.469 239H269.939L271.434 231.635L269.957 231.371V230.914L272.62 230.325Z" fill="#979797"/>
<path d="M63.6384 39.754H66.4104V55H63.6384V48.246H57.0164V55H54.2444V39.754H57.0164V45.848H63.6384V39.754ZM80.8121 49.236C80.8121 50.1453 80.6801 50.974 80.4161 51.722C80.1521 52.47 79.7781 53.108 79.2941 53.636C78.8101 54.164 78.2234 54.5747 77.5341 54.868C76.8594 55.1613 76.1114 55.308 75.2901 55.308C74.4688 55.308 73.7208 55.1613 73.0461 54.868C72.3714 54.5747 71.7921 54.164 71.3081 53.636C70.8241 53.108 70.4428 52.47 70.1641 51.722C69.9001 50.974 69.7681 50.1453 69.7681 49.236C69.7681 48.3267 69.9001 47.5053 70.1641 46.772C70.4428 46.024 70.8241 45.386 71.3081 44.858C71.8068 44.33 72.3934 43.9267 73.0681 43.648C73.7428 43.3547 74.4834 43.208 75.2901 43.208C76.0968 43.208 76.8374 43.3547 77.5121 43.648C78.2014 43.9267 78.7881 44.33 79.2721 44.858C79.7561 45.386 80.1301 46.024 80.3941 46.772C80.6728 47.5053 80.8121 48.3267 80.8121 49.236ZM78.0841 49.236C78.0841 48.092 77.8348 47.19 77.3361 46.53C76.8521 45.8553 76.1701 45.518 75.2901 45.518C74.4101 45.518 73.7208 45.8553 73.2221 46.53C72.7381 47.19 72.4961 48.092 72.4961 49.236C72.4961 50.3947 72.7381 51.3113 73.2221 51.986C73.7208 52.6607 74.4101 52.998 75.2901 52.998C76.1701 52.998 76.8521 52.6607 77.3361 51.986C77.8348 51.3113 78.0841 50.3947 78.0841 49.236ZM90.6635 47.762C90.3261 49.0527 89.9595 50.314 89.5635 51.546C89.1821 52.7633 88.8008 53.9147 88.4195 55H86.2415C85.9481 54.3253 85.6401 53.5553 85.3175 52.69C84.9948 51.8247 84.6721 50.9007 84.3495 49.918C84.0268 48.9353 83.7041 47.9013 83.3815 46.816C83.0588 45.7307 82.7435 44.6233 82.4355 43.494H85.2515C85.3835 44.11 85.5375 44.7773 85.7135 45.496C85.8895 46.2 86.0728 46.926 86.2635 47.674C86.4541 48.4073 86.6521 49.126 86.8575 49.83C87.0628 50.534 87.2681 51.1793 87.4735 51.766C87.6935 51.0913 87.9061 50.3947 88.1115 49.676C88.3315 48.9573 88.5368 48.2387 88.7275 47.52C88.9181 46.8013 89.0941 46.1047 89.2555 45.43C89.4315 44.7407 89.5855 44.0953 89.7175 43.494H91.7635C91.8955 44.0953 92.0421 44.7407 92.2035 45.43C92.3648 46.1047 92.5335 46.8013 92.7095 47.52C92.9001 48.2387 93.0981 48.9573 93.3035 49.676C93.5235 50.3947 93.7435 51.0913 93.9635 51.766C94.1541 51.1793 94.3521 50.534 94.5575 49.83C94.7628 49.126 94.9608 48.4073 95.1515 47.674C95.3568 46.926 95.5475 46.2 95.7235 45.496C95.8995 44.7773 96.0535 44.11 96.1855 43.494H98.9355C98.6275 44.6233 98.3121 45.7307 97.9895 46.816C97.6668 47.9013 97.3441 48.9353 97.0215 49.918C96.6988 50.9007 96.3761 51.8247 96.0535 52.69C95.7308 53.5553 95.4155 54.3253 95.1075 55H92.9515C92.5701 53.9147 92.1741 52.7633 91.7635 51.546C91.3675 50.314 91.0008 49.0527 90.6635 47.762ZM113.619 48.95C113.619 47.7473 113.465 46.882 113.157 46.354C112.863 45.8113 112.306 45.54 111.485 45.54C111.191 45.54 110.869 45.562 110.517 45.606C110.165 45.65 109.901 45.6867 109.725 45.716V55H107.063V43.868C107.576 43.7213 108.243 43.582 109.065 43.45C109.901 43.318 110.781 43.252 111.705 43.252C112.497 43.252 113.142 43.3547 113.641 43.56C114.154 43.7653 114.579 44.0367 114.917 44.374C115.078 44.2567 115.283 44.132 115.533 44C115.782 43.868 116.061 43.7507 116.369 43.648C116.677 43.5307 116.999 43.4353 117.337 43.362C117.689 43.2887 118.041 43.252 118.393 43.252C119.287 43.252 120.021 43.384 120.593 43.648C121.179 43.8973 121.634 44.2567 121.957 44.726C122.294 45.1807 122.521 45.738 122.639 46.398C122.771 47.0433 122.837 47.7547 122.837 48.532V55H120.175V48.95C120.175 47.7473 120.028 46.882 119.735 46.354C119.441 45.8113 118.877 45.54 118.041 45.54C117.615 45.54 117.212 45.6133 116.831 45.76C116.449 45.892 116.163 46.024 115.973 46.156C116.09 46.5227 116.171 46.9113 116.215 47.322C116.259 47.7327 116.281 48.1727 116.281 48.642V55H113.619V48.95ZM129.263 55H126.601V43.494H129.263V55ZM129.549 40.128C129.549 40.6267 129.388 41.0227 129.065 41.316C128.742 41.6093 128.361 41.756 127.921 41.756C127.466 41.756 127.078 41.6093 126.755 41.316C126.432 41.0227 126.271 40.6267 126.271 40.128C126.271 39.6147 126.432 39.2113 126.755 38.918C127.078 38.6247 127.466 38.478 127.921 38.478C128.361 38.478 128.742 38.6247 129.065 38.918C129.388 39.2113 129.549 39.6147 129.549 40.128ZM135.23 48.95C135.23 50.0793 135.472 50.908 135.956 51.436C136.455 51.9493 137.093 52.206 137.87 52.206C138.296 52.206 138.692 52.1473 139.058 52.03C139.44 51.9127 139.748 51.7733 139.982 51.612V45.65C139.792 45.606 139.557 45.5693 139.278 45.54C139 45.496 138.648 45.474 138.222 45.474C137.254 45.474 136.514 45.7967 136 46.442C135.487 47.0727 135.23 47.9087 135.23 48.95ZM142.644 53.834C142.644 55.6673 142.175 57.0093 141.236 57.86C140.312 58.7107 138.89 59.136 136.968 59.136C136.264 59.136 135.575 59.0773 134.9 58.96C134.24 58.8427 133.639 58.6887 133.096 58.498L133.58 56.232C134.035 56.4227 134.548 56.5767 135.12 56.694C135.707 56.8113 136.338 56.87 137.012 56.87C138.083 56.87 138.846 56.65 139.3 56.21C139.755 55.77 139.982 55.1173 139.982 54.252V53.812C139.718 53.944 139.366 54.076 138.926 54.208C138.501 54.34 138.01 54.406 137.452 54.406C136.719 54.406 136.044 54.2887 135.428 54.054C134.827 53.8193 134.306 53.4747 133.866 53.02C133.441 52.5653 133.104 52.0007 132.854 51.326C132.62 50.6367 132.502 49.8447 132.502 48.95C132.502 48.114 132.627 47.344 132.876 46.64C133.14 45.936 133.514 45.3347 133.998 44.836C134.497 44.3373 135.098 43.9487 135.802 43.67C136.506 43.3913 137.306 43.252 138.2 43.252C139.066 43.252 139.887 43.318 140.664 43.45C141.442 43.582 142.102 43.7213 142.644 43.868V53.834ZM146.512 55V38.368L149.174 37.928V43.626C149.468 43.5233 149.805 43.4353 150.186 43.362C150.582 43.2887 150.971 43.252 151.352 43.252C152.276 43.252 153.039 43.384 153.64 43.648C154.256 43.8973 154.748 44.2567 155.114 44.726C155.481 45.1807 155.738 45.7307 155.884 46.376C156.046 47.0213 156.126 47.74 156.126 48.532V55H153.464V48.95C153.464 48.334 153.42 47.8133 153.332 47.388C153.259 46.948 153.127 46.596 152.936 46.332C152.76 46.0533 152.518 45.8553 152.21 45.738C151.902 45.606 151.521 45.54 151.066 45.54C150.714 45.54 150.355 45.5767 149.988 45.65C149.622 45.7233 149.35 45.7893 149.174 45.848V55H146.512ZM159.666 40.458L162.328 40.018V43.494H166.42V45.716H162.328V50.402C162.328 51.326 162.475 51.986 162.768 52.382C163.062 52.778 163.56 52.976 164.264 52.976C164.748 52.976 165.174 52.9247 165.54 52.822C165.922 52.7193 166.222 52.624 166.442 52.536L166.882 54.648C166.574 54.78 166.171 54.912 165.672 55.044C165.174 55.1907 164.587 55.264 163.912 55.264C163.091 55.264 162.402 55.154 161.844 54.934C161.302 54.714 160.869 54.3987 160.546 53.988C160.224 53.5627 159.996 53.0567 159.864 52.47C159.732 51.8687 159.666 51.1867 159.666 50.424V40.458ZM181.955 47.762C181.618 49.0527 181.251 50.314 180.855 51.546C180.474 52.7633 180.092 53.9147 179.711 55H177.533C177.24 54.3253 176.932 53.5553 176.609 52.69C176.286 51.8247 175.964 50.9007 175.641 49.918C175.318 48.9353 174.996 47.9013 174.673 46.816C174.35 45.7307 174.035 44.6233 173.727 43.494H176.543C176.675 44.11 176.829 44.7773 177.005 45.496C177.181 46.2 177.364 46.926 177.555 47.674C177.746 48.4073 177.944 49.126 178.149 49.83C178.354 50.534 178.56 51.1793 178.765 51.766C178.985 51.0913 179.198 50.3947 179.403 49.676C179.623 48.9573 179.828 48.2387 180.019 47.52C180.21 46.8013 180.386 46.1047 180.547 45.43C180.723 44.7407 180.877 44.0953 181.009 43.494H183.055C183.187 44.0953 183.334 44.7407 183.495 45.43C183.656 46.1047 183.825 46.8013 184.001 47.52C184.192 48.2387 184.39 48.9573 184.595 49.676C184.815 50.3947 185.035 51.0913 185.255 51.766C185.446 51.1793 185.644 50.534 185.849 49.83C186.054 49.126 186.252 48.4073 186.443 47.674C186.648 46.926 186.839 46.2 187.015 45.496C187.191 44.7773 187.345 44.11 187.477 43.494H190.227C189.919 44.6233 189.604 45.7307 189.281 46.816C188.958 47.9013 188.636 48.9353 188.313 49.918C187.99 50.9007 187.668 51.8247 187.345 52.69C187.022 53.5553 186.707 54.3253 186.399 55H184.243C183.862 53.9147 183.466 52.7633 183.055 51.546C182.659 50.314 182.292 49.0527 181.955 47.762ZM192.1 49.302C192.1 48.29 192.247 47.4027 192.54 46.64C192.848 45.8773 193.251 45.2467 193.75 44.748C194.249 44.2347 194.821 43.8533 195.466 43.604C196.111 43.34 196.771 43.208 197.446 43.208C199.03 43.208 200.262 43.6993 201.142 44.682C202.037 45.6647 202.484 47.1313 202.484 49.082C202.484 49.2287 202.477 49.3973 202.462 49.588C202.462 49.764 202.455 49.9253 202.44 50.072H194.85C194.923 50.996 195.246 51.7147 195.818 52.228C196.405 52.7267 197.248 52.976 198.348 52.976C198.993 52.976 199.58 52.9173 200.108 52.8C200.651 52.6827 201.076 52.558 201.384 52.426L201.736 54.604C201.589 54.6773 201.384 54.758 201.12 54.846C200.871 54.9193 200.577 54.9853 200.24 55.044C199.917 55.1173 199.565 55.176 199.184 55.22C198.803 55.264 198.414 55.286 198.018 55.286C197.006 55.286 196.126 55.1393 195.378 54.846C194.63 54.538 194.014 54.12 193.53 53.592C193.046 53.0493 192.687 52.4187 192.452 51.7C192.217 50.9667 192.1 50.1673 192.1 49.302ZM199.822 48.114C199.822 47.7473 199.771 47.4027 199.668 47.08C199.565 46.7427 199.411 46.4567 199.206 46.222C199.015 45.9727 198.773 45.782 198.48 45.65C198.201 45.5033 197.864 45.43 197.468 45.43C197.057 45.43 196.698 45.5107 196.39 45.672C196.082 45.8187 195.818 46.0167 195.598 46.266C195.393 46.5153 195.231 46.8013 195.114 47.124C194.997 47.4467 194.916 47.7767 194.872 48.114H199.822ZM214.088 55H211.426V43.494H214.088V55ZM214.374 40.128C214.374 40.6267 214.212 41.0227 213.89 41.316C213.567 41.6093 213.186 41.756 212.746 41.756C212.291 41.756 211.902 41.6093 211.58 41.316C211.257 41.0227 211.096 40.6267 211.096 40.128C211.096 39.6147 211.257 39.2113 211.58 38.918C211.902 38.6247 212.291 38.478 212.746 38.478C213.186 38.478 213.567 38.6247 213.89 38.918C214.212 39.2113 214.374 39.6147 214.374 40.128ZM224.521 48.95C224.521 47.7473 224.367 46.882 224.059 46.354C223.766 45.8113 223.208 45.54 222.387 45.54C222.094 45.54 221.771 45.562 221.419 45.606C221.067 45.65 220.803 45.6867 220.627 45.716V55H217.965V43.868C218.478 43.7213 219.146 43.582 219.967 43.45C220.803 43.318 221.683 43.252 222.607 43.252C223.399 43.252 224.044 43.3547 224.543 43.56C225.056 43.7653 225.482 44.0367 225.819 44.374C225.98 44.2567 226.186 44.132 226.435 44C226.684 43.868 226.963 43.7507 227.271 43.648C227.579 43.5307 227.902 43.4353 228.239 43.362C228.591 43.2887 228.943 43.252 229.295 43.252C230.19 43.252 230.923 43.384 231.495 43.648C232.082 43.8973 232.536 44.2567 232.859 44.726C233.196 45.1807 233.424 45.738 233.541 46.398C233.673 47.0433 233.739 47.7547 233.739 48.532V55H231.077V48.95C231.077 47.7473 230.93 46.882 230.637 46.354C230.344 45.8113 229.779 45.54 228.943 45.54C228.518 45.54 228.114 45.6133 227.733 45.76C227.352 45.892 227.066 46.024 226.875 46.156C226.992 46.5227 227.073 46.9113 227.117 47.322C227.161 47.7327 227.183 48.1727 227.183 48.642V55H224.521V48.95ZM245.116 49.302C245.116 48.114 244.844 47.19 244.302 46.53C243.774 45.87 242.916 45.54 241.728 45.54C241.478 45.54 241.214 45.5547 240.936 45.584C240.672 45.5987 240.408 45.6427 240.144 45.716V52.294C240.378 52.4553 240.686 52.6093 241.068 52.756C241.464 52.888 241.882 52.954 242.322 52.954C243.29 52.954 243.994 52.624 244.434 51.964C244.888 51.304 245.116 50.4167 245.116 49.302ZM247.844 49.258C247.844 50.138 247.726 50.9447 247.492 51.678C247.272 52.4113 246.949 53.042 246.524 53.57C246.098 54.098 245.563 54.5087 244.918 54.802C244.287 55.0953 243.568 55.242 242.762 55.242C242.219 55.242 241.72 55.176 241.266 55.044C240.811 54.912 240.437 54.7653 240.144 54.604V59.07H237.482V43.868C238.024 43.7213 238.692 43.582 239.484 43.45C240.276 43.318 241.112 43.252 241.992 43.252C242.901 43.252 243.715 43.3913 244.434 43.67C245.152 43.9487 245.761 44.352 246.26 44.88C246.773 45.3933 247.162 46.024 247.426 46.772C247.704 47.5053 247.844 48.334 247.844 49.258ZM257.624 45.892C257.404 45.8187 257.096 45.7453 256.7 45.672C256.319 45.584 255.872 45.54 255.358 45.54C255.065 45.54 254.75 45.5693 254.412 45.628C254.09 45.6867 253.862 45.738 253.73 45.782V55H251.068V44.044C251.582 43.8533 252.22 43.6773 252.982 43.516C253.76 43.34 254.618 43.252 255.556 43.252C255.732 43.252 255.938 43.2667 256.172 43.296C256.407 43.3107 256.642 43.34 256.876 43.384C257.111 43.4133 257.338 43.4573 257.558 43.516C257.778 43.56 257.954 43.604 258.086 43.648L257.624 45.892ZM270.829 49.236C270.829 50.1453 270.697 50.974 270.433 51.722C270.169 52.47 269.795 53.108 269.311 53.636C268.827 54.164 268.24 54.5747 267.551 54.868C266.876 55.1613 266.128 55.308 265.307 55.308C264.485 55.308 263.737 55.1613 263.063 54.868C262.388 54.5747 261.809 54.164 261.325 53.636C260.841 53.108 260.459 52.47 260.181 51.722C259.917 50.974 259.785 50.1453 259.785 49.236C259.785 48.3267 259.917 47.5053 260.181 46.772C260.459 46.024 260.841 45.386 261.325 44.858C261.823 44.33 262.41 43.9267 263.085 43.648C263.759 43.3547 264.5 43.208 265.307 43.208C266.113 43.208 266.854 43.3547 267.529 43.648C268.218 43.9267 268.805 44.33 269.289 44.858C269.773 45.386 270.147 46.024 270.411 46.772C270.689 47.5053 270.829 48.3267 270.829 49.236ZM268.101 49.236C268.101 48.092 267.851 47.19 267.353 46.53C266.869 45.8553 266.187 45.518 265.307 45.518C264.427 45.518 263.737 45.8553 263.239 46.53C262.755 47.19 262.513 48.092 262.513 49.236C262.513 50.3947 262.755 51.3113 263.239 51.986C263.737 52.6607 264.427 52.998 265.307 52.998C266.187 52.998 266.869 52.6607 267.353 51.986C267.851 51.3113 268.101 50.3947 268.101 49.236ZM276.742 55C276.009 53.4893 275.254 51.7587 274.476 49.808C273.714 47.8427 273.017 45.738 272.386 43.494H275.224C275.386 44.1393 275.569 44.836 275.774 45.584C275.994 46.3173 276.222 47.058 276.456 47.806C276.706 48.5393 276.955 49.258 277.204 49.962C277.468 50.6513 277.71 51.2747 277.93 51.832C278.15 51.2747 278.385 50.6513 278.634 49.962C278.884 49.258 279.126 48.5393 279.36 47.806C279.61 47.058 279.844 46.3173 280.064 45.584C280.284 44.836 280.475 44.1393 280.636 43.494H283.386C282.756 45.738 282.052 47.8427 281.274 49.808C280.512 51.7587 279.764 53.4893 279.03 55H276.742ZM284.96 49.302C284.96 48.29 285.107 47.4027 285.4 46.64C285.708 45.8773 286.111 45.2467 286.61 44.748C287.109 44.2347 287.681 43.8533 288.326 43.604C288.971 43.34 289.631 43.208 290.306 43.208C291.89 43.208 293.122 43.6993 294.002 44.682C294.897 45.6647 295.344 47.1313 295.344 49.082C295.344 49.2287 295.337 49.3973 295.322 49.588C295.322 49.764 295.315 49.9253 295.3 50.072H287.71C287.783 50.996 288.106 51.7147 288.678 52.228C289.265 52.7267 290.108 52.976 291.208 52.976C291.853 52.976 292.44 52.9173 292.968 52.8C293.511 52.6827 293.936 52.558 294.244 52.426L294.596 54.604C294.449 54.6773 294.244 54.758 293.98 54.846C293.731 54.9193 293.437 54.9853 293.1 55.044C292.777 55.1173 292.425 55.176 292.044 55.22C291.663 55.264 291.274 55.286 290.878 55.286C289.866 55.286 288.986 55.1393 288.238 54.846C287.49 54.538 286.874 54.12 286.39 53.592C285.906 53.0493 285.547 52.4187 285.312 51.7C285.077 50.9667 284.96 50.1673 284.96 49.302ZM292.682 48.114C292.682 47.7473 292.631 47.4027 292.528 47.08C292.425 46.7427 292.271 46.4567 292.066 46.222C291.875 45.9727 291.633 45.782 291.34 45.65C291.061 45.5033 290.724 45.43 290.328 45.43C289.917 45.43 289.558 45.5107 289.25 45.672C288.942 45.8187 288.678 46.0167 288.458 46.266C288.253 46.5153 288.091 46.8013 287.974 47.124C287.857 47.4467 287.776 47.7767 287.732 48.114H292.682ZM304.132 40.458L306.794 40.018V43.494H310.886V45.716H306.794V50.402C306.794 51.326 306.94 51.986 307.234 52.382C307.527 52.778 308.026 52.976 308.73 52.976C309.214 52.976 309.639 52.9247 310.006 52.822C310.387 52.7193 310.688 52.624 310.908 52.536L311.348 54.648C311.04 54.78 310.636 54.912 310.138 55.044C309.639 55.1907 309.052 55.264 308.378 55.264C307.556 55.264 306.867 55.154 306.31 54.934C305.767 54.714 305.334 54.3987 305.012 53.988C304.689 53.5627 304.462 53.0567 304.33 52.47C304.198 51.8687 304.132 51.1867 304.132 50.424V40.458ZM313.94 55V38.368L316.602 37.928V43.626C316.895 43.5233 317.233 43.4353 317.614 43.362C318.01 43.2887 318.399 43.252 318.78 43.252C319.704 43.252 320.467 43.384 321.068 43.648C321.684 43.8973 322.175 44.2567 322.542 44.726C322.909 45.1807 323.165 45.7307 323.312 46.376C323.473 47.0213 323.554 47.74 323.554 48.532V55H320.892V48.95C320.892 48.334 320.848 47.8133 320.76 47.388C320.687 46.948 320.555 46.596 320.364 46.332C320.188 46.0533 319.946 45.8553 319.638 45.738C319.33 45.606 318.949 45.54 318.494 45.54C318.142 45.54 317.783 45.5767 317.416 45.65C317.049 45.7233 316.778 45.7893 316.602 45.848V55H313.94ZM326.588 49.302C326.588 48.29 326.735 47.4027 327.028 46.64C327.336 45.8773 327.739 45.2467 328.238 44.748C328.737 44.2347 329.309 43.8533 329.954 43.604C330.599 43.34 331.259 43.208 331.934 43.208C333.518 43.208 334.75 43.6993 335.63 44.682C336.525 45.6647 336.972 47.1313 336.972 49.082C336.972 49.2287 336.965 49.3973 336.95 49.588C336.95 49.764 336.943 49.9253 336.928 50.072H329.338C329.411 50.996 329.734 51.7147 330.306 52.228C330.893 52.7267 331.736 52.976 332.836 52.976C333.481 52.976 334.068 52.9173 334.596 52.8C335.139 52.6827 335.564 52.558 335.872 52.426L336.224 54.604C336.077 54.6773 335.872 54.758 335.608 54.846C335.359 54.9193 335.065 54.9853 334.728 55.044C334.405 55.1173 334.053 55.176 333.672 55.22C333.291 55.264 332.902 55.286 332.506 55.286C331.494 55.286 330.614 55.1393 329.866 54.846C329.118 54.538 328.502 54.12 328.018 53.592C327.534 53.0493 327.175 52.4187 326.94 51.7C326.705 50.9667 326.588 50.1673 326.588 49.302ZM334.31 48.114C334.31 47.7473 334.259 47.4027 334.156 47.08C334.053 46.7427 333.899 46.4567 333.694 46.222C333.503 45.9727 333.261 45.782 332.968 45.65C332.689 45.5033 332.352 45.43 331.956 45.43C331.545 45.43 331.186 45.5107 330.878 45.672C330.57 45.8187 330.306 46.0167 330.086 46.266C329.881 46.5153 329.719 46.8013 329.602 47.124C329.485 47.4467 329.404 47.7767 329.36 48.114H334.31ZM9.82671 77.302C9.82671 76.29 9.97337 75.4027 10.2667 74.64C10.5747 73.8773 10.978 73.2467 11.4767 72.748C11.9754 72.2347 12.5474 71.8533 13.1927 71.604C13.838 71.34 14.498 71.208 15.1727 71.208C16.7567 71.208 17.9887 71.6993 18.8687 72.682C19.7634 73.6647 20.2107 75.1313 20.2107 77.082C20.2107 77.2287 20.2034 77.3973 20.1887 77.588C20.1887 77.764 20.1814 77.9253 20.1667 78.072H12.5767C12.65 78.996 12.9727 79.7147 13.5447 80.228C14.1314 80.7267 14.9747 80.976 16.0747 80.976C16.72 80.976 17.3067 80.9173 17.8347 80.8C18.3774 80.6827 18.8027 80.558 19.1107 80.426L19.4627 82.604C19.316 82.6773 19.1107 82.758 18.8467 82.846C18.5974 82.9193 18.304 82.9853 17.9667 83.044C17.644 83.1173 17.292 83.176 16.9107 83.22C16.5294 83.264 16.1407 83.286 15.7447 83.286C14.7327 83.286 13.8527 83.1393 13.1047 82.846C12.3567 82.538 11.7407 82.12 11.2567 81.592C10.7727 81.0493 10.4134 80.4187 10.1787 79.7C9.94404 78.9667 9.82671 78.1673 9.82671 77.302ZM17.5487 76.114C17.5487 75.7473 17.4974 75.4027 17.3947 75.08C17.292 74.7427 17.138 74.4567 16.9327 74.222C16.742 73.9727 16.5 73.782 16.2067 73.65C15.928 73.5033 15.5907 73.43 15.1947 73.43C14.784 73.43 14.4247 73.5107 14.1167 73.672C13.8087 73.8187 13.5447 74.0167 13.3247 74.266C13.1194 74.5153 12.958 74.8013 12.8407 75.124C12.7234 75.4467 12.6427 75.7767 12.5987 76.114H17.5487ZM28.2003 65.928C28.8163 65.928 29.359 65.9867 29.8283 66.104C30.2977 66.2067 30.6497 66.302 30.8843 66.39L30.3783 68.59C30.129 68.4727 29.8356 68.3773 29.4983 68.304C29.1757 68.2307 28.8237 68.194 28.4423 68.194C28.017 68.194 27.6576 68.26 27.3643 68.392C27.071 68.5093 26.8363 68.678 26.6603 68.898C26.4843 69.118 26.3596 69.3893 26.2863 69.712C26.213 70.02 26.1763 70.3573 26.1763 70.724V71.494H30.3563V73.716H26.1763V83H23.5143V70.68C23.5143 69.1987 23.903 68.04 24.6803 67.204C25.4576 66.3533 26.631 65.928 28.2003 65.928ZM43.9523 83H41.2903V71.494H43.9523V83ZM44.2603 68.128C44.2603 68.6267 44.099 69.0227 43.7763 69.316C43.4537 69.6093 43.0723 69.756 42.6323 69.756C42.1777 69.756 41.789 69.6093 41.4663 69.316C41.1437 69.0227 40.9823 68.6267 40.9823 68.128C40.9823 67.6147 41.1437 67.2113 41.4663 66.918C41.789 66.6247 42.1777 66.478 42.6323 66.478C43.0723 66.478 43.4537 66.6247 43.7763 66.918C44.099 67.2113 44.2603 67.6147 44.2603 68.128ZM37.1323 65.928C37.6897 65.928 38.159 65.972 38.5403 66.06C38.9363 66.148 39.2443 66.236 39.4643 66.324L39.0463 68.48C38.841 68.4067 38.5917 68.3407 38.2983 68.282C38.0197 68.2233 37.7117 68.194 37.3743 68.194C36.4943 68.194 35.8856 68.4287 35.5483 68.898C35.2257 69.3673 35.0643 69.976 35.0643 70.724V71.494H39.2883V73.716H35.0643V83H32.4023V70.68C32.4023 69.184 32.791 68.018 33.5683 67.182C34.3457 66.346 35.5337 65.928 37.1323 65.928ZM47.2052 77.258C47.2052 76.4073 47.3372 75.6153 47.6012 74.882C47.8652 74.134 48.2392 73.4887 48.7232 72.946C49.2219 72.4033 49.8232 71.978 50.5272 71.67C51.2312 71.362 52.0232 71.208 52.9032 71.208C53.9886 71.208 55.0152 71.406 55.9832 71.802L55.4112 73.98C55.1032 73.848 54.7512 73.738 54.3552 73.65C53.9739 73.562 53.5632 73.518 53.1232 73.518C52.0819 73.518 51.2899 73.848 50.7472 74.508C50.2046 75.1533 49.9332 76.07 49.9332 77.258C49.9332 78.402 50.1899 79.3113 50.7032 79.986C51.2166 80.646 52.0819 80.976 53.2992 80.976C53.7539 80.976 54.2012 80.932 54.6412 80.844C55.0812 80.756 55.4626 80.646 55.7852 80.514L56.1592 82.714C55.8659 82.8607 55.4186 82.9927 54.8172 83.11C54.2306 83.2273 53.6219 83.286 52.9912 83.286C52.0086 83.286 51.1506 83.1393 50.4172 82.846C49.6986 82.538 49.0972 82.12 48.6132 81.592C48.1439 81.0493 47.7919 80.4113 47.5572 79.678C47.3226 78.93 47.2052 78.1233 47.2052 77.258ZM61.3854 83H58.7234V71.494H61.3854V83ZM61.6714 68.128C61.6714 68.6267 61.5101 69.0227 61.1874 69.316C60.8648 69.6093 60.4834 69.756 60.0434 69.756C59.5888 69.756 59.2001 69.6093 58.8774 69.316C58.5548 69.0227 58.3934 68.6267 58.3934 68.128C58.3934 67.6147 58.5548 67.2113 58.8774 66.918C59.2001 66.6247 59.5888 66.478 60.0434 66.478C60.4834 66.478 60.8648 66.6247 61.1874 66.918C61.5101 67.2113 61.6714 67.6147 61.6714 68.128ZM64.6248 77.302C64.6248 76.29 64.7714 75.4027 65.0648 74.64C65.3728 73.8773 65.7761 73.2467 66.2748 72.748C66.7734 72.2347 67.3454 71.8533 67.9908 71.604C68.6361 71.34 69.2961 71.208 69.9708 71.208C71.5548 71.208 72.7868 71.6993 73.6668 72.682C74.5614 73.6647 75.0088 75.1313 75.0088 77.082C75.0088 77.2287 75.0014 77.3973 74.9868 77.588C74.9868 77.764 74.9794 77.9253 74.9648 78.072H67.3748C67.4481 78.996 67.7708 79.7147 68.3428 80.228C68.9294 80.7267 69.7728 80.976 70.8728 80.976C71.5181 80.976 72.1048 80.9173 72.6328 80.8C73.1754 80.6827 73.6008 80.558 73.9088 80.426L74.2608 82.604C74.1141 82.6773 73.9088 82.758 73.6448 82.846C73.3954 82.9193 73.1021 82.9853 72.7648 83.044C72.4421 83.1173 72.0901 83.176 71.7088 83.22C71.3274 83.264 70.9388 83.286 70.5428 83.286C69.5308 83.286 68.6508 83.1393 67.9028 82.846C67.1548 82.538 66.5388 82.12 66.0548 81.592C65.5708 81.0493 65.2114 80.4187 64.9768 79.7C64.7421 78.9667 64.6248 78.1673 64.6248 77.302ZM72.3468 76.114C72.3468 75.7473 72.2954 75.4027 72.1928 75.08C72.0901 74.7427 71.9361 74.4567 71.7308 74.222C71.5401 73.9727 71.2981 73.782 71.0048 73.65C70.7261 73.5033 70.3888 73.43 69.9928 73.43C69.5821 73.43 69.2228 73.5107 68.9148 73.672C68.6068 73.8187 68.3428 74.0167 68.1228 74.266C67.9174 74.5153 67.7561 74.8013 67.6388 75.124C67.5214 75.4467 67.4408 75.7767 67.3968 76.114H72.3468ZM78.3124 71.868C78.8257 71.7213 79.493 71.582 80.3144 71.45C81.1357 71.318 82.045 71.252 83.0424 71.252C83.981 71.252 84.7657 71.384 85.3964 71.648C86.027 71.8973 86.5257 72.2567 86.8924 72.726C87.2737 73.1807 87.5377 73.738 87.6844 74.398C87.8457 75.0433 87.9264 75.7547 87.9264 76.532V83H85.2644V76.95C85.2644 76.334 85.2204 75.8133 85.1324 75.388C85.059 74.948 84.927 74.596 84.7364 74.332C84.5604 74.0533 84.311 73.8553 83.9884 73.738C83.6804 73.606 83.299 73.54 82.8444 73.54C82.507 73.54 82.155 73.562 81.7884 73.606C81.4217 73.65 81.1504 73.6867 80.9744 73.716V83H78.3124V71.868ZM91.0248 77.258C91.0248 76.4073 91.1568 75.6153 91.4207 74.882C91.6848 74.134 92.0588 73.4887 92.5428 72.946C93.0414 72.4033 93.6428 71.978 94.3468 71.67C95.0508 71.362 95.8428 71.208 96.7228 71.208C97.8081 71.208 98.8348 71.406 99.8028 71.802L99.2308 73.98C98.9228 73.848 98.5708 73.738 98.1748 73.65C97.7934 73.562 97.3828 73.518 96.9428 73.518C95.9014 73.518 95.1094 73.848 94.5668 74.508C94.0241 75.1533 93.7528 76.07 93.7528 77.258C93.7528 78.402 94.0094 79.3113 94.5228 79.986C95.0361 80.646 95.9014 80.976 97.1188 80.976C97.5734 80.976 98.0208 80.932 98.4608 80.844C98.9008 80.756 99.2821 80.646 99.6048 80.514L99.9788 82.714C99.6854 82.8607 99.2381 82.9927 98.6368 83.11C98.0501 83.2273 97.4414 83.286 96.8108 83.286C95.8281 83.286 94.9701 83.1393 94.2368 82.846C93.5181 82.538 92.9168 82.12 92.4328 81.592C91.9634 81.0493 91.6114 80.4113 91.3768 79.678C91.1421 78.93 91.0248 78.1233 91.0248 77.258ZM112.108 71.494C110.92 75.8647 109.542 79.8247 107.972 83.374C107.679 84.034 107.378 84.5987 107.07 85.068C106.762 85.5373 106.418 85.926 106.036 86.234C105.655 86.542 105.23 86.762 104.76 86.894C104.291 87.0407 103.748 87.114 103.132 87.114C102.722 87.114 102.311 87.07 101.9 86.982C101.504 86.894 101.204 86.7987 100.998 86.696L101.482 84.562C102.01 84.7673 102.531 84.87 103.044 84.87C103.734 84.87 104.269 84.7013 104.65 84.364C105.046 84.0413 105.391 83.5353 105.684 82.846C104.848 81.2327 104.042 79.4727 103.264 77.566C102.502 75.6593 101.82 73.6353 101.218 71.494H104.056C104.203 72.11 104.379 72.7773 104.584 73.496C104.804 74.2147 105.039 74.948 105.288 75.696C105.538 76.4293 105.802 77.1627 106.08 77.896C106.359 78.6293 106.638 79.3113 106.916 79.942C107.386 78.6367 107.826 77.2507 108.236 75.784C108.647 74.3027 109.021 72.8727 109.358 71.494H112.108ZM119.472 78.952C119.472 78.3947 119.552 77.8887 119.714 77.434C119.89 76.9793 120.117 76.5687 120.396 76.202C120.689 75.8353 121.019 75.5127 121.386 75.234C121.767 74.9553 122.163 74.706 122.574 74.486C122.134 74.0167 121.774 73.518 121.496 72.99C121.232 72.462 121.1 71.9047 121.1 71.318C121.1 70.086 121.474 69.1253 122.222 68.436C122.984 67.7467 123.982 67.402 125.214 67.402C125.844 67.402 126.402 67.49 126.886 67.666C127.384 67.842 127.795 68.084 128.118 68.392C128.44 68.7 128.682 69.0667 128.844 69.492C129.02 69.9027 129.108 70.3427 129.108 70.812C129.108 71.2813 129.027 71.7213 128.866 72.132C128.719 72.5427 128.514 72.924 128.25 73.276C127.986 73.6133 127.678 73.9287 127.326 74.222C126.988 74.5007 126.622 74.75 126.226 74.97L129.24 78.006C129.445 77.6247 129.614 77.1993 129.746 76.73C129.878 76.246 129.98 75.7767 130.054 75.322L132.276 75.608C132.202 76.1947 132.048 76.8473 131.814 77.566C131.579 78.27 131.271 78.9447 130.89 79.59C131.374 80.1327 131.836 80.6973 132.276 81.284C132.73 81.856 133.104 82.428 133.398 83H130.626C130.479 82.7507 130.288 82.4793 130.054 82.186C129.834 81.8927 129.599 81.6213 129.35 81.372C128.748 81.9147 128.059 82.3547 127.282 82.692C126.504 83.0293 125.624 83.198 124.642 83.198C123.659 83.198 122.838 83.066 122.178 82.802C121.518 82.538 120.982 82.2007 120.572 81.79C120.176 81.3793 119.89 80.9247 119.714 80.426C119.552 79.9273 119.472 79.436 119.472 78.952ZM122.024 78.776C122.024 79.0253 122.068 79.282 122.156 79.546C122.258 79.81 122.412 80.0593 122.618 80.294C122.838 80.514 123.116 80.6973 123.454 80.844C123.806 80.9907 124.224 81.064 124.708 81.064C125.368 81.064 125.962 80.9613 126.49 80.756C127.032 80.5507 127.494 80.2573 127.876 79.876L124.004 75.938C123.784 76.0553 123.556 76.1947 123.322 76.356C123.087 76.5173 122.874 76.7153 122.684 76.95C122.493 77.17 122.332 77.434 122.2 77.742C122.082 78.0353 122.024 78.38 122.024 78.776ZM126.798 70.922C126.798 70.4967 126.658 70.1373 126.38 69.844C126.101 69.536 125.698 69.382 125.17 69.382C124.612 69.382 124.187 69.5507 123.894 69.888C123.6 70.2253 123.454 70.6507 123.454 71.164C123.454 71.5893 123.571 72.0147 123.806 72.44C124.04 72.8507 124.363 73.2467 124.774 73.628C125.052 73.4813 125.309 73.32 125.544 73.144C125.793 72.968 126.006 72.77 126.182 72.55C126.372 72.33 126.519 72.088 126.622 71.824C126.739 71.56 126.798 71.2593 126.798 70.922ZM145.36 83.22C144.568 83.2053 143.908 83.1173 143.38 82.956C142.867 82.7947 142.456 82.5673 142.148 82.274C141.84 81.966 141.62 81.592 141.488 81.152C141.371 80.6973 141.312 80.184 141.312 79.612V66.368L143.974 65.928V79.106C143.974 79.4287 143.996 79.7 144.04 79.92C144.099 80.14 144.194 80.3307 144.326 80.492C144.458 80.6387 144.634 80.756 144.854 80.844C145.089 80.9173 145.382 80.976 145.734 81.02L145.36 83.22ZM147.731 77.302C147.731 76.29 147.877 75.4027 148.171 74.64C148.479 73.8773 148.882 73.2467 149.381 72.748C149.879 72.2347 150.451 71.8533 151.097 71.604C151.742 71.34 152.402 71.208 153.077 71.208C154.661 71.208 155.893 71.6993 156.773 72.682C157.667 73.6647 158.115 75.1313 158.115 77.082C158.115 77.2287 158.107 77.3973 158.093 77.588C158.093 77.764 158.085 77.9253 158.071 78.072H150.481C150.554 78.996 150.877 79.7147 151.449 80.228C152.035 80.7267 152.879 80.976 153.979 80.976C154.624 80.976 155.211 80.9173 155.739 80.8C156.281 80.6827 156.707 80.558 157.015 80.426L157.367 82.604C157.22 82.6773 157.015 82.758 156.751 82.846C156.501 82.9193 156.208 82.9853 155.871 83.044C155.548 83.1173 155.196 83.176 154.815 83.22C154.433 83.264 154.045 83.286 153.649 83.286C152.637 83.286 151.757 83.1393 151.009 82.846C150.261 82.538 149.645 82.12 149.161 81.592C148.677 81.0493 148.317 80.4187 148.083 79.7C147.848 78.9667 147.731 78.1673 147.731 77.302ZM155.453 76.114C155.453 75.7473 155.401 75.4027 155.299 75.08C155.196 74.7427 155.042 74.4567 154.837 74.222C154.646 73.9727 154.404 73.782 154.111 73.65C153.832 73.5033 153.495 73.43 153.099 73.43C152.688 73.43 152.329 73.5107 152.021 73.672C151.713 73.8187 151.449 74.0167 151.229 74.266C151.023 74.5153 150.862 74.8013 150.745 75.124C150.627 75.4467 150.547 75.7767 150.503 76.114H155.453ZM165.466 81.13C166.288 81.13 166.911 81.086 167.336 80.998V78.05C167.19 78.006 166.977 77.962 166.698 77.918C166.42 77.874 166.112 77.852 165.774 77.852C165.481 77.852 165.18 77.874 164.872 77.918C164.579 77.962 164.308 78.0427 164.058 78.16C163.824 78.2773 163.633 78.446 163.486 78.666C163.34 78.8713 163.266 79.1353 163.266 79.458C163.266 80.0887 163.464 80.5287 163.86 80.778C164.256 81.0127 164.792 81.13 165.466 81.13ZM165.246 71.208C166.126 71.208 166.867 71.318 167.468 71.538C168.07 71.758 168.546 72.066 168.898 72.462C169.265 72.858 169.522 73.342 169.668 73.914C169.83 74.4713 169.91 75.0873 169.91 75.762V82.736C169.5 82.824 168.876 82.9267 168.04 83.044C167.219 83.176 166.288 83.242 165.246 83.242C164.557 83.242 163.926 83.176 163.354 83.044C162.782 82.912 162.291 82.6993 161.88 82.406C161.484 82.1127 161.169 81.7313 160.934 81.262C160.714 80.7927 160.604 80.2133 160.604 79.524C160.604 78.864 160.729 78.3067 160.978 77.852C161.242 77.3973 161.594 77.0307 162.034 76.752C162.474 76.4587 162.98 76.2533 163.552 76.136C164.139 76.004 164.748 75.938 165.378 75.938C165.672 75.938 165.98 75.96 166.302 76.004C166.625 76.0333 166.97 76.092 167.336 76.18V75.74C167.336 75.432 167.3 75.1387 167.226 74.86C167.153 74.5813 167.021 74.3393 166.83 74.134C166.654 73.914 166.412 73.7453 166.104 73.628C165.811 73.5107 165.437 73.452 164.982 73.452C164.366 73.452 163.802 73.496 163.288 73.584C162.775 73.672 162.357 73.7747 162.034 73.892L161.704 71.736C162.042 71.6187 162.533 71.5013 163.178 71.384C163.824 71.2667 164.513 71.208 165.246 71.208ZM180.207 73.892C179.987 73.8187 179.679 73.7453 179.283 73.672C178.902 73.584 178.455 73.54 177.941 73.54C177.648 73.54 177.333 73.5693 176.995 73.628C176.673 73.6867 176.445 73.738 176.313 73.782V83H173.651V72.044C174.165 71.8533 174.803 71.6773 175.565 71.516C176.343 71.34 177.201 71.252 178.139 71.252C178.315 71.252 178.521 71.2667 178.755 71.296C178.99 71.3107 179.225 71.34 179.459 71.384C179.694 71.4133 179.921 71.4573 180.141 71.516C180.361 71.56 180.537 71.604 180.669 71.648L180.207 73.892ZM183.006 71.868C183.519 71.7213 184.186 71.582 185.008 71.45C185.829 71.318 186.738 71.252 187.736 71.252C188.674 71.252 189.459 71.384 190.09 71.648C190.72 71.8973 191.219 72.2567 191.586 72.726C191.967 73.1807 192.231 73.738 192.378 74.398C192.539 75.0433 192.62 75.7547 192.62 76.532V83H189.958V76.95C189.958 76.334 189.914 75.8133 189.826 75.388C189.752 74.948 189.62 74.596 189.43 74.332C189.254 74.0533 189.004 73.8553 188.682 73.738C188.374 73.606 187.992 73.54 187.538 73.54C187.2 73.54 186.848 73.562 186.482 73.606C186.115 73.65 185.844 73.6867 185.668 73.716V83H183.006V71.868ZM195.718 77.302C195.718 76.29 195.865 75.4027 196.158 74.64C196.466 73.8773 196.869 73.2467 197.368 72.748C197.867 72.2347 198.439 71.8533 199.084 71.604C199.729 71.34 200.389 71.208 201.064 71.208C202.648 71.208 203.88 71.6993 204.76 72.682C205.655 73.6647 206.102 75.1313 206.102 77.082C206.102 77.2287 206.095 77.3973 206.08 77.588C206.08 77.764 206.073 77.9253 206.058 78.072H198.468C198.541 78.996 198.864 79.7147 199.436 80.228C200.023 80.7267 200.866 80.976 201.966 80.976C202.611 80.976 203.198 80.9173 203.726 80.8C204.269 80.6827 204.694 80.558 205.002 80.426L205.354 82.604C205.207 82.6773 205.002 82.758 204.738 82.846C204.489 82.9193 204.195 82.9853 203.858 83.044C203.535 83.1173 203.183 83.176 202.802 83.22C202.421 83.264 202.032 83.286 201.636 83.286C200.624 83.286 199.744 83.1393 198.996 82.846C198.248 82.538 197.632 82.12 197.148 81.592C196.664 81.0493 196.305 80.4187 196.07 79.7C195.835 78.9667 195.718 78.1673 195.718 77.302ZM203.44 76.114C203.44 75.7473 203.389 75.4027 203.286 75.08C203.183 74.7427 203.029 74.4567 202.824 74.222C202.633 73.9727 202.391 73.782 202.098 73.65C201.819 73.5033 201.482 73.43 201.086 73.43C200.675 73.43 200.316 73.5107 200.008 73.672C199.7 73.8187 199.436 74.0167 199.216 74.266C199.011 74.5153 198.849 74.8013 198.732 75.124C198.615 75.4467 198.534 75.7767 198.49 76.114H203.44ZM215.962 73.892C215.742 73.8187 215.434 73.7453 215.038 73.672C214.656 73.584 214.209 73.54 213.696 73.54C213.402 73.54 213.087 73.5693 212.75 73.628C212.427 73.6867 212.2 73.738 212.068 73.782V83H209.406V72.044C209.919 71.8533 210.557 71.6773 211.32 71.516C212.097 71.34 212.955 71.252 213.894 71.252C214.07 71.252 214.275 71.2667 214.51 71.296C214.744 71.3107 214.979 71.34 215.214 71.384C215.448 71.4133 215.676 71.4573 215.896 71.516C216.116 71.56 216.292 71.604 216.424 71.648L215.962 73.892ZM223.738 77.302C223.738 76.29 223.885 75.4027 224.178 74.64C224.486 73.8773 224.889 73.2467 225.388 72.748C225.887 72.2347 226.459 71.8533 227.104 71.604C227.749 71.34 228.409 71.208 229.084 71.208C230.668 71.208 231.9 71.6993 232.78 72.682C233.675 73.6647 234.122 75.1313 234.122 77.082C234.122 77.2287 234.115 77.3973 234.1 77.588C234.1 77.764 234.093 77.9253 234.078 78.072H226.488C226.561 78.996 226.884 79.7147 227.456 80.228C228.043 80.7267 228.886 80.976 229.986 80.976C230.631 80.976 231.218 80.9173 231.746 80.8C232.289 80.6827 232.714 80.558 233.022 80.426L233.374 82.604C233.227 82.6773 233.022 82.758 232.758 82.846C232.509 82.9193 232.215 82.9853 231.878 83.044C231.555 83.1173 231.203 83.176 230.822 83.22C230.441 83.264 230.052 83.286 229.656 83.286C228.644 83.286 227.764 83.1393 227.016 82.846C226.268 82.538 225.652 82.12 225.168 81.592C224.684 81.0493 224.325 80.4187 224.09 79.7C223.855 78.9667 223.738 78.1673 223.738 77.302ZM231.46 76.114C231.46 75.7473 231.409 75.4027 231.306 75.08C231.203 74.7427 231.049 74.4567 230.844 74.222C230.653 73.9727 230.411 73.782 230.118 73.65C229.839 73.5033 229.502 73.43 229.106 73.43C228.695 73.43 228.336 73.5107 228.028 73.672C227.72 73.8187 227.456 74.0167 227.236 74.266C227.031 74.5153 226.869 74.8013 226.752 75.124C226.635 75.4467 226.554 75.7767 226.51 76.114H231.46ZM237.426 71.868C237.939 71.7213 238.606 71.582 239.428 71.45C240.249 71.318 241.158 71.252 242.156 71.252C243.094 71.252 243.879 71.384 244.51 71.648C245.14 71.8973 245.639 72.2567 246.006 72.726C246.387 73.1807 246.651 73.738 246.798 74.398C246.959 75.0433 247.04 75.7547 247.04 76.532V83H244.378V76.95C244.378 76.334 244.334 75.8133 244.246 75.388C244.172 74.948 244.04 74.596 243.85 74.332C243.674 74.0533 243.424 73.8553 243.102 73.738C242.794 73.606 242.412 73.54 241.958 73.54C241.62 73.54 241.268 73.562 240.902 73.606C240.535 73.65 240.264 73.6867 240.088 73.716V83H237.426V71.868ZM252.866 76.95C252.866 78.0793 253.108 78.908 253.592 79.436C254.091 79.9493 254.729 80.206 255.506 80.206C255.931 80.206 256.327 80.1473 256.694 80.03C257.075 79.9127 257.383 79.7733 257.618 79.612V73.65C257.427 73.606 257.193 73.5693 256.914 73.54C256.635 73.496 256.283 73.474 255.858 73.474C254.89 73.474 254.149 73.7967 253.636 74.442C253.123 75.0727 252.866 75.9087 252.866 76.95ZM260.28 81.834C260.28 83.6673 259.811 85.0093 258.872 85.86C257.948 86.7107 256.525 87.136 254.604 87.136C253.9 87.136 253.211 87.0773 252.536 86.96C251.876 86.8427 251.275 86.6887 250.732 86.498L251.216 84.232C251.671 84.4227 252.184 84.5767 252.756 84.694C253.343 84.8113 253.973 84.87 254.648 84.87C255.719 84.87 256.481 84.65 256.936 84.21C257.391 83.77 257.618 83.1173 257.618 82.252V81.812C257.354 81.944 257.002 82.076 256.562 82.208C256.137 82.34 255.645 82.406 255.088 82.406C254.355 82.406 253.68 82.2887 253.064 82.054C252.463 81.8193 251.942 81.4747 251.502 81.02C251.077 80.5653 250.739 80.0007 250.49 79.326C250.255 78.6367 250.138 77.8447 250.138 76.95C250.138 76.114 250.263 75.344 250.512 74.64C250.776 73.936 251.15 73.3347 251.634 72.836C252.133 72.3373 252.734 71.9487 253.438 71.67C254.142 71.3913 254.941 71.252 255.836 71.252C256.701 71.252 257.523 71.318 258.3 71.45C259.077 71.582 259.737 71.7213 260.28 71.868V81.834ZM268.196 81.13C269.017 81.13 269.641 81.086 270.066 80.998V78.05C269.919 78.006 269.707 77.962 269.428 77.918C269.149 77.874 268.841 77.852 268.504 77.852C268.211 77.852 267.91 77.874 267.602 77.918C267.309 77.962 267.037 78.0427 266.788 78.16C266.553 78.2773 266.363 78.446 266.216 78.666C266.069 78.8713 265.996 79.1353 265.996 79.458C265.996 80.0887 266.194 80.5287 266.59 80.778C266.986 81.0127 267.521 81.13 268.196 81.13ZM267.976 71.208C268.856 71.208 269.597 71.318 270.198 71.538C270.799 71.758 271.276 72.066 271.628 72.462C271.995 72.858 272.251 73.342 272.398 73.914C272.559 74.4713 272.64 75.0873 272.64 75.762V82.736C272.229 82.824 271.606 82.9267 270.77 83.044C269.949 83.176 269.017 83.242 267.976 83.242C267.287 83.242 266.656 83.176 266.084 83.044C265.512 82.912 265.021 82.6993 264.61 82.406C264.214 82.1127 263.899 81.7313 263.664 81.262C263.444 80.7927 263.334 80.2133 263.334 79.524C263.334 78.864 263.459 78.3067 263.708 77.852C263.972 77.3973 264.324 77.0307 264.764 76.752C265.204 76.4587 265.71 76.2533 266.282 76.136C266.869 76.004 267.477 75.938 268.108 75.938C268.401 75.938 268.709 75.96 269.032 76.004C269.355 76.0333 269.699 76.092 270.066 76.18V75.74C270.066 75.432 270.029 75.1387 269.956 74.86C269.883 74.5813 269.751 74.3393 269.56 74.134C269.384 73.914 269.142 73.7453 268.834 73.628C268.541 73.5107 268.167 73.452 267.712 73.452C267.096 73.452 266.531 73.496 266.018 73.584C265.505 73.672 265.087 73.7747 264.764 73.892L264.434 71.736C264.771 71.6187 265.263 71.5013 265.908 71.384C266.553 71.2667 267.243 71.208 267.976 71.208ZM278.471 76.95C278.471 78.0793 278.713 78.908 279.197 79.436C279.696 79.9493 280.334 80.206 281.111 80.206C281.536 80.206 281.932 80.1473 282.299 80.03C282.68 79.9127 282.988 79.7733 283.223 79.612V73.65C283.032 73.606 282.798 73.5693 282.519 73.54C282.24 73.496 281.888 73.474 281.463 73.474C280.495 73.474 279.754 73.7967 279.241 74.442C278.728 75.0727 278.471 75.9087 278.471 76.95ZM285.885 81.834C285.885 83.6673 285.416 85.0093 284.477 85.86C283.553 86.7107 282.13 87.136 280.209 87.136C279.505 87.136 278.816 87.0773 278.141 86.96C277.481 86.8427 276.88 86.6887 276.337 86.498L276.821 84.232C277.276 84.4227 277.789 84.5767 278.361 84.694C278.948 84.8113 279.578 84.87 280.253 84.87C281.324 84.87 282.086 84.65 282.541 84.21C282.996 83.77 283.223 83.1173 283.223 82.252V81.812C282.959 81.944 282.607 82.076 282.167 82.208C281.742 82.34 281.25 82.406 280.693 82.406C279.96 82.406 279.285 82.2887 278.669 82.054C278.068 81.8193 277.547 81.4747 277.107 81.02C276.682 80.5653 276.344 80.0007 276.095 79.326C275.86 78.6367 275.743 77.8447 275.743 76.95C275.743 76.114 275.868 75.344 276.117 74.64C276.381 73.936 276.755 73.3347 277.239 72.836C277.738 72.3373 278.339 71.9487 279.043 71.67C279.747 71.3913 280.546 71.252 281.441 71.252C282.306 71.252 283.128 71.318 283.905 71.45C284.682 71.582 285.342 71.7213 285.885 71.868V81.834ZM289.115 77.302C289.115 76.29 289.262 75.4027 289.555 74.64C289.863 73.8773 290.266 73.2467 290.765 72.748C291.264 72.2347 291.836 71.8533 292.481 71.604C293.126 71.34 293.786 71.208 294.461 71.208C296.045 71.208 297.277 71.6993 298.157 72.682C299.052 73.6647 299.499 75.1313 299.499 77.082C299.499 77.2287 299.492 77.3973 299.477 77.588C299.477 77.764 299.47 77.9253 299.455 78.072H291.865C291.938 78.996 292.261 79.7147 292.833 80.228C293.42 80.7267 294.263 80.976 295.363 80.976C296.008 80.976 296.595 80.9173 297.123 80.8C297.666 80.6827 298.091 80.558 298.399 80.426L298.751 82.604C298.604 82.6773 298.399 82.758 298.135 82.846C297.886 82.9193 297.592 82.9853 297.255 83.044C296.932 83.1173 296.58 83.176 296.199 83.22C295.818 83.264 295.429 83.286 295.033 83.286C294.021 83.286 293.141 83.1393 292.393 82.846C291.645 82.538 291.029 82.12 290.545 81.592C290.061 81.0493 289.702 80.4187 289.467 79.7C289.232 78.9667 289.115 78.1673 289.115 77.302ZM296.837 76.114C296.837 75.7473 296.786 75.4027 296.683 75.08C296.58 74.7427 296.426 74.4567 296.221 74.222C296.03 73.9727 295.788 73.782 295.495 73.65C295.216 73.5033 294.879 73.43 294.483 73.43C294.072 73.43 293.713 73.5107 293.405 73.672C293.097 73.8187 292.833 74.0167 292.613 74.266C292.408 74.5153 292.246 74.8013 292.129 75.124C292.012 75.4467 291.931 75.7767 291.887 76.114H296.837ZM309.359 76.95C309.359 75.7473 309.205 74.882 308.897 74.354C308.603 73.8113 308.046 73.54 307.225 73.54C306.931 73.54 306.609 73.562 306.257 73.606C305.905 73.65 305.641 73.6867 305.465 73.716V83H302.803V71.868C303.316 71.7213 303.983 71.582 304.805 71.45C305.641 71.318 306.521 71.252 307.445 71.252C308.237 71.252 308.882 71.3547 309.381 71.56C309.894 71.7653 310.319 72.0367 310.657 72.374C310.818 72.2567 311.023 72.132 311.273 72C311.522 71.868 311.801 71.7507 312.109 71.648C312.417 71.5307 312.739 71.4353 313.077 71.362C313.429 71.2887 313.781 71.252 314.133 71.252C315.027 71.252 315.761 71.384 316.333 71.648C316.919 71.8973 317.374 72.2567 317.697 72.726C318.034 73.1807 318.261 73.738 318.379 74.398C318.511 75.0433 318.577 75.7547 318.577 76.532V83H315.915V76.95C315.915 75.7473 315.768 74.882 315.475 74.354C315.181 73.8113 314.617 73.54 313.781 73.54C313.355 73.54 312.952 73.6133 312.571 73.76C312.189 73.892 311.903 74.024 311.713 74.156C311.83 74.5227 311.911 74.9113 311.955 75.322C311.999 75.7327 312.021 76.1727 312.021 76.642V83H309.359V76.95ZM321.681 77.302C321.681 76.29 321.828 75.4027 322.121 74.64C322.429 73.8773 322.832 73.2467 323.331 72.748C323.83 72.2347 324.402 71.8533 325.047 71.604C325.692 71.34 326.352 71.208 327.027 71.208C328.611 71.208 329.843 71.6993 330.723 72.682C331.618 73.6647 332.065 75.1313 332.065 77.082C332.065 77.2287 332.058 77.3973 332.043 77.588C332.043 77.764 332.036 77.9253 332.021 78.072H324.431C324.504 78.996 324.827 79.7147 325.399 80.228C325.986 80.7267 326.829 80.976 327.929 80.976C328.574 80.976 329.161 80.9173 329.689 80.8C330.232 80.6827 330.657 80.558 330.965 80.426L331.317 82.604C331.17 82.6773 330.965 82.758 330.701 82.846C330.452 82.9193 330.158 82.9853 329.821 83.044C329.498 83.1173 329.146 83.176 328.765 83.22C328.384 83.264 327.995 83.286 327.599 83.286C326.587 83.286 325.707 83.1393 324.959 82.846C324.211 82.538 323.595 82.12 323.111 81.592C322.627 81.0493 322.268 80.4187 322.033 79.7C321.798 78.9667 321.681 78.1673 321.681 77.302ZM329.403 76.114C329.403 75.7473 329.352 75.4027 329.249 75.08C329.146 74.7427 328.992 74.4567 328.787 74.222C328.596 73.9727 328.354 73.782 328.061 73.65C327.782 73.5033 327.445 73.43 327.049 73.43C326.638 73.43 326.279 73.5107 325.971 73.672C325.663 73.8187 325.399 74.0167 325.179 74.266C324.974 74.5153 324.812 74.8013 324.695 75.124C324.578 75.4467 324.497 75.7767 324.453 76.114H329.403ZM335.369 71.868C335.882 71.7213 336.549 71.582 337.371 71.45C338.192 71.318 339.101 71.252 340.099 71.252C341.037 71.252 341.822 71.384 342.453 71.648C343.083 71.8973 343.582 72.2567 343.949 72.726C344.33 73.1807 344.594 73.738 344.741 74.398C344.902 75.0433 344.983 75.7547 344.983 76.532V83H342.321V76.95C342.321 76.334 342.277 75.8133 342.189 75.388C342.115 74.948 341.983 74.596 341.793 74.332C341.617 74.0533 341.367 73.8553 341.045 73.738C340.737 73.606 340.355 73.54 339.901 73.54C339.563 73.54 339.211 73.562 338.845 73.606C338.478 73.65 338.207 73.6867 338.031 73.716V83H335.369V71.868ZM348.587 68.458L351.249 68.018V71.494H355.341V73.716H351.249V78.402C351.249 79.326 351.396 79.986 351.689 80.382C351.982 80.778 352.481 80.976 353.185 80.976C353.669 80.976 354.094 80.9247 354.461 80.822C354.842 80.7193 355.143 80.624 355.363 80.536L355.803 82.648C355.495 82.78 355.092 82.912 354.593 83.044C354.094 83.1907 353.508 83.264 352.833 83.264C352.012 83.264 351.322 83.154 350.765 82.934C350.222 82.714 349.79 82.3987 349.467 81.988C349.144 81.5627 348.917 81.0567 348.785 80.47C348.653 79.8687 348.587 79.1867 348.587 78.424V68.458ZM366.696 83H364.034V71.494H366.696V83ZM366.982 68.128C366.982 68.6267 366.82 69.0227 366.498 69.316C366.175 69.6093 365.794 69.756 365.354 69.756C364.899 69.756 364.51 69.6093 364.188 69.316C363.865 69.0227 363.704 68.6267 363.704 68.128C363.704 67.6147 363.865 67.2113 364.188 66.918C364.51 66.6247 364.899 66.478 365.354 66.478C365.794 66.478 366.175 66.6247 366.498 66.918C366.82 67.2113 366.982 67.6147 366.982 68.128ZM370.573 71.868C371.086 71.7213 371.754 71.582 372.575 71.45C373.396 71.318 374.306 71.252 375.303 71.252C376.242 71.252 377.026 71.384 377.657 71.648C378.288 71.8973 378.786 72.2567 379.153 72.726C379.534 73.1807 379.798 73.738 379.945 74.398C380.106 75.0433 380.187 75.7547 380.187 76.532V83H377.525V76.95C377.525 76.334 377.481 75.8133 377.393 75.388C377.32 74.948 377.188 74.596 376.997 74.332C376.821 74.0533 376.572 73.8553 376.249 73.738C375.941 73.606 375.56 73.54 375.105 73.54C374.768 73.54 374.416 73.562 374.049 73.606C373.682 73.65 373.411 73.6867 373.235 73.716V83H370.573V71.868ZM67.4753 111C67.27 110.399 67.0573 109.805 66.8373 109.218C66.6173 108.631 66.4046 108.03 66.1993 107.414H59.7753C59.57 108.03 59.3573 108.639 59.1373 109.24C58.932 109.827 58.7266 110.413 58.5213 111H55.6393C56.2113 109.372 56.754 107.869 57.2673 106.49C57.7806 105.111 58.2793 103.806 58.7633 102.574C59.262 101.342 59.7533 100.169 60.2373 99.054C60.7213 97.9393 61.22 96.8393 61.7333 95.754H64.3513C64.8646 96.8393 65.3633 97.9393 65.8473 99.054C66.3313 100.169 66.8153 101.342 67.2993 102.574C67.798 103.806 68.304 105.111 68.8173 106.49C69.3453 107.869 69.8953 109.372 70.4673 111H67.4753ZM62.9873 98.702C62.65 99.4793 62.2613 100.425 61.8213 101.54C61.396 102.655 60.9486 103.865 60.4793 105.17H65.4953C65.026 103.865 64.5713 102.647 64.1313 101.518C63.6913 100.389 63.31 99.45 62.9873 98.702ZM71.8048 105.258C71.8048 104.407 71.9368 103.615 72.2008 102.882C72.4648 102.134 72.8388 101.489 73.3228 100.946C73.8215 100.403 74.4228 99.978 75.1268 99.67C75.8308 99.362 76.6228 99.208 77.5028 99.208C78.5882 99.208 79.6148 99.406 80.5828 99.802L80.0108 101.98C79.7028 101.848 79.3508 101.738 78.9548 101.65C78.5735 101.562 78.1628 101.518 77.7228 101.518C76.6815 101.518 75.8895 101.848 75.3468 102.508C74.8042 103.153 74.5328 104.07 74.5328 105.258C74.5328 106.402 74.7895 107.311 75.3028 107.986C75.8162 108.646 76.6815 108.976 77.8988 108.976C78.3535 108.976 78.8008 108.932 79.2408 108.844C79.6808 108.756 80.0622 108.646 80.3848 108.514L80.7588 110.714C80.4655 110.861 80.0182 110.993 79.4168 111.11C78.8302 111.227 78.2215 111.286 77.5908 111.286C76.6082 111.286 75.7502 111.139 75.0168 110.846C74.2982 110.538 73.6968 110.12 73.2128 109.592C72.7435 109.049 72.3915 108.411 72.1568 107.678C71.9222 106.93 71.8048 106.123 71.8048 105.258ZM89.857 101.892C89.637 101.819 89.329 101.745 88.933 101.672C88.5517 101.584 88.1044 101.54 87.591 101.54C87.2977 101.54 86.9824 101.569 86.645 101.628C86.3224 101.687 86.095 101.738 85.963 101.782V111H83.301V100.044C83.8144 99.8533 84.4524 99.6773 85.215 99.516C85.9924 99.34 86.8504 99.252 87.789 99.252C87.965 99.252 88.1704 99.2667 88.405 99.296C88.6397 99.3107 88.8744 99.34 89.109 99.384C89.3437 99.4133 89.571 99.4573 89.791 99.516C90.011 99.56 90.187 99.604 90.319 99.648L89.857 101.892ZM103.061 105.236C103.061 106.145 102.929 106.974 102.665 107.722C102.401 108.47 102.027 109.108 101.543 109.636C101.059 110.164 100.473 110.575 99.7833 110.868C99.1087 111.161 98.3607 111.308 97.5393 111.308C96.718 111.308 95.97 111.161 95.2953 110.868C94.6207 110.575 94.0413 110.164 93.5573 109.636C93.0733 109.108 92.692 108.47 92.4133 107.722C92.1493 106.974 92.0173 106.145 92.0173 105.236C92.0173 104.327 92.1493 103.505 92.4133 102.772C92.692 102.024 93.0733 101.386 93.5573 100.858C94.056 100.33 94.6427 99.9267 95.3173 99.648C95.992 99.3547 96.7327 99.208 97.5393 99.208C98.346 99.208 99.0867 99.3547 99.7613 99.648C100.451 99.9267 101.037 100.33 101.521 100.858C102.005 101.386 102.379 102.024 102.643 102.772C102.922 103.505 103.061 104.327 103.061 105.236ZM100.333 105.236C100.333 104.092 100.084 103.19 99.5853 102.53C99.1013 101.855 98.4193 101.518 97.5393 101.518C96.6593 101.518 95.97 101.855 95.4713 102.53C94.9873 103.19 94.7453 104.092 94.7453 105.236C94.7453 106.395 94.9873 107.311 95.4713 107.986C95.97 108.661 96.6593 108.998 97.5393 108.998C98.4193 108.998 99.1013 108.661 99.5853 107.986C100.084 107.311 100.333 106.395 100.333 105.236ZM106.285 99.868C106.798 99.7213 107.466 99.582 108.287 99.45C109.108 99.318 110.018 99.252 111.015 99.252C111.954 99.252 112.738 99.384 113.369 99.648C114 99.8973 114.498 100.257 114.865 100.726C115.246 101.181 115.51 101.738 115.657 102.398C115.818 103.043 115.899 103.755 115.899 104.532V111H113.237V104.95C113.237 104.334 113.193 103.813 113.105 103.388C113.032 102.948 112.9 102.596 112.709 102.332C112.533 102.053 112.284 101.855 111.961 101.738C111.653 101.606 111.272 101.54 110.817 101.54C110.48 101.54 110.128 101.562 109.761 101.606C109.394 101.65 109.123 101.687 108.947 101.716V111H106.285V99.868ZM122.319 111H119.657V99.494H122.319V111ZM122.605 96.128C122.605 96.6267 122.444 97.0227 122.121 97.316C121.799 97.6093 121.417 97.756 120.977 97.756C120.523 97.756 120.134 97.6093 119.811 97.316C119.489 97.0227 119.327 96.6267 119.327 96.128C119.327 95.6147 119.489 95.2113 119.811 94.918C120.134 94.6247 120.523 94.478 120.977 94.478C121.417 94.478 121.799 94.6247 122.121 94.918C122.444 95.2113 122.605 95.6147 122.605 96.128ZM129.079 109.086C129.783 109.086 130.296 109.005 130.619 108.844C130.941 108.668 131.103 108.375 131.103 107.964C131.103 107.583 130.927 107.267 130.575 107.018C130.237 106.769 129.673 106.497 128.881 106.204C128.397 106.028 127.949 105.845 127.539 105.654C127.143 105.449 126.798 105.214 126.505 104.95C126.211 104.686 125.977 104.371 125.801 104.004C125.639 103.623 125.559 103.161 125.559 102.618C125.559 101.562 125.947 100.733 126.725 100.132C127.502 99.516 128.558 99.208 129.893 99.208C130.567 99.208 131.213 99.274 131.829 99.406C132.445 99.5233 132.907 99.6407 133.215 99.758L132.731 101.914C132.437 101.782 132.063 101.665 131.609 101.562C131.154 101.445 130.626 101.386 130.025 101.386C129.482 101.386 129.042 101.481 128.705 101.672C128.367 101.848 128.199 102.127 128.199 102.508C128.199 102.699 128.228 102.867 128.287 103.014C128.36 103.161 128.477 103.3 128.639 103.432C128.8 103.549 129.013 103.674 129.277 103.806C129.541 103.923 129.863 104.048 130.245 104.18C130.875 104.415 131.411 104.649 131.851 104.884C132.291 105.104 132.65 105.361 132.929 105.654C133.222 105.933 133.435 106.255 133.567 106.622C133.699 106.989 133.765 107.429 133.765 107.942C133.765 109.042 133.354 109.878 132.533 110.45C131.726 111.007 130.567 111.286 129.057 111.286C128.045 111.286 127.231 111.198 126.615 111.022C125.999 110.861 125.566 110.729 125.317 110.626L125.779 108.404C126.175 108.565 126.644 108.719 127.187 108.866C127.744 109.013 128.375 109.086 129.079 109.086ZM145.231 109.086C145.935 109.086 146.448 109.005 146.771 108.844C147.093 108.668 147.255 108.375 147.255 107.964C147.255 107.583 147.079 107.267 146.727 107.018C146.389 106.769 145.825 106.497 145.033 106.204C144.549 106.028 144.101 105.845 143.691 105.654C143.295 105.449 142.95 105.214 142.657 104.95C142.363 104.686 142.129 104.371 141.953 104.004C141.791 103.623 141.711 103.161 141.711 102.618C141.711 101.562 142.099 100.733 142.877 100.132C143.654 99.516 144.71 99.208 146.045 99.208C146.719 99.208 147.365 99.274 147.981 99.406C148.597 99.5233 149.059 99.6407 149.367 99.758L148.883 101.914C148.589 101.782 148.215 101.665 147.761 101.562C147.306 101.445 146.778 101.386 146.177 101.386C145.634 101.386 145.194 101.481 144.857 101.672C144.519 101.848 144.351 102.127 144.351 102.508C144.351 102.699 144.38 102.867 144.439 103.014C144.512 103.161 144.629 103.3 144.791 103.432C144.952 103.549 145.165 103.674 145.429 103.806C145.693 103.923 146.015 104.048 146.397 104.18C147.027 104.415 147.563 104.649 148.003 104.884C148.443 105.104 148.802 105.361 149.081 105.654C149.374 105.933 149.587 106.255 149.719 106.622C149.851 106.989 149.917 107.429 149.917 107.942C149.917 109.042 149.506 109.878 148.685 110.45C147.878 111.007 146.719 111.286 145.209 111.286C144.197 111.286 143.383 111.198 142.767 111.022C142.151 110.861 141.718 110.729 141.469 110.626L141.931 108.404C142.327 108.565 142.796 108.719 143.339 108.866C143.896 109.013 144.527 109.086 145.231 109.086ZM163.291 105.236C163.291 106.145 163.159 106.974 162.895 107.722C162.631 108.47 162.257 109.108 161.773 109.636C161.289 110.164 160.702 110.575 160.013 110.868C159.338 111.161 158.59 111.308 157.769 111.308C156.947 111.308 156.199 111.161 155.525 110.868C154.85 110.575 154.271 110.164 153.787 109.636C153.303 109.108 152.921 108.47 152.643 107.722C152.379 106.974 152.247 106.145 152.247 105.236C152.247 104.327 152.379 103.505 152.643 102.772C152.921 102.024 153.303 101.386 153.787 100.858C154.285 100.33 154.872 99.9267 155.547 99.648C156.221 99.3547 156.962 99.208 157.769 99.208C158.575 99.208 159.316 99.3547 159.991 99.648C160.68 99.9267 161.267 100.33 161.751 100.858C162.235 101.386 162.609 102.024 162.873 102.772C163.151 103.505 163.291 104.327 163.291 105.236ZM160.563 105.236C160.563 104.092 160.313 103.19 159.815 102.53C159.331 101.855 158.649 101.518 157.769 101.518C156.889 101.518 156.199 101.855 155.701 102.53C155.217 103.19 154.975 104.092 154.975 105.236C154.975 106.395 155.217 107.311 155.701 107.986C156.199 108.661 156.889 108.998 157.769 108.998C158.649 108.998 159.331 108.661 159.815 107.986C160.313 107.311 160.563 106.395 160.563 105.236ZM171.2 93.928C171.816 93.928 172.359 93.9867 172.828 94.104C173.298 94.2067 173.65 94.302 173.884 94.39L173.378 96.59C173.129 96.4727 172.836 96.3773 172.498 96.304C172.176 96.2307 171.824 96.194 171.442 96.194C171.017 96.194 170.658 96.26 170.364 96.392C170.071 96.5093 169.836 96.678 169.66 96.898C169.484 97.118 169.36 97.3893 169.286 97.712C169.213 98.02 169.176 98.3573 169.176 98.724V99.494H173.356V101.716H169.176V111H166.514V98.68C166.514 97.1987 166.903 96.04 167.68 95.204C168.458 94.3533 169.631 93.928 171.2 93.928ZM175.672 96.458L178.334 96.018V99.494H182.426V101.716H178.334V106.402C178.334 107.326 178.481 107.986 178.774 108.382C179.067 108.778 179.566 108.976 180.27 108.976C180.754 108.976 181.179 108.925 181.546 108.822C181.927 108.719 182.228 108.624 182.448 108.536L182.888 110.648C182.58 110.78 182.177 110.912 181.678 111.044C181.179 111.191 180.593 111.264 179.918 111.264C179.097 111.264 178.407 111.154 177.85 110.934C177.307 110.714 176.875 110.399 176.552 109.988C176.229 109.563 176.002 109.057 175.87 108.47C175.738 107.869 175.672 107.187 175.672 106.424V96.458ZM192.345 103.762C192.007 105.053 191.641 106.314 191.245 107.546C190.863 108.763 190.482 109.915 190.101 111H187.923C187.629 110.325 187.321 109.555 186.999 108.69C186.676 107.825 186.353 106.901 186.031 105.918C185.708 104.935 185.385 103.901 185.063 102.816C184.74 101.731 184.425 100.623 184.117 99.494H186.933C187.065 100.11 187.219 100.777 187.395 101.496C187.571 102.2 187.754 102.926 187.945 103.674C188.135 104.407 188.333 105.126 188.539 105.83C188.744 106.534 188.949 107.179 189.155 107.766C189.375 107.091 189.587 106.395 189.793 105.676C190.013 104.957 190.218 104.239 190.409 103.52C190.599 102.801 190.775 102.105 190.937 101.43C191.113 100.741 191.267 100.095 191.399 99.494H193.445C193.577 100.095 193.723 100.741 193.885 101.43C194.046 102.105 194.215 102.801 194.391 103.52C194.581 104.239 194.779 104.957 194.985 105.676C195.205 106.395 195.425 107.091 195.645 107.766C195.835 107.179 196.033 106.534 196.239 105.83C196.444 105.126 196.642 104.407 196.833 103.674C197.038 102.926 197.229 102.2 197.405 101.496C197.581 100.777 197.735 100.11 197.867 99.494H200.617C200.309 100.623 199.993 101.731 199.671 102.816C199.348 103.901 199.025 104.935 198.703 105.918C198.38 106.901 198.057 107.825 197.735 108.69C197.412 109.555 197.097 110.325 196.789 111H194.633C194.251 109.915 193.855 108.763 193.445 107.546C193.049 106.314 192.682 105.053 192.345 103.762ZM207.176 109.13C207.997 109.13 208.621 109.086 209.046 108.998V106.05C208.899 106.006 208.687 105.962 208.408 105.918C208.129 105.874 207.821 105.852 207.484 105.852C207.191 105.852 206.89 105.874 206.582 105.918C206.289 105.962 206.017 106.043 205.768 106.16C205.533 106.277 205.343 106.446 205.196 106.666C205.049 106.871 204.976 107.135 204.976 107.458C204.976 108.089 205.174 108.529 205.57 108.778C205.966 109.013 206.501 109.13 207.176 109.13ZM206.956 99.208C207.836 99.208 208.577 99.318 209.178 99.538C209.779 99.758 210.256 100.066 210.608 100.462C210.975 100.858 211.231 101.342 211.378 101.914C211.539 102.471 211.62 103.087 211.62 103.762V110.736C211.209 110.824 210.586 110.927 209.75 111.044C208.929 111.176 207.997 111.242 206.956 111.242C206.267 111.242 205.636 111.176 205.064 111.044C204.492 110.912 204.001 110.699 203.59 110.406C203.194 110.113 202.879 109.731 202.644 109.262C202.424 108.793 202.314 108.213 202.314 107.524C202.314 106.864 202.439 106.307 202.688 105.852C202.952 105.397 203.304 105.031 203.744 104.752C204.184 104.459 204.69 104.253 205.262 104.136C205.849 104.004 206.457 103.938 207.088 103.938C207.381 103.938 207.689 103.96 208.012 104.004C208.335 104.033 208.679 104.092 209.046 104.18V103.74C209.046 103.432 209.009 103.139 208.936 102.86C208.863 102.581 208.731 102.339 208.54 102.134C208.364 101.914 208.122 101.745 207.814 101.628C207.521 101.511 207.147 101.452 206.692 101.452C206.076 101.452 205.511 101.496 204.998 101.584C204.485 101.672 204.067 101.775 203.744 101.892L203.414 99.736C203.751 99.6187 204.243 99.5013 204.888 99.384C205.533 99.2667 206.223 99.208 206.956 99.208ZM221.917 101.892C221.697 101.819 221.389 101.745 220.993 101.672C220.612 101.584 220.165 101.54 219.651 101.54C219.358 101.54 219.043 101.569 218.705 101.628C218.383 101.687 218.155 101.738 218.023 101.782V111H215.361V100.044C215.875 99.8533 216.513 99.6773 217.275 99.516C218.053 99.34 218.911 99.252 219.849 99.252C220.025 99.252 220.231 99.2667 220.465 99.296C220.7 99.3107 220.935 99.34 221.169 99.384C221.404 99.4133 221.631 99.4573 221.851 99.516C222.071 99.56 222.247 99.604 222.379 99.648L221.917 101.892ZM224.077 105.302C224.077 104.29 224.224 103.403 224.517 102.64C224.825 101.877 225.229 101.247 225.727 100.748C226.226 100.235 226.798 99.8533 227.443 99.604C228.089 99.34 228.749 99.208 229.423 99.208C231.007 99.208 232.239 99.6993 233.119 100.682C234.014 101.665 234.461 103.131 234.461 105.082C234.461 105.229 234.454 105.397 234.439 105.588C234.439 105.764 234.432 105.925 234.417 106.072H226.827C226.901 106.996 227.223 107.715 227.795 108.228C228.382 108.727 229.225 108.976 230.325 108.976C230.971 108.976 231.557 108.917 232.085 108.8C232.628 108.683 233.053 108.558 233.361 108.426L233.713 110.604C233.567 110.677 233.361 110.758 233.097 110.846C232.848 110.919 232.555 110.985 232.217 111.044C231.895 111.117 231.543 111.176 231.161 111.22C230.78 111.264 230.391 111.286 229.995 111.286C228.983 111.286 228.103 111.139 227.355 110.846C226.607 110.538 225.991 110.12 225.507 109.592C225.023 109.049 224.664 108.419 224.429 107.7C224.195 106.967 224.077 106.167 224.077 105.302ZM231.799 104.114C231.799 103.747 231.748 103.403 231.645 103.08C231.543 102.743 231.389 102.457 231.183 102.222C230.993 101.973 230.751 101.782 230.457 101.65C230.179 101.503 229.841 101.43 229.445 101.43C229.035 101.43 228.675 101.511 228.367 101.672C228.059 101.819 227.795 102.017 227.575 102.266C227.37 102.515 227.209 102.801 227.091 103.124C226.974 103.447 226.893 103.777 226.849 104.114H231.799ZM243.249 96.458L245.911 96.018V99.494H250.003V101.716H245.911V106.402C245.911 107.326 246.058 107.986 246.351 108.382C246.644 108.778 247.143 108.976 247.847 108.976C248.331 108.976 248.756 108.925 249.123 108.822C249.504 108.719 249.805 108.624 250.025 108.536L250.465 110.648C250.157 110.78 249.754 110.912 249.255 111.044C248.756 111.191 248.17 111.264 247.495 111.264C246.674 111.264 245.984 111.154 245.427 110.934C244.884 110.714 244.452 110.399 244.129 109.988C243.806 109.563 243.579 109.057 243.447 108.47C243.315 107.869 243.249 107.187 243.249 106.424V96.458ZM259.614 101.892C259.394 101.819 259.086 101.745 258.69 101.672C258.308 101.584 257.861 101.54 257.348 101.54C257.054 101.54 256.739 101.569 256.402 101.628C256.079 101.687 255.852 101.738 255.72 101.782V111H253.058V100.044C253.571 99.8533 254.209 99.6773 254.972 99.516C255.749 99.34 256.607 99.252 257.546 99.252C257.722 99.252 257.927 99.2667 258.162 99.296C258.396 99.3107 258.631 99.34 258.866 99.384C259.1 99.4133 259.328 99.4573 259.548 99.516C259.768 99.56 259.944 99.604 260.076 99.648L259.614 101.892ZM266.46 109.13C267.281 109.13 267.905 109.086 268.33 108.998V106.05C268.183 106.006 267.971 105.962 267.692 105.918C267.413 105.874 267.105 105.852 266.768 105.852C266.475 105.852 266.174 105.874 265.866 105.918C265.573 105.962 265.301 106.043 265.052 106.16C264.817 106.277 264.627 106.446 264.48 106.666C264.333 106.871 264.26 107.135 264.26 107.458C264.26 108.089 264.458 108.529 264.854 108.778C265.25 109.013 265.785 109.13 266.46 109.13ZM266.24 99.208C267.12 99.208 267.861 99.318 268.462 99.538C269.063 99.758 269.54 100.066 269.892 100.462C270.259 100.858 270.515 101.342 270.662 101.914C270.823 102.471 270.904 103.087 270.904 103.762V110.736C270.493 110.824 269.87 110.927 269.034 111.044C268.213 111.176 267.281 111.242 266.24 111.242C265.551 111.242 264.92 111.176 264.348 111.044C263.776 110.912 263.285 110.699 262.874 110.406C262.478 110.113 262.163 109.731 261.928 109.262C261.708 108.793 261.598 108.213 261.598 107.524C261.598 106.864 261.723 106.307 261.972 105.852C262.236 105.397 262.588 105.031 263.028 104.752C263.468 104.459 263.974 104.253 264.546 104.136C265.133 104.004 265.741 103.938 266.372 103.938C266.665 103.938 266.973 103.96 267.296 104.004C267.619 104.033 267.963 104.092 268.33 104.18V103.74C268.33 103.432 268.293 103.139 268.22 102.86C268.147 102.581 268.015 102.339 267.824 102.134C267.648 101.914 267.406 101.745 267.098 101.628C266.805 101.511 266.431 101.452 265.976 101.452C265.36 101.452 264.795 101.496 264.282 101.584C263.769 101.672 263.351 101.775 263.028 101.892L262.698 99.736C263.035 99.6187 263.527 99.5013 264.172 99.384C264.817 99.2667 265.507 99.208 266.24 99.208ZM277.329 111H274.667V99.494H277.329V111ZM277.615 96.128C277.615 96.6267 277.454 97.0227 277.131 97.316C276.809 97.6093 276.427 97.756 275.987 97.756C275.533 97.756 275.144 97.6093 274.821 97.316C274.499 97.0227 274.337 96.6267 274.337 96.128C274.337 95.6147 274.499 95.2113 274.821 94.918C275.144 94.6247 275.533 94.478 275.987 94.478C276.427 94.478 276.809 94.6247 277.131 94.918C277.454 95.2113 277.615 95.6147 277.615 96.128ZM281.207 99.868C281.72 99.7213 282.387 99.582 283.209 99.45C284.03 99.318 284.939 99.252 285.937 99.252C286.875 99.252 287.66 99.384 288.291 99.648C288.921 99.8973 289.42 100.257 289.787 100.726C290.168 101.181 290.432 101.738 290.579 102.398C290.74 103.043 290.821 103.755 290.821 104.532V111H288.159V104.95C288.159 104.334 288.115 103.813 288.027 103.388C287.953 102.948 287.821 102.596 287.631 102.332C287.455 102.053 287.205 101.855 286.883 101.738C286.575 101.606 286.193 101.54 285.739 101.54C285.401 101.54 285.049 101.562 284.683 101.606C284.316 101.65 284.045 101.687 283.869 101.716V111H281.207V99.868ZM297.241 111H294.579V99.494H297.241V111ZM297.527 96.128C297.527 96.6267 297.366 97.0227 297.043 97.316C296.72 97.6093 296.339 97.756 295.899 97.756C295.444 97.756 295.056 97.6093 294.733 97.316C294.41 97.0227 294.249 96.6267 294.249 96.128C294.249 95.6147 294.41 95.2113 294.733 94.918C295.056 94.6247 295.444 94.478 295.899 94.478C296.339 94.478 296.72 94.6247 297.043 94.918C297.366 95.2113 297.527 95.6147 297.527 96.128ZM301.118 99.868C301.632 99.7213 302.299 99.582 303.12 99.45C303.942 99.318 304.851 99.252 305.848 99.252C306.787 99.252 307.572 99.384 308.202 99.648C308.833 99.8973 309.332 100.257 309.698 100.726C310.08 101.181 310.344 101.738 310.49 102.398C310.652 103.043 310.732 103.755 310.732 104.532V111H308.07V104.95C308.07 104.334 308.026 103.813 307.938 103.388C307.865 102.948 307.733 102.596 307.542 102.332C307.366 102.053 307.117 101.855 306.794 101.738C306.486 101.606 306.105 101.54 305.65 101.54C305.313 101.54 304.961 101.562 304.594 101.606C304.228 101.65 303.956 101.687 303.78 101.716V111H301.118V99.868ZM316.559 104.95C316.559 106.079 316.801 106.908 317.285 107.436C317.783 107.949 318.421 108.206 319.199 108.206C319.624 108.206 320.02 108.147 320.387 108.03C320.768 107.913 321.076 107.773 321.311 107.612V101.65C321.12 101.606 320.885 101.569 320.607 101.54C320.328 101.496 319.976 101.474 319.551 101.474C318.583 101.474 317.842 101.797 317.329 102.442C316.815 103.073 316.559 103.909 316.559 104.95ZM323.973 109.834C323.973 111.667 323.503 113.009 322.565 113.86C321.641 114.711 320.218 115.136 318.297 115.136C317.593 115.136 316.903 115.077 316.229 114.96C315.569 114.843 314.967 114.689 314.425 114.498L314.909 112.232C315.363 112.423 315.877 112.577 316.449 112.694C317.035 112.811 317.666 112.87 318.341 112.87C319.411 112.87 320.174 112.65 320.629 112.21C321.083 111.77 321.311 111.117 321.311 110.252V109.812C321.047 109.944 320.695 110.076 320.255 110.208C319.829 110.34 319.338 110.406 318.781 110.406C318.047 110.406 317.373 110.289 316.757 110.054C316.155 109.819 315.635 109.475 315.195 109.02C314.769 108.565 314.432 108.001 314.183 107.326C313.948 106.637 313.831 105.845 313.831 104.95C313.831 104.114 313.955 103.344 314.205 102.64C314.469 101.936 314.843 101.335 315.327 100.836C315.825 100.337 316.427 99.9487 317.131 99.67C317.835 99.3913 318.634 99.252 319.529 99.252C320.394 99.252 321.215 99.318 321.993 99.45C322.77 99.582 323.43 99.7213 323.973 99.868V109.834ZM330.194 97.668C329.681 97.668 329.19 97.734 328.72 97.866C328.251 97.9833 327.76 98.1813 327.246 98.46L326.498 96.414C327.041 96.106 327.657 95.864 328.346 95.688C329.05 95.4973 329.769 95.402 330.502 95.402C331.382 95.402 332.108 95.5267 332.68 95.776C333.252 96.0107 333.707 96.3113 334.044 96.678C334.382 97.0447 334.616 97.448 334.748 97.888C334.88 98.328 334.946 98.7533 334.946 99.164C334.946 99.6627 334.851 100.11 334.66 100.506C334.484 100.902 334.257 101.269 333.978 101.606C333.7 101.943 333.399 102.266 333.076 102.574C332.754 102.867 332.453 103.175 332.174 103.498C331.896 103.806 331.661 104.136 331.47 104.488C331.294 104.84 331.206 105.236 331.206 105.676C331.206 105.749 331.206 105.837 331.206 105.94C331.206 106.028 331.214 106.116 331.228 106.204H328.94C328.911 106.057 328.889 105.903 328.874 105.742C328.86 105.566 328.852 105.405 328.852 105.258C328.852 104.774 328.933 104.341 329.094 103.96C329.256 103.579 329.461 103.227 329.71 102.904C329.96 102.581 330.224 102.281 330.502 102.002C330.796 101.723 331.067 101.445 331.316 101.166C331.566 100.887 331.771 100.601 331.932 100.308C332.094 100.015 332.174 99.692 332.174 99.34C332.174 98.856 332.006 98.46 331.668 98.152C331.346 97.8293 330.854 97.668 330.194 97.668ZM331.91 109.548C331.91 110.061 331.742 110.479 331.404 110.802C331.067 111.125 330.649 111.286 330.15 111.286C329.666 111.286 329.248 111.125 328.896 110.802C328.559 110.479 328.39 110.061 328.39 109.548C328.39 109.035 328.559 108.617 328.896 108.294C329.248 107.957 329.666 107.788 330.15 107.788C330.649 107.788 331.067 107.957 331.404 108.294C331.742 108.617 331.91 109.035 331.91 109.548Z" fill="#0D44CC"/>
<path opacity="0.074521" d="M234.979 12.3109C246.392 20.0628 255.376 31.4267 261.356 44.2909C267.363 57.1829 270.366 71.5753 268.4 85.2175C266.435 98.8875 259.472 111.779 250.024 121.921C240.576 132.062 228.617 139.481 215.319 144.371C202.049 149.289 187.468 151.678 173.733 148.677C160.026 145.677 147.165 137.258 138.182 125.894C129.226 114.53 124.12 100.193 122.536 85.6621C120.952 71.103 122.864 56.3772 128.461 43.124C134.059 29.8708 143.37 18.1179 155.22 10.5605C167.071 3.00314 181.433 -0.358791 195.55 0.0301926C209.667 0.419176 223.538 4.55907 234.979 12.3109Z" fill="#1051F4"/>
<path d="M188.897 273L189 173" stroke="#1051F4" stroke-opacity="0.2" stroke-width="2" stroke-linecap="round" stroke-linejoin="round"/>
<path d="M203 273V173" stroke="#1051F4" stroke-opacity="0.2" stroke-width="2" stroke-linecap="round" stroke-linejoin="round"/>
<path d="M182 262.576L195.397 285L208.992 262.576" stroke="#1051F4" stroke-opacity="0.2" stroke-width="2" stroke-linecap="round" stroke-linejoin="round"/>
</g>
<defs>
<clipPath id="clip0">
<rect width="391" height="285" fill="white"/>
</clipPath>
</defs>
</svg>
