<svg width="725" height="104" viewBox="0 0 725 104" fill="none" xmlns="http://www.w3.org/2000/svg">
<g id="&#231;&#188;&#150;&#231;&#187;&#132; 57">
<g id="&#231;&#188;&#150;&#231;&#187;&#132; 20">
<path id="2" d="M94.6367 30H80.1309V26.4453L85.0117 21.5098C86.4062 20.0514 87.3177 19.0579 87.7461 18.5293C88.1745 17.9915 88.4707 17.5312 88.6348 17.1484C88.8079 16.7656 88.8945 16.3646 88.8945 15.9453C88.8945 15.4258 88.7259 15.0156 88.3887 14.7148C88.0514 14.4141 87.5775 14.2637 86.9668 14.2637C86.3379 14.2637 85.6999 14.446 85.0527 14.8105C84.4147 15.166 83.6901 15.6947 82.8789 16.3965L79.9121 12.9238C80.9421 12.0033 81.8079 11.347 82.5098 10.9551C83.2116 10.554 83.9727 10.2487 84.793 10.0391C85.6224 9.82943 86.5521 9.72461 87.582 9.72461C88.8763 9.72461 90.0293 9.95247 91.041 10.4082C92.0618 10.8639 92.8503 11.5156 93.4062 12.3633C93.9714 13.2018 94.2539 14.1452 94.2539 15.1934C94.2539 15.9772 94.1536 16.7018 93.9531 17.3672C93.7617 18.0326 93.4609 18.6888 93.0508 19.3359C92.6406 19.974 92.0938 20.6484 91.4102 21.3594C90.7357 22.0703 89.291 23.4193 87.0762 25.4062V25.543H94.6367V30Z" fill="#1051F4"/>
<path id="Contextual Inquires" d="M7.62964 50.3018C6.21753 50.3018 5.10132 50.7734 4.28101 51.7168C3.46655 52.6543 3.05933 53.9404 3.05933 55.5752C3.05933 57.2568 3.4519 58.5576 4.23706 59.4775C5.02808 60.3916 6.15308 60.8486 7.61206 60.8486C8.50854 60.8486 9.53101 60.6875 10.6794 60.3652V61.6748C9.78882 62.0088 8.69019 62.1758 7.38354 62.1758C5.49097 62.1758 4.02905 61.6016 2.9978 60.4531C1.97241 59.3047 1.45972 57.6729 1.45972 55.5576C1.45972 54.2334 1.70581 53.0732 2.198 52.0771C2.69604 51.0811 3.41089 50.3135 4.34253 49.7744C5.28003 49.2354 6.38159 48.9658 7.64722 48.9658C8.99487 48.9658 10.1726 49.2119 11.1804 49.7041L10.5476 50.9873C9.57495 50.5303 8.60229 50.3018 7.62964 50.3018ZM22.0014 57.1748C22.0014 58.7451 21.6059 59.9727 20.8149 60.8574C20.0239 61.7363 18.9311 62.1758 17.5366 62.1758C16.6752 62.1758 15.9106 61.9736 15.2426 61.5693C14.5747 61.165 14.059 60.585 13.6957 59.8291C13.3325 59.0732 13.1508 58.1885 13.1508 57.1748C13.1508 55.6045 13.5434 54.3828 14.3286 53.5098C15.1137 52.6309 16.2036 52.1914 17.5981 52.1914C18.9457 52.1914 20.0151 52.6396 20.8061 53.5361C21.603 54.4326 22.0014 55.6455 22.0014 57.1748ZM14.6625 57.1748C14.6625 58.4053 14.9086 59.3428 15.4008 59.9873C15.893 60.6318 16.6166 60.9541 17.5717 60.9541C18.5268 60.9541 19.2504 60.6348 19.7426 59.9961C20.2407 59.3516 20.4897 58.4111 20.4897 57.1748C20.4897 55.9502 20.2407 55.0215 19.7426 54.3887C19.2504 53.75 18.5209 53.4307 17.5541 53.4307C16.5991 53.4307 15.8784 53.7441 15.392 54.3711C14.9057 54.998 14.6625 55.9326 14.6625 57.1748ZM31.5831 62V55.7686C31.5831 54.9834 31.4044 54.3975 31.047 54.0107C30.6896 53.624 30.13 53.4307 29.3683 53.4307C28.3605 53.4307 27.6222 53.7031 27.1535 54.248C26.6847 54.793 26.4503 55.6924 26.4503 56.9463V62H24.9913V52.3672H26.1779L26.4152 53.6855H26.4855C26.7843 53.2109 27.2033 52.8447 27.7423 52.5869C28.2814 52.3232 28.882 52.1914 29.5441 52.1914C30.7042 52.1914 31.5773 52.4727 32.1632 53.0352C32.7492 53.5918 33.0421 54.4854 33.0421 55.7158V62H31.5831ZM39.5828 60.9717C39.8407 60.9717 40.0897 60.9541 40.3299 60.9189C40.5701 60.8779 40.7606 60.8369 40.9012 60.7959V61.9121C40.743 61.9883 40.5086 62.0498 40.1981 62.0967C39.8934 62.1494 39.618 62.1758 39.3719 62.1758C37.5086 62.1758 36.577 61.1943 36.577 59.2314V53.501H35.1971V52.7979L36.577 52.1914L37.1922 50.1348H38.036V52.3672H40.8309V53.501H38.036V59.1699C38.036 59.75 38.1737 60.1953 38.4491 60.5059C38.7244 60.8164 39.1024 60.9717 39.5828 60.9717ZM47.3277 62.1758C45.9038 62.1758 44.7788 61.7422 43.9527 60.875C43.1324 60.0078 42.7222 58.8037 42.7222 57.2627C42.7222 55.71 43.1031 54.4766 43.8648 53.5625C44.6324 52.6484 45.6607 52.1914 46.9497 52.1914C48.1568 52.1914 49.1118 52.5898 49.815 53.3867C50.5181 54.1777 50.8697 55.2236 50.8697 56.5244V57.4473H44.2339C44.2632 58.5781 44.5474 59.4365 45.0865 60.0225C45.6314 60.6084 46.396 60.9014 47.3804 60.9014C48.4175 60.9014 49.4429 60.6846 50.4566 60.251V61.5518C49.9409 61.7744 49.4517 61.9326 48.9888 62.0264C48.5318 62.126 47.9781 62.1758 47.3277 62.1758ZM46.9322 53.4131C46.1587 53.4131 45.5406 53.665 45.0777 54.1689C44.6206 54.6729 44.3511 55.3701 44.2691 56.2607H49.3052C49.3052 55.3408 49.1001 54.6377 48.69 54.1514C48.2798 53.6592 47.6939 53.4131 46.9322 53.4131ZM56.1096 57.0693L52.761 52.3672H54.4221L56.9621 56.0586L59.4934 52.3672H61.1369L57.7883 57.0693L61.3127 62H59.6604L56.9621 58.0977L54.2375 62H52.5852L56.1096 57.0693ZM66.7636 60.9717C67.0214 60.9717 67.2704 60.9541 67.5107 60.9189C67.7509 60.8779 67.9413 60.8369 68.0819 60.7959V61.9121C67.9237 61.9883 67.6894 62.0498 67.3788 62.0967C67.0741 62.1494 66.7987 62.1758 66.5527 62.1758C64.6894 62.1758 63.7577 61.1943 63.7577 59.2314V53.501H62.3778V52.7979L63.7577 52.1914L64.373 50.1348H65.2167V52.3672H68.0116V53.501H65.2167V59.1699C65.2167 59.75 65.3544 60.1953 65.6298 60.5059C65.9052 60.8164 66.2831 60.9717 66.7636 60.9717ZM71.8102 52.3672V58.6162C71.8102 59.4014 71.9889 59.9873 72.3463 60.374C72.7037 60.7607 73.2633 60.9541 74.025 60.9541C75.0328 60.9541 75.7682 60.6787 76.2311 60.1279C76.6998 59.5771 76.9342 58.6777 76.9342 57.4297V52.3672H78.3932V62H77.1891L76.9781 60.708H76.899C76.6002 61.1826 76.1842 61.5459 75.651 61.7979C75.1236 62.0498 74.5201 62.1758 73.8404 62.1758C72.6686 62.1758 71.7897 61.8975 71.2037 61.3408C70.6236 60.7842 70.3336 59.8936 70.3336 58.6689V52.3672H71.8102ZM87.8431 62L87.553 60.6289H87.4827C87.0023 61.2324 86.5218 61.6426 86.0413 61.8594C85.5667 62.0703 84.972 62.1758 84.2571 62.1758C83.3021 62.1758 82.5521 61.9297 82.0071 61.4375C81.4681 60.9453 81.1985 60.2451 81.1985 59.3369C81.1985 57.3916 82.7542 56.3721 85.8655 56.2783L87.5003 56.2256V55.6279C87.5003 54.8721 87.3362 54.3154 87.0081 53.958C86.6858 53.5947 86.1673 53.4131 85.4524 53.4131C84.6497 53.4131 83.7415 53.6592 82.7278 54.1514L82.2796 53.0352C82.7542 52.7773 83.2728 52.5752 83.8353 52.4287C84.4036 52.2822 84.972 52.209 85.5403 52.209C86.6888 52.209 87.5384 52.4639 88.0892 52.9736C88.6458 53.4834 88.9241 54.3008 88.9241 55.4258V62H87.8431ZM84.5472 60.9717C85.4554 60.9717 86.1673 60.7227 86.6829 60.2246C87.2044 59.7266 87.4651 59.0293 87.4651 58.1328V57.2627L86.0062 57.3242C84.846 57.3652 84.0081 57.5469 83.4925 57.8691C82.9827 58.1855 82.7278 58.6807 82.7278 59.3545C82.7278 59.8818 82.886 60.2832 83.2024 60.5586C83.5247 60.834 83.973 60.9717 84.5472 60.9717ZM93.8213 62H92.3623V48.3242H93.8213V62ZM102.658 62V49.1504H104.152V62H102.658ZM114.481 62V55.7686C114.481 54.9834 114.302 54.3975 113.944 54.0107C113.587 53.624 113.027 53.4307 112.266 53.4307C111.258 53.4307 110.52 53.7031 110.051 54.248C109.582 54.793 109.348 55.6924 109.348 56.9463V62H107.889V52.3672H109.075L109.313 53.6855H109.383C109.682 53.2109 110.101 52.8447 110.64 52.5869C111.179 52.3232 111.779 52.1914 112.441 52.1914C113.602 52.1914 114.475 52.4727 115.061 53.0352C115.647 53.5918 115.94 54.4854 115.94 55.7158V62H114.481ZM123.008 60.9541C123.98 60.9541 124.689 60.6934 125.135 60.1719C125.58 59.6504 125.817 58.7715 125.846 57.5352V57.21C125.846 55.8623 125.618 54.8926 125.161 54.3008C124.704 53.709 123.98 53.4131 122.99 53.4131C122.135 53.4131 121.478 53.7471 121.021 54.415C120.57 55.0771 120.345 56.0146 120.345 57.2275C120.345 58.4404 120.567 59.3662 121.012 60.0049C121.464 60.6377 122.129 60.9541 123.008 60.9541ZM122.788 62.1758C121.546 62.1758 120.576 61.7393 119.879 60.8662C119.181 59.9932 118.833 58.7744 118.833 57.21C118.833 55.6338 119.184 54.4033 119.887 53.5186C120.591 52.6338 121.569 52.1914 122.823 52.1914C124.141 52.1914 125.155 52.6895 125.864 53.6855H125.943L126.154 52.3672H127.305V66.3242H125.846V62.2021C125.846 61.6162 125.879 61.1182 125.943 60.708H125.829C125.155 61.6865 124.141 62.1758 122.788 62.1758ZM132.203 52.3672V58.6162C132.203 59.4014 132.381 59.9873 132.739 60.374C133.096 60.7607 133.656 60.9541 134.417 60.9541C135.425 60.9541 136.161 60.6787 136.624 60.1279C137.092 59.5771 137.327 58.6777 137.327 57.4297V52.3672H138.786V62H137.582L137.371 60.708H137.291C136.993 61.1826 136.577 61.5459 136.043 61.7979C135.516 62.0498 134.913 62.1758 134.233 62.1758C133.061 62.1758 132.182 61.8975 131.596 61.3408C131.016 60.7842 130.726 59.8936 130.726 58.6689V52.3672H132.203ZM143.771 62H142.312V52.3672H143.771V62ZM142.189 49.7568C142.189 49.4229 142.271 49.1797 142.435 49.0273C142.599 48.8691 142.804 48.79 143.05 48.79C143.284 48.79 143.486 48.8691 143.656 49.0273C143.826 49.1855 143.911 49.4287 143.911 49.7568C143.911 50.085 143.826 50.3311 143.656 50.4951C143.486 50.6533 143.284 50.7324 143.05 50.7324C142.804 50.7324 142.599 50.6533 142.435 50.4951C142.271 50.3311 142.189 50.085 142.189 49.7568ZM151.682 52.1914C152.11 52.1914 152.494 52.2266 152.834 52.2969L152.632 53.6504C152.233 53.5625 151.882 53.5186 151.577 53.5186C150.798 53.5186 150.13 53.835 149.573 54.4678C149.022 55.1006 148.747 55.8887 148.747 56.832V62H147.288V52.3672H148.492L148.659 54.1514H148.729C149.087 53.5244 149.517 53.041 150.021 52.7012C150.525 52.3613 151.079 52.1914 151.682 52.1914ZM159.128 62.1758C157.705 62.1758 156.58 61.7422 155.753 60.875C154.933 60.0078 154.523 58.8037 154.523 57.2627C154.523 55.71 154.904 54.4766 155.666 53.5625C156.433 52.6484 157.461 52.1914 158.751 52.1914C159.958 52.1914 160.913 52.5898 161.616 53.3867C162.319 54.1777 162.67 55.2236 162.67 56.5244V57.4473H156.035C156.064 58.5781 156.348 59.4365 156.887 60.0225C157.432 60.6084 158.197 60.9014 159.181 60.9014C160.218 60.9014 161.244 60.6846 162.257 60.251V61.5518C161.742 61.7744 161.252 61.9326 160.79 62.0264C160.333 62.126 159.779 62.1758 159.128 62.1758ZM158.733 53.4131C157.96 53.4131 157.341 53.665 156.878 54.1689C156.421 54.6729 156.152 55.3701 156.07 56.2607H161.106C161.106 55.3408 160.901 54.6377 160.491 54.1514C160.081 53.6592 159.495 53.4131 158.733 53.4131ZM171.804 59.3721C171.804 60.2686 171.47 60.96 170.802 61.4463C170.134 61.9326 169.197 62.1758 167.99 62.1758C166.712 62.1758 165.716 61.9736 165.001 61.5693V60.2158C165.464 60.4502 165.959 60.6348 166.487 60.7695C167.02 60.9043 167.532 60.9717 168.025 60.9717C168.786 60.9717 169.372 60.8516 169.782 60.6113C170.193 60.3652 170.398 59.9932 170.398 59.4951C170.398 59.1201 170.234 58.8008 169.906 58.5371C169.583 58.2676 168.95 57.9512 168.007 57.5879C167.111 57.2539 166.472 56.9639 166.091 56.7178C165.716 56.4658 165.435 56.1816 165.247 55.8652C165.066 55.5488 164.975 55.1709 164.975 54.7314C164.975 53.9463 165.294 53.3281 165.933 52.877C166.572 52.4199 167.448 52.1914 168.561 52.1914C169.598 52.1914 170.612 52.4023 171.602 52.8242L171.083 54.0107C170.116 53.6123 169.24 53.4131 168.455 53.4131C167.764 53.4131 167.242 53.5215 166.891 53.7383C166.539 53.9551 166.364 54.2539 166.364 54.6348C166.364 54.8926 166.428 55.1123 166.557 55.2939C166.692 55.4756 166.906 55.6484 167.198 55.8125C167.491 55.9766 168.054 56.2139 168.886 56.5244C170.029 56.9404 170.799 57.3594 171.198 57.7812C171.602 58.2031 171.804 58.7334 171.804 59.3721Z" fill="#404040"/>
<path id="with Acronis Trainer" d="M21.7987 84L20.4246 79.6045C20.338 79.3356 20.1763 78.7249 19.9393 77.7725H19.8846C19.7023 78.57 19.5428 79.1852 19.4061 79.6182L17.991 84H16.6785L14.6346 76.5078H15.824C16.3071 78.39 16.674 79.8232 16.9246 80.8076C17.1798 81.792 17.3257 82.4551 17.3621 82.7969H17.4168C17.4669 82.5371 17.5467 82.2021 17.6561 81.792C17.77 81.3773 17.868 81.0492 17.95 80.8076L19.324 76.5078H20.5545L21.8944 80.8076C22.1496 81.5915 22.3227 82.25 22.4139 82.7832H22.4686C22.4868 82.6191 22.5347 82.3662 22.6121 82.0244C22.6942 81.6826 23.1704 79.8438 24.0408 76.5078H25.2166L23.1453 84H21.7987ZM28.0412 84H26.9064V76.5078H28.0412V84ZM26.8107 74.4775C26.8107 74.2178 26.8745 74.0286 27.0021 73.9102C27.1297 73.7871 27.2892 73.7256 27.4806 73.7256C27.6629 73.7256 27.8201 73.7871 27.9523 73.9102C28.0844 74.0332 28.1505 74.2223 28.1505 74.4775C28.1505 74.7327 28.0844 74.9242 27.9523 75.0518C27.8201 75.1748 27.6629 75.2363 27.4806 75.2363C27.2892 75.2363 27.1297 75.1748 27.0021 75.0518C26.8745 74.9242 26.8107 74.7327 26.8107 74.4775ZM33.1967 83.2002C33.3973 83.2002 33.5909 83.1865 33.7778 83.1592C33.9646 83.1273 34.1128 83.0954 34.2221 83.0635V83.9316C34.0991 83.9909 33.9168 84.0387 33.6753 84.0752C33.4383 84.1162 33.2241 84.1367 33.0327 84.1367C31.5835 84.1367 30.8588 83.3734 30.8588 81.8467V77.3896H29.7856V76.8428L30.8588 76.3711L31.3374 74.7715H31.9936V76.5078H34.1674V77.3896H31.9936V81.7988C31.9936 82.25 32.1007 82.5964 32.3149 82.8379C32.5291 83.0794 32.823 83.2002 33.1967 83.2002ZM41.1824 84V79.1533C41.1824 78.5426 41.0434 78.0869 40.7654 77.7861C40.4874 77.4854 40.0522 77.335 39.4597 77.335C38.6713 77.335 38.0948 77.5492 37.7302 77.9775C37.3702 78.4059 37.1902 79.1077 37.1902 80.083V84H36.0554V73.3633H37.1902V76.583C37.1902 76.9704 37.172 77.2917 37.1355 77.5469H37.2039C37.4272 77.1868 37.7439 76.9043 38.1541 76.6992C38.5688 76.4896 39.0405 76.3848 39.5691 76.3848C40.4851 76.3848 41.171 76.6035 41.6267 77.041C42.087 77.474 42.3172 78.1644 42.3172 79.1123V84H41.1824ZM55.4037 84L54.1596 80.8213H50.1537L48.9233 84H47.7475L51.6986 73.9648H52.6762L56.6068 84H55.4037ZM53.7973 79.7754L52.6352 76.6787C52.4848 76.2868 52.3298 75.806 52.1703 75.2363C52.0701 75.6738 51.9265 76.1546 51.7397 76.6787L50.5639 79.7754H53.7973ZM61.1335 84.1367C60.0489 84.1367 59.2081 83.804 58.6111 83.1387C58.0186 82.4688 57.7224 81.5231 57.7224 80.3018C57.7224 79.0485 58.0232 78.0801 58.6247 77.3965C59.2309 76.7129 60.0922 76.3711 61.2087 76.3711C61.5687 76.3711 61.9288 76.4098 62.2888 76.4873C62.6488 76.5648 62.9314 76.6559 63.1365 76.7607L62.7878 77.7246C62.5372 77.6243 62.2637 77.5423 61.9675 77.4785C61.6713 77.4102 61.4092 77.376 61.1814 77.376C59.6592 77.376 58.8982 78.3467 58.8982 80.2881C58.8982 81.2087 59.0827 81.915 59.4519 82.4072C59.8256 82.8994 60.377 83.1455 61.1062 83.1455C61.7305 83.1455 62.3708 83.0111 63.0271 82.7422V83.7471C62.5258 84.0068 61.8946 84.1367 61.1335 84.1367ZM68.5586 76.3711C68.8913 76.3711 69.1898 76.3984 69.4541 76.4531L69.2969 77.5059C68.987 77.4375 68.7136 77.4033 68.4766 77.4033C67.8705 77.4033 67.351 77.6494 66.918 78.1416C66.4896 78.6338 66.2754 79.2467 66.2754 79.9805V84H65.1407V76.5078H66.0772L66.2071 77.8955H66.2618C66.5398 77.4079 66.8747 77.0319 67.2666 76.7676C67.6586 76.5033 68.0892 76.3711 68.5586 76.3711ZM77.6517 80.2471C77.6517 81.4684 77.3441 82.4232 76.7289 83.1113C76.1136 83.7949 75.2637 84.1367 74.1791 84.1367C73.5091 84.1367 72.9144 83.9795 72.3949 83.665C71.8754 83.3506 71.4743 82.8994 71.1918 82.3115C70.9092 81.7236 70.7679 81.0355 70.7679 80.2471C70.7679 79.0257 71.0733 78.0755 71.6839 77.3965C72.2946 76.7129 73.1423 76.3711 74.2269 76.3711C75.2751 76.3711 76.1068 76.7197 76.722 77.417C77.3418 78.1143 77.6517 79.0576 77.6517 80.2471ZM71.9437 80.2471C71.9437 81.2041 72.1351 81.9333 72.5179 82.4346C72.9007 82.9359 73.4636 83.1865 74.2064 83.1865C74.9492 83.1865 75.5121 82.9382 75.8949 82.4414C76.2823 81.9401 76.4759 81.2087 76.4759 80.2471C76.4759 79.2946 76.2823 78.5723 75.8949 78.0801C75.5121 77.5833 74.9447 77.335 74.1927 77.335C73.4499 77.335 72.8894 77.5788 72.5111 78.0664C72.1328 78.554 71.9437 79.2809 71.9437 80.2471ZM85.1042 84V79.1533C85.1042 78.5426 84.9652 78.0869 84.6872 77.7861C84.4092 77.4854 83.974 77.335 83.3815 77.335C82.5977 77.335 82.0235 77.5469 81.6589 77.9707C81.2943 78.3945 81.112 79.0941 81.112 80.0693V84H79.9772V76.5078H80.9001L81.0846 77.5332H81.1393C81.3718 77.1641 81.6976 76.8792 82.1169 76.6787C82.5361 76.4736 83.0033 76.3711 83.5182 76.3711C84.4206 76.3711 85.0996 76.5898 85.5554 77.0273C86.0111 77.4603 86.2389 78.1553 86.2389 79.1123V84H85.1042ZM90.041 84H88.9062V76.5078H90.041V84ZM88.8105 74.4775C88.8105 74.2178 88.8743 74.0286 89.002 73.9102C89.1296 73.7871 89.2891 73.7256 89.4805 73.7256C89.6628 73.7256 89.82 73.7871 89.9521 73.9102C90.0843 74.0332 90.1504 74.2223 90.1504 74.4775C90.1504 74.7327 90.0843 74.9242 89.9521 75.0518C89.82 75.1748 89.6628 75.2363 89.4805 75.2363C89.2891 75.2363 89.1296 75.1748 89.002 75.0518C88.8743 74.9242 88.8105 74.7327 88.8105 74.4775ZM97.6097 81.9561C97.6097 82.6533 97.3499 83.1911 96.8304 83.5693C96.3109 83.9476 95.5817 84.1367 94.6429 84.1367C93.6494 84.1367 92.8747 83.9795 92.3187 83.665V82.6123C92.6787 82.7946 93.0638 82.9382 93.4739 83.043C93.8887 83.1478 94.2874 83.2002 94.6702 83.2002C95.2627 83.2002 95.7184 83.1068 96.0374 82.9199C96.3564 82.7285 96.5159 82.4391 96.5159 82.0518C96.5159 81.7601 96.3883 81.5117 96.1331 81.3066C95.8825 81.097 95.3903 80.8509 94.6566 80.5684C93.9593 80.3086 93.4625 80.083 93.1663 79.8916C92.8747 79.6956 92.6559 79.4746 92.5101 79.2285C92.3688 78.9824 92.2982 78.6885 92.2982 78.3467C92.2982 77.736 92.5465 77.2552 93.0433 76.9043C93.54 76.5488 94.2213 76.3711 95.0872 76.3711C95.8939 76.3711 96.6823 76.5352 97.4525 76.8633L97.0491 77.7861C96.2972 77.4762 95.6159 77.3213 95.0052 77.3213C94.4674 77.3213 94.0618 77.4056 93.7884 77.5742C93.515 77.7428 93.3782 77.9753 93.3782 78.2715C93.3782 78.472 93.4284 78.6429 93.5286 78.7842C93.6334 78.9255 93.7998 79.0599 94.0276 79.1875C94.2555 79.3151 94.693 79.4997 95.3401 79.7412C96.2288 80.0648 96.8281 80.3906 97.138 80.7188C97.4525 81.0469 97.6097 81.4593 97.6097 81.9561ZM107.005 84H105.843V75.0381H102.678V74.0059H110.17V75.0381H107.005V84ZM115.257 76.3711C115.59 76.3711 115.888 76.3984 116.153 76.4531L115.995 77.5059C115.685 77.4375 115.412 77.4033 115.175 77.4033C114.569 77.4033 114.049 77.6494 113.616 78.1416C113.188 78.6338 112.974 79.2467 112.974 79.9805V84H111.839V76.5078H112.776L112.906 77.8955H112.96C113.238 77.4079 113.573 77.0319 113.965 76.7676C114.357 76.5033 114.788 76.3711 115.257 76.3711ZM122.491 84L122.265 82.9336H122.211C121.837 83.403 121.463 83.722 121.089 83.8906C120.72 84.0547 120.258 84.1367 119.702 84.1367C118.959 84.1367 118.376 83.9453 117.952 83.5625C117.532 83.1797 117.323 82.6351 117.323 81.9287C117.323 80.4157 118.533 79.6227 120.953 79.5498L122.224 79.5088V79.0439C122.224 78.4561 122.097 78.0231 121.841 77.7451C121.591 77.4626 121.187 77.3213 120.631 77.3213C120.007 77.3213 119.301 77.5127 118.512 77.8955L118.164 77.0273C118.533 76.8268 118.936 76.6696 119.374 76.5557C119.816 76.4417 120.258 76.3848 120.7 76.3848C121.593 76.3848 122.254 76.583 122.682 76.9795C123.115 77.376 123.332 78.0117 123.332 78.8867V84H122.491ZM119.927 83.2002C120.634 83.2002 121.187 83.0065 121.588 82.6191C121.994 82.2318 122.197 81.6895 122.197 80.9922V80.3154L121.062 80.3633C120.16 80.3952 119.508 80.5365 119.107 80.7871C118.711 81.0332 118.512 81.4183 118.512 81.9424C118.512 82.3525 118.635 82.6647 118.881 82.8789C119.132 83.0931 119.481 83.2002 119.927 83.2002ZM127.141 84H126.006V76.5078H127.141V84ZM125.91 74.4775C125.91 74.2178 125.974 74.0286 126.101 73.9102C126.229 73.7871 126.389 73.7256 126.58 73.7256C126.762 73.7256 126.92 73.7871 127.052 73.9102C127.184 74.0332 127.25 74.2223 127.25 74.4775C127.25 74.7327 127.184 74.9242 127.052 75.0518C126.92 75.1748 126.762 75.2363 126.58 75.2363C126.389 75.2363 126.229 75.1748 126.101 75.0518C125.974 74.9242 125.91 74.7327 125.91 74.4775ZM135.003 84V79.1533C135.003 78.5426 134.864 78.0869 134.586 77.7861C134.308 77.4854 133.873 77.335 133.28 77.335C132.497 77.335 131.922 77.5469 131.558 77.9707C131.193 78.3945 131.011 79.0941 131.011 80.0693V84H129.876V76.5078H130.799L130.984 77.5332H131.038C131.271 77.1641 131.597 76.8792 132.016 76.6787C132.435 76.4736 132.902 76.3711 133.417 76.3711C134.32 76.3711 134.999 76.5898 135.454 77.0273C135.91 77.4603 136.138 78.1553 136.138 79.1123V84H135.003ZM141.97 84.1367C140.863 84.1367 139.988 83.7995 139.345 83.125C138.707 82.4505 138.388 81.514 138.388 80.3154C138.388 79.1077 138.684 78.1484 139.277 77.4375C139.874 76.7266 140.674 76.3711 141.676 76.3711C142.615 76.3711 143.358 76.681 143.905 77.3008C144.452 77.916 144.725 78.7295 144.725 79.7412V80.459H139.564C139.587 81.3385 139.808 82.0062 140.227 82.4619C140.651 82.9176 141.246 83.1455 142.011 83.1455C142.818 83.1455 143.615 82.9769 144.404 82.6396V83.6514C144.003 83.8245 143.622 83.9476 143.262 84.0205C142.907 84.098 142.476 84.1367 141.97 84.1367ZM141.663 77.3213C141.061 77.3213 140.58 77.5173 140.22 77.9092C139.865 78.3011 139.655 78.8434 139.591 79.5361H143.508C143.508 78.8206 143.349 78.2738 143.03 77.8955C142.711 77.5127 142.255 77.3213 141.663 77.3213ZM150.414 76.3711C150.747 76.3711 151.045 76.3984 151.309 76.4531L151.152 77.5059C150.842 77.4375 150.569 77.4033 150.332 77.4033C149.726 77.4033 149.206 77.6494 148.773 78.1416C148.345 78.6338 148.131 79.2467 148.131 79.9805V84H146.996V76.5078H147.932L148.062 77.8955H148.117C148.395 77.4079 148.73 77.0319 149.122 76.7676C149.514 76.5033 149.945 76.3711 150.414 76.3711ZM157.873 81.9561C157.873 82.6533 157.613 83.1911 157.094 83.5693C156.574 83.9476 155.845 84.1367 154.906 84.1367C153.913 84.1367 153.138 83.9795 152.582 83.665V82.6123C152.942 82.7946 153.327 82.9382 153.737 83.043C154.152 83.1478 154.551 83.2002 154.934 83.2002C155.526 83.2002 155.982 83.1068 156.301 82.9199C156.62 82.7285 156.779 82.4391 156.779 82.0518C156.779 81.7601 156.652 81.5117 156.397 81.3066C156.146 81.097 155.654 80.8509 154.92 80.5684C154.223 80.3086 153.726 80.083 153.43 79.8916C153.138 79.6956 152.919 79.4746 152.774 79.2285C152.632 78.9824 152.562 78.6885 152.562 78.3467C152.562 77.736 152.81 77.2552 153.307 76.9043C153.804 76.5488 154.485 76.3711 155.351 76.3711C156.157 76.3711 156.946 76.5352 157.716 76.8633L157.313 77.7861C156.561 77.4762 155.879 77.3213 155.269 77.3213C154.731 77.3213 154.325 77.4056 154.052 77.5742C153.779 77.7428 153.642 77.9753 153.642 78.2715C153.642 78.472 153.692 78.6429 153.792 78.7842C153.897 78.9255 154.063 79.0599 154.291 79.1875C154.519 79.3151 154.957 79.4997 155.604 79.7412C156.492 80.0648 157.092 80.3906 157.402 80.7188C157.716 81.0469 157.873 81.4593 157.873 81.9561Z" fill="#1051F4"/>
</g>
<g id="&#231;&#188;&#150;&#231;&#187;&#132; 19">
<path id="10" d="M603.143 30H597.661V19.418C597.661 18.1328 597.688 16.957 597.743 15.8906C597.406 16.3008 596.986 16.7292 596.485 17.1758L594.216 19.0488L591.413 15.6035L598.276 10.0117H603.143V30ZM622.751 20.0332C622.751 23.5697 622.159 26.1628 620.974 27.8125C619.789 29.4531 617.975 30.2734 615.533 30.2734C613.145 30.2734 611.344 29.4167 610.132 27.7031C608.92 25.9805 608.314 23.4238 608.314 20.0332C608.314 16.4785 608.906 13.8717 610.091 12.2129C611.276 10.554 613.09 9.72461 615.533 9.72461C617.911 9.72461 619.707 10.5905 620.919 12.3223C622.141 14.0449 622.751 16.6152 622.751 20.0332ZM613.687 20.0332C613.687 22.2936 613.828 23.8477 614.111 24.6953C614.393 25.543 614.867 25.9668 615.533 25.9668C616.207 25.9668 616.681 25.5293 616.954 24.6543C617.237 23.7793 617.378 22.2389 617.378 20.0332C617.378 17.8184 617.237 16.2689 616.954 15.3848C616.672 14.4915 616.198 14.0449 615.533 14.0449C614.867 14.0449 614.393 14.4733 614.111 15.3301C613.828 16.1868 613.687 17.7546 613.687 20.0332Z" fill="#1051F4"/>
<path id="Contextual Inquires_2" d="M528.63 50.3018C527.218 50.3018 526.101 50.7734 525.281 51.7168C524.467 52.6543 524.059 53.9404 524.059 55.5752C524.059 57.2568 524.452 58.5576 525.237 59.4775C526.028 60.3916 527.153 60.8486 528.612 60.8486C529.509 60.8486 530.531 60.6875 531.679 60.3652V61.6748C530.789 62.0088 529.69 62.1758 528.384 62.1758C526.491 62.1758 525.029 61.6016 523.998 60.4531C522.972 59.3047 522.46 57.6729 522.46 55.5576C522.46 54.2334 522.706 53.0732 523.198 52.0771C523.696 51.0811 524.411 50.3135 525.343 49.7744C526.28 49.2354 527.382 48.9658 528.647 48.9658C529.995 48.9658 531.173 49.2119 532.18 49.7041L531.548 50.9873C530.575 50.5303 529.602 50.3018 528.63 50.3018ZM543.001 57.1748C543.001 58.7451 542.606 59.9727 541.815 60.8574C541.024 61.7363 539.931 62.1758 538.537 62.1758C537.675 62.1758 536.911 61.9736 536.243 61.5693C535.575 61.165 535.059 60.585 534.696 59.8291C534.332 59.0732 534.151 58.1885 534.151 57.1748C534.151 55.6045 534.543 54.3828 535.329 53.5098C536.114 52.6309 537.204 52.1914 538.598 52.1914C539.946 52.1914 541.015 52.6396 541.806 53.5361C542.603 54.4326 543.001 55.6455 543.001 57.1748ZM535.663 57.1748C535.663 58.4053 535.909 59.3428 536.401 59.9873C536.893 60.6318 537.617 60.9541 538.572 60.9541C539.527 60.9541 540.25 60.6348 540.743 59.9961C541.241 59.3516 541.49 58.4111 541.49 57.1748C541.49 55.9502 541.241 55.0215 540.743 54.3887C540.25 53.75 539.521 53.4307 538.554 53.4307C537.599 53.4307 536.878 53.7441 536.392 54.3711C535.906 54.998 535.663 55.9326 535.663 57.1748ZM552.583 62V55.7686C552.583 54.9834 552.404 54.3975 552.047 54.0107C551.69 53.624 551.13 53.4307 550.368 53.4307C549.36 53.4307 548.622 53.7031 548.153 54.248C547.685 54.793 547.45 55.6924 547.45 56.9463V62H545.991V52.3672H547.178L547.415 53.6855H547.485C547.784 53.2109 548.203 52.8447 548.742 52.5869C549.281 52.3232 549.882 52.1914 550.544 52.1914C551.704 52.1914 552.577 52.4727 553.163 53.0352C553.749 53.5918 554.042 54.4854 554.042 55.7158V62H552.583ZM560.583 60.9717C560.841 60.9717 561.09 60.9541 561.33 60.9189C561.57 60.8779 561.761 60.8369 561.901 60.7959V61.9121C561.743 61.9883 561.509 62.0498 561.198 62.0967C560.893 62.1494 560.618 62.1758 560.372 62.1758C558.509 62.1758 557.577 61.1943 557.577 59.2314V53.501H556.197V52.7979L557.577 52.1914L558.192 50.1348H559.036V52.3672H561.831V53.501H559.036V59.1699C559.036 59.75 559.174 60.1953 559.449 60.5059C559.724 60.8164 560.102 60.9717 560.583 60.9717ZM568.328 62.1758C566.904 62.1758 565.779 61.7422 564.953 60.875C564.132 60.0078 563.722 58.8037 563.722 57.2627C563.722 55.71 564.103 54.4766 564.865 53.5625C565.632 52.6484 566.661 52.1914 567.95 52.1914C569.157 52.1914 570.112 52.5898 570.815 53.3867C571.518 54.1777 571.87 55.2236 571.87 56.5244V57.4473H565.234C565.263 58.5781 565.547 59.4365 566.086 60.0225C566.631 60.6084 567.396 60.9014 568.38 60.9014C569.418 60.9014 570.443 60.6846 571.457 60.251V61.5518C570.941 61.7744 570.452 61.9326 569.989 62.0264C569.532 62.126 568.978 62.1758 568.328 62.1758ZM567.932 53.4131C567.159 53.4131 566.541 53.665 566.078 54.1689C565.621 54.6729 565.351 55.3701 565.269 56.2607H570.305C570.305 55.3408 570.1 54.6377 569.69 54.1514C569.28 53.6592 568.694 53.4131 567.932 53.4131ZM577.11 57.0693L573.761 52.3672H575.422L577.962 56.0586L580.493 52.3672H582.137L578.788 57.0693L582.313 62H580.66L577.962 58.0977L575.238 62H573.585L577.11 57.0693ZM587.764 60.9717C588.021 60.9717 588.27 60.9541 588.511 60.9189C588.751 60.8779 588.941 60.8369 589.082 60.7959V61.9121C588.924 61.9883 588.689 62.0498 588.379 62.0967C588.074 62.1494 587.799 62.1758 587.553 62.1758C585.689 62.1758 584.758 61.1943 584.758 59.2314V53.501H583.378V52.7979L584.758 52.1914L585.373 50.1348H586.217V52.3672H589.012V53.501H586.217V59.1699C586.217 59.75 586.354 60.1953 586.63 60.5059C586.905 60.8164 587.283 60.9717 587.764 60.9717ZM592.81 52.3672V58.6162C592.81 59.4014 592.989 59.9873 593.346 60.374C593.704 60.7607 594.263 60.9541 595.025 60.9541C596.033 60.9541 596.768 60.6787 597.231 60.1279C597.7 59.5771 597.934 58.6777 597.934 57.4297V52.3672H599.393V62H598.189L597.978 60.708H597.899C597.6 61.1826 597.184 61.5459 596.651 61.7979C596.124 62.0498 595.52 62.1758 594.84 62.1758C593.669 62.1758 592.79 61.8975 592.204 61.3408C591.624 60.7842 591.334 59.8936 591.334 58.6689V52.3672H592.81ZM608.843 62L608.553 60.6289H608.483C608.002 61.2324 607.522 61.6426 607.041 61.8594C606.567 62.0703 605.972 62.1758 605.257 62.1758C604.302 62.1758 603.552 61.9297 603.007 61.4375C602.468 60.9453 602.199 60.2451 602.199 59.3369C602.199 57.3916 603.754 56.3721 606.866 56.2783L608.5 56.2256V55.6279C608.5 54.8721 608.336 54.3154 608.008 53.958C607.686 53.5947 607.167 53.4131 606.452 53.4131C605.65 53.4131 604.742 53.6592 603.728 54.1514L603.28 53.0352C603.754 52.7773 604.273 52.5752 604.835 52.4287C605.404 52.2822 605.972 52.209 606.54 52.209C607.689 52.209 608.538 52.4639 609.089 52.9736C609.646 53.4834 609.924 54.3008 609.924 55.4258V62H608.843ZM605.547 60.9717C606.455 60.9717 607.167 60.7227 607.683 60.2246C608.204 59.7266 608.465 59.0293 608.465 58.1328V57.2627L607.006 57.3242C605.846 57.3652 605.008 57.5469 604.492 57.8691C603.983 58.1855 603.728 58.6807 603.728 59.3545C603.728 59.8818 603.886 60.2832 604.202 60.5586C604.525 60.834 604.973 60.9717 605.547 60.9717ZM614.821 62H613.362V48.3242H614.821V62ZM623.658 62V49.1504H625.152V62H623.658ZM635.481 62V55.7686C635.481 54.9834 635.302 54.3975 634.944 54.0107C634.587 53.624 634.027 53.4307 633.266 53.4307C632.258 53.4307 631.52 53.7031 631.051 54.248C630.582 54.793 630.348 55.6924 630.348 56.9463V62H628.889V52.3672H630.075L630.313 53.6855H630.383C630.682 53.2109 631.101 52.8447 631.64 52.5869C632.179 52.3232 632.779 52.1914 633.441 52.1914C634.602 52.1914 635.475 52.4727 636.061 53.0352C636.647 53.5918 636.94 54.4854 636.94 55.7158V62H635.481ZM644.008 60.9541C644.98 60.9541 645.689 60.6934 646.135 60.1719C646.58 59.6504 646.817 58.7715 646.846 57.5352V57.21C646.846 55.8623 646.618 54.8926 646.161 54.3008C645.704 53.709 644.98 53.4131 643.99 53.4131C643.135 53.4131 642.478 53.7471 642.021 54.415C641.57 55.0771 641.345 56.0146 641.345 57.2275C641.345 58.4404 641.567 59.3662 642.012 60.0049C642.464 60.6377 643.129 60.9541 644.008 60.9541ZM643.788 62.1758C642.546 62.1758 641.576 61.7393 640.879 60.8662C640.181 59.9932 639.833 58.7744 639.833 57.21C639.833 55.6338 640.184 54.4033 640.887 53.5186C641.591 52.6338 642.569 52.1914 643.823 52.1914C645.141 52.1914 646.155 52.6895 646.864 53.6855H646.943L647.154 52.3672H648.305V66.3242H646.846V62.2021C646.846 61.6162 646.879 61.1182 646.943 60.708H646.829C646.155 61.6865 645.141 62.1758 643.788 62.1758ZM653.203 52.3672V58.6162C653.203 59.4014 653.381 59.9873 653.739 60.374C654.096 60.7607 654.656 60.9541 655.417 60.9541C656.425 60.9541 657.161 60.6787 657.624 60.1279C658.092 59.5771 658.327 58.6777 658.327 57.4297V52.3672H659.786V62H658.582L658.371 60.708H658.291C657.993 61.1826 657.577 61.5459 657.043 61.7979C656.516 62.0498 655.913 62.1758 655.233 62.1758C654.061 62.1758 653.182 61.8975 652.596 61.3408C652.016 60.7842 651.726 59.8936 651.726 58.6689V52.3672H653.203ZM664.771 62H663.312V52.3672H664.771V62ZM663.189 49.7568C663.189 49.4229 663.271 49.1797 663.435 49.0273C663.599 48.8691 663.804 48.79 664.05 48.79C664.284 48.79 664.486 48.8691 664.656 49.0273C664.826 49.1855 664.911 49.4287 664.911 49.7568C664.911 50.085 664.826 50.3311 664.656 50.4951C664.486 50.6533 664.284 50.7324 664.05 50.7324C663.804 50.7324 663.599 50.6533 663.435 50.4951C663.271 50.3311 663.189 50.085 663.189 49.7568ZM672.682 52.1914C673.11 52.1914 673.494 52.2266 673.834 52.2969L673.632 53.6504C673.233 53.5625 672.882 53.5186 672.577 53.5186C671.798 53.5186 671.13 53.835 670.573 54.4678C670.022 55.1006 669.747 55.8887 669.747 56.832V62H668.288V52.3672H669.492L669.659 54.1514H669.729C670.087 53.5244 670.517 53.041 671.021 52.7012C671.525 52.3613 672.079 52.1914 672.682 52.1914ZM680.128 62.1758C678.705 62.1758 677.58 61.7422 676.753 60.875C675.933 60.0078 675.523 58.8037 675.523 57.2627C675.523 55.71 675.904 54.4766 676.666 53.5625C677.433 52.6484 678.461 52.1914 679.751 52.1914C680.958 52.1914 681.913 52.5898 682.616 53.3867C683.319 54.1777 683.67 55.2236 683.67 56.5244V57.4473H677.035C677.064 58.5781 677.348 59.4365 677.887 60.0225C678.432 60.6084 679.197 60.9014 680.181 60.9014C681.218 60.9014 682.244 60.6846 683.257 60.251V61.5518C682.742 61.7744 682.252 61.9326 681.79 62.0264C681.333 62.126 680.779 62.1758 680.128 62.1758ZM679.733 53.4131C678.96 53.4131 678.341 53.665 677.878 54.1689C677.421 54.6729 677.152 55.3701 677.07 56.2607H682.106C682.106 55.3408 681.901 54.6377 681.491 54.1514C681.081 53.6592 680.495 53.4131 679.733 53.4131ZM692.804 59.3721C692.804 60.2686 692.47 60.96 691.802 61.4463C691.134 61.9326 690.197 62.1758 688.99 62.1758C687.712 62.1758 686.716 61.9736 686.001 61.5693V60.2158C686.464 60.4502 686.959 60.6348 687.487 60.7695C688.02 60.9043 688.532 60.9717 689.025 60.9717C689.786 60.9717 690.372 60.8516 690.782 60.6113C691.193 60.3652 691.398 59.9932 691.398 59.4951C691.398 59.1201 691.234 58.8008 690.906 58.5371C690.583 58.2676 689.95 57.9512 689.007 57.5879C688.111 57.2539 687.472 56.9639 687.091 56.7178C686.716 56.4658 686.435 56.1816 686.247 55.8652C686.066 55.5488 685.975 55.1709 685.975 54.7314C685.975 53.9463 686.294 53.3281 686.933 52.877C687.572 52.4199 688.448 52.1914 689.561 52.1914C690.598 52.1914 691.612 52.4023 692.602 52.8242L692.083 54.0107C691.116 53.6123 690.24 53.4131 689.455 53.4131C688.764 53.4131 688.242 53.5215 687.891 53.7383C687.539 53.9551 687.364 54.2539 687.364 54.6348C687.364 54.8926 687.428 55.1123 687.557 55.2939C687.692 55.4756 687.906 55.6484 688.198 55.8125C688.491 55.9766 689.054 56.2139 689.886 56.5244C691.029 56.9404 691.799 57.3594 692.198 57.7812C692.602 58.2031 692.804 58.7334 692.804 59.3721Z" fill="#404040"/>
<path id="with Industrial Trai" d="M500.292 82L498.918 77.6045C498.831 77.3356 498.669 76.7249 498.432 75.7725H498.378C498.195 76.57 498.036 77.1852 497.899 77.6182L496.484 82H495.171L493.128 74.5078H494.317C494.8 76.39 495.167 77.8232 495.418 78.8076C495.673 79.792 495.819 80.4551 495.855 80.7969H495.91C495.96 80.5371 496.04 80.2021 496.149 79.792C496.263 79.3773 496.361 79.0492 496.443 78.8076L497.817 74.5078H499.047L500.387 78.8076C500.643 79.5915 500.816 80.25 500.907 80.7832H500.962C500.98 80.6191 501.028 80.3662 501.105 80.0244C501.187 79.6826 501.663 77.8438 502.534 74.5078H503.71L501.638 82H500.292ZM506.534 82H505.399V74.5078H506.534V82ZM505.304 72.4775C505.304 72.2178 505.367 72.0286 505.495 71.9102C505.623 71.7871 505.782 71.7256 505.974 71.7256C506.156 71.7256 506.313 71.7871 506.445 71.9102C506.577 72.0332 506.643 72.2223 506.643 72.4775C506.643 72.7327 506.577 72.9242 506.445 73.0518C506.313 73.1748 506.156 73.2363 505.974 73.2363C505.782 73.2363 505.623 73.1748 505.495 73.0518C505.367 72.9242 505.304 72.7327 505.304 72.4775ZM511.69 81.2002C511.89 81.2002 512.084 81.1865 512.271 81.1592C512.458 81.1273 512.606 81.0954 512.715 81.0635V81.9316C512.592 81.9909 512.41 82.0387 512.168 82.0752C511.931 82.1162 511.717 82.1367 511.526 82.1367C510.076 82.1367 509.352 81.3734 509.352 79.8467V75.3896H508.279V74.8428L509.352 74.3711L509.83 72.7715H510.487V74.5078H512.66V75.3896H510.487V79.7988C510.487 80.25 510.594 80.5964 510.808 80.8379C511.022 81.0794 511.316 81.2002 511.69 81.2002ZM519.675 82V77.1533C519.675 76.5426 519.536 76.0869 519.258 75.7861C518.98 75.4854 518.545 75.335 517.953 75.335C517.164 75.335 516.588 75.5492 516.223 75.9775C515.863 76.4059 515.683 77.1077 515.683 78.083V82H514.548V71.3633H515.683V74.583C515.683 74.9704 515.665 75.2917 515.628 75.5469H515.697C515.92 75.1868 516.237 74.9043 516.647 74.6992C517.062 74.4896 517.533 74.3848 518.062 74.3848C518.978 74.3848 519.664 74.6035 520.12 75.041C520.58 75.474 520.81 76.1644 520.81 77.1123V82H519.675ZM527.614 82V72.0059H528.777V82H527.614ZM536.81 82V77.1533C536.81 76.5426 536.671 76.0869 536.393 75.7861C536.115 75.4854 535.68 75.335 535.087 75.335C534.304 75.335 533.729 75.5469 533.365 75.9707C533 76.3945 532.818 77.0941 532.818 78.0693V82H531.683V74.5078H532.606L532.791 75.5332H532.845C533.078 75.1641 533.403 74.8792 533.823 74.6787C534.242 74.4736 534.709 74.3711 535.224 74.3711C536.126 74.3711 536.806 74.5898 537.261 75.0273C537.717 75.4603 537.945 76.1553 537.945 77.1123V82H536.81ZM545.712 80.9951H545.65C545.126 81.7562 544.342 82.1367 543.299 82.1367C542.319 82.1367 541.555 81.8018 541.009 81.1318C540.466 80.4619 540.195 79.5094 540.195 78.2744C540.195 77.0394 540.469 76.0801 541.015 75.3965C541.562 74.7129 542.323 74.3711 543.299 74.3711C544.315 74.3711 545.094 74.7402 545.637 75.4785H545.725L545.678 74.9385L545.65 74.4121V71.3633H546.785V82H545.862L545.712 80.9951ZM543.442 81.1865C544.217 81.1865 544.777 80.9769 545.124 80.5576C545.475 80.1338 545.65 79.4525 545.65 78.5137V78.2744C545.65 77.2126 545.472 76.4561 545.117 76.0049C544.766 75.5492 544.203 75.3213 543.429 75.3213C542.763 75.3213 542.253 75.5811 541.897 76.1006C541.546 76.6156 541.371 77.3447 541.371 78.2881C541.371 79.2451 541.546 79.9674 541.897 80.4551C542.248 80.9427 542.763 81.1865 543.442 81.1865ZM550.594 74.5078V79.3682C550.594 79.9788 550.733 80.4346 551.011 80.7354C551.289 81.0361 551.724 81.1865 552.317 81.1865C553.1 81.1865 553.672 80.9723 554.032 80.5439C554.397 80.1156 554.579 79.416 554.579 78.4453V74.5078H555.714V82H554.777L554.613 80.9951H554.552C554.319 81.3643 553.996 81.6468 553.581 81.8428C553.171 82.0387 552.702 82.1367 552.173 82.1367C551.262 82.1367 550.578 81.9202 550.122 81.4873C549.671 81.0544 549.445 80.3617 549.445 79.4092V74.5078H550.594ZM563.29 79.9561C563.29 80.6533 563.03 81.1911 562.51 81.5693C561.991 81.9476 561.262 82.1367 560.323 82.1367C559.329 82.1367 558.554 81.9795 557.998 81.665V80.6123C558.359 80.7946 558.744 80.9382 559.154 81.043C559.568 81.1478 559.967 81.2002 560.35 81.2002C560.943 81.2002 561.398 81.1068 561.717 80.9199C562.036 80.7285 562.196 80.4391 562.196 80.0518C562.196 79.7601 562.068 79.5117 561.813 79.3066C561.562 79.097 561.07 78.8509 560.336 78.5684C559.639 78.3086 559.142 78.083 558.846 77.8916C558.554 77.6956 558.336 77.4746 558.19 77.2285C558.049 76.9824 557.978 76.6885 557.978 76.3467C557.978 75.736 558.226 75.2552 558.723 74.9043C559.22 74.5488 559.901 74.3711 560.767 74.3711C561.574 74.3711 562.362 74.5352 563.132 74.8633L562.729 75.7861C561.977 75.4762 561.296 75.3213 560.685 75.3213C560.147 75.3213 559.742 75.4056 559.468 75.5742C559.195 75.7428 559.058 75.9753 559.058 76.2715C559.058 76.472 559.108 76.6429 559.208 76.7842C559.313 76.9255 559.48 77.0599 559.707 77.1875C559.935 77.3151 560.373 77.4997 561.02 77.7412C561.909 78.0648 562.508 78.3906 562.818 78.7188C563.132 79.0469 563.29 79.4593 563.29 79.9561ZM567.891 81.2002C568.092 81.2002 568.286 81.1865 568.472 81.1592C568.659 81.1273 568.807 81.0954 568.917 81.0635V81.9316C568.794 81.9909 568.611 82.0387 568.37 82.0752C568.133 82.1162 567.919 82.1367 567.727 82.1367C566.278 82.1367 565.553 81.3734 565.553 79.8467V75.3896H564.48V74.8428L565.553 74.3711L566.032 72.7715H566.688V74.5078H568.862V75.3896H566.688V79.7988C566.688 80.25 566.795 80.5964 567.01 80.8379C567.224 81.0794 567.518 81.2002 567.891 81.2002ZM574.168 74.3711C574.501 74.3711 574.799 74.3984 575.064 74.4531L574.906 75.5059C574.596 75.4375 574.323 75.4033 574.086 75.4033C573.48 75.4033 572.96 75.6494 572.527 76.1416C572.099 76.6338 571.885 77.2467 571.885 77.9805V82H570.75V74.5078H571.687L571.816 75.8955H571.871C572.149 75.4079 572.484 75.0319 572.876 74.7676C573.268 74.5033 573.699 74.3711 574.168 74.3711ZM577.929 82H576.794V74.5078H577.929V82ZM576.699 72.4775C576.699 72.2178 576.762 72.0286 576.89 71.9102C577.018 71.7871 577.177 71.7256 577.369 71.7256C577.551 71.7256 577.708 71.7871 577.84 71.9102C577.972 72.0332 578.038 72.2223 578.038 72.4775C578.038 72.7327 577.972 72.9242 577.84 73.0518C577.708 73.1748 577.551 73.2363 577.369 73.2363C577.177 73.2363 577.018 73.1748 576.89 73.0518C576.762 72.9242 576.699 72.7327 576.699 72.4775ZM585.272 82L585.047 80.9336H584.992C584.618 81.403 584.245 81.722 583.871 81.8906C583.502 82.0547 583.039 82.1367 582.483 82.1367C581.74 82.1367 581.157 81.9453 580.733 81.5625C580.314 81.1797 580.104 80.6351 580.104 79.9287C580.104 78.4157 581.314 77.6227 583.734 77.5498L585.006 77.5088V77.0439C585.006 76.4561 584.878 76.0231 584.623 75.7451C584.372 75.4626 583.969 75.3213 583.413 75.3213C582.788 75.3213 582.082 75.5127 581.294 75.8955L580.945 75.0273C581.314 74.8268 581.718 74.6696 582.155 74.5557C582.597 74.4417 583.039 74.3848 583.481 74.3848C584.374 74.3848 585.035 74.583 585.464 74.9795C585.897 75.376 586.113 76.0117 586.113 76.8867V82H585.272ZM582.709 81.2002C583.415 81.2002 583.969 81.0065 584.37 80.6191C584.775 80.2318 584.978 79.6895 584.978 78.9922V78.3154L583.843 78.3633C582.941 78.3952 582.289 78.5365 581.888 78.7871C581.492 79.0332 581.294 79.4183 581.294 79.9424C581.294 80.3525 581.417 80.6647 581.663 80.8789C581.913 81.0931 582.262 81.2002 582.709 81.2002ZM589.922 82H588.787V71.3633H589.922V82ZM599.871 82H598.709V73.0381H595.544V72.0059H603.036V73.0381H599.871V82ZM608.123 74.3711C608.456 74.3711 608.754 74.3984 609.019 74.4531L608.861 75.5059C608.551 75.4375 608.278 75.4033 608.041 75.4033C607.435 75.4033 606.915 75.6494 606.482 76.1416C606.054 76.6338 605.84 77.2467 605.84 77.9805V82H604.705V74.5078H605.642L605.771 75.8955H605.826C606.104 75.4079 606.439 75.0319 606.831 74.7676C607.223 74.5033 607.654 74.3711 608.123 74.3711ZM615.357 82L615.131 80.9336H615.076C614.703 81.403 614.329 81.722 613.955 81.8906C613.586 82.0547 613.124 82.1367 612.568 82.1367C611.825 82.1367 611.242 81.9453 610.818 81.5625C610.398 81.1797 610.189 80.6351 610.189 79.9287C610.189 78.4157 611.399 77.6227 613.819 77.5498L615.09 77.5088V77.0439C615.09 76.4561 614.963 76.0231 614.707 75.7451C614.457 75.4626 614.053 75.3213 613.497 75.3213C612.873 75.3213 612.167 75.5127 611.378 75.8955L611.03 75.0273C611.399 74.8268 611.802 74.6696 612.24 74.5557C612.682 74.4417 613.124 74.3848 613.566 74.3848C614.459 74.3848 615.12 74.583 615.548 74.9795C615.981 75.376 616.198 76.0117 616.198 76.8867V82H615.357ZM612.793 81.2002C613.5 81.2002 614.053 81.0065 614.454 80.6191C614.86 80.2318 615.063 79.6895 615.063 78.9922V78.3154L613.928 78.3633C613.026 78.3952 612.374 78.5365 611.973 78.7871C611.576 79.0332 611.378 79.4183 611.378 79.9424C611.378 80.3525 611.501 80.6647 611.747 80.8789C611.998 81.0931 612.347 81.2002 612.793 81.2002ZM620.006 82H618.872V74.5078H620.006V82ZM618.776 72.4775C618.776 72.2178 618.84 72.0286 618.967 71.9102C619.095 71.7871 619.255 71.7256 619.446 71.7256C619.628 71.7256 619.785 71.7871 619.918 71.9102C620.05 72.0332 620.116 72.2223 620.116 72.4775C620.116 72.7327 620.05 72.9242 619.918 73.0518C619.785 73.1748 619.628 73.2363 619.446 73.2363C619.255 73.2363 619.095 73.1748 618.967 73.0518C618.84 72.9242 618.776 72.7327 618.776 72.4775ZM627.869 82V77.1533C627.869 76.5426 627.73 76.0869 627.452 75.7861C627.174 75.4854 626.739 75.335 626.146 75.335C625.363 75.335 624.788 75.5469 624.424 75.9707C624.059 76.3945 623.877 77.0941 623.877 78.0693V82H622.742V74.5078H623.665L623.85 75.5332H623.904C624.137 75.1641 624.463 74.8792 624.882 74.6787C625.301 74.4736 625.768 74.3711 626.283 74.3711C627.186 74.3711 627.865 74.5898 628.32 75.0273C628.776 75.4603 629.004 76.1553 629.004 77.1123V82H627.869ZM632.806 82H631.671V74.5078H632.806V82ZM631.575 72.4775C631.575 72.2178 631.639 72.0286 631.767 71.9102C631.894 71.7871 632.054 71.7256 632.245 71.7256C632.428 71.7256 632.585 71.7871 632.717 71.9102C632.849 72.0332 632.915 72.2223 632.915 72.4775C632.915 72.7327 632.849 72.9242 632.717 73.0518C632.585 73.1748 632.428 73.2363 632.245 73.2363C632.054 73.2363 631.894 73.1748 631.767 73.0518C631.639 72.9242 631.575 72.7327 631.575 72.4775ZM640.669 82V77.1533C640.669 76.5426 640.53 76.0869 640.252 75.7861C639.974 75.4854 639.538 75.335 638.946 75.335C638.162 75.335 637.588 75.5469 637.223 75.9707C636.859 76.3945 636.676 77.0941 636.676 78.0693V82H635.542V74.5078H636.464L636.649 75.5332H636.704C636.936 75.1641 637.262 74.8792 637.681 74.6787C638.101 74.4736 638.568 74.3711 639.083 74.3711C639.985 74.3711 640.664 74.5898 641.12 75.0273C641.575 75.4603 641.803 76.1553 641.803 77.1123V82H640.669ZM650.602 74.5078V75.2256L649.215 75.3896C649.342 75.5492 649.456 75.7588 649.557 76.0186C649.657 76.2738 649.707 76.5632 649.707 76.8867C649.707 77.6204 649.456 78.2061 648.955 78.6436C648.454 79.0811 647.766 79.2998 646.891 79.2998C646.667 79.2998 646.458 79.2816 646.262 79.2451C645.779 79.5003 645.537 79.8216 645.537 80.209C645.537 80.4141 645.621 80.5667 645.79 80.667C645.959 80.7627 646.248 80.8105 646.658 80.8105H647.984C648.795 80.8105 649.418 80.9814 649.85 81.3232C650.288 81.665 650.507 82.1618 650.507 82.8135C650.507 83.6429 650.174 84.2741 649.509 84.707C648.843 85.1445 647.873 85.3633 646.597 85.3633C645.617 85.3633 644.86 85.181 644.327 84.8164C643.798 84.4518 643.534 83.9368 643.534 83.2715C643.534 82.8158 643.68 82.4215 643.972 82.0889C644.263 81.7562 644.673 81.5306 645.202 81.4121C645.011 81.3255 644.849 81.1911 644.717 81.0088C644.589 80.8265 644.525 80.6146 644.525 80.373C644.525 80.0996 644.598 79.8604 644.744 79.6553C644.89 79.4502 645.12 79.252 645.434 79.0605C645.047 78.901 644.73 78.6299 644.484 78.2471C644.243 77.8643 644.122 77.4268 644.122 76.9346C644.122 76.1143 644.368 75.4831 644.86 75.041C645.352 74.5944 646.05 74.3711 646.952 74.3711C647.344 74.3711 647.697 74.4167 648.012 74.5078H650.602ZM644.628 83.2578C644.628 83.6634 644.799 83.971 645.141 84.1807C645.482 84.3903 645.972 84.4951 646.61 84.4951C647.563 84.4951 648.267 84.3516 648.723 84.0645C649.183 83.7819 649.413 83.3968 649.413 82.9092C649.413 82.5036 649.288 82.221 649.037 82.0615C648.786 81.9066 648.315 81.8291 647.622 81.8291H646.262C645.747 81.8291 645.346 81.9521 645.059 82.1982C644.771 82.4443 644.628 82.7975 644.628 83.2578ZM645.243 76.9072C645.243 77.4313 645.391 77.8278 645.687 78.0967C645.984 78.3656 646.396 78.5 646.925 78.5C648.032 78.5 648.586 77.9622 648.586 76.8867C648.586 75.7611 648.025 75.1982 646.904 75.1982C646.371 75.1982 645.961 75.3418 645.674 75.6289C645.387 75.916 645.243 76.3421 645.243 76.9072ZM664.585 76.9072C664.585 78.557 664.136 79.8193 663.238 80.6943C662.345 81.5648 661.057 82 659.376 82H656.607V72.0059H659.669C661.224 72.0059 662.431 72.4365 663.293 73.2979C664.154 74.1592 664.585 75.3623 664.585 76.9072ZM663.354 76.9482C663.354 75.6449 663.026 74.6628 662.37 74.002C661.718 73.3411 660.747 73.0107 659.458 73.0107H657.769V80.9951H659.184C660.57 80.9951 661.611 80.6556 662.308 79.9766C663.005 79.293 663.354 78.2835 663.354 76.9482ZM670.143 82.1367C669.036 82.1367 668.161 81.7995 667.518 81.125C666.88 80.4505 666.561 79.514 666.561 78.3154C666.561 77.1077 666.858 76.1484 667.45 75.4375C668.047 74.7266 668.847 74.3711 669.849 74.3711C670.788 74.3711 671.531 74.681 672.078 75.3008C672.625 75.916 672.898 76.7295 672.898 77.7412V78.459H667.737C667.76 79.3385 667.981 80.0062 668.4 80.4619C668.824 80.9176 669.419 81.1455 670.184 81.1455C670.991 81.1455 671.789 80.9769 672.577 80.6396V81.6514C672.176 81.8245 671.795 81.9476 671.435 82.0205C671.08 82.098 670.649 82.1367 670.143 82.1367ZM669.836 75.3213C669.234 75.3213 668.753 75.5173 668.393 75.9092C668.038 76.3011 667.828 76.8434 667.765 77.5361H671.682C671.682 76.8206 671.522 76.2738 671.203 75.8955C670.884 75.5127 670.428 75.3213 669.836 75.3213ZM680.002 79.9561C680.002 80.6533 679.742 81.1911 679.223 81.5693C678.703 81.9476 677.974 82.1367 677.035 82.1367C676.042 82.1367 675.267 81.9795 674.711 81.665V80.6123C675.071 80.7946 675.456 80.9382 675.866 81.043C676.281 81.1478 676.68 81.2002 677.063 81.2002C677.655 81.2002 678.111 81.1068 678.43 80.9199C678.749 80.7285 678.908 80.4391 678.908 80.0518C678.908 79.7601 678.781 79.5117 678.526 79.3066C678.275 79.097 677.783 78.8509 677.049 78.5684C676.352 78.3086 675.855 78.083 675.559 77.8916C675.267 77.6956 675.048 77.4746 674.903 77.2285C674.761 76.9824 674.691 76.6885 674.691 76.3467C674.691 75.736 674.939 75.2552 675.436 74.9043C675.932 74.5488 676.614 74.3711 677.48 74.3711C678.286 74.3711 679.075 74.5352 679.845 74.8633L679.442 75.7861C678.69 75.4762 678.008 75.3213 677.398 75.3213C676.86 75.3213 676.454 75.4056 676.181 75.5742C675.907 75.7428 675.771 75.9753 675.771 76.2715C675.771 76.472 675.821 76.6429 675.921 76.7842C676.026 76.9255 676.192 77.0599 676.42 77.1875C676.648 77.3151 677.085 77.4997 677.733 77.7412C678.621 78.0648 679.221 78.3906 679.53 78.7188C679.845 79.0469 680.002 79.4593 680.002 79.9561ZM683.319 82H682.184V74.5078H683.319V82ZM682.088 72.4775C682.088 72.2178 682.152 72.0286 682.28 71.9102C682.407 71.7871 682.567 71.7256 682.758 71.7256C682.941 71.7256 683.098 71.7871 683.23 71.9102C683.362 72.0332 683.428 72.2223 683.428 72.4775C683.428 72.7327 683.362 72.9242 683.23 73.0518C683.098 73.1748 682.941 73.2363 682.758 73.2363C682.567 73.2363 682.407 73.1748 682.28 73.0518C682.152 72.9242 682.088 72.7327 682.088 72.4775ZM692.186 74.5078V75.2256L690.799 75.3896C690.926 75.5492 691.04 75.7588 691.14 76.0186C691.241 76.2738 691.291 76.5632 691.291 76.8867C691.291 77.6204 691.04 78.2061 690.539 78.6436C690.038 79.0811 689.349 79.2998 688.474 79.2998C688.251 79.2998 688.041 79.2816 687.846 79.2451C687.362 79.5003 687.121 79.8216 687.121 80.209C687.121 80.4141 687.205 80.5667 687.374 80.667C687.542 80.7627 687.832 80.8105 688.242 80.8105H689.568C690.379 80.8105 691.001 80.9814 691.434 81.3232C691.872 81.665 692.091 82.1618 692.091 82.8135C692.091 83.6429 691.758 84.2741 691.093 84.707C690.427 85.1445 689.457 85.3633 688.18 85.3633C687.201 85.3633 686.444 85.181 685.911 84.8164C685.382 84.4518 685.118 83.9368 685.118 83.2715C685.118 82.8158 685.264 82.4215 685.555 82.0889C685.847 81.7562 686.257 81.5306 686.786 81.4121C686.595 81.3255 686.433 81.1911 686.301 81.0088C686.173 80.8265 686.109 80.6146 686.109 80.373C686.109 80.0996 686.182 79.8604 686.328 79.6553C686.474 79.4502 686.704 79.252 687.018 79.0605C686.631 78.901 686.314 78.6299 686.068 78.2471C685.827 77.8643 685.706 77.4268 685.706 76.9346C685.706 76.1143 685.952 75.4831 686.444 75.041C686.936 74.5944 687.634 74.3711 688.536 74.3711C688.928 74.3711 689.281 74.4167 689.596 74.5078H692.186ZM686.212 83.2578C686.212 83.6634 686.383 83.971 686.724 84.1807C687.066 84.3903 687.556 84.4951 688.194 84.4951C689.147 84.4951 689.851 84.3516 690.306 84.0645C690.767 83.7819 690.997 83.3968 690.997 82.9092C690.997 82.5036 690.872 82.221 690.621 82.0615C690.37 81.9066 689.899 81.8291 689.206 81.8291H687.846C687.331 81.8291 686.93 81.9521 686.642 82.1982C686.355 82.4443 686.212 82.7975 686.212 83.2578ZM686.827 76.9072C686.827 77.4313 686.975 77.8278 687.271 78.0967C687.568 78.3656 687.98 78.5 688.509 78.5C689.616 78.5 690.17 77.9622 690.17 76.8867C690.17 75.7611 689.609 75.1982 688.488 75.1982C687.955 75.1982 687.545 75.3418 687.258 75.6289C686.971 75.916 686.827 76.3421 686.827 76.9072ZM699.181 82V77.1533C699.181 76.5426 699.042 76.0869 698.764 75.7861C698.486 75.4854 698.051 75.335 697.458 75.335C696.674 75.335 696.1 75.5469 695.735 75.9707C695.371 76.3945 695.189 77.0941 695.189 78.0693V82H694.054V74.5078H694.977L695.161 75.5332H695.216C695.448 75.1641 695.774 74.8792 696.193 74.6787C696.613 74.4736 697.08 74.3711 697.595 74.3711C698.497 74.3711 699.176 74.5898 699.632 75.0273C700.088 75.4603 700.316 76.1553 700.316 77.1123V82H699.181ZM706.148 82.1367C705.04 82.1367 704.165 81.7995 703.523 81.125C702.885 80.4505 702.566 79.514 702.566 78.3154C702.566 77.1077 702.862 76.1484 703.455 75.4375C704.052 74.7266 704.851 74.3711 705.854 74.3711C706.793 74.3711 707.536 74.681 708.082 75.3008C708.629 75.916 708.903 76.7295 708.903 77.7412V78.459H703.742C703.764 79.3385 703.985 80.0062 704.405 80.4619C704.829 80.9176 705.423 81.1455 706.189 81.1455C706.996 81.1455 707.793 80.9769 708.581 80.6396V81.6514C708.18 81.8245 707.8 81.9476 707.44 82.0205C707.084 82.098 706.654 82.1367 706.148 82.1367ZM705.84 75.3213C705.239 75.3213 704.758 75.5173 704.398 75.9092C704.042 76.3011 703.833 76.8434 703.769 77.5361H707.686C707.686 76.8206 707.526 76.2738 707.207 75.8955C706.888 75.5127 706.433 75.3213 705.84 75.3213ZM714.592 74.3711C714.924 74.3711 715.223 74.3984 715.487 74.4531L715.33 75.5059C715.02 75.4375 714.747 75.4033 714.51 75.4033C713.903 75.4033 713.384 75.6494 712.951 76.1416C712.523 76.6338 712.308 77.2467 712.308 77.9805V82H711.174V74.5078H712.11L712.24 75.8955H712.295C712.573 75.4079 712.908 75.0319 713.3 74.7676C713.692 74.5033 714.122 74.3711 714.592 74.3711ZM722.051 79.9561C722.051 80.6533 721.791 81.1911 721.272 81.5693C720.752 81.9476 720.023 82.1367 719.084 82.1367C718.091 82.1367 717.316 81.9795 716.76 81.665V80.6123C717.12 80.7946 717.505 80.9382 717.915 81.043C718.33 81.1478 718.729 81.2002 719.111 81.2002C719.704 81.2002 720.16 81.1068 720.479 80.9199C720.798 80.7285 720.957 80.4391 720.957 80.0518C720.957 79.7601 720.83 79.5117 720.574 79.3066C720.324 79.097 719.831 78.8509 719.098 78.5684C718.4 78.3086 717.904 78.083 717.608 77.8916C717.316 77.6956 717.097 77.4746 716.951 77.2285C716.81 76.9824 716.739 76.6885 716.739 76.3467C716.739 75.736 716.988 75.2552 717.484 74.9043C717.981 74.5488 718.663 74.3711 719.528 74.3711C720.335 74.3711 721.123 74.5352 721.894 74.8633L721.49 75.7861C720.738 75.4762 720.057 75.3213 719.446 75.3213C718.909 75.3213 718.503 75.4056 718.23 75.5742C717.956 75.7428 717.819 75.9753 717.819 76.2715C717.819 76.472 717.87 76.6429 717.97 76.7842C718.075 76.9255 718.241 77.0599 718.469 77.1875C718.697 77.3151 719.134 77.4997 719.781 77.7412C720.67 78.0648 721.269 78.3906 721.579 78.7188C721.894 79.0469 722.051 79.4593 722.051 79.9561ZM527.396 91.9951C527.396 92.3096 527.478 92.6104 527.642 92.8975C527.806 93.18 528.087 93.5218 528.483 93.9229C529.071 93.5811 529.479 93.2666 529.707 92.9795C529.939 92.6878 530.056 92.3529 530.056 91.9746C530.056 91.6237 529.937 91.3389 529.7 91.1201C529.468 90.8968 529.155 90.7852 528.764 90.7852C528.358 90.7852 528.028 90.8945 527.772 91.1133C527.522 91.332 527.396 91.626 527.396 91.9951ZM528.456 99.1182C529.554 99.1182 530.466 98.7673 531.19 98.0654L528.203 95.167C527.697 95.4769 527.339 95.7344 527.13 95.9395C526.92 96.14 526.765 96.3564 526.665 96.5889C526.565 96.8213 526.514 97.0856 526.514 97.3818C526.514 97.915 526.69 98.3389 527.041 98.6533C527.396 98.9632 527.868 99.1182 528.456 99.1182ZM525.339 97.4092C525.339 96.8167 525.496 96.2926 525.81 95.8369C526.129 95.3812 526.699 94.9209 527.519 94.4561C527.132 94.0231 526.868 93.695 526.726 93.4717C526.59 93.2484 526.48 93.016 526.398 92.7744C526.316 92.5329 526.275 92.2822 526.275 92.0225C526.275 91.3389 526.499 90.8057 526.945 90.4229C527.392 90.04 528.014 89.8486 528.811 89.8486C529.55 89.8486 530.131 90.04 530.555 90.4229C530.978 90.8011 531.19 91.3298 531.19 92.0088C531.19 92.4964 531.035 92.9476 530.725 93.3623C530.416 93.7725 529.903 94.1895 529.187 94.6133L531.97 97.2861C532.225 97.0036 532.428 96.6732 532.578 96.2949C532.733 95.9121 532.863 95.4951 532.968 95.0439H534.116C533.806 96.3473 533.339 97.3363 532.715 98.0107L534.759 100H533.193L531.929 98.7832C531.391 99.2663 530.844 99.6126 530.288 99.8223C529.732 100.032 529.112 100.137 528.429 100.137C527.449 100.137 526.688 99.8952 526.145 99.4121C525.608 98.929 525.339 98.2614 525.339 97.4092ZM544.742 90.9014C543.643 90.9014 542.775 91.2682 542.137 92.002C541.504 92.7311 541.187 93.7314 541.187 95.0029C541.187 96.3109 541.492 97.3226 542.103 98.0381C542.718 98.749 543.593 99.1045 544.728 99.1045C545.425 99.1045 546.221 98.9792 547.114 98.7285V99.7471C546.421 100.007 545.567 100.137 544.55 100.137C543.078 100.137 541.941 99.6901 541.139 98.7969C540.342 97.9036 539.943 96.6344 539.943 94.9893C539.943 93.9593 540.134 93.057 540.517 92.2822C540.904 91.5075 541.46 90.9105 542.185 90.4912C542.914 90.0719 543.771 89.8623 544.755 89.8623C545.804 89.8623 546.72 90.0537 547.503 90.4365L547.011 91.4346C546.255 91.0791 545.498 90.9014 544.742 90.9014ZM548.263 92.5078H549.48L551.121 96.7803C551.481 97.7555 551.704 98.4596 551.791 98.8926H551.846C551.905 98.6602 552.028 98.2637 552.215 97.7031C552.406 97.138 553.026 95.4062 554.074 92.5078H555.291L552.071 101.039C551.752 101.882 551.378 102.479 550.95 102.83C550.526 103.186 550.004 103.363 549.385 103.363C549.038 103.363 548.696 103.325 548.359 103.247V102.338C548.61 102.393 548.89 102.42 549.2 102.42C549.979 102.42 550.535 101.982 550.868 101.107L551.285 100.041L548.263 92.5078ZM560.323 92.3848C561.308 92.3848 562.071 92.722 562.613 93.3965C563.16 94.0664 563.434 95.0166 563.434 96.2471C563.434 97.4775 563.158 98.4346 562.607 99.1182C562.06 99.7972 561.299 100.137 560.323 100.137C559.836 100.137 559.389 100.048 558.984 99.8701C558.582 99.6878 558.245 99.4098 557.972 99.0361H557.89L557.651 100H556.837V89.3633H557.972V91.9473C557.972 92.526 557.954 93.0456 557.917 93.5059H557.972C558.5 92.7585 559.284 92.3848 560.323 92.3848ZM560.159 93.335C559.385 93.335 558.826 93.5583 558.484 94.0049C558.143 94.4469 557.972 95.1943 557.972 96.2471C557.972 97.2998 558.147 98.054 558.498 98.5098C558.849 98.9609 559.412 99.1865 560.187 99.1865C560.884 99.1865 561.403 98.9336 561.745 98.4277C562.087 97.9173 562.258 97.1859 562.258 96.2334C562.258 95.2581 562.087 94.5312 561.745 94.0527C561.403 93.5742 560.875 93.335 560.159 93.335ZM568.917 100.137C567.81 100.137 566.935 99.7995 566.292 99.125C565.654 98.4505 565.335 97.514 565.335 96.3154C565.335 95.1077 565.632 94.1484 566.224 93.4375C566.821 92.7266 567.621 92.3711 568.623 92.3711C569.562 92.3711 570.305 92.681 570.852 93.3008C571.399 93.916 571.672 94.7295 571.672 95.7412V96.459H566.511C566.534 97.3385 566.755 98.0062 567.174 98.4619C567.598 98.9176 568.193 99.1455 568.958 99.1455C569.765 99.1455 570.563 98.9769 571.351 98.6396V99.6514C570.95 99.8245 570.569 99.9476 570.209 100.021C569.854 100.098 569.423 100.137 568.917 100.137ZM568.61 93.3213C568.008 93.3213 567.527 93.5173 567.167 93.9092C566.812 94.3011 566.602 94.8434 566.539 95.5361H570.456C570.456 94.8206 570.296 94.2738 569.977 93.8955C569.658 93.5127 569.202 93.3213 568.61 93.3213ZM577.361 92.3711C577.694 92.3711 577.992 92.3984 578.257 92.4531L578.099 93.5059C577.789 93.4375 577.516 93.4033 577.279 93.4033C576.673 93.4033 576.153 93.6494 575.72 94.1416C575.292 94.6338 575.078 95.2467 575.078 95.9805V100H573.943V92.5078H574.88L575.01 93.8955H575.064C575.342 93.4079 575.677 93.0319 576.069 92.7676C576.461 92.5033 576.892 92.3711 577.361 92.3711ZM584.82 97.9561C584.82 98.6533 584.561 99.1911 584.041 99.5693C583.522 99.9476 582.792 100.137 581.854 100.137C580.86 100.137 580.085 99.9795 579.529 99.665V98.6123C579.889 98.7946 580.274 98.9382 580.685 99.043C581.099 99.1478 581.498 99.2002 581.881 99.2002C582.473 99.2002 582.929 99.1068 583.248 98.9199C583.567 98.7285 583.727 98.4391 583.727 98.0518C583.727 97.7601 583.599 97.5117 583.344 97.3066C583.093 97.097 582.601 96.8509 581.867 96.5684C581.17 96.3086 580.673 96.083 580.377 95.8916C580.085 95.6956 579.867 95.4746 579.721 95.2285C579.579 94.9824 579.509 94.6885 579.509 94.3467C579.509 93.736 579.757 93.2552 580.254 92.9043C580.751 92.5488 581.432 92.3711 582.298 92.3711C583.105 92.3711 583.893 92.5352 584.663 92.8633L584.26 93.7861C583.508 93.4762 582.827 93.3213 582.216 93.3213C581.678 93.3213 581.273 93.4056 580.999 93.5742C580.726 93.7428 580.589 93.9753 580.589 94.2715C580.589 94.472 580.639 94.6429 580.739 94.7842C580.844 94.9255 581.01 95.0599 581.238 95.1875C581.466 95.3151 581.904 95.4997 582.551 95.7412C583.44 96.0648 584.039 96.3906 584.349 96.7188C584.663 97.0469 584.82 97.4593 584.82 97.9561ZM590.167 100.137C589.06 100.137 588.185 99.7995 587.542 99.125C586.904 98.4505 586.585 97.514 586.585 96.3154C586.585 95.1077 586.882 94.1484 587.474 93.4375C588.071 92.7266 588.871 92.3711 589.873 92.3711C590.812 92.3711 591.555 92.681 592.102 93.3008C592.649 93.916 592.922 94.7295 592.922 95.7412V96.459H587.761C587.784 97.3385 588.005 98.0062 588.424 98.4619C588.848 98.9176 589.443 99.1455 590.208 99.1455C591.015 99.1455 591.813 98.9769 592.601 98.6396V99.6514C592.2 99.8245 591.819 99.9476 591.459 100.021C591.104 100.098 590.673 100.137 590.167 100.137ZM589.86 93.3213C589.258 93.3213 588.777 93.5173 588.417 93.9092C588.062 94.3011 587.852 94.8434 587.788 95.5361H591.705C591.705 94.8206 591.546 94.2738 591.227 93.8955C590.908 93.5127 590.452 93.3213 589.86 93.3213ZM598.187 100.137C597.103 100.137 596.262 99.804 595.665 99.1387C595.072 98.4688 594.776 97.5231 594.776 96.3018C594.776 95.0485 595.077 94.0801 595.678 93.3965C596.285 92.7129 597.146 92.3711 598.262 92.3711C598.622 92.3711 598.982 92.4098 599.342 92.4873C599.703 92.5648 599.985 92.6559 600.19 92.7607L599.842 93.7246C599.591 93.6243 599.317 93.5423 599.021 93.4785C598.725 93.4102 598.463 93.376 598.235 93.376C596.713 93.376 595.952 94.3467 595.952 96.2881C595.952 97.2087 596.136 97.915 596.506 98.4072C596.879 98.8994 597.431 99.1455 598.16 99.1455C598.784 99.1455 599.425 99.0111 600.081 98.7422V99.7471C599.579 100.007 598.948 100.137 598.187 100.137ZM603.261 92.5078V97.3682C603.261 97.9788 603.4 98.4346 603.678 98.7354C603.956 99.0361 604.391 99.1865 604.983 99.1865C605.767 99.1865 606.339 98.9723 606.699 98.5439C607.064 98.1156 607.246 97.416 607.246 96.4453V92.5078H608.381V100H607.444L607.28 98.9951H607.219C606.986 99.3643 606.663 99.6468 606.248 99.8428C605.838 100.039 605.369 100.137 604.84 100.137C603.928 100.137 603.245 99.9202 602.789 99.4873C602.338 99.0544 602.112 98.3617 602.112 97.4092V92.5078H603.261ZM614.541 92.3711C614.874 92.3711 615.173 92.3984 615.437 92.4531L615.28 93.5059C614.97 93.4375 614.696 93.4033 614.459 93.4033C613.853 93.4033 613.334 93.6494 612.901 94.1416C612.472 94.6338 612.258 95.2467 612.258 95.9805V100H611.123V92.5078H612.06L612.19 93.8955H612.244C612.522 93.4079 612.857 93.0319 613.249 92.7676C613.641 92.5033 614.072 92.3711 614.541 92.3711ZM618.302 100H617.168V92.5078H618.302V100ZM617.072 90.4775C617.072 90.2178 617.136 90.0286 617.263 89.9102C617.391 89.7871 617.55 89.7256 617.742 89.7256C617.924 89.7256 618.081 89.7871 618.214 89.9102C618.346 90.0332 618.412 90.2223 618.412 90.4775C618.412 90.7327 618.346 90.9242 618.214 91.0518C618.081 91.1748 617.924 91.2363 617.742 91.2363C617.55 91.2363 617.391 91.1748 617.263 91.0518C617.136 90.9242 617.072 90.7327 617.072 90.4775ZM623.458 99.2002C623.658 99.2002 623.852 99.1865 624.039 99.1592C624.226 99.1273 624.374 99.0954 624.483 99.0635V99.9316C624.36 99.9909 624.178 100.039 623.936 100.075C623.7 100.116 623.485 100.137 623.294 100.137C621.845 100.137 621.12 99.3734 621.12 97.8467V93.3896H620.047V92.8428L621.12 92.3711L621.599 90.7715H622.255V92.5078H624.429V93.3896H622.255V97.7988C622.255 98.25 622.362 98.5964 622.576 98.8379C622.79 99.0794 623.084 99.2002 623.458 99.2002ZM625.127 92.5078H626.344L627.985 96.7803C628.345 97.7555 628.568 98.4596 628.655 98.8926H628.709C628.769 98.6602 628.892 98.2637 629.078 97.7031C629.27 97.138 629.89 95.4062 630.938 92.5078H632.155L628.935 101.039C628.616 101.882 628.242 102.479 627.814 102.83C627.39 103.186 626.868 103.363 626.248 103.363C625.902 103.363 625.56 103.325 625.223 103.247V102.338C625.474 102.393 625.754 102.42 626.064 102.42C626.843 102.42 627.399 101.982 627.732 101.107L628.149 100.041L625.127 92.5078ZM643.409 100H637.838V90.0059H643.409V91.0381H639V94.2578H643.143V95.2832H639V98.9609H643.409V100ZM647.594 96.165L644.99 92.5078H646.281L648.257 95.3789L650.226 92.5078H651.504L648.9 96.165L651.641 100H650.356L648.257 96.9648L646.138 100H644.853L647.594 96.165ZM656.947 100.137C656.459 100.137 656.013 100.048 655.607 99.8701C655.206 99.6878 654.869 99.4098 654.595 99.0361H654.513C654.568 99.4736 654.595 99.8883 654.595 100.28V103.363H653.461V92.5078H654.383L654.541 93.5332H654.595C654.887 93.123 655.226 92.8268 655.614 92.6445C656.001 92.4622 656.446 92.3711 656.947 92.3711C657.94 92.3711 658.706 92.7106 659.244 93.3896C659.786 94.0687 660.057 95.0212 660.057 96.2471C660.057 97.4775 659.781 98.4346 659.23 99.1182C658.683 99.7972 657.922 100.137 656.947 100.137ZM656.783 93.335C656.017 93.335 655.463 93.5469 655.122 93.9707C654.78 94.3945 654.604 95.069 654.595 95.9941V96.2471C654.595 97.2998 654.771 98.054 655.122 98.5098C655.473 98.9609 656.035 99.1865 656.81 99.1865C657.457 99.1865 657.963 98.9245 658.328 98.4004C658.697 97.8763 658.881 97.154 658.881 96.2334C658.881 95.2992 658.697 94.5837 658.328 94.0869C657.963 93.5856 657.448 93.335 656.783 93.335ZM665.541 100.137C664.433 100.137 663.558 99.7995 662.916 99.125C662.278 98.4505 661.959 97.514 661.959 96.3154C661.959 95.1077 662.255 94.1484 662.848 93.4375C663.445 92.7266 664.244 92.3711 665.247 92.3711C666.186 92.3711 666.929 92.681 667.475 93.3008C668.022 93.916 668.296 94.7295 668.296 95.7412V96.459H663.135C663.157 97.3385 663.378 98.0062 663.798 98.4619C664.222 98.9176 664.816 99.1455 665.582 99.1455C666.389 99.1455 667.186 98.9769 667.974 98.6396V99.6514C667.573 99.8245 667.193 99.9476 666.833 100.021C666.477 100.098 666.047 100.137 665.541 100.137ZM665.233 93.3213C664.632 93.3213 664.151 93.5173 663.791 93.9092C663.435 94.3011 663.226 94.8434 663.162 95.5361H667.079C667.079 94.8206 666.919 94.2738 666.6 93.8955C666.281 93.5127 665.826 93.3213 665.233 93.3213ZM673.985 92.3711C674.317 92.3711 674.616 92.3984 674.88 92.4531L674.723 93.5059C674.413 93.4375 674.14 93.4033 673.903 93.4033C673.296 93.4033 672.777 93.6494 672.344 94.1416C671.916 94.6338 671.701 95.2467 671.701 95.9805V100H670.567V92.5078H671.503L671.633 93.8955H671.688C671.966 93.4079 672.301 93.0319 672.693 92.7676C673.085 92.5033 673.515 92.3711 673.985 92.3711ZM679.031 99.2002C679.231 99.2002 679.425 99.1865 679.612 99.1592C679.799 99.1273 679.947 99.0954 680.056 99.0635V99.9316C679.933 99.9909 679.751 100.039 679.509 100.075C679.272 100.116 679.058 100.137 678.867 100.137C677.417 100.137 676.693 99.3734 676.693 97.8467V93.3896H675.62V92.8428L676.693 92.3711L677.171 90.7715H677.828V92.5078H680.001V93.3896H677.828V97.7988C677.828 98.25 677.935 98.5964 678.149 98.8379C678.363 99.0794 678.657 99.2002 679.031 99.2002ZM686.722 97.9561C686.722 98.6533 686.463 99.1911 685.943 99.5693C685.424 99.9476 684.694 100.137 683.756 100.137C682.762 100.137 681.987 99.9795 681.431 99.665V98.6123C681.791 98.7946 682.177 98.9382 682.587 99.043C683.001 99.1478 683.4 99.2002 683.783 99.2002C684.375 99.2002 684.831 99.1068 685.15 98.9199C685.469 98.7285 685.629 98.4391 685.629 98.0518C685.629 97.7601 685.501 97.5117 685.246 97.3066C684.995 97.097 684.503 96.8509 683.769 96.5684C683.072 96.3086 682.575 96.083 682.279 95.8916C681.987 95.6956 681.769 95.4746 681.623 95.2285C681.482 94.9824 681.411 94.6885 681.411 94.3467C681.411 93.736 681.659 93.2552 682.156 92.9043C682.653 92.5488 683.334 92.3711 684.2 92.3711C685.007 92.3711 685.795 92.5352 686.565 92.8633L686.162 93.7861C685.41 93.4762 684.729 93.3213 684.118 93.3213C683.58 93.3213 683.175 93.4056 682.901 93.5742C682.628 93.7428 682.491 93.9753 682.491 94.2715C682.491 94.472 682.541 94.6429 682.641 94.7842C682.746 94.9255 682.913 95.0599 683.14 95.1875C683.368 95.3151 683.806 95.4997 684.453 95.7412C685.342 96.0648 685.941 96.3906 686.251 96.7188C686.565 97.0469 686.722 97.4593 686.722 97.9561ZM688.74 99.2754C688.74 98.9701 688.809 98.7399 688.945 98.585C689.087 98.4255 689.287 98.3457 689.547 98.3457C689.811 98.3457 690.016 98.4255 690.162 98.585C690.313 98.7399 690.388 98.9701 690.388 99.2754C690.388 99.5716 690.313 99.7995 690.162 99.959C690.012 100.118 689.807 100.198 689.547 100.198C689.315 100.198 689.121 100.128 688.966 99.9863C688.816 99.8405 688.74 99.6035 688.74 99.2754Z" fill="#1051F4"/>
</g>
<g id="&#231;&#188;&#150;&#231;&#187;&#132; 21">
<path id="6" d="M335.254 21.5508C335.254 18.7617 335.65 16.5059 336.443 14.7832C337.245 13.0514 338.421 11.7754 339.971 10.9551C341.529 10.1348 343.448 9.72461 345.727 9.72461C346.538 9.72461 347.486 9.80208 348.57 9.95703V14.1816C347.659 14.0085 346.67 13.9219 345.604 13.9219C343.799 13.9219 342.454 14.3184 341.57 15.1113C340.686 15.9043 340.203 17.1986 340.121 18.9941H340.285C341.105 17.4447 342.423 16.6699 344.236 16.6699C346.014 16.6699 347.39 17.2441 348.365 18.3926C349.35 19.5319 349.842 21.1224 349.842 23.1641C349.842 25.3607 349.222 27.097 347.982 28.373C346.743 29.64 345.011 30.2734 342.787 30.2734C340.426 30.2734 338.581 29.5078 337.25 27.9766C335.919 26.4453 335.254 24.3034 335.254 21.5508ZM342.664 25.9941C343.238 25.9941 343.703 25.7799 344.059 25.3516C344.423 24.9141 344.605 24.2214 344.605 23.2734C344.605 21.651 343.977 20.8398 342.719 20.8398C342.099 20.8398 341.593 21.0495 341.201 21.4688C340.818 21.888 340.627 22.3984 340.627 23C340.627 23.875 340.814 24.5951 341.188 25.1602C341.561 25.7161 342.053 25.9941 342.664 25.9941Z" fill="#1051F4"/>
<path id="Semi-structured Inte" d="M232.319 58.5811C232.319 59.7119 231.909 60.5938 231.089 61.2266C230.268 61.8594 229.155 62.1758 227.749 62.1758C226.225 62.1758 225.054 61.9795 224.233 61.5869V60.1455C224.761 60.3682 225.335 60.5439 225.956 60.6729C226.577 60.8018 227.192 60.8662 227.802 60.8662C228.798 60.8662 229.548 60.6787 230.052 60.3037C230.555 59.9229 230.807 59.3955 230.807 58.7217C230.807 58.2764 230.717 57.9131 230.535 57.6318C230.359 57.3447 230.06 57.0811 229.638 56.8408C229.222 56.6006 228.587 56.3281 227.731 56.0234C226.536 55.5957 225.68 55.0889 225.165 54.5029C224.655 53.917 224.4 53.1523 224.4 52.209C224.4 51.2188 224.772 50.4307 225.516 49.8447C226.261 49.2588 227.245 48.9658 228.47 48.9658C229.747 48.9658 230.922 49.2002 231.994 49.6689L231.528 50.9697C230.468 50.5244 229.436 50.3018 228.434 50.3018C227.643 50.3018 227.025 50.4717 226.58 50.8115C226.135 51.1514 225.912 51.623 225.912 52.2266C225.912 52.6719 225.994 53.0381 226.158 53.3252C226.322 53.6064 226.597 53.8672 226.984 54.1074C227.377 54.3418 227.974 54.6025 228.777 54.8896C230.125 55.3701 231.051 55.8857 231.555 56.4365C232.064 56.9873 232.319 57.7021 232.319 58.5811ZM239.22 62.1758C237.796 62.1758 236.671 61.7422 235.845 60.875C235.025 60.0078 234.615 58.8037 234.615 57.2627C234.615 55.71 234.996 54.4766 235.757 53.5625C236.525 52.6484 237.553 52.1914 238.842 52.1914C240.049 52.1914 241.004 52.5898 241.708 53.3867C242.411 54.1777 242.762 55.2236 242.762 56.5244V57.4473H236.126C236.156 58.5781 236.44 59.4365 236.979 60.0225C237.524 60.6084 238.289 60.9014 239.273 60.9014C240.31 60.9014 241.335 60.6846 242.349 60.251V61.5518C241.834 61.7744 241.344 61.9326 240.881 62.0264C240.424 62.126 239.871 62.1758 239.22 62.1758ZM238.825 53.4131C238.051 53.4131 237.433 53.665 236.97 54.1689C236.513 54.6729 236.244 55.3701 236.162 56.2607H241.198C241.198 55.3408 240.993 54.6377 240.583 54.1514C240.172 53.6592 239.586 53.4131 238.825 53.4131ZM257.96 62V55.7334C257.96 54.9658 257.796 54.3916 257.468 54.0107C257.14 53.624 256.63 53.4307 255.939 53.4307C255.03 53.4307 254.36 53.6914 253.926 54.2129C253.492 54.7344 253.276 55.5371 253.276 56.6211V62H251.817V55.7334C251.817 54.9658 251.653 54.3916 251.324 54.0107C250.996 53.624 250.484 53.4307 249.786 53.4307C248.872 53.4307 248.201 53.7061 247.774 54.2568C247.352 54.8018 247.141 55.6982 247.141 56.9463V62H245.682V52.3672H246.868L247.106 53.6855H247.176C247.451 53.2168 247.838 52.8506 248.336 52.5869C248.84 52.3232 249.403 52.1914 250.024 52.1914C251.53 52.1914 252.514 52.7363 252.977 53.8262H253.047C253.334 53.3223 253.75 52.9238 254.295 52.6309C254.84 52.3379 255.461 52.1914 256.158 52.1914C257.248 52.1914 258.063 52.4727 258.602 53.0352C259.147 53.5918 259.419 54.4854 259.419 55.7158V62H257.96ZM264.316 62H262.857V52.3672H264.316V62ZM262.734 49.7568C262.734 49.4229 262.816 49.1797 262.98 49.0273C263.144 48.8691 263.35 48.79 263.596 48.79C263.83 48.79 264.032 48.8691 264.202 49.0273C264.372 49.1855 264.457 49.4287 264.457 49.7568C264.457 50.085 264.372 50.3311 264.202 50.4951C264.032 50.6533 263.83 50.7324 263.596 50.7324C263.35 50.7324 263.144 50.6533 262.98 50.4951C262.816 50.3311 262.734 50.085 262.734 49.7568ZM267.025 57.8428V56.5068H271.34V57.8428H267.025ZM280.272 59.3721C280.272 60.2686 279.938 60.96 279.27 61.4463C278.602 61.9326 277.664 62.1758 276.457 62.1758C275.18 62.1758 274.184 61.9736 273.469 61.5693V60.2158C273.932 60.4502 274.427 60.6348 274.954 60.7695C275.488 60.9043 276 60.9717 276.492 60.9717C277.254 60.9717 277.84 60.8516 278.25 60.6113C278.66 60.3652 278.866 59.9932 278.866 59.4951C278.866 59.1201 278.701 58.8008 278.373 58.5371C278.051 58.2676 277.418 57.9512 276.475 57.5879C275.578 57.2539 274.94 56.9639 274.559 56.7178C274.184 56.4658 273.903 56.1816 273.715 55.8652C273.533 55.5488 273.443 55.1709 273.443 54.7314C273.443 53.9463 273.762 53.3281 274.401 52.877C275.039 52.4199 275.915 52.1914 277.029 52.1914C278.066 52.1914 279.079 52.4023 280.07 52.8242L279.551 54.0107C278.584 53.6123 277.708 53.4131 276.923 53.4131C276.232 53.4131 275.71 53.5215 275.359 53.7383C275.007 53.9551 274.831 54.2539 274.831 54.6348C274.831 54.8926 274.896 55.1123 275.025 55.2939C275.159 55.4756 275.373 55.6484 275.666 55.8125C275.959 55.9766 276.522 56.2139 277.354 56.5244C278.496 56.9404 279.267 57.3594 279.665 57.7812C280.07 58.2031 280.272 58.7334 280.272 59.3721ZM286.188 60.9717C286.446 60.9717 286.695 60.9541 286.936 60.9189C287.176 60.8779 287.366 60.8369 287.507 60.7959V61.9121C287.349 61.9883 287.114 62.0498 286.804 62.0967C286.499 62.1494 286.224 62.1758 285.978 62.1758C284.114 62.1758 283.183 61.1943 283.183 59.2314V53.501H281.803V52.7979L283.183 52.1914L283.798 50.1348H284.642V52.3672H287.437V53.501H284.642V59.1699C284.642 59.75 284.779 60.1953 285.055 60.5059C285.33 60.8164 285.708 60.9717 286.188 60.9717ZM294.258 52.1914C294.686 52.1914 295.07 52.2266 295.41 52.2969L295.208 53.6504C294.809 53.5625 294.458 53.5186 294.153 53.5186C293.374 53.5186 292.706 53.835 292.149 54.4678C291.598 55.1006 291.323 55.8887 291.323 56.832V62H289.864V52.3672H291.068L291.235 54.1514H291.305C291.663 53.5244 292.093 53.041 292.597 52.7012C293.101 52.3613 293.655 52.1914 294.258 52.1914ZM299.006 52.3672V58.6162C299.006 59.4014 299.185 59.9873 299.542 60.374C299.9 60.7607 300.459 60.9541 301.221 60.9541C302.229 60.9541 302.964 60.6787 303.427 60.1279C303.896 59.5771 304.13 58.6777 304.13 57.4297V52.3672H305.589V62H304.385L304.174 60.708H304.095C303.796 61.1826 303.38 61.5459 302.847 61.7979C302.32 62.0498 301.716 62.1758 301.036 62.1758C299.865 62.1758 298.986 61.8975 298.4 61.3408C297.82 60.7842 297.53 59.8936 297.53 58.6689V52.3672H299.006ZM312.965 62.1758C311.57 62.1758 310.489 61.748 309.722 60.8926C308.96 60.0312 308.579 58.8154 308.579 57.2451C308.579 55.6338 308.966 54.3887 309.739 53.5098C310.519 52.6309 311.626 52.1914 313.062 52.1914C313.524 52.1914 313.987 52.2412 314.45 52.3408C314.913 52.4404 315.276 52.5576 315.54 52.6924L315.092 53.9316C314.77 53.8027 314.418 53.6973 314.037 53.6152C313.656 53.5273 313.319 53.4834 313.026 53.4834C311.069 53.4834 310.091 54.7314 310.091 57.2275C310.091 58.4111 310.328 59.3193 310.803 59.9521C311.283 60.585 311.992 60.9014 312.93 60.9014C313.732 60.9014 314.556 60.7285 315.399 60.3828V61.6748C314.755 62.0088 313.943 62.1758 312.965 62.1758ZM321.228 60.9717C321.486 60.9717 321.735 60.9541 321.975 60.9189C322.216 60.8779 322.406 60.8369 322.547 60.7959V61.9121C322.388 61.9883 322.154 62.0498 321.844 62.0967C321.539 62.1494 321.263 62.1758 321.017 62.1758C319.154 62.1758 318.222 61.1943 318.222 59.2314V53.501H316.843V52.7979L318.222 52.1914L318.838 50.1348H319.681V52.3672H322.476V53.501H319.681V59.1699C319.681 59.75 319.819 60.1953 320.094 60.5059C320.37 60.8164 320.748 60.9717 321.228 60.9717ZM326.275 52.3672V58.6162C326.275 59.4014 326.454 59.9873 326.811 60.374C327.168 60.7607 327.728 60.9541 328.49 60.9541C329.498 60.9541 330.233 60.6787 330.696 60.1279C331.165 59.5771 331.399 58.6777 331.399 57.4297V52.3672H332.858V62H331.654L331.443 60.708H331.364C331.065 61.1826 330.649 61.5459 330.116 61.7979C329.588 62.0498 328.985 62.1758 328.305 62.1758C327.133 62.1758 326.254 61.8975 325.668 61.3408C325.088 60.7842 324.798 59.8936 324.798 58.6689V52.3672H326.275ZM340.778 52.1914C341.206 52.1914 341.59 52.2266 341.93 52.2969L341.728 53.6504C341.329 53.5625 340.978 53.5186 340.673 53.5186C339.894 53.5186 339.226 53.835 338.669 54.4678C338.118 55.1006 337.843 55.8887 337.843 56.832V62H336.384V52.3672H337.588L337.755 54.1514H337.825C338.183 53.5244 338.613 53.041 339.117 52.7012C339.621 52.3613 340.175 52.1914 340.778 52.1914ZM348.224 62.1758C346.801 62.1758 345.676 61.7422 344.849 60.875C344.029 60.0078 343.619 58.8037 343.619 57.2627C343.619 55.71 344 54.4766 344.762 53.5625C345.529 52.6484 346.557 52.1914 347.847 52.1914C349.054 52.1914 350.009 52.5898 350.712 53.3867C351.415 54.1777 351.766 55.2236 351.766 56.5244V57.4473H345.131C345.16 58.5781 345.444 59.4365 345.983 60.0225C346.528 60.6084 347.293 60.9014 348.277 60.9014C349.314 60.9014 350.34 60.6846 351.353 60.251V61.5518C350.838 61.7744 350.348 61.9326 349.886 62.0264C349.429 62.126 348.875 62.1758 348.224 62.1758ZM347.829 53.4131C347.056 53.4131 346.437 53.665 345.974 54.1689C345.517 54.6729 345.248 55.3701 345.166 56.2607H350.202C350.202 55.3408 349.997 54.6377 349.587 54.1514C349.177 53.6592 348.591 53.4131 347.829 53.4131ZM361.243 60.708H361.164C360.49 61.6865 359.482 62.1758 358.14 62.1758C356.88 62.1758 355.899 61.7451 355.196 60.8838C354.499 60.0225 354.15 58.7979 354.15 57.21C354.15 55.6221 354.501 54.3887 355.205 53.5098C355.908 52.6309 356.886 52.1914 358.14 52.1914C359.447 52.1914 360.449 52.666 361.146 53.6152H361.26L361.199 52.9209L361.164 52.2441V48.3242H362.623V62H361.436L361.243 60.708ZM358.325 60.9541C359.321 60.9541 360.042 60.6846 360.487 60.1455C360.938 59.6006 361.164 58.7246 361.164 57.5176V57.21C361.164 55.8447 360.935 54.8721 360.478 54.292C360.027 53.7061 359.303 53.4131 358.307 53.4131C357.452 53.4131 356.795 53.7471 356.338 54.415C355.887 55.0771 355.662 56.0146 355.662 57.2275C355.662 58.458 355.887 59.3867 356.338 60.0137C356.79 60.6406 357.452 60.9541 358.325 60.9541ZM371.468 62V49.1504H372.962V62H371.468ZM383.291 62V55.7686C383.291 54.9834 383.112 54.3975 382.755 54.0107C382.397 53.624 381.838 53.4307 381.076 53.4307C380.068 53.4307 379.33 53.7031 378.861 54.248C378.392 54.793 378.158 55.6924 378.158 56.9463V62H376.699V52.3672H377.885L378.123 53.6855H378.193C378.492 53.2109 378.911 52.8447 379.45 52.5869C379.989 52.3232 380.589 52.1914 381.252 52.1914C382.412 52.1914 383.285 52.4727 383.871 53.0352C384.457 53.5918 384.75 54.4854 384.75 55.7158V62H383.291ZM391.29 60.9717C391.548 60.9717 391.797 60.9541 392.037 60.9189C392.278 60.8779 392.468 60.8369 392.609 60.7959V61.9121C392.451 61.9883 392.216 62.0498 391.906 62.0967C391.601 62.1494 391.326 62.1758 391.079 62.1758C389.216 62.1758 388.284 61.1943 388.284 59.2314V53.501H386.905V52.7979L388.284 52.1914L388.9 50.1348H389.743V52.3672H392.538V53.501H389.743V59.1699C389.743 59.75 389.881 60.1953 390.157 60.5059C390.432 60.8164 390.81 60.9717 391.29 60.9717ZM399.035 62.1758C397.611 62.1758 396.486 61.7422 395.66 60.875C394.84 60.0078 394.43 58.8037 394.43 57.2627C394.43 55.71 394.811 54.4766 395.572 53.5625C396.34 52.6484 397.368 52.1914 398.657 52.1914C399.864 52.1914 400.819 52.5898 401.522 53.3867C402.226 54.1777 402.577 55.2236 402.577 56.5244V57.4473H395.941C395.971 58.5781 396.255 59.4365 396.794 60.0225C397.339 60.6084 398.104 60.9014 399.088 60.9014C400.125 60.9014 401.15 60.6846 402.164 60.251V61.5518C401.648 61.7744 401.159 61.9326 400.696 62.0264C400.239 62.126 399.686 62.1758 399.035 62.1758ZM398.64 53.4131C397.866 53.4131 397.248 53.665 396.785 54.1689C396.328 54.6729 396.059 55.3701 395.977 56.2607H401.013C401.013 55.3408 400.808 54.6377 400.397 54.1514C399.987 53.6592 399.401 53.4131 398.64 53.4131ZM409.891 52.1914C410.319 52.1914 410.703 52.2266 411.043 52.2969L410.841 53.6504C410.442 53.5625 410.091 53.5186 409.786 53.5186C409.007 53.5186 408.339 53.835 407.782 54.4678C407.231 55.1006 406.956 55.8887 406.956 56.832V62H405.497V52.3672H406.701L406.868 54.1514H406.938C407.296 53.5244 407.726 53.041 408.23 52.7012C408.734 52.3613 409.288 52.1914 409.891 52.1914ZM415.377 62L411.721 52.3672H413.286L415.36 58.0801C415.829 59.416 416.104 60.2832 416.186 60.6816H416.256C416.321 60.3711 416.523 59.7295 416.863 58.7568C417.208 57.7783 417.979 55.6484 419.174 52.3672H420.739L417.082 62H415.377ZM424.168 62H422.709V52.3672H424.168V62ZM422.586 49.7568C422.586 49.4229 422.668 49.1797 422.832 49.0273C422.996 48.8691 423.201 48.79 423.447 48.79C423.682 48.79 423.884 48.8691 424.054 49.0273C424.224 49.1855 424.309 49.4287 424.309 49.7568C424.309 50.085 424.224 50.3311 424.054 50.4951C423.884 50.6533 423.682 50.7324 423.447 50.7324C423.201 50.7324 422.996 50.6533 422.832 50.4951C422.668 50.3311 422.586 50.085 422.586 49.7568ZM431.755 62.1758C430.331 62.1758 429.206 61.7422 428.38 60.875C427.559 60.0078 427.149 58.8037 427.149 57.2627C427.149 55.71 427.53 54.4766 428.292 53.5625C429.059 52.6484 430.088 52.1914 431.377 52.1914C432.584 52.1914 433.539 52.5898 434.242 53.3867C434.945 54.1777 435.297 55.2236 435.297 56.5244V57.4473H428.661C428.69 58.5781 428.974 59.4365 429.513 60.0225C430.058 60.6084 430.823 60.9014 431.807 60.9014C432.845 60.9014 433.87 60.6846 434.884 60.251V61.5518C434.368 61.7744 433.879 61.9326 433.416 62.0264C432.959 62.126 432.405 62.1758 431.755 62.1758ZM431.359 53.4131C430.586 53.4131 429.968 53.665 429.505 54.1689C429.048 54.6729 428.778 55.3701 428.696 56.2607H433.732C433.732 55.3408 433.527 54.6377 433.117 54.1514C432.707 53.6592 432.121 53.4131 431.359 53.4131ZM446.082 62L444.316 56.3486C444.205 56.0029 443.997 55.2178 443.692 53.9932H443.622C443.387 55.0186 443.182 55.8096 443.006 56.3662L441.187 62H439.499L436.872 52.3672H438.401C439.022 54.7871 439.494 56.6299 439.816 57.8955C440.144 59.1611 440.332 60.0137 440.378 60.4531H440.449C440.513 60.1191 440.616 59.6885 440.756 59.1611C440.903 58.6279 441.029 58.2061 441.134 57.8955L442.901 52.3672H444.483L446.206 57.8955C446.534 58.9033 446.756 59.75 446.874 60.4355H446.944C446.967 60.2246 447.029 59.8994 447.128 59.46C447.234 59.0205 447.846 56.6562 448.965 52.3672H450.477L447.814 62H446.082ZM458.863 59.3721C458.863 60.2686 458.529 60.96 457.862 61.4463C457.194 61.9326 456.256 62.1758 455.049 62.1758C453.772 62.1758 452.776 61.9736 452.061 61.5693V60.2158C452.524 60.4502 453.019 60.6348 453.546 60.7695C454.079 60.9043 454.592 60.9717 455.084 60.9717C455.846 60.9717 456.432 60.8516 456.842 60.6113C457.252 60.3652 457.457 59.9932 457.457 59.4951C457.457 59.1201 457.293 58.8008 456.965 58.5371C456.643 58.2676 456.01 57.9512 455.067 57.5879C454.17 57.2539 453.531 56.9639 453.151 56.7178C452.776 56.4658 452.494 56.1816 452.307 55.8652C452.125 55.5488 452.034 55.1709 452.034 54.7314C452.034 53.9463 452.354 53.3281 452.992 52.877C453.631 52.4199 454.507 52.1914 455.62 52.1914C456.657 52.1914 457.671 52.4023 458.661 52.8242L458.143 54.0107C457.176 53.6123 456.3 53.4131 455.515 53.4131C454.823 53.4131 454.302 53.5215 453.95 53.7383C453.599 53.9551 453.423 54.2539 453.423 54.6348C453.423 54.8926 453.487 55.1123 453.616 55.2939C453.751 55.4756 453.965 55.6484 454.258 55.8125C454.551 55.9766 455.113 56.2139 455.945 56.5244C457.088 56.9404 457.859 57.3594 458.257 57.7812C458.661 58.2031 458.863 58.7334 458.863 59.3721Z" fill="#404040"/>
<path id="with Target Learners" d="M279.44 84L278.066 79.6045C277.979 79.3356 277.818 78.7249 277.581 77.7725H277.526C277.344 78.57 277.184 79.1852 277.047 79.6182L275.632 84H274.32L272.276 76.5078H273.465C273.948 78.39 274.315 79.8232 274.566 80.8076C274.821 81.792 274.967 82.4551 275.003 82.7969H275.058C275.108 82.5371 275.188 82.2021 275.297 81.792C275.411 81.3773 275.509 81.0492 275.591 80.8076L276.965 76.5078H278.196L279.536 80.8076C279.791 81.5915 279.964 82.25 280.055 82.7832H280.11C280.128 82.6191 280.176 82.3662 280.253 82.0244C280.335 81.6826 280.812 79.8438 281.682 76.5078H282.858L280.787 84H279.44ZM285.682 84H284.548V76.5078H285.682V84ZM284.452 74.4775C284.452 74.2178 284.516 74.0286 284.643 73.9102C284.771 73.7871 284.93 73.7256 285.122 73.7256C285.304 73.7256 285.461 73.7871 285.594 73.9102C285.726 74.0332 285.792 74.2223 285.792 74.4775C285.792 74.7327 285.726 74.9242 285.594 75.0518C285.461 75.1748 285.304 75.2363 285.122 75.2363C284.93 75.2363 284.771 75.1748 284.643 75.0518C284.516 74.9242 284.452 74.7327 284.452 74.4775ZM290.838 83.2002C291.039 83.2002 291.232 83.1865 291.419 83.1592C291.606 83.1273 291.754 83.0954 291.863 83.0635V83.9316C291.74 83.9909 291.558 84.0387 291.317 84.0752C291.08 84.1162 290.865 84.1367 290.674 84.1367C289.225 84.1367 288.5 83.3734 288.5 81.8467V77.3896H287.427V76.8428L288.5 76.3711L288.979 74.7715H289.635V76.5078H291.809V77.3896H289.635V81.7988C289.635 82.25 289.742 82.5964 289.956 82.8379C290.17 83.0794 290.464 83.2002 290.838 83.2002ZM298.824 84V79.1533C298.824 78.5426 298.685 78.0869 298.407 77.7861C298.129 77.4854 297.693 77.335 297.101 77.335C296.313 77.335 295.736 77.5492 295.372 77.9775C295.011 78.4059 294.831 79.1077 294.831 80.083V84H293.697V73.3633H294.831V76.583C294.831 76.9704 294.813 77.2917 294.777 77.5469H294.845C295.068 77.1868 295.385 76.9043 295.795 76.6992C296.21 76.4896 296.682 76.3848 297.21 76.3848C298.126 76.3848 298.812 76.6035 299.268 77.041C299.728 77.474 299.958 78.1644 299.958 79.1123V84H298.824ZM309.839 84H308.677V75.0381H305.512V74.0059H313.004V75.0381H309.839V84ZM319.281 84L319.055 82.9336H319C318.627 83.403 318.253 83.722 317.879 83.8906C317.51 84.0547 317.048 84.1367 316.492 84.1367C315.749 84.1367 315.165 83.9453 314.742 83.5625C314.322 83.1797 314.113 82.6351 314.113 81.9287C314.113 80.4157 315.323 79.6227 317.743 79.5498L319.014 79.5088V79.0439C319.014 78.4561 318.886 78.0231 318.631 77.7451C318.381 77.4626 317.977 77.3213 317.421 77.3213C316.797 77.3213 316.091 77.5127 315.302 77.8955L314.954 77.0273C315.323 76.8268 315.726 76.6696 316.163 76.5557C316.606 76.4417 317.048 76.3848 317.49 76.3848C318.383 76.3848 319.044 76.583 319.472 76.9795C319.905 77.376 320.121 78.0117 320.121 78.8867V84H319.281ZM316.717 83.2002C317.424 83.2002 317.977 83.0065 318.378 82.6191C318.784 82.2318 318.987 81.6895 318.987 80.9922V80.3154L317.852 80.3633C316.95 80.3952 316.298 80.5365 315.897 80.7871C315.5 81.0332 315.302 81.4183 315.302 81.9424C315.302 82.3525 315.425 82.6647 315.671 82.8789C315.922 83.0931 316.271 83.2002 316.717 83.2002ZM326.214 76.3711C326.546 76.3711 326.845 76.3984 327.109 76.4531L326.952 77.5059C326.642 77.4375 326.369 77.4033 326.132 77.4033C325.525 77.4033 325.006 77.6494 324.573 78.1416C324.145 78.6338 323.93 79.2467 323.93 79.9805V84H322.796V76.5078H323.732L323.862 77.8955H323.917C324.195 77.4079 324.53 77.0319 324.922 76.7676C325.314 76.5033 325.744 76.3711 326.214 76.3711ZM334.972 76.5078V77.2256L333.584 77.3896C333.712 77.5492 333.826 77.7588 333.926 78.0186C334.026 78.2738 334.076 78.5632 334.076 78.8867C334.076 79.6204 333.826 80.2061 333.324 80.6436C332.823 81.0811 332.135 81.2998 331.26 81.2998C331.036 81.2998 330.827 81.2816 330.631 81.2451C330.148 81.5003 329.906 81.8216 329.906 82.209C329.906 82.4141 329.991 82.5667 330.159 82.667C330.328 82.7627 330.617 82.8105 331.027 82.8105H332.354C333.165 82.8105 333.787 82.9814 334.22 83.3232C334.657 83.665 334.876 84.1618 334.876 84.8135C334.876 85.6429 334.543 86.2741 333.878 86.707C333.213 87.1445 332.242 87.3633 330.966 87.3633C329.986 87.3633 329.23 87.181 328.696 86.8164C328.168 86.4518 327.903 85.9368 327.903 85.2715C327.903 84.8158 328.049 84.4215 328.341 84.0889C328.633 83.7562 329.043 83.5306 329.571 83.4121C329.38 83.3255 329.218 83.1911 329.086 83.0088C328.958 82.8265 328.895 82.6146 328.895 82.373C328.895 82.0996 328.967 81.8604 329.113 81.6553C329.259 81.4502 329.489 81.252 329.804 81.0605C329.416 80.901 329.1 80.6299 328.854 80.2471C328.612 79.8643 328.491 79.4268 328.491 78.9346C328.491 78.1143 328.737 77.4831 329.23 77.041C329.722 76.5944 330.419 76.3711 331.321 76.3711C331.713 76.3711 332.066 76.4167 332.381 76.5078H334.972ZM328.997 85.2578C328.997 85.6634 329.168 85.971 329.51 86.1807C329.852 86.3903 330.341 86.4951 330.98 86.4951C331.932 86.4951 332.636 86.3516 333.092 86.0645C333.552 85.7819 333.782 85.3968 333.782 84.9092C333.782 84.5036 333.657 84.221 333.406 84.0615C333.156 83.9066 332.684 83.8291 331.991 83.8291H330.631C330.116 83.8291 329.715 83.9521 329.428 84.1982C329.141 84.4443 328.997 84.7975 328.997 85.2578ZM329.612 78.9072C329.612 79.4313 329.76 79.8278 330.057 80.0967C330.353 80.3656 330.765 80.5 331.294 80.5C332.401 80.5 332.955 79.9622 332.955 78.8867C332.955 77.7611 332.395 77.1982 331.273 77.1982C330.74 77.1982 330.33 77.3418 330.043 77.6289C329.756 77.916 329.612 78.3421 329.612 78.9072ZM340.004 84.1367C338.897 84.1367 338.022 83.7995 337.379 83.125C336.741 82.4505 336.422 81.514 336.422 80.3154C336.422 79.1077 336.718 78.1484 337.311 77.4375C337.908 76.7266 338.708 76.3711 339.71 76.3711C340.649 76.3711 341.392 76.681 341.939 77.3008C342.486 77.916 342.759 78.7295 342.759 79.7412V80.459H337.598C337.621 81.3385 337.842 82.0062 338.261 82.4619C338.685 82.9176 339.28 83.1455 340.045 83.1455C340.852 83.1455 341.649 82.9769 342.438 82.6396V83.6514C342.037 83.8245 341.656 83.9476 341.296 84.0205C340.941 84.098 340.51 84.1367 340.004 84.1367ZM339.697 77.3213C339.095 77.3213 338.614 77.5173 338.254 77.9092C337.899 78.3011 337.689 78.8434 337.625 79.5361H341.542C341.542 78.8206 341.383 78.2738 341.064 77.8955C340.745 77.5127 340.289 77.3213 339.697 77.3213ZM347.45 83.2002C347.65 83.2002 347.844 83.1865 348.031 83.1592C348.218 83.1273 348.366 83.0954 348.475 83.0635V83.9316C348.352 83.9909 348.17 84.0387 347.928 84.0752C347.691 84.1162 347.477 84.1367 347.286 84.1367C345.837 84.1367 345.112 83.3734 345.112 81.8467V77.3896H344.039V76.8428L345.112 76.3711L345.59 74.7715H346.247V76.5078H348.421V77.3896H346.247V81.7988C346.247 82.25 346.354 82.5964 346.568 82.8379C346.782 83.0794 347.076 83.2002 347.45 83.2002ZM354.446 84V74.0059H355.608V82.9473H360.017V84H354.446ZM365.043 84.1367C363.935 84.1367 363.06 83.7995 362.418 83.125C361.78 82.4505 361.461 81.514 361.461 80.3154C361.461 79.1077 361.757 78.1484 362.349 77.4375C362.946 76.7266 363.746 76.3711 364.749 76.3711C365.687 76.3711 366.43 76.681 366.977 77.3008C367.524 77.916 367.797 78.7295 367.797 79.7412V80.459H362.636C362.659 81.3385 362.88 82.0062 363.299 82.4619C363.723 82.9176 364.318 83.1455 365.084 83.1455C365.89 83.1455 366.688 82.9769 367.476 82.6396V83.6514C367.075 83.8245 366.695 83.9476 366.335 84.0205C365.979 84.098 365.548 84.1367 365.043 84.1367ZM364.735 77.3213C364.133 77.3213 363.653 77.5173 363.293 77.9092C362.937 78.3011 362.727 78.8434 362.664 79.5361H366.581C366.581 78.8206 366.421 78.2738 366.102 77.8955C365.783 77.5127 365.327 77.3213 364.735 77.3213ZM374.676 84L374.45 82.9336H374.395C374.022 83.403 373.648 83.722 373.274 83.8906C372.905 84.0547 372.443 84.1367 371.887 84.1367C371.144 84.1367 370.56 83.9453 370.137 83.5625C369.717 83.1797 369.508 82.6351 369.508 81.9287C369.508 80.4157 370.718 79.6227 373.138 79.5498L374.409 79.5088V79.0439C374.409 78.4561 374.282 78.0231 374.026 77.7451C373.776 77.4626 373.372 77.3213 372.816 77.3213C372.192 77.3213 371.486 77.5127 370.697 77.8955L370.349 77.0273C370.718 76.8268 371.121 76.6696 371.559 76.5557C372.001 76.4417 372.443 76.3848 372.885 76.3848C373.778 76.3848 374.439 76.583 374.867 76.9795C375.3 77.376 375.517 78.0117 375.517 78.8867V84H374.676ZM372.112 83.2002C372.819 83.2002 373.372 83.0065 373.773 82.6191C374.179 82.2318 374.382 81.6895 374.382 80.9922V80.3154L373.247 80.3633C372.345 80.3952 371.693 80.5365 371.292 80.7871C370.895 81.0332 370.697 81.4183 370.697 81.9424C370.697 82.3525 370.82 82.6647 371.066 82.8789C371.317 83.0931 371.666 83.2002 372.112 83.2002ZM381.609 76.3711C381.941 76.3711 382.24 76.3984 382.504 76.4531L382.347 77.5059C382.037 77.4375 381.764 77.4033 381.527 77.4033C380.92 77.4033 380.401 77.6494 379.968 78.1416C379.54 78.6338 379.325 79.2467 379.325 79.9805V84H378.191V76.5078H379.127L379.257 77.8955H379.312C379.59 77.4079 379.925 77.0319 380.317 76.7676C380.709 76.5033 381.139 76.3711 381.609 76.3711ZM389.362 84V79.1533C389.362 78.5426 389.223 78.0869 388.945 77.7861C388.667 77.4854 388.232 77.335 387.639 77.335C386.855 77.335 386.281 77.5469 385.917 77.9707C385.552 78.3945 385.37 79.0941 385.37 80.0693V84H384.235V76.5078H385.158L385.342 77.5332H385.397C385.629 77.1641 385.955 76.8792 386.375 76.6787C386.794 76.4736 387.261 76.3711 387.776 76.3711C388.678 76.3711 389.357 76.5898 389.813 77.0273C390.269 77.4603 390.497 78.1553 390.497 79.1123V84H389.362ZM396.329 84.1367C395.222 84.1367 394.347 83.7995 393.704 83.125C393.066 82.4505 392.747 81.514 392.747 80.3154C392.747 79.1077 393.043 78.1484 393.636 77.4375C394.233 76.7266 395.032 76.3711 396.035 76.3711C396.974 76.3711 397.717 76.681 398.264 77.3008C398.81 77.916 399.084 78.7295 399.084 79.7412V80.459H393.923C393.946 81.3385 394.167 82.0062 394.586 82.4619C395.01 82.9176 395.604 83.1455 396.37 83.1455C397.177 83.1455 397.974 82.9769 398.763 82.6396V83.6514C398.362 83.8245 397.981 83.9476 397.621 84.0205C397.266 84.098 396.835 84.1367 396.329 84.1367ZM396.021 77.3213C395.42 77.3213 394.939 77.5173 394.579 77.9092C394.224 78.3011 394.014 78.8434 393.95 79.5361H397.867C397.867 78.8206 397.708 78.2738 397.389 77.8955C397.07 77.5127 396.614 77.3213 396.021 77.3213ZM404.773 76.3711C405.105 76.3711 405.404 76.3984 405.668 76.4531L405.511 77.5059C405.201 77.4375 404.928 77.4033 404.691 77.4033C404.085 77.4033 403.565 77.6494 403.132 78.1416C402.704 78.6338 402.489 79.2467 402.489 79.9805V84H401.355V76.5078H402.291L402.421 77.8955H402.476C402.754 77.4079 403.089 77.0319 403.481 76.7676C403.873 76.5033 404.303 76.3711 404.773 76.3711ZM412.232 81.9561C412.232 82.6533 411.972 83.1911 411.453 83.5693C410.933 83.9476 410.204 84.1367 409.265 84.1367C408.272 84.1367 407.497 83.9795 406.941 83.665V82.6123C407.301 82.7946 407.686 82.9382 408.096 83.043C408.511 83.1478 408.91 83.2002 409.292 83.2002C409.885 83.2002 410.341 83.1068 410.66 82.9199C410.979 82.7285 411.138 82.4391 411.138 82.0518C411.138 81.7601 411.011 81.5117 410.755 81.3066C410.505 81.097 410.013 80.8509 409.279 80.5684C408.582 80.3086 408.085 80.083 407.789 79.8916C407.497 79.6956 407.278 79.4746 407.132 79.2285C406.991 78.9824 406.92 78.6885 406.92 78.3467C406.92 77.736 407.169 77.2552 407.666 76.9043C408.162 76.5488 408.844 76.3711 409.709 76.3711C410.516 76.3711 411.305 76.5352 412.075 76.8633L411.671 77.7861C410.919 77.4762 410.238 77.3213 409.627 77.3213C409.09 77.3213 408.684 77.4056 408.411 77.5742C408.137 77.7428 408.001 77.9753 408.001 78.2715C408.001 78.472 408.051 78.6429 408.151 78.7842C408.256 78.9255 408.422 79.0599 408.65 79.1875C408.878 79.3151 409.315 79.4997 409.962 79.7412C410.851 80.0648 411.45 80.3906 411.76 80.7188C412.075 81.0469 412.232 81.4593 412.232 81.9561Z" fill="#1051F4"/>
</g>
</g>
</svg>
