<svg width="623" height="97" viewBox="0 0 623 97" fill="none" xmlns="http://www.w3.org/2000/svg">
<g id="&#231;&#188;&#150;&#231;&#187;&#132; 18">
<g id="&#231;&#188;&#150;&#231;&#187;&#132; 16">
<g id="&#231;&#188;&#150;&#231;&#187;&#132; 9">
<rect id="&#231;&#159;&#169;&#229;&#189;&#162;" width="186" height="39" rx="10" fill="#1051F4" fill-opacity="0.1"/>
<path id="15 hours, 3 days" d="M29.2632 26H26.6982V18.9775L26.7231 17.8237L26.7646 16.562C26.3385 16.9881 26.0425 17.2676 25.8765 17.4004L24.4819 18.521L23.2451 16.9771L27.1548 13.8643H29.2632V26ZM37.4493 18.2471C38.6225 18.2471 39.5549 18.5763 40.2467 19.2349C40.9439 19.8934 41.2926 20.7954 41.2926 21.9409C41.2926 23.2967 40.8748 24.3398 40.0392 25.0703C39.2035 25.8008 38.0082 26.166 36.4532 26.166C35.103 26.166 34.0128 25.9474 33.1827 25.5103V23.2939C33.6199 23.5264 34.129 23.7173 34.7101 23.8667C35.2911 24.0106 35.8417 24.0825 36.3619 24.0825C37.928 24.0825 38.711 23.4406 38.711 22.1567C38.711 20.9338 37.9003 20.3223 36.2789 20.3223C35.9856 20.3223 35.6619 20.3527 35.3077 20.4136C34.9535 20.4689 34.6658 20.5298 34.4444 20.5962L33.4234 20.0483L33.88 13.8643H40.4625V16.0391H36.1295L35.9054 18.4214L36.1959 18.3633C36.5335 18.2858 36.9513 18.2471 37.4493 18.2471ZM57.1751 26H54.6434V20.5796C54.6434 19.2404 54.1453 18.5708 53.1492 18.5708C52.4409 18.5708 51.929 18.8115 51.6136 19.293C51.2981 19.7744 51.1404 20.5547 51.1404 21.6338V26H48.6087V13.084H51.1404V15.7153C51.1404 15.9201 51.1211 16.4015 51.0823 17.1597L51.0242 17.9067H51.157C51.7215 16.9992 52.618 16.5454 53.8465 16.5454C54.9367 16.5454 55.764 16.8387 56.3284 17.4253C56.8929 18.0119 57.1751 18.853 57.1751 19.9487V26ZM62.1986 21.3433C62.1986 22.2619 62.348 22.9564 62.6469 23.4268C62.9512 23.8971 63.4437 24.1323 64.1244 24.1323C64.7995 24.1323 65.2838 23.8999 65.577 23.4351C65.8759 22.9647 66.0253 22.2674 66.0253 21.3433C66.0253 20.4246 65.8759 19.7357 65.577 19.2764C65.2782 18.8171 64.7885 18.5874 64.1078 18.5874C63.4327 18.5874 62.9457 18.8171 62.6469 19.2764C62.348 19.7301 62.1986 20.4191 62.1986 21.3433ZM68.6151 21.3433C68.6151 22.854 68.2167 24.0355 67.4198 24.8877C66.6229 25.7399 65.5134 26.166 64.0912 26.166C63.2003 26.166 62.4145 25.9723 61.7338 25.585C61.0531 25.1921 60.5302 24.6304 60.1649 23.8999C59.7997 23.1694 59.6171 22.3172 59.6171 21.3433C59.6171 19.827 60.0128 18.6483 60.8041 17.8071C61.5954 16.966 62.7077 16.5454 64.141 16.5454C65.032 16.5454 65.8178 16.7391 66.4984 17.1265C67.1791 17.5138 67.702 18.07 68.0673 18.7949C68.4325 19.5199 68.6151 20.3693 68.6151 21.3433ZM77.6812 26L77.3408 24.813H77.208C76.9368 25.2446 76.5522 25.5794 76.0542 25.8174C75.5562 26.0498 74.9889 26.166 74.3525 26.166C73.2624 26.166 72.4406 25.8755 71.8872 25.2944C71.3338 24.7078 71.0571 23.8667 71.0571 22.771V16.7197H73.5889V22.1401C73.5889 22.8097 73.7078 23.3133 73.9458 23.6509C74.1838 23.9829 74.5628 24.1489 75.083 24.1489C75.7913 24.1489 76.3032 23.9137 76.6187 23.4434C76.9341 22.9674 77.0918 22.1816 77.0918 21.0859V16.7197H79.6235V26H77.6812ZM87.8595 16.5454C88.2026 16.5454 88.4876 16.5703 88.7145 16.6201L88.5235 18.9941C88.3188 18.9388 88.0698 18.9111 87.7765 18.9111C86.9685 18.9111 86.3377 19.1187 85.8839 19.5337C85.4356 19.9487 85.2115 20.5298 85.2115 21.2769V26H82.6798V16.7197H84.5973L84.9708 18.2803H85.0953C85.3831 17.7601 85.7704 17.3423 86.2574 17.0269C86.7499 16.7059 87.284 16.5454 87.8595 16.5454ZM97.2741 23.2441C97.2741 24.196 96.9421 24.9209 96.278 25.4189C95.6195 25.917 94.6317 26.166 93.3147 26.166C92.6395 26.166 92.064 26.119 91.5881 26.0249C91.1122 25.9364 90.6667 25.8035 90.2517 25.6265V23.5347C90.722 23.756 91.2505 23.9414 91.8371 24.0908C92.4292 24.2402 92.9494 24.3149 93.3977 24.3149C94.3163 24.3149 94.7756 24.0493 94.7756 23.5181C94.7756 23.3188 94.7147 23.1584 94.593 23.0366C94.4712 22.9093 94.2609 22.7682 93.9621 22.6133C93.6633 22.4528 93.2648 22.2674 92.7668 22.0571C92.0529 21.7583 91.5272 21.4816 91.1897 21.2271C90.8576 20.9725 90.6141 20.682 90.4592 20.3555C90.3098 20.0234 90.2351 19.6167 90.2351 19.1353C90.2351 18.3107 90.5533 17.6743 91.1897 17.2261C91.8316 16.7723 92.7391 16.5454 93.9123 16.5454C95.0301 16.5454 96.1175 16.7889 97.1745 17.2759L96.4108 19.1021C95.946 18.9028 95.5116 18.7396 95.1076 18.6123C94.7036 18.485 94.2914 18.4214 93.8708 18.4214C93.1237 18.4214 92.7502 18.6234 92.7502 19.0273C92.7502 19.2542 92.8692 19.4507 93.1071 19.6167C93.3506 19.7827 93.8791 20.029 94.6926 20.3555C95.4175 20.6488 95.9488 20.9227 96.2863 21.1772C96.6239 21.4318 96.8729 21.7251 97.0334 22.0571C97.1939 22.3892 97.2741 22.7848 97.2741 23.2441ZM102.132 24.2153C101.844 25.3332 101.357 26.6585 100.671 28.1914H98.8445C99.2042 26.7194 99.4837 25.3304 99.6829 24.0244H102.007L102.132 24.2153ZM117.159 16.5786C117.159 17.3368 116.93 17.9814 116.47 18.5127C116.011 19.0439 115.366 19.4092 114.536 19.6084V19.6582C115.516 19.7799 116.257 20.0788 116.761 20.5547C117.264 21.0251 117.516 21.6615 117.516 22.4639C117.516 23.6315 117.093 24.5418 116.246 25.1948C115.399 25.8423 114.19 26.166 112.619 26.166C111.302 26.166 110.134 25.9474 109.116 25.5103V23.3271C109.586 23.5651 110.104 23.7588 110.668 23.9082C111.232 24.0576 111.791 24.1323 112.345 24.1323C113.191 24.1323 113.817 23.9884 114.221 23.7007C114.625 23.4129 114.827 22.9508 114.827 22.3145C114.827 21.7445 114.594 21.3405 114.129 21.1025C113.665 20.8646 112.923 20.7456 111.905 20.7456H110.983V18.7783H111.921C112.862 18.7783 113.548 18.6566 113.98 18.4131C114.417 18.1641 114.636 17.7407 114.636 17.1431C114.636 16.2244 114.06 15.7651 112.909 15.7651C112.511 15.7651 112.104 15.8315 111.689 15.9644C111.279 16.0972 110.823 16.3268 110.319 16.6533L109.132 14.8853C110.239 14.0884 111.559 13.6899 113.092 13.6899C114.348 13.6899 115.339 13.9445 116.063 14.4536C116.794 14.9627 117.159 15.6711 117.159 16.5786ZM127.663 26.166C126.573 26.166 125.715 25.7427 125.09 24.896C124.47 24.0493 124.16 22.8761 124.16 21.3765C124.16 19.8547 124.475 18.6704 125.106 17.8237C125.743 16.9715 126.617 16.5454 127.729 16.5454C128.897 16.5454 129.788 16.9992 130.402 17.9067H130.485C130.358 17.215 130.294 16.598 130.294 16.0557V13.084H132.834V26H130.892L130.402 24.7964H130.294C129.719 25.7095 128.842 26.166 127.663 26.166ZM128.551 24.1489C129.198 24.1489 129.672 23.9608 129.97 23.5845C130.275 23.2082 130.441 22.569 130.468 21.667V21.3931C130.468 20.397 130.314 19.6831 130.004 19.2515C129.699 18.8198 129.201 18.604 128.509 18.604C127.945 18.604 127.505 18.8447 127.19 19.3262C126.88 19.8021 126.725 20.4966 126.725 21.4097C126.725 22.3228 126.883 23.009 127.198 23.4683C127.513 23.922 127.964 24.1489 128.551 24.1489ZM141.776 26L141.286 24.7383H141.22C140.793 25.2751 140.353 25.6486 139.9 25.8589C139.451 26.0636 138.865 26.166 138.14 26.166C137.249 26.166 136.546 25.9115 136.032 25.4023C135.522 24.8932 135.268 24.1683 135.268 23.2275C135.268 22.2425 135.611 21.5176 136.297 21.0527C136.989 20.5824 138.029 20.3223 139.418 20.2725L141.029 20.2227V19.8159C141.029 18.8752 140.547 18.4048 139.584 18.4048C138.843 18.4048 137.971 18.6289 136.97 19.0771L136.131 17.3672C137.199 16.8083 138.383 16.5288 139.684 16.5288C140.929 16.5288 141.884 16.8 142.548 17.3423C143.212 17.8846 143.544 18.7091 143.544 19.8159V26H141.776ZM141.029 21.7002L140.049 21.7334C139.313 21.7555 138.765 21.8883 138.406 22.1318C138.046 22.3753 137.866 22.7461 137.866 23.2441C137.866 23.958 138.276 24.3149 139.095 24.3149C139.681 24.3149 140.149 24.1462 140.497 23.8086C140.852 23.471 141.029 23.0228 141.029 22.4639V21.7002ZM145.23 16.7197H148.003L149.754 21.9409C149.904 22.3947 150.006 22.9315 150.061 23.5513H150.111C150.172 22.9813 150.291 22.4445 150.468 21.9409L152.186 16.7197H154.901L150.975 27.187C150.615 28.1554 150.1 28.8804 149.431 29.3618C148.767 29.8433 147.989 30.084 147.098 30.084C146.661 30.084 146.232 30.0369 145.811 29.9429V27.9341C146.116 28.006 146.448 28.042 146.808 28.042C147.256 28.042 147.646 27.9036 147.978 27.627C148.315 27.3558 148.578 26.9435 148.767 26.3901L148.916 25.9336L145.23 16.7197ZM163.112 23.2441C163.112 24.196 162.78 24.9209 162.116 25.4189C161.457 25.917 160.469 26.166 159.152 26.166C158.477 26.166 157.902 26.119 157.426 26.0249C156.95 25.9364 156.504 25.8035 156.089 25.6265V23.5347C156.56 23.756 157.088 23.9414 157.675 24.0908C158.267 24.2402 158.787 24.3149 159.235 24.3149C160.154 24.3149 160.613 24.0493 160.613 23.5181C160.613 23.3188 160.552 23.1584 160.431 23.0366C160.309 22.9093 160.099 22.7682 159.8 22.6133C159.501 22.4528 159.103 22.2674 158.604 22.0571C157.891 21.7583 157.365 21.4816 157.027 21.2271C156.695 20.9725 156.452 20.682 156.297 20.3555C156.147 20.0234 156.073 19.6167 156.073 19.1353C156.073 18.3107 156.391 17.6743 157.027 17.2261C157.669 16.7723 158.577 16.5454 159.75 16.5454C160.868 16.5454 161.955 16.7889 163.012 17.2759L162.249 19.1021C161.784 18.9028 161.349 18.7396 160.945 18.6123C160.541 18.485 160.129 18.4214 159.708 18.4214C158.961 18.4214 158.588 18.6234 158.588 19.0273C158.588 19.2542 158.707 19.4507 158.945 19.6167C159.188 19.7827 159.717 20.029 160.53 20.3555C161.255 20.6488 161.786 20.9227 162.124 21.1772C162.462 21.4318 162.711 21.7251 162.871 22.0571C163.032 22.3892 163.112 22.7848 163.112 23.2441Z" fill="#404040"/>
</g>
<g id="&#231;&#188;&#150;&#231;&#187;&#132; 10">
<rect id="&#231;&#159;&#169;&#229;&#189;&#162;_2" x="202" width="134" height="39" rx="10" fill="#1051F4" fill-opacity="0.1"/>
<path id="8 Modules" d="M229.108 13.7065C230.271 13.7065 231.206 13.9722 231.914 14.5034C232.628 15.0291 232.985 15.7402 232.985 16.6367C232.985 17.2565 232.813 17.8099 232.47 18.2969C232.127 18.7783 231.574 19.21 230.81 19.5918C231.718 20.0788 232.368 20.5879 232.761 21.1191C233.159 21.6449 233.358 22.2231 233.358 22.854C233.358 23.8501 232.968 24.6525 232.188 25.2612C231.408 25.8644 230.381 26.166 229.108 26.166C227.78 26.166 226.737 25.8838 225.979 25.3193C225.221 24.7549 224.842 23.9552 224.842 22.9204C224.842 22.2287 225.025 21.6144 225.39 21.0776C225.761 20.5409 226.353 20.0677 227.166 19.6582C226.474 19.221 225.976 18.7534 225.672 18.2554C225.368 17.7573 225.215 17.2122 225.215 16.6201C225.215 15.7513 225.575 15.0485 226.295 14.5117C227.014 13.9749 227.952 13.7065 229.108 13.7065ZM227.216 22.771C227.216 23.2469 227.382 23.6177 227.714 23.8833C228.046 24.1489 228.5 24.2817 229.075 24.2817C229.712 24.2817 230.188 24.1462 230.503 23.875C230.818 23.5983 230.976 23.2358 230.976 22.7876C230.976 22.4168 230.818 22.071 230.503 21.75C230.193 21.4235 229.687 21.0776 228.984 20.7124C227.805 21.2547 227.216 21.9409 227.216 22.771ZM229.092 15.5825C228.655 15.5825 228.301 15.696 228.029 15.9229C227.764 16.1442 227.631 16.443 227.631 16.8193C227.631 17.1514 227.736 17.4502 227.946 17.7158C228.162 17.9759 228.55 18.2443 229.108 18.521C229.651 18.2664 230.03 18.0063 230.246 17.7407C230.462 17.4751 230.569 17.168 230.569 16.8193C230.569 16.4375 230.431 16.1359 230.154 15.9146C229.878 15.6932 229.524 15.5825 229.092 15.5825ZM245.838 26L242.916 16.479H242.841C242.946 18.4159 242.999 19.708 242.999 20.3555V26H240.7V13.8643H244.202L247.075 23.1445H247.124L250.171 13.8643H253.674V26H251.275V20.2559C251.275 19.9847 251.277 19.672 251.283 19.3179C251.294 18.9637 251.333 18.0229 251.399 16.4956H251.325L248.195 26H245.838ZM258.954 21.3433C258.954 22.2619 259.104 22.9564 259.403 23.4268C259.707 23.8971 260.2 24.1323 260.88 24.1323C261.555 24.1323 262.04 23.8999 262.333 23.4351C262.632 22.9647 262.781 22.2674 262.781 21.3433C262.781 20.4246 262.632 19.7357 262.333 19.2764C262.034 18.8171 261.544 18.5874 260.864 18.5874C260.189 18.5874 259.702 18.8171 259.403 19.2764C259.104 19.7301 258.954 20.4191 258.954 21.3433ZM265.371 21.3433C265.371 22.854 264.973 24.0355 264.176 24.8877C263.379 25.7399 262.269 26.166 260.847 26.166C259.956 26.166 259.17 25.9723 258.49 25.585C257.809 25.1921 257.286 24.6304 256.921 23.8999C256.556 23.1694 256.373 22.3172 256.373 21.3433C256.373 19.827 256.769 18.6483 257.56 17.8071C258.351 16.966 259.464 16.5454 260.897 16.5454C261.788 16.5454 262.574 16.7391 263.254 17.1265C263.935 17.5138 264.458 18.07 264.823 18.7949C265.188 19.5199 265.371 20.3693 265.371 21.3433ZM270.801 26.166C269.711 26.166 268.853 25.7427 268.228 24.896C267.608 24.0493 267.298 22.8761 267.298 21.3765C267.298 19.8547 267.614 18.6704 268.245 17.8237C268.881 16.9715 269.755 16.5454 270.868 16.5454C272.035 16.5454 272.926 16.9992 273.541 17.9067H273.624C273.496 17.215 273.433 16.598 273.433 16.0557V13.084H275.973V26H274.03L273.541 24.7964H273.433C272.857 25.7095 271.98 26.166 270.801 26.166ZM271.689 24.1489C272.337 24.1489 272.81 23.9608 273.109 23.5845C273.413 23.2082 273.579 22.569 273.607 21.667V21.3931C273.607 20.397 273.452 19.6831 273.142 19.2515C272.838 18.8198 272.34 18.604 271.648 18.604C271.083 18.604 270.644 18.8447 270.328 19.3262C270.018 19.8021 269.863 20.4966 269.863 21.4097C269.863 22.3228 270.021 23.009 270.336 23.4683C270.652 23.922 271.103 24.1489 271.689 24.1489ZM285.595 26L285.254 24.813H285.122C284.851 25.2446 284.466 25.5794 283.968 25.8174C283.47 26.0498 282.903 26.166 282.266 26.166C281.176 26.166 280.354 25.8755 279.801 25.2944C279.247 24.7078 278.971 23.8667 278.971 22.771V16.7197H281.503V22.1401C281.503 22.8097 281.622 23.3133 281.859 23.6509C282.097 23.9829 282.476 24.1489 282.997 24.1489C283.705 24.1489 284.217 23.9137 284.532 23.4434C284.848 22.9674 285.005 22.1816 285.005 21.0859V16.7197H287.537V26H285.595ZM293.125 26H290.593V13.084H293.125V26ZM300.033 18.3467C299.496 18.3467 299.076 18.5182 298.771 18.8613C298.467 19.1989 298.293 19.6803 298.248 20.3057H301.801C301.79 19.6803 301.627 19.1989 301.311 18.8613C300.996 18.5182 300.57 18.3467 300.033 18.3467ZM300.39 26.166C298.896 26.166 297.728 25.7537 296.887 24.9292C296.046 24.1047 295.625 22.937 295.625 21.4263C295.625 19.8713 296.013 18.6704 296.787 17.8237C297.568 16.9715 298.644 16.5454 300.016 16.5454C301.328 16.5454 302.349 16.9189 303.079 17.666C303.81 18.4131 304.175 19.4451 304.175 20.7622V21.9907H298.19C298.218 22.7101 298.431 23.2718 298.829 23.6758C299.228 24.0798 299.787 24.2817 300.506 24.2817C301.065 24.2817 301.594 24.2236 302.092 24.1074C302.59 23.9912 303.11 23.8058 303.652 23.5513V25.5103C303.209 25.7316 302.736 25.8949 302.233 26C301.729 26.1107 301.115 26.166 300.39 26.166ZM313.108 23.2441C313.108 24.196 312.776 24.9209 312.112 25.4189C311.454 25.917 310.466 26.166 309.149 26.166C308.474 26.166 307.898 26.119 307.422 26.0249C306.946 25.9364 306.501 25.8035 306.086 25.6265V23.5347C306.556 23.756 307.085 23.9414 307.671 24.0908C308.263 24.2402 308.784 24.3149 309.232 24.3149C310.15 24.3149 310.61 24.0493 310.61 23.5181C310.61 23.3188 310.549 23.1584 310.427 23.0366C310.305 22.9093 310.095 22.7682 309.796 22.6133C309.497 22.4528 309.099 22.2674 308.601 22.0571C307.887 21.7583 307.361 21.4816 307.024 21.2271C306.692 20.9725 306.448 20.682 306.293 20.3555C306.144 20.0234 306.069 19.6167 306.069 19.1353C306.069 18.3107 306.387 17.6743 307.024 17.2261C307.666 16.7723 308.573 16.5454 309.746 16.5454C310.864 16.5454 311.952 16.7889 313.009 17.2759L312.245 19.1021C311.78 18.9028 311.346 18.7396 310.942 18.6123C310.538 18.485 310.126 18.4214 309.705 18.4214C308.958 18.4214 308.584 18.6234 308.584 19.0273C308.584 19.2542 308.703 19.4507 308.941 19.6167C309.185 19.7827 309.713 20.029 310.527 20.3555C311.252 20.6488 311.783 20.9227 312.121 21.1772C312.458 21.4318 312.707 21.7251 312.868 22.0571C313.028 22.3892 313.108 22.7848 313.108 23.2441Z" fill="#404040"/>
</g>
<g id="&#231;&#188;&#150;&#231;&#187;&#132; 11">
<path id="1 Trainer vs. 100 Le" d="M381.272 26H378.707V18.9775L378.732 17.8237L378.773 16.562C378.347 16.9881 378.051 17.2676 377.885 17.4004L376.491 18.521L375.254 16.9771L379.164 13.8643H381.272V26ZM395.386 26H392.813V16.0059H389.518V13.8643H398.682V16.0059H395.386V26ZM405.93 16.5454C406.273 16.5454 406.558 16.5703 406.785 16.6201L406.594 18.9941C406.389 18.9388 406.14 18.9111 405.847 18.9111C405.039 18.9111 404.408 19.1187 403.954 19.5337C403.506 19.9487 403.282 20.5298 403.282 21.2769V26H400.75V16.7197H402.668L403.041 18.2803H403.166C403.454 17.7601 403.841 17.3423 404.328 17.0269C404.82 16.7059 405.354 16.5454 405.93 16.5454ZM414.764 26L414.274 24.7383H414.207C413.781 25.2751 413.341 25.6486 412.888 25.8589C412.439 26.0636 411.853 26.166 411.128 26.166C410.237 26.166 409.534 25.9115 409.019 25.4023C408.51 24.8932 408.256 24.1683 408.256 23.2275C408.256 22.2425 408.599 21.5176 409.285 21.0527C409.977 20.5824 411.017 20.3223 412.406 20.2725L414.017 20.2227V19.8159C414.017 18.8752 413.535 18.4048 412.572 18.4048C411.831 18.4048 410.959 18.6289 409.957 19.0771L409.119 17.3672C410.187 16.8083 411.371 16.5288 412.672 16.5288C413.917 16.5288 414.871 16.8 415.536 17.3423C416.2 17.8846 416.532 18.7091 416.532 19.8159V26H414.764ZM414.017 21.7002L413.037 21.7334C412.301 21.7555 411.753 21.8883 411.393 22.1318C411.034 22.3753 410.854 22.7461 410.854 23.2441C410.854 23.958 411.263 24.3149 412.082 24.3149C412.669 24.3149 413.137 24.1462 413.485 23.8086C413.839 23.471 414.017 23.0228 414.017 22.4639V21.7002ZM419.438 14.3208C419.438 13.4963 419.898 13.084 420.816 13.084C421.735 13.084 422.194 13.4963 422.194 14.3208C422.194 14.7137 422.078 15.0208 421.846 15.2422C421.619 15.458 421.276 15.5659 420.816 15.5659C419.898 15.5659 419.438 15.1509 419.438 14.3208ZM422.078 26H419.546V16.7197H422.078V26ZM433.709 26H431.177V20.5796C431.177 19.91 431.058 19.4092 430.82 19.0771C430.582 18.7396 430.203 18.5708 429.683 18.5708C428.975 18.5708 428.463 18.8088 428.148 19.2847C427.832 19.755 427.674 20.5381 427.674 21.6338V26H425.143V16.7197H427.077L427.417 17.9067H427.558C427.84 17.4585 428.228 17.1209 428.72 16.894C429.218 16.6616 429.783 16.5454 430.414 16.5454C431.493 16.5454 432.312 16.8387 432.871 17.4253C433.43 18.0063 433.709 18.8475 433.709 19.9487V26ZM440.559 18.3467C440.022 18.3467 439.601 18.5182 439.297 18.8613C438.993 19.1989 438.818 19.6803 438.774 20.3057H442.327C442.316 19.6803 442.153 19.1989 441.837 18.8613C441.522 18.5182 441.096 18.3467 440.559 18.3467ZM440.916 26.166C439.422 26.166 438.254 25.7537 437.413 24.9292C436.572 24.1047 436.151 22.937 436.151 21.4263C436.151 19.8713 436.538 18.6704 437.313 17.8237C438.093 16.9715 439.17 16.5454 440.542 16.5454C441.854 16.5454 442.875 16.9189 443.605 17.666C444.336 18.4131 444.701 19.4451 444.701 20.7622V21.9907H438.716C438.744 22.7101 438.957 23.2718 439.355 23.6758C439.754 24.0798 440.313 24.2817 441.032 24.2817C441.591 24.2817 442.119 24.2236 442.617 24.1074C443.115 23.9912 443.636 23.8058 444.178 23.5513V25.5103C443.735 25.7316 443.262 25.8949 442.758 26C442.255 26.1107 441.641 26.166 440.916 26.166ZM452.339 16.5454C452.682 16.5454 452.967 16.5703 453.194 16.6201L453.003 18.9941C452.798 18.9388 452.549 18.9111 452.256 18.9111C451.448 18.9111 450.817 19.1187 450.364 19.5337C449.915 19.9487 449.691 20.5298 449.691 21.2769V26H447.159V16.7197H449.077L449.45 18.2803H449.575C449.863 17.7601 450.25 17.3423 450.737 17.0269C451.23 16.7059 451.764 16.5454 452.339 16.5454ZM462.303 26L458.767 16.7197H461.415L463.208 22.0073C463.407 22.6769 463.532 23.3105 463.582 23.9082H463.631C463.659 23.377 463.784 22.7433 464.005 22.0073L465.79 16.7197H468.438L464.901 26H462.303ZM476.649 23.2441C476.649 24.196 476.317 24.9209 475.652 25.4189C474.994 25.917 474.006 26.166 472.689 26.166C472.014 26.166 471.438 26.119 470.963 26.0249C470.487 25.9364 470.041 25.8035 469.626 25.6265V23.5347C470.096 23.756 470.625 23.9414 471.212 24.0908C471.804 24.2402 472.324 24.3149 472.772 24.3149C473.691 24.3149 474.15 24.0493 474.15 23.5181C474.15 23.3188 474.089 23.1584 473.967 23.0366C473.846 22.9093 473.635 22.7682 473.337 22.6133C473.038 22.4528 472.639 22.2674 472.141 22.0571C471.427 21.7583 470.902 21.4816 470.564 21.2271C470.232 20.9725 469.989 20.682 469.834 20.3555C469.684 20.0234 469.609 19.6167 469.609 19.1353C469.609 18.3107 469.928 17.6743 470.564 17.2261C471.206 16.7723 472.114 16.5454 473.287 16.5454C474.405 16.5454 475.492 16.7889 476.549 17.2759L475.785 19.1021C475.32 18.9028 474.886 18.7396 474.482 18.6123C474.078 18.485 473.666 18.4214 473.245 18.4214C472.498 18.4214 472.125 18.6234 472.125 19.0273C472.125 19.2542 472.244 19.4507 472.482 19.6167C472.725 19.7827 473.254 20.029 474.067 20.3555C474.792 20.6488 475.323 20.9227 475.661 21.1772C475.998 21.4318 476.247 21.7251 476.408 22.0571C476.568 22.3892 476.649 22.7848 476.649 23.2441ZM478.667 24.813C478.667 24.3481 478.792 23.9967 479.041 23.7588C479.29 23.5208 479.652 23.4019 480.128 23.4019C480.587 23.4019 480.942 23.5236 481.191 23.7671C481.445 24.0106 481.572 24.3592 481.572 24.813C481.572 25.2502 481.445 25.596 481.191 25.8506C480.936 26.0996 480.582 26.2241 480.128 26.2241C479.663 26.2241 479.304 26.1024 479.049 25.8589C478.794 25.6099 478.667 25.2612 478.667 24.813ZM494.782 26H492.217V18.9775L492.242 17.8237L492.284 16.562C491.857 16.9881 491.561 17.2676 491.395 17.4004L490.001 18.521L488.764 16.9771L492.674 13.8643H494.782V26ZM506.969 19.9321C506.969 22.0516 506.621 23.6204 505.923 24.6387C505.232 25.6569 504.164 26.166 502.719 26.166C501.319 26.166 500.262 25.6403 499.548 24.5889C498.84 23.5374 498.486 21.9852 498.486 19.9321C498.486 17.7905 498.832 16.2134 499.523 15.2007C500.215 14.1825 501.28 13.6733 502.719 13.6733C504.119 13.6733 505.176 14.2046 505.89 15.2671C506.61 16.3296 506.969 17.8846 506.969 19.9321ZM501.034 19.9321C501.034 21.4207 501.161 22.4888 501.416 23.1362C501.676 23.7782 502.111 24.0991 502.719 24.0991C503.317 24.0991 503.749 23.7726 504.014 23.1196C504.28 22.4666 504.413 21.4041 504.413 19.9321C504.413 18.4435 504.277 17.3755 504.006 16.728C503.74 16.075 503.311 15.7485 502.719 15.7485C502.116 15.7485 501.684 16.075 501.424 16.728C501.164 17.3755 501.034 18.4435 501.034 19.9321ZM517.081 19.9321C517.081 22.0516 516.733 23.6204 516.035 24.6387C515.344 25.6569 514.275 26.166 512.831 26.166C511.431 26.166 510.374 25.6403 509.66 24.5889C508.952 23.5374 508.598 21.9852 508.598 19.9321C508.598 17.7905 508.944 16.2134 509.635 15.2007C510.327 14.1825 511.392 13.6733 512.831 13.6733C514.231 13.6733 515.288 14.2046 516.002 15.2671C516.721 16.3296 517.081 17.8846 517.081 19.9321ZM511.146 19.9321C511.146 21.4207 511.273 22.4888 511.528 23.1362C511.788 23.7782 512.222 24.0991 512.831 24.0991C513.429 24.0991 513.86 23.7726 514.126 23.1196C514.392 22.4666 514.525 21.4041 514.525 19.9321C514.525 18.4435 514.389 17.3755 514.118 16.728C513.852 16.075 513.423 15.7485 512.831 15.7485C512.228 15.7485 511.796 16.075 511.536 16.728C511.276 17.3755 511.146 18.4435 511.146 19.9321ZM524.439 26V13.8643H527.012V23.875H531.934V26H524.439ZM538.095 18.3467C537.558 18.3467 537.138 18.5182 536.833 18.8613C536.529 19.1989 536.355 19.6803 536.31 20.3057H539.863C539.852 19.6803 539.689 19.1989 539.373 18.8613C539.058 18.5182 538.632 18.3467 538.095 18.3467ZM538.452 26.166C536.958 26.166 535.79 25.7537 534.949 24.9292C534.108 24.1047 533.687 22.937 533.687 21.4263C533.687 19.8713 534.075 18.6704 534.85 17.8237C535.63 16.9715 536.706 16.5454 538.079 16.5454C539.39 16.5454 540.411 16.9189 541.142 17.666C541.872 18.4131 542.237 19.4451 542.237 20.7622V21.9907H536.252C536.28 22.7101 536.493 23.2718 536.892 23.6758C537.29 24.0798 537.849 24.2817 538.568 24.2817C539.127 24.2817 539.656 24.2236 540.154 24.1074C540.652 23.9912 541.172 23.8058 541.714 23.5513V25.5103C541.272 25.7316 540.798 25.8949 540.295 26C539.791 26.1107 539.177 26.166 538.452 26.166ZM550.589 26L550.1 24.7383H550.033C549.607 25.2751 549.167 25.6486 548.713 25.8589C548.265 26.0636 547.679 26.166 546.954 26.166C546.063 26.166 545.36 25.9115 544.845 25.4023C544.336 24.8932 544.082 24.1683 544.082 23.2275C544.082 22.2425 544.425 21.5176 545.111 21.0527C545.803 20.5824 546.843 20.3223 548.232 20.2725L549.842 20.2227V19.8159C549.842 18.8752 549.361 18.4048 548.398 18.4048C547.656 18.4048 546.785 18.6289 545.783 19.0771L544.945 17.3672C546.013 16.8083 547.197 16.5288 548.498 16.5288C549.743 16.5288 550.697 16.8 551.361 17.3423C552.025 17.8846 552.357 18.7091 552.357 19.8159V26H550.589ZM549.842 21.7002L548.863 21.7334C548.127 21.7555 547.579 21.8883 547.219 22.1318C546.86 22.3753 546.68 22.7461 546.68 23.2441C546.68 23.958 547.089 24.3149 547.908 24.3149C548.495 24.3149 548.962 24.1462 549.311 23.8086C549.665 23.471 549.842 23.0228 549.842 22.4639V21.7002ZM560.552 16.5454C560.895 16.5454 561.18 16.5703 561.407 16.6201L561.216 18.9941C561.011 18.9388 560.762 18.9111 560.469 18.9111C559.661 18.9111 559.03 19.1187 558.576 19.5337C558.128 19.9487 557.904 20.5298 557.904 21.2769V26H555.372V16.7197H557.29L557.663 18.2803H557.788C558.075 17.7601 558.463 17.3423 558.95 17.0269C559.442 16.7059 559.976 16.5454 560.552 16.5454ZM572.058 26H569.527V20.5796C569.527 19.91 569.408 19.4092 569.17 19.0771C568.932 18.7396 568.553 18.5708 568.032 18.5708C567.324 18.5708 566.812 18.8088 566.497 19.2847C566.181 19.755 566.024 20.5381 566.024 21.6338V26H563.492V16.7197H565.426L565.766 17.9067H565.907C566.19 17.4585 566.577 17.1209 567.07 16.894C567.568 16.6616 568.132 16.5454 568.763 16.5454C569.842 16.5454 570.661 16.8387 571.22 17.4253C571.779 18.0063 572.058 18.8475 572.058 19.9487V26ZM578.908 18.3467C578.371 18.3467 577.951 18.5182 577.646 18.8613C577.342 19.1989 577.168 19.6803 577.123 20.3057H580.676C580.665 19.6803 580.502 19.1989 580.186 18.8613C579.871 18.5182 579.445 18.3467 578.908 18.3467ZM579.265 26.166C577.771 26.166 576.603 25.7537 575.762 24.9292C574.921 24.1047 574.5 22.937 574.5 21.4263C574.5 19.8713 574.888 18.6704 575.662 17.8237C576.443 16.9715 577.519 16.5454 578.891 16.5454C580.203 16.5454 581.224 16.9189 581.954 17.666C582.685 18.4131 583.05 19.4451 583.05 20.7622V21.9907H577.065C577.093 22.7101 577.306 23.2718 577.704 23.6758C578.103 24.0798 578.662 24.2817 579.381 24.2817C579.94 24.2817 580.469 24.2236 580.967 24.1074C581.465 23.9912 581.985 23.8058 582.527 23.5513V25.5103C582.084 25.7316 581.611 25.8949 581.108 26C580.604 26.1107 579.99 26.166 579.265 26.166ZM590.688 16.5454C591.031 16.5454 591.316 16.5703 591.543 16.6201L591.352 18.9941C591.148 18.9388 590.899 18.9111 590.605 18.9111C589.797 18.9111 589.167 19.1187 588.713 19.5337C588.265 19.9487 588.04 20.5298 588.04 21.2769V26H585.509V16.7197H587.426L587.8 18.2803H587.924C588.212 17.7601 588.599 17.3423 589.086 17.0269C589.579 16.7059 590.113 16.5454 590.688 16.5454ZM600.103 23.2441C600.103 24.196 599.771 24.9209 599.107 25.4189C598.448 25.917 597.461 26.166 596.144 26.166C595.468 26.166 594.893 26.119 594.417 26.0249C593.941 25.9364 593.496 25.8035 593.081 25.6265V23.5347C593.551 23.756 594.079 23.9414 594.666 24.0908C595.258 24.2402 595.778 24.3149 596.227 24.3149C597.145 24.3149 597.604 24.0493 597.604 23.5181C597.604 23.3188 597.544 23.1584 597.422 23.0366C597.3 22.9093 597.09 22.7682 596.791 22.6133C596.492 22.4528 596.094 22.2674 595.596 22.0571C594.882 21.7583 594.356 21.4816 594.019 21.2271C593.687 20.9725 593.443 20.682 593.288 20.3555C593.139 20.0234 593.064 19.6167 593.064 19.1353C593.064 18.3107 593.382 17.6743 594.019 17.2261C594.66 16.7723 595.568 16.5454 596.741 16.5454C597.859 16.5454 598.946 16.7889 600.003 17.2759L599.24 19.1021C598.775 18.9028 598.34 18.7396 597.937 18.6123C597.533 18.485 597.12 18.4214 596.7 18.4214C595.953 18.4214 595.579 18.6234 595.579 19.0273C595.579 19.2542 595.698 19.4507 595.936 19.6167C596.18 19.7827 596.708 20.029 597.521 20.3555C598.246 20.6488 598.778 20.9227 599.115 21.1772C599.453 21.4318 599.702 21.7251 599.862 22.0571C600.023 22.3892 600.103 22.7848 600.103 23.2441Z" fill="#404040"/>
<rect id="&#231;&#159;&#169;&#229;&#189;&#162;_3" x="352" width="271" height="39" rx="10" fill="#1051F4" fill-opacity="0.1"/>
</g>
</g>
<g id="&#231;&#188;&#150;&#231;&#187;&#132; 17">
<g id="&#231;&#188;&#150;&#231;&#187;&#132; 12">
<rect id="&#231;&#159;&#169;&#229;&#189;&#162;_4" x="3" y="58" width="204" height="39" rx="10" fill="#1051F4" fill-opacity="0.1"/>
<path id="Webinar via Zoom" d="M38.3477 84H35.4175L33.7739 77.625C33.7131 77.3981 33.6079 76.9305 33.4585 76.2222C33.3146 75.5083 33.2316 75.0296 33.2095 74.7861C33.1763 75.085 33.0933 75.5664 32.9604 76.2305C32.8276 76.889 32.7253 77.3594 32.6533 77.6416L31.0181 84H28.0962L25 71.8643H27.5317L29.084 78.4883C29.3551 79.7113 29.5516 80.771 29.6733 81.6675C29.7065 81.3521 29.7812 80.8651 29.8975 80.2065C30.0192 79.5425 30.1326 79.0278 30.2378 78.6626L32.0059 71.8643H34.438L36.2061 78.6626C36.2835 78.967 36.3804 79.4318 36.4966 80.0571C36.6128 80.6825 36.7013 81.2192 36.7622 81.6675C36.8175 81.2358 36.9061 80.6991 37.0278 80.0571C37.1496 79.4097 37.2603 78.8867 37.3599 78.4883L38.9038 71.8643H41.4355L38.3477 84ZM47.0069 76.3467C46.4701 76.3467 46.0496 76.5182 45.7452 76.8613C45.4409 77.1989 45.2665 77.6803 45.2223 78.3057H48.775C48.7639 77.6803 48.6007 77.1989 48.2853 76.8613C47.9698 76.5182 47.5437 76.3467 47.0069 76.3467ZM47.3639 84.166C45.8697 84.166 44.7021 83.7537 43.8609 82.9292C43.0198 82.1047 42.5992 80.937 42.5992 79.4263C42.5992 77.8713 42.9866 76.6704 43.7613 75.8237C44.5416 74.9715 45.6179 74.5454 46.9903 74.5454C48.3019 74.5454 49.3229 74.9189 50.0533 75.666C50.7838 76.4131 51.149 77.4451 51.149 78.7622V79.9907H45.1642C45.1918 80.7101 45.4049 81.2718 45.8033 81.6758C46.2018 82.0798 46.7607 82.2817 47.4801 82.2817C48.039 82.2817 48.5675 82.2236 49.0655 82.1074C49.5636 81.9912 50.0838 81.8058 50.6261 81.5513V83.5103C50.1834 83.7316 49.7102 83.8949 49.2066 84C48.7031 84.1107 48.0888 84.166 47.3639 84.166ZM58.7707 74.5454C59.8664 74.5454 60.7242 74.9743 61.3439 75.832C61.9637 76.6842 62.2736 77.8547 62.2736 79.3433C62.2736 80.8761 61.9527 82.0632 61.3107 82.9043C60.6743 83.7454 59.8055 84.166 58.7043 84.166C57.6141 84.166 56.7591 83.7703 56.1394 82.979H55.965L55.5417 84H53.6076V71.084H56.1394V74.0889C56.1394 74.4707 56.1062 75.0822 56.0397 75.9233H56.1394C56.7315 75.0047 57.6086 74.5454 58.7707 74.5454ZM57.9572 76.5708C57.3319 76.5708 56.8754 76.7645 56.5876 77.1519C56.2998 77.5337 56.1504 78.1673 56.1394 79.0527V79.3267C56.1394 80.3228 56.286 81.0366 56.5793 81.4683C56.8781 81.8999 57.3485 82.1157 57.9904 82.1157C58.5106 82.1157 58.9229 81.8778 59.2272 81.4019C59.5371 80.9204 59.6921 80.2231 59.6921 79.3101C59.6921 78.397 59.5371 77.7135 59.2272 77.2598C58.9173 76.8005 58.494 76.5708 57.9572 76.5708ZM64.6575 72.3208C64.6575 71.4963 65.1168 71.084 66.0354 71.084C66.9541 71.084 67.4134 71.4963 67.4134 72.3208C67.4134 72.7137 67.2972 73.0208 67.0647 73.2422C66.8379 73.458 66.4948 73.5659 66.0354 73.5659C65.1168 73.5659 64.6575 73.1509 64.6575 72.3208ZM67.2972 84H64.7654V74.7197H67.2972V84ZM78.9281 84H76.3964V78.5796C76.3964 77.91 76.2774 77.4092 76.0395 77.0771C75.8015 76.7396 75.4224 76.5708 74.9022 76.5708C74.1939 76.5708 73.682 76.8088 73.3666 77.2847C73.0512 77.755 72.8935 78.5381 72.8935 79.6338V84H70.3617V74.7197H72.2958L72.6361 75.9067H72.7772C73.0595 75.4585 73.4468 75.1209 73.9394 74.894C74.4374 74.6616 75.0019 74.5454 75.6327 74.5454C76.7118 74.5454 77.5308 74.8387 78.0897 75.4253C78.6487 76.0063 78.9281 76.8475 78.9281 77.9487V84ZM87.8281 84L87.3384 82.7383H87.272C86.8459 83.2751 86.4059 83.6486 85.9521 83.8589C85.5039 84.0636 84.9173 84.166 84.1924 84.166C83.3014 84.166 82.5986 83.9115 82.084 83.4023C81.5749 82.8932 81.3203 82.1683 81.3203 81.2275C81.3203 80.2425 81.6634 79.5176 82.3496 79.0527C83.0413 78.5824 84.0817 78.3223 85.4707 78.2725L87.0811 78.2227V77.8159C87.0811 76.8752 86.5996 76.4048 85.6367 76.4048C84.8952 76.4048 84.0236 76.6289 83.022 77.0771L82.1836 75.3672C83.2516 74.8083 84.4359 74.5288 85.7363 74.5288C86.9814 74.5288 87.936 74.8 88.6001 75.3423C89.2642 75.8846 89.5962 76.7091 89.5962 77.8159V84H87.8281ZM87.0811 79.7002L86.1016 79.7334C85.3656 79.7555 84.8177 79.8883 84.458 80.1318C84.0983 80.3753 83.9185 80.7461 83.9185 81.2441C83.9185 81.958 84.328 82.3149 85.147 82.3149C85.7336 82.3149 86.2012 82.1462 86.5498 81.8086C86.904 81.471 87.0811 81.0228 87.0811 80.4639V79.7002ZM97.7906 74.5454C98.1337 74.5454 98.4187 74.5703 98.6456 74.6201L98.4547 76.9941C98.2499 76.9388 98.0009 76.9111 97.7076 76.9111C96.8997 76.9111 96.2688 77.1187 95.815 77.5337C95.3668 77.9487 95.1427 78.5298 95.1427 79.2769V84H92.6109V74.7197H94.5284L94.902 76.2803H95.0265C95.3142 75.7601 95.7016 75.3423 96.1886 75.0269C96.6811 74.7059 97.2151 74.5454 97.7906 74.5454ZM107.755 84L104.219 74.7197H106.867L108.659 80.0073C108.859 80.6769 108.983 81.3105 109.033 81.9082H109.083C109.11 81.377 109.235 80.7433 109.456 80.0073L111.241 74.7197H113.889L110.353 84H107.755ZM115.517 72.3208C115.517 71.4963 115.977 71.084 116.895 71.084C117.814 71.084 118.273 71.4963 118.273 72.3208C118.273 72.7137 118.157 73.0208 117.925 73.2422C117.698 73.458 117.355 73.5659 116.895 73.5659C115.977 73.5659 115.517 73.1509 115.517 72.3208ZM118.157 84H115.625V74.7197H118.157V84ZM127.115 84L126.625 82.7383H126.559C126.133 83.2751 125.693 83.6486 125.239 83.8589C124.791 84.0636 124.204 84.166 123.479 84.166C122.589 84.166 121.886 83.9115 121.371 83.4023C120.862 82.8932 120.607 82.1683 120.607 81.2275C120.607 80.2425 120.951 79.5176 121.637 79.0527C122.328 78.5824 123.369 78.3223 124.758 78.2725L126.368 78.2227V77.8159C126.368 76.8752 125.887 76.4048 124.924 76.4048C124.182 76.4048 123.311 76.6289 122.309 77.0771L121.471 75.3672C122.539 74.8083 123.723 74.5288 125.023 74.5288C126.269 74.5288 127.223 74.8 127.887 75.3423C128.551 75.8846 128.883 76.7091 128.883 77.8159V84H127.115ZM126.368 79.7002L125.389 79.7334C124.653 79.7555 124.105 79.8883 123.745 80.1318C123.385 80.3753 123.206 80.7461 123.206 81.2441C123.206 81.958 123.615 82.3149 124.434 82.3149C125.021 82.3149 125.488 82.1462 125.837 81.8086C126.191 81.471 126.368 81.0228 126.368 80.4639V79.7002ZM144.824 84H135.793V82.3315L141.612 73.9893H135.95V71.8643H144.666V73.5244L138.856 81.875H144.824V84ZM148.976 79.3433C148.976 80.2619 149.125 80.9564 149.424 81.4268C149.728 81.8971 150.221 82.1323 150.902 82.1323C151.577 82.1323 152.061 81.8999 152.354 81.4351C152.653 80.9647 152.803 80.2674 152.803 79.3433C152.803 78.4246 152.653 77.7357 152.354 77.2764C152.055 76.8171 151.566 76.5874 150.885 76.5874C150.21 76.5874 149.723 76.8171 149.424 77.2764C149.125 77.7301 148.976 78.4191 148.976 79.3433ZM155.392 79.3433C155.392 80.854 154.994 82.0355 154.197 82.8877C153.4 83.7399 152.291 84.166 150.868 84.166C149.978 84.166 149.192 83.9723 148.511 83.585C147.83 83.1921 147.307 82.6304 146.942 81.8999C146.577 81.1694 146.394 80.3172 146.394 79.3433C146.394 77.827 146.79 76.6483 147.581 75.8071C148.373 74.966 149.485 74.5454 150.918 74.5454C151.809 74.5454 152.595 74.7391 153.276 75.1265C153.956 75.5138 154.479 76.07 154.845 76.7949C155.21 77.5199 155.392 78.3693 155.392 79.3433ZM159.901 79.3433C159.901 80.2619 160.051 80.9564 160.35 81.4268C160.654 81.8971 161.146 82.1323 161.827 82.1323C162.502 82.1323 162.986 81.8999 163.28 81.4351C163.579 80.9647 163.728 80.2674 163.728 79.3433C163.728 78.4246 163.579 77.7357 163.28 77.2764C162.981 76.8171 162.491 76.5874 161.81 76.5874C161.135 76.5874 160.648 76.8171 160.35 77.2764C160.051 77.7301 159.901 78.4191 159.901 79.3433ZM166.318 79.3433C166.318 80.854 165.919 82.0355 165.122 82.8877C164.326 83.7399 163.216 84.166 161.794 84.166C160.903 84.166 160.117 83.9723 159.436 83.585C158.756 83.1921 158.233 82.6304 157.868 81.8999C157.502 81.1694 157.32 80.3172 157.32 79.3433C157.32 77.827 157.715 76.6483 158.507 75.8071C159.298 74.966 160.41 74.5454 161.844 74.5454C162.735 74.5454 163.52 74.7391 164.201 75.1265C164.882 75.5138 165.405 76.07 165.77 76.7949C166.135 77.5199 166.318 78.3693 166.318 79.3433ZM177.119 84H174.587V78.5796C174.587 77.91 174.473 77.4092 174.247 77.0771C174.025 76.7396 173.674 76.5708 173.192 76.5708C172.545 76.5708 172.075 76.8088 171.781 77.2847C171.488 77.7606 171.341 78.5436 171.341 79.6338V84H168.81V74.7197H170.744L171.084 75.9067H171.225C171.474 75.4806 171.834 75.1486 172.304 74.9106C172.775 74.6672 173.314 74.5454 173.923 74.5454C175.312 74.5454 176.253 74.9992 176.745 75.9067H176.969C177.218 75.4751 177.583 75.1403 178.065 74.9023C178.552 74.6644 179.1 74.5454 179.708 74.5454C180.76 74.5454 181.554 74.8166 182.091 75.3589C182.633 75.8957 182.904 76.759 182.904 77.9487V84H180.364V78.5796C180.364 77.91 180.251 77.4092 180.024 77.0771C179.803 76.7396 179.451 76.5708 178.97 76.5708C178.35 76.5708 177.885 76.7922 177.575 77.2349C177.271 77.6776 177.119 78.3804 177.119 79.3433V84Z" fill="#404040"/>
</g>
<g id="&#231;&#188;&#150;&#231;&#187;&#132; 14">
<rect id="&#231;&#159;&#169;&#229;&#189;&#162;_5" x="223" y="58" width="241" height="39" rx="10" fill="#1051F4" fill-opacity="0.1"/>
<path id="Voluntary lab practi" d="M253.45 71.8643H256.048L251.923 84H249.117L245 71.8643H247.598L249.881 79.0859C250.008 79.512 250.138 80.0101 250.271 80.5801C250.409 81.1445 250.495 81.5374 250.528 81.7588C250.589 81.2497 250.797 80.3587 251.151 79.0859L253.45 71.8643ZM259.802 79.3433C259.802 80.2619 259.951 80.9564 260.25 81.4268C260.554 81.8971 261.047 82.1323 261.728 82.1323C262.403 82.1323 262.887 81.8999 263.18 81.4351C263.479 80.9647 263.629 80.2674 263.629 79.3433C263.629 78.4246 263.479 77.7357 263.18 77.2764C262.881 76.8171 262.392 76.5874 261.711 76.5874C261.036 76.5874 260.549 76.8171 260.25 77.2764C259.951 77.7301 259.802 78.4191 259.802 79.3433ZM266.218 79.3433C266.218 80.854 265.82 82.0355 265.023 82.8877C264.226 83.7399 263.117 84.166 261.694 84.166C260.803 84.166 260.018 83.9723 259.337 83.585C258.656 83.1921 258.133 82.6304 257.768 81.8999C257.403 81.1694 257.22 80.3172 257.22 79.3433C257.22 77.827 257.616 76.6483 258.407 75.8071C259.199 74.966 260.311 74.5454 261.744 74.5454C262.635 74.5454 263.421 74.7391 264.102 75.1265C264.782 75.5138 265.305 76.07 265.671 76.7949C266.036 77.5199 266.218 78.3693 266.218 79.3433ZM271.242 84H268.71V71.084H271.242V84ZM280.881 84L280.54 82.813H280.408C280.136 83.2446 279.752 83.5794 279.254 83.8174C278.756 84.0498 278.188 84.166 277.552 84.166C276.462 84.166 275.64 83.8755 275.087 83.2944C274.533 82.7078 274.257 81.8667 274.257 80.771V74.7197H276.788V80.1401C276.788 80.8097 276.907 81.3133 277.145 81.6509C277.383 81.9829 277.762 82.1489 278.283 82.1489C278.991 82.1489 279.503 81.9137 279.818 81.4434C280.134 80.9674 280.291 80.1816 280.291 79.0859V74.7197H282.823V84H280.881ZM294.446 84H291.914V78.5796C291.914 77.91 291.795 77.4092 291.557 77.0771C291.319 76.7396 290.94 76.5708 290.42 76.5708C289.711 76.5708 289.2 76.8088 288.884 77.2847C288.569 77.755 288.411 78.5381 288.411 79.6338V84H285.879V74.7197H287.813L288.154 75.9067H288.295C288.577 75.4585 288.964 75.1209 289.457 74.894C289.955 74.6616 290.519 74.5454 291.15 74.5454C292.229 74.5454 293.048 74.8387 293.607 75.4253C294.166 76.0063 294.446 76.8475 294.446 77.9487V84ZM301.362 82.1489C301.805 82.1489 302.336 82.0521 302.956 81.8584V83.7427C302.325 84.0249 301.55 84.166 300.631 84.166C299.619 84.166 298.88 83.9115 298.415 83.4023C297.956 82.8877 297.726 82.1185 297.726 81.0947V76.6206H296.514V75.5498L297.909 74.7031L298.639 72.7441H300.258V74.7197H302.856V76.6206H300.258V81.0947C300.258 81.4544 300.357 81.7201 300.557 81.8916C300.761 82.0632 301.03 82.1489 301.362 82.1489ZM311.133 84L310.644 82.7383H310.577C310.151 83.2751 309.711 83.6486 309.257 83.8589C308.809 84.0636 308.223 84.166 307.498 84.166C306.607 84.166 305.904 83.9115 305.389 83.4023C304.88 82.8932 304.626 82.1683 304.626 81.2275C304.626 80.2425 304.969 79.5176 305.655 79.0527C306.347 78.5824 307.387 78.3223 308.776 78.2725L310.386 78.2227V77.8159C310.386 76.8752 309.905 76.4048 308.942 76.4048C308.2 76.4048 307.329 76.6289 306.327 77.0771L305.489 75.3672C306.557 74.8083 307.741 74.5288 309.042 74.5288C310.287 74.5288 311.241 74.8 311.905 75.3423C312.569 75.8846 312.901 76.7091 312.901 77.8159V84H311.133ZM310.386 79.7002L309.407 79.7334C308.671 79.7555 308.123 79.8883 307.763 80.1318C307.404 80.3753 307.224 80.7461 307.224 81.2441C307.224 81.958 307.633 82.3149 308.452 82.3149C309.039 82.3149 309.506 82.1462 309.855 81.8086C310.209 81.471 310.386 81.0228 310.386 80.4639V79.7002ZM321.096 74.5454C321.439 74.5454 321.724 74.5703 321.951 74.6201L321.76 76.9941C321.555 76.9388 321.306 76.9111 321.013 76.9111C320.205 76.9111 319.574 77.1187 319.12 77.5337C318.672 77.9487 318.448 78.5298 318.448 79.2769V84H315.916V74.7197H317.834L318.207 76.2803H318.332C318.62 75.7601 319.007 75.3423 319.494 75.0269C319.986 74.7059 320.52 74.5454 321.096 74.5454ZM322.708 74.7197H325.48L327.232 79.9409C327.381 80.3947 327.484 80.9315 327.539 81.5513H327.589C327.65 80.9813 327.769 80.4445 327.946 79.9409L329.664 74.7197H332.378L328.452 85.187C328.092 86.1554 327.578 86.8804 326.908 87.3618C326.244 87.8433 325.466 88.084 324.575 88.084C324.138 88.084 323.709 88.0369 323.289 87.9429V85.9341C323.593 86.006 323.925 86.042 324.285 86.042C324.733 86.042 325.123 85.9036 325.455 85.627C325.793 85.3558 326.056 84.9435 326.244 84.3901L326.393 83.9336L322.708 74.7197ZM341.462 84H338.931V71.084H341.462V84ZM350.421 84L349.931 82.7383H349.864C349.438 83.2751 348.998 83.6486 348.545 83.8589C348.096 84.0636 347.51 84.166 346.785 84.166C345.894 84.166 345.191 83.9115 344.676 83.4023C344.167 82.8932 343.913 82.1683 343.913 81.2275C343.913 80.2425 344.256 79.5176 344.942 79.0527C345.634 78.5824 346.674 78.3223 348.063 78.2725L349.673 78.2227V77.8159C349.673 76.8752 349.192 76.4048 348.229 76.4048C347.488 76.4048 346.616 76.6289 345.614 77.0771L344.776 75.3672C345.844 74.8083 347.028 74.5288 348.329 74.5288C349.574 74.5288 350.528 74.8 351.192 75.3423C351.857 75.8846 352.189 76.7091 352.189 77.8159V84H350.421ZM349.673 79.7002L348.694 79.7334C347.958 79.7555 347.41 79.8883 347.05 80.1318C346.691 80.3753 346.511 80.7461 346.511 81.2441C346.511 81.958 346.92 82.3149 347.739 82.3149C348.326 82.3149 348.794 82.1462 349.142 81.8086C349.496 81.471 349.673 81.0228 349.673 80.4639V79.7002ZM360.366 74.5454C361.462 74.5454 362.32 74.9743 362.94 75.832C363.559 76.6842 363.869 77.8547 363.869 79.3433C363.869 80.8761 363.548 82.0632 362.906 82.9043C362.27 83.7454 361.401 84.166 360.3 84.166C359.21 84.166 358.355 83.7703 357.735 82.979H357.561L357.137 84H355.203V71.084H357.735V74.0889C357.735 74.4707 357.702 75.0822 357.635 75.9233H357.735C358.327 75.0047 359.204 74.5454 360.366 74.5454ZM359.553 76.5708C358.928 76.5708 358.471 76.7645 358.183 77.1519C357.896 77.5337 357.746 78.1673 357.735 79.0527V79.3267C357.735 80.3228 357.882 81.0366 358.175 81.4683C358.474 81.8999 358.944 82.1157 359.586 82.1157C360.106 82.1157 360.519 81.8778 360.823 81.4019C361.133 80.9204 361.288 80.2231 361.288 79.3101C361.288 78.397 361.133 77.7135 360.823 77.2598C360.513 76.8005 360.09 76.5708 359.553 76.5708ZM376.274 84.166C375.184 84.166 374.329 83.7703 373.709 82.979H373.576C373.665 83.7537 373.709 84.202 373.709 84.3237V88.084H371.177V74.7197H373.236L373.593 75.9233H373.709C374.301 75.0047 375.178 74.5454 376.34 74.5454C377.436 74.5454 378.294 74.9688 378.913 75.8154C379.533 76.6621 379.843 77.8381 379.843 79.3433C379.843 80.3338 379.697 81.1943 379.403 81.9248C379.115 82.6553 378.703 83.2114 378.166 83.5933C377.63 83.9751 376.999 84.166 376.274 84.166ZM375.527 76.5708C374.901 76.5708 374.445 76.7645 374.157 77.1519C373.869 77.5337 373.72 78.1673 373.709 79.0527V79.3267C373.709 80.3228 373.856 81.0366 374.149 81.4683C374.448 81.8999 374.918 82.1157 375.56 82.1157C376.694 82.1157 377.262 81.1805 377.262 79.3101C377.262 78.397 377.121 77.7135 376.838 77.2598C376.562 76.8005 376.124 76.5708 375.527 76.5708ZM387.515 74.5454C387.858 74.5454 388.143 74.5703 388.37 74.6201L388.179 76.9941C387.974 76.9388 387.725 76.9111 387.432 76.9111C386.624 76.9111 385.993 77.1187 385.539 77.5337C385.091 77.9487 384.867 78.5298 384.867 79.2769V84H382.335V74.7197H384.252L384.626 76.2803H384.75C385.038 75.7601 385.426 75.3423 385.913 75.0269C386.405 74.7059 386.939 74.5454 387.515 74.5454ZM396.348 84L395.858 82.7383H395.792C395.366 83.2751 394.926 83.6486 394.472 83.8589C394.024 84.0636 393.437 84.166 392.712 84.166C391.822 84.166 391.119 83.9115 390.604 83.4023C390.095 82.8932 389.84 82.1683 389.84 81.2275C389.84 80.2425 390.184 79.5176 390.87 79.0527C391.561 78.5824 392.602 78.3223 393.991 78.2725L395.601 78.2227V77.8159C395.601 76.8752 395.12 76.4048 394.157 76.4048C393.415 76.4048 392.544 76.6289 391.542 77.0771L390.704 75.3672C391.772 74.8083 392.956 74.5288 394.256 74.5288C395.502 74.5288 396.456 74.8 397.12 75.3423C397.784 75.8846 398.116 76.7091 398.116 77.8159V84H396.348ZM395.601 79.7002L394.622 79.7334C393.886 79.7555 393.338 79.8883 392.978 80.1318C392.618 80.3753 392.439 80.7461 392.439 81.2441C392.439 81.958 392.848 82.3149 393.667 82.3149C394.254 82.3149 394.721 82.1462 395.07 81.8086C395.424 81.471 395.601 81.0228 395.601 80.4639V79.7002ZM404.9 84.166C402.011 84.166 400.567 82.5806 400.567 79.4097C400.567 77.8325 400.96 76.6289 401.745 75.7988C402.531 74.9632 403.657 74.5454 405.124 74.5454C406.197 74.5454 407.16 74.7557 408.012 75.1763L407.265 77.1353C406.867 76.9748 406.496 76.8447 406.153 76.7451C405.81 76.64 405.467 76.5874 405.124 76.5874C403.807 76.5874 403.148 77.5226 403.148 79.3931C403.148 81.2082 403.807 82.1157 405.124 82.1157C405.611 82.1157 406.062 82.0521 406.477 81.9248C406.892 81.792 407.307 81.5872 407.722 81.3105V83.4771C407.312 83.7371 406.897 83.917 406.477 84.0166C406.062 84.1162 405.536 84.166 404.9 84.166ZM414.19 82.1489C414.632 82.1489 415.164 82.0521 415.783 81.8584V83.7427C415.153 84.0249 414.378 84.166 413.459 84.166C412.447 84.166 411.708 83.9115 411.243 83.4023C410.784 82.8877 410.554 82.1185 410.554 81.0947V76.6206H409.342V75.5498L410.737 74.7031L411.467 72.7441H413.086V74.7197H415.684V76.6206H413.086V81.0947C413.086 81.4544 413.185 81.7201 413.385 81.8916C413.589 82.0632 413.858 82.1489 414.19 82.1489ZM417.96 72.3208C417.96 71.4963 418.419 71.084 419.338 71.084C420.256 71.084 420.716 71.4963 420.716 72.3208C420.716 72.7137 420.6 73.0208 420.367 73.2422C420.14 73.458 419.797 73.5659 419.338 73.5659C418.419 73.5659 417.96 73.1509 417.96 72.3208ZM420.6 84H418.068V74.7197H420.6V84ZM427.433 84.166C424.544 84.166 423.1 82.5806 423.1 79.4097C423.1 77.8325 423.493 76.6289 424.278 75.7988C425.064 74.9632 426.19 74.5454 427.657 74.5454C428.73 74.5454 429.693 74.7557 430.545 75.1763L429.798 77.1353C429.4 76.9748 429.029 76.8447 428.686 76.7451C428.343 76.64 428 76.5874 427.657 76.5874C426.34 76.5874 425.681 77.5226 425.681 79.3931C425.681 81.2082 426.34 82.1157 427.657 82.1157C428.144 82.1157 428.595 82.0521 429.01 81.9248C429.425 81.792 429.84 81.5872 430.255 81.3105V83.4771C429.845 83.7371 429.43 83.917 429.01 84.0166C428.595 84.1162 428.069 84.166 427.433 84.166ZM436.656 76.3467C436.12 76.3467 435.699 76.5182 435.395 76.8613C435.09 77.1989 434.916 77.6803 434.872 78.3057H438.424C438.413 77.6803 438.25 77.1989 437.935 76.8613C437.619 76.5182 437.193 76.3467 436.656 76.3467ZM437.013 84.166C435.519 84.166 434.351 83.7537 433.51 82.9292C432.669 82.1047 432.249 80.937 432.249 79.4263C432.249 77.8713 432.636 76.6704 433.411 75.8237C434.191 74.9715 435.267 74.5454 436.64 74.5454C437.951 74.5454 438.972 74.9189 439.703 75.666C440.433 76.4131 440.798 77.4451 440.798 78.7622V79.9907H434.814C434.841 80.7101 435.054 81.2718 435.453 81.6758C435.851 82.0798 436.41 82.2817 437.129 82.2817C437.688 82.2817 438.217 82.2236 438.715 82.1074C439.213 81.9912 439.733 81.8058 440.275 81.5513V83.5103C439.833 83.7316 439.36 83.8949 438.856 84C438.352 84.1107 437.738 84.166 437.013 84.166Z" fill="#404040"/>
</g>
<g id="&#231;&#188;&#150;&#231;&#187;&#132; 13">
<rect id="&#231;&#159;&#169;&#229;&#189;&#162;_6" x="480" y="58" width="140" height="39" rx="10" fill="#1051F4" fill-opacity="0.1"/>
<path id="Final Exam" d="M506.059 84H503.527V71.8643H510.483V73.9727H506.059V77.1021H510.176V79.2021H506.059V84ZM512.95 72.3208C512.95 71.4963 513.41 71.084 514.328 71.084C515.247 71.084 515.706 71.4963 515.706 72.3208C515.706 72.7137 515.59 73.0208 515.358 73.2422C515.131 73.458 514.788 73.5659 514.328 73.5659C513.41 73.5659 512.95 73.1509 512.95 72.3208ZM515.59 84H513.058V74.7197H515.59V84ZM527.221 84H524.689V78.5796C524.689 77.91 524.57 77.4092 524.332 77.0771C524.094 76.7396 523.715 76.5708 523.195 76.5708C522.487 76.5708 521.975 76.8088 521.659 77.2847C521.344 77.755 521.186 78.5381 521.186 79.6338V84H518.654V74.7197H520.589L520.929 75.9067H521.07C521.352 75.4585 521.74 75.1209 522.232 74.894C522.73 74.6616 523.295 74.5454 523.925 74.5454C525.005 74.5454 525.824 74.8387 526.383 75.4253C526.941 76.0063 527.221 76.8475 527.221 77.9487V84ZM536.121 84L535.631 82.7383H535.565C535.139 83.2751 534.699 83.6486 534.245 83.8589C533.797 84.0636 533.21 84.166 532.485 84.166C531.594 84.166 530.891 83.9115 530.377 83.4023C529.868 82.8932 529.613 82.1683 529.613 81.2275C529.613 80.2425 529.956 79.5176 530.642 79.0527C531.334 78.5824 532.374 78.3223 533.763 78.2725L535.374 78.2227V77.8159C535.374 76.8752 534.892 76.4048 533.929 76.4048C533.188 76.4048 532.316 76.6289 531.315 77.0771L530.476 75.3672C531.544 74.8083 532.729 74.5288 534.029 74.5288C535.274 74.5288 536.229 74.8 536.893 75.3423C537.557 75.8846 537.889 76.7091 537.889 77.8159V84H536.121ZM535.374 79.7002L534.394 79.7334C533.658 79.7555 533.11 79.8883 532.751 80.1318C532.391 80.3753 532.211 80.7461 532.211 81.2441C532.211 81.958 532.621 82.3149 533.44 82.3149C534.026 82.3149 534.494 82.1462 534.843 81.8086C535.197 81.471 535.374 81.0228 535.374 80.4639V79.7002ZM543.435 84H540.904V71.084H543.435V84ZM558.504 84H551.515V71.8643H558.504V73.9727H554.088V76.6372H558.197V78.7456H554.088V81.875H558.504V84ZM563.146 79.2603L560.158 74.7197H563.03L564.831 77.6748L566.649 74.7197H569.521L566.5 79.2603L569.662 84H566.782L564.831 80.8208L562.872 84H560L563.146 79.2603ZM577.367 84L576.877 82.7383H576.811C576.385 83.2751 575.945 83.6486 575.491 83.8589C575.043 84.0636 574.456 84.166 573.731 84.166C572.84 84.166 572.137 83.9115 571.623 83.4023C571.114 82.8932 570.859 82.1683 570.859 81.2275C570.859 80.2425 571.202 79.5176 571.888 79.0527C572.58 78.5824 573.621 78.3223 575.01 78.2725L576.62 78.2227V77.8159C576.62 76.8752 576.138 76.4048 575.176 76.4048C574.434 76.4048 573.562 76.6289 572.561 77.0771L571.722 75.3672C572.79 74.8083 573.975 74.5288 575.275 74.5288C576.52 74.5288 577.475 74.8 578.139 75.3423C578.803 75.8846 579.135 76.7091 579.135 77.8159V84H577.367ZM576.62 79.7002L575.64 79.7334C574.904 79.7555 574.357 79.8883 573.997 80.1318C573.637 80.3753 573.457 80.7461 573.457 81.2441C573.457 81.958 573.867 82.3149 574.686 82.3149C575.272 82.3149 575.74 82.1462 576.089 81.8086C576.443 81.471 576.62 81.0228 576.62 80.4639V79.7002ZM590.459 84H587.927V78.5796C587.927 77.91 587.814 77.4092 587.587 77.0771C587.365 76.7396 587.014 76.5708 586.533 76.5708C585.885 76.5708 585.415 76.8088 585.121 77.2847C584.828 77.7606 584.682 78.5436 584.682 79.6338V84H582.15V74.7197H584.084L584.424 75.9067H584.565C584.814 75.4806 585.174 75.1486 585.644 74.9106C586.115 74.6672 586.654 74.5454 587.263 74.5454C588.652 74.5454 589.593 74.9992 590.085 75.9067H590.309C590.558 75.4751 590.924 75.1403 591.405 74.9023C591.892 74.6644 592.44 74.5454 593.049 74.5454C594.1 74.5454 594.894 74.8166 595.431 75.3589C595.973 75.8957 596.245 76.759 596.245 77.9487V84H593.704V78.5796C593.704 77.91 593.591 77.4092 593.364 77.0771C593.143 76.7396 592.791 76.5708 592.31 76.5708C591.69 76.5708 591.225 76.7922 590.915 77.2349C590.611 77.6776 590.459 78.3804 590.459 79.3433V84Z" fill="#404040"/>
</g>
</g>
</g>
</svg>
