<?xml version="1.0" encoding="UTF-8"?>
<svg width="961px" height="670px" viewBox="0 0 961 670" version="1.1" xmlns="http://www.w3.org/2000/svg" xmlns:xlink="http://www.w3.org/1999/xlink">
    <!-- Generator: Sketch 57.1 (83088) - https://sketch.com -->
    <title>编组 59</title>
    <desc>Created with Sketch.</desc>
    <g id="页面-2----Design-Simple" stroke="none" stroke-width="1" fill="none" fill-rule="evenodd">
        <g id="2" transform="translate(-242.000000, -7711.000000)">
            <g id="编组-59" transform="translate(242.000000, 7711.000000)">
                <g id="编组-3" transform="translate(0.000000, 1.000000)">
                    <text id="“Time-is-money.”-For" font-family="OpenSans-Regular, Open Sans" font-size="16" font-weight="normal" line-spacing="24" letter-spacing="0.4" fill="#404040">
                        <tspan x="0" y="173">“Time is money.” For the industry training designers, </tspan>
                        <tspan x="0" y="197">they usually have a time limitation to deliver the </tspan>
                        <tspan x="0" y="221">training. For the learners, they also have little extra </tspan>
                        <tspan x="0" y="245">time to learn besides their work. </tspan>
                    </text>
                    <text id="Time-constraint-is-t" font-family="OpenSans-SemiBold, Open Sans" font-size="20" font-weight="500" line-spacing="28" letter-spacing="0.470588235" fill="#404040">
                        <tspan x="0" y="135">Time constraint is the biggest challenge. </tspan>
                    </text>
                    <g id="clock" transform="translate(164.000000, 0.000000)" fill-rule="nonzero">
                        <circle id="椭圆形" fill="#0D44CC" cx="45" cy="45" r="45"></circle>
                        <circle id="椭圆形" fill="#F3FAFF" cx="44.5631068" cy="44.5631068" r="38.4466019"></circle>
                        <g id="编组" transform="translate(6.116505, 6.116505)" fill="#64798A">
                            <path d="M39.9923084,0.0933429938 L39.9923084,5.01680336 C39.9923084,5.85784669 39.3192059,6.53075786 38.4781626,6.53075786 C37.6371193,6.53075786 36.953114,5.85784669 36.953114,5.01680336 L36.953114,0.0933429938 C37.4577018,0.0709636285 37.9622895,0.0596783075 38.4781626,0.0596783075 C38.9829416,0.0596783075 39.4877206,0.0707723518 39.9923084,0.0933429938 Z" id="路径"></path>
                            <path d="M12.4081148,10.261991 L15.8895406,13.7434169 C16.4842197,14.3380959 16.4842197,15.2898884 15.8893494,15.8845675 C15.2946703,16.4792465 14.3352268,16.4870888 13.7403565,15.8924098 L10.2591219,12.4109839 C10.5999768,12.038377 10.9488654,11.6736125 11.3136299,11.308848 C11.6705521,10.9519258 12.0353166,10.602846 12.4081148,10.261991 Z" id="路径"></path>
                            <path d="M0.0935342704,36.9573221 L5.01699464,36.9573221 C5.85803797,36.9573221 6.53094914,37.6304246 6.53094914,38.4714679 C6.53094914,39.3125112 5.85803797,39.9965164 5.01699464,39.9965164 L0.0935342704,39.9965164 C0.0711549051,39.4919287 0.059867193,38.987341 0.059867193,38.4714679 C0.0596783075,37.9666889 0.0709636285,37.4619099 0.0935342704,36.9573221 Z" id="路径"></path>
                            <path d="M10.2621823,64.541707 L13.7436082,61.0602811 C14.3382872,60.4656021 15.2900797,60.4656021 15.8847587,61.0604724 C16.4794378,61.6551514 16.4872801,62.614595 15.8926011,63.2094653 L12.4111752,66.6908912 C12.0385683,66.3500362 11.6738038,66.0011477 11.3090393,65.6363831 C10.9521171,65.2792697 10.6030372,64.9143139 10.2621823,64.541707 Z" id="路径"></path>
                            <path d="M36.9575134,76.8562875 L36.9575134,71.9328271 C36.9575134,71.0917838 37.6306159,70.4188726 38.4716592,70.4188726 C39.3127025,70.4188726 39.9967077,71.0917838 39.9967077,71.9328271 L39.9967077,76.8562875 C39.49212,76.8786669 38.9875322,76.8899522 38.4716592,76.8899522 C37.9668802,76.8899522 37.4621011,76.8786669 36.9575134,76.8562875 Z" id="路径"></path>
                            <path d="M64.5418983,66.6876395 L61.0604724,63.2062136 C60.4657934,62.6115346 60.4657934,61.6597421 61.0606637,61.065063 C61.6553427,60.470384 62.6147863,60.4625417 63.2096566,61.0572207 L66.6910825,64.5386466 C66.3502275,64.9112534 66.0013389,65.276018 65.6365744,65.6407825 C65.2792697,65.9977047 64.9145051,66.3465932 64.5418983,66.6876395 Z" id="路径"></path>
                            <path d="M76.8564788,39.9921171 L71.9330184,39.9921171 C71.0919751,39.9921171 70.4190639,39.3190146 70.4190639,38.4779713 C70.4190639,37.636928 71.0919751,36.9529228 71.9330184,36.9529228 L76.8564788,36.9529228 C76.8788581,37.4575105 76.8901435,37.9620982 76.8901435,38.4779713 C76.8901435,38.9827503 76.8788581,39.4875293 76.8564788,39.9921171 Z" id="路径"></path>
                            <path d="M66.6878307,12.4079235 L63.2064049,15.8893494 C62.6117258,16.4840284 61.6599333,16.4840284 61.0652543,15.8891581 C60.4705753,15.2944791 60.4627329,14.3350355 61.057412,13.7401652 L64.5388378,10.2587393 C64.9114447,10.5995943 65.2762092,10.9484828 65.6409738,11.3132474 C65.997896,11.6703608 66.3467845,12.0353166 66.6878307,12.4079235 Z" id="路径"></path>
                        </g>
                        <path d="M59.7804423,47.184466 L45.0739266,47.184466 C43.8266683,47.184466 42.815534,46.1838771 42.815534,44.9500524 L42.815534,24.0790739 C42.815534,22.8450586 43.8268609,21.8446602 45.0739266,21.8446602 C46.3211849,21.8446602 47.3323192,22.8452492 47.3323192,24.0790739 L47.3323192,42.7154481 L59.7804423,42.7154481 C61.0277006,42.7154481 62.038835,43.7160371 62.038835,44.9498618 C62.038835,46.1840676 61.0277006,47.184466 59.7804423,47.184466 Z" id="路径" fill="#9BB6FB"></path>
                        <circle id="椭圆形" fill="#2F4859" cx="44.5631068" cy="44.5631068" r="5.24271845"></circle>
                    </g>
                </g>
                <g id="编组-5" transform="translate(554.000000, 0.000000)">
                    <text id="Learners-address-tha" font-family="OpenSans-Regular, Open Sans" font-size="16" font-weight="normal" line-spacing="24" letter-spacing="0.4" fill="#404040">
                        <tspan x="0" y="195">Learners address that real-world scenario is their </tspan>
                        <tspan x="0" y="219">biggest motivation. For example, troubleshooting </tspan>
                        <tspan x="0" y="243">for customers is an important part of some learners </tspan>
                        <tspan x="0" y="267">work. The ACE training is supposed to help with it. </tspan>
                    </text>
                    <text id="Real-world-scenario" font-family="OpenSans-SemiBold, Open Sans" font-size="20" font-weight="500" line-spacing="28" letter-spacing="0.470588235" fill="#404040">
                        <tspan x="0" y="136">Real-world scenario is the essential </tspan>
                        <tspan x="0" y="164">motivation for learning. </tspan>
                    </text>
                    <g id="group" transform="translate(133.000000, 0.000000)" fill-rule="nonzero">
                        <path d="M38.6905049,63.8354213 L30.5020585,60.7293942 C28.9456694,60.139006 27.9142648,58.6340408 27.9142648,56.9523458 L27.9142648,53.697479 L15.9512814,53.697479 L15.9512814,56.952622 C15.9512814,58.6340408 14.9201498,60.139006 13.3637608,60.7293942 L5.17531435,63.8354213 C2.06226326,65.0161977 0,68.026128 0,71.3889657 L0,85.9664172 C0,88.1940418 1.78543841,90 3.98775211,90 L43.8655462,90 L43.8655462,71.3889657 C43.8655462,68.026128 41.803283,65.0161977 38.6905049,63.8354213 Z" id="路径" fill="#E6AF78"></path>
                        <path d="M22.3109244,59.7478992 C24.5766304,59.7478992 26.7376294,59.3124324 28.7394958,58.551401 C28.5204122,58.0513184 28.3640423,57.521413 28.3640423,56.9522963 L28.3640423,53.697479 L16.2578065,53.697479 L16.2578065,56.9525725 C16.2578065,57.521413 16.1017128,58.0513184 15.8823529,58.5511249 C17.8842193,59.3124324 20.0452183,59.7478992 22.3109244,59.7478992 Z" id="路径" fill="#D29B6E"></path>
                        <path d="M3.98775211,90 L43.8655462,90 L43.8655462,71.6522294 C43.8655462,68.3369609 41.803283,65.3696077 38.6902319,64.2055341 L30.8146467,61.2605042 L24.7526192,67.3054654 C23.1954111,68.8582894 20.6704081,68.8582894 19.112927,67.3054654 L13.0508995,61.2605042 L5.17504135,64.2055341 C2.06226326,65.3693355 0,68.3366886 0,71.6519571 L0,86.0232023 C0,88.2195881 1.78543841,90 3.98775211,90 Z" id="路径" fill="#ECE2D0"></path>
                        <path d="M22.3881005,55.9663866 L22.2337482,55.9663866 C14.548975,55.9663866 8.31932773,49.7268496 8.31932773,42.0298766 L8.31932773,35.869283 C8.31932773,28.17231 14.548975,21.9327731 22.2337482,21.9327731 L22.3881005,21.9327731 C30.0728738,21.9327731 36.302521,28.17231 36.302521,35.869283 L36.302521,42.0296025 C36.302521,49.7265755 30.0728738,55.9663866 22.3881005,55.9663866 Z" id="路径" fill="#F0C087"></path>
                        <path d="M16.3864933,41.952578 L16.3864933,35.9465817 C16.3864933,29.59932 20.6404361,24.244332 26.4705882,22.5207363 C25.1917821,22.1427404 23.8395225,21.9327731 22.4370055,21.9327731 C14.6401814,21.9327731 8.31932773,28.2068477 8.31932773,35.9465817 L8.31932773,41.952578 C8.31932773,49.6920378 14.6401814,55.9663866 22.4370055,55.9663866 C23.8397987,55.9663866 25.1917821,55.7564193 26.4705882,55.3784233 C20.6401599,53.6545536 16.3864933,48.2995655 16.3864933,41.952578 Z" id="路径" fill="#E6AF78"></path>
                        <g id="编组" transform="translate(0.000000, 67.310924)" fill="#FFF6E6">
                            <path d="M6.26961039,5.17310924 L1.26811306,0.261194478 C0.467257448,1.49882953 0,2.94930972 0,4.48406363 L0,18.7430672 C0,20.9220288 1.7986249,22.6885354 4.01720397,22.6885354 L8.03440794,22.6885354 L8.03440794,9.35789316 C8.03440794,7.78829532 7.39966387,6.28298319 6.26961039,5.17310924 Z" id="路径"></path>
                            <path d="M20.0862949,0.781152461 L20.0862949,22.6888055 L24.1034989,22.6888055 L24.1034989,0.781152461 C22.8615126,1.48910564 21.3280061,1.48910564 20.0862949,0.781152461 Z" id="路径"></path>
                        </g>
                        <circle id="椭圆形" fill="#6E4B53" cx="22.3109244" cy="21.5546218" r="7.94117647"></circle>
                        <path d="M8.31932773,35.6776179 L8.31932773,40.0840336 C10.5333525,39.0538088 13.2449171,37.4294302 15.3199154,35.0122195 C15.9261038,34.3059563 16.9630556,34.1602408 17.7829837,34.6127116 C20.4179195,36.0669095 26.596937,38.8365797 36.302521,39.463264 L36.302521,35.6776179 C36.302521,28.0864308 30.0383908,21.9327731 22.3109244,21.9327731 L22.3109244,21.9327731 C14.5837316,21.9327731 8.31932773,28.0864308 8.31932773,35.6776179 Z" id="路径" fill="#5C414B"></path>
                        <path d="M14.7514634,24.2016807 C10.8814867,26.6503621 8.31932773,30.8755853 8.31932773,35.6862811 L8.31932773,40.0840336 C10.560628,39.0561026 13.3064911,37.4346494 15.4070348,35.022191 C15.7290017,34.6524471 16.1714985,34.4463779 16.6386555,34.3900308 C15.1396525,31.6314407 13.9687123,28.0335479 14.7514634,24.2016807 Z" id="路径" fill="#503441"></path>
                        <path d="M136.250161,59.136586 L126.128546,54.4917176 C124.783886,53.8747335 123.917492,52.4978588 123.917492,50.978351 L123.917492,43.8655462 L109.024235,43.8655462 L109.024235,50.978351 C109.024235,52.4975856 108.157842,53.8744602 106.813182,54.4914443 L96.6912908,59.136586 C94.0019702,60.3705542 92.2689076,63.1243035 92.2689076,66.1627726 L92.2689076,90 L136.948955,90 C139.005364,90 140.672269,88.2788384 140.672269,86.1554622 L140.672269,66.1630458 C140.672269,63.1243035 138.939482,60.3705542 136.250161,59.136586 Z" id="路径" fill="#FAD7A5"></path>
                        <path d="M136.249911,59.0762108 L126.197268,54.4537815 L119.103522,61.4993997 C117.649433,62.9435667 115.292019,62.9435667 113.83793,61.4993997 L106.744185,54.4537815 L96.6912657,59.0762108 C94.0019603,60.3128558 92.2689076,63.0716937 92.2689076,66.1163535 L92.2689076,90 L136.948976,90 C139.005374,90 140.672269,88.2752129 140.672269,86.1477018 L140.672269,66.1163535 C140.672269,63.0716937 138.939216,60.3128558 136.249911,59.0762108 Z" id="路径" fill="#ECE2D0"></path>
                        <path d="M109.441189,43.8655462 L109.441189,51.153364 C109.441189,51.8748386 109.239639,52.5554381 108.907563,53.1512076 C111.269665,54.4636923 113.975635,55.210084 116.848877,55.210084 C119.722118,55.210084 122.427814,54.4639723 124.789916,53.1514876 C124.45784,52.5557181 124.25629,51.8748386 124.25629,51.153364 L124.25629,43.8655462 L109.441189,43.8655462 Z" id="路径" fill="#F0C891"></path>
                        <path d="M116.470588,51.4285714 L116.470588,51.4285714 C109.369855,51.4285714 103.613445,45.594058 103.613445,38.396982 L103.613445,27.2268908 L129.327731,27.2268908 L129.327731,38.396982 C129.327731,45.594058 123.571593,51.4285714 116.470588,51.4285714 Z" id="路径" fill="#FFE1B4"></path>
                        <path d="M111.008343,38.396982 L111.008343,27.2268908 L103.613445,27.2268908 L103.613445,38.396982 C103.613445,45.594058 109.407493,51.4285714 116.554652,51.4285714 C117.840424,51.4285714 119.079933,51.2334077 120.252101,50.8816719 C114.907814,49.2790139 111.008343,44.2993066 111.008343,38.396982 Z" id="路径" fill="#FAD7A5"></path>
                        <path d="M118.69221,17.394958 L115.005269,17.394958 C107.878421,17.394958 102.10084,23.3147084 102.10084,30.6169271 L102.10084,33.638612 C102.10084,35.0384207 103.550285,35.9887803 104.758702,35.3357228 C106.62906,34.3249518 108.822608,32.4393354 110.29662,30.4052078 C110.891957,29.5837816 112.036773,29.4618402 112.837107,30.0737846 C118.686751,34.54646 126.834488,33.5183488 130.128359,32.8515867 C130.986834,32.6779042 131.596639,31.8981506 131.596639,31.0017696 L131.596639,30.6166474 C131.596639,23.3144287 125.819058,17.394958 118.69221,17.394958 Z" id="路径" fill="#D59F63"></path>
                        <path d="M104.76036,35.3433272 C106.631691,34.368402 108.826382,32.5496568 110.301162,30.5876671 C110.526748,30.2874204 110.841641,30.1161206 111.176471,30.0114524 C108.568842,26.4260262 108.391049,22.4292108 108.714954,19.6638655 C104.770738,21.8462519 102.10084,26.0087021 102.10084,30.7918781 L102.10084,33.7064025 C102.10084,35.0562988 103.55104,35.9729551 104.76036,35.3433272 Z" id="路径" fill="#CD915A"></path>
                        <g id="编组" transform="translate(114.201681, 62.016807)" fill="#FFF6E6">
                            <path d="M17.061548,11.9145917 C17.061548,10.4545753 17.656161,9.05460064 18.7149845,8.02221098 L25.7929412,1.12095782 C26.2292879,2.095751 26.4705882,3.16889288 26.4705882,4.28197193 L26.4705882,24.1600914 C26.4705882,26.2713282 24.7856656,27.9826499 22.7070279,27.9826499 L17.061548,27.9826499 L17.061548,11.9145917 L17.061548,11.9145917 Z" id="路径"></path>
                            <path d="M0.125665635,0.267606266 L0.125665635,27.9829216 L3.88922601,27.9829216 L3.88922601,0.267606266 C2.72563467,0.926162193 1.28897833,0.926162193 0.125665635,0.267606266 Z" id="路径"></path>
                        </g>
                        <path d="M93.6168031,51.5470811 L81.1230893,45.7599248 C79.4634178,44.9911835 78.3936757,43.2757314 78.3936757,41.3828564 L78.3936757,32.5210084 L60.0099589,32.5210084 L60.0099589,41.3831298 C60.0099589,43.2760048 58.94049,44.9911835 57.2805453,45.7599248 L44.7865583,51.5470811 C41.4669421,53.0845637 39.3277311,56.5154679 39.3277311,60.3012179 L39.3277311,85.2101296 C39.3277311,87.8556165 41.385516,90 43.9236603,90 L94.4797011,90 C97.0181186,90 99.0756303,87.8553431 99.0756303,85.2101296 L99.0756303,60.3014913 C99.0756303,56.5157413 96.9364192,53.084837 93.6168031,51.5470811 Z" id="路径" fill="#B48764"></path>
                        <path d="M43.9239125,90 L94.4797221,90 C97.018128,90 99.0756303,87.8346464 99.0756303,85.1642461 L99.0756303,60.0184362 C99.0756303,56.1963636 96.9361558,52.7330674 93.616828,51.1806696 L81.2081492,45.3781513 L72.4518785,54.2225415 C70.6569605,56.0354662 67.7469473,56.0354662 65.9520293,54.2225415 L57.1954854,45.3781513 L44.7865333,51.1806696 C41.4669323,52.7327915 39.3277311,56.1960876 39.3277311,60.0181602 L39.3277311,85.1642461 C39.3277311,87.8349224 41.3855066,90 43.9239125,90 Z" id="路径" fill="#9BB6FB"></path>
                        <path d="M60.4084777,32.5210084 L60.4084777,41.2662462 C60.4084777,42.1319751 60.1587501,42.9488736 59.7478992,43.6637946 C62.6723836,45.2387791 66.0224408,46.1344538 69.5799682,46.1344538 C73.1372231,46.1344538 76.4870077,45.2390489 79.4117647,43.6640644 C79.0006411,42.9491434 78.7511862,42.1319751 78.7511862,41.2662462 L78.7511862,32.5210084 L60.4084777,32.5210084 Z" id="路径" fill="#966D50"></path>
                        <path d="M69.2015426,41.5966387 L69.2015426,41.5966387 C60.2210676,41.5966387 52.9411765,34.3033954 52.9411765,25.3070672 L52.9411765,11.3445378 L85.4621849,11.3445378 L85.4621849,25.3070672 C85.4621849,34.3033954 78.1817414,41.5966387 69.2015426,41.5966387 Z" id="路径" fill="#C39772"></path>
                        <path d="M62.7732591,25.3070672 L62.7732591,11.3445378 L53.697479,11.3445378 L53.697479,25.3070672 C53.697479,34.3036721 60.8084273,41.5966387 69.5798919,41.5966387 C71.1578544,41.5966387 72.6791625,41.3525898 74.1176471,40.9131911 C67.5589452,38.9096106 62.7732591,32.6852572 62.7732591,25.3070672 Z" id="路径" fill="#B48764"></path>
                        <path d="M71.5175129,0 L66.8852977,0 C57.9309667,0 50.6722689,7.15309 50.6722689,15.976537 L50.6722689,19.627712 C50.6722689,21.3189654 52.4934841,22.4674546 54.0114847,21.6785467 C56.361191,20.4573272 59.1173866,18.1788029 60.9694465,15.720895 C61.7174309,14.7281792 63.1555657,14.5810901 64.1613238,15.3206064 C71.5109033,20.72491 81.7477685,19.482794 85.8861929,18.6773318 C86.9646563,18.4675535 87.7310924,17.5253147 87.7310924,16.4422287 L87.7310924,15.9768083 C87.7305416,7.15309 80.4715684,0 71.5175129,0 Z" id="路径" fill="#5C414B"></path>
                        <path d="M53.9965129,22.4280178 C56.3354911,21.1746882 59.0788286,18.8362537 60.9224325,16.313719 C61.2045244,15.9276935 61.597918,15.707386 62.0168067,15.572862 C58.7572602,10.9631157 58.5349312,5.82446437 58.9398387,2.26890756 C54.0093976,5.07497327 50.6722689,10.4264121 50.6722689,16.5763612 L50.6722689,20.3235382 C50.6722689,22.0592604 52.4851689,23.2379472 53.9965129,22.4280178 Z" id="路径" fill="#503441"></path>
                        <g id="编组" transform="translate(39.327731, 55.210084)" fill="#6986D0">
                            <path d="M11.8324217,14.7713091 C11.8324217,12.9524488 11.1014209,11.2083325 9.80003056,9.92219275 L1.10035141,1.32446297 C0.564064171,2.53884848 0.267593583,3.87581408 0.267593583,5.26224659 L0.267593583,30.026959 C0.267593583,32.657131 2.33876241,34.7893724 4.89341482,34.7893724 L11.8324217,34.7893724 L11.8324217,14.7713091 Z" id="路径"></path>
                            <path d="M48.8395416,14.7713091 C48.8395416,12.9524488 49.5705424,11.2083325 50.8719328,9.92219275 L59.5716119,1.32446297 C60.1078992,2.53884848 60.4043697,3.87581408 60.4043697,5.26224659 L60.4043697,30.026959 C60.4043697,32.657131 58.3332009,34.7893724 55.7785485,34.7893724 L48.8395416,34.7893724 L48.8395416,14.7713091 L48.8395416,14.7713091 Z" id="路径"></path>
                            <path d="M28.023071,0.261467962 L28.023071,34.7896442 L32.6488923,34.7896442 L32.6488923,0.261467962 C31.219068,1.08174895 29.4531704,1.08174895 28.023071,0.261467962 Z" id="路径"></path>
                        </g>
                    </g>
                </g>
                <g id="编组-6" transform="translate(0.000000, 370.000000)">
                    <g id="编组-2" transform="translate(0.000000, 114.000000)" fill="#404040">
                        <text id="Customization-is-use" font-family="OpenSans-Regular, Open Sans" font-size="16" font-weight="normal" line-spacing="24" letter-spacing="0.4">
                            <tspan x="0" y="85">Customization is useful but challenging to develop. </tspan>
                            <tspan x="0" y="109">Learners want customization or even personalization </tspan>
                            <tspan x="0" y="133">and PMs also knew it’s valueable. But which element </tspan>
                            <tspan x="0" y="157">we choose to make it customized is vital otherwise </tspan>
                            <tspan x="0" y="181">the implementation will be challenging.</tspan>
                        </text>
                        <text id="Customization-is-ach" font-family="OpenSans-SemiBold, Open Sans" font-size="20" font-weight="500" line-spacing="28" letter-spacing="0.470588235">
                            <tspan x="0" y="21">Customization is achievable now in the </tspan>
                            <tspan x="0" y="49">webinar but high-cost to implement. </tspan>
                        </text>
                    </g>
                    <g id="geometry" transform="translate(164.000000, 0.000000)" fill-rule="nonzero">
                        <polygon id="路径" fill="#1051F4" points="22.3448276 12.4137931 55.2413793 12.4137931 55.2413793 75.1034483 22.3448276 75.1034483"></polygon>
                        <polygon id="路径" fill="#6390FF" points="45 0 22.3448276 12.1034483 45 24.2068966 67.6551724 24.2068966 67.6551724 12.1034483"></polygon>
                        <polygon id="路径" fill="#D5AE97" points="57.1034483 24.2068966 67.6023478 90 90 78.0671483 90 24.2068966"></polygon>
                        <polygon id="路径" fill="#EDD3C4" points="45.338241 24.2068966 45.338241 48.0726 36.6206897 63.0697866 45.338241 78.0671483 67.6551724 90 67.6551724 24.2068966"></polygon>
                        <polygon id="路径" fill="#FFE5D6" points="90 23.8966405 67.3448276 11.7931034 44.6896552 23.8966405 67.3448276 36"></polygon>
                        <polygon id="路径" fill="#C55641" points="11.7931034 47.7931034 22.2920029 90 44.6896552 77.9876015 44.6896552 47.7931034"></polygon>
                        <polygon id="路径" fill="#D88373" points="0 47.7931034 0 77.9876015 22.3448276 90 22.3448276 47.7931034"></polygon>
                        <polygon id="路径" fill="#F2B6AB" points="22.6551724 36 0 48.1036259 22.6551724 60.2068966 45.3103448 48.1036259"></polygon>
                    </g>
                </g>
                <g id="编组-7" transform="translate(554.000000, 374.000000)">
                    <g id="编组-4" transform="translate(0.000000, 110.000000)" fill="#404040">
                        <text id="Trainers-have-mandat" font-family="OpenSans-Regular, Open Sans" font-size="16" font-weight="normal" line-spacing="24" letter-spacing="0.4">
                            <tspan x="0" y="85">Trainers have mandated content to cover so the </tspan>
                            <tspan x="0" y="109">current training is overwhelmed due to the long </tspan>
                            <tspan x="0" y="133">time duration, big topics, and hands-on demo in </tspan>
                            <tspan x="0" y="157">webinar. But learners want more skills and tailored </tspan>
                            <tspan x="0" y="181">content delivery. </tspan>
                        </text>
                        <text id="Emphasize-on-skills" font-family="OpenSans-SemiBold, Open Sans" font-size="20" font-weight="500" line-spacing="28" letter-spacing="0.470588235">
                            <tspan x="0" y="21">Emphasize on skills taught, not content </tspan>
                            <tspan x="0" y="49">covered. </tspan>
                        </text>
                    </g>
                    <g id="book-(1)" transform="translate(159.000000, 0.000000)" fill-rule="nonzero">
                        <path d="M85.6751786,82.8571429 L18.7108929,82.8571429 C11.5114286,82.8571429 5.67517857,77.0208929 5.67517857,69.8214286 L5.67517857,67.3214286 C5.67517857,60.1219643 11.5114286,54.2857143 18.7108929,54.2857143 L85.6751786,54.2857143 L85.6751786,82.8571429 Z" id="路径" fill="#FAF2E4"></path>
                        <rect id="矩形" fill="#5C546A" x="8.53232143" y="57.1428571" width="7.14285714" height="22.8571429"></rect>
                        <path d="M78.8894643,50 L2.81803571,50 L2.81803571,30 L78.8894643,30 C81.0591071,30 82.8180357,31.7589286 82.8180357,33.9285714 L82.8180357,46.0714286 C82.8180357,48.2410714 81.0591071,50 78.8894643,50 Z" id="路径" fill="#FAF2E4"></path>
                        <rect id="矩形" fill="#FAF2E4" x="12.8180357" y="4.28571429" width="72.8571429" height="21.4285714"></rect>
                        <path d="M85.7142857,85.7142857 L20,85.7142857 C10.5475,85.7142857 2.85714286,78.0246429 2.85714286,68.5714286 C2.85714286,59.1182143 10.5475,51.4285714 20,51.4285714 L85.7142857,51.4285714 C87.2921429,51.4285714 88.5714286,52.7078571 88.5714286,54.2857143 C88.5714286,55.8635714 87.2921429,57.1428571 85.7142857,57.1428571 L20,57.1428571 C13.6983929,57.1428571 8.57142857,62.2698214 8.57142857,68.5714286 C8.57142857,74.8730357 13.6983929,80 20,80 L85.7142857,80 C87.2921429,80 88.5714286,81.2792857 88.5714286,82.8571429 C88.5714286,84.435 87.2921429,85.7142857 85.7142857,85.7142857 Z" id="路径" fill="#A8D4AD"></path>
                        <path d="M77.1428571,51.4285714 L1.42857143,51.4285714 C0.638928571,51.4285714 0,50.7896429 0,50 C0,49.2103571 0.638928571,48.5714286 1.42857143,48.5714286 L77.1428571,48.5714286 C79.5060714,48.5714286 81.4285714,46.6489286 81.4285714,44.2857143 L81.4285714,35.7142857 C81.4285714,33.3510714 79.5060714,31.4285714 77.1428571,31.4285714 L1.42857143,31.4285714 C0.638928571,31.4285714 0,30.7896429 0,30 C0,29.2103571 0.638928571,28.5714286 1.42857143,28.5714286 L77.1428571,28.5714286 C81.08125,28.5714286 84.2857143,31.7758929 84.2857143,35.7142857 L84.2857143,44.2857143 C84.2857143,48.2241071 81.08125,51.4285714 77.1428571,51.4285714 Z" id="路径" fill="#3B1F2B"></path>
                        <path d="M85.6751786,11.4285714 L19.9608929,11.4285714 C19.1719643,11.4285714 18.5323214,10.7889286 18.5323214,10 L18.5323214,10 C18.5323214,9.21107143 19.1719643,8.57142857 19.9608929,8.57142857 L85.6751786,8.57142857 L85.6751786,11.4285714 Z" id="路径" fill="#DCC1B2"></path>
                        <path d="M85.6751786,17.1428571 L19.9608929,17.1428571 C19.1719643,17.1428571 18.5323214,16.5032143 18.5323214,15.7142857 L18.5323214,15.7142857 C18.5323214,14.9253571 19.1719643,14.2857143 19.9608929,14.2857143 L85.6751786,14.2857143 L85.6751786,17.1428571 Z" id="路径" fill="#DCC1B2"></path>
                        <path d="M85.6751786,22.8571429 L19.9608929,22.8571429 C19.1719643,22.8571429 18.5323214,22.2175 18.5323214,21.4285714 L18.5323214,21.4285714 C18.5323214,20.6396429 19.1719643,20 19.9608929,20 L85.6751786,20 L85.6751786,22.8571429 Z" id="路径" fill="#DCC1B2"></path>
                        <path d="M2.81803571,34.2857143 L77.10375,34.2857143 C77.8926786,34.2857143 78.5323214,34.9253571 78.5323214,35.7142857 L78.5323214,35.7142857 C78.5323214,36.5032143 77.8926786,37.1428571 77.10375,37.1428571 L2.81803571,37.1428571 C2.81803571,37.1428571 2.81803571,34.2857143 2.81803571,34.2857143 Z" id="路径" fill="#DCC1B2"></path>
                        <path d="M2.81803571,40 L77.10375,40 C77.8926786,40 78.5323214,40.6396429 78.5323214,41.4285714 L78.5323214,41.4285714 C78.5323214,42.2175 77.8926786,42.8571429 77.10375,42.8571429 L2.81803571,42.8571429 C2.81803571,42.8571429 2.81803571,40 2.81803571,40 Z" id="路径" fill="#DCC1B2"></path>
                        <path d="M2.81803571,45.7142857 L77.10375,45.7142857 C77.8926786,45.7142857 78.5323214,46.3539286 78.5323214,47.1428571 L78.5323214,47.1428571 C78.5323214,47.9317857 77.8926786,48.5714286 77.10375,48.5714286 L2.81803571,48.5714286 C2.81803571,48.5714286 2.81803571,45.7142857 2.81803571,45.7142857 Z" id="路径" fill="#DCC1B2"></path>
                        <path d="M87.1428571,28.5714286 L18.5714286,28.5714286 C13.8448214,28.5714286 10,24.7266071 10,20 L10,8.57142857 C10,3.84482143 13.8448214,0 18.5714286,0 L87.1428571,0 C88.7207143,0 90,1.27928571 90,2.85714286 C90,4.435 88.7207143,5.71428571 87.1428571,5.71428571 L18.5714286,5.71428571 C16.9957143,5.71428571 15.7142857,6.99571429 15.7142857,8.57142857 L15.7142857,20 C15.7142857,21.575 16.9957143,22.8571429 18.5714286,22.8571429 L87.1428571,22.8571429 C88.7207143,22.8571429 90,24.1364286 90,25.7142857 C90,27.2921429 88.7207143,28.5714286 87.1428571,28.5714286 Z" id="路径" fill="#1051F4"></path>
                        <path d="M19.9608929,77.1428571 C19.17125,77.1428571 18.5323214,77.7817857 18.5323214,78.5714286 C18.5323214,79.3610714 19.17125,80 19.9608929,80 L85.6751786,80 L85.6751786,77.1428571 L19.9608929,77.1428571 Z" id="路径" fill="#DCC1B2"></path>
                        <path d="M19.9608929,71.4285714 C19.17125,71.4285714 18.5323214,72.0675 18.5323214,72.8571429 C18.5323214,73.6467857 19.17125,74.2857143 19.9608929,74.2857143 L85.6751786,74.2857143 L85.6751786,71.4285714 L19.9608929,71.4285714 Z" id="路径" fill="#DCC1B2"></path>
                        <path d="M19.9608929,65.7142857 C19.17125,65.7142857 18.5323214,66.3532143 18.5323214,67.1428571 C18.5323214,67.9325 19.17125,68.5714286 19.9608929,68.5714286 L85.6751786,68.5714286 L85.6751786,65.7142857 L19.9608929,65.7142857 Z" id="路径" fill="#DCC1B2"></path>
                        <path d="M19.9608929,60 C19.17125,60 18.5323214,60.6389286 18.5323214,61.4285714 C18.5323214,62.2182143 19.17125,62.8571429 19.9608929,62.8571429 L85.6751786,62.8571429 L85.6751786,60 L19.9608929,60 Z" id="路径" fill="#DCC1B2"></path>
                    </g>
                </g>
            </g>
        </g>
    </g>
</svg>