<svg width="11" height="7" viewBox="0 0 11 7" fill="none" xmlns="http://www.w3.org/2000/svg">
<path d="M5.1093 4.13133L1.288 0.169125C1.18303 0.0600247 1.04269 6.67572e-06 0.893044 6.67572e-06C0.743318 6.67572e-06 0.603058 0.0600247 0.497926 0.169125L0.163262 0.516315C0.057964 0.625243 0 0.770853 0 0.926021C0 1.08119 0.057964 1.22663 0.163262 1.33564L4.71285 6.05328C4.81832 6.16273 4.95924 6.22266 5.10905 6.22223C5.25953 6.22266 5.40028 6.16281 5.50583 6.05328L10.051 1.34003C10.1563 1.23102 10.2143 1.08558 10.2143 0.930326C10.2143 0.775158 10.1563 0.62972 10.051 0.52062L9.71636 0.173516C9.49854 -0.0523477 9.14395 -0.0523477 8.92621 0.173516L5.1093 4.13133Z" fill="black"/>
</svg>
