<svg width="53" height="54" viewBox="0 0 53 54" fill="none" xmlns="http://www.w3.org/2000/svg">
<path opacity="0.545387" d="M40.7339 4.43194C44.849 7.22262 48.0879 11.3136 50.2439 15.9447C52.4098 20.5859 53.4927 25.7671 52.7839 30.6783C52.075 35.5995 49.5646 40.2406 46.1583 43.8915C42.7521 47.5424 38.4401 50.213 33.6457 51.9735C28.8611 53.7439 23.604 54.6041 18.6521 53.5238C13.7101 52.4436 9.07321 49.4128 5.83429 45.3219C2.60522 41.2309 0.76425 36.0696 0.193255 30.8383C-0.37774 25.5971 0.311392 20.2958 2.32956 15.5246C4.34774 10.7535 7.70479 6.52245 11.9774 3.80179C16.25 1.08113 21.4284 -0.129165 26.5181 0.0108693C31.6078 0.150903 36.6089 1.64126 40.7339 4.43194Z" fill="#C3E8DF"/>
</svg>
