<svg width="40" height="41" viewBox="0 0 40 41" fill="none" xmlns="http://www.w3.org/2000/svg">
<path opacity="0.0910296" d="M30.7426 3.36499C33.8483 5.48384 36.2928 8.58996 37.9199 12.1062C39.5545 15.63 40.3718 19.5639 39.8369 23.2928C39.3019 27.0292 37.4073 30.5531 34.8365 33.325C32.2657 36.097 29.0114 38.1247 25.393 39.4613C21.782 40.8055 17.8144 41.4587 14.0771 40.6385C10.3472 39.8183 6.84771 37.5172 4.40324 34.411C1.9662 31.3049 0.576792 27.3862 0.145853 23.4143C-0.285087 19.4348 0.235013 15.4098 1.75816 11.7872C3.28131 8.16467 5.81494 4.95223 9.03955 2.88654C12.2642 0.820857 16.1723 -0.0980694 20.0137 0.00825263C23.855 0.114575 27.6294 1.24615 30.7426 3.36499Z" fill="#3FAB91"/>
</svg>
