<svg width="58" height="58" viewBox="0 0 58 58" fill="none" xmlns="http://www.w3.org/2000/svg">
<path fill-rule="evenodd" clip-rule="evenodd" d="M29 58C45.0163 58 58 45.0163 58 29C58 12.9837 45.0163 0 29 0C12.9837 0 0 12.9837 0 29C0 45.0163 12.9837 58 29 58Z" fill="#B7E8D7"/>
<path d="M27.6699 31.3125H30.2188C33.1719 31.3125 34.8594 32.8945 34.8945 35.1445C34.9121 37.3945 33.207 39.082 30.2539 39.082C27.459 39.082 25.9297 37.4824 25.7012 35.4609H21.7637C21.8691 39.2578 24.541 42.4922 30.1309 42.4922C35.1934 42.4922 39.2188 39.5742 39.1484 35.2852C39.0957 31.4355 36.1602 29.6777 33.998 29.502V29.3613C35.8438 29.0977 38.4102 27.1289 38.3398 23.7363C38.2695 20.1504 34.9824 17.5312 30.2891 17.5312C25.1035 17.5312 22.3438 20.748 22.2559 24.3691H26.2461C26.3516 22.7344 27.5469 20.8887 30.1836 20.8887C32.5742 20.8887 34.1211 22.3301 34.1387 24.334C34.1562 26.4434 32.5039 27.9551 30.0781 27.9551H27.6699V31.3125Z" fill="white"/>
</svg>
