<svg width="46" height="46" viewBox="0 0 46 46" fill="none" xmlns="http://www.w3.org/2000/svg">
<path fill-rule="evenodd" clip-rule="evenodd" d="M23 46C35.7025 46 46 35.7025 46 23C46 10.2975 35.7025 0 23 0C10.2975 0 0 10.2975 0 23C0 35.7025 10.2975 46 23 46Z" fill="#B7E8D7"/>
<path d="M20.2988 23.6875H22.2812C24.5781 23.6875 25.8906 24.918 25.918 26.668C25.9316 28.418 24.6055 29.7305 22.3086 29.7305C20.1348 29.7305 18.9453 28.4863 18.7676 26.9141H15.7051C15.7871 29.8672 17.8652 32.3828 22.2129 32.3828C26.1504 32.3828 29.2812 30.1133 29.2266 26.7773C29.1855 23.7832 26.9023 22.416 25.2207 22.2793V22.1699C26.6562 21.9648 28.6523 20.4336 28.5977 17.7949C28.543 15.0059 25.9863 12.9688 22.3359 12.9688C18.3027 12.9688 16.1562 15.4707 16.0879 18.2871H19.1914C19.2734 17.0156 20.2031 15.5801 22.2539 15.5801C24.1133 15.5801 25.3164 16.7012 25.3301 18.2598C25.3438 19.9004 24.0586 21.0762 22.1719 21.0762H20.2988V23.6875Z" fill="white"/>
</svg>
