<svg width="58" height="58" viewBox="0 0 58 58" fill="none" xmlns="http://www.w3.org/2000/svg">
<path fill-rule="evenodd" clip-rule="evenodd" d="M29 58C45.0163 58 58 45.0163 58 29C58 12.9837 45.0163 0 29 0C12.9837 0 0 12.9837 0 29C0 45.0163 12.9837 58 29 58Z" fill="#B7E8D7"/>
<path d="M24.8359 25.002C24.8359 24.9668 24.8184 24.8438 24.8184 24.791C24.8184 22.7695 26.2598 20.9941 28.7031 20.9941C30.8828 20.9941 32.5176 22.4355 32.5176 24.5801C32.5176 26.6367 31.0938 28.2012 29.8105 29.625L21.0215 39.3457V42H37.1934V38.4844H26.8398V38.3789L32.5879 31.8223C34.6973 29.4141 36.7539 27.4102 36.7539 24.2109C36.7539 20.3965 33.6074 17.5312 28.791 17.5312C23.4121 17.5312 20.7754 21.1523 20.7754 24.8086V25.002H24.8359Z" fill="white"/>
</svg>
