<svg width="46" height="46" viewBox="0 0 46 46" fill="none" xmlns="http://www.w3.org/2000/svg">
<path fill-rule="evenodd" clip-rule="evenodd" d="M23 46C35.7025 46 46 35.7025 46 23C46 10.2975 35.7025 0 23 0C10.2975 0 0 10.2975 0 23C0 35.7025 10.2975 46 23 46Z" fill="#B7E8D7"/>
<path d="M19.3008 18.7793C19.3008 18.752 19.2871 18.6562 19.2871 18.6152C19.2871 17.043 20.4082 15.6621 22.3086 15.6621C24.0039 15.6621 25.2754 16.7832 25.2754 18.4512C25.2754 20.0508 24.168 21.2676 23.1699 22.375L16.334 29.9355V32H28.9121V29.2656H20.8594V29.1836L25.3301 24.084C26.9707 22.2109 28.5703 20.6523 28.5703 18.1641C28.5703 15.1973 26.123 12.9688 22.377 12.9688C18.1934 12.9688 16.1426 15.7852 16.1426 18.6289V18.7793H19.3008Z" fill="white"/>
</svg>
