<svg width="31" height="20" viewBox="0 0 31 20" fill="none" xmlns="http://www.w3.org/2000/svg">
<path d="M29.7662 9.90793L24.4804 4.27084C24.1556 3.92401 23.6133 3.90819 23.2687 4.23548C22.9247 4.56249 22.9087 5.10863 23.2339 5.4552L27.9645 10.4998L23.2339 15.545C22.9087 15.8916 22.9247 16.4375 23.2687 16.7647C23.4344 16.9221 23.6461 17 23.857 17C24.0848 17 24.3122 16.9091 24.4805 16.7299L29.7663 11.0926C30.0779 10.7598 30.0779 10.2404 29.7662 9.90793Z" fill="#825B46" stroke="#825B46" stroke-width="2"/>
<path d="M7.76617 15.5447L3.036 10.4998L7.76617 5.45498C8.09102 5.10842 8.07531 4.56224 7.73103 4.23527C7.38702 3.90826 6.84418 3.92408 6.51936 4.27064L1.23377 9.90768C0.922078 10.2401 0.922078 10.7598 1.23377 11.0923L6.51963 16.7297C6.6882 16.9094 6.91534 17 7.14305 17C7.3539 17 7.56563 16.9218 7.73103 16.7644C8.07562 16.4374 8.09102 15.8913 7.76617 15.5447Z" fill="#825B46" stroke="#825B46" stroke-width="2"/>
<path d="M17.1394 1.0097C16.5864 0.939522 16.0689 1.25761 15.9844 1.72091L13.0117 18.0227C12.9273 18.4863 13.3073 18.9196 13.8606 18.9904C13.9127 18.9969 13.964 19 14.015 19C14.5072 19 14.9389 18.6992 15.0156 18.2791L17.9883 1.97735C18.0727 1.51374 17.6927 1.08046 17.1394 1.0097Z" fill="#825B46" stroke="#825B46" stroke-width="2"/>
</svg>
