<svg width="27" height="18" viewBox="0 0 27 18" fill="none" xmlns="http://www.w3.org/2000/svg">
<path d="M25.7985 8.67923L21.2418 3.81967C20.9618 3.52067 20.4943 3.50703 20.1972 3.78918C19.9007 4.07109 19.8869 4.5419 20.1672 4.84066L24.2453 9.18947L20.1672 13.5388C19.8869 13.8376 19.9007 14.3081 20.1972 14.5903C20.3401 14.7259 20.5226 14.7931 20.7044 14.7931C20.9007 14.7931 21.0968 14.7147 21.2419 14.5603L25.7986 9.70046C26.0672 9.41362 26.0672 8.96583 25.7985 8.67923Z" fill="#825B46" stroke="#825B46" stroke-width="2"/>
<path d="M6.8329 13.5385L2.75518 9.18948L6.8329 4.84048C7.11295 4.54172 7.09941 4.07087 6.80261 3.789C6.50605 3.50709 6.03808 3.52073 5.75807 3.81949L1.20152 8.67901C0.932826 8.96561 0.932826 9.41363 1.20152 9.70027L5.7583 14.56C5.90362 14.715 6.09943 14.7931 6.29574 14.7931C6.4775 14.7931 6.66003 14.7256 6.80261 14.59C7.09968 14.3081 7.11295 13.8373 6.8329 13.5385Z" fill="#825B46" stroke="#825B46" stroke-width="2"/>
<path d="M14.9133 1.00836C14.4366 0.947864 13.9904 1.22207 13.9176 1.62148L11.355 15.6747C11.2822 16.0744 11.6098 16.4479 12.0868 16.5089C12.1316 16.5145 12.1759 16.5172 12.2199 16.5172C12.6442 16.5172 13.0163 16.2579 13.0824 15.8958L15.6451 1.84255C15.7179 1.44288 15.3903 1.06936 14.9133 1.00836Z" fill="#825B46" stroke="#825B46" stroke-width="2"/>
</svg>
