<svg width="24" height="24" viewBox="0 0 24 24" fill="none" xmlns="http://www.w3.org/2000/svg">
<path d="M22.8248 18.6207C22.3555 18.152 20.2536 16.8467 18.2016 15.7113C19.3322 14.0913 19.9996 12.1247 19.9996 10C19.9996 4.47733 15.5223 0 9.99978 0C4.47657 0 0 4.47733 0 10C0 15.5227 4.47657 20 9.99978 20C12.1057 20 14.057 19.346 15.669 18.234C16.8056 20.288 18.1129 22.394 18.5823 22.8633C19.5249 23.806 20.6662 24.0013 21.3329 24C22.1175 23.9987 24.0361 22.0793 23.9995 21.3333C23.9668 20.6673 23.7675 19.5633 22.8248 18.6207Z" fill="#292F33"/>
<path d="M10 18C14.4183 18 18 14.4183 18 10C18 5.58172 14.4183 2 10 2C5.58172 2 2 5.58172 2 10C2 14.4183 5.58172 18 10 18Z" fill="#66757F"/>
<path d="M11.2359 16.7424C14.3482 15.7254 13.7959 13.4254 13.7959 10.7718C13.7959 8.11822 16.3565 6.32174 14.0096 4.30368C12.6164 3.10558 9.68969 2.70024 8.32971 3.22565C7.07981 3.70794 5.47599 4.69044 5.47599 6.68064C5.47599 8.67083 5.43887 8.62241 4.38289 10.4123C2.70291 13.2596 6.83597 18.18 11.2359 16.7424Z" fill="#F5F8FA"/>
<path d="M8.5 15C9.88071 15 11 13.8807 11 12.5C11 11.1193 9.88071 10 8.5 10C7.11929 10 6 11.1193 6 12.5C6 13.8807 7.11929 15 8.5 15Z" fill="#FFAC33"/>
</svg>
