<svg width="22" height="22" viewBox="0 0 22 22" fill="none" xmlns="http://www.w3.org/2000/svg">
<path d="M20.9228 17.0689C20.4926 16.6393 18.5658 15.4428 16.6848 14.4021C17.7212 12.9171 18.3329 11.1143 18.3329 9.16666C18.3329 4.10422 14.2288 0 9.16647 0C4.10352 0 0 4.10422 0 9.16666C0 14.2291 4.10352 18.3333 9.16647 18.3333C11.0969 18.3333 12.8856 17.7338 14.3632 16.7145C15.4052 18.5973 16.6035 20.5278 17.0337 20.958C17.8978 21.8222 18.944 22.0012 19.5551 22C20.2744 21.9988 22.0331 20.2394 21.9995 19.5555C21.9696 18.945 21.7869 17.9331 20.9228 17.0689Z" fill="#292F33"/>
<path d="M9.16659 16.5C13.2167 16.5 16.4999 13.2168 16.4999 9.16668C16.4999 5.11659 13.2167 1.83334 9.16659 1.83334C5.1165 1.83334 1.83325 5.11659 1.83325 9.16668C1.83325 13.2168 5.1165 16.5 9.16659 16.5Z" fill="#66757F"/>
<path d="M10.2997 15.3472C13.1526 14.415 12.6463 12.3066 12.6463 9.87417C12.6463 7.4417 14.9935 5.79493 12.8422 3.94504C11.5651 2.84678 8.8823 2.47522 7.63565 2.95685C6.48991 3.39895 5.01974 4.29957 5.01974 6.12392C5.01974 7.94826 4.98571 7.90387 4.01773 9.54457C2.47775 12.1546 6.26639 16.665 10.2997 15.3472Z" fill="#F5F8FA"/>
<path d="M7.79167 13.75C9.05732 13.75 10.0833 12.724 10.0833 11.4583C10.0833 10.1927 9.05732 9.16666 7.79167 9.16666C6.52601 9.16666 5.5 10.1927 5.5 11.4583C5.5 12.724 6.52601 13.75 7.79167 13.75Z" fill="#FFAC33"/>
</svg>
