<svg width="91" height="21" viewBox="0 0 91 21" fill="none" xmlns="http://www.w3.org/2000/svg">
<g opacity="0.303223">
<path d="M11.5285 4.23109C12.6931 5.00628 13.6098 6.14267 14.22 7.42909C14.8329 8.71829 15.1394 10.1575 14.9388 11.5218C14.7382 12.8887 14.0277 14.1779 13.0637 15.1921C12.0996 16.2062 10.8793 16.9481 9.52236 17.4371C8.16825 17.9289 6.68039 18.1678 5.27891 17.8677C3.88021 17.5677 2.56789 16.7258 1.65121 15.5894C0.737325 14.453 0.216297 13.0193 0.0546948 11.5662C-0.106908 10.1103 0.0881298 8.63772 0.65931 7.3124C1.23049 5.98708 2.1806 4.81179 3.38983 4.05605C4.59906 3.30031 6.06463 2.96412 7.50512 3.00302C8.94561 3.04192 10.361 3.45591 11.5285 4.23109Z" fill="#3FAB91"/>
</g>
<g opacity="0.303223">
<path d="M41.2587 4.38064C42.3177 3.56027 43.6158 3.09263 44.948 2.96066C46.2836 2.82704 47.6531 3.02908 48.7934 3.67714C49.9361 4.32614 50.8462 5.4228 51.4319 6.66208C52.0177 7.90137 52.2805 9.28682 52.2762 10.7136C52.2753 12.1388 52.0081 13.6027 51.2926 14.804C50.578 16.0027 49.4128 16.9378 48.1146 17.4054C46.8173 17.8705 45.3837 17.8697 44.0485 17.5283C42.7108 17.1859 41.473 16.5064 40.4862 15.527C39.4994 14.5476 38.7669 13.2668 38.4882 11.887C38.2095 10.5072 38.3836 9.03108 38.881 7.70518C39.3784 6.37928 40.1989 5.2036 41.2587 4.38064Z" fill="#3FAB91"/>
</g>
<g opacity="0.303223">
<path d="M87.5465 8.70719C87.8618 10.0354 87.7597 11.4564 87.3391 12.7805C86.9186 14.1084 86.1796 15.3394 85.1286 16.1795C84.0757 17.0215 82.7108 17.4687 81.3479 17.5508C79.9851 17.633 78.6205 17.3503 77.3268 16.7963C76.0332 16.2461 74.8124 15.4265 74.012 14.2798C73.2135 13.1348 72.8373 11.6608 72.9393 10.2398C73.0434 8.82067 73.6256 7.45084 74.4773 6.30631C75.3308 5.1598 76.45 4.23872 77.7395 3.67304C79.0291 3.10736 80.4892 2.90091 81.8551 3.1663C83.2209 3.43169 84.4905 4.16706 85.4926 5.15341C86.4947 6.13976 87.2293 7.3771 87.5465 8.70719Z" fill="#3FAB91"/>
</g>
</svg>
