<svg width="39" height="39" viewBox="0 0 39 39" fill="none" xmlns="http://www.w3.org/2000/svg">
<path d="M19.5 38C29.7173 38 38 29.7173 38 19.5C38 9.28273 29.7173 1 19.5 1C9.28273 1 1 9.28273 1 19.5C1 29.7173 9.28273 38 19.5 38Z" fill="#CDB19A"/>
<path fill-rule="evenodd" clip-rule="evenodd" d="M19.5 0C8.74819 0 0 8.74819 0 19.5C0 30.2518 8.74819 39 19.5 39C30.2518 39 39 30.2518 39 19.5C39 8.74819 30.2518 0 19.5 0ZM36.5552 19.6462C32.4261 18.5567 28.1921 18.4299 24.1581 19.2611C23.6072 17.8864 23.0124 16.5336 22.3738 15.1978C26.0227 13.4916 29.3962 11.1784 32.3554 8.31919C34.9659 11.3149 36.5625 15.2197 36.5625 19.5C36.5625 19.524 36.5607 19.5475 36.5589 19.5712L36.5589 19.5713C36.5571 19.5957 36.5552 19.6203 36.5552 19.6462ZM21.3159 13.0309C24.7236 11.4416 27.8679 9.26737 30.6321 6.59831C27.6413 4.01213 23.7534 2.4375 19.5 2.4375C17.9229 2.4375 16.4044 2.66906 14.9541 3.07125C17.3647 6.21563 19.4951 9.54525 21.3159 13.0309ZM12.5458 3.93412C15.0199 7.08337 17.1917 10.4374 19.0417 13.9498C13.923 15.9047 8.3655 16.6554 2.80069 16.0046C3.92925 10.6031 7.6245 6.1425 12.5458 3.93412ZM2.47953 18.6167C2.45855 18.9089 2.4375 19.202 2.4375 19.5C2.4375 23.8924 4.12181 27.8923 6.85913 30.9197C10.452 25.5011 15.7901 21.6645 21.7815 19.8656C21.2721 18.6128 20.7212 17.3769 20.1362 16.1582C15.912 17.8035 11.4051 18.7005 6.81769 18.7005C5.37956 18.7005 3.93656 18.5884 2.49356 18.4178C2.48905 18.484 2.48429 18.5503 2.47953 18.6167ZM8.64094 32.6503C11.9462 27.4536 16.9869 23.79 22.659 22.1325C24.1995 26.3737 25.3086 30.7783 25.9545 35.2852C23.9631 36.1042 21.7839 36.5625 19.5 36.5625C15.3782 36.5625 11.5928 35.0927 8.64094 32.6503ZM25.0526 21.567C26.5078 25.6254 27.5706 29.8301 28.2409 34.125C32.5065 31.5656 35.5558 27.2074 36.3431 22.0984C32.5894 21.0381 28.7357 20.8748 25.0526 21.567Z" fill="white"/>
</svg>
