<svg width="77" height="16" viewBox="0 0 77 16" fill="none" xmlns="http://www.w3.org/2000/svg">
<path d="M8.4542 3.48851C9.30828 4.0699 9.98051 4.92219 10.428 5.887C10.8775 6.85391 11.1023 7.93333 10.9551 8.9565C10.808 9.98175 10.287 10.9486 9.58003 11.7092C8.87307 12.4699 7.97813 13.0262 6.98307 13.393C5.99005 13.7618 4.89895 13.941 3.8712 13.716C2.84549 13.4909 1.88312 12.8595 1.21089 12.0072C0.540705 11.1549 0.158618 10.0797 0.0401095 8.98984C-0.0783989 7.89791 0.0646285 6.79347 0.483494 5.79948C0.90236 4.80549 1.59911 3.92403 2.48588 3.35722C3.37265 2.79042 4.44739 2.53828 5.50375 2.56745C6.56011 2.59662 7.59808 2.90712 8.4542 3.48851Z" fill="#C7E9F9"/>
<path d="M35.8748 3.10067C36.6551 2.48539 37.6117 2.13466 38.5933 2.03568C39.5774 1.93546 40.5865 2.087 41.4267 2.57304C42.2687 3.05979 42.9393 3.88228 43.3709 4.81175C43.8025 5.74121 43.9962 6.7803 43.993 7.85041C43.9923 8.91928 43.7954 10.0172 43.2682 10.9182C42.7417 11.8172 41.8831 12.5185 40.9265 12.8692C39.9706 13.218 38.9143 13.2175 37.9304 12.9614C36.9448 12.7046 36.0328 12.195 35.3056 11.4604C34.5785 10.7259 34.0388 9.76527 33.8334 8.73043C33.628 7.69559 33.7564 6.5885 34.1228 5.59407C34.4893 4.59965 35.0939 3.71788 35.8748 3.10067Z" fill="#C7E9F9"/>
<path d="M74.3688 6.63404C74.609 7.64602 74.5312 8.72867 74.2107 9.73749C73.8904 10.7492 73.3273 11.6872 72.5265 12.3272C71.7244 12.9687 70.6844 13.3095 69.646 13.3721C68.6077 13.4347 67.568 13.2193 66.5823 12.7972C65.5967 12.378 64.6666 11.7535 64.0568 10.8798C63.4484 10.0075 63.1617 8.88438 63.2395 7.80174C63.3188 6.72051 63.7624 5.67682 64.4113 4.8048C65.0616 3.93127 65.9143 3.22949 66.8968 2.7985C67.8793 2.36751 68.9918 2.21021 70.0324 2.41241C71.0731 2.61461 72.0404 3.17489 72.8039 3.9264C73.5674 4.67791 74.1271 5.62065 74.3688 6.63404Z" fill="#C7E9F9"/>
</svg>
