<svg width="700" height="112" viewBox="0 0 700 112" fill="none" xmlns="http://www.w3.org/2000/svg">
<g clip-path="url(#clip0)">
<path d="M357.08 80.3C358.53 80.3 359.905 79.725 361.005 78.75L360.105 77.375C359.355 78.05 358.38 78.6 357.255 78.6C355.03 78.6 353.505 76.725 353.505 73.95C353.505 71.15 355.105 69.25 357.305 69.25C358.28 69.25 359.03 69.7 359.73 70.325L360.78 68.975C359.93 68.2 358.83 67.55 357.23 67.55C354.105 67.55 351.38 69.875 351.38 73.95C351.38 77.975 353.855 80.3 357.08 80.3ZM368.424 80.3C371.399 80.3 374.049 77.975 374.049 73.95C374.049 69.875 371.399 67.55 368.424 67.55C365.449 67.55 362.799 69.875 362.799 73.95C362.799 77.975 365.449 80.3 368.424 80.3ZM368.424 78.6C366.349 78.6 364.924 76.725 364.924 73.95C364.924 71.15 366.349 69.25 368.424 69.25C370.524 69.25 371.924 71.15 371.924 73.95C371.924 76.725 370.524 78.6 368.424 78.6ZM377.805 80H379.855V71.2C381.08 69.975 381.93 69.325 383.18 69.325C384.78 69.325 385.48 70.3 385.48 72.575V80H387.53V72.3C387.53 69.2 386.38 67.55 383.83 67.55C382.155 67.55 380.905 68.45 379.755 69.6H379.68L379.505 67.85H377.805V80ZM395.857 80.3C396.607 80.3 397.432 80.075 398.107 79.85L397.707 78.3C397.307 78.45 396.757 78.625 396.332 78.625C394.932 78.625 394.457 77.775 394.457 76.275V69.525H397.732V67.85H394.457V64.45H392.732L392.482 67.85L390.582 67.975V69.525H392.382V76.25C392.382 78.65 393.257 80.3 395.857 80.3ZM405.618 80.3C407.268 80.3 408.568 79.725 409.618 79.05L408.893 77.7C407.993 78.275 407.018 78.65 405.868 78.65C403.543 78.65 401.968 77 401.818 74.425H410.018C410.068 74.125 410.093 73.675 410.093 73.25C410.093 69.775 408.343 67.55 405.243 67.55C402.468 67.55 399.793 69.975 399.793 73.95C399.793 77.925 402.368 80.3 405.618 80.3ZM401.793 72.95C402.043 70.55 403.593 69.175 405.293 69.175C407.193 69.175 408.293 70.5 408.293 72.95H401.793ZM411.78 80H413.93L415.58 77.175C415.98 76.425 416.38 75.7 416.805 75H416.905C417.355 75.7 417.805 76.45 418.23 77.175L420.005 80H422.23L418.28 73.875L421.955 67.85H419.805L418.33 70.525C417.955 71.175 417.58 71.875 417.23 72.55H417.13C416.705 71.875 416.305 71.175 415.93 70.525L414.305 67.85H412.08L415.755 73.65L411.78 80ZM428.408 80.3C429.158 80.3 429.983 80.075 430.658 79.85L430.258 78.3C429.858 78.45 429.308 78.625 428.883 78.625C427.483 78.625 427.008 77.775 427.008 76.275V69.525H430.283V67.85H427.008V64.45H425.283L425.033 67.85L423.133 67.975V69.525H424.933V76.25C424.933 78.65 425.808 80.3 428.408 80.3ZM437.135 80.3C438.81 80.3 440.01 79.425 441.135 78.1H441.21L441.385 80H443.085V67.85H441.035V76.475C439.885 77.9 439.01 78.525 437.76 78.525C436.16 78.525 435.485 77.55 435.485 75.275V67.85H433.41V75.55C433.41 78.65 434.56 80.3 437.135 80.3ZM450.54 80.3C452.065 80.3 453.415 79.5 454.565 78.55H454.64L454.815 80H456.515V72.55C456.515 69.525 455.265 67.55 452.29 67.55C450.34 67.55 448.64 68.4 447.515 69.125L448.315 70.55C449.265 69.9 450.54 69.25 451.94 69.25C453.94 69.25 454.44 70.75 454.44 72.3C449.265 72.875 446.99 74.2 446.99 76.85C446.99 79.025 448.515 80.3 450.54 80.3ZM451.14 78.65C449.94 78.65 448.99 78.075 448.99 76.7C448.99 75.15 450.39 74.15 454.44 73.65V77.025C453.265 78.075 452.315 78.65 451.14 78.65ZM463.068 80.3C463.618 80.3 463.968 80.225 464.243 80.1L463.968 78.55C463.743 78.6 463.643 78.6 463.518 78.6C463.218 78.6 462.943 78.35 462.943 77.7V62.2H460.893V77.55C460.893 79.325 461.518 80.3 463.068 80.3ZM362.259 107H364.309V94.85H362.259V107ZM363.309 92.35C364.109 92.35 364.734 91.8 364.734 91.025C364.734 90.225 364.109 89.7 363.309 89.7C362.509 89.7 361.884 90.225 361.884 91.025C361.884 91.8 362.509 92.35 363.309 92.35ZM368.967 107H371.017V98.2C372.242 96.975 373.092 96.325 374.342 96.325C375.942 96.325 376.642 97.3 376.642 99.575V107H378.692V99.3C378.692 96.2 377.542 94.55 374.992 94.55C373.317 94.55 372.067 95.45 370.917 96.6H370.842L370.667 94.85H368.967V107ZM390.894 112.125H392.969V94.85H391.319L391.119 96H391.069C389.969 95.05 388.994 94.55 387.594 94.55C384.819 94.55 382.319 97 382.319 100.95C382.319 105 384.294 107.3 387.344 107.3C388.744 107.3 390.019 106.55 390.994 105.6L390.894 107.8V112.125ZM387.794 105.575C385.669 105.575 384.444 103.825 384.444 100.925C384.444 98.15 385.994 96.275 387.944 96.275C388.944 96.275 389.869 96.625 390.894 97.55V103.9C389.894 105.025 388.919 105.575 387.794 105.575ZM401.167 107.3C402.842 107.3 404.042 106.425 405.167 105.1H405.242L405.417 107H407.117V94.85H405.067V103.475C403.917 104.9 403.042 105.525 401.792 105.525C400.192 105.525 399.517 104.55 399.517 102.275V94.85H397.442V102.55C397.442 105.65 398.592 107.3 401.167 107.3ZM411.771 107H413.821V94.85H411.771V107ZM412.821 92.35C413.621 92.35 414.246 91.8 414.246 91.025C414.246 90.225 413.621 89.7 412.821 89.7C412.021 89.7 411.396 90.225 411.396 91.025C411.396 91.8 412.021 92.35 412.821 92.35ZM418.479 107H420.529V99.2C421.354 97.15 422.579 96.4 423.604 96.4C424.104 96.4 424.379 96.475 424.779 96.6L425.179 94.8C424.779 94.625 424.404 94.55 423.879 94.55C422.504 94.55 421.254 95.525 420.429 97.05H420.354L420.179 94.85H418.479V107ZM427.702 107H429.752V94.85H427.702V107ZM428.752 92.35C429.552 92.35 430.177 91.8 430.177 91.025C430.177 90.225 429.552 89.7 428.752 89.7C427.952 89.7 427.327 90.225 427.327 91.025C427.327 91.8 427.952 92.35 428.752 92.35ZM439.335 107.3C440.985 107.3 442.285 106.725 443.335 106.05L442.61 104.7C441.71 105.275 440.735 105.65 439.585 105.65C437.26 105.65 435.685 104 435.535 101.425H443.735C443.785 101.125 443.81 100.675 443.81 100.25C443.81 96.775 442.06 94.55 438.96 94.55C436.185 94.55 433.51 96.975 433.51 100.95C433.51 104.925 436.085 107.3 439.335 107.3ZM435.51 99.95C435.76 97.55 437.31 96.175 439.01 96.175C440.91 96.175 442.01 97.5 442.01 99.95H435.51ZM450.542 107.3C453.417 107.3 454.992 105.65 454.992 103.675C454.992 101.375 453.042 100.65 451.292 100C449.917 99.475 448.592 99.05 448.592 97.9C448.592 96.975 449.292 96.15 450.817 96.15C451.892 96.15 452.767 96.6 453.592 97.225L454.567 95.925C453.642 95.175 452.317 94.55 450.792 94.55C448.167 94.55 446.617 96.05 446.617 98C446.617 100.05 448.517 100.875 450.242 101.5C451.567 102 453.017 102.55 453.017 103.8C453.017 104.85 452.217 105.7 450.617 105.7C449.167 105.7 448.092 105.1 447.042 104.25L446.017 105.625C447.167 106.575 448.817 107.3 450.542 107.3Z" fill="#313131"/>
<path d="M409.432 47H416.008V39.704H419.512V34.328H416.008V16.52H407.368L396.232 34.856V39.704H409.432V47ZM403 34.328L407.032 27.704C407.896 25.976 408.76 24.248 409.528 22.568H409.72C409.624 24.488 409.432 27.416 409.432 29.384V34.328H403Z" fill="#1B75AD"/>
</g>
<path d="M2.4748 82H4.5248V69.85H2.4748V82ZM3.5248 67.35C4.3248 67.35 4.9498 66.8 4.9498 66.025C4.9498 65.225 4.3248 64.7 3.5248 64.7C2.7248 64.7 2.0998 65.225 2.0998 66.025C2.0998 66.8 2.7248 67.35 3.5248 67.35ZM9.1827 82H11.2327V73.2C12.4577 71.975 13.3077 71.325 14.5577 71.325C16.1577 71.325 16.8577 72.3 16.8577 74.575V82H18.9077V74.3C18.9077 71.2 17.7577 69.55 15.2077 69.55C13.5327 69.55 12.2827 70.45 11.1327 71.6H11.0577L10.8827 69.85H9.1827V82ZM27.2351 82.3C27.9851 82.3 28.8101 82.075 29.4851 81.85L29.0851 80.3C28.6851 80.45 28.1351 80.625 27.7101 80.625C26.3101 80.625 25.8351 79.775 25.8351 78.275V71.525H29.1101V69.85H25.8351V66.45H24.1101L23.8601 69.85L21.9601 69.975V71.525H23.7601V78.25C23.7601 80.65 24.6351 82.3 27.2351 82.3ZM36.9962 82.3C38.6462 82.3 39.9462 81.725 40.9962 81.05L40.2712 79.7C39.3712 80.275 38.3962 80.65 37.2462 80.65C34.9212 80.65 33.3462 79 33.1962 76.425H41.3962C41.4462 76.125 41.4712 75.675 41.4712 75.25C41.4712 71.775 39.7212 69.55 36.6212 69.55C33.8462 69.55 31.1712 71.975 31.1712 75.95C31.1712 79.925 33.7462 82.3 36.9962 82.3ZM33.1712 74.95C33.4212 72.55 34.9712 71.175 36.6712 71.175C38.5712 71.175 39.6712 72.5 39.6712 74.95H33.1712ZM45.0291 82H47.0791V74.2C47.9041 72.15 49.1291 71.4 50.1541 71.4C50.6541 71.4 50.9291 71.475 51.3291 71.6L51.7291 69.8C51.3291 69.625 50.9541 69.55 50.4291 69.55C49.0541 69.55 47.8041 70.525 46.9791 72.05H46.9041L46.7291 69.85H45.0291V82ZM58.8075 82.3C60.2575 82.3 61.6325 81.725 62.7325 80.75L61.8325 79.375C61.0825 80.05 60.1075 80.6 58.9825 80.6C56.7575 80.6 55.2325 78.725 55.2325 75.95C55.2325 73.15 56.8325 71.25 59.0325 71.25C60.0075 71.25 60.7575 71.7 61.4575 72.325L62.5075 70.975C61.6575 70.2 60.5575 69.55 58.9575 69.55C55.8325 69.55 53.1075 71.875 53.1075 75.95C53.1075 79.975 55.5825 82.3 58.8075 82.3ZM70.3523 82.3C72.0023 82.3 73.3023 81.725 74.3523 81.05L73.6273 79.7C72.7273 80.275 71.7523 80.65 70.6023 80.65C68.2773 80.65 66.7023 79 66.5523 76.425H74.7523C74.8023 76.125 74.8273 75.675 74.8273 75.25C74.8273 71.775 73.0773 69.55 69.9773 69.55C67.2023 69.55 64.5273 71.975 64.5273 75.95C64.5273 79.925 67.1023 82.3 70.3523 82.3ZM66.5273 74.95C66.7773 72.55 68.3273 71.175 70.0273 71.175C71.9273 71.175 73.0273 72.5 73.0273 74.95H66.5273ZM78.3852 87.125H80.4352V83.025L80.3852 80.9C81.5102 81.775 82.6352 82.3 83.7602 82.3C86.5352 82.3 89.0102 79.875 89.0102 75.75C89.0102 71.975 87.3352 69.55 84.2102 69.55C82.7852 69.55 81.4352 70.325 80.3352 71.25H80.2602L80.0852 69.85H78.3852V87.125ZM83.4102 80.575C82.6102 80.575 81.5352 80.225 80.4352 79.3V72.925C81.6352 71.85 82.6602 71.275 83.6852 71.275C85.9852 71.275 86.8852 73.075 86.8852 75.75C86.8852 78.75 85.4102 80.575 83.4102 80.575ZM96.2179 82.3C96.9679 82.3 97.7929 82.075 98.4679 81.85L98.0679 80.3C97.6679 80.45 97.1179 80.625 96.6929 80.625C95.2929 80.625 94.8179 79.775 94.8179 78.275V71.525H98.0929V69.85H94.8179V66.45H93.0929L92.8429 69.85L90.9429 69.975V71.525H92.7429V78.25C92.7429 80.65 93.6179 82.3 96.2179 82.3ZM104.327 82.3C107.202 82.3 108.777 80.65 108.777 78.675C108.777 76.375 106.827 75.65 105.077 75C103.702 74.475 102.377 74.05 102.377 72.9C102.377 71.975 103.077 71.15 104.602 71.15C105.677 71.15 106.552 71.6 107.377 72.225L108.352 70.925C107.427 70.175 106.102 69.55 104.577 69.55C101.952 69.55 100.402 71.05 100.402 73C100.402 75.05 102.302 75.875 104.027 76.5C105.352 77 106.802 77.55 106.802 78.8C106.802 79.85 106.002 80.7 104.402 80.7C102.952 80.7 101.877 80.1 100.827 79.25L99.8016 80.625C100.952 81.575 102.602 82.3 104.327 82.3Z" fill="#313131"/>
<path d="M54.9163 30.584C52.6123 30.584 50.8843 29.384 50.8843 26.168C50.8843 22.712 52.6603 21.224 54.7243 21.224C56.8843 21.224 58.8523 22.76 59.4763 27.56C58.2763 29.72 56.5003 30.584 54.9163 30.584ZM53.8123 47.576C60.1963 47.576 66.1483 42.44 66.1483 31.064C66.1483 20.36 60.4843 15.944 54.5803 15.944C49.0603 15.944 44.4523 19.832 44.4523 26.168C44.4523 32.6 48.3403 35.576 53.5243 35.576C55.3963 35.576 58.0363 34.376 59.6203 32.36C59.3803 39.464 56.7403 41.864 53.3323 41.864C51.5563 41.864 49.6363 40.856 48.6283 39.704L44.8843 43.928C46.8043 45.848 49.7803 47.576 53.8123 47.576Z" fill="#1B75AD"/>
<path d="M163.08 82.3C166.055 82.3 168.705 79.975 168.705 75.95C168.705 71.875 166.055 69.55 163.08 69.55C160.105 69.55 157.455 71.875 157.455 75.95C157.455 79.975 160.105 82.3 163.08 82.3ZM163.08 80.6C161.005 80.6 159.58 78.725 159.58 75.95C159.58 73.15 161.005 71.25 163.08 71.25C165.18 71.25 166.58 73.15 166.58 75.95C166.58 78.725 165.18 80.6 163.08 80.6ZM177.836 82.3C180.611 82.3 183.086 79.875 183.086 75.725C183.086 71.975 181.411 69.55 178.261 69.55C176.911 69.55 175.561 70.275 174.461 71.25L174.511 69.05V64.2H172.461V82H174.111L174.286 80.75H174.361C175.436 81.725 176.711 82.3 177.836 82.3ZM177.486 80.575C176.686 80.575 175.586 80.225 174.511 79.3V72.925C175.661 71.85 176.736 71.275 177.761 71.275C180.061 71.275 180.961 73.075 180.961 75.75C180.961 78.75 179.486 80.575 177.486 80.575ZM190.01 82.3C192.885 82.3 194.46 80.65 194.46 78.675C194.46 76.375 192.51 75.65 190.76 75C189.385 74.475 188.06 74.05 188.06 72.9C188.06 71.975 188.76 71.15 190.285 71.15C191.36 71.15 192.235 71.6 193.06 72.225L194.035 70.925C193.11 70.175 191.785 69.55 190.26 69.55C187.635 69.55 186.085 71.05 186.085 73C186.085 75.05 187.985 75.875 189.71 76.5C191.035 77 192.485 77.55 192.485 78.8C192.485 79.85 191.685 80.7 190.085 80.7C188.635 80.7 187.56 80.1 186.51 79.25L185.485 80.625C186.635 81.575 188.285 82.3 190.01 82.3ZM202.789 82.3C204.439 82.3 205.739 81.725 206.789 81.05L206.064 79.7C205.164 80.275 204.189 80.65 203.039 80.65C200.714 80.65 199.139 79 198.989 76.425H207.189C207.239 76.125 207.264 75.675 207.264 75.25C207.264 71.775 205.514 69.55 202.414 69.55C199.639 69.55 196.964 71.975 196.964 75.95C196.964 79.925 199.539 82.3 202.789 82.3ZM198.964 74.95C199.214 72.55 200.764 71.175 202.464 71.175C204.364 71.175 205.464 72.5 205.464 74.95H198.964ZM210.822 82H212.872V74.2C213.697 72.15 214.922 71.4 215.947 71.4C216.447 71.4 216.722 71.475 217.122 71.6L217.522 69.8C217.122 69.625 216.747 69.55 216.222 69.55C214.847 69.55 213.597 70.525 212.772 72.05H212.697L212.522 69.85H210.822V82ZM223.304 82H225.704L230.004 69.85H227.979L225.679 76.75C225.329 77.95 224.929 79.175 224.579 80.325H224.479C224.104 79.175 223.704 77.95 223.354 76.75L221.054 69.85H218.929L223.304 82ZM235.216 82.3C236.741 82.3 238.091 81.5 239.241 80.55H239.316L239.491 82H241.191V74.55C241.191 71.525 239.941 69.55 236.966 69.55C235.016 69.55 233.316 70.4 232.191 71.125L232.991 72.55C233.941 71.9 235.216 71.25 236.616 71.25C238.616 71.25 239.116 72.75 239.116 74.3C233.941 74.875 231.666 76.2 231.666 78.85C231.666 81.025 233.191 82.3 235.216 82.3ZM235.816 80.65C234.616 80.65 233.666 80.075 233.666 78.7C233.666 77.15 235.066 76.15 239.116 75.65V79.025C237.941 80.075 236.991 80.65 235.816 80.65ZM249.053 82.3C249.803 82.3 250.628 82.075 251.303 81.85L250.903 80.3C250.503 80.45 249.953 80.625 249.528 80.625C248.128 80.625 247.653 79.775 247.653 78.275V71.525H250.928V69.85H247.653V66.45H245.928L245.678 69.85L243.778 69.975V71.525H245.578V78.25C245.578 80.65 246.453 82.3 249.053 82.3ZM254.23 82H256.28V69.85H254.23V82ZM255.28 67.35C256.08 67.35 256.705 66.8 256.705 66.025C256.705 65.225 256.08 64.7 255.28 64.7C254.48 64.7 253.855 65.225 253.855 66.025C253.855 66.8 254.48 67.35 255.28 67.35ZM265.663 82.3C268.638 82.3 271.288 79.975 271.288 75.95C271.288 71.875 268.638 69.55 265.663 69.55C262.688 69.55 260.038 71.875 260.038 75.95C260.038 79.975 262.688 82.3 265.663 82.3ZM265.663 80.6C263.588 80.6 262.163 78.725 262.163 75.95C262.163 73.15 263.588 71.25 265.663 71.25C267.763 71.25 269.163 73.15 269.163 75.95C269.163 78.725 267.763 80.6 265.663 80.6ZM275.044 82H277.094V73.2C278.319 71.975 279.169 71.325 280.419 71.325C282.019 71.325 282.719 72.3 282.719 74.575V82H284.769V74.3C284.769 71.2 283.619 69.55 281.069 69.55C279.394 69.55 278.144 70.45 276.994 71.6H276.919L276.744 69.85H275.044V82ZM292.446 82.3C295.321 82.3 296.896 80.65 296.896 78.675C296.896 76.375 294.946 75.65 293.196 75C291.821 74.475 290.496 74.05 290.496 72.9C290.496 71.975 291.196 71.15 292.721 71.15C293.796 71.15 294.671 71.6 295.496 72.225L296.471 70.925C295.546 70.175 294.221 69.55 292.696 69.55C290.071 69.55 288.521 71.05 288.521 73C288.521 75.05 290.421 75.875 292.146 76.5C293.471 77 294.921 77.55 294.921 78.8C294.921 79.85 294.121 80.7 292.521 80.7C291.071 80.7 289.996 80.1 288.946 79.25L287.921 80.625C289.071 81.575 290.721 82.3 292.446 82.3Z" fill="#313131"/>
<path d="M226.944 47.576C233.424 47.576 237.744 43.928 237.744 39.128C237.744 35.096 235.392 32.744 232.464 31.16V30.968C234.576 29.576 236.448 27.224 236.448 24.296C236.448 19.256 232.752 15.944 227.184 15.944C221.52 15.944 217.44 19.16 217.44 24.344C217.44 27.56 219.168 29.768 221.52 31.544V31.736C218.64 33.272 216.336 35.528 216.336 39.224C216.336 44.168 220.848 47.576 226.944 47.576ZM228.864 29.24C225.744 28.04 223.632 26.84 223.632 24.344C223.632 21.992 225.168 20.84 227.04 20.84C229.344 20.84 230.736 22.424 230.736 24.776C230.736 26.36 230.064 27.848 228.864 29.24ZM227.088 42.68C224.544 42.68 222.384 41.096 222.384 38.408C222.384 36.536 223.392 34.808 224.736 33.56C228.576 35.192 231.168 36.2 231.168 38.888C231.168 41.432 229.44 42.68 227.088 42.68Z" fill="#1B75AD"/>
<path d="M519.002 80.3C521.877 80.3 523.452 78.65 523.452 76.675C523.452 74.375 521.502 73.65 519.752 73C518.377 72.475 517.052 72.05 517.052 70.9C517.052 69.975 517.752 69.15 519.277 69.15C520.352 69.15 521.227 69.6 522.052 70.225L523.027 68.925C522.102 68.175 520.777 67.55 519.252 67.55C516.627 67.55 515.077 69.05 515.077 71C515.077 73.05 516.977 73.875 518.702 74.5C520.027 75 521.477 75.55 521.477 76.8C521.477 77.85 520.677 78.7 519.077 78.7C517.627 78.7 516.552 78.1 515.502 77.25L514.477 78.625C515.627 79.575 517.277 80.3 519.002 80.3ZM531.781 80.3C533.431 80.3 534.731 79.725 535.781 79.05L535.056 77.7C534.156 78.275 533.181 78.65 532.031 78.65C529.706 78.65 528.131 77 527.981 74.425H536.181C536.231 74.125 536.256 73.675 536.256 73.25C536.256 69.775 534.506 67.55 531.406 67.55C528.631 67.55 525.956 69.975 525.956 73.95C525.956 77.925 528.531 80.3 531.781 80.3ZM527.956 72.95C528.206 70.55 529.756 69.175 531.456 69.175C533.356 69.175 534.456 70.5 534.456 72.95H527.956ZM539.814 80H541.864V71.2C542.989 69.95 544.014 69.325 544.914 69.325C546.464 69.325 547.189 70.3 547.189 72.575V80H549.239V71.2C550.364 69.95 551.339 69.325 552.289 69.325C553.814 69.325 554.539 70.3 554.539 72.575V80H556.589V72.3C556.589 69.2 555.389 67.55 552.889 67.55C551.414 67.55 550.164 68.5 548.889 69.875C548.389 68.425 547.389 67.55 545.539 67.55C544.089 67.55 542.814 68.45 541.764 69.6H541.689L541.514 67.85H539.814V80ZM561.097 80H563.147V67.85H561.097V80ZM562.147 65.35C562.947 65.35 563.572 64.8 563.572 64.025C563.572 63.225 562.947 62.7 562.147 62.7C561.347 62.7 560.722 63.225 560.722 64.025C560.722 64.8 561.347 65.35 562.147 65.35ZM566.78 74.525H572.53V72.95H566.78V74.525ZM579.299 80.3C582.174 80.3 583.749 78.65 583.749 76.675C583.749 74.375 581.799 73.65 580.049 73C578.674 72.475 577.349 72.05 577.349 70.9C577.349 69.975 578.049 69.15 579.574 69.15C580.649 69.15 581.524 69.6 582.349 70.225L583.324 68.925C582.399 68.175 581.074 67.55 579.549 67.55C576.924 67.55 575.374 69.05 575.374 71C575.374 73.05 577.274 73.875 578.999 74.5C580.324 75 581.774 75.55 581.774 76.8C581.774 77.85 580.974 78.7 579.374 78.7C577.924 78.7 576.849 78.1 575.799 77.25L574.774 78.625C575.924 79.575 577.574 80.3 579.299 80.3ZM590.49 80.3C591.24 80.3 592.065 80.075 592.74 79.85L592.34 78.3C591.94 78.45 591.39 78.625 590.965 78.625C589.565 78.625 589.09 77.775 589.09 76.275V69.525H592.365V67.85H589.09V64.45H587.365L587.115 67.85L585.215 67.975V69.525H587.015V76.25C587.015 78.65 587.89 80.3 590.49 80.3ZM595.668 80H597.718V72.2C598.543 70.15 599.768 69.4 600.793 69.4C601.293 69.4 601.568 69.475 601.968 69.6L602.368 67.8C601.968 67.625 601.593 67.55 601.068 67.55C599.693 67.55 598.443 68.525 597.618 70.05H597.543L597.368 67.85H595.668V80ZM608.44 80.3C610.115 80.3 611.315 79.425 612.44 78.1H612.515L612.69 80H614.39V67.85H612.34V76.475C611.19 77.9 610.315 78.525 609.065 78.525C607.465 78.525 606.79 77.55 606.79 75.275V67.85H604.715V75.55C604.715 78.65 605.865 80.3 608.44 80.3ZM623.844 80.3C625.294 80.3 626.669 79.725 627.769 78.75L626.869 77.375C626.119 78.05 625.144 78.6 624.019 78.6C621.794 78.6 620.269 76.725 620.269 73.95C620.269 71.15 621.869 69.25 624.069 69.25C625.044 69.25 625.794 69.7 626.494 70.325L627.544 68.975C626.694 68.2 625.594 67.55 623.994 67.55C620.869 67.55 618.144 69.875 618.144 73.95C618.144 77.975 620.619 80.3 623.844 80.3ZM634.582 80.3C635.332 80.3 636.157 80.075 636.832 79.85L636.432 78.3C636.032 78.45 635.482 78.625 635.057 78.625C633.657 78.625 633.182 77.775 633.182 76.275V69.525H636.457V67.85H633.182V64.45H631.457L631.207 67.85L629.307 67.975V69.525H631.107V76.25C631.107 78.65 631.982 80.3 634.582 80.3ZM643.31 80.3C644.985 80.3 646.185 79.425 647.31 78.1H647.385L647.56 80H649.26V67.85H647.21V76.475C646.06 77.9 645.185 78.525 643.935 78.525C642.335 78.525 641.66 77.55 641.66 75.275V67.85H639.585V75.55C639.585 78.65 640.735 80.3 643.31 80.3ZM653.914 80H655.964V72.2C656.789 70.15 658.014 69.4 659.039 69.4C659.539 69.4 659.814 69.475 660.214 69.6L660.614 67.8C660.214 67.625 659.839 67.55 659.314 67.55C657.939 67.55 656.689 68.525 655.864 70.05H655.789L655.614 67.85H653.914V80ZM667.818 80.3C669.468 80.3 670.768 79.725 671.818 79.05L671.093 77.7C670.193 78.275 669.218 78.65 668.068 78.65C665.743 78.65 664.168 77 664.018 74.425H672.218C672.268 74.125 672.293 73.675 672.293 73.25C672.293 69.775 670.543 67.55 667.443 67.55C664.668 67.55 661.993 69.975 661.993 73.95C661.993 77.925 664.568 80.3 667.818 80.3ZM663.993 72.95C664.243 70.55 665.793 69.175 667.493 69.175C669.393 69.175 670.493 70.5 670.493 72.95H663.993ZM680.001 80.3C681.426 80.3 682.726 79.5 683.676 78.575H683.751L683.926 80H685.626V62.2H683.551V66.875L683.651 68.95C682.576 68.075 681.651 67.55 680.251 67.55C677.476 67.55 674.976 70 674.976 73.95C674.976 78 676.951 80.3 680.001 80.3ZM680.451 78.575C678.326 78.575 677.101 76.825 677.101 73.925C677.101 71.15 678.651 69.275 680.601 69.275C681.601 69.275 682.526 69.625 683.551 70.55V76.9C682.551 78.025 681.576 78.575 680.451 78.575ZM546.351 107H548.401V94.85H546.351V107ZM547.401 92.35C548.201 92.35 548.826 91.8 548.826 91.025C548.826 90.225 548.201 89.7 547.401 89.7C546.601 89.7 545.976 90.225 545.976 91.025C545.976 91.8 546.601 92.35 547.401 92.35ZM553.059 107H555.109V98.2C556.334 96.975 557.184 96.325 558.434 96.325C560.034 96.325 560.734 97.3 560.734 99.575V107H562.784V99.3C562.784 96.2 561.634 94.55 559.084 94.55C557.409 94.55 556.159 95.45 555.009 96.6H554.934L554.759 94.85H553.059V107ZM571.111 107.3C571.861 107.3 572.686 107.075 573.361 106.85L572.961 105.3C572.561 105.45 572.011 105.625 571.586 105.625C570.186 105.625 569.711 104.775 569.711 103.275V96.525H572.986V94.85H569.711V91.45H567.986L567.736 94.85L565.836 94.975V96.525H567.636V103.25C567.636 105.65 568.511 107.3 571.111 107.3ZM580.872 107.3C582.522 107.3 583.822 106.725 584.872 106.05L584.147 104.7C583.247 105.275 582.272 105.65 581.122 105.65C578.797 105.65 577.222 104 577.072 101.425H585.272C585.322 101.125 585.347 100.675 585.347 100.25C585.347 96.775 583.597 94.55 580.497 94.55C577.722 94.55 575.047 96.975 575.047 100.95C575.047 104.925 577.622 107.3 580.872 107.3ZM577.047 99.95C577.297 97.55 578.847 96.175 580.547 96.175C582.447 96.175 583.547 97.5 583.547 99.95H577.047ZM588.905 107H590.955V99.2C591.78 97.15 593.005 96.4 594.03 96.4C594.53 96.4 594.805 96.475 595.205 96.6L595.605 94.8C595.205 94.625 594.83 94.55 594.305 94.55C592.93 94.55 591.68 95.525 590.855 97.05H590.78L590.605 94.85H588.905V107ZM601.387 107H603.787L608.087 94.85H606.062L603.762 101.75C603.412 102.95 603.012 104.175 602.662 105.325H602.562C602.187 104.175 601.787 102.95 601.437 101.75L599.137 94.85H597.012L601.387 107ZM610.988 107H613.038V94.85H610.988V107ZM612.038 92.35C612.838 92.35 613.463 91.8 613.463 91.025C613.463 90.225 612.838 89.7 612.038 89.7C611.238 89.7 610.613 90.225 610.613 91.025C610.613 91.8 611.238 92.35 612.038 92.35ZM622.621 107.3C624.271 107.3 625.571 106.725 626.621 106.05L625.896 104.7C624.996 105.275 624.021 105.65 622.871 105.65C620.546 105.65 618.971 104 618.821 101.425H627.021C627.071 101.125 627.096 100.675 627.096 100.25C627.096 96.775 625.346 94.55 622.246 94.55C619.471 94.55 616.796 96.975 616.796 100.95C616.796 104.925 619.371 107.3 622.621 107.3ZM618.796 99.95C619.046 97.55 620.596 96.175 622.296 96.175C624.196 96.175 625.296 97.5 625.296 99.95H618.796ZM632.701 107H635.101L636.801 100.5C637.126 99.35 637.376 98.2 637.651 96.975H637.751C638.051 98.2 638.276 99.325 638.576 100.475L640.326 107H642.826L646.076 94.85H644.126L642.351 101.875C642.101 103.025 641.876 104.125 641.601 105.25H641.501C641.226 104.125 640.951 103.025 640.651 101.875L638.751 94.85H636.751L634.876 101.875C634.576 103 634.326 104.125 634.051 105.25H633.951C633.726 104.125 633.501 103.025 633.226 101.875L631.426 94.85H629.326L632.701 107ZM652.451 107.3C655.326 107.3 656.901 105.65 656.901 103.675C656.901 101.375 654.951 100.65 653.201 100C651.826 99.475 650.501 99.05 650.501 97.9C650.501 96.975 651.201 96.15 652.726 96.15C653.801 96.15 654.676 96.6 655.501 97.225L656.476 95.925C655.551 95.175 654.226 94.55 652.701 94.55C650.076 94.55 648.526 96.05 648.526 98C648.526 100.05 650.426 100.875 652.151 101.5C653.476 102 654.926 102.55 654.926 103.8C654.926 104.85 654.126 105.7 652.526 105.7C651.076 105.7 650.001 105.1 648.951 104.25L647.926 105.625C649.076 106.575 650.726 107.3 652.451 107.3Z" fill="#313131"/>
<path d="M590.096 47H611.552V41.048H605.408C603.968 41.048 601.856 41.24 600.32 41.432C605.264 36.248 610.064 30.776 610.064 25.64C610.064 19.784 605.984 15.944 599.984 15.944C595.616 15.944 592.784 17.576 589.76 20.792L593.6 24.584C595.136 22.952 596.816 21.464 599.024 21.464C601.664 21.464 603.344 23.096 603.344 26.072C603.344 30.392 597.872 35.624 590.096 42.968V47Z" fill="#1B75AD"/>
<defs>
<clipPath id="clip0">
<rect width="180" height="112" fill="white" transform="translate(318)"/>
</clipPath>
</defs>
</svg>
