<svg width="36" height="35" viewBox="0 0 36 35" fill="none" xmlns="http://www.w3.org/2000/svg">
<path d="M18 0C8.055 0 0 8.03466 0 17.9441C0 25.8737 5.157 32.5982 12.3075 34.969C13.2075 35.138 13.5375 34.5825 13.5375 34.1062C13.5375 33.6801 13.5225 32.551 13.515 31.0552C8.508 32.1371 7.452 28.6478 7.452 28.6478C6.633 26.5768 5.4495 26.0229 5.4495 26.0229C3.819 24.9105 5.5755 24.9333 5.5755 24.9333C7.383 25.0581 8.3325 26.7822 8.3325 26.7822C9.9375 29.5259 12.546 28.733 13.575 28.275C13.737 27.1139 14.2005 26.3242 14.715 25.8753C10.7175 25.4264 6.516 23.8833 6.516 17.0082C6.516 15.0498 7.2135 13.4489 8.3685 12.1935C8.166 11.74 7.5585 9.9155 8.526 7.44424C8.526 7.44424 10.0335 6.96337 13.476 9.28399C14.916 8.8853 16.446 8.68748 17.976 8.67835C19.506 8.68748 21.036 8.8853 22.476 9.28399C25.896 6.96337 27.4035 7.44424 27.4035 7.44424C28.371 9.9155 27.7635 11.74 27.5835 12.1935C28.731 13.4489 29.4285 15.0498 29.4285 17.0082C29.4285 23.9016 25.221 25.4188 21.216 25.86C21.846 26.3987 22.431 27.4989 22.431 29.1804C22.431 31.5817 22.4085 33.5112 22.4085 34.0941C22.4085 34.5643 22.7235 35.1258 23.646 34.9462C30.8475 32.5906 36 25.8616 36 17.9441C36 8.03466 27.9405 0 18 0V0Z" fill="#CDB19A"/>
</svg>
