<svg width="1118" height="310" viewBox="0 0 1118 310" fill="none" xmlns="http://www.w3.org/2000/svg">
<path d="M519.868 63.8677L528.868 46.1324L541.868 60.1854" stroke="#51BAA1" stroke-opacity="0.263467" stroke-width="5" stroke-linecap="round" stroke-linejoin="round"/>
<path d="M424.868 49.1323L415.868 66.8676L402.868 52.8146" stroke="#51BAA1" stroke-opacity="0.263467" stroke-width="5" stroke-linecap="round" stroke-linejoin="round"/>
<path fill-rule="evenodd" clip-rule="evenodd" d="M472.5 119C504.256 119 530 93.2564 530 61.5C530 29.7436 504.256 4 472.5 4C440.744 4 415 29.7436 415 61.5C415 93.2564 440.744 119 472.5 119Z" stroke="#51BAA1" stroke-opacity="0.263467" stroke-width="7"/>
<g clip-path="url(#clip0)">
<path fill-rule="evenodd" clip-rule="evenodd" d="M634.5 119C659.077 119 679 99.0767 679 74.5C679 49.9233 659.077 30 634.5 30C609.923 30 590 49.9233 590 74.5C590 99.0767 609.923 119 634.5 119Z" stroke="#51BAA1" stroke-opacity="0.263467" stroke-width="7"/>
<path d="M665.464 80.8214L678.223 65.5652L687.728 82.1825" stroke="#51BAA1" stroke-opacity="0.263467" stroke-width="5" stroke-linecap="round" stroke-linejoin="round"/>
<path d="M600.868 66.1323L591.868 83.8676L578.868 69.8146" stroke="#51BAA1" stroke-opacity="0.263467" stroke-width="5" stroke-linecap="round" stroke-linejoin="round"/>
<path d="M640.431 62.692C640.431 63.4013 640.291 64.0827 640.011 64.736C639.731 65.3893 639.367 66.024 638.919 66.64C638.471 67.2373 637.967 67.816 637.407 68.376C636.847 68.936 636.296 69.468 635.755 69.972C635.475 70.2333 635.167 70.532 634.831 70.868C634.514 71.1853 634.206 71.512 633.907 71.848C633.608 72.184 633.338 72.5013 633.095 72.8C632.871 73.08 632.731 73.3133 632.675 73.5H641.019V77H628.083C628.046 76.7947 628.027 76.5333 628.027 76.216C628.027 75.8987 628.027 75.6747 628.027 75.544C628.027 74.648 628.167 73.8267 628.447 73.08C628.746 72.3333 629.128 71.6427 629.595 71.008C630.062 70.3547 630.584 69.748 631.163 69.188C631.76 68.628 632.348 68.068 632.927 67.508C633.375 67.0787 633.795 66.6773 634.187 66.304C634.579 65.912 634.924 65.5387 635.223 65.184C635.522 64.8107 635.755 64.4467 635.923 64.092C636.091 63.7187 636.175 63.3453 636.175 62.972C636.175 62.1507 635.942 61.572 635.475 61.236C635.008 60.9 634.43 60.732 633.739 60.732C633.235 60.732 632.759 60.816 632.311 60.984C631.882 61.1333 631.48 61.32 631.107 61.544C630.752 61.7493 630.444 61.964 630.183 62.188C629.922 62.3933 629.726 62.5613 629.595 62.692L627.523 59.78C628.344 59.0147 629.296 58.3893 630.379 57.904C631.48 57.4 632.656 57.148 633.907 57.148C635.046 57.148 636.026 57.2787 636.847 57.54C637.668 57.8013 638.34 58.1747 638.863 58.66C639.404 59.1267 639.796 59.7053 640.039 60.396C640.3 61.068 640.431 61.8333 640.431 62.692Z" fill="#0F6C56"/>
<path d="M617.917 94H618.913V90.676H620.341L622.237 94H623.365L621.361 90.568C622.441 90.304 623.137 89.56 623.137 88.336C623.137 86.704 621.985 86.128 620.377 86.128H617.917V94ZM618.913 89.86V86.932H620.233C621.457 86.932 622.141 87.304 622.141 88.336C622.141 89.356 621.457 89.86 620.233 89.86H618.913ZM627.071 94.144C628.499 94.144 629.771 93.028 629.771 91.096C629.771 89.14 628.499 88.024 627.071 88.024C625.643 88.024 624.371 89.14 624.371 91.096C624.371 93.028 625.643 94.144 627.071 94.144ZM627.071 93.328C626.075 93.328 625.391 92.428 625.391 91.096C625.391 89.752 626.075 88.84 627.071 88.84C628.079 88.84 628.751 89.752 628.751 91.096C628.751 92.428 628.079 93.328 627.071 93.328ZM633.277 94.144C634.081 94.144 634.657 93.724 635.197 93.088H635.233L635.317 94H636.133V88.168H635.149V92.308C634.597 92.992 634.177 93.292 633.577 93.292C632.809 93.292 632.485 92.824 632.485 91.732V88.168H631.489V91.864C631.489 93.352 632.041 94.144 633.277 94.144ZM638.367 94H639.351V89.776C639.939 89.188 640.347 88.876 640.947 88.876C641.715 88.876 642.051 89.344 642.051 90.436V94H643.035V90.304C643.035 88.816 642.483 88.024 641.259 88.024C640.455 88.024 639.855 88.456 639.303 89.008H639.267L639.183 88.168H638.367V94ZM647.189 94.144C647.873 94.144 648.497 93.76 648.953 93.316H648.989L649.073 94H649.889V85.456H648.893V87.7L648.941 88.696C648.425 88.276 647.981 88.024 647.309 88.024C645.977 88.024 644.777 89.2 644.777 91.096C644.777 93.04 645.725 94.144 647.189 94.144ZM647.405 93.316C646.385 93.316 645.797 92.476 645.797 91.084C645.797 89.752 646.541 88.852 647.477 88.852C647.957 88.852 648.401 89.02 648.893 89.464V92.512C648.413 93.052 647.945 93.316 647.405 93.316ZM653.643 94.144C655.023 94.144 655.779 93.352 655.779 92.404C655.779 91.3 654.843 90.952 654.003 90.64C653.343 90.388 652.707 90.184 652.707 89.632C652.707 89.188 653.043 88.792 653.775 88.792C654.291 88.792 654.711 89.008 655.107 89.308L655.575 88.684C655.131 88.324 654.495 88.024 653.763 88.024C652.503 88.024 651.759 88.744 651.759 89.68C651.759 90.664 652.671 91.06 653.499 91.36C654.135 91.6 654.831 91.864 654.831 92.464C654.831 92.968 654.447 93.376 653.679 93.376C652.983 93.376 652.467 93.088 651.963 92.68L651.471 93.34C652.023 93.796 652.815 94.144 653.643 94.144Z" fill="#9D9D9D"/>
</g>
<path fill-rule="evenodd" clip-rule="evenodd" d="M396.5 129C401.194 129 405 125.194 405 120.5C405 115.806 401.194 112 396.5 112C391.806 112 388 115.806 388 120.5C388 125.194 391.806 129 396.5 129Z" fill="#51BAA1"/>
<path fill-rule="evenodd" clip-rule="evenodd" d="M228.5 129C233.194 129 237 125.194 237 120.5C237 115.806 233.194 112 228.5 112C223.806 112 220 115.806 220 120.5C220 125.194 223.806 129 228.5 129Z" fill="#51BAA1"/>
<path fill-rule="evenodd" clip-rule="evenodd" d="M61.5 129C66.1944 129 70 125.194 70 120.5C70 115.806 66.1944 112 61.5 112C56.8056 112 53 115.806 53 120.5C53 125.194 56.8056 129 61.5 129Z" fill="#51BAA1"/>
<path fill-rule="evenodd" clip-rule="evenodd" d="M563.5 129C568.194 129 572 125.194 572 120.5C572 115.806 568.194 112 563.5 112C558.806 112 555 115.806 555 120.5C555 125.194 558.806 129 563.5 129Z" fill="#51BAA1"/>
<path d="M19.0709 163H21.6229V157.368H23.8229L26.9249 163H29.7849L26.3529 156.994C28.0689 156.4 29.2129 155.08 29.2129 152.88C29.2129 149.668 26.9249 148.612 23.9329 148.612H19.0709V163ZM21.6229 155.344V150.658H23.6689C25.6269 150.658 26.7049 151.23 26.7049 152.88C26.7049 154.508 25.6269 155.344 23.6689 155.344H21.6229ZM36.7645 163.264C38.1285 163.264 39.4265 162.78 40.4605 162.098L39.6025 160.514C38.8105 161.02 38.0185 161.306 37.0945 161.306C35.3565 161.306 34.1245 160.206 33.9045 158.292H40.7685C40.8345 158.028 40.8785 157.544 40.8785 157.06C40.8785 154.046 39.3385 151.934 36.4125 151.934C33.8825 151.934 31.4405 154.09 31.4405 157.61C31.4405 161.174 33.7725 163.264 36.7645 163.264ZM33.8825 156.576C34.1025 154.838 35.2025 153.892 36.4785 153.892C37.9525 153.892 38.6785 154.904 38.6785 156.576H33.8825ZM46.7978 163.264C49.5258 163.264 50.9998 161.768 50.9998 159.92C50.9998 157.896 49.3718 157.192 47.8978 156.642C46.7318 156.224 45.6538 155.894 45.6538 155.036C45.6538 154.354 46.1598 153.848 47.2378 153.848C48.0958 153.848 48.8658 154.222 49.6138 154.772L50.7798 153.232C49.8998 152.55 48.6898 151.934 47.1938 151.934C44.7738 151.934 43.2558 153.276 43.2558 155.168C43.2558 156.972 44.8618 157.786 46.2918 158.314C47.4358 158.754 48.6018 159.15 48.6018 160.052C48.6018 160.8 48.0518 161.35 46.8858 161.35C45.7858 161.35 44.8618 160.888 43.8938 160.14L42.7058 161.768C43.7618 162.626 45.3238 163.264 46.7978 163.264ZM58.3673 163.264C59.7313 163.264 61.0293 162.78 62.0633 162.098L61.2053 160.514C60.4133 161.02 59.6213 161.306 58.6973 161.306C56.9593 161.306 55.7273 160.206 55.5073 158.292H62.3713C62.4373 158.028 62.4813 157.544 62.4813 157.06C62.4813 154.046 60.9413 151.934 58.0153 151.934C55.4853 151.934 53.0433 154.09 53.0433 157.61C53.0433 161.174 55.3753 163.264 58.3673 163.264ZM55.4853 156.576C55.7053 154.838 56.8053 153.892 58.0813 153.892C59.5553 153.892 60.2813 154.904 60.2813 156.576H55.4853ZM67.7468 163.264C69.0228 163.264 70.1228 162.626 71.0908 161.812H71.1788L71.3548 163H73.4448V156.598C73.4448 153.584 72.1028 151.934 69.4188 151.934C67.7028 151.934 66.1628 152.594 64.9748 153.342L65.8988 155.036C66.8668 154.464 67.8788 153.98 68.9348 153.98C70.4088 153.98 70.8708 154.948 70.9148 156.092C66.4708 156.576 64.5568 157.786 64.5568 160.096C64.5568 161.988 65.8548 163.264 67.7468 163.264ZM68.5608 161.284C67.6588 161.284 66.9988 160.866 66.9988 159.898C66.9988 158.82 67.9668 158.05 70.9148 157.676V160.096C70.1008 160.844 69.4408 161.284 68.5608 161.284ZM76.9614 163H79.4914V156.4C80.1514 154.772 81.1854 154.178 82.0434 154.178C82.5054 154.178 82.7914 154.244 83.1654 154.354L83.6054 152.154C83.2754 152 82.9234 151.934 82.3734 151.934C81.2294 151.934 80.0854 152.704 79.3154 154.112H79.2274L79.0514 152.198H76.9614V163ZM89.9525 163.264C91.1845 163.264 92.4605 162.824 93.4725 161.944L92.4385 160.272C91.8225 160.778 91.0525 161.196 90.2165 161.196C88.5225 161.196 87.3345 159.766 87.3345 157.61C87.3345 155.432 88.5445 154.002 90.2825 154.002C90.9645 154.002 91.5145 154.288 92.0865 154.794L93.3185 153.144C92.5265 152.462 91.5365 151.934 90.1505 151.934C87.2685 151.934 84.7385 154.002 84.7385 157.61C84.7385 161.196 87.0045 163.264 89.9525 163.264ZM96.0935 163H98.6235V155.454C99.5255 154.574 100.141 154.112 101.087 154.112C102.275 154.112 102.781 154.772 102.781 156.554V163H105.311V156.224C105.311 153.496 104.299 151.934 101.989 151.934C100.515 151.934 99.4375 152.704 98.5355 153.562L98.6235 151.472V147.468H96.0935V163Z" fill="#0F6C56"/>
<path d="M182.309 163H184.861V148.612H182.309V163ZM192.571 163.264C193.737 163.264 194.837 162.626 195.629 161.834H195.717L195.893 163H197.983V147.468H195.453V151.384L195.541 153.122C194.705 152.396 193.935 151.934 192.703 151.934C190.349 151.934 188.127 154.09 188.127 157.61C188.127 161.174 189.865 163.264 192.571 163.264ZM193.187 161.174C191.625 161.174 190.745 159.92 190.745 157.588C190.745 155.322 191.867 154.024 193.253 154.024C193.979 154.024 194.705 154.266 195.453 154.926V159.964C194.727 160.8 194.023 161.174 193.187 161.174ZM206.314 163.264C207.678 163.264 208.976 162.78 210.01 162.098L209.152 160.514C208.36 161.02 207.568 161.306 206.644 161.306C204.906 161.306 203.674 160.206 203.454 158.292H210.318C210.384 158.028 210.428 157.544 210.428 157.06C210.428 154.046 208.888 151.934 205.962 151.934C203.432 151.934 200.99 154.09 200.99 157.61C200.99 161.174 203.322 163.264 206.314 163.264ZM203.432 156.576C203.652 154.838 204.752 153.892 206.028 153.892C207.502 153.892 208.228 154.904 208.228 156.576H203.432ZM215.693 163.264C216.969 163.264 218.069 162.626 219.037 161.812H219.125L219.301 163H221.391V156.598C221.391 153.584 220.049 151.934 217.365 151.934C215.649 151.934 214.109 152.594 212.921 153.342L213.845 155.036C214.813 154.464 215.825 153.98 216.881 153.98C218.355 153.98 218.817 154.948 218.861 156.092C214.417 156.576 212.503 157.786 212.503 160.096C212.503 161.988 213.801 163.264 215.693 163.264ZM216.507 161.284C215.605 161.284 214.945 160.866 214.945 159.898C214.945 158.82 215.913 158.05 218.861 157.676V160.096C218.047 160.844 217.387 161.284 216.507 161.284ZM228.37 163.264C229.228 163.264 229.976 163.066 230.57 162.868L230.13 160.998C229.822 161.13 229.382 161.24 229.008 161.24C227.974 161.24 227.49 160.624 227.49 159.348V154.2H230.24V152.198H227.49V149.25H225.378L225.07 152.198L223.398 152.308V154.2H224.938V159.348C224.938 161.68 225.862 163.264 228.37 163.264ZM233.002 163H235.532V152.198H233.002V163ZM234.278 150.306C235.18 150.306 235.84 149.712 235.84 148.876C235.84 148.018 235.18 147.424 234.278 147.424C233.376 147.424 232.716 148.018 232.716 148.876C232.716 149.712 233.376 150.306 234.278 150.306ZM243.671 163.264C246.377 163.264 248.819 161.196 248.819 157.61C248.819 154.002 246.377 151.934 243.671 151.934C240.987 151.934 238.545 154.002 238.545 157.61C238.545 161.196 240.987 163.264 243.671 163.264ZM243.671 161.196C242.087 161.196 241.141 159.766 241.141 157.61C241.141 155.432 242.087 154.002 243.671 154.002C245.255 154.002 246.223 155.432 246.223 157.61C246.223 159.766 245.255 161.196 243.671 161.196ZM251.812 163H254.342V155.454C255.244 154.574 255.86 154.112 256.806 154.112C257.994 154.112 258.5 154.772 258.5 156.554V163H261.03V156.224C261.03 153.496 260.018 151.934 257.708 151.934C256.234 151.934 255.134 152.704 254.166 153.65H254.078L253.902 152.198H251.812V163Z" fill="#0F6C56"/>
<path d="M337.221 163H339.773V157.72H341.841C344.943 157.72 347.319 156.246 347.319 153.056C347.319 149.712 344.943 148.612 341.753 148.612H337.221V163ZM339.773 155.674V150.658H341.555C343.689 150.658 344.811 151.252 344.811 153.056C344.811 154.816 343.777 155.674 341.643 155.674H339.773ZM350.295 163H352.825V156.4C353.485 154.772 354.519 154.178 355.377 154.178C355.839 154.178 356.125 154.244 356.499 154.354L356.939 152.154C356.609 152 356.257 151.934 355.707 151.934C354.563 151.934 353.419 152.704 352.649 154.112H352.561L352.385 152.198H350.295V163ZM363.198 163.264C365.904 163.264 368.346 161.196 368.346 157.61C368.346 154.002 365.904 151.934 363.198 151.934C360.514 151.934 358.072 154.002 358.072 157.61C358.072 161.196 360.514 163.264 363.198 163.264ZM363.198 161.196C361.614 161.196 360.668 159.766 360.668 157.61C360.668 155.432 361.614 154.002 363.198 154.002C364.782 154.002 365.75 155.432 365.75 157.61C365.75 159.766 364.782 161.196 363.198 161.196ZM374.651 163.264C375.509 163.264 376.257 163.066 376.851 162.868L376.411 160.998C376.103 161.13 375.663 161.24 375.289 161.24C374.255 161.24 373.771 160.624 373.771 159.348V154.2H376.521V152.198H373.771V149.25H371.659L371.351 152.198L369.679 152.308V154.2H371.219V159.348C371.219 161.68 372.143 163.264 374.651 163.264ZM383.361 163.264C386.067 163.264 388.509 161.196 388.509 157.61C388.509 154.002 386.067 151.934 383.361 151.934C380.677 151.934 378.235 154.002 378.235 157.61C378.235 161.196 380.677 163.264 383.361 163.264ZM383.361 161.196C381.777 161.196 380.831 159.766 380.831 157.61C380.831 155.432 381.777 154.002 383.361 154.002C384.945 154.002 385.913 155.432 385.913 157.61C385.913 159.766 384.945 161.196 383.361 161.196ZM394.814 163.264C395.672 163.264 396.42 163.066 397.014 162.868L396.574 160.998C396.266 161.13 395.826 161.24 395.452 161.24C394.418 161.24 393.934 160.624 393.934 159.348V154.2H396.684V152.198H393.934V149.25H391.822L391.514 152.198L389.842 152.308V154.2H391.382V159.348C391.382 161.68 392.306 163.264 394.814 163.264ZM400.172 167.444C402.526 167.444 403.648 165.926 404.55 163.484L408.466 152.198H406.024L404.396 157.5C404.132 158.468 403.846 159.546 403.582 160.536H403.494C403.164 159.524 402.856 158.446 402.548 157.5L400.678 152.198H398.104L402.35 162.868L402.152 163.55C401.8 164.628 401.14 165.398 399.996 165.398C399.732 165.398 399.424 165.31 399.226 165.244L398.764 167.224C399.16 167.356 399.578 167.444 400.172 167.444ZM410.828 167.268H413.358V163.88L413.292 162.076C414.172 162.824 415.118 163.264 416.064 163.264C418.462 163.264 420.684 161.13 420.684 157.434C420.684 154.09 419.122 151.934 416.438 151.934C415.25 151.934 414.084 152.572 413.182 153.342H413.094L412.918 152.198H410.828V167.268ZM415.536 161.174C414.898 161.174 414.15 160.932 413.358 160.272V155.234C414.194 154.42 414.942 154.024 415.734 154.024C417.362 154.024 418.066 155.3 418.066 157.456C418.066 159.898 416.966 161.174 415.536 161.174ZM423.735 163H426.265V152.198H423.735V163ZM425.011 150.306C425.913 150.306 426.573 149.712 426.573 148.876C426.573 148.018 425.913 147.424 425.011 147.424C424.109 147.424 423.449 148.018 423.449 148.876C423.449 149.712 424.109 150.306 425.011 150.306ZM429.981 163H432.511V155.454C433.413 154.574 434.029 154.112 434.975 154.112C436.163 154.112 436.669 154.772 436.669 156.554V163H439.199V156.224C439.199 153.496 438.187 151.934 435.877 151.934C434.403 151.934 433.303 152.704 432.335 153.65H432.247L432.071 152.198H429.981V163ZM446.543 167.774C450.063 167.774 452.307 166.102 452.307 163.968C452.307 162.098 450.943 161.306 448.347 161.306H446.433C445.113 161.306 444.673 160.932 444.673 160.316C444.673 159.832 444.871 159.568 445.201 159.282C445.685 159.48 446.213 159.568 446.675 159.568C448.963 159.568 450.767 158.292 450.767 155.894C450.767 155.146 450.503 154.486 450.151 154.068H452.131V152.198H448.259C447.819 152.044 447.269 151.934 446.675 151.934C444.409 151.934 442.407 153.32 442.407 155.806C442.407 157.082 443.089 158.116 443.815 158.666V158.754C443.199 159.194 442.627 159.92 442.627 160.756C442.627 161.636 443.045 162.208 443.595 162.56V162.648C442.605 163.264 442.055 164.056 442.055 164.958C442.055 166.85 443.969 167.774 446.543 167.774ZM446.675 157.984C445.619 157.984 444.783 157.192 444.783 155.806C444.783 154.442 445.619 153.672 446.675 153.672C447.731 153.672 448.545 154.464 448.545 155.806C448.545 157.192 447.709 157.984 446.675 157.984ZM446.939 166.124C445.223 166.124 444.167 165.552 444.167 164.584C444.167 164.078 444.431 163.594 445.003 163.154C445.421 163.264 445.883 163.308 446.477 163.308H447.951C449.183 163.308 449.865 163.55 449.865 164.386C449.865 165.31 448.677 166.124 446.939 166.124Z" fill="#0F6C56"/>
<path d="M530.221 163H532.773V150.768H536.931V148.612H526.063V150.768H530.221V163ZM542.648 163.264C544.012 163.264 545.31 162.78 546.344 162.098L545.486 160.514C544.694 161.02 543.902 161.306 542.978 161.306C541.24 161.306 540.008 160.206 539.788 158.292H546.652C546.718 158.028 546.762 157.544 546.762 157.06C546.762 154.046 545.222 151.934 542.296 151.934C539.766 151.934 537.324 154.09 537.324 157.61C537.324 161.174 539.656 163.264 542.648 163.264ZM539.766 156.576C539.986 154.838 541.086 153.892 542.362 153.892C543.836 153.892 544.562 154.904 544.562 156.576H539.766ZM552.681 163.264C555.409 163.264 556.883 161.768 556.883 159.92C556.883 157.896 555.255 157.192 553.781 156.642C552.615 156.224 551.537 155.894 551.537 155.036C551.537 154.354 552.043 153.848 553.121 153.848C553.979 153.848 554.749 154.222 555.497 154.772L556.663 153.232C555.783 152.55 554.573 151.934 553.077 151.934C550.657 151.934 549.139 153.276 549.139 155.168C549.139 156.972 550.745 157.786 552.175 158.314C553.319 158.754 554.485 159.15 554.485 160.052C554.485 160.8 553.935 161.35 552.769 161.35C551.669 161.35 550.745 160.888 549.777 160.14L548.589 161.768C549.645 162.626 551.207 163.264 552.681 163.264ZM563.007 163.264C563.865 163.264 564.613 163.066 565.207 162.868L564.767 160.998C564.459 161.13 564.019 161.24 563.645 161.24C562.611 161.24 562.127 160.624 562.127 159.348V154.2H564.877V152.198H562.127V149.25H560.015L559.707 152.198L558.035 152.308V154.2H559.575V159.348C559.575 161.68 560.499 163.264 563.007 163.264ZM567.639 163H570.169V152.198H567.639V163ZM568.915 150.306C569.817 150.306 570.477 149.712 570.477 148.876C570.477 148.018 569.817 147.424 568.915 147.424C568.013 147.424 567.353 148.018 567.353 148.876C567.353 149.712 568.013 150.306 568.915 150.306ZM573.886 163H576.416V155.454C577.318 154.574 577.934 154.112 578.88 154.112C580.068 154.112 580.574 154.772 580.574 156.554V163H583.104V156.224C583.104 153.496 582.092 151.934 579.782 151.934C578.308 151.934 577.208 152.704 576.24 153.65H576.152L575.976 152.198H573.886V163ZM590.447 167.774C593.967 167.774 596.211 166.102 596.211 163.968C596.211 162.098 594.847 161.306 592.251 161.306H590.337C589.017 161.306 588.577 160.932 588.577 160.316C588.577 159.832 588.775 159.568 589.105 159.282C589.589 159.48 590.117 159.568 590.579 159.568C592.867 159.568 594.671 158.292 594.671 155.894C594.671 155.146 594.407 154.486 594.055 154.068H596.035V152.198H592.163C591.723 152.044 591.173 151.934 590.579 151.934C588.313 151.934 586.311 153.32 586.311 155.806C586.311 157.082 586.993 158.116 587.719 158.666V158.754C587.103 159.194 586.531 159.92 586.531 160.756C586.531 161.636 586.949 162.208 587.499 162.56V162.648C586.509 163.264 585.959 164.056 585.959 164.958C585.959 166.85 587.873 167.774 590.447 167.774ZM590.579 157.984C589.523 157.984 588.687 157.192 588.687 155.806C588.687 154.442 589.523 153.672 590.579 153.672C591.635 153.672 592.449 154.464 592.449 155.806C592.449 157.192 591.613 157.984 590.579 157.984ZM590.843 166.124C589.127 166.124 588.071 165.552 588.071 164.584C588.071 164.078 588.335 163.594 588.907 163.154C589.325 163.264 589.787 163.308 590.381 163.308H591.855C593.087 163.308 593.769 163.55 593.769 164.386C593.769 165.31 592.581 166.124 590.843 166.124Z" fill="#0F6C56"/>
<path d="M670.266 163H674.248C678.516 163 681.112 160.514 681.112 155.74C681.112 150.988 678.516 148.612 674.116 148.612H670.266V163ZM672.818 160.932V150.68H673.94C676.844 150.68 678.494 152.22 678.494 155.74C678.494 159.282 676.844 160.932 673.94 160.932H672.818ZM688.905 163.264C690.269 163.264 691.567 162.78 692.601 162.098L691.743 160.514C690.951 161.02 690.159 161.306 689.235 161.306C687.497 161.306 686.265 160.206 686.045 158.292H692.909C692.975 158.028 693.019 157.544 693.019 157.06C693.019 154.046 691.479 151.934 688.553 151.934C686.023 151.934 683.581 154.09 683.581 157.61C683.581 161.174 685.913 163.264 688.905 163.264ZM686.023 156.576C686.243 154.838 687.343 153.892 688.619 153.892C690.093 153.892 690.819 154.904 690.819 156.576H686.023ZM698.344 163H701.27L704.944 152.198H702.502L700.786 157.808C700.478 158.864 700.17 159.964 699.862 161.064H699.774C699.488 159.964 699.158 158.864 698.872 157.808L697.156 152.198H694.582L698.344 163ZM711.797 163.264C713.161 163.264 714.459 162.78 715.493 162.098L714.635 160.514C713.843 161.02 713.051 161.306 712.127 161.306C710.389 161.306 709.157 160.206 708.937 158.292H715.801C715.867 158.028 715.911 157.544 715.911 157.06C715.911 154.046 714.371 151.934 711.445 151.934C708.915 151.934 706.473 154.09 706.473 157.61C706.473 161.174 708.805 163.264 711.797 163.264ZM708.915 156.576C709.135 154.838 710.235 153.892 711.511 153.892C712.985 153.892 713.711 154.904 713.711 156.576H708.915ZM721.28 163.264C721.874 163.264 722.314 163.176 722.622 163.044L722.292 161.152C722.094 161.196 722.006 161.196 721.896 161.196C721.632 161.196 721.346 160.976 721.346 160.36V147.468H718.816V160.228C718.816 162.098 719.476 163.264 721.28 163.264ZM729.7 163.264C732.406 163.264 734.848 161.196 734.848 157.61C734.848 154.002 732.406 151.934 729.7 151.934C727.016 151.934 724.574 154.002 724.574 157.61C724.574 161.196 727.016 163.264 729.7 163.264ZM729.7 161.196C728.116 161.196 727.17 159.766 727.17 157.61C727.17 155.432 728.116 154.002 729.7 154.002C731.284 154.002 732.252 155.432 732.252 157.61C732.252 159.766 731.284 161.196 729.7 161.196ZM737.841 167.268H740.371V163.88L740.305 162.076C741.185 162.824 742.131 163.264 743.077 163.264C745.475 163.264 747.697 161.13 747.697 157.434C747.697 154.09 746.135 151.934 743.451 151.934C742.263 151.934 741.097 152.572 740.195 153.342H740.107L739.931 152.198H737.841V167.268ZM742.549 161.174C741.911 161.174 741.163 160.932 740.371 160.272V155.234C741.207 154.42 741.955 154.024 742.747 154.024C744.375 154.024 745.079 155.3 745.079 157.456C745.079 159.898 743.979 161.174 742.549 161.174ZM750.748 163H753.278V155.454C754.114 154.552 754.884 154.112 755.544 154.112C756.688 154.112 757.216 154.772 757.216 156.554V163H759.746V155.454C760.582 154.552 761.33 154.112 762.012 154.112C763.134 154.112 763.662 154.772 763.662 156.554V163H766.214V156.224C766.214 153.496 765.158 151.934 762.87 151.934C761.506 151.934 760.428 152.77 759.394 153.87C758.888 152.66 757.986 151.934 756.402 151.934C755.06 151.934 754.004 152.704 753.102 153.672H753.014L752.838 152.198H750.748V163ZM774.398 163.264C775.762 163.264 777.06 162.78 778.094 162.098L777.236 160.514C776.444 161.02 775.652 161.306 774.728 161.306C772.99 161.306 771.758 160.206 771.538 158.292H778.402C778.468 158.028 778.512 157.544 778.512 157.06C778.512 154.046 776.972 151.934 774.046 151.934C771.516 151.934 769.074 154.09 769.074 157.61C769.074 161.174 771.406 163.264 774.398 163.264ZM771.516 156.576C771.736 154.838 772.836 153.892 774.112 153.892C775.586 153.892 776.312 154.904 776.312 156.576H771.516ZM781.417 163H783.947V155.454C784.849 154.574 785.465 154.112 786.411 154.112C787.599 154.112 788.105 154.772 788.105 156.554V163H790.635V156.224C790.635 153.496 789.623 151.934 787.313 151.934C785.839 151.934 784.739 152.704 783.771 153.65H783.683L783.507 152.198H781.417V163ZM798.022 163.264C798.88 163.264 799.628 163.066 800.222 162.868L799.782 160.998C799.474 161.13 799.034 161.24 798.66 161.24C797.626 161.24 797.142 160.624 797.142 159.348V154.2H799.892V152.198H797.142V149.25H795.03L794.722 152.198L793.05 152.308V154.2H794.59V159.348C794.59 161.68 795.514 163.264 798.022 163.264Z" fill="#0F6C56"/>
<path d="M874.063 163H876.615V148.612H874.063V163ZM880.541 163H883.071V155.454C883.973 154.574 884.589 154.112 885.535 154.112C886.723 154.112 887.229 154.772 887.229 156.554V163H889.759V156.224C889.759 153.496 888.747 151.934 886.437 151.934C884.963 151.934 883.863 152.704 882.895 153.65H882.807L882.631 152.198H880.541V163ZM892.659 158.38H897.895V156.532H892.659V158.38ZM903.305 163H906.319L910.785 148.612H908.167L906.165 155.85C905.725 157.478 905.395 158.886 904.911 160.536H904.823C904.339 158.886 904.009 157.478 903.547 155.85L901.523 148.612H898.817L903.305 163ZM912.795 163H915.325V152.198H912.795V163ZM914.071 150.306C914.973 150.306 915.633 149.712 915.633 148.876C915.633 148.018 914.973 147.424 914.071 147.424C913.169 147.424 912.509 148.018 912.509 148.876C912.509 149.712 913.169 150.306 914.071 150.306ZM921.462 163H924.388L928.062 152.198H925.62L923.904 157.808C923.596 158.864 923.288 159.964 922.98 161.064H922.892C922.606 159.964 922.276 158.864 921.99 157.808L920.274 152.198H917.7L921.462 163ZM934.716 163.264C937.422 163.264 939.864 161.196 939.864 157.61C939.864 154.002 937.422 151.934 934.716 151.934C932.032 151.934 929.59 154.002 929.59 157.61C929.59 161.196 932.032 163.264 934.716 163.264ZM934.716 161.196C933.132 161.196 932.186 159.766 932.186 157.61C932.186 155.432 933.132 154.002 934.716 154.002C936.3 154.002 937.268 155.432 937.268 157.61C937.268 159.766 936.3 161.196 934.716 161.196Z" fill="#0F6C56"/>
<path d="M1013.27 163H1022.15V160.844H1015.82V156.598H1020.99V154.442H1015.82V150.768H1021.93V148.612H1013.27V163ZM1027.58 163H1030.5L1034.18 152.198H1031.74L1030.02 157.808C1029.71 158.864 1029.4 159.964 1029.1 161.064H1029.01C1028.72 159.964 1028.39 158.864 1028.11 157.808L1026.39 152.198H1023.82L1027.58 163ZM1038.73 163.264C1040 163.264 1041.1 162.626 1042.07 161.812H1042.16L1042.34 163H1044.43V156.598C1044.43 153.584 1043.08 151.934 1040.4 151.934C1038.68 151.934 1037.14 152.594 1035.96 153.342L1036.88 155.036C1037.85 154.464 1038.86 153.98 1039.92 153.98C1041.39 153.98 1041.85 154.948 1041.9 156.092C1037.45 156.576 1035.54 157.786 1035.54 160.096C1035.54 161.988 1036.84 163.264 1038.73 163.264ZM1039.54 161.284C1038.64 161.284 1037.98 160.866 1037.98 159.898C1037.98 158.82 1038.95 158.05 1041.9 157.676V160.096C1041.08 160.844 1040.42 161.284 1039.54 161.284ZM1050.41 163.264C1051 163.264 1051.44 163.176 1051.75 163.044L1051.42 161.152C1051.22 161.196 1051.13 161.196 1051.02 161.196C1050.76 161.196 1050.47 160.976 1050.47 160.36V147.468H1047.94V160.228C1047.94 162.098 1048.6 163.264 1050.41 163.264ZM1057.62 163.264C1059.09 163.264 1060.15 162.538 1061.09 161.416H1061.16L1061.36 163H1063.42V152.198H1060.89V159.59C1060.08 160.646 1059.44 161.086 1058.5 161.086C1057.33 161.086 1056.82 160.426 1056.82 158.644V152.198H1054.29V158.974C1054.29 161.702 1055.31 163.264 1057.62 163.264ZM1069.74 163.264C1071.01 163.264 1072.11 162.626 1073.08 161.812H1073.17L1073.34 163H1075.43V156.598C1075.43 153.584 1074.09 151.934 1071.41 151.934C1069.69 151.934 1068.15 152.594 1066.96 153.342L1067.89 155.036C1068.86 154.464 1069.87 153.98 1070.92 153.98C1072.4 153.98 1072.86 154.948 1072.9 156.092C1068.46 156.576 1066.55 157.786 1066.55 160.096C1066.55 161.988 1067.84 163.264 1069.74 163.264ZM1070.55 161.284C1069.65 161.284 1068.99 160.866 1068.99 159.898C1068.99 158.82 1069.96 158.05 1072.9 157.676V160.096C1072.09 160.844 1071.43 161.284 1070.55 161.284ZM1082.41 163.264C1083.27 163.264 1084.02 163.066 1084.61 162.868L1084.17 160.998C1083.86 161.13 1083.42 161.24 1083.05 161.24C1082.02 161.24 1081.53 160.624 1081.53 159.348V154.2H1084.28V152.198H1081.53V149.25H1079.42L1079.11 152.198L1077.44 152.308V154.2H1078.98V159.348C1078.98 161.68 1079.9 163.264 1082.41 163.264ZM1087.05 163H1089.58V152.198H1087.05V163ZM1088.32 150.306C1089.22 150.306 1089.88 149.712 1089.88 148.876C1089.88 148.018 1089.22 147.424 1088.32 147.424C1087.42 147.424 1086.76 148.018 1086.76 148.876C1086.76 149.712 1087.42 150.306 1088.32 150.306ZM1097.71 163.264C1100.42 163.264 1102.86 161.196 1102.86 157.61C1102.86 154.002 1100.42 151.934 1097.71 151.934C1095.03 151.934 1092.59 154.002 1092.59 157.61C1092.59 161.196 1095.03 163.264 1097.71 163.264ZM1097.71 161.196C1096.13 161.196 1095.18 159.766 1095.18 157.61C1095.18 155.432 1096.13 154.002 1097.71 154.002C1099.3 154.002 1100.27 155.432 1100.27 157.61C1100.27 159.766 1099.3 161.196 1097.71 161.196ZM1105.85 163H1108.38V155.454C1109.29 154.574 1109.9 154.112 1110.85 154.112C1112.04 154.112 1112.54 154.772 1112.54 156.554V163H1115.07V156.224C1115.07 153.496 1114.06 151.934 1111.75 151.934C1110.28 151.934 1109.18 152.704 1108.21 153.65H1108.12L1107.94 152.198H1105.85V163Z" fill="#0F6C56"/>
<path fill-rule="evenodd" clip-rule="evenodd" d="M730.5 129C735.194 129 739 125.194 739 120.5C739 115.806 735.194 112 730.5 112C725.806 112 722 115.806 722 120.5C722 125.194 725.806 129 730.5 129Z" fill="#51BAA1"/>
<path fill-rule="evenodd" clip-rule="evenodd" d="M898.5 129C903.194 129 907 125.194 907 120.5C907 115.806 903.194 112 898.5 112C893.806 112 890 115.806 890 120.5C890 125.194 893.806 129 898.5 129Z" fill="#51BAA1"/>
<path fill-rule="evenodd" clip-rule="evenodd" d="M1065.5 129C1070.19 129 1074 125.194 1074 120.5C1074 115.806 1070.19 112 1065.5 112C1060.81 112 1057 115.806 1057 120.5C1057 125.194 1060.81 129 1065.5 129Z" fill="#51BAA1"/>
<path d="M140.198 109.133L156.896 119.938L141.561 131.398" stroke="#51BAA1" stroke-opacity="0.263467" stroke-width="5" stroke-linecap="round" stroke-linejoin="round"/>
<path d="M306.198 109.133L322.896 119.938L307.561 131.398" stroke="#51BAA1" stroke-opacity="0.263467" stroke-width="5" stroke-linecap="round" stroke-linejoin="round"/>
<path d="M807.198 109.133L823.896 119.938L808.561 131.398" stroke="#51BAA1" stroke-opacity="0.263467" stroke-width="5" stroke-linecap="round" stroke-linejoin="round"/>
<path d="M976.198 109.133L992.896 119.938L977.561 131.398" stroke="#51BAA1" stroke-opacity="0.263467" stroke-width="5" stroke-linecap="round" stroke-linejoin="round"/>
<path d="M470.927 65.42C470.423 65.42 469.891 65.3827 469.331 65.308C468.771 65.252 468.23 65.168 467.707 65.056C467.184 64.944 466.708 64.8227 466.279 64.692C465.85 64.5613 465.514 64.44 465.271 64.328L466.083 60.856C466.568 61.0613 467.184 61.2853 467.931 61.528C468.696 61.752 469.639 61.864 470.759 61.864C472.047 61.864 472.99 61.6213 473.587 61.136C474.184 60.6507 474.483 59.9973 474.483 59.176C474.483 58.672 474.371 58.252 474.147 57.916C473.942 57.5613 473.652 57.2813 473.279 57.076C472.906 56.852 472.458 56.7027 471.935 56.628C471.431 56.5347 470.89 56.488 470.311 56.488H468.687V53.128H470.535C470.946 53.128 471.338 53.0907 471.711 53.016C472.103 52.9413 472.448 52.82 472.747 52.652C473.046 52.4653 473.279 52.2227 473.447 51.924C473.634 51.6067 473.727 51.2147 473.727 50.748C473.727 50.3933 473.652 50.0853 473.503 49.824C473.354 49.5627 473.158 49.348 472.915 49.18C472.691 49.012 472.42 48.8907 472.103 48.816C471.804 48.7227 471.496 48.676 471.179 48.676C470.376 48.676 469.63 48.7973 468.939 49.04C468.267 49.2827 467.651 49.5813 467.091 49.936L465.607 46.884C465.906 46.6973 466.251 46.5013 466.643 46.296C467.054 46.0907 467.502 45.904 467.987 45.736C468.472 45.568 468.986 45.428 469.527 45.316C470.087 45.204 470.675 45.148 471.291 45.148C472.43 45.148 473.41 45.288 474.231 45.568C475.071 45.8293 475.762 46.212 476.303 46.716C476.844 47.2013 477.246 47.78 477.507 48.452C477.768 49.1053 477.899 49.824 477.899 50.608C477.899 51.3733 477.684 52.12 477.255 52.848C476.826 53.5573 476.247 54.0987 475.519 54.472C476.527 54.8827 477.302 55.4987 477.843 56.32C478.403 57.1227 478.683 58.0933 478.683 59.232C478.683 60.128 478.534 60.9587 478.235 61.724C477.936 62.4707 477.47 63.124 476.835 63.684C476.2 64.2253 475.388 64.6547 474.399 64.972C473.428 65.2707 472.271 65.42 470.927 65.42Z" fill="#0F6C56"/>
<path d="M454.417 86H455.413V82.676H456.841L458.737 86H459.865L457.861 82.568C458.941 82.304 459.637 81.56 459.637 80.336C459.637 78.704 458.485 78.128 456.877 78.128H454.417V86ZM455.413 81.86V78.932H456.733C457.957 78.932 458.641 79.304 458.641 80.336C458.641 81.356 457.957 81.86 456.733 81.86H455.413ZM463.571 86.144C464.999 86.144 466.271 85.028 466.271 83.096C466.271 81.14 464.999 80.024 463.571 80.024C462.143 80.024 460.871 81.14 460.871 83.096C460.871 85.028 462.143 86.144 463.571 86.144ZM463.571 85.328C462.575 85.328 461.891 84.428 461.891 83.096C461.891 81.752 462.575 80.84 463.571 80.84C464.579 80.84 465.251 81.752 465.251 83.096C465.251 84.428 464.579 85.328 463.571 85.328ZM469.777 86.144C470.581 86.144 471.157 85.724 471.697 85.088H471.733L471.817 86H472.633V80.168H471.649V84.308C471.097 84.992 470.677 85.292 470.077 85.292C469.309 85.292 468.985 84.824 468.985 83.732V80.168H467.989V83.864C467.989 85.352 468.541 86.144 469.777 86.144ZM474.867 86H475.851V81.776C476.439 81.188 476.847 80.876 477.447 80.876C478.215 80.876 478.551 81.344 478.551 82.436V86H479.535V82.304C479.535 80.816 478.983 80.024 477.759 80.024C476.955 80.024 476.355 80.456 475.803 81.008H475.767L475.683 80.168H474.867V86ZM483.689 86.144C484.373 86.144 484.997 85.76 485.453 85.316H485.489L485.573 86H486.389V77.456H485.393V79.7L485.441 80.696C484.925 80.276 484.481 80.024 483.809 80.024C482.477 80.024 481.277 81.2 481.277 83.096C481.277 85.04 482.225 86.144 483.689 86.144ZM483.905 85.316C482.885 85.316 482.297 84.476 482.297 83.084C482.297 81.752 483.041 80.852 483.977 80.852C484.457 80.852 484.901 81.02 485.393 81.464V84.512C484.913 85.052 484.445 85.316 483.905 85.316ZM490.143 86.144C491.523 86.144 492.279 85.352 492.279 84.404C492.279 83.3 491.343 82.952 490.503 82.64C489.843 82.388 489.207 82.184 489.207 81.632C489.207 81.188 489.543 80.792 490.275 80.792C490.791 80.792 491.211 81.008 491.607 81.308L492.075 80.684C491.631 80.324 490.995 80.024 490.263 80.024C489.003 80.024 488.259 80.744 488.259 81.68C488.259 82.664 489.171 83.06 489.999 83.36C490.635 83.6 491.331 83.864 491.331 84.464C491.331 84.968 490.947 85.376 490.179 85.376C489.483 85.376 488.967 85.088 488.463 84.68L487.971 85.34C488.523 85.796 489.315 86.144 490.143 86.144Z" fill="#9D9D9D"/>
<path d="M10.5 120.5H1117.5" stroke="#51BAA1" stroke-opacity="0.263467" stroke-width="7"/>
<path d="M1.91587 201H7.83587V199.864H3.24387V190.504H1.91587V201ZM9.92467 201H11.2367V193.224H9.92467V201ZM10.5967 191.624C11.1087 191.624 11.5087 191.272 11.5087 190.776C11.5087 190.264 11.1087 189.928 10.5967 189.928C10.0847 189.928 9.68467 190.264 9.68467 190.776C9.68467 191.272 10.0847 191.624 10.5967 191.624ZM16.6657 201.192C17.1457 201.192 17.6737 201.048 18.1057 200.904L17.8497 199.912C17.5937 200.008 17.2417 200.12 16.9697 200.12C16.0737 200.12 15.7697 199.576 15.7697 198.616V194.296H17.8657V193.224H15.7697V191.048H14.6657L14.5057 193.224L13.2897 193.304V194.296H14.4417V198.6C14.4417 200.136 15.0017 201.192 16.6657 201.192ZM22.9128 201.192C23.9688 201.192 24.8008 200.824 25.4728 200.392L25.0088 199.528C24.4328 199.896 23.8088 200.136 23.0728 200.136C21.5848 200.136 20.5768 199.08 20.4808 197.432H25.7288C25.7608 197.24 25.7768 196.952 25.7768 196.68C25.7768 194.456 24.6568 193.032 22.6728 193.032C20.8968 193.032 19.1848 194.584 19.1848 197.128C19.1848 199.672 20.8328 201.192 22.9128 201.192ZM20.4648 196.488C20.6248 194.952 21.6168 194.072 22.7048 194.072C23.9208 194.072 24.6248 194.92 24.6248 196.488H20.4648ZM28.0538 201H29.3658V196.008C29.8938 194.696 30.6778 194.216 31.3338 194.216C31.6538 194.216 31.8298 194.264 32.0858 194.344L32.3418 193.192C32.0858 193.08 31.8458 193.032 31.5098 193.032C30.6298 193.032 29.8298 193.656 29.3018 194.632H29.2538L29.1418 193.224H28.0538V201ZM35.3576 201.192C36.3336 201.192 37.1976 200.68 37.9336 200.072H37.9816L38.0936 201H39.1816V196.232C39.1816 194.296 38.3816 193.032 36.4776 193.032C35.2296 193.032 34.1416 193.576 33.4216 194.04L33.9336 194.952C34.5416 194.536 35.3576 194.12 36.2536 194.12C37.5336 194.12 37.8536 195.08 37.8536 196.072C34.5416 196.44 33.0856 197.288 33.0856 198.984C33.0856 200.376 34.0616 201.192 35.3576 201.192ZM35.7416 200.136C34.9736 200.136 34.3656 199.768 34.3656 198.888C34.3656 197.896 35.2616 197.256 37.8536 196.936V199.096C37.1016 199.768 36.4936 200.136 35.7416 200.136ZM44.213 201.192C44.693 201.192 45.221 201.048 45.653 200.904L45.397 199.912C45.141 200.008 44.789 200.12 44.517 200.12C43.621 200.12 43.317 199.576 43.317 198.616V194.296H45.413V193.224H43.317V191.048H42.213L42.053 193.224L40.837 193.304V194.296H41.989V198.6C41.989 200.136 42.549 201.192 44.213 201.192ZM49.7988 201.192C50.8708 201.192 51.6388 200.632 52.3588 199.784H52.4068L52.5188 201H53.6068V193.224H52.2948V198.744C51.5588 199.656 50.9988 200.056 50.1988 200.056C49.1748 200.056 48.7428 199.432 48.7428 197.976V193.224H47.4148V198.152C47.4148 200.136 48.1508 201.192 49.7988 201.192ZM56.5854 201H57.8974V196.008C58.4254 194.696 59.2094 194.216 59.8654 194.216C60.1854 194.216 60.3614 194.264 60.6174 194.344L60.8734 193.192C60.6174 193.08 60.3774 193.032 60.0414 193.032C59.1614 193.032 58.3614 193.656 57.8334 194.632H57.7854L57.6734 193.224H56.5854V201ZM65.4836 201.192C66.5396 201.192 67.3716 200.824 68.0436 200.392L67.5796 199.528C67.0036 199.896 66.3796 200.136 65.6436 200.136C64.1556 200.136 63.1476 199.08 63.0516 197.432H68.2996C68.3316 197.24 68.3476 196.952 68.3476 196.68C68.3476 194.456 67.2276 193.032 65.2436 193.032C63.4676 193.032 61.7556 194.584 61.7556 197.128C61.7556 199.672 63.4036 201.192 65.4836 201.192ZM63.0356 196.488C63.1956 194.952 64.1876 194.072 65.2756 194.072C66.4916 194.072 67.1956 194.92 67.1956 196.488H63.0356ZM74.3114 201H75.6394V196.568H77.5434L80.0714 201H81.5754L78.9034 196.424C80.3434 196.072 81.2714 195.08 81.2714 193.448C81.2714 191.272 79.7354 190.504 77.5914 190.504H74.3114V201ZM75.6394 195.48V191.576H77.3994C79.0314 191.576 79.9434 192.072 79.9434 193.448C79.9434 194.808 79.0314 195.48 77.3994 195.48H75.6394ZM86.644 201.192C87.7 201.192 88.532 200.824 89.204 200.392L88.74 199.528C88.164 199.896 87.54 200.136 86.804 200.136C85.316 200.136 84.308 199.08 84.212 197.432H89.46C89.492 197.24 89.508 196.952 89.508 196.68C89.508 194.456 88.388 193.032 86.404 193.032C84.628 193.032 82.916 194.584 82.916 197.128C82.916 199.672 84.564 201.192 86.644 201.192ZM84.196 196.488C84.356 194.952 85.348 194.072 86.436 194.072C87.652 194.072 88.356 194.92 88.356 196.488H84.196ZM93.5432 201H95.0792L97.8312 193.224H96.5352L95.0632 197.64C94.8392 198.408 94.5832 199.192 94.3592 199.928H94.2952C94.0552 199.192 93.7992 198.408 93.5752 197.64L92.1032 193.224H90.7432L93.5432 201ZM99.6875 201H101V193.224H99.6875V201ZM100.36 191.624C100.872 191.624 101.272 191.272 101.272 190.776C101.272 190.264 100.872 189.928 100.36 189.928C99.8475 189.928 99.4475 190.264 99.4475 190.776C99.4475 191.272 99.8475 191.624 100.36 191.624ZM107.133 201.192C108.189 201.192 109.021 200.824 109.693 200.392L109.229 199.528C108.653 199.896 108.029 200.136 107.293 200.136C105.805 200.136 104.797 199.08 104.701 197.432H109.949C109.981 197.24 109.997 196.952 109.997 196.68C109.997 194.456 108.877 193.032 106.893 193.032C105.117 193.032 103.405 194.584 103.405 197.128C103.405 199.672 105.053 201.192 107.133 201.192ZM104.685 196.488C104.845 194.952 105.837 194.072 106.925 194.072C108.141 194.072 108.845 194.92 108.845 196.488H104.685ZM113.584 201H115.12L116.208 196.84C116.416 196.104 116.576 195.368 116.752 194.584H116.816C117.008 195.368 117.152 196.088 117.344 196.824L118.464 201H120.064L122.144 193.224H120.896L119.76 197.72C119.6 198.456 119.456 199.16 119.28 199.88H119.216C119.04 199.16 118.864 198.456 118.672 197.72L117.456 193.224H116.176L114.976 197.72C114.784 198.44 114.624 199.16 114.448 199.88H114.384C114.24 199.16 114.096 198.456 113.92 197.72L112.768 193.224H111.424L113.584 201Z" fill="#858585"/>
<path d="M176.322 196.128C176.706 194.96 177.042 193.808 177.362 192.592H177.426C177.762 193.808 178.098 194.96 178.482 196.128L178.978 197.728H175.826L176.322 196.128ZM173.122 202H174.482L175.49 198.8H179.314L180.306 202H181.73L178.178 191.504H176.674L173.122 202ZM188.072 202H189.384V195.296H191.032V194.224H189.384V192.992C189.384 192 189.736 191.488 190.472 191.488C190.76 191.488 191.064 191.552 191.352 191.68L191.64 190.672C191.288 190.528 190.824 190.416 190.344 190.416C188.792 190.416 188.072 191.408 188.072 192.992V194.224H184.824V193.232C184.824 192.208 185.272 191.648 186.04 191.648C186.424 191.648 186.744 191.712 187.08 191.856L187.352 190.864C186.968 190.688 186.44 190.576 185.928 190.576C184.312 190.576 183.512 191.584 183.512 193.2V194.224L182.456 194.304V195.296H183.512V202H184.824V195.296H188.072V202ZM192.878 202H194.19V194.224H192.878V202ZM193.55 192.624C194.062 192.624 194.462 192.272 194.462 191.776C194.462 191.264 194.062 190.928 193.55 190.928C193.038 190.928 192.638 191.264 192.638 191.776C192.638 192.272 193.038 192.624 193.55 192.624ZM197.171 202H198.483V196.368C199.267 195.584 199.811 195.168 200.611 195.168C201.635 195.168 202.083 195.792 202.083 197.248V202H203.395V197.072C203.395 195.088 202.659 194.032 201.027 194.032C199.955 194.032 199.155 194.608 198.419 195.344H198.371L198.259 194.224H197.171V202ZM206.277 202H207.589V194.224H206.277V202ZM206.949 192.624C207.461 192.624 207.861 192.272 207.861 191.776C207.861 191.264 207.461 190.928 206.949 190.928C206.437 190.928 206.037 191.264 206.037 191.776C206.037 192.272 206.437 192.624 206.949 192.624ZM213.018 202.192C213.498 202.192 214.026 202.048 214.458 201.904L214.202 200.912C213.946 201.008 213.594 201.12 213.322 201.12C212.426 201.12 212.122 200.576 212.122 199.616V195.296H214.218V194.224H212.122V192.048H211.018L210.858 194.224L209.642 194.304V195.296H210.794V199.6C210.794 201.136 211.354 202.192 213.018 202.192ZM216.459 205.344C218.027 205.344 218.827 204.176 219.371 202.64L222.299 194.224H221.019L219.627 198.528C219.419 199.216 219.195 200.016 218.971 200.72H218.907C218.667 200 218.395 199.2 218.155 198.528L216.571 194.224H215.211L218.331 202.016L218.155 202.592C217.835 203.552 217.275 204.256 216.395 204.256C216.203 204.256 215.963 204.192 215.803 204.144L215.547 205.184C215.803 205.28 216.107 205.344 216.459 205.344ZM227.842 202H230.53C233.698 202 235.426 200.048 235.426 196.704C235.426 193.376 233.698 191.504 230.466 191.504H227.842V202ZM229.17 200.912V192.592H230.37C232.818 192.592 234.05 194.064 234.05 196.704C234.05 199.36 232.818 200.912 230.37 200.912H229.17ZM237.914 202H239.226V194.224H237.914V202ZM238.586 192.624C239.098 192.624 239.498 192.272 239.498 191.776C239.498 191.264 239.098 190.928 238.586 190.928C238.074 190.928 237.674 191.264 237.674 191.776C237.674 192.272 238.074 192.624 238.586 192.624ZM243.999 202.192C244.975 202.192 245.839 201.68 246.575 201.072H246.623L246.735 202H247.823V197.232C247.823 195.296 247.023 194.032 245.119 194.032C243.871 194.032 242.783 194.576 242.063 195.04L242.575 195.952C243.183 195.536 243.999 195.12 244.895 195.12C246.175 195.12 246.495 196.08 246.495 197.072C243.183 197.44 241.727 198.288 241.727 199.984C241.727 201.376 242.703 202.192 243.999 202.192ZM244.383 201.136C243.615 201.136 243.007 200.768 243.007 199.888C243.007 198.896 243.903 198.256 246.495 197.936V200.096C245.743 200.768 245.135 201.136 244.383 201.136ZM253.249 205.584C255.665 205.584 257.185 204.336 257.185 202.896C257.185 201.6 256.273 201.04 254.465 201.04H252.961C251.905 201.04 251.585 200.688 251.585 200.192C251.585 199.76 251.809 199.504 252.081 199.264C252.433 199.44 252.865 199.536 253.249 199.536C254.833 199.536 256.097 198.496 256.097 196.832C256.097 196.176 255.825 195.584 255.457 195.232H257.057V194.224H254.353C254.065 194.112 253.681 194.032 253.249 194.032C251.665 194.032 250.321 195.104 250.321 196.8C250.321 197.728 250.817 198.48 251.329 198.896V198.96C250.929 199.232 250.481 199.744 250.481 200.4C250.481 201.008 250.785 201.424 251.169 201.664V201.728C250.465 202.208 250.033 202.832 250.033 203.488C250.033 204.832 251.345 205.584 253.249 205.584ZM253.249 198.656C252.353 198.656 251.601 197.936 251.601 196.8C251.601 195.664 252.337 194.992 253.249 194.992C254.161 194.992 254.897 195.664 254.897 196.8C254.897 197.936 254.145 198.656 253.249 198.656ZM253.441 204.672C252.033 204.672 251.185 204.144 251.185 203.312C251.185 202.864 251.425 202.4 251.985 202C252.321 202.096 252.689 202.128 252.993 202.128H254.337C255.345 202.128 255.905 202.368 255.905 203.088C255.905 203.904 254.929 204.672 253.441 204.672ZM259.043 202H260.355V197.008C260.883 195.696 261.667 195.216 262.323 195.216C262.643 195.216 262.819 195.264 263.075 195.344L263.331 194.192C263.075 194.08 262.835 194.032 262.499 194.032C261.619 194.032 260.819 194.656 260.291 195.632H260.243L260.131 194.224H259.043V202ZM266.347 202.192C267.323 202.192 268.187 201.68 268.923 201.072H268.971L269.083 202H270.171V197.232C270.171 195.296 269.371 194.032 267.467 194.032C266.219 194.032 265.131 194.576 264.411 195.04L264.923 195.952C265.531 195.536 266.347 195.12 267.243 195.12C268.523 195.12 268.843 196.08 268.843 197.072C265.531 197.44 264.075 198.288 264.075 199.984C264.075 201.376 265.051 202.192 266.347 202.192ZM266.731 201.136C265.963 201.136 265.355 200.768 265.355 199.888C265.355 198.896 266.251 198.256 268.843 197.936V200.096C268.091 200.768 267.483 201.136 266.731 201.136ZM272.973 202H274.285V196.368C275.005 195.568 275.661 195.168 276.237 195.168C277.229 195.168 277.693 195.792 277.693 197.248V202H279.005V196.368C279.725 195.568 280.349 195.168 280.957 195.168C281.933 195.168 282.397 195.792 282.397 197.248V202H283.709V197.072C283.709 195.088 282.941 194.032 281.341 194.032C280.397 194.032 279.597 194.64 278.781 195.52C278.461 194.592 277.821 194.032 276.637 194.032C275.709 194.032 274.893 194.608 274.221 195.344H274.173L274.061 194.224H272.973V202Z" fill="#858585"/>
<path d="M180.744 224H184.088C186.44 224 188.072 222.992 188.072 220.928C188.072 219.488 187.192 218.656 185.928 218.416V218.352C186.92 218.032 187.464 217.104 187.464 216.064C187.464 214.224 185.992 213.504 183.864 213.504H180.744V224ZM182.072 217.968V214.56H183.688C185.32 214.56 186.152 215.024 186.152 216.24C186.152 217.312 185.416 217.968 183.624 217.968H182.072ZM182.072 222.944V218.992H183.896C185.736 218.992 186.76 219.584 186.76 220.88C186.76 222.288 185.704 222.944 183.896 222.944H182.072ZM190.378 224H191.69V219.008C192.218 217.696 193.002 217.216 193.658 217.216C193.978 217.216 194.154 217.264 194.41 217.344L194.666 216.192C194.41 216.08 194.17 216.032 193.834 216.032C192.954 216.032 192.154 216.656 191.626 217.632H191.578L191.466 216.224H190.378V224ZM197.682 224.192C198.658 224.192 199.522 223.68 200.258 223.072H200.306L200.418 224H201.506V219.232C201.506 217.296 200.706 216.032 198.802 216.032C197.554 216.032 196.466 216.576 195.746 217.04L196.258 217.952C196.866 217.536 197.682 217.12 198.578 217.12C199.858 217.12 200.178 218.08 200.178 219.072C196.866 219.44 195.41 220.288 195.41 221.984C195.41 223.376 196.386 224.192 197.682 224.192ZM198.066 223.136C197.298 223.136 196.69 222.768 196.69 221.888C196.69 220.896 197.586 220.256 200.178 219.936V222.096C199.426 222.768 198.818 223.136 198.066 223.136ZM204.308 224H205.62V216.224H204.308V224ZM204.98 214.624C205.492 214.624 205.892 214.272 205.892 213.776C205.892 213.264 205.492 212.928 204.98 212.928C204.468 212.928 204.068 213.264 204.068 213.776C204.068 214.272 204.468 214.624 204.98 214.624ZM208.601 224H209.913V218.368C210.697 217.584 211.241 217.168 212.041 217.168C213.065 217.168 213.513 217.792 213.513 219.248V224H214.825V219.072C214.825 217.088 214.089 216.032 212.457 216.032C211.385 216.032 210.585 216.608 209.849 217.344H209.801L209.689 216.224H208.601V224ZM219.738 224.192C221.578 224.192 222.586 223.136 222.586 221.872C222.586 220.4 221.338 219.936 220.218 219.52C219.338 219.184 218.49 218.912 218.49 218.176C218.49 217.584 218.938 217.056 219.914 217.056C220.602 217.056 221.162 217.344 221.69 217.744L222.314 216.912C221.722 216.432 220.874 216.032 219.898 216.032C218.218 216.032 217.226 216.992 217.226 218.24C217.226 219.552 218.442 220.08 219.546 220.48C220.394 220.8 221.322 221.152 221.322 221.952C221.322 222.624 220.81 223.168 219.786 223.168C218.858 223.168 218.17 222.784 217.498 222.24L216.842 223.12C217.578 223.728 218.634 224.192 219.738 224.192ZM226.901 224.192C227.381 224.192 227.909 224.048 228.341 223.904L228.085 222.912C227.829 223.008 227.477 223.12 227.205 223.12C226.309 223.12 226.005 222.576 226.005 221.616V217.296H228.101V216.224H226.005V214.048H224.901L224.741 216.224L223.525 216.304V217.296H224.677V221.6C224.677 223.136 225.237 224.192 226.901 224.192ZM233.02 224.192C234.924 224.192 236.62 222.704 236.62 220.128C236.62 217.52 234.924 216.032 233.02 216.032C231.116 216.032 229.42 217.52 229.42 220.128C229.42 222.704 231.116 224.192 233.02 224.192ZM233.02 223.104C231.692 223.104 230.78 221.904 230.78 220.128C230.78 218.336 231.692 217.12 233.02 217.12C234.364 217.12 235.26 218.336 235.26 220.128C235.26 221.904 234.364 223.104 233.02 223.104ZM239.023 224H240.335V219.008C240.863 217.696 241.647 217.216 242.303 217.216C242.623 217.216 242.799 217.264 243.055 217.344L243.311 216.192C243.055 216.08 242.815 216.032 242.479 216.032C241.599 216.032 240.799 216.656 240.271 217.632H240.223L240.111 216.224H239.023V224ZM244.926 224H246.238V218.368C246.958 217.568 247.614 217.168 248.19 217.168C249.182 217.168 249.646 217.792 249.646 219.248V224H250.958V218.368C251.678 217.568 252.302 217.168 252.91 217.168C253.886 217.168 254.35 217.792 254.35 219.248V224H255.662V219.072C255.662 217.088 254.894 216.032 253.294 216.032C252.35 216.032 251.55 216.64 250.734 217.52C250.414 216.592 249.774 216.032 248.59 216.032C247.662 216.032 246.846 216.608 246.174 217.344H246.126L246.014 216.224H244.926V224ZM258.547 224H259.859V216.224H258.547V224ZM259.219 214.624C259.731 214.624 260.131 214.272 260.131 213.776C260.131 213.264 259.731 212.928 259.219 212.928C258.707 212.928 258.307 213.264 258.307 213.776C258.307 214.272 258.707 214.624 259.219 214.624ZM262.84 224H264.152V218.368C264.936 217.584 265.48 217.168 266.28 217.168C267.304 217.168 267.752 217.792 267.752 219.248V224H269.064V219.072C269.064 217.088 268.328 216.032 266.696 216.032C265.624 216.032 264.824 216.608 264.088 217.344H264.04L263.928 216.224H262.84V224ZM274.569 227.584C276.985 227.584 278.505 226.336 278.505 224.896C278.505 223.6 277.593 223.04 275.785 223.04H274.281C273.225 223.04 272.905 222.688 272.905 222.192C272.905 221.76 273.129 221.504 273.401 221.264C273.753 221.44 274.185 221.536 274.569 221.536C276.153 221.536 277.417 220.496 277.417 218.832C277.417 218.176 277.145 217.584 276.777 217.232H278.377V216.224H275.673C275.385 216.112 275.001 216.032 274.569 216.032C272.985 216.032 271.641 217.104 271.641 218.8C271.641 219.728 272.137 220.48 272.649 220.896V220.96C272.249 221.232 271.801 221.744 271.801 222.4C271.801 223.008 272.105 223.424 272.489 223.664V223.728C271.785 224.208 271.353 224.832 271.353 225.488C271.353 226.832 272.665 227.584 274.569 227.584ZM274.569 220.656C273.673 220.656 272.921 219.936 272.921 218.8C272.921 217.664 273.657 216.992 274.569 216.992C275.481 216.992 276.217 217.664 276.217 218.8C276.217 219.936 275.465 220.656 274.569 220.656ZM274.761 226.672C273.353 226.672 272.505 226.144 272.505 225.312C272.505 224.864 272.745 224.4 273.305 224C273.641 224.096 274.009 224.128 274.313 224.128H275.657C276.665 224.128 277.225 224.368 277.225 225.088C277.225 225.904 276.249 226.672 274.761 226.672Z" fill="#858585"/>
<path d="M340.881 198H342.209V193.84H343.937C346.241 193.84 347.809 192.8 347.809 190.592C347.809 188.288 346.225 187.504 343.873 187.504H340.881V198ZM342.209 192.752V188.576H343.713C345.553 188.576 346.481 189.072 346.481 190.592C346.481 192.08 345.601 192.752 343.777 192.752H342.209ZM351.275 198.192C352.251 198.192 353.115 197.68 353.851 197.072H353.899L354.011 198H355.099V193.232C355.099 191.296 354.299 190.032 352.395 190.032C351.147 190.032 350.059 190.576 349.339 191.04L349.851 191.952C350.459 191.536 351.275 191.12 352.171 191.12C353.451 191.12 353.771 192.08 353.771 193.072C350.459 193.44 349.003 194.288 349.003 195.984C349.003 197.376 349.979 198.192 351.275 198.192ZM351.659 197.136C350.891 197.136 350.283 196.768 350.283 195.888C350.283 194.896 351.179 194.256 353.771 193.936V196.096C353.019 196.768 352.411 197.136 351.659 197.136ZM357.901 201.28H359.213V198.656L359.181 197.296C359.901 197.856 360.621 198.192 361.341 198.192C363.117 198.192 364.701 196.64 364.701 194C364.701 191.584 363.629 190.032 361.629 190.032C360.717 190.032 359.853 190.528 359.149 191.12H359.101L358.989 190.224H357.901V201.28ZM361.117 197.088C360.605 197.088 359.917 196.864 359.213 196.272V192.192C359.981 191.504 360.637 191.136 361.293 191.136C362.765 191.136 363.341 192.288 363.341 194C363.341 195.92 362.397 197.088 361.117 197.088ZM370.284 198.192C371.34 198.192 372.172 197.824 372.844 197.392L372.38 196.528C371.804 196.896 371.18 197.136 370.444 197.136C368.956 197.136 367.948 196.08 367.852 194.432H373.1C373.132 194.24 373.148 193.952 373.148 193.68C373.148 191.456 372.028 190.032 370.044 190.032C368.268 190.032 366.556 191.584 366.556 194.128C366.556 196.672 368.204 198.192 370.284 198.192ZM367.836 193.488C367.996 191.952 368.988 191.072 370.076 191.072C371.292 191.072 371.996 191.92 371.996 193.488H367.836ZM375.425 198H376.737V193.008C377.265 191.696 378.049 191.216 378.705 191.216C379.025 191.216 379.201 191.264 379.457 191.344L379.713 190.192C379.457 190.08 379.217 190.032 378.881 190.032C378.001 190.032 377.201 190.656 376.673 191.632H376.625L376.513 190.224H375.425V198ZM385.014 198H386.342V193.84H388.07C390.374 193.84 391.942 192.8 391.942 190.592C391.942 188.288 390.358 187.504 388.006 187.504H385.014V198ZM386.342 192.752V188.576H387.846C389.686 188.576 390.614 189.072 390.614 190.592C390.614 192.08 389.734 192.752 387.91 192.752H386.342ZM394.304 198H395.616V193.008C396.144 191.696 396.928 191.216 397.584 191.216C397.904 191.216 398.08 191.264 398.336 191.344L398.592 190.192C398.336 190.08 398.096 190.032 397.76 190.032C396.88 190.032 396.08 190.656 395.552 191.632H395.504L395.392 190.224H394.304V198ZM403.074 198.192C404.978 198.192 406.674 196.704 406.674 194.128C406.674 191.52 404.978 190.032 403.074 190.032C401.17 190.032 399.474 191.52 399.474 194.128C399.474 196.704 401.17 198.192 403.074 198.192ZM403.074 197.104C401.746 197.104 400.834 195.904 400.834 194.128C400.834 192.336 401.746 191.12 403.074 191.12C404.418 191.12 405.314 192.336 405.314 194.128C405.314 195.904 404.418 197.104 403.074 197.104ZM411.26 198.192C411.74 198.192 412.268 198.048 412.7 197.904L412.444 196.912C412.188 197.008 411.836 197.12 411.564 197.12C410.668 197.12 410.364 196.576 410.364 195.616V191.296H412.46V190.224H410.364V188.048H409.26L409.1 190.224L407.884 190.304V191.296H409.036V195.6C409.036 197.136 409.596 198.192 411.26 198.192ZM417.379 198.192C419.283 198.192 420.979 196.704 420.979 194.128C420.979 191.52 419.283 190.032 417.379 190.032C415.475 190.032 413.779 191.52 413.779 194.128C413.779 196.704 415.475 198.192 417.379 198.192ZM417.379 197.104C416.051 197.104 415.139 195.904 415.139 194.128C415.139 192.336 416.051 191.12 417.379 191.12C418.723 191.12 419.619 192.336 419.619 194.128C419.619 195.904 418.723 197.104 417.379 197.104ZM425.565 198.192C426.045 198.192 426.573 198.048 427.005 197.904L426.749 196.912C426.493 197.008 426.141 197.12 425.869 197.12C424.973 197.12 424.669 196.576 424.669 195.616V191.296H426.765V190.224H424.669V188.048H423.565L423.405 190.224L422.189 190.304V191.296H423.341V195.6C423.341 197.136 423.901 198.192 425.565 198.192ZM429.007 201.344C430.575 201.344 431.375 200.176 431.919 198.64L434.847 190.224H433.567L432.175 194.528C431.967 195.216 431.743 196.016 431.519 196.72H431.455C431.215 196 430.943 195.2 430.703 194.528L429.119 190.224H427.759L430.879 198.016L430.703 198.592C430.383 199.552 429.823 200.256 428.943 200.256C428.751 200.256 428.511 200.192 428.351 200.144L428.095 201.184C428.351 201.28 428.655 201.344 429.007 201.344ZM436.703 201.28H438.015V198.656L437.983 197.296C438.703 197.856 439.423 198.192 440.143 198.192C441.919 198.192 443.503 196.64 443.503 194C443.503 191.584 442.431 190.032 440.431 190.032C439.519 190.032 438.655 190.528 437.951 191.12H437.903L437.791 190.224H436.703V201.28ZM439.919 197.088C439.407 197.088 438.719 196.864 438.015 196.272V192.192C438.783 191.504 439.439 191.136 440.095 191.136C441.567 191.136 442.143 192.288 442.143 194C442.143 195.92 441.199 197.088 439.919 197.088ZM449.086 198.192C450.142 198.192 450.974 197.824 451.646 197.392L451.182 196.528C450.606 196.896 449.982 197.136 449.246 197.136C447.758 197.136 446.75 196.08 446.654 194.432H451.902C451.934 194.24 451.95 193.952 451.95 193.68C451.95 191.456 450.83 190.032 448.846 190.032C447.07 190.032 445.358 191.584 445.358 194.128C445.358 196.672 447.006 198.192 449.086 198.192ZM446.638 193.488C446.798 191.952 447.79 191.072 448.878 191.072C450.094 191.072 450.798 191.92 450.798 193.488H446.638Z" fill="#858585"/>
<path d="M525.972 201H527.556L529.108 194.68C529.284 193.864 529.476 193.112 529.636 192.296H529.7C529.86 193.112 530.02 193.864 530.212 194.68L531.796 201H533.396L535.572 190.504H534.292L533.188 196.216C532.98 197.336 532.788 198.472 532.596 199.608H532.532C532.276 198.472 532.02 197.32 531.764 196.216L530.308 190.504H529.092L527.636 196.216C527.396 197.336 527.14 198.472 526.9 199.608H526.836C526.644 198.472 526.42 197.352 526.228 196.216L525.124 190.504H523.748L525.972 201ZM537.626 201H538.938V193.224H537.626V201ZM538.298 191.624C538.81 191.624 539.21 191.272 539.21 190.776C539.21 190.264 538.81 189.928 538.298 189.928C537.786 189.928 537.386 190.264 537.386 190.776C537.386 191.272 537.786 191.624 538.298 191.624ZM541.103 201H546.991V199.928H542.767L546.863 193.928V193.224H541.551V194.296H545.199L541.103 200.296V201ZM550.489 201.192C551.465 201.192 552.329 200.68 553.065 200.072H553.113L553.225 201H554.313V196.232C554.313 194.296 553.513 193.032 551.609 193.032C550.361 193.032 549.273 193.576 548.553 194.04L549.065 194.952C549.673 194.536 550.489 194.12 551.385 194.12C552.665 194.12 552.985 195.08 552.985 196.072C549.673 196.44 548.217 197.288 548.217 198.984C548.217 200.376 549.193 201.192 550.489 201.192ZM550.873 200.136C550.105 200.136 549.497 199.768 549.497 198.888C549.497 197.896 550.393 197.256 552.985 196.936V199.096C552.233 199.768 551.625 200.136 550.873 200.136ZM557.115 201H558.427V196.008C558.955 194.696 559.739 194.216 560.395 194.216C560.715 194.216 560.891 194.264 561.147 194.344L561.403 193.192C561.147 193.08 560.907 193.032 560.571 193.032C559.691 193.032 558.891 193.656 558.363 194.632H558.315L558.203 193.224H557.115V201ZM565.517 201.192C566.429 201.192 567.261 200.68 567.869 200.088H567.917L568.029 201H569.117V189.608H567.789V192.6L567.853 193.928C567.165 193.368 566.573 193.032 565.677 193.032C563.901 193.032 562.301 194.6 562.301 197.128C562.301 199.72 563.565 201.192 565.517 201.192ZM565.805 200.088C564.445 200.088 563.661 198.968 563.661 197.112C563.661 195.336 564.653 194.136 565.901 194.136C566.541 194.136 567.133 194.36 567.789 194.952V199.016C567.149 199.736 566.525 200.088 565.805 200.088ZM578.674 201.192C580.578 201.192 582.274 199.704 582.274 197.128C582.274 194.52 580.578 193.032 578.674 193.032C576.77 193.032 575.074 194.52 575.074 197.128C575.074 199.704 576.77 201.192 578.674 201.192ZM578.674 200.104C577.346 200.104 576.434 198.904 576.434 197.128C576.434 195.336 577.346 194.12 578.674 194.12C580.018 194.12 580.914 195.336 580.914 197.128C580.914 198.904 580.018 200.104 578.674 200.104ZM584.901 201H586.213V194.296H587.861V193.224H586.213V191.992C586.213 191 586.565 190.488 587.301 190.488C587.589 190.488 587.893 190.552 588.181 190.68L588.469 189.672C588.117 189.528 587.653 189.416 587.173 189.416C585.621 189.416 584.901 190.408 584.901 191.992V193.224L583.845 193.304V194.296H584.901V201ZM597.264 201.192C599.904 201.192 601.76 199.08 601.76 195.704C601.76 192.36 599.904 190.312 597.264 190.312C594.624 190.312 592.784 192.344 592.784 195.704C592.784 199.08 594.624 201.192 597.264 201.192ZM597.264 200.024C595.392 200.024 594.16 198.328 594.16 195.704C594.16 193.096 595.392 191.48 597.264 191.48C599.136 191.48 600.368 193.096 600.368 195.704C600.368 198.328 599.136 200.024 597.264 200.024ZM603.319 201H609.207V199.928H604.983L609.079 193.928V193.224H603.767V194.296H607.415L603.319 200.296V201Z" fill="#858585"/>
<path d="M538.619 227H539.947V222.84H541.675C543.979 222.84 545.547 221.8 545.547 219.592C545.547 217.288 543.963 216.504 541.611 216.504H538.619V227ZM539.947 221.752V217.576H541.451C543.291 217.576 544.219 218.072 544.219 219.592C544.219 221.08 543.339 221.752 541.515 221.752H539.947ZM549.301 227.192C549.653 227.192 549.877 227.144 550.053 227.064L549.877 226.072C549.733 226.104 549.669 226.104 549.589 226.104C549.397 226.104 549.221 225.944 549.221 225.528V215.608H547.909V225.432C547.909 226.568 548.309 227.192 549.301 227.192ZM554.135 227.192C555.111 227.192 555.975 226.68 556.711 226.072H556.759L556.871 227H557.959V222.232C557.959 220.296 557.159 219.032 555.255 219.032C554.007 219.032 552.919 219.576 552.199 220.04L552.711 220.952C553.319 220.536 554.135 220.12 555.031 220.12C556.311 220.12 556.631 221.08 556.631 222.072C553.319 222.44 551.863 223.288 551.863 224.984C551.863 226.376 552.839 227.192 554.135 227.192ZM554.519 226.136C553.751 226.136 553.143 225.768 553.143 224.888C553.143 223.896 554.039 223.256 556.631 222.936V225.096C555.879 225.768 555.271 226.136 554.519 226.136ZM560.889 230.344C562.457 230.344 563.257 229.176 563.801 227.64L566.729 219.224H565.449L564.057 223.528C563.849 224.216 563.625 225.016 563.401 225.72H563.337C563.097 225 562.825 224.2 562.585 223.528L561.001 219.224H559.641L562.761 227.016L562.585 227.592C562.265 228.552 561.705 229.256 560.825 229.256C560.633 229.256 560.393 229.192 560.233 229.144L559.977 230.184C560.233 230.28 560.537 230.344 560.889 230.344ZM574.592 227.192C575.072 227.192 575.6 227.048 576.032 226.904L575.776 225.912C575.52 226.008 575.168 226.12 574.896 226.12C574 226.12 573.696 225.576 573.696 224.616V220.296H575.792V219.224H573.696V217.048H572.592L572.432 219.224L571.216 219.304V220.296H572.368V224.6C572.368 226.136 572.928 227.192 574.592 227.192ZM580.839 227.192C581.895 227.192 582.727 226.824 583.399 226.392L582.935 225.528C582.359 225.896 581.735 226.136 580.999 226.136C579.511 226.136 578.503 225.08 578.407 223.432H583.655C583.687 223.24 583.703 222.952 583.703 222.68C583.703 220.456 582.583 219.032 580.599 219.032C578.823 219.032 577.111 220.584 577.111 223.128C577.111 225.672 578.759 227.192 580.839 227.192ZM578.391 222.488C578.551 220.952 579.543 220.072 580.631 220.072C581.847 220.072 582.551 220.92 582.551 222.488H578.391ZM588.012 227.192C589.852 227.192 590.86 226.136 590.86 224.872C590.86 223.4 589.612 222.936 588.492 222.52C587.612 222.184 586.764 221.912 586.764 221.176C586.764 220.584 587.212 220.056 588.188 220.056C588.876 220.056 589.436 220.344 589.964 220.744L590.588 219.912C589.996 219.432 589.148 219.032 588.172 219.032C586.492 219.032 585.5 219.992 585.5 221.24C585.5 222.552 586.716 223.08 587.82 223.48C588.668 223.8 589.596 224.152 589.596 224.952C589.596 225.624 589.084 226.168 588.06 226.168C587.132 226.168 586.444 225.784 585.772 225.24L585.116 226.12C585.852 226.728 586.908 227.192 588.012 227.192ZM595.174 227.192C595.654 227.192 596.182 227.048 596.614 226.904L596.358 225.912C596.102 226.008 595.75 226.12 595.478 226.12C594.582 226.12 594.278 225.576 594.278 224.616V220.296H596.374V219.224H594.278V217.048H593.174L593.014 219.224L591.798 219.304V220.296H592.95V224.6C592.95 226.136 593.51 227.192 595.174 227.192Z" fill="#858585"/>
<path d="M716.678 195.128C717.062 193.96 717.398 192.808 717.718 191.592H717.782C718.118 192.808 718.454 193.96 718.838 195.128L719.334 196.728H716.182L716.678 195.128ZM713.478 201H714.838L715.846 197.8H719.67L720.662 201H722.086L718.534 190.504H717.03L713.478 201ZM726.424 204.584C728.84 204.584 730.36 203.336 730.36 201.896C730.36 200.6 729.448 200.04 727.64 200.04H726.136C725.08 200.04 724.76 199.688 724.76 199.192C724.76 198.76 724.984 198.504 725.256 198.264C725.608 198.44 726.04 198.536 726.424 198.536C728.008 198.536 729.272 197.496 729.272 195.832C729.272 195.176 729 194.584 728.632 194.232H730.232V193.224H727.528C727.24 193.112 726.856 193.032 726.424 193.032C724.84 193.032 723.496 194.104 723.496 195.8C723.496 196.728 723.992 197.48 724.504 197.896V197.96C724.104 198.232 723.656 198.744 723.656 199.4C723.656 200.008 723.96 200.424 724.344 200.664V200.728C723.64 201.208 723.208 201.832 723.208 202.488C723.208 203.832 724.52 204.584 726.424 204.584ZM726.424 197.656C725.528 197.656 724.776 196.936 724.776 195.8C724.776 194.664 725.512 193.992 726.424 193.992C727.336 193.992 728.072 194.664 728.072 195.8C728.072 196.936 727.32 197.656 726.424 197.656ZM726.616 203.672C725.208 203.672 724.36 203.144 724.36 202.312C724.36 201.864 724.6 201.4 725.16 201C725.496 201.096 725.864 201.128 726.168 201.128H727.512C728.52 201.128 729.08 201.368 729.08 202.088C729.08 202.904 728.104 203.672 726.616 203.672ZM732.218 201H733.53V193.224H732.218V201ZM732.89 191.624C733.402 191.624 733.802 191.272 733.802 190.776C733.802 190.264 733.402 189.928 732.89 189.928C732.378 189.928 731.978 190.264 731.978 190.776C731.978 191.272 732.378 191.624 732.89 191.624ZM737.903 201.192C738.255 201.192 738.479 201.144 738.655 201.064L738.479 200.072C738.335 200.104 738.271 200.104 738.191 200.104C737.999 200.104 737.823 199.944 737.823 199.528V189.608H736.511V199.432C736.511 200.568 736.911 201.192 737.903 201.192ZM744.097 201.192C745.153 201.192 745.985 200.824 746.657 200.392L746.193 199.528C745.617 199.896 744.993 200.136 744.257 200.136C742.769 200.136 741.761 199.08 741.665 197.432H746.913C746.945 197.24 746.961 196.952 746.961 196.68C746.961 194.456 745.841 193.032 743.857 193.032C742.081 193.032 740.369 194.584 740.369 197.128C740.369 199.672 742.017 201.192 744.097 201.192ZM741.649 196.488C741.809 194.952 742.801 194.072 743.889 194.072C745.105 194.072 745.809 194.92 745.809 196.488H741.649Z" fill="#858585"/>
<path d="M341.594 224H342.794V218.224C342.794 217.296 342.698 216.048 342.634 215.12H342.698L343.53 217.504L345.514 222.944H346.394L348.378 217.504L349.21 215.12H349.274C349.21 216.048 349.098 217.296 349.098 218.224V224H350.346V213.504H348.73L346.746 219.104C346.49 219.824 346.282 220.576 346.026 221.296H345.962C345.706 220.576 345.466 219.824 345.21 219.104L343.194 213.504H341.594V224ZM353.446 224H354.758V216.224H353.446V224ZM354.118 214.624C354.63 214.624 355.03 214.272 355.03 213.776C355.03 213.264 354.63 212.928 354.118 212.928C353.606 212.928 353.206 213.264 353.206 213.776C353.206 214.272 353.606 214.624 354.118 214.624ZM360.395 224.192C361.307 224.192 362.139 223.68 362.747 223.088H362.795L362.907 224H363.995V212.608H362.667V215.6L362.731 216.928C362.043 216.368 361.451 216.032 360.555 216.032C358.779 216.032 357.179 217.6 357.179 220.128C357.179 222.72 358.443 224.192 360.395 224.192ZM360.683 223.088C359.323 223.088 358.539 221.968 358.539 220.112C358.539 218.336 359.531 217.136 360.779 217.136C361.419 217.136 362.011 217.36 362.667 217.952V222.016C362.027 222.736 361.403 223.088 360.683 223.088ZM366.314 220.496H369.994V219.488H366.314V220.496ZM372.518 224H373.83V217.296H375.478V216.224H373.83V214.992C373.83 214 374.182 213.488 374.918 213.488C375.206 213.488 375.51 213.552 375.798 213.68L376.086 212.672C375.734 212.528 375.27 212.416 374.79 212.416C373.238 212.416 372.518 213.408 372.518 214.992V216.224L371.462 216.304V217.296H372.518V224ZM377.322 224H378.634V216.224H377.322V224ZM377.994 214.624C378.506 214.624 378.906 214.272 378.906 213.776C378.906 213.264 378.506 212.928 377.994 212.928C377.482 212.928 377.082 213.264 377.082 213.776C377.082 214.272 377.482 214.624 377.994 214.624ZM385.301 224H386.629V219.84H388.357C390.661 219.84 392.229 218.8 392.229 216.592C392.229 214.288 390.645 213.504 388.293 213.504H385.301V224ZM386.629 218.752V214.576H388.133C389.973 214.576 390.901 215.072 390.901 216.592C390.901 218.08 390.021 218.752 388.197 218.752H386.629ZM394.591 224H395.903V219.008C396.431 217.696 397.215 217.216 397.871 217.216C398.191 217.216 398.367 217.264 398.623 217.344L398.879 216.192C398.623 216.08 398.383 216.032 398.047 216.032C397.167 216.032 396.367 216.656 395.839 217.632H395.791L395.679 216.224H394.591V224ZM403.362 224.192C405.266 224.192 406.962 222.704 406.962 220.128C406.962 217.52 405.266 216.032 403.362 216.032C401.458 216.032 399.762 217.52 399.762 220.128C399.762 222.704 401.458 224.192 403.362 224.192ZM403.362 223.104C402.034 223.104 401.122 221.904 401.122 220.128C401.122 218.336 402.034 217.12 403.362 217.12C404.706 217.12 405.602 218.336 405.602 220.128C405.602 221.904 404.706 223.104 403.362 223.104ZM411.547 224.192C412.027 224.192 412.555 224.048 412.987 223.904L412.731 222.912C412.475 223.008 412.123 223.12 411.851 223.12C410.955 223.12 410.651 222.576 410.651 221.616V217.296H412.747V216.224H410.651V214.048H409.547L409.387 216.224L408.171 216.304V217.296H409.323V221.6C409.323 223.136 409.883 224.192 411.547 224.192ZM417.666 224.192C419.57 224.192 421.266 222.704 421.266 220.128C421.266 217.52 419.57 216.032 417.666 216.032C415.762 216.032 414.066 217.52 414.066 220.128C414.066 222.704 415.762 224.192 417.666 224.192ZM417.666 223.104C416.338 223.104 415.426 221.904 415.426 220.128C415.426 218.336 416.338 217.12 417.666 217.12C419.01 217.12 419.906 218.336 419.906 220.128C419.906 221.904 419.01 223.104 417.666 223.104ZM425.852 224.192C426.332 224.192 426.86 224.048 427.292 223.904L427.036 222.912C426.78 223.008 426.428 223.12 426.156 223.12C425.26 223.12 424.956 222.576 424.956 221.616V217.296H427.052V216.224H424.956V214.048H423.852L423.692 216.224L422.476 216.304V217.296H423.628V221.6C423.628 223.136 424.188 224.192 425.852 224.192ZM429.294 227.344C430.862 227.344 431.662 226.176 432.206 224.64L435.134 216.224H433.854L432.462 220.528C432.254 221.216 432.03 222.016 431.806 222.72H431.742C431.502 222 431.23 221.2 430.99 220.528L429.406 216.224H428.046L431.166 224.016L430.99 224.592C430.67 225.552 430.11 226.256 429.23 226.256C429.038 226.256 428.798 226.192 428.638 226.144L428.382 227.184C428.638 227.28 428.942 227.344 429.294 227.344ZM436.99 227.28H438.302V224.656L438.27 223.296C438.99 223.856 439.71 224.192 440.43 224.192C442.206 224.192 443.79 222.64 443.79 220C443.79 217.584 442.718 216.032 440.718 216.032C439.806 216.032 438.942 216.528 438.238 217.12H438.19L438.078 216.224H436.99V227.28ZM440.206 223.088C439.694 223.088 439.006 222.864 438.302 222.272V218.192C439.07 217.504 439.726 217.136 440.382 217.136C441.854 217.136 442.43 218.288 442.43 220C442.43 221.92 441.486 223.088 440.206 223.088ZM449.373 224.192C450.429 224.192 451.261 223.824 451.933 223.392L451.469 222.528C450.893 222.896 450.269 223.136 449.533 223.136C448.045 223.136 447.037 222.08 446.941 220.432H452.189C452.221 220.24 452.237 219.952 452.237 219.68C452.237 217.456 451.117 216.032 449.133 216.032C447.357 216.032 445.645 217.584 445.645 220.128C445.645 222.672 447.293 224.192 449.373 224.192ZM446.925 219.488C447.085 217.952 448.077 217.072 449.165 217.072C450.381 217.072 451.085 217.92 451.085 219.488H446.925Z" fill="#858585"/>
<path d="M344.803 250H346.131V245.056H351.011V250H352.355V239.504H351.011V243.904H346.131V239.504H344.803V250ZM355.468 250H356.78V242.224H355.468V250ZM356.14 240.624C356.652 240.624 357.052 240.272 357.052 239.776C357.052 239.264 356.652 238.928 356.14 238.928C355.628 238.928 355.228 239.264 355.228 239.776C355.228 240.272 355.628 240.624 356.14 240.624ZM359.105 246.496H362.785V245.488H359.105V246.496ZM365.085 250H366.397V242.224H365.085V250ZM365.757 240.624C366.269 240.624 366.669 240.272 366.669 239.776C366.669 239.264 366.269 238.928 365.757 238.928C365.245 238.928 364.845 239.264 364.845 239.776C364.845 240.272 365.245 240.624 365.757 240.624ZM369.602 250H370.914V243.296H372.562V242.224H370.914V240.992C370.914 240 371.266 239.488 372.002 239.488C372.29 239.488 372.594 239.552 372.882 239.68L373.17 238.672C372.818 238.528 372.354 238.416 371.874 238.416C370.322 238.416 369.602 239.408 369.602 240.992V242.224L368.546 242.304V243.296H369.602V250ZM378.092 250H379.42V245.84H381.148C383.452 245.84 385.02 244.8 385.02 242.592C385.02 240.288 383.436 239.504 381.084 239.504H378.092V250ZM379.42 244.752V240.576H380.924C382.764 240.576 383.692 241.072 383.692 242.592C383.692 244.08 382.812 244.752 380.988 244.752H379.42ZM387.382 250H388.694V245.008C389.222 243.696 390.006 243.216 390.662 243.216C390.982 243.216 391.158 243.264 391.414 243.344L391.67 242.192C391.414 242.08 391.174 242.032 390.838 242.032C389.958 242.032 389.158 242.656 388.63 243.632H388.582L388.47 242.224H387.382V250ZM396.152 250.192C398.056 250.192 399.752 248.704 399.752 246.128C399.752 243.52 398.056 242.032 396.152 242.032C394.248 242.032 392.552 243.52 392.552 246.128C392.552 248.704 394.248 250.192 396.152 250.192ZM396.152 249.104C394.824 249.104 393.912 247.904 393.912 246.128C393.912 244.336 394.824 243.12 396.152 243.12C397.496 243.12 398.392 244.336 398.392 246.128C398.392 247.904 397.496 249.104 396.152 249.104ZM404.338 250.192C404.818 250.192 405.346 250.048 405.778 249.904L405.522 248.912C405.266 249.008 404.914 249.12 404.642 249.12C403.746 249.12 403.442 248.576 403.442 247.616V243.296H405.538V242.224H403.442V240.048H402.338L402.178 242.224L400.962 242.304V243.296H402.114V247.6C402.114 249.136 402.674 250.192 404.338 250.192ZM410.457 250.192C412.361 250.192 414.057 248.704 414.057 246.128C414.057 243.52 412.361 242.032 410.457 242.032C408.553 242.032 406.857 243.52 406.857 246.128C406.857 248.704 408.553 250.192 410.457 250.192ZM410.457 249.104C409.129 249.104 408.217 247.904 408.217 246.128C408.217 244.336 409.129 243.12 410.457 243.12C411.801 243.12 412.697 244.336 412.697 246.128C412.697 247.904 411.801 249.104 410.457 249.104ZM418.643 250.192C419.123 250.192 419.651 250.048 420.083 249.904L419.827 248.912C419.571 249.008 419.219 249.12 418.947 249.12C418.051 249.12 417.747 248.576 417.747 247.616V243.296H419.843V242.224H417.747V240.048H416.643L416.483 242.224L415.267 242.304V243.296H416.419V247.6C416.419 249.136 416.979 250.192 418.643 250.192ZM422.085 253.344C423.653 253.344 424.453 252.176 424.997 250.64L427.925 242.224H426.645L425.253 246.528C425.045 247.216 424.821 248.016 424.597 248.72H424.533C424.293 248 424.021 247.2 423.781 246.528L422.197 242.224H420.837L423.957 250.016L423.781 250.592C423.461 251.552 422.901 252.256 422.021 252.256C421.829 252.256 421.589 252.192 421.429 252.144L421.173 253.184C421.429 253.28 421.733 253.344 422.085 253.344ZM429.781 253.28H431.093V250.656L431.061 249.296C431.781 249.856 432.501 250.192 433.221 250.192C434.997 250.192 436.581 248.64 436.581 246C436.581 243.584 435.509 242.032 433.509 242.032C432.597 242.032 431.733 242.528 431.029 243.12H430.981L430.869 242.224H429.781V253.28ZM432.997 249.088C432.485 249.088 431.797 248.864 431.093 248.272V244.192C431.861 243.504 432.517 243.136 433.173 243.136C434.645 243.136 435.221 244.288 435.221 246C435.221 247.92 434.277 249.088 432.997 249.088ZM442.164 250.192C443.22 250.192 444.052 249.824 444.724 249.392L444.26 248.528C443.684 248.896 443.06 249.136 442.324 249.136C440.836 249.136 439.828 248.08 439.732 246.432H444.98C445.012 246.24 445.028 245.952 445.028 245.68C445.028 243.456 443.908 242.032 441.924 242.032C440.148 242.032 438.436 243.584 438.436 246.128C438.436 248.672 440.084 250.192 442.164 250.192ZM439.716 245.488C439.876 243.952 440.868 243.072 441.956 243.072C443.172 243.072 443.876 243.92 443.876 245.488H439.716Z" fill="#858585"/>
<path d="M16.5678 227.192C18.7118 227.192 20.3278 226.04 20.3278 222.664V216.504H19.0478V222.696C19.0478 225.224 17.9598 226.024 16.5678 226.024C15.1918 226.024 14.1198 225.224 14.1198 222.696V216.504H12.7918V222.664C12.7918 226.04 14.4238 227.192 16.5678 227.192ZM25.3494 227.192C27.1894 227.192 28.1974 226.136 28.1974 224.872C28.1974 223.4 26.9494 222.936 25.8294 222.52C24.9494 222.184 24.1014 221.912 24.1014 221.176C24.1014 220.584 24.5494 220.056 25.5254 220.056C26.2134 220.056 26.7734 220.344 27.3014 220.744L27.9254 219.912C27.3334 219.432 26.4854 219.032 25.5094 219.032C23.8294 219.032 22.8374 219.992 22.8374 221.24C22.8374 222.552 24.0534 223.08 25.1574 223.48C26.0054 223.8 26.9334 224.152 26.9334 224.952C26.9334 225.624 26.4214 226.168 25.3974 226.168C24.4694 226.168 23.7814 225.784 23.1094 225.24L22.4534 226.12C23.1894 226.728 24.2454 227.192 25.3494 227.192ZM33.5281 227.192C34.5841 227.192 35.4161 226.824 36.0881 226.392L35.6241 225.528C35.0481 225.896 34.4241 226.136 33.6881 226.136C32.2001 226.136 31.1921 225.08 31.0961 223.432H36.3441C36.3761 223.24 36.3921 222.952 36.3921 222.68C36.3921 220.456 35.2721 219.032 33.2881 219.032C31.5121 219.032 29.8001 220.584 29.8001 223.128C29.8001 225.672 31.4481 227.192 33.5281 227.192ZM31.0801 222.488C31.2401 220.952 32.2321 220.072 33.3201 220.072C34.5361 220.072 35.2401 220.92 35.2401 222.488H31.0801ZM38.6691 227H39.9811V222.008C40.5091 220.696 41.2931 220.216 41.9491 220.216C42.2691 220.216 42.4451 220.264 42.7011 220.344L42.9571 219.192C42.7011 219.08 42.4611 219.032 42.1251 219.032C41.2451 219.032 40.4451 219.656 39.9171 220.632H39.8691L39.7571 219.224H38.6691V227ZM48.2582 227H49.5862V216.504H48.2582V227ZM52.6889 227H54.0009V221.368C54.7849 220.584 55.3289 220.168 56.1289 220.168C57.1529 220.168 57.6009 220.792 57.6009 222.248V227H58.9129V222.072C58.9129 220.088 58.1769 219.032 56.5449 219.032C55.4729 219.032 54.6729 219.608 53.9369 220.344H53.8889L53.7769 219.224H52.6889V227ZM64.2425 227.192C64.7225 227.192 65.2505 227.048 65.6825 226.904L65.4265 225.912C65.1705 226.008 64.8185 226.12 64.5465 226.12C63.6505 226.12 63.3465 225.576 63.3465 224.616V220.296H65.4425V219.224H63.3465V217.048H62.2425L62.0825 219.224L60.8665 219.304V220.296H62.0185V224.6C62.0185 226.136 62.5785 227.192 64.2425 227.192ZM70.4895 227.192C71.5455 227.192 72.3775 226.824 73.0495 226.392L72.5855 225.528C72.0095 225.896 71.3855 226.136 70.6495 226.136C69.1615 226.136 68.1535 225.08 68.0575 223.432H73.3055C73.3375 223.24 73.3535 222.952 73.3535 222.68C73.3535 220.456 72.2335 219.032 70.2495 219.032C68.4735 219.032 66.7615 220.584 66.7615 223.128C66.7615 225.672 68.4095 227.192 70.4895 227.192ZM68.0415 222.488C68.2015 220.952 69.1935 220.072 70.2815 220.072C71.4975 220.072 72.2015 220.92 72.2015 222.488H68.0415ZM75.6306 227H76.9426V222.008C77.4706 220.696 78.2546 220.216 78.9106 220.216C79.2306 220.216 79.4066 220.264 79.6626 220.344L79.9186 219.192C79.6626 219.08 79.4226 219.032 79.0866 219.032C78.2066 219.032 77.4066 219.656 76.8786 220.632H76.8306L76.7186 219.224H75.6306V227ZM83.6193 227H85.1553L87.9073 219.224H86.6113L85.1393 223.64C84.9153 224.408 84.6593 225.192 84.4353 225.928H84.3713C84.1313 225.192 83.8753 224.408 83.6513 223.64L82.1793 219.224H80.8193L83.6193 227ZM89.7636 227H91.0756V219.224H89.7636V227ZM90.4356 217.624C90.9476 217.624 91.3476 217.272 91.3476 216.776C91.3476 216.264 90.9476 215.928 90.4356 215.928C89.9236 215.928 89.5236 216.264 89.5236 216.776C89.5236 217.272 89.9236 217.624 90.4356 217.624ZM97.2086 227.192C98.2646 227.192 99.0966 226.824 99.7686 226.392L99.3046 225.528C98.7286 225.896 98.1046 226.136 97.3686 226.136C95.8806 226.136 94.8726 225.08 94.7766 223.432H100.025C100.057 223.24 100.073 222.952 100.073 222.68C100.073 220.456 98.9526 219.032 96.9686 219.032C95.1926 219.032 93.4806 220.584 93.4806 223.128C93.4806 225.672 95.1286 227.192 97.2086 227.192ZM94.7606 222.488C94.9206 220.952 95.9126 220.072 97.0006 220.072C98.2166 220.072 98.9206 220.92 98.9206 222.488H94.7606ZM103.66 227H105.196L106.284 222.84C106.492 222.104 106.652 221.368 106.828 220.584H106.892C107.084 221.368 107.228 222.088 107.42 222.824L108.54 227H110.14L112.22 219.224H110.972L109.836 223.72C109.676 224.456 109.532 225.16 109.356 225.88H109.292C109.116 225.16 108.94 224.456 108.748 223.72L107.532 219.224H106.252L105.052 223.72C104.86 224.44 104.7 225.16 104.524 225.88H104.46C104.316 225.16 104.172 224.456 103.996 223.72L102.844 219.224H101.5L103.66 227Z" fill="#858585"/>
<path d="M22.6202 279.192C25.2602 279.192 27.1162 277.08 27.1162 273.704C27.1162 270.36 25.2602 268.312 22.6202 268.312C19.9802 268.312 18.1402 270.344 18.1402 273.704C18.1402 277.08 19.9802 279.192 22.6202 279.192ZM22.6202 278.024C20.7482 278.024 19.5162 276.328 19.5162 273.704C19.5162 271.096 20.7482 269.48 22.6202 269.48C24.4922 269.48 25.7242 271.096 25.7242 273.704C25.7242 276.328 24.4922 278.024 22.6202 278.024ZM33.0407 279.192C34.8167 279.192 36.4007 277.64 36.4007 274.984C36.4007 272.584 35.3287 271.032 33.3127 271.032C32.4487 271.032 31.5847 271.496 30.8807 272.12L30.9127 270.712V267.608H29.6007V279H30.6567L30.7687 278.2H30.8167C31.5047 278.824 32.3207 279.192 33.0407 279.192ZM32.8167 278.088C32.3047 278.088 31.6007 277.864 30.9127 277.272V273.192C31.6487 272.504 32.3367 272.136 32.9927 272.136C34.4647 272.136 35.0407 273.288 35.0407 275C35.0407 276.92 34.0967 278.088 32.8167 278.088ZM40.832 279.192C42.672 279.192 43.68 278.136 43.68 276.872C43.68 275.4 42.432 274.936 41.312 274.52C40.432 274.184 39.584 273.912 39.584 273.176C39.584 272.584 40.032 272.056 41.008 272.056C41.696 272.056 42.256 272.344 42.784 272.744L43.408 271.912C42.816 271.432 41.968 271.032 40.992 271.032C39.312 271.032 38.32 271.992 38.32 273.24C38.32 274.552 39.536 275.08 40.64 275.48C41.488 275.8 42.416 276.152 42.416 276.952C42.416 277.624 41.904 278.168 40.88 278.168C39.952 278.168 39.264 277.784 38.592 277.24L37.936 278.12C38.672 278.728 39.728 279.192 40.832 279.192ZM49.0107 279.192C50.0667 279.192 50.8987 278.824 51.5707 278.392L51.1067 277.528C50.5307 277.896 49.9067 278.136 49.1707 278.136C47.6827 278.136 46.6747 277.08 46.5787 275.432H51.8267C51.8587 275.24 51.8747 274.952 51.8747 274.68C51.8747 272.456 50.7547 271.032 48.7707 271.032C46.9947 271.032 45.2827 272.584 45.2827 275.128C45.2827 277.672 46.9307 279.192 49.0107 279.192ZM46.5627 274.488C46.7227 272.952 47.7147 272.072 48.8027 272.072C50.0187 272.072 50.7227 272.92 50.7227 274.488H46.5627ZM54.1518 279H55.4638V274.008C55.9918 272.696 56.7758 272.216 57.4318 272.216C57.7518 272.216 57.9278 272.264 58.1838 272.344L58.4398 271.192C58.1838 271.08 57.9438 271.032 57.6078 271.032C56.7278 271.032 55.9278 271.656 55.3998 272.632H55.3518L55.2398 271.224H54.1518V279ZM62.1404 279H63.6764L66.4284 271.224H65.1324L63.6604 275.64C63.4364 276.408 63.1804 277.192 62.9564 277.928H62.8924C62.6524 277.192 62.3964 276.408 62.1724 275.64L60.7004 271.224H59.3404L62.1404 279ZM69.7642 279.192C70.7402 279.192 71.6042 278.68 72.3402 278.072H72.3882L72.5002 279H73.5882V274.232C73.5882 272.296 72.7882 271.032 70.8842 271.032C69.6362 271.032 68.5482 271.576 67.8282 272.04L68.3402 272.952C68.9482 272.536 69.7642 272.12 70.6602 272.12C71.9402 272.12 72.2602 273.08 72.2602 274.072C68.9482 274.44 67.4922 275.288 67.4922 276.984C67.4922 278.376 68.4682 279.192 69.7642 279.192ZM70.1482 278.136C69.3802 278.136 68.7722 277.768 68.7722 276.888C68.7722 275.896 69.6682 275.256 72.2602 274.936V277.096C71.5082 277.768 70.9002 278.136 70.1482 278.136ZM78.6195 279.192C79.0995 279.192 79.6275 279.048 80.0595 278.904L79.8035 277.912C79.5475 278.008 79.1955 278.12 78.9235 278.12C78.0275 278.12 77.7235 277.576 77.7235 276.616V272.296H79.8195V271.224H77.7235V269.048H76.6195L76.4595 271.224L75.2435 271.304V272.296H76.3955V276.6C76.3955 278.136 76.9555 279.192 78.6195 279.192ZM81.9334 279H83.2454V271.224H81.9334V279ZM82.6054 269.624C83.1174 269.624 83.5174 269.272 83.5174 268.776C83.5174 268.264 83.1174 267.928 82.6054 267.928C82.0934 267.928 81.6934 268.264 81.6934 268.776C81.6934 269.272 82.0934 269.624 82.6054 269.624ZM89.2504 279.192C91.1544 279.192 92.8504 277.704 92.8504 275.128C92.8504 272.52 91.1544 271.032 89.2504 271.032C87.3464 271.032 85.6504 272.52 85.6504 275.128C85.6504 277.704 87.3464 279.192 89.2504 279.192ZM89.2504 278.104C87.9224 278.104 87.0104 276.904 87.0104 275.128C87.0104 273.336 87.9224 272.12 89.2504 272.12C90.5944 272.12 91.4904 273.336 91.4904 275.128C91.4904 276.904 90.5944 278.104 89.2504 278.104ZM95.2538 279H96.5658V273.368C97.3498 272.584 97.8938 272.168 98.6938 272.168C99.7178 272.168 100.166 272.792 100.166 274.248V279H101.478V274.072C101.478 272.088 100.742 271.032 99.1098 271.032C98.0378 271.032 97.2378 271.608 96.5018 272.344H96.4538L96.3418 271.224H95.2538V279Z" fill="#858585"/>
<path d="M21.6556 306.192C23.0156 306.192 24.0396 305.632 24.8716 304.672L24.1356 303.84C23.4636 304.576 22.7116 305.024 21.7036 305.024C19.7196 305.024 18.4556 303.36 18.4556 300.72C18.4556 298.112 19.7676 296.48 21.7516 296.48C22.6476 296.48 23.3356 296.88 23.8956 297.472L24.6156 296.608C24.0076 295.92 23.0156 295.312 21.7356 295.312C19.0636 295.312 17.0796 297.376 17.0796 300.752C17.0796 304.176 19.0316 306.192 21.6556 306.192ZM28.8478 306.192C29.8238 306.192 30.6878 305.68 31.4238 305.072H31.4718L31.5838 306H32.6718V301.232C32.6718 299.296 31.8718 298.032 29.9678 298.032C28.7198 298.032 27.6318 298.576 26.9118 299.04L27.4238 299.952C28.0318 299.536 28.8478 299.12 29.7438 299.12C31.0238 299.12 31.3438 300.08 31.3438 301.072C28.0318 301.44 26.5758 302.288 26.5758 303.984C26.5758 305.376 27.5518 306.192 28.8478 306.192ZM29.2318 305.136C28.4638 305.136 27.8558 304.768 27.8558 303.888C27.8558 302.896 28.7518 302.256 31.3438 301.936V304.096C30.5918 304.768 29.9838 305.136 29.2318 305.136ZM35.4738 306H36.7858V301.008C37.3138 299.696 38.0978 299.216 38.7538 299.216C39.0738 299.216 39.2498 299.264 39.5058 299.344L39.7618 298.192C39.5058 298.08 39.2658 298.032 38.9298 298.032C38.0498 298.032 37.2498 298.656 36.7218 299.632H36.6738L36.5618 298.224H35.4738V306ZM43.876 306.192C44.788 306.192 45.62 305.68 46.228 305.088H46.276L46.388 306H47.476V294.608H46.148V297.6L46.212 298.928C45.524 298.368 44.932 298.032 44.036 298.032C42.26 298.032 40.66 299.6 40.66 302.128C40.66 304.72 41.924 306.192 43.876 306.192ZM44.164 305.088C42.804 305.088 42.02 303.968 42.02 302.112C42.02 300.336 43.012 299.136 44.26 299.136C44.9 299.136 45.492 299.36 46.148 299.952V304.016C45.508 304.736 44.884 305.088 44.164 305.088ZM57.0492 306.192C59.2572 306.192 60.6172 304.864 60.6172 303.2C60.6172 301.648 59.6732 300.928 58.4572 300.4L56.9692 299.76C56.1372 299.408 55.2252 299.024 55.2252 298.016C55.2252 297.072 56.0092 296.48 57.1772 296.48C58.1532 296.48 58.9212 296.864 59.5612 297.472L60.2812 296.608C59.5292 295.84 58.4252 295.312 57.1772 295.312C55.2732 295.312 53.8812 296.496 53.8812 298.096C53.8812 299.632 55.0172 300.384 56.0092 300.8L57.5132 301.456C58.5052 301.904 59.2572 302.24 59.2572 303.312C59.2572 304.336 58.4412 305.024 57.0652 305.024C55.9772 305.024 54.9212 304.496 54.1692 303.712L53.3692 304.64C54.2812 305.584 55.5772 306.192 57.0492 306.192ZM65.9357 306.192C67.8397 306.192 69.5357 304.704 69.5357 302.128C69.5357 299.52 67.8397 298.032 65.9357 298.032C64.0317 298.032 62.3357 299.52 62.3357 302.128C62.3357 304.704 64.0317 306.192 65.9357 306.192ZM65.9357 305.104C64.6077 305.104 63.6957 303.904 63.6957 302.128C63.6957 300.336 64.6077 299.12 65.9357 299.12C67.2797 299.12 68.1757 300.336 68.1757 302.128C68.1757 303.904 67.2797 305.104 65.9357 305.104ZM71.9391 306H73.2511V301.008C73.7791 299.696 74.5631 299.216 75.2191 299.216C75.5391 299.216 75.7151 299.264 75.9711 299.344L76.2271 298.192C75.9711 298.08 75.7311 298.032 75.3951 298.032C74.5151 298.032 73.7151 298.656 73.1871 299.632H73.1391L73.0271 298.224H71.9391V306ZM80.2895 306.192C80.7695 306.192 81.2975 306.048 81.7295 305.904L81.4735 304.912C81.2175 305.008 80.8655 305.12 80.5935 305.12C79.6975 305.12 79.3935 304.576 79.3935 303.616V299.296H81.4895V298.224H79.3935V296.048H78.2895L78.1295 298.224L76.9135 298.304V299.296H78.0655V303.6C78.0655 305.136 78.6255 306.192 80.2895 306.192ZM83.6033 306H84.9153V298.224H83.6033V306ZM84.2753 296.624C84.7873 296.624 85.1873 296.272 85.1873 295.776C85.1873 295.264 84.7873 294.928 84.2753 294.928C83.7633 294.928 83.3633 295.264 83.3633 295.776C83.3633 296.272 83.7633 296.624 84.2753 296.624ZM87.8964 306H89.2084V300.368C89.9924 299.584 90.5364 299.168 91.3364 299.168C92.3604 299.168 92.8084 299.792 92.8084 301.248V306H94.1204V301.072C94.1204 299.088 93.3844 298.032 91.7524 298.032C90.6804 298.032 89.8804 298.608 89.1444 299.344H89.0964L88.9844 298.224H87.8964V306ZM99.6259 309.584C102.042 309.584 103.562 308.336 103.562 306.896C103.562 305.6 102.65 305.04 100.842 305.04H99.3379C98.2819 305.04 97.9619 304.688 97.9619 304.192C97.9619 303.76 98.1859 303.504 98.4579 303.264C98.8099 303.44 99.2419 303.536 99.6259 303.536C101.21 303.536 102.474 302.496 102.474 300.832C102.474 300.176 102.202 299.584 101.834 299.232H103.434V298.224H100.73C100.442 298.112 100.058 298.032 99.6259 298.032C98.0419 298.032 96.6979 299.104 96.6979 300.8C96.6979 301.728 97.1939 302.48 97.7059 302.896V302.96C97.3059 303.232 96.8579 303.744 96.8579 304.4C96.8579 305.008 97.1619 305.424 97.5459 305.664V305.728C96.8419 306.208 96.4099 306.832 96.4099 307.488C96.4099 308.832 97.7219 309.584 99.6259 309.584ZM99.6259 302.656C98.7299 302.656 97.9779 301.936 97.9779 300.8C97.9779 299.664 98.7139 298.992 99.6259 298.992C100.538 298.992 101.274 299.664 101.274 300.8C101.274 301.936 100.522 302.656 99.6259 302.656ZM99.8179 308.672C98.4099 308.672 97.5619 308.144 97.5619 307.312C97.5619 306.864 97.8019 306.4 98.3619 306C98.6979 306.096 99.0659 306.128 99.3699 306.128H100.714C101.722 306.128 102.282 306.368 102.282 307.088C102.282 307.904 101.306 308.672 99.8179 308.672Z" fill="#858585"/>
<path d="M4.78114 253H10.9891V251.864H6.10914V248.056H10.0931V246.92H6.10914V243.624H10.8291V242.504H4.78114V253ZM11.8582 253H13.2342L14.2902 251.192C14.5462 250.712 14.8022 250.248 15.0742 249.8H15.1382C15.4262 250.248 15.7142 250.728 15.9862 251.192L17.1222 253H18.5462L16.0182 249.08L18.3702 245.224H16.9942L16.0502 246.936C15.8102 247.352 15.5702 247.8 15.3462 248.232H15.2822C15.0102 247.8 14.7542 247.352 14.5142 246.936L13.4742 245.224H12.0502L14.4022 248.936L11.8582 253ZM20.4424 256.28H21.7544V253.656L21.7224 252.296C22.4424 252.856 23.1624 253.192 23.8824 253.192C25.6584 253.192 27.2424 251.64 27.2424 249C27.2424 246.584 26.1704 245.032 24.1704 245.032C23.2584 245.032 22.3944 245.528 21.6904 246.12H21.6424L21.5304 245.224H20.4424V256.28ZM23.6584 252.088C23.1464 252.088 22.4584 251.864 21.7544 251.272V247.192C22.5224 246.504 23.1784 246.136 23.8344 246.136C25.3064 246.136 25.8824 247.288 25.8824 249C25.8824 250.92 24.9384 252.088 23.6584 252.088ZM32.8249 253.192C33.8809 253.192 34.7129 252.824 35.3849 252.392L34.9209 251.528C34.3449 251.896 33.7209 252.136 32.9849 252.136C31.4969 252.136 30.4889 251.08 30.3929 249.432H35.6409C35.6729 249.24 35.6889 248.952 35.6889 248.68C35.6889 246.456 34.5689 245.032 32.5849 245.032C30.8089 245.032 29.0969 246.584 29.0969 249.128C29.0969 251.672 30.7449 253.192 32.8249 253.192ZM30.3769 248.488C30.5369 246.952 31.5289 246.072 32.6169 246.072C33.8329 246.072 34.5369 246.92 34.5369 248.488H30.3769ZM37.966 253H39.278V248.008C39.806 246.696 40.59 246.216 41.246 246.216C41.566 246.216 41.742 246.264 41.998 246.344L42.254 245.192C41.998 245.08 41.758 245.032 41.422 245.032C40.542 245.032 39.742 245.656 39.214 246.632H39.166L39.054 245.224H37.966V253ZM46.3164 253.192C46.7964 253.192 47.3244 253.048 47.7564 252.904L47.5004 251.912C47.2444 252.008 46.8924 252.12 46.6204 252.12C45.7244 252.12 45.4204 251.576 45.4204 250.616V246.296H47.5164V245.224H45.4204V243.048H44.3164L44.1564 245.224L42.9404 245.304V246.296H44.0924V250.6C44.0924 252.136 44.6524 253.192 46.3164 253.192ZM53.3169 253H54.6449V242.504H53.3169V253ZM57.7476 253H59.0596V247.368C59.8436 246.584 60.3876 246.168 61.1876 246.168C62.2116 246.168 62.6596 246.792 62.6596 248.248V253H63.9716V248.072C63.9716 246.088 63.2356 245.032 61.6036 245.032C60.5316 245.032 59.7316 245.608 58.9956 246.344H58.9476L58.8356 245.224H57.7476V253ZM69.3011 253.192C69.7811 253.192 70.3091 253.048 70.7411 252.904L70.4851 251.912C70.2291 252.008 69.8771 252.12 69.6051 252.12C68.7091 252.12 68.4051 251.576 68.4051 250.616V246.296H70.5011V245.224H68.4051V243.048H67.3011L67.1411 245.224L65.9251 245.304V246.296H67.0771V250.6C67.0771 252.136 67.6371 253.192 69.3011 253.192ZM75.5482 253.192C76.6042 253.192 77.4362 252.824 78.1082 252.392L77.6442 251.528C77.0682 251.896 76.4442 252.136 75.7082 252.136C74.2202 252.136 73.2122 251.08 73.1162 249.432H78.3642C78.3962 249.24 78.4122 248.952 78.4122 248.68C78.4122 246.456 77.2922 245.032 75.3082 245.032C73.5322 245.032 71.8202 246.584 71.8202 249.128C71.8202 251.672 73.4682 253.192 75.5482 253.192ZM73.1002 248.488C73.2602 246.952 74.2522 246.072 75.3402 246.072C76.5562 246.072 77.2602 246.92 77.2602 248.488H73.1002ZM80.6893 253H82.0013V248.008C82.5293 246.696 83.3133 246.216 83.9693 246.216C84.2893 246.216 84.4653 246.264 84.7213 246.344L84.9773 245.192C84.7213 245.08 84.4813 245.032 84.1453 245.032C83.2653 245.032 82.4653 245.656 81.9373 246.632H81.8893L81.7773 245.224H80.6893V253ZM88.6779 253H90.2139L92.9659 245.224H91.6699L90.1979 249.64C89.9739 250.408 89.7179 251.192 89.4939 251.928H89.4299C89.1899 251.192 88.9339 250.408 88.7099 249.64L87.2379 245.224H85.8779L88.6779 253ZM94.8222 253H96.1342V245.224H94.8222V253ZM95.4942 243.624C96.0062 243.624 96.4062 243.272 96.4062 242.776C96.4062 242.264 96.0062 241.928 95.4942 241.928C94.9822 241.928 94.5822 242.264 94.5822 242.776C94.5822 243.272 94.9822 243.624 95.4942 243.624ZM102.267 253.192C103.323 253.192 104.155 252.824 104.827 252.392L104.363 251.528C103.787 251.896 103.163 252.136 102.427 252.136C100.939 252.136 99.9313 251.08 99.8353 249.432H105.083C105.115 249.24 105.131 248.952 105.131 248.68C105.131 246.456 104.011 245.032 102.027 245.032C100.251 245.032 98.5393 246.584 98.5393 249.128C98.5393 251.672 100.187 253.192 102.267 253.192ZM99.8193 248.488C99.9793 246.952 100.971 246.072 102.059 246.072C103.275 246.072 103.979 246.92 103.979 248.488H99.8193ZM108.718 253H110.254L111.342 248.84C111.55 248.104 111.71 247.368 111.886 246.584H111.95C112.142 247.368 112.286 248.088 112.478 248.824L113.598 253H115.198L117.278 245.224H116.03L114.894 249.72C114.734 250.456 114.59 251.16 114.414 251.88H114.35C114.174 251.16 113.998 250.456 113.806 249.72L112.59 245.224H111.31L110.11 249.72C109.918 250.44 109.758 251.16 109.582 251.88H109.518C109.374 251.16 109.23 250.456 109.054 249.72L107.902 245.224H106.558L108.718 253Z" fill="#858585"/>
<defs>
<clipPath id="clip0">
<rect width="113" height="89" fill="white" transform="translate(578 30)"/>
</clipPath>
</defs>
</svg>
