<svg width="1118" height="306" viewBox="0 0 1118 306" fill="none" xmlns="http://www.w3.org/2000/svg">
<g clip-path="url(#clip0)">
<path d="M519.868 59.8677L528.868 42.1324L541.868 56.1854" stroke="#51BAA1" stroke-opacity="0.263467" stroke-width="5" stroke-linecap="round" stroke-linejoin="round"/>
<path d="M424.868 45.1323L415.868 62.8676L402.868 48.8146" stroke="#51BAA1" stroke-opacity="0.263467" stroke-width="5" stroke-linecap="round" stroke-linejoin="round"/>
<path fill-rule="evenodd" clip-rule="evenodd" d="M472.5 115C504.256 115 530 89.2564 530 57.5C530 25.7436 504.256 0 472.5 0C440.744 0 415 25.7436 415 57.5C415 89.2564 440.744 115 472.5 115Z" stroke="#51BAA1" stroke-opacity="0.263467" stroke-width="7"/>
<g clip-path="url(#clip1)">
<path fill-rule="evenodd" clip-rule="evenodd" d="M634.5 115C659.077 115 679 95.0767 679 70.5C679 45.9233 659.077 26 634.5 26C609.923 26 590 45.9233 590 70.5C590 95.0767 609.923 115 634.5 115Z" stroke="#51BAA1" stroke-opacity="0.263467" stroke-width="7"/>
<path d="M665.464 76.8214L678.223 61.5652L687.728 78.1825" stroke="#51BAA1" stroke-opacity="0.263467" stroke-width="5" stroke-linecap="round" stroke-linejoin="round"/>
<path d="M600.868 62.1323L591.868 79.8676L578.868 65.8146" stroke="#51BAA1" stroke-opacity="0.263467" stroke-width="5" stroke-linecap="round" stroke-linejoin="round"/>
<path d="M640.431 58.692C640.431 59.4013 640.291 60.0827 640.011 60.736C639.731 61.3893 639.367 62.024 638.919 62.64C638.471 63.2373 637.967 63.816 637.407 64.376C636.847 64.936 636.296 65.468 635.755 65.972C635.475 66.2333 635.167 66.532 634.831 66.868C634.514 67.1853 634.206 67.512 633.907 67.848C633.608 68.184 633.338 68.5013 633.095 68.8C632.871 69.08 632.731 69.3133 632.675 69.5H641.019V73H628.083C628.046 72.7947 628.027 72.5333 628.027 72.216C628.027 71.8987 628.027 71.6747 628.027 71.544C628.027 70.648 628.167 69.8267 628.447 69.08C628.746 68.3333 629.128 67.6427 629.595 67.008C630.062 66.3547 630.584 65.748 631.163 65.188C631.76 64.628 632.348 64.068 632.927 63.508C633.375 63.0787 633.795 62.6773 634.187 62.304C634.579 61.912 634.924 61.5387 635.223 61.184C635.522 60.8107 635.755 60.4467 635.923 60.092C636.091 59.7187 636.175 59.3453 636.175 58.972C636.175 58.1507 635.942 57.572 635.475 57.236C635.008 56.9 634.43 56.732 633.739 56.732C633.235 56.732 632.759 56.816 632.311 56.984C631.882 57.1333 631.48 57.32 631.107 57.544C630.752 57.7493 630.444 57.964 630.183 58.188C629.922 58.3933 629.726 58.5613 629.595 58.692L627.523 55.78C628.344 55.0147 629.296 54.3893 630.379 53.904C631.48 53.4 632.656 53.148 633.907 53.148C635.046 53.148 636.026 53.2787 636.847 53.54C637.668 53.8013 638.34 54.1747 638.863 54.66C639.404 55.1267 639.796 55.7053 640.039 56.396C640.3 57.068 640.431 57.8333 640.431 58.692Z" fill="#0F6C56"/>
<path d="M617.917 90H618.913V86.676H620.341L622.237 90H623.365L621.361 86.568C622.441 86.304 623.137 85.56 623.137 84.336C623.137 82.704 621.985 82.128 620.377 82.128H617.917V90ZM618.913 85.86V82.932H620.233C621.457 82.932 622.141 83.304 622.141 84.336C622.141 85.356 621.457 85.86 620.233 85.86H618.913ZM627.071 90.144C628.499 90.144 629.771 89.028 629.771 87.096C629.771 85.14 628.499 84.024 627.071 84.024C625.643 84.024 624.371 85.14 624.371 87.096C624.371 89.028 625.643 90.144 627.071 90.144ZM627.071 89.328C626.075 89.328 625.391 88.428 625.391 87.096C625.391 85.752 626.075 84.84 627.071 84.84C628.079 84.84 628.751 85.752 628.751 87.096C628.751 88.428 628.079 89.328 627.071 89.328ZM633.277 90.144C634.081 90.144 634.657 89.724 635.197 89.088H635.233L635.317 90H636.133V84.168H635.149V88.308C634.597 88.992 634.177 89.292 633.577 89.292C632.809 89.292 632.485 88.824 632.485 87.732V84.168H631.489V87.864C631.489 89.352 632.041 90.144 633.277 90.144ZM638.367 90H639.351V85.776C639.939 85.188 640.347 84.876 640.947 84.876C641.715 84.876 642.051 85.344 642.051 86.436V90H643.035V86.304C643.035 84.816 642.483 84.024 641.259 84.024C640.455 84.024 639.855 84.456 639.303 85.008H639.267L639.183 84.168H638.367V90ZM647.189 90.144C647.873 90.144 648.497 89.76 648.953 89.316H648.989L649.073 90H649.889V81.456H648.893V83.7L648.941 84.696C648.425 84.276 647.981 84.024 647.309 84.024C645.977 84.024 644.777 85.2 644.777 87.096C644.777 89.04 645.725 90.144 647.189 90.144ZM647.405 89.316C646.385 89.316 645.797 88.476 645.797 87.084C645.797 85.752 646.541 84.852 647.477 84.852C647.957 84.852 648.401 85.02 648.893 85.464V88.512C648.413 89.052 647.945 89.316 647.405 89.316ZM653.643 90.144C655.023 90.144 655.779 89.352 655.779 88.404C655.779 87.3 654.843 86.952 654.003 86.64C653.343 86.388 652.707 86.184 652.707 85.632C652.707 85.188 653.043 84.792 653.775 84.792C654.291 84.792 654.711 85.008 655.107 85.308L655.575 84.684C655.131 84.324 654.495 84.024 653.763 84.024C652.503 84.024 651.759 84.744 651.759 85.68C651.759 86.664 652.671 87.06 653.499 87.36C654.135 87.6 654.831 87.864 654.831 88.464C654.831 88.968 654.447 89.376 653.679 89.376C652.983 89.376 652.467 89.088 651.963 88.68L651.471 89.34C652.023 89.796 652.815 90.144 653.643 90.144Z" fill="#9D9D9D"/>
</g>
<path fill-rule="evenodd" clip-rule="evenodd" d="M396.5 125C401.194 125 405 121.194 405 116.5C405 111.806 401.194 108 396.5 108C391.806 108 388 111.806 388 116.5C388 121.194 391.806 125 396.5 125Z" fill="#51BAA1"/>
<path fill-rule="evenodd" clip-rule="evenodd" d="M228.5 125C233.194 125 237 121.194 237 116.5C237 111.806 233.194 108 228.5 108C223.806 108 220 111.806 220 116.5C220 121.194 223.806 125 228.5 125Z" fill="#51BAA1"/>
<path fill-rule="evenodd" clip-rule="evenodd" d="M61.5 125C66.1944 125 70 121.194 70 116.5C70 111.806 66.1944 108 61.5 108C56.8056 108 53 111.806 53 116.5C53 121.194 56.8056 125 61.5 125Z" fill="#51BAA1"/>
<path fill-rule="evenodd" clip-rule="evenodd" d="M563.5 125C568.194 125 572 121.194 572 116.5C572 111.806 568.194 108 563.5 108C558.806 108 555 111.806 555 116.5C555 121.194 558.806 125 563.5 125Z" fill="#51BAA1"/>
<path d="M19.0709 159H21.6229V153.368H23.8229L26.9249 159H29.7849L26.3529 152.994C28.0689 152.4 29.2129 151.08 29.2129 148.88C29.2129 145.668 26.9249 144.612 23.9329 144.612H19.0709V159ZM21.6229 151.344V146.658H23.6689C25.6269 146.658 26.7049 147.23 26.7049 148.88C26.7049 150.508 25.6269 151.344 23.6689 151.344H21.6229ZM36.7645 159.264C38.1285 159.264 39.4265 158.78 40.4605 158.098L39.6025 156.514C38.8105 157.02 38.0185 157.306 37.0945 157.306C35.3565 157.306 34.1245 156.206 33.9045 154.292H40.7685C40.8345 154.028 40.8785 153.544 40.8785 153.06C40.8785 150.046 39.3385 147.934 36.4125 147.934C33.8825 147.934 31.4405 150.09 31.4405 153.61C31.4405 157.174 33.7725 159.264 36.7645 159.264ZM33.8825 152.576C34.1025 150.838 35.2025 149.892 36.4785 149.892C37.9525 149.892 38.6785 150.904 38.6785 152.576H33.8825ZM46.7978 159.264C49.5258 159.264 50.9998 157.768 50.9998 155.92C50.9998 153.896 49.3718 153.192 47.8978 152.642C46.7318 152.224 45.6538 151.894 45.6538 151.036C45.6538 150.354 46.1598 149.848 47.2378 149.848C48.0958 149.848 48.8658 150.222 49.6138 150.772L50.7798 149.232C49.8998 148.55 48.6898 147.934 47.1938 147.934C44.7738 147.934 43.2558 149.276 43.2558 151.168C43.2558 152.972 44.8618 153.786 46.2918 154.314C47.4358 154.754 48.6018 155.15 48.6018 156.052C48.6018 156.8 48.0518 157.35 46.8858 157.35C45.7858 157.35 44.8618 156.888 43.8938 156.14L42.7058 157.768C43.7618 158.626 45.3238 159.264 46.7978 159.264ZM58.3673 159.264C59.7313 159.264 61.0293 158.78 62.0633 158.098L61.2053 156.514C60.4133 157.02 59.6213 157.306 58.6973 157.306C56.9593 157.306 55.7273 156.206 55.5073 154.292H62.3713C62.4373 154.028 62.4813 153.544 62.4813 153.06C62.4813 150.046 60.9413 147.934 58.0153 147.934C55.4853 147.934 53.0433 150.09 53.0433 153.61C53.0433 157.174 55.3753 159.264 58.3673 159.264ZM55.4853 152.576C55.7053 150.838 56.8053 149.892 58.0813 149.892C59.5553 149.892 60.2813 150.904 60.2813 152.576H55.4853ZM67.7468 159.264C69.0228 159.264 70.1228 158.626 71.0908 157.812H71.1788L71.3548 159H73.4448V152.598C73.4448 149.584 72.1028 147.934 69.4188 147.934C67.7028 147.934 66.1628 148.594 64.9748 149.342L65.8988 151.036C66.8668 150.464 67.8788 149.98 68.9348 149.98C70.4088 149.98 70.8708 150.948 70.9148 152.092C66.4708 152.576 64.5568 153.786 64.5568 156.096C64.5568 157.988 65.8548 159.264 67.7468 159.264ZM68.5608 157.284C67.6588 157.284 66.9988 156.866 66.9988 155.898C66.9988 154.82 67.9668 154.05 70.9148 153.676V156.096C70.1008 156.844 69.4408 157.284 68.5608 157.284ZM76.9614 159H79.4914V152.4C80.1514 150.772 81.1854 150.178 82.0434 150.178C82.5054 150.178 82.7914 150.244 83.1654 150.354L83.6054 148.154C83.2754 148 82.9234 147.934 82.3734 147.934C81.2294 147.934 80.0854 148.704 79.3154 150.112H79.2274L79.0514 148.198H76.9614V159ZM89.9525 159.264C91.1845 159.264 92.4605 158.824 93.4725 157.944L92.4385 156.272C91.8225 156.778 91.0525 157.196 90.2165 157.196C88.5225 157.196 87.3345 155.766 87.3345 153.61C87.3345 151.432 88.5445 150.002 90.2825 150.002C90.9645 150.002 91.5145 150.288 92.0865 150.794L93.3185 149.144C92.5265 148.462 91.5365 147.934 90.1505 147.934C87.2685 147.934 84.7385 150.002 84.7385 153.61C84.7385 157.196 87.0045 159.264 89.9525 159.264ZM96.0935 159H98.6235V151.454C99.5255 150.574 100.141 150.112 101.087 150.112C102.275 150.112 102.781 150.772 102.781 152.554V159H105.311V152.224C105.311 149.496 104.299 147.934 101.989 147.934C100.515 147.934 99.4375 148.704 98.5355 149.562L98.6235 147.472V143.468H96.0935V159Z" fill="#0F6C56"/>
<path d="M182.309 159H184.861V144.612H182.309V159ZM192.571 159.264C193.737 159.264 194.837 158.626 195.629 157.834H195.717L195.893 159H197.983V143.468H195.453V147.384L195.541 149.122C194.705 148.396 193.935 147.934 192.703 147.934C190.349 147.934 188.127 150.09 188.127 153.61C188.127 157.174 189.865 159.264 192.571 159.264ZM193.187 157.174C191.625 157.174 190.745 155.92 190.745 153.588C190.745 151.322 191.867 150.024 193.253 150.024C193.979 150.024 194.705 150.266 195.453 150.926V155.964C194.727 156.8 194.023 157.174 193.187 157.174ZM206.314 159.264C207.678 159.264 208.976 158.78 210.01 158.098L209.152 156.514C208.36 157.02 207.568 157.306 206.644 157.306C204.906 157.306 203.674 156.206 203.454 154.292H210.318C210.384 154.028 210.428 153.544 210.428 153.06C210.428 150.046 208.888 147.934 205.962 147.934C203.432 147.934 200.99 150.09 200.99 153.61C200.99 157.174 203.322 159.264 206.314 159.264ZM203.432 152.576C203.652 150.838 204.752 149.892 206.028 149.892C207.502 149.892 208.228 150.904 208.228 152.576H203.432ZM215.693 159.264C216.969 159.264 218.069 158.626 219.037 157.812H219.125L219.301 159H221.391V152.598C221.391 149.584 220.049 147.934 217.365 147.934C215.649 147.934 214.109 148.594 212.921 149.342L213.845 151.036C214.813 150.464 215.825 149.98 216.881 149.98C218.355 149.98 218.817 150.948 218.861 152.092C214.417 152.576 212.503 153.786 212.503 156.096C212.503 157.988 213.801 159.264 215.693 159.264ZM216.507 157.284C215.605 157.284 214.945 156.866 214.945 155.898C214.945 154.82 215.913 154.05 218.861 153.676V156.096C218.047 156.844 217.387 157.284 216.507 157.284ZM228.37 159.264C229.228 159.264 229.976 159.066 230.57 158.868L230.13 156.998C229.822 157.13 229.382 157.24 229.008 157.24C227.974 157.24 227.49 156.624 227.49 155.348V150.2H230.24V148.198H227.49V145.25H225.378L225.07 148.198L223.398 148.308V150.2H224.938V155.348C224.938 157.68 225.862 159.264 228.37 159.264ZM233.002 159H235.532V148.198H233.002V159ZM234.278 146.306C235.18 146.306 235.84 145.712 235.84 144.876C235.84 144.018 235.18 143.424 234.278 143.424C233.376 143.424 232.716 144.018 232.716 144.876C232.716 145.712 233.376 146.306 234.278 146.306ZM243.671 159.264C246.377 159.264 248.819 157.196 248.819 153.61C248.819 150.002 246.377 147.934 243.671 147.934C240.987 147.934 238.545 150.002 238.545 153.61C238.545 157.196 240.987 159.264 243.671 159.264ZM243.671 157.196C242.087 157.196 241.141 155.766 241.141 153.61C241.141 151.432 242.087 150.002 243.671 150.002C245.255 150.002 246.223 151.432 246.223 153.61C246.223 155.766 245.255 157.196 243.671 157.196ZM251.812 159H254.342V151.454C255.244 150.574 255.86 150.112 256.806 150.112C257.994 150.112 258.5 150.772 258.5 152.554V159H261.03V152.224C261.03 149.496 260.018 147.934 257.708 147.934C256.234 147.934 255.134 148.704 254.166 149.65H254.078L253.902 148.198H251.812V159Z" fill="#0F6C56"/>
<path d="M337.221 159H339.773V153.72H341.841C344.943 153.72 347.319 152.246 347.319 149.056C347.319 145.712 344.943 144.612 341.753 144.612H337.221V159ZM339.773 151.674V146.658H341.555C343.689 146.658 344.811 147.252 344.811 149.056C344.811 150.816 343.777 151.674 341.643 151.674H339.773ZM350.295 159H352.825V152.4C353.485 150.772 354.519 150.178 355.377 150.178C355.839 150.178 356.125 150.244 356.499 150.354L356.939 148.154C356.609 148 356.257 147.934 355.707 147.934C354.563 147.934 353.419 148.704 352.649 150.112H352.561L352.385 148.198H350.295V159ZM363.198 159.264C365.904 159.264 368.346 157.196 368.346 153.61C368.346 150.002 365.904 147.934 363.198 147.934C360.514 147.934 358.072 150.002 358.072 153.61C358.072 157.196 360.514 159.264 363.198 159.264ZM363.198 157.196C361.614 157.196 360.668 155.766 360.668 153.61C360.668 151.432 361.614 150.002 363.198 150.002C364.782 150.002 365.75 151.432 365.75 153.61C365.75 155.766 364.782 157.196 363.198 157.196ZM374.651 159.264C375.509 159.264 376.257 159.066 376.851 158.868L376.411 156.998C376.103 157.13 375.663 157.24 375.289 157.24C374.255 157.24 373.771 156.624 373.771 155.348V150.2H376.521V148.198H373.771V145.25H371.659L371.351 148.198L369.679 148.308V150.2H371.219V155.348C371.219 157.68 372.143 159.264 374.651 159.264ZM383.361 159.264C386.067 159.264 388.509 157.196 388.509 153.61C388.509 150.002 386.067 147.934 383.361 147.934C380.677 147.934 378.235 150.002 378.235 153.61C378.235 157.196 380.677 159.264 383.361 159.264ZM383.361 157.196C381.777 157.196 380.831 155.766 380.831 153.61C380.831 151.432 381.777 150.002 383.361 150.002C384.945 150.002 385.913 151.432 385.913 153.61C385.913 155.766 384.945 157.196 383.361 157.196ZM394.814 159.264C395.672 159.264 396.42 159.066 397.014 158.868L396.574 156.998C396.266 157.13 395.826 157.24 395.452 157.24C394.418 157.24 393.934 156.624 393.934 155.348V150.2H396.684V148.198H393.934V145.25H391.822L391.514 148.198L389.842 148.308V150.2H391.382V155.348C391.382 157.68 392.306 159.264 394.814 159.264ZM400.172 163.444C402.526 163.444 403.648 161.926 404.55 159.484L408.466 148.198H406.024L404.396 153.5C404.132 154.468 403.846 155.546 403.582 156.536H403.494C403.164 155.524 402.856 154.446 402.548 153.5L400.678 148.198H398.104L402.35 158.868L402.152 159.55C401.8 160.628 401.14 161.398 399.996 161.398C399.732 161.398 399.424 161.31 399.226 161.244L398.764 163.224C399.16 163.356 399.578 163.444 400.172 163.444ZM410.828 163.268H413.358V159.88L413.292 158.076C414.172 158.824 415.118 159.264 416.064 159.264C418.462 159.264 420.684 157.13 420.684 153.434C420.684 150.09 419.122 147.934 416.438 147.934C415.25 147.934 414.084 148.572 413.182 149.342H413.094L412.918 148.198H410.828V163.268ZM415.536 157.174C414.898 157.174 414.15 156.932 413.358 156.272V151.234C414.194 150.42 414.942 150.024 415.734 150.024C417.362 150.024 418.066 151.3 418.066 153.456C418.066 155.898 416.966 157.174 415.536 157.174ZM423.735 159H426.265V148.198H423.735V159ZM425.011 146.306C425.913 146.306 426.573 145.712 426.573 144.876C426.573 144.018 425.913 143.424 425.011 143.424C424.109 143.424 423.449 144.018 423.449 144.876C423.449 145.712 424.109 146.306 425.011 146.306ZM429.981 159H432.511V151.454C433.413 150.574 434.029 150.112 434.975 150.112C436.163 150.112 436.669 150.772 436.669 152.554V159H439.199V152.224C439.199 149.496 438.187 147.934 435.877 147.934C434.403 147.934 433.303 148.704 432.335 149.65H432.247L432.071 148.198H429.981V159ZM446.543 163.774C450.063 163.774 452.307 162.102 452.307 159.968C452.307 158.098 450.943 157.306 448.347 157.306H446.433C445.113 157.306 444.673 156.932 444.673 156.316C444.673 155.832 444.871 155.568 445.201 155.282C445.685 155.48 446.213 155.568 446.675 155.568C448.963 155.568 450.767 154.292 450.767 151.894C450.767 151.146 450.503 150.486 450.151 150.068H452.131V148.198H448.259C447.819 148.044 447.269 147.934 446.675 147.934C444.409 147.934 442.407 149.32 442.407 151.806C442.407 153.082 443.089 154.116 443.815 154.666V154.754C443.199 155.194 442.627 155.92 442.627 156.756C442.627 157.636 443.045 158.208 443.595 158.56V158.648C442.605 159.264 442.055 160.056 442.055 160.958C442.055 162.85 443.969 163.774 446.543 163.774ZM446.675 153.984C445.619 153.984 444.783 153.192 444.783 151.806C444.783 150.442 445.619 149.672 446.675 149.672C447.731 149.672 448.545 150.464 448.545 151.806C448.545 153.192 447.709 153.984 446.675 153.984ZM446.939 162.124C445.223 162.124 444.167 161.552 444.167 160.584C444.167 160.078 444.431 159.594 445.003 159.154C445.421 159.264 445.883 159.308 446.477 159.308H447.951C449.183 159.308 449.865 159.55 449.865 160.386C449.865 161.31 448.677 162.124 446.939 162.124Z" fill="#0F6C56"/>
<path d="M530.221 159H532.773V146.768H536.931V144.612H526.063V146.768H530.221V159ZM542.648 159.264C544.012 159.264 545.31 158.78 546.344 158.098L545.486 156.514C544.694 157.02 543.902 157.306 542.978 157.306C541.24 157.306 540.008 156.206 539.788 154.292H546.652C546.718 154.028 546.762 153.544 546.762 153.06C546.762 150.046 545.222 147.934 542.296 147.934C539.766 147.934 537.324 150.09 537.324 153.61C537.324 157.174 539.656 159.264 542.648 159.264ZM539.766 152.576C539.986 150.838 541.086 149.892 542.362 149.892C543.836 149.892 544.562 150.904 544.562 152.576H539.766ZM552.681 159.264C555.409 159.264 556.883 157.768 556.883 155.92C556.883 153.896 555.255 153.192 553.781 152.642C552.615 152.224 551.537 151.894 551.537 151.036C551.537 150.354 552.043 149.848 553.121 149.848C553.979 149.848 554.749 150.222 555.497 150.772L556.663 149.232C555.783 148.55 554.573 147.934 553.077 147.934C550.657 147.934 549.139 149.276 549.139 151.168C549.139 152.972 550.745 153.786 552.175 154.314C553.319 154.754 554.485 155.15 554.485 156.052C554.485 156.8 553.935 157.35 552.769 157.35C551.669 157.35 550.745 156.888 549.777 156.14L548.589 157.768C549.645 158.626 551.207 159.264 552.681 159.264ZM563.007 159.264C563.865 159.264 564.613 159.066 565.207 158.868L564.767 156.998C564.459 157.13 564.019 157.24 563.645 157.24C562.611 157.24 562.127 156.624 562.127 155.348V150.2H564.877V148.198H562.127V145.25H560.015L559.707 148.198L558.035 148.308V150.2H559.575V155.348C559.575 157.68 560.499 159.264 563.007 159.264ZM567.639 159H570.169V148.198H567.639V159ZM568.915 146.306C569.817 146.306 570.477 145.712 570.477 144.876C570.477 144.018 569.817 143.424 568.915 143.424C568.013 143.424 567.353 144.018 567.353 144.876C567.353 145.712 568.013 146.306 568.915 146.306ZM573.886 159H576.416V151.454C577.318 150.574 577.934 150.112 578.88 150.112C580.068 150.112 580.574 150.772 580.574 152.554V159H583.104V152.224C583.104 149.496 582.092 147.934 579.782 147.934C578.308 147.934 577.208 148.704 576.24 149.65H576.152L575.976 148.198H573.886V159ZM590.447 163.774C593.967 163.774 596.211 162.102 596.211 159.968C596.211 158.098 594.847 157.306 592.251 157.306H590.337C589.017 157.306 588.577 156.932 588.577 156.316C588.577 155.832 588.775 155.568 589.105 155.282C589.589 155.48 590.117 155.568 590.579 155.568C592.867 155.568 594.671 154.292 594.671 151.894C594.671 151.146 594.407 150.486 594.055 150.068H596.035V148.198H592.163C591.723 148.044 591.173 147.934 590.579 147.934C588.313 147.934 586.311 149.32 586.311 151.806C586.311 153.082 586.993 154.116 587.719 154.666V154.754C587.103 155.194 586.531 155.92 586.531 156.756C586.531 157.636 586.949 158.208 587.499 158.56V158.648C586.509 159.264 585.959 160.056 585.959 160.958C585.959 162.85 587.873 163.774 590.447 163.774ZM590.579 153.984C589.523 153.984 588.687 153.192 588.687 151.806C588.687 150.442 589.523 149.672 590.579 149.672C591.635 149.672 592.449 150.464 592.449 151.806C592.449 153.192 591.613 153.984 590.579 153.984ZM590.843 162.124C589.127 162.124 588.071 161.552 588.071 160.584C588.071 160.078 588.335 159.594 588.907 159.154C589.325 159.264 589.787 159.308 590.381 159.308H591.855C593.087 159.308 593.769 159.55 593.769 160.386C593.769 161.31 592.581 162.124 590.843 162.124Z" fill="#0F6C56"/>
<path d="M670.266 159H674.248C678.516 159 681.112 156.514 681.112 151.74C681.112 146.988 678.516 144.612 674.116 144.612H670.266V159ZM672.818 156.932V146.68H673.94C676.844 146.68 678.494 148.22 678.494 151.74C678.494 155.282 676.844 156.932 673.94 156.932H672.818ZM688.905 159.264C690.269 159.264 691.567 158.78 692.601 158.098L691.743 156.514C690.951 157.02 690.159 157.306 689.235 157.306C687.497 157.306 686.265 156.206 686.045 154.292H692.909C692.975 154.028 693.019 153.544 693.019 153.06C693.019 150.046 691.479 147.934 688.553 147.934C686.023 147.934 683.581 150.09 683.581 153.61C683.581 157.174 685.913 159.264 688.905 159.264ZM686.023 152.576C686.243 150.838 687.343 149.892 688.619 149.892C690.093 149.892 690.819 150.904 690.819 152.576H686.023ZM698.344 159H701.27L704.944 148.198H702.502L700.786 153.808C700.478 154.864 700.17 155.964 699.862 157.064H699.774C699.488 155.964 699.158 154.864 698.872 153.808L697.156 148.198H694.582L698.344 159ZM711.797 159.264C713.161 159.264 714.459 158.78 715.493 158.098L714.635 156.514C713.843 157.02 713.051 157.306 712.127 157.306C710.389 157.306 709.157 156.206 708.937 154.292H715.801C715.867 154.028 715.911 153.544 715.911 153.06C715.911 150.046 714.371 147.934 711.445 147.934C708.915 147.934 706.473 150.09 706.473 153.61C706.473 157.174 708.805 159.264 711.797 159.264ZM708.915 152.576C709.135 150.838 710.235 149.892 711.511 149.892C712.985 149.892 713.711 150.904 713.711 152.576H708.915ZM721.28 159.264C721.874 159.264 722.314 159.176 722.622 159.044L722.292 157.152C722.094 157.196 722.006 157.196 721.896 157.196C721.632 157.196 721.346 156.976 721.346 156.36V143.468H718.816V156.228C718.816 158.098 719.476 159.264 721.28 159.264ZM729.7 159.264C732.406 159.264 734.848 157.196 734.848 153.61C734.848 150.002 732.406 147.934 729.7 147.934C727.016 147.934 724.574 150.002 724.574 153.61C724.574 157.196 727.016 159.264 729.7 159.264ZM729.7 157.196C728.116 157.196 727.17 155.766 727.17 153.61C727.17 151.432 728.116 150.002 729.7 150.002C731.284 150.002 732.252 151.432 732.252 153.61C732.252 155.766 731.284 157.196 729.7 157.196ZM737.841 163.268H740.371V159.88L740.305 158.076C741.185 158.824 742.131 159.264 743.077 159.264C745.475 159.264 747.697 157.13 747.697 153.434C747.697 150.09 746.135 147.934 743.451 147.934C742.263 147.934 741.097 148.572 740.195 149.342H740.107L739.931 148.198H737.841V163.268ZM742.549 157.174C741.911 157.174 741.163 156.932 740.371 156.272V151.234C741.207 150.42 741.955 150.024 742.747 150.024C744.375 150.024 745.079 151.3 745.079 153.456C745.079 155.898 743.979 157.174 742.549 157.174ZM750.748 159H753.278V151.454C754.114 150.552 754.884 150.112 755.544 150.112C756.688 150.112 757.216 150.772 757.216 152.554V159H759.746V151.454C760.582 150.552 761.33 150.112 762.012 150.112C763.134 150.112 763.662 150.772 763.662 152.554V159H766.214V152.224C766.214 149.496 765.158 147.934 762.87 147.934C761.506 147.934 760.428 148.77 759.394 149.87C758.888 148.66 757.986 147.934 756.402 147.934C755.06 147.934 754.004 148.704 753.102 149.672H753.014L752.838 148.198H750.748V159ZM774.398 159.264C775.762 159.264 777.06 158.78 778.094 158.098L777.236 156.514C776.444 157.02 775.652 157.306 774.728 157.306C772.99 157.306 771.758 156.206 771.538 154.292H778.402C778.468 154.028 778.512 153.544 778.512 153.06C778.512 150.046 776.972 147.934 774.046 147.934C771.516 147.934 769.074 150.09 769.074 153.61C769.074 157.174 771.406 159.264 774.398 159.264ZM771.516 152.576C771.736 150.838 772.836 149.892 774.112 149.892C775.586 149.892 776.312 150.904 776.312 152.576H771.516ZM781.417 159H783.947V151.454C784.849 150.574 785.465 150.112 786.411 150.112C787.599 150.112 788.105 150.772 788.105 152.554V159H790.635V152.224C790.635 149.496 789.623 147.934 787.313 147.934C785.839 147.934 784.739 148.704 783.771 149.65H783.683L783.507 148.198H781.417V159ZM798.022 159.264C798.88 159.264 799.628 159.066 800.222 158.868L799.782 156.998C799.474 157.13 799.034 157.24 798.66 157.24C797.626 157.24 797.142 156.624 797.142 155.348V150.2H799.892V148.198H797.142V145.25H795.03L794.722 148.198L793.05 148.308V150.2H794.59V155.348C794.59 157.68 795.514 159.264 798.022 159.264Z" fill="#0F6C56"/>
<path d="M874.063 159H876.615V144.612H874.063V159ZM880.541 159H883.071V151.454C883.973 150.574 884.589 150.112 885.535 150.112C886.723 150.112 887.229 150.772 887.229 152.554V159H889.759V152.224C889.759 149.496 888.747 147.934 886.437 147.934C884.963 147.934 883.863 148.704 882.895 149.65H882.807L882.631 148.198H880.541V159ZM892.659 154.38H897.895V152.532H892.659V154.38ZM903.305 159H906.319L910.785 144.612H908.167L906.165 151.85C905.725 153.478 905.395 154.886 904.911 156.536H904.823C904.339 154.886 904.009 153.478 903.547 151.85L901.523 144.612H898.817L903.305 159ZM912.795 159H915.325V148.198H912.795V159ZM914.071 146.306C914.973 146.306 915.633 145.712 915.633 144.876C915.633 144.018 914.973 143.424 914.071 143.424C913.169 143.424 912.509 144.018 912.509 144.876C912.509 145.712 913.169 146.306 914.071 146.306ZM921.462 159H924.388L928.062 148.198H925.62L923.904 153.808C923.596 154.864 923.288 155.964 922.98 157.064H922.892C922.606 155.964 922.276 154.864 921.99 153.808L920.274 148.198H917.7L921.462 159ZM934.716 159.264C937.422 159.264 939.864 157.196 939.864 153.61C939.864 150.002 937.422 147.934 934.716 147.934C932.032 147.934 929.59 150.002 929.59 153.61C929.59 157.196 932.032 159.264 934.716 159.264ZM934.716 157.196C933.132 157.196 932.186 155.766 932.186 153.61C932.186 151.432 933.132 150.002 934.716 150.002C936.3 150.002 937.268 151.432 937.268 153.61C937.268 155.766 936.3 157.196 934.716 157.196Z" fill="#0F6C56"/>
<path d="M1013.27 159H1022.15V156.844H1015.82V152.598H1020.99V150.442H1015.82V146.768H1021.93V144.612H1013.27V159ZM1027.58 159H1030.5L1034.18 148.198H1031.74L1030.02 153.808C1029.71 154.864 1029.4 155.964 1029.1 157.064H1029.01C1028.72 155.964 1028.39 154.864 1028.11 153.808L1026.39 148.198H1023.82L1027.58 159ZM1038.73 159.264C1040 159.264 1041.1 158.626 1042.07 157.812H1042.16L1042.34 159H1044.43V152.598C1044.43 149.584 1043.08 147.934 1040.4 147.934C1038.68 147.934 1037.14 148.594 1035.96 149.342L1036.88 151.036C1037.85 150.464 1038.86 149.98 1039.92 149.98C1041.39 149.98 1041.85 150.948 1041.9 152.092C1037.45 152.576 1035.54 153.786 1035.54 156.096C1035.54 157.988 1036.84 159.264 1038.73 159.264ZM1039.54 157.284C1038.64 157.284 1037.98 156.866 1037.98 155.898C1037.98 154.82 1038.95 154.05 1041.9 153.676V156.096C1041.08 156.844 1040.42 157.284 1039.54 157.284ZM1050.41 159.264C1051 159.264 1051.44 159.176 1051.75 159.044L1051.42 157.152C1051.22 157.196 1051.13 157.196 1051.02 157.196C1050.76 157.196 1050.47 156.976 1050.47 156.36V143.468H1047.94V156.228C1047.94 158.098 1048.6 159.264 1050.41 159.264ZM1057.62 159.264C1059.09 159.264 1060.15 158.538 1061.09 157.416H1061.16L1061.36 159H1063.42V148.198H1060.89V155.59C1060.08 156.646 1059.44 157.086 1058.5 157.086C1057.33 157.086 1056.82 156.426 1056.82 154.644V148.198H1054.29V154.974C1054.29 157.702 1055.31 159.264 1057.62 159.264ZM1069.74 159.264C1071.01 159.264 1072.11 158.626 1073.08 157.812H1073.17L1073.34 159H1075.43V152.598C1075.43 149.584 1074.09 147.934 1071.41 147.934C1069.69 147.934 1068.15 148.594 1066.96 149.342L1067.89 151.036C1068.86 150.464 1069.87 149.98 1070.92 149.98C1072.4 149.98 1072.86 150.948 1072.9 152.092C1068.46 152.576 1066.55 153.786 1066.55 156.096C1066.55 157.988 1067.84 159.264 1069.74 159.264ZM1070.55 157.284C1069.65 157.284 1068.99 156.866 1068.99 155.898C1068.99 154.82 1069.96 154.05 1072.9 153.676V156.096C1072.09 156.844 1071.43 157.284 1070.55 157.284ZM1082.41 159.264C1083.27 159.264 1084.02 159.066 1084.61 158.868L1084.17 156.998C1083.86 157.13 1083.42 157.24 1083.05 157.24C1082.02 157.24 1081.53 156.624 1081.53 155.348V150.2H1084.28V148.198H1081.53V145.25H1079.42L1079.11 148.198L1077.44 148.308V150.2H1078.98V155.348C1078.98 157.68 1079.9 159.264 1082.41 159.264ZM1087.05 159H1089.58V148.198H1087.05V159ZM1088.32 146.306C1089.22 146.306 1089.88 145.712 1089.88 144.876C1089.88 144.018 1089.22 143.424 1088.32 143.424C1087.42 143.424 1086.76 144.018 1086.76 144.876C1086.76 145.712 1087.42 146.306 1088.32 146.306ZM1097.71 159.264C1100.42 159.264 1102.86 157.196 1102.86 153.61C1102.86 150.002 1100.42 147.934 1097.71 147.934C1095.03 147.934 1092.59 150.002 1092.59 153.61C1092.59 157.196 1095.03 159.264 1097.71 159.264ZM1097.71 157.196C1096.13 157.196 1095.18 155.766 1095.18 153.61C1095.18 151.432 1096.13 150.002 1097.71 150.002C1099.3 150.002 1100.27 151.432 1100.27 153.61C1100.27 155.766 1099.3 157.196 1097.71 157.196ZM1105.85 159H1108.38V151.454C1109.29 150.574 1109.9 150.112 1110.85 150.112C1112.04 150.112 1112.54 150.772 1112.54 152.554V159H1115.07V152.224C1115.07 149.496 1114.06 147.934 1111.75 147.934C1110.28 147.934 1109.18 148.704 1108.21 149.65H1108.12L1107.94 148.198H1105.85V159Z" fill="#0F6C56"/>
<path fill-rule="evenodd" clip-rule="evenodd" d="M730.5 125C735.194 125 739 121.194 739 116.5C739 111.806 735.194 108 730.5 108C725.806 108 722 111.806 722 116.5C722 121.194 725.806 125 730.5 125Z" fill="#51BAA1"/>
<path fill-rule="evenodd" clip-rule="evenodd" d="M898.5 125C903.194 125 907 121.194 907 116.5C907 111.806 903.194 108 898.5 108C893.806 108 890 111.806 890 116.5C890 121.194 893.806 125 898.5 125Z" fill="#51BAA1"/>
<path fill-rule="evenodd" clip-rule="evenodd" d="M1065.5 125C1070.19 125 1074 121.194 1074 116.5C1074 111.806 1070.19 108 1065.5 108C1060.81 108 1057 111.806 1057 116.5C1057 121.194 1060.81 125 1065.5 125Z" fill="#51BAA1"/>
<path d="M140.198 105.133L156.896 115.938L141.561 127.398" stroke="#51BAA1" stroke-opacity="0.263467" stroke-width="5" stroke-linecap="round" stroke-linejoin="round"/>
<path d="M306.198 105.133L322.896 115.938L307.561 127.398" stroke="#51BAA1" stroke-opacity="0.263467" stroke-width="5" stroke-linecap="round" stroke-linejoin="round"/>
<path d="M807.198 105.133L823.896 115.938L808.561 127.398" stroke="#51BAA1" stroke-opacity="0.263467" stroke-width="5" stroke-linecap="round" stroke-linejoin="round"/>
<path d="M976.198 105.133L992.896 115.938L977.561 127.398" stroke="#51BAA1" stroke-opacity="0.263467" stroke-width="5" stroke-linecap="round" stroke-linejoin="round"/>
<path d="M470.927 61.42C470.423 61.42 469.891 61.3827 469.331 61.308C468.771 61.252 468.23 61.168 467.707 61.056C467.184 60.944 466.708 60.8227 466.279 60.692C465.85 60.5613 465.514 60.44 465.271 60.328L466.083 56.856C466.568 57.0613 467.184 57.2853 467.931 57.528C468.696 57.752 469.639 57.864 470.759 57.864C472.047 57.864 472.99 57.6213 473.587 57.136C474.184 56.6507 474.483 55.9973 474.483 55.176C474.483 54.672 474.371 54.252 474.147 53.916C473.942 53.5613 473.652 53.2813 473.279 53.076C472.906 52.852 472.458 52.7027 471.935 52.628C471.431 52.5347 470.89 52.488 470.311 52.488H468.687V49.128H470.535C470.946 49.128 471.338 49.0907 471.711 49.016C472.103 48.9413 472.448 48.82 472.747 48.652C473.046 48.4653 473.279 48.2227 473.447 47.924C473.634 47.6067 473.727 47.2147 473.727 46.748C473.727 46.3933 473.652 46.0853 473.503 45.824C473.354 45.5627 473.158 45.348 472.915 45.18C472.691 45.012 472.42 44.8907 472.103 44.816C471.804 44.7227 471.496 44.676 471.179 44.676C470.376 44.676 469.63 44.7973 468.939 45.04C468.267 45.2827 467.651 45.5813 467.091 45.936L465.607 42.884C465.906 42.6973 466.251 42.5013 466.643 42.296C467.054 42.0907 467.502 41.904 467.987 41.736C468.472 41.568 468.986 41.428 469.527 41.316C470.087 41.204 470.675 41.148 471.291 41.148C472.43 41.148 473.41 41.288 474.231 41.568C475.071 41.8293 475.762 42.212 476.303 42.716C476.844 43.2013 477.246 43.78 477.507 44.452C477.768 45.1053 477.899 45.824 477.899 46.608C477.899 47.3733 477.684 48.12 477.255 48.848C476.826 49.5573 476.247 50.0987 475.519 50.472C476.527 50.8827 477.302 51.4987 477.843 52.32C478.403 53.1227 478.683 54.0933 478.683 55.232C478.683 56.128 478.534 56.9587 478.235 57.724C477.936 58.4707 477.47 59.124 476.835 59.684C476.2 60.2253 475.388 60.6547 474.399 60.972C473.428 61.2707 472.271 61.42 470.927 61.42Z" fill="#0F6C56"/>
<path d="M454.417 82H455.413V78.676H456.841L458.737 82H459.865L457.861 78.568C458.941 78.304 459.637 77.56 459.637 76.336C459.637 74.704 458.485 74.128 456.877 74.128H454.417V82ZM455.413 77.86V74.932H456.733C457.957 74.932 458.641 75.304 458.641 76.336C458.641 77.356 457.957 77.86 456.733 77.86H455.413ZM463.571 82.144C464.999 82.144 466.271 81.028 466.271 79.096C466.271 77.14 464.999 76.024 463.571 76.024C462.143 76.024 460.871 77.14 460.871 79.096C460.871 81.028 462.143 82.144 463.571 82.144ZM463.571 81.328C462.575 81.328 461.891 80.428 461.891 79.096C461.891 77.752 462.575 76.84 463.571 76.84C464.579 76.84 465.251 77.752 465.251 79.096C465.251 80.428 464.579 81.328 463.571 81.328ZM469.777 82.144C470.581 82.144 471.157 81.724 471.697 81.088H471.733L471.817 82H472.633V76.168H471.649V80.308C471.097 80.992 470.677 81.292 470.077 81.292C469.309 81.292 468.985 80.824 468.985 79.732V76.168H467.989V79.864C467.989 81.352 468.541 82.144 469.777 82.144ZM474.867 82H475.851V77.776C476.439 77.188 476.847 76.876 477.447 76.876C478.215 76.876 478.551 77.344 478.551 78.436V82H479.535V78.304C479.535 76.816 478.983 76.024 477.759 76.024C476.955 76.024 476.355 76.456 475.803 77.008H475.767L475.683 76.168H474.867V82ZM483.689 82.144C484.373 82.144 484.997 81.76 485.453 81.316H485.489L485.573 82H486.389V73.456H485.393V75.7L485.441 76.696C484.925 76.276 484.481 76.024 483.809 76.024C482.477 76.024 481.277 77.2 481.277 79.096C481.277 81.04 482.225 82.144 483.689 82.144ZM483.905 81.316C482.885 81.316 482.297 80.476 482.297 79.084C482.297 77.752 483.041 76.852 483.977 76.852C484.457 76.852 484.901 77.02 485.393 77.464V80.512C484.913 81.052 484.445 81.316 483.905 81.316ZM490.143 82.144C491.523 82.144 492.279 81.352 492.279 80.404C492.279 79.3 491.343 78.952 490.503 78.64C489.843 78.388 489.207 78.184 489.207 77.632C489.207 77.188 489.543 76.792 490.275 76.792C490.791 76.792 491.211 77.008 491.607 77.308L492.075 76.684C491.631 76.324 490.995 76.024 490.263 76.024C489.003 76.024 488.259 76.744 488.259 77.68C488.259 78.664 489.171 79.06 489.999 79.36C490.635 79.6 491.331 79.864 491.331 80.464C491.331 80.968 490.947 81.376 490.179 81.376C489.483 81.376 488.967 81.088 488.463 80.68L487.971 81.34C488.523 81.796 489.315 82.144 490.143 82.144Z" fill="#9D9D9D"/>
<path d="M10.5 116.5H1117.5" stroke="#51BAA1" stroke-opacity="0.263467" stroke-width="7"/>
</g>
<path d="M1.91587 197H7.83587V195.864H3.24387V186.504H1.91587V197ZM9.92467 197H11.2367V189.224H9.92467V197ZM10.5967 187.624C11.1087 187.624 11.5087 187.272 11.5087 186.776C11.5087 186.264 11.1087 185.928 10.5967 185.928C10.0847 185.928 9.68467 186.264 9.68467 186.776C9.68467 187.272 10.0847 187.624 10.5967 187.624ZM16.6657 197.192C17.1457 197.192 17.6737 197.048 18.1057 196.904L17.8497 195.912C17.5937 196.008 17.2417 196.12 16.9697 196.12C16.0737 196.12 15.7697 195.576 15.7697 194.616V190.296H17.8657V189.224H15.7697V187.048H14.6657L14.5057 189.224L13.2897 189.304V190.296H14.4417V194.6C14.4417 196.136 15.0017 197.192 16.6657 197.192ZM22.9128 197.192C23.9688 197.192 24.8008 196.824 25.4728 196.392L25.0088 195.528C24.4328 195.896 23.8088 196.136 23.0728 196.136C21.5848 196.136 20.5768 195.08 20.4808 193.432H25.7288C25.7608 193.24 25.7768 192.952 25.7768 192.68C25.7768 190.456 24.6568 189.032 22.6728 189.032C20.8968 189.032 19.1848 190.584 19.1848 193.128C19.1848 195.672 20.8328 197.192 22.9128 197.192ZM20.4648 192.488C20.6248 190.952 21.6168 190.072 22.7048 190.072C23.9208 190.072 24.6248 190.92 24.6248 192.488H20.4648ZM28.0538 197H29.3658V192.008C29.8938 190.696 30.6778 190.216 31.3338 190.216C31.6538 190.216 31.8298 190.264 32.0858 190.344L32.3418 189.192C32.0858 189.08 31.8458 189.032 31.5098 189.032C30.6298 189.032 29.8298 189.656 29.3018 190.632H29.2538L29.1418 189.224H28.0538V197ZM35.3576 197.192C36.3336 197.192 37.1976 196.68 37.9336 196.072H37.9816L38.0936 197H39.1816V192.232C39.1816 190.296 38.3816 189.032 36.4776 189.032C35.2296 189.032 34.1416 189.576 33.4216 190.04L33.9336 190.952C34.5416 190.536 35.3576 190.12 36.2536 190.12C37.5336 190.12 37.8536 191.08 37.8536 192.072C34.5416 192.44 33.0856 193.288 33.0856 194.984C33.0856 196.376 34.0616 197.192 35.3576 197.192ZM35.7416 196.136C34.9736 196.136 34.3656 195.768 34.3656 194.888C34.3656 193.896 35.2616 193.256 37.8536 192.936V195.096C37.1016 195.768 36.4936 196.136 35.7416 196.136ZM44.213 197.192C44.693 197.192 45.221 197.048 45.653 196.904L45.397 195.912C45.141 196.008 44.789 196.12 44.517 196.12C43.621 196.12 43.317 195.576 43.317 194.616V190.296H45.413V189.224H43.317V187.048H42.213L42.053 189.224L40.837 189.304V190.296H41.989V194.6C41.989 196.136 42.549 197.192 44.213 197.192ZM49.7988 197.192C50.8708 197.192 51.6388 196.632 52.3588 195.784H52.4068L52.5188 197H53.6068V189.224H52.2948V194.744C51.5588 195.656 50.9988 196.056 50.1988 196.056C49.1748 196.056 48.7428 195.432 48.7428 193.976V189.224H47.4148V194.152C47.4148 196.136 48.1508 197.192 49.7988 197.192ZM56.5854 197H57.8974V192.008C58.4254 190.696 59.2094 190.216 59.8654 190.216C60.1854 190.216 60.3614 190.264 60.6174 190.344L60.8734 189.192C60.6174 189.08 60.3774 189.032 60.0414 189.032C59.1614 189.032 58.3614 189.656 57.8334 190.632H57.7854L57.6734 189.224H56.5854V197ZM65.4836 197.192C66.5396 197.192 67.3716 196.824 68.0436 196.392L67.5796 195.528C67.0036 195.896 66.3796 196.136 65.6436 196.136C64.1556 196.136 63.1476 195.08 63.0516 193.432H68.2996C68.3316 193.24 68.3476 192.952 68.3476 192.68C68.3476 190.456 67.2276 189.032 65.2436 189.032C63.4676 189.032 61.7556 190.584 61.7556 193.128C61.7556 195.672 63.4036 197.192 65.4836 197.192ZM63.0356 192.488C63.1956 190.952 64.1876 190.072 65.2756 190.072C66.4916 190.072 67.1956 190.92 67.1956 192.488H63.0356ZM74.3114 197H75.6394V192.568H77.5434L80.0714 197H81.5754L78.9034 192.424C80.3434 192.072 81.2714 191.08 81.2714 189.448C81.2714 187.272 79.7354 186.504 77.5914 186.504H74.3114V197ZM75.6394 191.48V187.576H77.3994C79.0314 187.576 79.9434 188.072 79.9434 189.448C79.9434 190.808 79.0314 191.48 77.3994 191.48H75.6394ZM86.644 197.192C87.7 197.192 88.532 196.824 89.204 196.392L88.74 195.528C88.164 195.896 87.54 196.136 86.804 196.136C85.316 196.136 84.308 195.08 84.212 193.432H89.46C89.492 193.24 89.508 192.952 89.508 192.68C89.508 190.456 88.388 189.032 86.404 189.032C84.628 189.032 82.916 190.584 82.916 193.128C82.916 195.672 84.564 197.192 86.644 197.192ZM84.196 192.488C84.356 190.952 85.348 190.072 86.436 190.072C87.652 190.072 88.356 190.92 88.356 192.488H84.196ZM93.5432 197H95.0792L97.8312 189.224H96.5352L95.0632 193.64C94.8392 194.408 94.5832 195.192 94.3592 195.928H94.2952C94.0552 195.192 93.7992 194.408 93.5752 193.64L92.1032 189.224H90.7432L93.5432 197ZM99.6875 197H101V189.224H99.6875V197ZM100.36 187.624C100.872 187.624 101.272 187.272 101.272 186.776C101.272 186.264 100.872 185.928 100.36 185.928C99.8475 185.928 99.4475 186.264 99.4475 186.776C99.4475 187.272 99.8475 187.624 100.36 187.624ZM107.133 197.192C108.189 197.192 109.021 196.824 109.693 196.392L109.229 195.528C108.653 195.896 108.029 196.136 107.293 196.136C105.805 196.136 104.797 195.08 104.701 193.432H109.949C109.981 193.24 109.997 192.952 109.997 192.68C109.997 190.456 108.877 189.032 106.893 189.032C105.117 189.032 103.405 190.584 103.405 193.128C103.405 195.672 105.053 197.192 107.133 197.192ZM104.685 192.488C104.845 190.952 105.837 190.072 106.925 190.072C108.141 190.072 108.845 190.92 108.845 192.488H104.685ZM113.584 197H115.12L116.208 192.84C116.416 192.104 116.576 191.368 116.752 190.584H116.816C117.008 191.368 117.152 192.088 117.344 192.824L118.464 197H120.064L122.144 189.224H120.896L119.76 193.72C119.6 194.456 119.456 195.16 119.28 195.88H119.216C119.04 195.16 118.864 194.456 118.672 193.72L117.456 189.224H116.176L114.976 193.72C114.784 194.44 114.624 195.16 114.448 195.88H114.384C114.24 195.16 114.096 194.456 113.92 193.72L112.768 189.224H111.424L113.584 197Z" fill="#858585"/>
<path d="M176.322 192.128C176.706 190.96 177.042 189.808 177.362 188.592H177.426C177.762 189.808 178.098 190.96 178.482 192.128L178.978 193.728H175.826L176.322 192.128ZM173.122 198H174.482L175.49 194.8H179.314L180.306 198H181.73L178.178 187.504H176.674L173.122 198ZM188.072 198H189.384V191.296H191.032V190.224H189.384V188.992C189.384 188 189.736 187.488 190.472 187.488C190.76 187.488 191.064 187.552 191.352 187.68L191.64 186.672C191.288 186.528 190.824 186.416 190.344 186.416C188.792 186.416 188.072 187.408 188.072 188.992V190.224H184.824V189.232C184.824 188.208 185.272 187.648 186.04 187.648C186.424 187.648 186.744 187.712 187.08 187.856L187.352 186.864C186.968 186.688 186.44 186.576 185.928 186.576C184.312 186.576 183.512 187.584 183.512 189.2V190.224L182.456 190.304V191.296H183.512V198H184.824V191.296H188.072V198ZM192.878 198H194.19V190.224H192.878V198ZM193.55 188.624C194.062 188.624 194.462 188.272 194.462 187.776C194.462 187.264 194.062 186.928 193.55 186.928C193.038 186.928 192.638 187.264 192.638 187.776C192.638 188.272 193.038 188.624 193.55 188.624ZM197.171 198H198.483V192.368C199.267 191.584 199.811 191.168 200.611 191.168C201.635 191.168 202.083 191.792 202.083 193.248V198H203.395V193.072C203.395 191.088 202.659 190.032 201.027 190.032C199.955 190.032 199.155 190.608 198.419 191.344H198.371L198.259 190.224H197.171V198ZM206.277 198H207.589V190.224H206.277V198ZM206.949 188.624C207.461 188.624 207.861 188.272 207.861 187.776C207.861 187.264 207.461 186.928 206.949 186.928C206.437 186.928 206.037 187.264 206.037 187.776C206.037 188.272 206.437 188.624 206.949 188.624ZM213.018 198.192C213.498 198.192 214.026 198.048 214.458 197.904L214.202 196.912C213.946 197.008 213.594 197.12 213.322 197.12C212.426 197.12 212.122 196.576 212.122 195.616V191.296H214.218V190.224H212.122V188.048H211.018L210.858 190.224L209.642 190.304V191.296H210.794V195.6C210.794 197.136 211.354 198.192 213.018 198.192ZM216.459 201.344C218.027 201.344 218.827 200.176 219.371 198.64L222.299 190.224H221.019L219.627 194.528C219.419 195.216 219.195 196.016 218.971 196.72H218.907C218.667 196 218.395 195.2 218.155 194.528L216.571 190.224H215.211L218.331 198.016L218.155 198.592C217.835 199.552 217.275 200.256 216.395 200.256C216.203 200.256 215.963 200.192 215.803 200.144L215.547 201.184C215.803 201.28 216.107 201.344 216.459 201.344ZM227.842 198H230.53C233.698 198 235.426 196.048 235.426 192.704C235.426 189.376 233.698 187.504 230.466 187.504H227.842V198ZM229.17 196.912V188.592H230.37C232.818 188.592 234.05 190.064 234.05 192.704C234.05 195.36 232.818 196.912 230.37 196.912H229.17ZM237.914 198H239.226V190.224H237.914V198ZM238.586 188.624C239.098 188.624 239.498 188.272 239.498 187.776C239.498 187.264 239.098 186.928 238.586 186.928C238.074 186.928 237.674 187.264 237.674 187.776C237.674 188.272 238.074 188.624 238.586 188.624ZM243.999 198.192C244.975 198.192 245.839 197.68 246.575 197.072H246.623L246.735 198H247.823V193.232C247.823 191.296 247.023 190.032 245.119 190.032C243.871 190.032 242.783 190.576 242.063 191.04L242.575 191.952C243.183 191.536 243.999 191.12 244.895 191.12C246.175 191.12 246.495 192.08 246.495 193.072C243.183 193.44 241.727 194.288 241.727 195.984C241.727 197.376 242.703 198.192 243.999 198.192ZM244.383 197.136C243.615 197.136 243.007 196.768 243.007 195.888C243.007 194.896 243.903 194.256 246.495 193.936V196.096C245.743 196.768 245.135 197.136 244.383 197.136ZM253.249 201.584C255.665 201.584 257.185 200.336 257.185 198.896C257.185 197.6 256.273 197.04 254.465 197.04H252.961C251.905 197.04 251.585 196.688 251.585 196.192C251.585 195.76 251.809 195.504 252.081 195.264C252.433 195.44 252.865 195.536 253.249 195.536C254.833 195.536 256.097 194.496 256.097 192.832C256.097 192.176 255.825 191.584 255.457 191.232H257.057V190.224H254.353C254.065 190.112 253.681 190.032 253.249 190.032C251.665 190.032 250.321 191.104 250.321 192.8C250.321 193.728 250.817 194.48 251.329 194.896V194.96C250.929 195.232 250.481 195.744 250.481 196.4C250.481 197.008 250.785 197.424 251.169 197.664V197.728C250.465 198.208 250.033 198.832 250.033 199.488C250.033 200.832 251.345 201.584 253.249 201.584ZM253.249 194.656C252.353 194.656 251.601 193.936 251.601 192.8C251.601 191.664 252.337 190.992 253.249 190.992C254.161 190.992 254.897 191.664 254.897 192.8C254.897 193.936 254.145 194.656 253.249 194.656ZM253.441 200.672C252.033 200.672 251.185 200.144 251.185 199.312C251.185 198.864 251.425 198.4 251.985 198C252.321 198.096 252.689 198.128 252.993 198.128H254.337C255.345 198.128 255.905 198.368 255.905 199.088C255.905 199.904 254.929 200.672 253.441 200.672ZM259.043 198H260.355V193.008C260.883 191.696 261.667 191.216 262.323 191.216C262.643 191.216 262.819 191.264 263.075 191.344L263.331 190.192C263.075 190.08 262.835 190.032 262.499 190.032C261.619 190.032 260.819 190.656 260.291 191.632H260.243L260.131 190.224H259.043V198ZM266.347 198.192C267.323 198.192 268.187 197.68 268.923 197.072H268.971L269.083 198H270.171V193.232C270.171 191.296 269.371 190.032 267.467 190.032C266.219 190.032 265.131 190.576 264.411 191.04L264.923 191.952C265.531 191.536 266.347 191.12 267.243 191.12C268.523 191.12 268.843 192.08 268.843 193.072C265.531 193.44 264.075 194.288 264.075 195.984C264.075 197.376 265.051 198.192 266.347 198.192ZM266.731 197.136C265.963 197.136 265.355 196.768 265.355 195.888C265.355 194.896 266.251 194.256 268.843 193.936V196.096C268.091 196.768 267.483 197.136 266.731 197.136ZM272.973 198H274.285V192.368C275.005 191.568 275.661 191.168 276.237 191.168C277.229 191.168 277.693 191.792 277.693 193.248V198H279.005V192.368C279.725 191.568 280.349 191.168 280.957 191.168C281.933 191.168 282.397 191.792 282.397 193.248V198H283.709V193.072C283.709 191.088 282.941 190.032 281.341 190.032C280.397 190.032 279.597 190.64 278.781 191.52C278.461 190.592 277.821 190.032 276.637 190.032C275.709 190.032 274.893 190.608 274.221 191.344H274.173L274.061 190.224H272.973V198Z" fill="#858585"/>
<path d="M180.744 220H184.088C186.44 220 188.072 218.992 188.072 216.928C188.072 215.488 187.192 214.656 185.928 214.416V214.352C186.92 214.032 187.464 213.104 187.464 212.064C187.464 210.224 185.992 209.504 183.864 209.504H180.744V220ZM182.072 213.968V210.56H183.688C185.32 210.56 186.152 211.024 186.152 212.24C186.152 213.312 185.416 213.968 183.624 213.968H182.072ZM182.072 218.944V214.992H183.896C185.736 214.992 186.76 215.584 186.76 216.88C186.76 218.288 185.704 218.944 183.896 218.944H182.072ZM190.378 220H191.69V215.008C192.218 213.696 193.002 213.216 193.658 213.216C193.978 213.216 194.154 213.264 194.41 213.344L194.666 212.192C194.41 212.08 194.17 212.032 193.834 212.032C192.954 212.032 192.154 212.656 191.626 213.632H191.578L191.466 212.224H190.378V220ZM197.682 220.192C198.658 220.192 199.522 219.68 200.258 219.072H200.306L200.418 220H201.506V215.232C201.506 213.296 200.706 212.032 198.802 212.032C197.554 212.032 196.466 212.576 195.746 213.04L196.258 213.952C196.866 213.536 197.682 213.12 198.578 213.12C199.858 213.12 200.178 214.08 200.178 215.072C196.866 215.44 195.41 216.288 195.41 217.984C195.41 219.376 196.386 220.192 197.682 220.192ZM198.066 219.136C197.298 219.136 196.69 218.768 196.69 217.888C196.69 216.896 197.586 216.256 200.178 215.936V218.096C199.426 218.768 198.818 219.136 198.066 219.136ZM204.308 220H205.62V212.224H204.308V220ZM204.98 210.624C205.492 210.624 205.892 210.272 205.892 209.776C205.892 209.264 205.492 208.928 204.98 208.928C204.468 208.928 204.068 209.264 204.068 209.776C204.068 210.272 204.468 210.624 204.98 210.624ZM208.601 220H209.913V214.368C210.697 213.584 211.241 213.168 212.041 213.168C213.065 213.168 213.513 213.792 213.513 215.248V220H214.825V215.072C214.825 213.088 214.089 212.032 212.457 212.032C211.385 212.032 210.585 212.608 209.849 213.344H209.801L209.689 212.224H208.601V220ZM219.738 220.192C221.578 220.192 222.586 219.136 222.586 217.872C222.586 216.4 221.338 215.936 220.218 215.52C219.338 215.184 218.49 214.912 218.49 214.176C218.49 213.584 218.938 213.056 219.914 213.056C220.602 213.056 221.162 213.344 221.69 213.744L222.314 212.912C221.722 212.432 220.874 212.032 219.898 212.032C218.218 212.032 217.226 212.992 217.226 214.24C217.226 215.552 218.442 216.08 219.546 216.48C220.394 216.8 221.322 217.152 221.322 217.952C221.322 218.624 220.81 219.168 219.786 219.168C218.858 219.168 218.17 218.784 217.498 218.24L216.842 219.12C217.578 219.728 218.634 220.192 219.738 220.192ZM226.901 220.192C227.381 220.192 227.909 220.048 228.341 219.904L228.085 218.912C227.829 219.008 227.477 219.12 227.205 219.12C226.309 219.12 226.005 218.576 226.005 217.616V213.296H228.101V212.224H226.005V210.048H224.901L224.741 212.224L223.525 212.304V213.296H224.677V217.6C224.677 219.136 225.237 220.192 226.901 220.192ZM233.02 220.192C234.924 220.192 236.62 218.704 236.62 216.128C236.62 213.52 234.924 212.032 233.02 212.032C231.116 212.032 229.42 213.52 229.42 216.128C229.42 218.704 231.116 220.192 233.02 220.192ZM233.02 219.104C231.692 219.104 230.78 217.904 230.78 216.128C230.78 214.336 231.692 213.12 233.02 213.12C234.364 213.12 235.26 214.336 235.26 216.128C235.26 217.904 234.364 219.104 233.02 219.104ZM239.023 220H240.335V215.008C240.863 213.696 241.647 213.216 242.303 213.216C242.623 213.216 242.799 213.264 243.055 213.344L243.311 212.192C243.055 212.08 242.815 212.032 242.479 212.032C241.599 212.032 240.799 212.656 240.271 213.632H240.223L240.111 212.224H239.023V220ZM244.926 220H246.238V214.368C246.958 213.568 247.614 213.168 248.19 213.168C249.182 213.168 249.646 213.792 249.646 215.248V220H250.958V214.368C251.678 213.568 252.302 213.168 252.91 213.168C253.886 213.168 254.35 213.792 254.35 215.248V220H255.662V215.072C255.662 213.088 254.894 212.032 253.294 212.032C252.35 212.032 251.55 212.64 250.734 213.52C250.414 212.592 249.774 212.032 248.59 212.032C247.662 212.032 246.846 212.608 246.174 213.344H246.126L246.014 212.224H244.926V220ZM258.547 220H259.859V212.224H258.547V220ZM259.219 210.624C259.731 210.624 260.131 210.272 260.131 209.776C260.131 209.264 259.731 208.928 259.219 208.928C258.707 208.928 258.307 209.264 258.307 209.776C258.307 210.272 258.707 210.624 259.219 210.624ZM262.84 220H264.152V214.368C264.936 213.584 265.48 213.168 266.28 213.168C267.304 213.168 267.752 213.792 267.752 215.248V220H269.064V215.072C269.064 213.088 268.328 212.032 266.696 212.032C265.624 212.032 264.824 212.608 264.088 213.344H264.04L263.928 212.224H262.84V220ZM274.569 223.584C276.985 223.584 278.505 222.336 278.505 220.896C278.505 219.6 277.593 219.04 275.785 219.04H274.281C273.225 219.04 272.905 218.688 272.905 218.192C272.905 217.76 273.129 217.504 273.401 217.264C273.753 217.44 274.185 217.536 274.569 217.536C276.153 217.536 277.417 216.496 277.417 214.832C277.417 214.176 277.145 213.584 276.777 213.232H278.377V212.224H275.673C275.385 212.112 275.001 212.032 274.569 212.032C272.985 212.032 271.641 213.104 271.641 214.8C271.641 215.728 272.137 216.48 272.649 216.896V216.96C272.249 217.232 271.801 217.744 271.801 218.4C271.801 219.008 272.105 219.424 272.489 219.664V219.728C271.785 220.208 271.353 220.832 271.353 221.488C271.353 222.832 272.665 223.584 274.569 223.584ZM274.569 216.656C273.673 216.656 272.921 215.936 272.921 214.8C272.921 213.664 273.657 212.992 274.569 212.992C275.481 212.992 276.217 213.664 276.217 214.8C276.217 215.936 275.465 216.656 274.569 216.656ZM274.761 222.672C273.353 222.672 272.505 222.144 272.505 221.312C272.505 220.864 272.745 220.4 273.305 220C273.641 220.096 274.009 220.128 274.313 220.128H275.657C276.665 220.128 277.225 220.368 277.225 221.088C277.225 221.904 276.249 222.672 274.761 222.672Z" fill="#858585"/>
<path d="M340.881 194H342.209V189.84H343.937C346.241 189.84 347.809 188.8 347.809 186.592C347.809 184.288 346.225 183.504 343.873 183.504H340.881V194ZM342.209 188.752V184.576H343.713C345.553 184.576 346.481 185.072 346.481 186.592C346.481 188.08 345.601 188.752 343.777 188.752H342.209ZM351.275 194.192C352.251 194.192 353.115 193.68 353.851 193.072H353.899L354.011 194H355.099V189.232C355.099 187.296 354.299 186.032 352.395 186.032C351.147 186.032 350.059 186.576 349.339 187.04L349.851 187.952C350.459 187.536 351.275 187.12 352.171 187.12C353.451 187.12 353.771 188.08 353.771 189.072C350.459 189.44 349.003 190.288 349.003 191.984C349.003 193.376 349.979 194.192 351.275 194.192ZM351.659 193.136C350.891 193.136 350.283 192.768 350.283 191.888C350.283 190.896 351.179 190.256 353.771 189.936V192.096C353.019 192.768 352.411 193.136 351.659 193.136ZM357.901 197.28H359.213V194.656L359.181 193.296C359.901 193.856 360.621 194.192 361.341 194.192C363.117 194.192 364.701 192.64 364.701 190C364.701 187.584 363.629 186.032 361.629 186.032C360.717 186.032 359.853 186.528 359.149 187.12H359.101L358.989 186.224H357.901V197.28ZM361.117 193.088C360.605 193.088 359.917 192.864 359.213 192.272V188.192C359.981 187.504 360.637 187.136 361.293 187.136C362.765 187.136 363.341 188.288 363.341 190C363.341 191.92 362.397 193.088 361.117 193.088ZM370.284 194.192C371.34 194.192 372.172 193.824 372.844 193.392L372.38 192.528C371.804 192.896 371.18 193.136 370.444 193.136C368.956 193.136 367.948 192.08 367.852 190.432H373.1C373.132 190.24 373.148 189.952 373.148 189.68C373.148 187.456 372.028 186.032 370.044 186.032C368.268 186.032 366.556 187.584 366.556 190.128C366.556 192.672 368.204 194.192 370.284 194.192ZM367.836 189.488C367.996 187.952 368.988 187.072 370.076 187.072C371.292 187.072 371.996 187.92 371.996 189.488H367.836ZM375.425 194H376.737V189.008C377.265 187.696 378.049 187.216 378.705 187.216C379.025 187.216 379.201 187.264 379.457 187.344L379.713 186.192C379.457 186.08 379.217 186.032 378.881 186.032C378.001 186.032 377.201 186.656 376.673 187.632H376.625L376.513 186.224H375.425V194ZM385.014 194H386.342V189.84H388.07C390.374 189.84 391.942 188.8 391.942 186.592C391.942 184.288 390.358 183.504 388.006 183.504H385.014V194ZM386.342 188.752V184.576H387.846C389.686 184.576 390.614 185.072 390.614 186.592C390.614 188.08 389.734 188.752 387.91 188.752H386.342ZM394.304 194H395.616V189.008C396.144 187.696 396.928 187.216 397.584 187.216C397.904 187.216 398.08 187.264 398.336 187.344L398.592 186.192C398.336 186.08 398.096 186.032 397.76 186.032C396.88 186.032 396.08 186.656 395.552 187.632H395.504L395.392 186.224H394.304V194ZM403.074 194.192C404.978 194.192 406.674 192.704 406.674 190.128C406.674 187.52 404.978 186.032 403.074 186.032C401.17 186.032 399.474 187.52 399.474 190.128C399.474 192.704 401.17 194.192 403.074 194.192ZM403.074 193.104C401.746 193.104 400.834 191.904 400.834 190.128C400.834 188.336 401.746 187.12 403.074 187.12C404.418 187.12 405.314 188.336 405.314 190.128C405.314 191.904 404.418 193.104 403.074 193.104ZM411.26 194.192C411.74 194.192 412.268 194.048 412.7 193.904L412.444 192.912C412.188 193.008 411.836 193.12 411.564 193.12C410.668 193.12 410.364 192.576 410.364 191.616V187.296H412.46V186.224H410.364V184.048H409.26L409.1 186.224L407.884 186.304V187.296H409.036V191.6C409.036 193.136 409.596 194.192 411.26 194.192ZM417.379 194.192C419.283 194.192 420.979 192.704 420.979 190.128C420.979 187.52 419.283 186.032 417.379 186.032C415.475 186.032 413.779 187.52 413.779 190.128C413.779 192.704 415.475 194.192 417.379 194.192ZM417.379 193.104C416.051 193.104 415.139 191.904 415.139 190.128C415.139 188.336 416.051 187.12 417.379 187.12C418.723 187.12 419.619 188.336 419.619 190.128C419.619 191.904 418.723 193.104 417.379 193.104ZM425.565 194.192C426.045 194.192 426.573 194.048 427.005 193.904L426.749 192.912C426.493 193.008 426.141 193.12 425.869 193.12C424.973 193.12 424.669 192.576 424.669 191.616V187.296H426.765V186.224H424.669V184.048H423.565L423.405 186.224L422.189 186.304V187.296H423.341V191.6C423.341 193.136 423.901 194.192 425.565 194.192ZM429.007 197.344C430.575 197.344 431.375 196.176 431.919 194.64L434.847 186.224H433.567L432.175 190.528C431.967 191.216 431.743 192.016 431.519 192.72H431.455C431.215 192 430.943 191.2 430.703 190.528L429.119 186.224H427.759L430.879 194.016L430.703 194.592C430.383 195.552 429.823 196.256 428.943 196.256C428.751 196.256 428.511 196.192 428.351 196.144L428.095 197.184C428.351 197.28 428.655 197.344 429.007 197.344ZM436.703 197.28H438.015V194.656L437.983 193.296C438.703 193.856 439.423 194.192 440.143 194.192C441.919 194.192 443.503 192.64 443.503 190C443.503 187.584 442.431 186.032 440.431 186.032C439.519 186.032 438.655 186.528 437.951 187.12H437.903L437.791 186.224H436.703V197.28ZM439.919 193.088C439.407 193.088 438.719 192.864 438.015 192.272V188.192C438.783 187.504 439.439 187.136 440.095 187.136C441.567 187.136 442.143 188.288 442.143 190C442.143 191.92 441.199 193.088 439.919 193.088ZM449.086 194.192C450.142 194.192 450.974 193.824 451.646 193.392L451.182 192.528C450.606 192.896 449.982 193.136 449.246 193.136C447.758 193.136 446.75 192.08 446.654 190.432H451.902C451.934 190.24 451.95 189.952 451.95 189.68C451.95 187.456 450.83 186.032 448.846 186.032C447.07 186.032 445.358 187.584 445.358 190.128C445.358 192.672 447.006 194.192 449.086 194.192ZM446.638 189.488C446.798 187.952 447.79 187.072 448.878 187.072C450.094 187.072 450.798 187.92 450.798 189.488H446.638Z" fill="#858585"/>
<path d="M525.972 197H527.556L529.108 190.68C529.284 189.864 529.476 189.112 529.636 188.296H529.7C529.86 189.112 530.02 189.864 530.212 190.68L531.796 197H533.396L535.572 186.504H534.292L533.188 192.216C532.98 193.336 532.788 194.472 532.596 195.608H532.532C532.276 194.472 532.02 193.32 531.764 192.216L530.308 186.504H529.092L527.636 192.216C527.396 193.336 527.14 194.472 526.9 195.608H526.836C526.644 194.472 526.42 193.352 526.228 192.216L525.124 186.504H523.748L525.972 197ZM537.626 197H538.938V189.224H537.626V197ZM538.298 187.624C538.81 187.624 539.21 187.272 539.21 186.776C539.21 186.264 538.81 185.928 538.298 185.928C537.786 185.928 537.386 186.264 537.386 186.776C537.386 187.272 537.786 187.624 538.298 187.624ZM541.103 197H546.991V195.928H542.767L546.863 189.928V189.224H541.551V190.296H545.199L541.103 196.296V197ZM550.489 197.192C551.465 197.192 552.329 196.68 553.065 196.072H553.113L553.225 197H554.313V192.232C554.313 190.296 553.513 189.032 551.609 189.032C550.361 189.032 549.273 189.576 548.553 190.04L549.065 190.952C549.673 190.536 550.489 190.12 551.385 190.12C552.665 190.12 552.985 191.08 552.985 192.072C549.673 192.44 548.217 193.288 548.217 194.984C548.217 196.376 549.193 197.192 550.489 197.192ZM550.873 196.136C550.105 196.136 549.497 195.768 549.497 194.888C549.497 193.896 550.393 193.256 552.985 192.936V195.096C552.233 195.768 551.625 196.136 550.873 196.136ZM557.115 197H558.427V192.008C558.955 190.696 559.739 190.216 560.395 190.216C560.715 190.216 560.891 190.264 561.147 190.344L561.403 189.192C561.147 189.08 560.907 189.032 560.571 189.032C559.691 189.032 558.891 189.656 558.363 190.632H558.315L558.203 189.224H557.115V197ZM565.517 197.192C566.429 197.192 567.261 196.68 567.869 196.088H567.917L568.029 197H569.117V185.608H567.789V188.6L567.853 189.928C567.165 189.368 566.573 189.032 565.677 189.032C563.901 189.032 562.301 190.6 562.301 193.128C562.301 195.72 563.565 197.192 565.517 197.192ZM565.805 196.088C564.445 196.088 563.661 194.968 563.661 193.112C563.661 191.336 564.653 190.136 565.901 190.136C566.541 190.136 567.133 190.36 567.789 190.952V195.016C567.149 195.736 566.525 196.088 565.805 196.088ZM578.674 197.192C580.578 197.192 582.274 195.704 582.274 193.128C582.274 190.52 580.578 189.032 578.674 189.032C576.77 189.032 575.074 190.52 575.074 193.128C575.074 195.704 576.77 197.192 578.674 197.192ZM578.674 196.104C577.346 196.104 576.434 194.904 576.434 193.128C576.434 191.336 577.346 190.12 578.674 190.12C580.018 190.12 580.914 191.336 580.914 193.128C580.914 194.904 580.018 196.104 578.674 196.104ZM584.901 197H586.213V190.296H587.861V189.224H586.213V187.992C586.213 187 586.565 186.488 587.301 186.488C587.589 186.488 587.893 186.552 588.181 186.68L588.469 185.672C588.117 185.528 587.653 185.416 587.173 185.416C585.621 185.416 584.901 186.408 584.901 187.992V189.224L583.845 189.304V190.296H584.901V197ZM597.264 197.192C599.904 197.192 601.76 195.08 601.76 191.704C601.76 188.36 599.904 186.312 597.264 186.312C594.624 186.312 592.784 188.344 592.784 191.704C592.784 195.08 594.624 197.192 597.264 197.192ZM597.264 196.024C595.392 196.024 594.16 194.328 594.16 191.704C594.16 189.096 595.392 187.48 597.264 187.48C599.136 187.48 600.368 189.096 600.368 191.704C600.368 194.328 599.136 196.024 597.264 196.024ZM603.319 197H609.207V195.928H604.983L609.079 189.928V189.224H603.767V190.296H607.415L603.319 196.296V197Z" fill="#858585"/>
<path d="M538.619 223H539.947V218.84H541.675C543.979 218.84 545.547 217.8 545.547 215.592C545.547 213.288 543.963 212.504 541.611 212.504H538.619V223ZM539.947 217.752V213.576H541.451C543.291 213.576 544.219 214.072 544.219 215.592C544.219 217.08 543.339 217.752 541.515 217.752H539.947ZM549.301 223.192C549.653 223.192 549.877 223.144 550.053 223.064L549.877 222.072C549.733 222.104 549.669 222.104 549.589 222.104C549.397 222.104 549.221 221.944 549.221 221.528V211.608H547.909V221.432C547.909 222.568 548.309 223.192 549.301 223.192ZM554.135 223.192C555.111 223.192 555.975 222.68 556.711 222.072H556.759L556.871 223H557.959V218.232C557.959 216.296 557.159 215.032 555.255 215.032C554.007 215.032 552.919 215.576 552.199 216.04L552.711 216.952C553.319 216.536 554.135 216.12 555.031 216.12C556.311 216.12 556.631 217.08 556.631 218.072C553.319 218.44 551.863 219.288 551.863 220.984C551.863 222.376 552.839 223.192 554.135 223.192ZM554.519 222.136C553.751 222.136 553.143 221.768 553.143 220.888C553.143 219.896 554.039 219.256 556.631 218.936V221.096C555.879 221.768 555.271 222.136 554.519 222.136ZM560.889 226.344C562.457 226.344 563.257 225.176 563.801 223.64L566.729 215.224H565.449L564.057 219.528C563.849 220.216 563.625 221.016 563.401 221.72H563.337C563.097 221 562.825 220.2 562.585 219.528L561.001 215.224H559.641L562.761 223.016L562.585 223.592C562.265 224.552 561.705 225.256 560.825 225.256C560.633 225.256 560.393 225.192 560.233 225.144L559.977 226.184C560.233 226.28 560.537 226.344 560.889 226.344ZM574.592 223.192C575.072 223.192 575.6 223.048 576.032 222.904L575.776 221.912C575.52 222.008 575.168 222.12 574.896 222.12C574 222.12 573.696 221.576 573.696 220.616V216.296H575.792V215.224H573.696V213.048H572.592L572.432 215.224L571.216 215.304V216.296H572.368V220.6C572.368 222.136 572.928 223.192 574.592 223.192ZM580.839 223.192C581.895 223.192 582.727 222.824 583.399 222.392L582.935 221.528C582.359 221.896 581.735 222.136 580.999 222.136C579.511 222.136 578.503 221.08 578.407 219.432H583.655C583.687 219.24 583.703 218.952 583.703 218.68C583.703 216.456 582.583 215.032 580.599 215.032C578.823 215.032 577.111 216.584 577.111 219.128C577.111 221.672 578.759 223.192 580.839 223.192ZM578.391 218.488C578.551 216.952 579.543 216.072 580.631 216.072C581.847 216.072 582.551 216.92 582.551 218.488H578.391ZM588.012 223.192C589.852 223.192 590.86 222.136 590.86 220.872C590.86 219.4 589.612 218.936 588.492 218.52C587.612 218.184 586.764 217.912 586.764 217.176C586.764 216.584 587.212 216.056 588.188 216.056C588.876 216.056 589.436 216.344 589.964 216.744L590.588 215.912C589.996 215.432 589.148 215.032 588.172 215.032C586.492 215.032 585.5 215.992 585.5 217.24C585.5 218.552 586.716 219.08 587.82 219.48C588.668 219.8 589.596 220.152 589.596 220.952C589.596 221.624 589.084 222.168 588.06 222.168C587.132 222.168 586.444 221.784 585.772 221.24L585.116 222.12C585.852 222.728 586.908 223.192 588.012 223.192ZM595.174 223.192C595.654 223.192 596.182 223.048 596.614 222.904L596.358 221.912C596.102 222.008 595.75 222.12 595.478 222.12C594.582 222.12 594.278 221.576 594.278 220.616V216.296H596.374V215.224H594.278V213.048H593.174L593.014 215.224L591.798 215.304V216.296H592.95V220.6C592.95 222.136 593.51 223.192 595.174 223.192Z" fill="#858585"/>
<path d="M716.678 191.128C717.062 189.96 717.398 188.808 717.718 187.592H717.782C718.118 188.808 718.454 189.96 718.838 191.128L719.334 192.728H716.182L716.678 191.128ZM713.478 197H714.838L715.846 193.8H719.67L720.662 197H722.086L718.534 186.504H717.03L713.478 197ZM726.424 200.584C728.84 200.584 730.36 199.336 730.36 197.896C730.36 196.6 729.448 196.04 727.64 196.04H726.136C725.08 196.04 724.76 195.688 724.76 195.192C724.76 194.76 724.984 194.504 725.256 194.264C725.608 194.44 726.04 194.536 726.424 194.536C728.008 194.536 729.272 193.496 729.272 191.832C729.272 191.176 729 190.584 728.632 190.232H730.232V189.224H727.528C727.24 189.112 726.856 189.032 726.424 189.032C724.84 189.032 723.496 190.104 723.496 191.8C723.496 192.728 723.992 193.48 724.504 193.896V193.96C724.104 194.232 723.656 194.744 723.656 195.4C723.656 196.008 723.96 196.424 724.344 196.664V196.728C723.64 197.208 723.208 197.832 723.208 198.488C723.208 199.832 724.52 200.584 726.424 200.584ZM726.424 193.656C725.528 193.656 724.776 192.936 724.776 191.8C724.776 190.664 725.512 189.992 726.424 189.992C727.336 189.992 728.072 190.664 728.072 191.8C728.072 192.936 727.32 193.656 726.424 193.656ZM726.616 199.672C725.208 199.672 724.36 199.144 724.36 198.312C724.36 197.864 724.6 197.4 725.16 197C725.496 197.096 725.864 197.128 726.168 197.128H727.512C728.52 197.128 729.08 197.368 729.08 198.088C729.08 198.904 728.104 199.672 726.616 199.672ZM732.218 197H733.53V189.224H732.218V197ZM732.89 187.624C733.402 187.624 733.802 187.272 733.802 186.776C733.802 186.264 733.402 185.928 732.89 185.928C732.378 185.928 731.978 186.264 731.978 186.776C731.978 187.272 732.378 187.624 732.89 187.624ZM737.903 197.192C738.255 197.192 738.479 197.144 738.655 197.064L738.479 196.072C738.335 196.104 738.271 196.104 738.191 196.104C737.999 196.104 737.823 195.944 737.823 195.528V185.608H736.511V195.432C736.511 196.568 736.911 197.192 737.903 197.192ZM744.097 197.192C745.153 197.192 745.985 196.824 746.657 196.392L746.193 195.528C745.617 195.896 744.993 196.136 744.257 196.136C742.769 196.136 741.761 195.08 741.665 193.432H746.913C746.945 193.24 746.961 192.952 746.961 192.68C746.961 190.456 745.841 189.032 743.857 189.032C742.081 189.032 740.369 190.584 740.369 193.128C740.369 195.672 742.017 197.192 744.097 197.192ZM741.649 192.488C741.809 190.952 742.801 190.072 743.889 190.072C745.105 190.072 745.809 190.92 745.809 192.488H741.649Z" fill="#858585"/>
<path d="M341.594 220H342.794V214.224C342.794 213.296 342.698 212.048 342.634 211.12H342.698L343.53 213.504L345.514 218.944H346.394L348.378 213.504L349.21 211.12H349.274C349.21 212.048 349.098 213.296 349.098 214.224V220H350.346V209.504H348.73L346.746 215.104C346.49 215.824 346.282 216.576 346.026 217.296H345.962C345.706 216.576 345.466 215.824 345.21 215.104L343.194 209.504H341.594V220ZM353.446 220H354.758V212.224H353.446V220ZM354.118 210.624C354.63 210.624 355.03 210.272 355.03 209.776C355.03 209.264 354.63 208.928 354.118 208.928C353.606 208.928 353.206 209.264 353.206 209.776C353.206 210.272 353.606 210.624 354.118 210.624ZM360.395 220.192C361.307 220.192 362.139 219.68 362.747 219.088H362.795L362.907 220H363.995V208.608H362.667V211.6L362.731 212.928C362.043 212.368 361.451 212.032 360.555 212.032C358.779 212.032 357.179 213.6 357.179 216.128C357.179 218.72 358.443 220.192 360.395 220.192ZM360.683 219.088C359.323 219.088 358.539 217.968 358.539 216.112C358.539 214.336 359.531 213.136 360.779 213.136C361.419 213.136 362.011 213.36 362.667 213.952V218.016C362.027 218.736 361.403 219.088 360.683 219.088ZM366.314 216.496H369.994V215.488H366.314V216.496ZM372.518 220H373.83V213.296H375.478V212.224H373.83V210.992C373.83 210 374.182 209.488 374.918 209.488C375.206 209.488 375.51 209.552 375.798 209.68L376.086 208.672C375.734 208.528 375.27 208.416 374.79 208.416C373.238 208.416 372.518 209.408 372.518 210.992V212.224L371.462 212.304V213.296H372.518V220ZM377.322 220H378.634V212.224H377.322V220ZM377.994 210.624C378.506 210.624 378.906 210.272 378.906 209.776C378.906 209.264 378.506 208.928 377.994 208.928C377.482 208.928 377.082 209.264 377.082 209.776C377.082 210.272 377.482 210.624 377.994 210.624ZM385.301 220H386.629V215.84H388.357C390.661 215.84 392.229 214.8 392.229 212.592C392.229 210.288 390.645 209.504 388.293 209.504H385.301V220ZM386.629 214.752V210.576H388.133C389.973 210.576 390.901 211.072 390.901 212.592C390.901 214.08 390.021 214.752 388.197 214.752H386.629ZM394.591 220H395.903V215.008C396.431 213.696 397.215 213.216 397.871 213.216C398.191 213.216 398.367 213.264 398.623 213.344L398.879 212.192C398.623 212.08 398.383 212.032 398.047 212.032C397.167 212.032 396.367 212.656 395.839 213.632H395.791L395.679 212.224H394.591V220ZM403.362 220.192C405.266 220.192 406.962 218.704 406.962 216.128C406.962 213.52 405.266 212.032 403.362 212.032C401.458 212.032 399.762 213.52 399.762 216.128C399.762 218.704 401.458 220.192 403.362 220.192ZM403.362 219.104C402.034 219.104 401.122 217.904 401.122 216.128C401.122 214.336 402.034 213.12 403.362 213.12C404.706 213.12 405.602 214.336 405.602 216.128C405.602 217.904 404.706 219.104 403.362 219.104ZM411.547 220.192C412.027 220.192 412.555 220.048 412.987 219.904L412.731 218.912C412.475 219.008 412.123 219.12 411.851 219.12C410.955 219.12 410.651 218.576 410.651 217.616V213.296H412.747V212.224H410.651V210.048H409.547L409.387 212.224L408.171 212.304V213.296H409.323V217.6C409.323 219.136 409.883 220.192 411.547 220.192ZM417.666 220.192C419.57 220.192 421.266 218.704 421.266 216.128C421.266 213.52 419.57 212.032 417.666 212.032C415.762 212.032 414.066 213.52 414.066 216.128C414.066 218.704 415.762 220.192 417.666 220.192ZM417.666 219.104C416.338 219.104 415.426 217.904 415.426 216.128C415.426 214.336 416.338 213.12 417.666 213.12C419.01 213.12 419.906 214.336 419.906 216.128C419.906 217.904 419.01 219.104 417.666 219.104ZM425.852 220.192C426.332 220.192 426.86 220.048 427.292 219.904L427.036 218.912C426.78 219.008 426.428 219.12 426.156 219.12C425.26 219.12 424.956 218.576 424.956 217.616V213.296H427.052V212.224H424.956V210.048H423.852L423.692 212.224L422.476 212.304V213.296H423.628V217.6C423.628 219.136 424.188 220.192 425.852 220.192ZM429.294 223.344C430.862 223.344 431.662 222.176 432.206 220.64L435.134 212.224H433.854L432.462 216.528C432.254 217.216 432.03 218.016 431.806 218.72H431.742C431.502 218 431.23 217.2 430.99 216.528L429.406 212.224H428.046L431.166 220.016L430.99 220.592C430.67 221.552 430.11 222.256 429.23 222.256C429.038 222.256 428.798 222.192 428.638 222.144L428.382 223.184C428.638 223.28 428.942 223.344 429.294 223.344ZM436.99 223.28H438.302V220.656L438.27 219.296C438.99 219.856 439.71 220.192 440.43 220.192C442.206 220.192 443.79 218.64 443.79 216C443.79 213.584 442.718 212.032 440.718 212.032C439.806 212.032 438.942 212.528 438.238 213.12H438.19L438.078 212.224H436.99V223.28ZM440.206 219.088C439.694 219.088 439.006 218.864 438.302 218.272V214.192C439.07 213.504 439.726 213.136 440.382 213.136C441.854 213.136 442.43 214.288 442.43 216C442.43 217.92 441.486 219.088 440.206 219.088ZM449.373 220.192C450.429 220.192 451.261 219.824 451.933 219.392L451.469 218.528C450.893 218.896 450.269 219.136 449.533 219.136C448.045 219.136 447.037 218.08 446.941 216.432H452.189C452.221 216.24 452.237 215.952 452.237 215.68C452.237 213.456 451.117 212.032 449.133 212.032C447.357 212.032 445.645 213.584 445.645 216.128C445.645 218.672 447.293 220.192 449.373 220.192ZM446.925 215.488C447.085 213.952 448.077 213.072 449.165 213.072C450.381 213.072 451.085 213.92 451.085 215.488H446.925Z" fill="#858585"/>
<path d="M344.803 246H346.131V241.056H351.011V246H352.355V235.504H351.011V239.904H346.131V235.504H344.803V246ZM355.468 246H356.78V238.224H355.468V246ZM356.14 236.624C356.652 236.624 357.052 236.272 357.052 235.776C357.052 235.264 356.652 234.928 356.14 234.928C355.628 234.928 355.228 235.264 355.228 235.776C355.228 236.272 355.628 236.624 356.14 236.624ZM359.105 242.496H362.785V241.488H359.105V242.496ZM365.085 246H366.397V238.224H365.085V246ZM365.757 236.624C366.269 236.624 366.669 236.272 366.669 235.776C366.669 235.264 366.269 234.928 365.757 234.928C365.245 234.928 364.845 235.264 364.845 235.776C364.845 236.272 365.245 236.624 365.757 236.624ZM369.602 246H370.914V239.296H372.562V238.224H370.914V236.992C370.914 236 371.266 235.488 372.002 235.488C372.29 235.488 372.594 235.552 372.882 235.68L373.17 234.672C372.818 234.528 372.354 234.416 371.874 234.416C370.322 234.416 369.602 235.408 369.602 236.992V238.224L368.546 238.304V239.296H369.602V246ZM378.092 246H379.42V241.84H381.148C383.452 241.84 385.02 240.8 385.02 238.592C385.02 236.288 383.436 235.504 381.084 235.504H378.092V246ZM379.42 240.752V236.576H380.924C382.764 236.576 383.692 237.072 383.692 238.592C383.692 240.08 382.812 240.752 380.988 240.752H379.42ZM387.382 246H388.694V241.008C389.222 239.696 390.006 239.216 390.662 239.216C390.982 239.216 391.158 239.264 391.414 239.344L391.67 238.192C391.414 238.08 391.174 238.032 390.838 238.032C389.958 238.032 389.158 238.656 388.63 239.632H388.582L388.47 238.224H387.382V246ZM396.152 246.192C398.056 246.192 399.752 244.704 399.752 242.128C399.752 239.52 398.056 238.032 396.152 238.032C394.248 238.032 392.552 239.52 392.552 242.128C392.552 244.704 394.248 246.192 396.152 246.192ZM396.152 245.104C394.824 245.104 393.912 243.904 393.912 242.128C393.912 240.336 394.824 239.12 396.152 239.12C397.496 239.12 398.392 240.336 398.392 242.128C398.392 243.904 397.496 245.104 396.152 245.104ZM404.338 246.192C404.818 246.192 405.346 246.048 405.778 245.904L405.522 244.912C405.266 245.008 404.914 245.12 404.642 245.12C403.746 245.12 403.442 244.576 403.442 243.616V239.296H405.538V238.224H403.442V236.048H402.338L402.178 238.224L400.962 238.304V239.296H402.114V243.6C402.114 245.136 402.674 246.192 404.338 246.192ZM410.457 246.192C412.361 246.192 414.057 244.704 414.057 242.128C414.057 239.52 412.361 238.032 410.457 238.032C408.553 238.032 406.857 239.52 406.857 242.128C406.857 244.704 408.553 246.192 410.457 246.192ZM410.457 245.104C409.129 245.104 408.217 243.904 408.217 242.128C408.217 240.336 409.129 239.12 410.457 239.12C411.801 239.12 412.697 240.336 412.697 242.128C412.697 243.904 411.801 245.104 410.457 245.104ZM418.643 246.192C419.123 246.192 419.651 246.048 420.083 245.904L419.827 244.912C419.571 245.008 419.219 245.12 418.947 245.12C418.051 245.12 417.747 244.576 417.747 243.616V239.296H419.843V238.224H417.747V236.048H416.643L416.483 238.224L415.267 238.304V239.296H416.419V243.6C416.419 245.136 416.979 246.192 418.643 246.192ZM422.085 249.344C423.653 249.344 424.453 248.176 424.997 246.64L427.925 238.224H426.645L425.253 242.528C425.045 243.216 424.821 244.016 424.597 244.72H424.533C424.293 244 424.021 243.2 423.781 242.528L422.197 238.224H420.837L423.957 246.016L423.781 246.592C423.461 247.552 422.901 248.256 422.021 248.256C421.829 248.256 421.589 248.192 421.429 248.144L421.173 249.184C421.429 249.28 421.733 249.344 422.085 249.344ZM429.781 249.28H431.093V246.656L431.061 245.296C431.781 245.856 432.501 246.192 433.221 246.192C434.997 246.192 436.581 244.64 436.581 242C436.581 239.584 435.509 238.032 433.509 238.032C432.597 238.032 431.733 238.528 431.029 239.12H430.981L430.869 238.224H429.781V249.28ZM432.997 245.088C432.485 245.088 431.797 244.864 431.093 244.272V240.192C431.861 239.504 432.517 239.136 433.173 239.136C434.645 239.136 435.221 240.288 435.221 242C435.221 243.92 434.277 245.088 432.997 245.088ZM442.164 246.192C443.22 246.192 444.052 245.824 444.724 245.392L444.26 244.528C443.684 244.896 443.06 245.136 442.324 245.136C440.836 245.136 439.828 244.08 439.732 242.432H444.98C445.012 242.24 445.028 241.952 445.028 241.68C445.028 239.456 443.908 238.032 441.924 238.032C440.148 238.032 438.436 239.584 438.436 242.128C438.436 244.672 440.084 246.192 442.164 246.192ZM439.716 241.488C439.876 239.952 440.868 239.072 441.956 239.072C443.172 239.072 443.876 239.92 443.876 241.488H439.716Z" fill="#858585"/>
<path d="M16.5678 223.192C18.7118 223.192 20.3278 222.04 20.3278 218.664V212.504H19.0478V218.696C19.0478 221.224 17.9598 222.024 16.5678 222.024C15.1918 222.024 14.1198 221.224 14.1198 218.696V212.504H12.7918V218.664C12.7918 222.04 14.4238 223.192 16.5678 223.192ZM25.3494 223.192C27.1894 223.192 28.1974 222.136 28.1974 220.872C28.1974 219.4 26.9494 218.936 25.8294 218.52C24.9494 218.184 24.1014 217.912 24.1014 217.176C24.1014 216.584 24.5494 216.056 25.5254 216.056C26.2134 216.056 26.7734 216.344 27.3014 216.744L27.9254 215.912C27.3334 215.432 26.4854 215.032 25.5094 215.032C23.8294 215.032 22.8374 215.992 22.8374 217.24C22.8374 218.552 24.0534 219.08 25.1574 219.48C26.0054 219.8 26.9334 220.152 26.9334 220.952C26.9334 221.624 26.4214 222.168 25.3974 222.168C24.4694 222.168 23.7814 221.784 23.1094 221.24L22.4534 222.12C23.1894 222.728 24.2454 223.192 25.3494 223.192ZM33.5281 223.192C34.5841 223.192 35.4161 222.824 36.0881 222.392L35.6241 221.528C35.0481 221.896 34.4241 222.136 33.6881 222.136C32.2001 222.136 31.1921 221.08 31.0961 219.432H36.3441C36.3761 219.24 36.3921 218.952 36.3921 218.68C36.3921 216.456 35.2721 215.032 33.2881 215.032C31.5121 215.032 29.8001 216.584 29.8001 219.128C29.8001 221.672 31.4481 223.192 33.5281 223.192ZM31.0801 218.488C31.2401 216.952 32.2321 216.072 33.3201 216.072C34.5361 216.072 35.2401 216.92 35.2401 218.488H31.0801ZM38.6691 223H39.9811V218.008C40.5091 216.696 41.2931 216.216 41.9491 216.216C42.2691 216.216 42.4451 216.264 42.7011 216.344L42.9571 215.192C42.7011 215.08 42.4611 215.032 42.1251 215.032C41.2451 215.032 40.4451 215.656 39.9171 216.632H39.8691L39.7571 215.224H38.6691V223ZM48.2582 223H49.5862V212.504H48.2582V223ZM52.6889 223H54.0009V217.368C54.7849 216.584 55.3289 216.168 56.1289 216.168C57.1529 216.168 57.6009 216.792 57.6009 218.248V223H58.9129V218.072C58.9129 216.088 58.1769 215.032 56.5449 215.032C55.4729 215.032 54.6729 215.608 53.9369 216.344H53.8889L53.7769 215.224H52.6889V223ZM64.2425 223.192C64.7225 223.192 65.2505 223.048 65.6825 222.904L65.4265 221.912C65.1705 222.008 64.8185 222.12 64.5465 222.12C63.6505 222.12 63.3465 221.576 63.3465 220.616V216.296H65.4425V215.224H63.3465V213.048H62.2425L62.0825 215.224L60.8665 215.304V216.296H62.0185V220.6C62.0185 222.136 62.5785 223.192 64.2425 223.192ZM70.4895 223.192C71.5455 223.192 72.3775 222.824 73.0495 222.392L72.5855 221.528C72.0095 221.896 71.3855 222.136 70.6495 222.136C69.1615 222.136 68.1535 221.08 68.0575 219.432H73.3055C73.3375 219.24 73.3535 218.952 73.3535 218.68C73.3535 216.456 72.2335 215.032 70.2495 215.032C68.4735 215.032 66.7615 216.584 66.7615 219.128C66.7615 221.672 68.4095 223.192 70.4895 223.192ZM68.0415 218.488C68.2015 216.952 69.1935 216.072 70.2815 216.072C71.4975 216.072 72.2015 216.92 72.2015 218.488H68.0415ZM75.6306 223H76.9426V218.008C77.4706 216.696 78.2546 216.216 78.9106 216.216C79.2306 216.216 79.4066 216.264 79.6626 216.344L79.9186 215.192C79.6626 215.08 79.4226 215.032 79.0866 215.032C78.2066 215.032 77.4066 215.656 76.8786 216.632H76.8306L76.7186 215.224H75.6306V223ZM83.6193 223H85.1553L87.9073 215.224H86.6113L85.1393 219.64C84.9153 220.408 84.6593 221.192 84.4353 221.928H84.3713C84.1313 221.192 83.8753 220.408 83.6513 219.64L82.1793 215.224H80.8193L83.6193 223ZM89.7636 223H91.0756V215.224H89.7636V223ZM90.4356 213.624C90.9476 213.624 91.3476 213.272 91.3476 212.776C91.3476 212.264 90.9476 211.928 90.4356 211.928C89.9236 211.928 89.5236 212.264 89.5236 212.776C89.5236 213.272 89.9236 213.624 90.4356 213.624ZM97.2086 223.192C98.2646 223.192 99.0966 222.824 99.7686 222.392L99.3046 221.528C98.7286 221.896 98.1046 222.136 97.3686 222.136C95.8806 222.136 94.8726 221.08 94.7766 219.432H100.025C100.057 219.24 100.073 218.952 100.073 218.68C100.073 216.456 98.9526 215.032 96.9686 215.032C95.1926 215.032 93.4806 216.584 93.4806 219.128C93.4806 221.672 95.1286 223.192 97.2086 223.192ZM94.7606 218.488C94.9206 216.952 95.9126 216.072 97.0006 216.072C98.2166 216.072 98.9206 216.92 98.9206 218.488H94.7606ZM103.66 223H105.196L106.284 218.84C106.492 218.104 106.652 217.368 106.828 216.584H106.892C107.084 217.368 107.228 218.088 107.42 218.824L108.54 223H110.14L112.22 215.224H110.972L109.836 219.72C109.676 220.456 109.532 221.16 109.356 221.88H109.292C109.116 221.16 108.94 220.456 108.748 219.72L107.532 215.224H106.252L105.052 219.72C104.86 220.44 104.7 221.16 104.524 221.88H104.46C104.316 221.16 104.172 220.456 103.996 219.72L102.844 215.224H101.5L103.66 223Z" fill="#858585"/>
<path d="M22.6202 275.192C25.2602 275.192 27.1162 273.08 27.1162 269.704C27.1162 266.36 25.2602 264.312 22.6202 264.312C19.9802 264.312 18.1402 266.344 18.1402 269.704C18.1402 273.08 19.9802 275.192 22.6202 275.192ZM22.6202 274.024C20.7482 274.024 19.5162 272.328 19.5162 269.704C19.5162 267.096 20.7482 265.48 22.6202 265.48C24.4922 265.48 25.7242 267.096 25.7242 269.704C25.7242 272.328 24.4922 274.024 22.6202 274.024ZM33.0407 275.192C34.8167 275.192 36.4007 273.64 36.4007 270.984C36.4007 268.584 35.3287 267.032 33.3127 267.032C32.4487 267.032 31.5847 267.496 30.8807 268.12L30.9127 266.712V263.608H29.6007V275H30.6567L30.7687 274.2H30.8167C31.5047 274.824 32.3207 275.192 33.0407 275.192ZM32.8167 274.088C32.3047 274.088 31.6007 273.864 30.9127 273.272V269.192C31.6487 268.504 32.3367 268.136 32.9927 268.136C34.4647 268.136 35.0407 269.288 35.0407 271C35.0407 272.92 34.0967 274.088 32.8167 274.088ZM40.832 275.192C42.672 275.192 43.68 274.136 43.68 272.872C43.68 271.4 42.432 270.936 41.312 270.52C40.432 270.184 39.584 269.912 39.584 269.176C39.584 268.584 40.032 268.056 41.008 268.056C41.696 268.056 42.256 268.344 42.784 268.744L43.408 267.912C42.816 267.432 41.968 267.032 40.992 267.032C39.312 267.032 38.32 267.992 38.32 269.24C38.32 270.552 39.536 271.08 40.64 271.48C41.488 271.8 42.416 272.152 42.416 272.952C42.416 273.624 41.904 274.168 40.88 274.168C39.952 274.168 39.264 273.784 38.592 273.24L37.936 274.12C38.672 274.728 39.728 275.192 40.832 275.192ZM49.0107 275.192C50.0667 275.192 50.8987 274.824 51.5707 274.392L51.1067 273.528C50.5307 273.896 49.9067 274.136 49.1707 274.136C47.6827 274.136 46.6747 273.08 46.5787 271.432H51.8267C51.8587 271.24 51.8747 270.952 51.8747 270.68C51.8747 268.456 50.7547 267.032 48.7707 267.032C46.9947 267.032 45.2827 268.584 45.2827 271.128C45.2827 273.672 46.9307 275.192 49.0107 275.192ZM46.5627 270.488C46.7227 268.952 47.7147 268.072 48.8027 268.072C50.0187 268.072 50.7227 268.92 50.7227 270.488H46.5627ZM54.1518 275H55.4638V270.008C55.9918 268.696 56.7758 268.216 57.4318 268.216C57.7518 268.216 57.9278 268.264 58.1838 268.344L58.4398 267.192C58.1838 267.08 57.9438 267.032 57.6078 267.032C56.7278 267.032 55.9278 267.656 55.3998 268.632H55.3518L55.2398 267.224H54.1518V275ZM62.1404 275H63.6764L66.4284 267.224H65.1324L63.6604 271.64C63.4364 272.408 63.1804 273.192 62.9564 273.928H62.8924C62.6524 273.192 62.3964 272.408 62.1724 271.64L60.7004 267.224H59.3404L62.1404 275ZM69.7642 275.192C70.7402 275.192 71.6042 274.68 72.3402 274.072H72.3882L72.5002 275H73.5882V270.232C73.5882 268.296 72.7882 267.032 70.8842 267.032C69.6362 267.032 68.5482 267.576 67.8282 268.04L68.3402 268.952C68.9482 268.536 69.7642 268.12 70.6602 268.12C71.9402 268.12 72.2602 269.08 72.2602 270.072C68.9482 270.44 67.4922 271.288 67.4922 272.984C67.4922 274.376 68.4682 275.192 69.7642 275.192ZM70.1482 274.136C69.3802 274.136 68.7722 273.768 68.7722 272.888C68.7722 271.896 69.6682 271.256 72.2602 270.936V273.096C71.5082 273.768 70.9002 274.136 70.1482 274.136ZM78.6195 275.192C79.0995 275.192 79.6275 275.048 80.0595 274.904L79.8035 273.912C79.5475 274.008 79.1955 274.12 78.9235 274.12C78.0275 274.12 77.7235 273.576 77.7235 272.616V268.296H79.8195V267.224H77.7235V265.048H76.6195L76.4595 267.224L75.2435 267.304V268.296H76.3955V272.6C76.3955 274.136 76.9555 275.192 78.6195 275.192ZM81.9334 275H83.2454V267.224H81.9334V275ZM82.6054 265.624C83.1174 265.624 83.5174 265.272 83.5174 264.776C83.5174 264.264 83.1174 263.928 82.6054 263.928C82.0934 263.928 81.6934 264.264 81.6934 264.776C81.6934 265.272 82.0934 265.624 82.6054 265.624ZM89.2504 275.192C91.1544 275.192 92.8504 273.704 92.8504 271.128C92.8504 268.52 91.1544 267.032 89.2504 267.032C87.3464 267.032 85.6504 268.52 85.6504 271.128C85.6504 273.704 87.3464 275.192 89.2504 275.192ZM89.2504 274.104C87.9224 274.104 87.0104 272.904 87.0104 271.128C87.0104 269.336 87.9224 268.12 89.2504 268.12C90.5944 268.12 91.4904 269.336 91.4904 271.128C91.4904 272.904 90.5944 274.104 89.2504 274.104ZM95.2538 275H96.5658V269.368C97.3498 268.584 97.8938 268.168 98.6938 268.168C99.7178 268.168 100.166 268.792 100.166 270.248V275H101.478V270.072C101.478 268.088 100.742 267.032 99.1098 267.032C98.0378 267.032 97.2378 267.608 96.5018 268.344H96.4538L96.3418 267.224H95.2538V275Z" fill="#858585"/>
<path d="M21.6556 302.192C23.0156 302.192 24.0396 301.632 24.8716 300.672L24.1356 299.84C23.4636 300.576 22.7116 301.024 21.7036 301.024C19.7196 301.024 18.4556 299.36 18.4556 296.72C18.4556 294.112 19.7676 292.48 21.7516 292.48C22.6476 292.48 23.3356 292.88 23.8956 293.472L24.6156 292.608C24.0076 291.92 23.0156 291.312 21.7356 291.312C19.0636 291.312 17.0796 293.376 17.0796 296.752C17.0796 300.176 19.0316 302.192 21.6556 302.192ZM28.8478 302.192C29.8238 302.192 30.6878 301.68 31.4238 301.072H31.4718L31.5838 302H32.6718V297.232C32.6718 295.296 31.8718 294.032 29.9678 294.032C28.7198 294.032 27.6318 294.576 26.9118 295.04L27.4238 295.952C28.0318 295.536 28.8478 295.12 29.7438 295.12C31.0238 295.12 31.3438 296.08 31.3438 297.072C28.0318 297.44 26.5758 298.288 26.5758 299.984C26.5758 301.376 27.5518 302.192 28.8478 302.192ZM29.2318 301.136C28.4638 301.136 27.8558 300.768 27.8558 299.888C27.8558 298.896 28.7518 298.256 31.3438 297.936V300.096C30.5918 300.768 29.9838 301.136 29.2318 301.136ZM35.4738 302H36.7858V297.008C37.3138 295.696 38.0978 295.216 38.7538 295.216C39.0738 295.216 39.2498 295.264 39.5058 295.344L39.7618 294.192C39.5058 294.08 39.2658 294.032 38.9298 294.032C38.0498 294.032 37.2498 294.656 36.7218 295.632H36.6738L36.5618 294.224H35.4738V302ZM43.876 302.192C44.788 302.192 45.62 301.68 46.228 301.088H46.276L46.388 302H47.476V290.608H46.148V293.6L46.212 294.928C45.524 294.368 44.932 294.032 44.036 294.032C42.26 294.032 40.66 295.6 40.66 298.128C40.66 300.72 41.924 302.192 43.876 302.192ZM44.164 301.088C42.804 301.088 42.02 299.968 42.02 298.112C42.02 296.336 43.012 295.136 44.26 295.136C44.9 295.136 45.492 295.36 46.148 295.952V300.016C45.508 300.736 44.884 301.088 44.164 301.088ZM57.0492 302.192C59.2572 302.192 60.6172 300.864 60.6172 299.2C60.6172 297.648 59.6732 296.928 58.4572 296.4L56.9692 295.76C56.1372 295.408 55.2252 295.024 55.2252 294.016C55.2252 293.072 56.0092 292.48 57.1772 292.48C58.1532 292.48 58.9212 292.864 59.5612 293.472L60.2812 292.608C59.5292 291.84 58.4252 291.312 57.1772 291.312C55.2732 291.312 53.8812 292.496 53.8812 294.096C53.8812 295.632 55.0172 296.384 56.0092 296.8L57.5132 297.456C58.5052 297.904 59.2572 298.24 59.2572 299.312C59.2572 300.336 58.4412 301.024 57.0652 301.024C55.9772 301.024 54.9212 300.496 54.1692 299.712L53.3692 300.64C54.2812 301.584 55.5772 302.192 57.0492 302.192ZM65.9357 302.192C67.8397 302.192 69.5357 300.704 69.5357 298.128C69.5357 295.52 67.8397 294.032 65.9357 294.032C64.0317 294.032 62.3357 295.52 62.3357 298.128C62.3357 300.704 64.0317 302.192 65.9357 302.192ZM65.9357 301.104C64.6077 301.104 63.6957 299.904 63.6957 298.128C63.6957 296.336 64.6077 295.12 65.9357 295.12C67.2797 295.12 68.1757 296.336 68.1757 298.128C68.1757 299.904 67.2797 301.104 65.9357 301.104ZM71.9391 302H73.2511V297.008C73.7791 295.696 74.5631 295.216 75.2191 295.216C75.5391 295.216 75.7151 295.264 75.9711 295.344L76.2271 294.192C75.9711 294.08 75.7311 294.032 75.3951 294.032C74.5151 294.032 73.7151 294.656 73.1871 295.632H73.1391L73.0271 294.224H71.9391V302ZM80.2895 302.192C80.7695 302.192 81.2975 302.048 81.7295 301.904L81.4735 300.912C81.2175 301.008 80.8655 301.12 80.5935 301.12C79.6975 301.12 79.3935 300.576 79.3935 299.616V295.296H81.4895V294.224H79.3935V292.048H78.2895L78.1295 294.224L76.9135 294.304V295.296H78.0655V299.6C78.0655 301.136 78.6255 302.192 80.2895 302.192ZM83.6033 302H84.9153V294.224H83.6033V302ZM84.2753 292.624C84.7873 292.624 85.1873 292.272 85.1873 291.776C85.1873 291.264 84.7873 290.928 84.2753 290.928C83.7633 290.928 83.3633 291.264 83.3633 291.776C83.3633 292.272 83.7633 292.624 84.2753 292.624ZM87.8964 302H89.2084V296.368C89.9924 295.584 90.5364 295.168 91.3364 295.168C92.3604 295.168 92.8084 295.792 92.8084 297.248V302H94.1204V297.072C94.1204 295.088 93.3844 294.032 91.7524 294.032C90.6804 294.032 89.8804 294.608 89.1444 295.344H89.0964L88.9844 294.224H87.8964V302ZM99.6259 305.584C102.042 305.584 103.562 304.336 103.562 302.896C103.562 301.6 102.65 301.04 100.842 301.04H99.3379C98.2819 301.04 97.9619 300.688 97.9619 300.192C97.9619 299.76 98.1859 299.504 98.4579 299.264C98.8099 299.44 99.2419 299.536 99.6259 299.536C101.21 299.536 102.474 298.496 102.474 296.832C102.474 296.176 102.202 295.584 101.834 295.232H103.434V294.224H100.73C100.442 294.112 100.058 294.032 99.6259 294.032C98.0419 294.032 96.6979 295.104 96.6979 296.8C96.6979 297.728 97.1939 298.48 97.7059 298.896V298.96C97.3059 299.232 96.8579 299.744 96.8579 300.4C96.8579 301.008 97.1619 301.424 97.5459 301.664V301.728C96.8419 302.208 96.4099 302.832 96.4099 303.488C96.4099 304.832 97.7219 305.584 99.6259 305.584ZM99.6259 298.656C98.7299 298.656 97.9779 297.936 97.9779 296.8C97.9779 295.664 98.7139 294.992 99.6259 294.992C100.538 294.992 101.274 295.664 101.274 296.8C101.274 297.936 100.522 298.656 99.6259 298.656ZM99.8179 304.672C98.4099 304.672 97.5619 304.144 97.5619 303.312C97.5619 302.864 97.8019 302.4 98.3619 302C98.6979 302.096 99.0659 302.128 99.3699 302.128H100.714C101.722 302.128 102.282 302.368 102.282 303.088C102.282 303.904 101.306 304.672 99.8179 304.672Z" fill="#858585"/>
<path d="M4.78114 249H10.9891V247.864H6.10914V244.056H10.0931V242.92H6.10914V239.624H10.8291V238.504H4.78114V249ZM11.8582 249H13.2342L14.2902 247.192C14.5462 246.712 14.8022 246.248 15.0742 245.8H15.1382C15.4262 246.248 15.7142 246.728 15.9862 247.192L17.1222 249H18.5462L16.0182 245.08L18.3702 241.224H16.9942L16.0502 242.936C15.8102 243.352 15.5702 243.8 15.3462 244.232H15.2822C15.0102 243.8 14.7542 243.352 14.5142 242.936L13.4742 241.224H12.0502L14.4022 244.936L11.8582 249ZM20.4424 252.28H21.7544V249.656L21.7224 248.296C22.4424 248.856 23.1624 249.192 23.8824 249.192C25.6584 249.192 27.2424 247.64 27.2424 245C27.2424 242.584 26.1704 241.032 24.1704 241.032C23.2584 241.032 22.3944 241.528 21.6904 242.12H21.6424L21.5304 241.224H20.4424V252.28ZM23.6584 248.088C23.1464 248.088 22.4584 247.864 21.7544 247.272V243.192C22.5224 242.504 23.1784 242.136 23.8344 242.136C25.3064 242.136 25.8824 243.288 25.8824 245C25.8824 246.92 24.9384 248.088 23.6584 248.088ZM32.8249 249.192C33.8809 249.192 34.7129 248.824 35.3849 248.392L34.9209 247.528C34.3449 247.896 33.7209 248.136 32.9849 248.136C31.4969 248.136 30.4889 247.08 30.3929 245.432H35.6409C35.6729 245.24 35.6889 244.952 35.6889 244.68C35.6889 242.456 34.5689 241.032 32.5849 241.032C30.8089 241.032 29.0969 242.584 29.0969 245.128C29.0969 247.672 30.7449 249.192 32.8249 249.192ZM30.3769 244.488C30.5369 242.952 31.5289 242.072 32.6169 242.072C33.8329 242.072 34.5369 242.92 34.5369 244.488H30.3769ZM37.966 249H39.278V244.008C39.806 242.696 40.59 242.216 41.246 242.216C41.566 242.216 41.742 242.264 41.998 242.344L42.254 241.192C41.998 241.08 41.758 241.032 41.422 241.032C40.542 241.032 39.742 241.656 39.214 242.632H39.166L39.054 241.224H37.966V249ZM46.3164 249.192C46.7964 249.192 47.3244 249.048 47.7564 248.904L47.5004 247.912C47.2444 248.008 46.8924 248.12 46.6204 248.12C45.7244 248.12 45.4204 247.576 45.4204 246.616V242.296H47.5164V241.224H45.4204V239.048H44.3164L44.1564 241.224L42.9404 241.304V242.296H44.0924V246.6C44.0924 248.136 44.6524 249.192 46.3164 249.192ZM53.3169 249H54.6449V238.504H53.3169V249ZM57.7476 249H59.0596V243.368C59.8436 242.584 60.3876 242.168 61.1876 242.168C62.2116 242.168 62.6596 242.792 62.6596 244.248V249H63.9716V244.072C63.9716 242.088 63.2356 241.032 61.6036 241.032C60.5316 241.032 59.7316 241.608 58.9956 242.344H58.9476L58.8356 241.224H57.7476V249ZM69.3011 249.192C69.7811 249.192 70.3091 249.048 70.7411 248.904L70.4851 247.912C70.2291 248.008 69.8771 248.12 69.6051 248.12C68.7091 248.12 68.4051 247.576 68.4051 246.616V242.296H70.5011V241.224H68.4051V239.048H67.3011L67.1411 241.224L65.9251 241.304V242.296H67.0771V246.6C67.0771 248.136 67.6371 249.192 69.3011 249.192ZM75.5482 249.192C76.6042 249.192 77.4362 248.824 78.1082 248.392L77.6442 247.528C77.0682 247.896 76.4442 248.136 75.7082 248.136C74.2202 248.136 73.2122 247.08 73.1162 245.432H78.3642C78.3962 245.24 78.4122 244.952 78.4122 244.68C78.4122 242.456 77.2922 241.032 75.3082 241.032C73.5322 241.032 71.8202 242.584 71.8202 245.128C71.8202 247.672 73.4682 249.192 75.5482 249.192ZM73.1002 244.488C73.2602 242.952 74.2522 242.072 75.3402 242.072C76.5562 242.072 77.2602 242.92 77.2602 244.488H73.1002ZM80.6893 249H82.0013V244.008C82.5293 242.696 83.3133 242.216 83.9693 242.216C84.2893 242.216 84.4653 242.264 84.7213 242.344L84.9773 241.192C84.7213 241.08 84.4813 241.032 84.1453 241.032C83.2653 241.032 82.4653 241.656 81.9373 242.632H81.8893L81.7773 241.224H80.6893V249ZM88.6779 249H90.2139L92.9659 241.224H91.6699L90.1979 245.64C89.9739 246.408 89.7179 247.192 89.4939 247.928H89.4299C89.1899 247.192 88.9339 246.408 88.7099 245.64L87.2379 241.224H85.8779L88.6779 249ZM94.8222 249H96.1342V241.224H94.8222V249ZM95.4942 239.624C96.0062 239.624 96.4062 239.272 96.4062 238.776C96.4062 238.264 96.0062 237.928 95.4942 237.928C94.9822 237.928 94.5822 238.264 94.5822 238.776C94.5822 239.272 94.9822 239.624 95.4942 239.624ZM102.267 249.192C103.323 249.192 104.155 248.824 104.827 248.392L104.363 247.528C103.787 247.896 103.163 248.136 102.427 248.136C100.939 248.136 99.9313 247.08 99.8353 245.432H105.083C105.115 245.24 105.131 244.952 105.131 244.68C105.131 242.456 104.011 241.032 102.027 241.032C100.251 241.032 98.5393 242.584 98.5393 245.128C98.5393 247.672 100.187 249.192 102.267 249.192ZM99.8193 244.488C99.9793 242.952 100.971 242.072 102.059 242.072C103.275 242.072 103.979 242.92 103.979 244.488H99.8193ZM108.718 249H110.254L111.342 244.84C111.55 244.104 111.71 243.368 111.886 242.584H111.95C112.142 243.368 112.286 244.088 112.478 244.824L113.598 249H115.198L117.278 241.224H116.03L114.894 245.72C114.734 246.456 114.59 247.16 114.414 247.88H114.35C114.174 247.16 113.998 246.456 113.806 245.72L112.59 241.224H111.31L110.11 245.72C109.918 246.44 109.758 247.16 109.582 247.88H109.518C109.374 247.16 109.23 246.456 109.054 245.72L107.902 241.224H106.558L108.718 249Z" fill="#858585"/>
<defs>
<clipPath id="clip0">
<rect width="1108" height="165" fill="white" transform="translate(10)"/>
</clipPath>
<clipPath id="clip1">
<rect width="113" height="89" fill="white" transform="translate(578 26)"/>
</clipPath>
</defs>
</svg>
