<svg width="630" height="234" viewBox="0 0 630 234" fill="none" xmlns="http://www.w3.org/2000/svg">
<path opacity="0.0910296" d="M353.979 12.3109C365.392 20.0628 374.376 31.4267 380.356 44.2909C386.363 57.1829 389.366 71.5753 387.4 85.2175C385.435 98.8875 378.472 111.779 369.024 121.921C359.576 132.062 347.617 139.481 334.319 144.371C321.049 149.289 306.468 151.678 292.733 148.677C279.026 145.677 266.165 137.258 257.182 125.894C248.226 114.53 243.12 100.193 241.536 85.6621C239.952 71.103 241.864 56.3772 247.461 43.124C253.059 29.8708 262.37 18.1179 274.22 10.5605C286.071 3.00314 300.433 -0.358791 314.55 0.0301926C328.667 0.419176 342.538 4.55907 353.979 12.3109Z" fill="#A2A2A2"/>
<path d="M34.471 73.96C35.367 73.96 36.047 73.912 36.511 73.816V70.6C36.351 70.552 36.119 70.504 35.815 70.456C35.511 70.408 35.175 70.384 34.807 70.384C34.487 70.384 34.159 70.408 33.823 70.456C33.503 70.504 33.207 70.592 32.935 70.72C32.679 70.848 32.471 71.032 32.311 71.272C32.151 71.496 32.071 71.784 32.071 72.136C32.071 72.824 32.287 73.304 32.719 73.576C33.151 73.832 33.735 73.96 34.471 73.96ZM34.231 63.136C35.191 63.136 35.999 63.256 36.655 63.496C37.311 63.736 37.831 64.072 38.215 64.504C38.615 64.936 38.895 65.464 39.055 66.088C39.231 66.696 39.319 67.368 39.319 68.104V75.712C38.871 75.808 38.191 75.92 37.279 76.048C36.383 76.192 35.367 76.264 34.231 76.264C33.479 76.264 32.791 76.192 32.167 76.048C31.543 75.904 31.007 75.672 30.559 75.352C30.127 75.032 29.783 74.616 29.527 74.104C29.287 73.592 29.167 72.96 29.167 72.208C29.167 71.488 29.303 70.88 29.575 70.384C29.863 69.888 30.247 69.488 30.727 69.184C31.207 68.864 31.759 68.64 32.383 68.512C33.023 68.368 33.687 68.296 34.375 68.296C34.695 68.296 35.031 68.32 35.383 68.368C35.735 68.4 36.111 68.464 36.511 68.56V68.08C36.511 67.744 36.471 67.424 36.391 67.12C36.311 66.816 36.167 66.552 35.959 66.328C35.767 66.088 35.503 65.904 35.167 65.776C34.847 65.648 34.439 65.584 33.943 65.584C33.271 65.584 32.655 65.632 32.095 65.728C31.535 65.824 31.079 65.936 30.727 66.064L30.367 63.712C30.735 63.584 31.271 63.456 31.975 63.328C32.679 63.2 33.431 63.136 34.231 63.136ZM47.9933 76.24C47.1293 76.224 46.4093 76.128 45.8333 75.952C45.2733 75.776 44.8253 75.528 44.4893 75.208C44.1533 74.872 43.9133 74.464 43.7693 73.984C43.6413 73.488 43.5773 72.928 43.5773 72.304V57.856L46.4813 57.376V71.752C46.4813 72.104 46.5053 72.4 46.5533 72.64C46.6173 72.88 46.7213 73.088 46.8653 73.264C47.0093 73.424 47.2013 73.552 47.4413 73.648C47.6973 73.728 48.0173 73.792 48.4013 73.84L47.9933 76.24ZM54.4283 76H51.5243V63.448H54.4283V76ZM54.7403 59.776C54.7403 60.32 54.5643 60.752 54.2123 61.072C53.8603 61.392 53.4443 61.552 52.9643 61.552C52.4683 61.552 52.0443 61.392 51.6923 61.072C51.3403 60.752 51.1643 60.32 51.1643 59.776C51.1643 59.216 51.3403 58.776 51.6923 58.456C52.0443 58.136 52.4683 57.976 52.9643 57.976C53.4443 57.976 53.8603 58.136 54.2123 58.456C54.5643 58.776 54.7403 59.216 54.7403 59.776ZM61.1632 69.4C61.1632 70.632 61.4272 71.536 61.9552 72.112C62.4992 72.672 63.1952 72.952 64.0432 72.952C64.5072 72.952 64.9392 72.888 65.3392 72.76C65.7552 72.632 66.0912 72.48 66.3472 72.304V65.8C66.1392 65.752 65.8832 65.712 65.5792 65.68C65.2752 65.632 64.8912 65.608 64.4272 65.608C63.3712 65.608 62.5632 65.96 62.0032 66.664C61.4432 67.352 61.1632 68.264 61.1632 69.4ZM69.2512 74.728C69.2512 76.728 68.7392 78.192 67.7152 79.12C66.7072 80.048 65.1552 80.512 63.0592 80.512C62.2912 80.512 61.5392 80.448 60.8032 80.32C60.0832 80.192 59.4272 80.024 58.8352 79.816L59.3632 77.344C59.8592 77.552 60.4192 77.72 61.0432 77.848C61.6832 77.976 62.3712 78.04 63.1072 78.04C64.2752 78.04 65.1072 77.8 65.6032 77.32C66.0992 76.84 66.3472 76.128 66.3472 75.184V74.704C66.0592 74.848 65.6752 74.992 65.1952 75.136C64.7312 75.28 64.1952 75.352 63.5872 75.352C62.7872 75.352 62.0512 75.224 61.3792 74.968C60.7232 74.712 60.1552 74.336 59.6752 73.84C59.2112 73.344 58.8432 72.728 58.5712 71.992C58.3152 71.24 58.1872 70.376 58.1872 69.4C58.1872 68.488 58.3232 67.648 58.5952 66.88C58.8832 66.112 59.2912 65.456 59.8192 64.912C60.3632 64.368 61.0192 63.944 61.7872 63.64C62.5552 63.336 63.4272 63.184 64.4032 63.184C65.3472 63.184 66.2432 63.256 67.0912 63.4C67.9392 63.544 68.6592 63.696 69.2512 63.856V74.728ZM73.6957 63.856C74.2557 63.696 74.9837 63.544 75.8797 63.4C76.7757 63.256 77.7677 63.184 78.8557 63.184C79.8797 63.184 80.7357 63.328 81.4237 63.616C82.1117 63.888 82.6557 64.28 83.0557 64.792C83.4717 65.288 83.7597 65.896 83.9197 66.616C84.0957 67.32 84.1837 68.096 84.1837 68.944V76H81.2797V69.4C81.2797 68.728 81.2317 68.16 81.1357 67.696C81.0557 67.216 80.9117 66.832 80.7037 66.544C80.5117 66.24 80.2397 66.024 79.8877 65.896C79.5517 65.752 79.1357 65.68 78.6397 65.68C78.2717 65.68 77.8877 65.704 77.4877 65.752C77.0877 65.8 76.7917 65.84 76.5997 65.872V76H73.6957V63.856ZM94.6923 60.136L97.5963 59.656V63.448H102.06V65.872H97.5963V70.984C97.5963 71.992 97.7563 72.712 98.0763 73.144C98.3963 73.576 98.9403 73.792 99.7083 73.792C100.236 73.792 100.7 73.736 101.1 73.624C101.516 73.512 101.844 73.408 102.084 73.312L102.564 75.616C102.228 75.76 101.788 75.904 101.244 76.048C100.7 76.208 100.06 76.288 99.3243 76.288C98.4283 76.288 97.6763 76.168 97.0683 75.928C96.4763 75.688 96.0043 75.344 95.6523 74.896C95.3003 74.432 95.0523 73.88 94.9083 73.24C94.7643 72.584 94.6923 71.84 94.6923 71.008V60.136ZM105.618 76V57.856L108.522 57.376V63.592C108.842 63.48 109.21 63.384 109.626 63.304C110.058 63.224 110.482 63.184 110.898 63.184C111.906 63.184 112.738 63.328 113.394 63.616C114.066 63.888 114.602 64.28 115.002 64.792C115.402 65.288 115.682 65.888 115.842 66.592C116.018 67.296 116.106 68.08 116.106 68.944V76H113.202V69.4C113.202 68.728 113.154 68.16 113.058 67.696C112.978 67.216 112.834 66.832 112.626 66.544C112.434 66.24 112.17 66.024 111.834 65.896C111.498 65.752 111.082 65.68 110.586 65.68C110.202 65.68 109.81 65.72 109.41 65.8C109.01 65.88 108.714 65.952 108.522 66.016V76H105.618ZM119.64 69.784C119.64 68.68 119.8 67.712 120.12 66.88C120.456 66.048 120.896 65.36 121.44 64.816C121.984 64.256 122.608 63.84 123.312 63.568C124.016 63.28 124.736 63.136 125.472 63.136C127.2 63.136 128.544 63.672 129.504 64.744C130.48 65.816 130.968 67.416 130.968 69.544C130.968 69.704 130.96 69.888 130.944 70.096C130.944 70.288 130.936 70.464 130.92 70.624H122.64C122.72 71.632 123.072 72.416 123.696 72.976C124.336 73.52 125.256 73.792 126.456 73.792C127.16 73.792 127.8 73.728 128.376 73.6C128.968 73.472 129.432 73.336 129.768 73.192L130.152 75.568C129.992 75.648 129.768 75.736 129.48 75.832C129.208 75.912 128.888 75.984 128.52 76.048C128.168 76.128 127.784 76.192 127.368 76.24C126.952 76.288 126.528 76.312 126.096 76.312C124.992 76.312 124.032 76.152 123.216 75.832C122.4 75.496 121.728 75.04 121.2 74.464C120.672 73.872 120.28 73.184 120.024 72.4C119.768 71.6 119.64 70.728 119.64 69.784ZM128.064 68.488C128.064 68.088 128.008 67.712 127.896 67.36C127.784 66.992 127.616 66.68 127.392 66.424C127.184 66.152 126.92 65.944 126.6 65.8C126.296 65.64 125.928 65.56 125.496 65.56C125.048 65.56 124.656 65.648 124.32 65.824C123.984 65.984 123.696 66.2 123.456 66.472C123.232 66.744 123.056 67.056 122.928 67.408C122.8 67.76 122.712 68.12 122.664 68.488H128.064ZM145.517 76.24C144.653 76.224 143.933 76.128 143.357 75.952C142.797 75.776 142.349 75.528 142.013 75.208C141.677 74.872 141.437 74.464 141.293 73.984C141.165 73.488 141.101 72.928 141.101 72.304V57.856L144.005 57.376V71.752C144.005 72.104 144.029 72.4 144.077 72.64C144.141 72.88 144.245 73.088 144.389 73.264C144.533 73.424 144.725 73.552 144.965 73.648C145.221 73.728 145.541 73.792 145.925 73.84L145.517 76.24ZM148.328 69.784C148.328 68.68 148.488 67.712 148.808 66.88C149.144 66.048 149.584 65.36 150.128 64.816C150.672 64.256 151.296 63.84 152 63.568C152.704 63.28 153.424 63.136 154.16 63.136C155.888 63.136 157.232 63.672 158.192 64.744C159.168 65.816 159.656 67.416 159.656 69.544C159.656 69.704 159.648 69.888 159.632 70.096C159.632 70.288 159.624 70.464 159.608 70.624H151.328C151.408 71.632 151.76 72.416 152.384 72.976C153.024 73.52 153.944 73.792 155.144 73.792C155.848 73.792 156.488 73.728 157.064 73.6C157.656 73.472 158.12 73.336 158.456 73.192L158.84 75.568C158.68 75.648 158.456 75.736 158.168 75.832C157.896 75.912 157.576 75.984 157.208 76.048C156.856 76.128 156.472 76.192 156.056 76.24C155.64 76.288 155.216 76.312 154.784 76.312C153.68 76.312 152.72 76.152 151.904 75.832C151.088 75.496 150.416 75.04 149.888 74.464C149.36 73.872 148.968 73.184 148.712 72.4C148.456 71.6 148.328 70.728 148.328 69.784ZM156.752 68.488C156.752 68.088 156.696 67.712 156.584 67.36C156.472 66.992 156.304 66.68 156.08 66.424C155.872 66.152 155.608 65.944 155.288 65.8C154.984 65.64 154.616 65.56 154.184 65.56C153.736 65.56 153.344 65.648 153.008 65.824C152.672 65.984 152.384 66.2 152.144 66.472C151.92 66.744 151.744 67.056 151.616 67.408C151.488 67.76 151.4 68.12 151.352 68.488H156.752ZM167.901 73.96C168.797 73.96 169.477 73.912 169.941 73.816V70.6C169.781 70.552 169.549 70.504 169.245 70.456C168.941 70.408 168.605 70.384 168.237 70.384C167.917 70.384 167.589 70.408 167.253 70.456C166.933 70.504 166.637 70.592 166.365 70.72C166.109 70.848 165.901 71.032 165.741 71.272C165.581 71.496 165.501 71.784 165.501 72.136C165.501 72.824 165.717 73.304 166.149 73.576C166.581 73.832 167.165 73.96 167.901 73.96ZM167.661 63.136C168.621 63.136 169.429 63.256 170.085 63.496C170.741 63.736 171.261 64.072 171.645 64.504C172.045 64.936 172.325 65.464 172.485 66.088C172.661 66.696 172.749 67.368 172.749 68.104V75.712C172.301 75.808 171.621 75.92 170.709 76.048C169.813 76.192 168.797 76.264 167.661 76.264C166.909 76.264 166.221 76.192 165.597 76.048C164.973 75.904 164.437 75.672 163.989 75.352C163.557 75.032 163.213 74.616 162.957 74.104C162.717 73.592 162.597 72.96 162.597 72.208C162.597 71.488 162.733 70.88 163.005 70.384C163.293 69.888 163.677 69.488 164.157 69.184C164.637 68.864 165.189 68.64 165.813 68.512C166.453 68.368 167.117 68.296 167.805 68.296C168.125 68.296 168.461 68.32 168.813 68.368C169.165 68.4 169.541 68.464 169.941 68.56V68.08C169.941 67.744 169.901 67.424 169.821 67.12C169.741 66.816 169.597 66.552 169.389 66.328C169.197 66.088 168.933 65.904 168.597 65.776C168.277 65.648 167.869 65.584 167.373 65.584C166.701 65.584 166.085 65.632 165.525 65.728C164.965 65.824 164.509 65.936 164.157 66.064L163.797 63.712C164.165 63.584 164.701 63.456 165.405 63.328C166.109 63.2 166.861 63.136 167.661 63.136ZM184.207 66.064C183.967 65.984 183.631 65.904 183.199 65.824C182.783 65.728 182.295 65.68 181.735 65.68C181.415 65.68 181.071 65.712 180.703 65.776C180.351 65.84 180.103 65.896 179.959 65.944V76H177.055V64.048C177.615 63.84 178.311 63.648 179.143 63.472C179.991 63.28 180.927 63.184 181.951 63.184C182.143 63.184 182.367 63.2 182.623 63.232C182.879 63.248 183.135 63.28 183.391 63.328C183.647 63.36 183.895 63.408 184.135 63.472C184.375 63.52 184.567 63.568 184.711 63.616L184.207 66.064ZM187.485 63.856C188.045 63.696 188.773 63.544 189.669 63.4C190.565 63.256 191.557 63.184 192.645 63.184C193.669 63.184 194.525 63.328 195.213 63.616C195.901 63.888 196.445 64.28 196.845 64.792C197.261 65.288 197.549 65.896 197.709 66.616C197.885 67.32 197.973 68.096 197.973 68.944V76H195.069V69.4C195.069 68.728 195.021 68.16 194.925 67.696C194.845 67.216 194.701 66.832 194.493 66.544C194.301 66.24 194.029 66.024 193.677 65.896C193.341 65.752 192.925 65.68 192.429 65.68C192.061 65.68 191.677 65.704 191.277 65.752C190.877 65.8 190.581 65.84 190.389 65.872V76H187.485V63.856ZM205.202 76H202.298V63.448H205.202V76ZM205.514 59.776C205.514 60.32 205.338 60.752 204.986 61.072C204.634 61.392 204.218 61.552 203.738 61.552C203.242 61.552 202.818 61.392 202.466 61.072C202.114 60.752 201.938 60.32 201.938 59.776C201.938 59.216 202.114 58.776 202.466 58.456C202.818 58.136 203.242 57.976 203.738 57.976C204.218 57.976 204.634 58.136 204.986 58.456C205.338 58.776 205.514 59.216 205.514 59.776ZM209.657 63.856C210.217 63.696 210.945 63.544 211.841 63.4C212.737 63.256 213.729 63.184 214.817 63.184C215.841 63.184 216.697 63.328 217.385 63.616C218.073 63.888 218.617 64.28 219.017 64.792C219.433 65.288 219.721 65.896 219.881 66.616C220.057 67.32 220.145 68.096 220.145 68.944V76H217.241V69.4C217.241 68.728 217.193 68.16 217.097 67.696C217.017 67.216 216.873 66.832 216.665 66.544C216.473 66.24 216.201 66.024 215.849 65.896C215.513 65.752 215.097 65.68 214.601 65.68C214.233 65.68 213.849 65.704 213.449 65.752C213.049 65.8 212.753 65.84 212.561 65.872V76H209.657V63.856ZM226.726 69.4C226.726 70.632 226.99 71.536 227.518 72.112C228.062 72.672 228.758 72.952 229.606 72.952C230.07 72.952 230.502 72.888 230.902 72.76C231.318 72.632 231.654 72.48 231.91 72.304V65.8C231.702 65.752 231.446 65.712 231.142 65.68C230.838 65.632 230.454 65.608 229.99 65.608C228.934 65.608 228.126 65.96 227.566 66.664C227.006 67.352 226.726 68.264 226.726 69.4ZM234.814 74.728C234.814 76.728 234.302 78.192 233.278 79.12C232.27 80.048 230.718 80.512 228.622 80.512C227.854 80.512 227.102 80.448 226.366 80.32C225.646 80.192 224.99 80.024 224.398 79.816L224.926 77.344C225.422 77.552 225.982 77.72 226.606 77.848C227.246 77.976 227.934 78.04 228.67 78.04C229.838 78.04 230.67 77.8 231.166 77.32C231.662 76.84 231.91 76.128 231.91 75.184V74.704C231.622 74.848 231.238 74.992 230.758 75.136C230.294 75.28 229.758 75.352 229.15 75.352C228.35 75.352 227.614 75.224 226.942 74.968C226.286 74.712 225.718 74.336 225.238 73.84C224.774 73.344 224.406 72.728 224.134 71.992C223.878 71.24 223.75 70.376 223.75 69.4C223.75 68.488 223.886 67.648 224.158 66.88C224.446 66.112 224.854 65.456 225.382 64.912C225.926 64.368 226.582 63.944 227.35 63.64C228.118 63.336 228.99 63.184 229.966 63.184C230.91 63.184 231.806 63.256 232.654 63.4C233.502 63.544 234.222 63.696 234.814 63.856V74.728ZM256.962 69.712C256.962 70.704 256.818 71.608 256.53 72.424C256.242 73.24 255.834 73.936 255.306 74.512C254.778 75.088 254.138 75.536 253.386 75.856C252.65 76.176 251.834 76.336 250.938 76.336C250.042 76.336 249.226 76.176 248.49 75.856C247.754 75.536 247.122 75.088 246.594 74.512C246.066 73.936 245.65 73.24 245.346 72.424C245.058 71.608 244.914 70.704 244.914 69.712C244.914 68.72 245.058 67.824 245.346 67.024C245.65 66.208 246.066 65.512 246.594 64.936C247.138 64.36 247.778 63.92 248.514 63.616C249.25 63.296 250.058 63.136 250.938 63.136C251.818 63.136 252.626 63.296 253.362 63.616C254.114 63.92 254.754 64.36 255.282 64.936C255.81 65.512 256.218 66.208 256.506 67.024C256.81 67.824 256.962 68.72 256.962 69.712ZM253.986 69.712C253.986 68.464 253.714 67.48 253.17 66.76C252.642 66.024 251.898 65.656 250.938 65.656C249.978 65.656 249.226 66.024 248.682 66.76C248.154 67.48 247.89 68.464 247.89 69.712C247.89 70.976 248.154 71.976 248.682 72.712C249.226 73.448 249.978 73.816 250.938 73.816C251.898 73.816 252.642 73.448 253.17 72.712C253.714 71.976 253.986 70.976 253.986 69.712ZM269.031 69.688C269.031 68.456 268.783 67.48 268.287 66.76C267.807 66.04 267.039 65.68 265.983 65.68C265.503 65.68 265.047 65.752 264.615 65.896C264.199 66.04 263.863 66.2 263.607 66.376V73.6C263.815 73.648 264.079 73.696 264.399 73.744C264.735 73.776 265.135 73.792 265.599 73.792C266.671 73.792 267.511 73.432 268.119 72.712C268.727 71.976 269.031 70.968 269.031 69.688ZM272.007 69.736C272.007 70.744 271.855 71.656 271.551 72.472C271.263 73.272 270.839 73.96 270.279 74.536C269.735 75.112 269.071 75.552 268.287 75.856C267.503 76.16 266.615 76.312 265.623 76.312C264.663 76.312 263.743 76.24 262.863 76.096C261.999 75.952 261.279 75.792 260.703 75.616V57.856L263.607 57.376V63.88C263.943 63.704 264.351 63.544 264.831 63.4C265.327 63.256 265.871 63.184 266.463 63.184C267.343 63.184 268.127 63.344 268.815 63.664C269.519 63.968 270.103 64.408 270.567 64.984C271.031 65.56 271.383 66.256 271.623 67.072C271.879 67.872 272.007 68.76 272.007 69.736ZM274.142 80.464C273.934 80.464 273.646 80.44 273.278 80.392C272.894 80.36 272.558 80.288 272.27 80.176L272.654 77.8C273.006 77.912 273.43 77.968 273.926 77.968C274.598 77.968 275.07 77.768 275.342 77.368C275.614 76.984 275.75 76.4 275.75 75.616V63.448H278.654V75.664C278.654 77.296 278.262 78.504 277.478 79.288C276.71 80.072 275.598 80.464 274.142 80.464ZM278.966 59.776C278.966 60.32 278.79 60.752 278.438 61.072C278.086 61.392 277.67 61.552 277.19 61.552C276.694 61.552 276.27 61.392 275.918 61.072C275.566 60.752 275.39 60.32 275.39 59.776C275.39 59.216 275.566 58.776 275.918 58.456C276.27 58.136 276.694 57.976 277.19 57.976C277.67 57.976 278.086 58.136 278.438 58.456C278.79 58.776 278.966 59.216 278.966 59.776ZM282.414 69.784C282.414 68.68 282.574 67.712 282.894 66.88C283.23 66.048 283.67 65.36 284.214 64.816C284.758 64.256 285.382 63.84 286.086 63.568C286.79 63.28 287.51 63.136 288.246 63.136C289.974 63.136 291.318 63.672 292.278 64.744C293.254 65.816 293.742 67.416 293.742 69.544C293.742 69.704 293.734 69.888 293.718 70.096C293.718 70.288 293.71 70.464 293.694 70.624H285.414C285.494 71.632 285.846 72.416 286.47 72.976C287.11 73.52 288.03 73.792 289.23 73.792C289.934 73.792 290.574 73.728 291.15 73.6C291.742 73.472 292.206 73.336 292.542 73.192L292.926 75.568C292.766 75.648 292.542 75.736 292.254 75.832C291.982 75.912 291.662 75.984 291.294 76.048C290.942 76.128 290.558 76.192 290.142 76.24C289.726 76.288 289.302 76.312 288.87 76.312C287.766 76.312 286.806 76.152 285.99 75.832C285.174 75.496 284.502 75.04 283.974 74.464C283.446 73.872 283.054 73.184 282.798 72.4C282.542 71.6 282.414 70.728 282.414 69.784ZM290.838 68.488C290.838 68.088 290.782 67.712 290.67 67.36C290.558 66.992 290.39 66.68 290.166 66.424C289.958 66.152 289.694 65.944 289.374 65.8C289.07 65.64 288.702 65.56 288.27 65.56C287.822 65.56 287.43 65.648 287.094 65.824C286.758 65.984 286.47 66.2 286.23 66.472C286.006 66.744 285.83 67.056 285.702 67.408C285.574 67.76 285.486 68.12 285.438 68.488H290.838ZM296.875 69.736C296.875 68.808 297.019 67.944 297.307 67.144C297.595 66.328 298.003 65.624 298.531 65.032C299.075 64.44 299.731 63.976 300.499 63.64C301.267 63.304 302.131 63.136 303.091 63.136C304.275 63.136 305.395 63.352 306.451 63.784L305.827 66.16C305.491 66.016 305.107 65.896 304.675 65.8C304.259 65.704 303.811 65.656 303.331 65.656C302.195 65.656 301.331 66.016 300.739 66.736C300.147 67.44 299.851 68.44 299.851 69.736C299.851 70.984 300.131 71.976 300.691 72.712C301.251 73.432 302.195 73.792 303.523 73.792C304.019 73.792 304.507 73.744 304.987 73.648C305.467 73.552 305.883 73.432 306.235 73.288L306.643 75.688C306.323 75.848 305.835 75.992 305.179 76.12C304.539 76.248 303.875 76.312 303.187 76.312C302.115 76.312 301.179 76.152 300.379 75.832C299.595 75.496 298.939 75.04 298.411 74.464C297.899 73.872 297.515 73.176 297.259 72.376C297.003 71.56 296.875 70.68 296.875 69.736ZM309.497 60.136L312.401 59.656V63.448H316.865V65.872H312.401V70.984C312.401 71.992 312.561 72.712 312.881 73.144C313.201 73.576 313.745 73.792 314.513 73.792C315.041 73.792 315.505 73.736 315.905 73.624C316.321 73.512 316.649 73.408 316.889 73.312L317.369 75.616C317.033 75.76 316.593 75.904 316.049 76.048C315.505 76.208 314.865 76.288 314.129 76.288C313.233 76.288 312.481 76.168 311.873 75.928C311.281 75.688 310.809 75.344 310.457 74.896C310.105 74.432 309.857 73.88 309.713 73.24C309.569 72.584 309.497 71.84 309.497 71.008V60.136ZM323.35 76H320.446V63.448H323.35V76ZM323.662 59.776C323.662 60.32 323.486 60.752 323.134 61.072C322.782 61.392 322.366 61.552 321.886 61.552C321.39 61.552 320.966 61.392 320.614 61.072C320.262 60.752 320.086 60.32 320.086 59.776C320.086 59.216 320.262 58.776 320.614 58.456C320.966 58.136 321.39 57.976 321.886 57.976C322.366 57.976 322.782 58.136 323.134 58.456C323.486 58.776 323.662 59.216 323.662 59.776ZM331.021 76C330.221 74.352 329.397 72.464 328.549 70.336C327.717 68.192 326.957 65.896 326.269 63.448H329.365C329.541 64.152 329.741 64.912 329.965 65.728C330.205 66.528 330.453 67.336 330.709 68.152C330.981 68.952 331.253 69.736 331.525 70.504C331.813 71.256 332.077 71.936 332.317 72.544C332.557 71.936 332.813 71.256 333.085 70.504C333.357 69.736 333.621 68.952 333.877 68.152C334.149 67.336 334.405 66.528 334.645 65.728C334.885 64.912 335.093 64.152 335.269 63.448H338.269C337.581 65.896 336.813 68.192 335.965 70.336C335.133 72.464 334.317 74.352 333.517 76H331.021ZM340.211 69.784C340.211 68.68 340.371 67.712 340.691 66.88C341.027 66.048 341.467 65.36 342.011 64.816C342.555 64.256 343.179 63.84 343.883 63.568C344.587 63.28 345.307 63.136 346.043 63.136C347.771 63.136 349.115 63.672 350.075 64.744C351.051 65.816 351.539 67.416 351.539 69.544C351.539 69.704 351.531 69.888 351.515 70.096C351.515 70.288 351.507 70.464 351.491 70.624H343.211C343.291 71.632 343.643 72.416 344.267 72.976C344.907 73.52 345.827 73.792 347.027 73.792C347.731 73.792 348.371 73.728 348.947 73.6C349.539 73.472 350.003 73.336 350.339 73.192L350.723 75.568C350.563 75.648 350.339 75.736 350.051 75.832C349.779 75.912 349.459 75.984 349.091 76.048C348.739 76.128 348.355 76.192 347.939 76.24C347.523 76.288 347.099 76.312 346.667 76.312C345.563 76.312 344.603 76.152 343.787 75.832C342.971 75.496 342.299 75.04 341.771 74.464C341.243 73.872 340.851 73.184 340.595 72.4C340.339 71.6 340.211 70.728 340.211 69.784ZM348.635 68.488C348.635 68.088 348.579 67.712 348.467 67.36C348.355 66.992 348.187 66.68 347.963 66.424C347.755 66.152 347.491 65.944 347.171 65.8C346.867 65.64 346.499 65.56 346.067 65.56C345.619 65.56 345.227 65.648 344.891 65.824C344.555 65.984 344.267 66.2 344.027 66.472C343.803 66.744 343.627 67.056 343.499 67.408C343.371 67.76 343.283 68.12 343.235 68.488H348.635ZM358.512 73.912C359.28 73.912 359.84 73.824 360.192 73.648C360.544 73.456 360.72 73.136 360.72 72.688C360.72 72.272 360.528 71.928 360.144 71.656C359.776 71.384 359.16 71.088 358.296 70.768C357.768 70.576 357.28 70.376 356.832 70.168C356.4 69.944 356.024 69.688 355.704 69.4C355.384 69.112 355.128 68.768 354.936 68.368C354.76 67.952 354.672 67.448 354.672 66.856C354.672 65.704 355.096 64.8 355.944 64.144C356.792 63.472 357.944 63.136 359.4 63.136C360.136 63.136 360.84 63.208 361.512 63.352C362.184 63.48 362.688 63.608 363.024 63.736L362.496 66.088C362.176 65.944 361.768 65.816 361.272 65.704C360.776 65.576 360.2 65.512 359.544 65.512C358.952 65.512 358.472 65.616 358.104 65.824C357.736 66.016 357.552 66.32 357.552 66.736C357.552 66.944 357.584 67.128 357.648 67.288C357.728 67.448 357.856 67.6 358.032 67.744C358.208 67.872 358.44 68.008 358.728 68.152C359.016 68.28 359.368 68.416 359.784 68.56C360.472 68.816 361.056 69.072 361.536 69.328C362.016 69.568 362.408 69.848 362.712 70.168C363.032 70.472 363.264 70.824 363.408 71.224C363.552 71.624 363.624 72.104 363.624 72.664C363.624 73.864 363.176 74.776 362.28 75.4C361.4 76.008 360.136 76.312 358.488 76.312C357.384 76.312 356.496 76.216 355.824 76.024C355.152 75.848 354.68 75.704 354.408 75.592L354.912 73.168C355.344 73.344 355.856 73.512 356.448 73.672C357.056 73.832 357.744 73.912 358.512 73.912ZM384.79 69.712C384.79 70.704 384.646 71.608 384.358 72.424C384.07 73.24 383.662 73.936 383.134 74.512C382.606 75.088 381.966 75.536 381.214 75.856C380.478 76.176 379.662 76.336 378.766 76.336C377.87 76.336 377.054 76.176 376.318 75.856C375.582 75.536 374.95 75.088 374.422 74.512C373.894 73.936 373.478 73.24 373.174 72.424C372.886 71.608 372.742 70.704 372.742 69.712C372.742 68.72 372.886 67.824 373.174 67.024C373.478 66.208 373.894 65.512 374.422 64.936C374.966 64.36 375.606 63.92 376.342 63.616C377.078 63.296 377.886 63.136 378.766 63.136C379.646 63.136 380.454 63.296 381.19 63.616C381.942 63.92 382.582 64.36 383.11 64.936C383.638 65.512 384.046 66.208 384.334 67.024C384.638 67.824 384.79 68.72 384.79 69.712ZM381.814 69.712C381.814 68.464 381.542 67.48 380.998 66.76C380.47 66.024 379.726 65.656 378.766 65.656C377.806 65.656 377.054 66.024 376.51 66.76C375.982 67.48 375.718 68.464 375.718 69.712C375.718 70.976 375.982 71.976 376.51 72.712C377.054 73.448 377.806 73.816 378.766 73.816C379.726 73.816 380.47 73.448 380.998 72.712C381.542 71.976 381.814 70.976 381.814 69.712ZM393.644 57.376C394.316 57.376 394.908 57.44 395.42 57.568C395.932 57.68 396.316 57.784 396.572 57.88L396.02 60.28C395.748 60.152 395.428 60.048 395.06 59.968C394.708 59.888 394.324 59.848 393.908 59.848C393.444 59.848 393.052 59.92 392.732 60.064C392.412 60.192 392.156 60.376 391.964 60.616C391.772 60.856 391.636 61.152 391.556 61.504C391.476 61.84 391.436 62.208 391.436 62.608V63.448H395.996V65.872H391.436V76H388.532V62.56C388.532 60.944 388.956 59.68 389.804 58.768C390.652 57.84 391.932 57.376 393.644 57.376ZM405.099 60.136L408.003 59.656V63.448H412.467V65.872H408.003V70.984C408.003 71.992 408.163 72.712 408.483 73.144C408.803 73.576 409.347 73.792 410.115 73.792C410.643 73.792 411.107 73.736 411.507 73.624C411.923 73.512 412.251 73.408 412.491 73.312L412.971 75.616C412.635 75.76 412.195 75.904 411.651 76.048C411.107 76.208 410.467 76.288 409.731 76.288C408.835 76.288 408.083 76.168 407.475 75.928C406.883 75.688 406.411 75.344 406.059 74.896C405.707 74.432 405.459 73.88 405.315 73.24C405.171 72.584 405.099 71.84 405.099 71.008V60.136ZM416.024 76V57.856L418.928 57.376V63.592C419.248 63.48 419.616 63.384 420.032 63.304C420.464 63.224 420.888 63.184 421.304 63.184C422.312 63.184 423.144 63.328 423.8 63.616C424.472 63.888 425.008 64.28 425.408 64.792C425.808 65.288 426.088 65.888 426.248 66.592C426.424 67.296 426.512 68.08 426.512 68.944V76H423.608V69.4C423.608 68.728 423.56 68.16 423.464 67.696C423.384 67.216 423.24 66.832 423.032 66.544C422.84 66.24 422.576 66.024 422.24 65.896C421.904 65.752 421.488 65.68 420.992 65.68C420.608 65.68 420.216 65.72 419.816 65.8C419.416 65.88 419.12 65.952 418.928 66.016V76H416.024ZM433.671 76H430.767V63.448H433.671V76ZM433.983 59.776C433.983 60.32 433.807 60.752 433.455 61.072C433.103 61.392 432.687 61.552 432.207 61.552C431.711 61.552 431.287 61.392 430.935 61.072C430.583 60.752 430.407 60.32 430.407 59.776C430.407 59.216 430.583 58.776 430.935 58.456C431.287 58.136 431.711 57.976 432.207 57.976C432.687 57.976 433.103 58.136 433.455 58.456C433.807 58.776 433.983 59.216 433.983 59.776ZM441.269 73.912C442.037 73.912 442.597 73.824 442.949 73.648C443.301 73.456 443.477 73.136 443.477 72.688C443.477 72.272 443.285 71.928 442.901 71.656C442.533 71.384 441.917 71.088 441.053 70.768C440.525 70.576 440.037 70.376 439.589 70.168C439.157 69.944 438.781 69.688 438.461 69.4C438.141 69.112 437.885 68.768 437.693 68.368C437.517 67.952 437.429 67.448 437.429 66.856C437.429 65.704 437.853 64.8 438.701 64.144C439.549 63.472 440.701 63.136 442.157 63.136C442.893 63.136 443.597 63.208 444.269 63.352C444.941 63.48 445.445 63.608 445.781 63.736L445.253 66.088C444.933 65.944 444.525 65.816 444.029 65.704C443.533 65.576 442.957 65.512 442.301 65.512C441.709 65.512 441.229 65.616 440.861 65.824C440.493 66.016 440.309 66.32 440.309 66.736C440.309 66.944 440.341 67.128 440.405 67.288C440.485 67.448 440.613 67.6 440.789 67.744C440.965 67.872 441.197 68.008 441.485 68.152C441.773 68.28 442.125 68.416 442.541 68.56C443.229 68.816 443.813 69.072 444.293 69.328C444.773 69.568 445.165 69.848 445.469 70.168C445.789 70.472 446.021 70.824 446.165 71.224C446.309 71.624 446.381 72.104 446.381 72.664C446.381 73.864 445.933 74.776 445.037 75.4C444.157 76.008 442.893 76.312 441.245 76.312C440.141 76.312 439.253 76.216 438.581 76.024C437.909 75.848 437.437 75.704 437.165 75.592L437.669 73.168C438.101 73.344 438.613 73.512 439.205 73.672C439.813 73.832 440.501 73.912 441.269 73.912ZM463.348 69.4C463.348 68.088 463.18 67.144 462.844 66.568C462.524 65.976 461.916 65.68 461.02 65.68C460.7 65.68 460.348 65.704 459.964 65.752C459.58 65.8 459.292 65.84 459.1 65.872V76H456.196V63.856C456.756 63.696 457.484 63.544 458.38 63.4C459.292 63.256 460.252 63.184 461.26 63.184C462.124 63.184 462.828 63.296 463.372 63.52C463.932 63.744 464.396 64.04 464.764 64.408C464.94 64.28 465.164 64.144 465.436 64C465.708 63.856 466.012 63.728 466.348 63.616C466.684 63.488 467.036 63.384 467.404 63.304C467.788 63.224 468.172 63.184 468.556 63.184C469.532 63.184 470.332 63.328 470.956 63.616C471.596 63.888 472.092 64.28 472.444 64.792C472.812 65.288 473.06 65.896 473.188 66.616C473.332 67.32 473.404 68.096 473.404 68.944V76H470.5V69.4C470.5 68.088 470.34 67.144 470.02 66.568C469.7 65.976 469.084 65.68 468.172 65.68C467.708 65.68 467.268 65.76 466.852 65.92C466.436 66.064 466.124 66.208 465.916 66.352C466.044 66.752 466.132 67.176 466.18 67.624C466.228 68.072 466.252 68.552 466.252 69.064V76H463.348V69.4ZM489.063 69.712C489.063 70.704 488.919 71.608 488.631 72.424C488.343 73.24 487.935 73.936 487.407 74.512C486.879 75.088 486.239 75.536 485.487 75.856C484.751 76.176 483.935 76.336 483.039 76.336C482.143 76.336 481.327 76.176 480.591 75.856C479.855 75.536 479.223 75.088 478.695 74.512C478.167 73.936 477.751 73.24 477.447 72.424C477.159 71.608 477.015 70.704 477.015 69.712C477.015 68.72 477.159 67.824 477.447 67.024C477.751 66.208 478.167 65.512 478.695 64.936C479.239 64.36 479.879 63.92 480.615 63.616C481.351 63.296 482.159 63.136 483.039 63.136C483.919 63.136 484.727 63.296 485.463 63.616C486.215 63.92 486.855 64.36 487.383 64.936C487.911 65.512 488.319 66.208 488.607 67.024C488.911 67.824 489.063 68.72 489.063 69.712ZM486.087 69.712C486.087 68.464 485.815 67.48 485.271 66.76C484.743 66.024 483.999 65.656 483.039 65.656C482.079 65.656 481.327 66.024 480.783 66.76C480.255 67.48 479.991 68.464 479.991 69.712C479.991 70.976 480.255 71.976 480.783 72.712C481.327 73.448 482.079 73.816 483.039 73.816C483.999 73.816 484.743 73.448 485.271 72.712C485.815 71.976 486.087 70.976 486.087 69.712ZM495.085 69.688C495.085 70.968 495.389 71.976 495.997 72.712C496.605 73.432 497.445 73.792 498.517 73.792C498.981 73.792 499.373 73.776 499.693 73.744C500.029 73.696 500.301 73.648 500.509 73.6V66.4C500.253 66.224 499.909 66.064 499.477 65.92C499.061 65.76 498.613 65.68 498.133 65.68C497.077 65.68 496.301 66.04 495.805 66.76C495.325 67.48 495.085 68.456 495.085 69.688ZM503.413 75.616C502.837 75.792 502.109 75.952 501.229 76.096C500.365 76.24 499.453 76.312 498.493 76.312C497.501 76.312 496.613 76.16 495.829 75.856C495.045 75.552 494.373 75.12 493.813 74.56C493.269 73.984 492.845 73.296 492.541 72.496C492.253 71.68 492.109 70.768 492.109 69.76C492.109 68.768 492.229 67.872 492.469 67.072C492.725 66.256 493.093 65.56 493.573 64.984C494.053 64.408 494.637 63.968 495.325 63.664C496.013 63.344 496.805 63.184 497.701 63.184C498.309 63.184 498.845 63.256 499.309 63.4C499.773 63.544 500.173 63.704 500.509 63.88V57.856L503.413 57.376V75.616ZM518.148 75.616C517.588 75.76 516.86 75.904 515.964 76.048C515.068 76.208 514.084 76.288 513.012 76.288C512.004 76.288 511.156 76.144 510.468 75.856C509.796 75.568 509.252 75.168 508.836 74.656C508.436 74.144 508.148 73.536 507.972 72.832C507.796 72.112 507.708 71.328 507.708 70.48V63.448H510.612V70.024C510.612 71.368 510.804 72.328 511.188 72.904C511.588 73.48 512.276 73.768 513.252 73.768C513.604 73.768 513.972 73.752 514.356 73.72C514.756 73.688 515.052 73.648 515.244 73.6V63.448H518.148V75.616ZM526.962 76.24C526.098 76.224 525.378 76.128 524.802 75.952C524.242 75.776 523.794 75.528 523.458 75.208C523.122 74.872 522.882 74.464 522.738 73.984C522.61 73.488 522.546 72.928 522.546 72.304V57.856L525.45 57.376V71.752C525.45 72.104 525.474 72.4 525.522 72.64C525.586 72.88 525.69 73.088 525.834 73.264C525.978 73.424 526.17 73.552 526.41 73.648C526.666 73.728 526.986 73.792 527.37 73.84L526.962 76.24ZM529.773 69.784C529.773 68.68 529.933 67.712 530.253 66.88C530.589 66.048 531.029 65.36 531.573 64.816C532.117 64.256 532.741 63.84 533.445 63.568C534.149 63.28 534.869 63.136 535.605 63.136C537.333 63.136 538.677 63.672 539.637 64.744C540.613 65.816 541.101 67.416 541.101 69.544C541.101 69.704 541.093 69.888 541.077 70.096C541.077 70.288 541.069 70.464 541.053 70.624H532.773C532.853 71.632 533.205 72.416 533.829 72.976C534.469 73.52 535.389 73.792 536.589 73.792C537.293 73.792 537.933 73.728 538.509 73.6C539.101 73.472 539.565 73.336 539.901 73.192L540.285 75.568C540.125 75.648 539.901 75.736 539.613 75.832C539.341 75.912 539.021 75.984 538.653 76.048C538.301 76.128 537.917 76.192 537.501 76.24C537.085 76.288 536.661 76.312 536.229 76.312C535.125 76.312 534.165 76.152 533.349 75.832C532.533 75.496 531.861 75.04 531.333 74.464C530.805 73.872 530.413 73.184 530.157 72.4C529.901 71.6 529.773 70.728 529.773 69.784ZM538.197 68.488C538.197 68.088 538.141 67.712 538.029 67.36C537.917 66.992 537.749 66.68 537.525 66.424C537.317 66.152 537.053 65.944 536.733 65.8C536.429 65.64 536.061 65.56 535.629 65.56C535.181 65.56 534.789 65.648 534.453 65.824C534.117 65.984 533.829 66.2 533.589 66.472C533.365 66.744 533.189 67.056 533.061 67.408C532.933 67.76 532.845 68.12 532.797 68.488H538.197ZM558.77 68.104C558.402 69.512 558.002 70.888 557.57 72.232C557.154 73.56 556.738 74.816 556.322 76H553.946C553.626 75.264 553.29 74.424 552.938 73.48C552.586 72.536 552.234 71.528 551.882 70.456C551.53 69.384 551.178 68.256 550.826 67.072C550.474 65.888 550.13 64.68 549.794 63.448H552.866C553.01 64.12 553.178 64.848 553.37 65.632C553.562 66.4 553.762 67.192 553.97 68.008C554.178 68.808 554.394 69.592 554.618 70.36C554.842 71.128 555.066 71.832 555.29 72.472C555.53 71.736 555.762 70.976 555.986 70.192C556.226 69.408 556.45 68.624 556.658 67.84C556.866 67.056 557.058 66.296 557.234 65.56C557.426 64.808 557.594 64.104 557.738 63.448H559.97C560.114 64.104 560.274 64.808 560.45 65.56C560.626 66.296 560.81 67.056 561.002 67.84C561.21 68.624 561.426 69.408 561.65 70.192C561.89 70.976 562.13 71.736 562.37 72.472C562.578 71.832 562.794 71.128 563.018 70.36C563.242 69.592 563.458 68.808 563.666 68.008C563.89 67.192 564.098 66.4 564.29 65.632C564.482 64.848 564.65 64.12 564.794 63.448H567.794C567.458 64.68 567.114 65.888 566.762 67.072C566.41 68.256 566.058 69.384 565.706 70.456C565.354 71.528 565.002 72.536 564.65 73.48C564.298 74.424 563.954 75.264 563.618 76H561.266C560.85 74.816 560.418 73.56 559.97 72.232C559.538 70.888 559.138 69.512 558.77 68.104ZM573.686 76H570.782V63.448H573.686V76ZM573.998 59.776C573.998 60.32 573.822 60.752 573.47 61.072C573.118 61.392 572.702 61.552 572.222 61.552C571.726 61.552 571.302 61.392 570.95 61.072C570.598 60.752 570.422 60.32 570.422 59.776C570.422 59.216 570.598 58.776 570.95 58.456C571.302 58.136 571.726 57.976 572.222 57.976C572.702 57.976 573.118 58.136 573.47 58.456C573.822 58.776 573.998 59.216 573.998 59.776ZM577.997 60.136L580.901 59.656V63.448H585.365V65.872H580.901V70.984C580.901 71.992 581.061 72.712 581.381 73.144C581.701 73.576 582.245 73.792 583.013 73.792C583.541 73.792 584.005 73.736 584.405 73.624C584.821 73.512 585.149 73.408 585.389 73.312L585.869 75.616C585.533 75.76 585.093 75.904 584.549 76.048C584.005 76.208 583.365 76.288 582.629 76.288C581.733 76.288 580.981 76.168 580.373 75.928C579.781 75.688 579.309 75.344 578.957 74.896C578.605 74.432 578.357 73.88 578.213 73.24C578.069 72.584 577.997 71.84 577.997 71.008V60.136ZM588.922 76V57.856L591.826 57.376V63.592C592.146 63.48 592.514 63.384 592.93 63.304C593.362 63.224 593.786 63.184 594.202 63.184C595.21 63.184 596.042 63.328 596.698 63.616C597.37 63.888 597.906 64.28 598.306 64.792C598.706 65.288 598.986 65.888 599.146 66.592C599.322 67.296 599.41 68.08 599.41 68.944V76H596.506V69.4C596.506 68.728 596.458 68.16 596.362 67.696C596.282 67.216 596.138 66.832 595.93 66.544C595.738 66.24 595.474 66.024 595.138 65.896C594.802 65.752 594.386 65.68 593.89 65.68C593.506 65.68 593.114 65.72 592.714 65.8C592.314 65.88 592.018 65.952 591.826 66.016V76H588.922ZM120.367 103.616C119.807 103.76 119.079 103.904 118.183 104.048C117.287 104.208 116.303 104.288 115.231 104.288C114.223 104.288 113.375 104.144 112.687 103.856C112.015 103.568 111.471 103.168 111.055 102.656C110.655 102.144 110.367 101.536 110.191 100.832C110.015 100.112 109.927 99.328 109.927 98.48V91.448H112.831V98.024C112.831 99.368 113.023 100.328 113.407 100.904C113.807 101.48 114.495 101.768 115.471 101.768C115.823 101.768 116.191 101.752 116.575 101.72C116.975 101.688 117.271 101.648 117.463 101.6V91.448H120.367V103.616ZM127.957 101.912C128.725 101.912 129.285 101.824 129.637 101.648C129.989 101.456 130.165 101.136 130.165 100.688C130.165 100.272 129.973 99.928 129.589 99.656C129.221 99.384 128.605 99.088 127.741 98.768C127.213 98.576 126.725 98.376 126.277 98.168C125.845 97.944 125.469 97.688 125.149 97.4C124.829 97.112 124.573 96.768 124.381 96.368C124.205 95.952 124.117 95.448 124.117 94.856C124.117 93.704 124.541 92.8 125.389 92.144C126.237 91.472 127.389 91.136 128.845 91.136C129.581 91.136 130.285 91.208 130.957 91.352C131.629 91.48 132.133 91.608 132.469 91.736L131.941 94.088C131.621 93.944 131.213 93.816 130.717 93.704C130.221 93.576 129.645 93.512 128.989 93.512C128.397 93.512 127.917 93.616 127.549 93.824C127.181 94.016 126.997 94.32 126.997 94.736C126.997 94.944 127.029 95.128 127.093 95.288C127.173 95.448 127.301 95.6 127.477 95.744C127.653 95.872 127.885 96.008 128.173 96.152C128.461 96.28 128.813 96.416 129.229 96.56C129.917 96.816 130.501 97.072 130.981 97.328C131.461 97.568 131.853 97.848 132.157 98.168C132.477 98.472 132.709 98.824 132.853 99.224C132.997 99.624 133.069 100.104 133.069 100.664C133.069 101.864 132.621 102.776 131.725 103.4C130.845 104.008 129.581 104.312 127.933 104.312C126.829 104.312 125.941 104.216 125.269 104.024C124.597 103.848 124.125 103.704 123.853 103.592L124.357 101.168C124.789 101.344 125.301 101.512 125.893 101.672C126.501 101.832 127.189 101.912 127.957 101.912ZM135.836 97.784C135.836 96.68 135.996 95.712 136.316 94.88C136.652 94.048 137.092 93.36 137.636 92.816C138.18 92.256 138.804 91.84 139.508 91.568C140.212 91.28 140.932 91.136 141.668 91.136C143.396 91.136 144.74 91.672 145.7 92.744C146.676 93.816 147.164 95.416 147.164 97.544C147.164 97.704 147.156 97.888 147.14 98.096C147.14 98.288 147.132 98.464 147.116 98.624H138.836C138.916 99.632 139.268 100.416 139.892 100.976C140.532 101.52 141.452 101.792 142.652 101.792C143.356 101.792 143.996 101.728 144.572 101.6C145.164 101.472 145.628 101.336 145.964 101.192L146.348 103.568C146.188 103.648 145.964 103.736 145.676 103.832C145.404 103.912 145.084 103.984 144.716 104.048C144.364 104.128 143.98 104.192 143.564 104.24C143.148 104.288 142.724 104.312 142.292 104.312C141.188 104.312 140.228 104.152 139.412 103.832C138.596 103.496 137.924 103.04 137.396 102.464C136.868 101.872 136.476 101.184 136.22 100.4C135.964 99.6 135.836 98.728 135.836 97.784ZM144.26 96.488C144.26 96.088 144.204 95.712 144.092 95.36C143.98 94.992 143.812 94.68 143.588 94.424C143.38 94.152 143.116 93.944 142.796 93.8C142.492 93.64 142.124 93.56 141.692 93.56C141.244 93.56 140.852 93.648 140.516 93.824C140.18 93.984 139.892 94.2 139.652 94.472C139.428 94.744 139.252 95.056 139.124 95.408C138.996 95.76 138.908 96.12 138.86 96.488H144.26ZM158.145 94.064C157.905 93.984 157.569 93.904 157.137 93.824C156.721 93.728 156.233 93.68 155.673 93.68C155.353 93.68 155.009 93.712 154.641 93.776C154.289 93.84 154.041 93.896 153.897 93.944V104H150.993V92.048C151.553 91.84 152.249 91.648 153.081 91.472C153.929 91.28 154.865 91.184 155.889 91.184C156.081 91.184 156.305 91.2 156.561 91.232C156.817 91.248 157.073 91.28 157.329 91.328C157.585 91.36 157.833 91.408 158.073 91.472C158.313 91.52 158.505 91.568 158.649 91.616L158.145 94.064ZM164.566 101.912C165.334 101.912 165.894 101.824 166.246 101.648C166.598 101.456 166.774 101.136 166.774 100.688C166.774 100.272 166.582 99.928 166.198 99.656C165.83 99.384 165.214 99.088 164.35 98.768C163.822 98.576 163.334 98.376 162.886 98.168C162.454 97.944 162.078 97.688 161.758 97.4C161.438 97.112 161.182 96.768 160.99 96.368C160.814 95.952 160.726 95.448 160.726 94.856C160.726 93.704 161.15 92.8 161.998 92.144C162.846 91.472 163.998 91.136 165.454 91.136C166.19 91.136 166.894 91.208 167.566 91.352C168.238 91.48 168.742 91.608 169.078 91.736L168.55 94.088C168.23 93.944 167.822 93.816 167.326 93.704C166.83 93.576 166.254 93.512 165.598 93.512C165.006 93.512 164.526 93.616 164.158 93.824C163.79 94.016 163.606 94.32 163.606 94.736C163.606 94.944 163.638 95.128 163.702 95.288C163.782 95.448 163.91 95.6 164.086 95.744C164.262 95.872 164.494 96.008 164.782 96.152C165.07 96.28 165.422 96.416 165.838 96.56C166.526 96.816 167.11 97.072 167.59 97.328C168.07 97.568 168.462 97.848 168.766 98.168C169.086 98.472 169.318 98.824 169.462 99.224C169.606 99.624 169.678 100.104 169.678 100.664C169.678 101.864 169.23 102.776 168.334 103.4C167.454 104.008 166.19 104.312 164.542 104.312C163.438 104.312 162.55 104.216 161.878 104.024C161.206 103.848 160.734 103.704 160.462 103.592L160.966 101.168C161.398 101.344 161.91 101.512 162.502 101.672C163.11 101.832 163.798 101.912 164.566 101.912ZM175.925 85.808C175.941 86 175.949 86.2 175.949 86.408C175.965 86.616 175.965 86.784 175.949 86.912C175.917 87.872 175.725 88.8 175.373 89.696C175.037 90.576 174.621 91.36 174.125 92.048L172.013 91.496C172.333 90.792 172.581 90.048 172.757 89.264C172.933 88.48 173.021 87.728 173.021 87.008C173.021 86.896 173.013 86.72 172.997 86.48C172.997 86.24 172.981 86.016 172.949 85.808H175.925ZM186.289 91.856C186.849 91.696 187.577 91.544 188.473 91.4C189.369 91.256 190.361 91.184 191.449 91.184C192.473 91.184 193.329 91.328 194.017 91.616C194.705 91.888 195.249 92.28 195.649 92.792C196.065 93.288 196.353 93.896 196.513 94.616C196.689 95.32 196.777 96.096 196.777 96.944V104H193.873V97.4C193.873 96.728 193.825 96.16 193.729 95.696C193.649 95.216 193.505 94.832 193.297 94.544C193.105 94.24 192.833 94.024 192.481 93.896C192.145 93.752 191.729 93.68 191.233 93.68C190.865 93.68 190.481 93.704 190.081 93.752C189.681 93.8 189.385 93.84 189.193 93.872V104H186.289V91.856ZM200.382 97.784C200.382 96.68 200.542 95.712 200.862 94.88C201.198 94.048 201.638 93.36 202.182 92.816C202.726 92.256 203.35 91.84 204.054 91.568C204.758 91.28 205.478 91.136 206.214 91.136C207.942 91.136 209.286 91.672 210.246 92.744C211.222 93.816 211.71 95.416 211.71 97.544C211.71 97.704 211.702 97.888 211.686 98.096C211.686 98.288 211.678 98.464 211.662 98.624H203.382C203.462 99.632 203.814 100.416 204.438 100.976C205.078 101.52 205.998 101.792 207.198 101.792C207.902 101.792 208.542 101.728 209.118 101.6C209.71 101.472 210.174 101.336 210.51 101.192L210.894 103.568C210.734 103.648 210.51 103.736 210.222 103.832C209.95 103.912 209.63 103.984 209.262 104.048C208.91 104.128 208.526 104.192 208.11 104.24C207.694 104.288 207.27 104.312 206.838 104.312C205.734 104.312 204.774 104.152 203.958 103.832C203.142 103.496 202.47 103.04 201.942 102.464C201.414 101.872 201.022 101.184 200.766 100.4C200.51 99.6 200.382 98.728 200.382 97.784ZM208.806 96.488C208.806 96.088 208.75 95.712 208.638 95.36C208.526 94.992 208.358 94.68 208.134 94.424C207.926 94.152 207.662 93.944 207.342 93.8C207.038 93.64 206.67 93.56 206.238 93.56C205.79 93.56 205.398 93.648 205.062 93.824C204.726 93.984 204.438 94.2 204.198 94.472C203.974 94.744 203.798 95.056 203.67 95.408C203.542 95.76 203.454 96.12 203.406 96.488H208.806ZM214.843 97.784C214.843 96.68 215.003 95.712 215.323 94.88C215.659 94.048 216.099 93.36 216.643 92.816C217.187 92.256 217.811 91.84 218.515 91.568C219.219 91.28 219.939 91.136 220.675 91.136C222.403 91.136 223.747 91.672 224.707 92.744C225.683 93.816 226.171 95.416 226.171 97.544C226.171 97.704 226.163 97.888 226.147 98.096C226.147 98.288 226.139 98.464 226.123 98.624H217.843C217.923 99.632 218.275 100.416 218.899 100.976C219.539 101.52 220.459 101.792 221.659 101.792C222.363 101.792 223.003 101.728 223.579 101.6C224.171 101.472 224.635 101.336 224.971 101.192L225.355 103.568C225.195 103.648 224.971 103.736 224.683 103.832C224.411 103.912 224.091 103.984 223.723 104.048C223.371 104.128 222.987 104.192 222.571 104.24C222.155 104.288 221.731 104.312 221.299 104.312C220.195 104.312 219.235 104.152 218.419 103.832C217.603 103.496 216.931 103.04 216.403 102.464C215.875 101.872 215.483 101.184 215.227 100.4C214.971 99.6 214.843 98.728 214.843 97.784ZM223.267 96.488C223.267 96.088 223.211 95.712 223.099 95.36C222.987 94.992 222.819 94.68 222.595 94.424C222.387 94.152 222.123 93.944 221.803 93.8C221.499 93.64 221.131 93.56 220.699 93.56C220.251 93.56 219.859 93.648 219.523 93.824C219.187 93.984 218.899 94.2 218.659 94.472C218.435 94.744 218.259 95.056 218.131 95.408C218.003 95.76 217.915 96.12 217.867 96.488H223.267ZM232.28 97.688C232.28 98.968 232.584 99.976 233.192 100.712C233.8 101.432 234.64 101.792 235.712 101.792C236.176 101.792 236.568 101.776 236.888 101.744C237.224 101.696 237.496 101.648 237.704 101.6V94.4C237.448 94.224 237.104 94.064 236.672 93.92C236.256 93.76 235.808 93.68 235.328 93.68C234.272 93.68 233.496 94.04 233 94.76C232.52 95.48 232.28 96.456 232.28 97.688ZM240.608 103.616C240.032 103.792 239.304 103.952 238.424 104.096C237.56 104.24 236.648 104.312 235.688 104.312C234.696 104.312 233.808 104.16 233.024 103.856C232.24 103.552 231.568 103.12 231.008 102.56C230.464 101.984 230.04 101.296 229.736 100.496C229.448 99.68 229.304 98.768 229.304 97.76C229.304 96.768 229.424 95.872 229.664 95.072C229.92 94.256 230.288 93.56 230.768 92.984C231.248 92.408 231.832 91.968 232.52 91.664C233.208 91.344 234 91.184 234.896 91.184C235.504 91.184 236.04 91.256 236.504 91.4C236.968 91.544 237.368 91.704 237.704 91.88V85.856L240.608 85.376V103.616ZM248.191 101.912C248.959 101.912 249.519 101.824 249.871 101.648C250.223 101.456 250.399 101.136 250.399 100.688C250.399 100.272 250.207 99.928 249.823 99.656C249.455 99.384 248.839 99.088 247.975 98.768C247.447 98.576 246.959 98.376 246.511 98.168C246.079 97.944 245.703 97.688 245.383 97.4C245.063 97.112 244.807 96.768 244.615 96.368C244.439 95.952 244.351 95.448 244.351 94.856C244.351 93.704 244.775 92.8 245.623 92.144C246.471 91.472 247.623 91.136 249.079 91.136C249.815 91.136 250.519 91.208 251.191 91.352C251.863 91.48 252.367 91.608 252.703 91.736L252.175 94.088C251.855 93.944 251.447 93.816 250.951 93.704C250.455 93.576 249.879 93.512 249.223 93.512C248.631 93.512 248.151 93.616 247.783 93.824C247.415 94.016 247.231 94.32 247.231 94.736C247.231 94.944 247.263 95.128 247.327 95.288C247.407 95.448 247.535 95.6 247.711 95.744C247.887 95.872 248.119 96.008 248.407 96.152C248.695 96.28 249.047 96.416 249.463 96.56C250.151 96.816 250.735 97.072 251.215 97.328C251.695 97.568 252.087 97.848 252.391 98.168C252.711 98.472 252.943 98.824 253.087 99.224C253.231 99.624 253.303 100.104 253.303 100.664C253.303 101.864 252.855 102.776 251.959 103.4C251.079 104.008 249.815 104.312 248.167 104.312C247.063 104.312 246.175 104.216 245.503 104.024C244.831 103.848 244.359 103.704 244.087 103.592L244.591 101.168C245.023 101.344 245.535 101.512 246.127 101.672C246.735 101.832 247.423 101.912 248.191 101.912ZM268.23 85.376C268.902 85.376 269.494 85.44 270.006 85.568C270.518 85.68 270.902 85.784 271.158 85.88L270.606 88.28C270.334 88.152 270.014 88.048 269.646 87.968C269.294 87.888 268.91 87.848 268.494 87.848C268.03 87.848 267.638 87.92 267.318 88.064C266.998 88.192 266.742 88.376 266.55 88.616C266.358 88.856 266.222 89.152 266.142 89.504C266.062 89.84 266.022 90.208 266.022 90.608V91.448H270.582V93.872H266.022V104H263.118V90.56C263.118 88.944 263.542 87.68 264.39 86.768C265.238 85.84 266.518 85.376 268.23 85.376ZM280.629 94.064C280.389 93.984 280.053 93.904 279.621 93.824C279.205 93.728 278.717 93.68 278.157 93.68C277.837 93.68 277.493 93.712 277.125 93.776C276.773 93.84 276.525 93.896 276.381 93.944V104H273.477V92.048C274.037 91.84 274.733 91.648 275.565 91.472C276.413 91.28 277.349 91.184 278.373 91.184C278.565 91.184 278.789 91.2 279.045 91.232C279.301 91.248 279.557 91.28 279.813 91.328C280.069 91.36 280.317 91.408 280.557 91.472C280.797 91.52 280.989 91.568 281.133 91.616L280.629 94.064ZM295.259 97.712C295.259 98.704 295.115 99.608 294.827 100.424C294.539 101.24 294.131 101.936 293.603 102.512C293.075 103.088 292.435 103.536 291.683 103.856C290.947 104.176 290.131 104.336 289.235 104.336C288.339 104.336 287.523 104.176 286.787 103.856C286.051 103.536 285.419 103.088 284.891 102.512C284.363 101.936 283.947 101.24 283.643 100.424C283.355 99.608 283.211 98.704 283.211 97.712C283.211 96.72 283.355 95.824 283.643 95.024C283.947 94.208 284.363 93.512 284.891 92.936C285.435 92.36 286.075 91.92 286.811 91.616C287.547 91.296 288.355 91.136 289.235 91.136C290.115 91.136 290.923 91.296 291.659 91.616C292.411 91.92 293.051 92.36 293.579 92.936C294.107 93.512 294.515 94.208 294.803 95.024C295.107 95.824 295.259 96.72 295.259 97.712ZM292.283 97.712C292.283 96.464 292.011 95.48 291.467 94.76C290.939 94.024 290.195 93.656 289.235 93.656C288.275 93.656 287.523 94.024 286.979 94.76C286.451 95.48 286.187 96.464 286.187 97.712C286.187 98.976 286.451 99.976 286.979 100.712C287.523 101.448 288.275 101.816 289.235 101.816C290.195 101.816 290.939 101.448 291.467 100.712C292.011 99.976 292.283 98.976 292.283 97.712ZM306.152 97.4C306.152 96.088 305.984 95.144 305.648 94.568C305.328 93.976 304.72 93.68 303.824 93.68C303.504 93.68 303.152 93.704 302.768 93.752C302.384 93.8 302.096 93.84 301.904 93.872V104H299V91.856C299.56 91.696 300.288 91.544 301.184 91.4C302.096 91.256 303.056 91.184 304.064 91.184C304.928 91.184 305.632 91.296 306.176 91.52C306.736 91.744 307.2 92.04 307.568 92.408C307.744 92.28 307.968 92.144 308.24 92C308.512 91.856 308.816 91.728 309.152 91.616C309.488 91.488 309.84 91.384 310.208 91.304C310.592 91.224 310.976 91.184 311.36 91.184C312.336 91.184 313.136 91.328 313.76 91.616C314.4 91.888 314.896 92.28 315.248 92.792C315.616 93.288 315.864 93.896 315.992 94.616C316.136 95.32 316.208 96.096 316.208 96.944V104H313.304V97.4C313.304 96.088 313.144 95.144 312.824 94.568C312.504 93.976 311.888 93.68 310.976 93.68C310.512 93.68 310.072 93.76 309.656 93.92C309.24 94.064 308.928 94.208 308.72 94.352C308.848 94.752 308.936 95.176 308.984 95.624C309.032 96.072 309.056 96.552 309.056 97.064V104H306.152V97.4ZM329.148 97.688C329.148 98.968 329.452 99.976 330.06 100.712C330.668 101.432 331.508 101.792 332.58 101.792C333.044 101.792 333.436 101.776 333.756 101.744C334.092 101.696 334.364 101.648 334.572 101.6V94.4C334.316 94.224 333.972 94.064 333.54 93.92C333.124 93.76 332.676 93.68 332.196 93.68C331.14 93.68 330.364 94.04 329.868 94.76C329.388 95.48 329.148 96.456 329.148 97.688ZM337.476 103.616C336.9 103.792 336.172 103.952 335.292 104.096C334.428 104.24 333.516 104.312 332.556 104.312C331.564 104.312 330.676 104.16 329.892 103.856C329.108 103.552 328.436 103.12 327.876 102.56C327.332 101.984 326.908 101.296 326.604 100.496C326.316 99.68 326.172 98.768 326.172 97.76C326.172 96.768 326.292 95.872 326.532 95.072C326.788 94.256 327.156 93.56 327.636 92.984C328.116 92.408 328.7 91.968 329.388 91.664C330.076 91.344 330.868 91.184 331.764 91.184C332.372 91.184 332.908 91.256 333.372 91.4C333.836 91.544 334.236 91.704 334.572 91.88V85.856L337.476 85.376V103.616ZM341.218 97.784C341.218 96.68 341.378 95.712 341.698 94.88C342.034 94.048 342.474 93.36 343.018 92.816C343.562 92.256 344.186 91.84 344.89 91.568C345.594 91.28 346.314 91.136 347.05 91.136C348.778 91.136 350.122 91.672 351.082 92.744C352.058 93.816 352.546 95.416 352.546 97.544C352.546 97.704 352.538 97.888 352.522 98.096C352.522 98.288 352.514 98.464 352.498 98.624H344.218C344.298 99.632 344.65 100.416 345.274 100.976C345.914 101.52 346.834 101.792 348.034 101.792C348.738 101.792 349.378 101.728 349.954 101.6C350.546 101.472 351.01 101.336 351.346 101.192L351.73 103.568C351.57 103.648 351.346 103.736 351.058 103.832C350.786 103.912 350.466 103.984 350.098 104.048C349.746 104.128 349.362 104.192 348.946 104.24C348.53 104.288 348.106 104.312 347.674 104.312C346.57 104.312 345.61 104.152 344.794 103.832C343.978 103.496 343.306 103.04 342.778 102.464C342.25 101.872 341.858 101.184 341.602 100.4C341.346 99.6 341.218 98.728 341.218 97.784ZM349.642 96.488C349.642 96.088 349.586 95.712 349.474 95.36C349.362 94.992 349.194 94.68 348.97 94.424C348.762 94.152 348.498 93.944 348.178 93.8C347.874 93.64 347.506 93.56 347.074 93.56C346.626 93.56 346.234 93.648 345.898 93.824C345.562 93.984 345.274 94.2 345.034 94.472C344.81 94.744 344.634 95.056 344.506 95.408C344.378 95.76 344.29 96.12 344.242 96.488H349.642ZM359.519 101.912C360.287 101.912 360.847 101.824 361.199 101.648C361.551 101.456 361.727 101.136 361.727 100.688C361.727 100.272 361.535 99.928 361.151 99.656C360.783 99.384 360.167 99.088 359.303 98.768C358.775 98.576 358.287 98.376 357.839 98.168C357.407 97.944 357.031 97.688 356.711 97.4C356.391 97.112 356.135 96.768 355.943 96.368C355.767 95.952 355.679 95.448 355.679 94.856C355.679 93.704 356.103 92.8 356.951 92.144C357.799 91.472 358.951 91.136 360.407 91.136C361.143 91.136 361.847 91.208 362.519 91.352C363.191 91.48 363.695 91.608 364.031 91.736L363.503 94.088C363.183 93.944 362.775 93.816 362.279 93.704C361.783 93.576 361.207 93.512 360.551 93.512C359.959 93.512 359.479 93.616 359.111 93.824C358.743 94.016 358.559 94.32 358.559 94.736C358.559 94.944 358.591 95.128 358.655 95.288C358.735 95.448 358.863 95.6 359.039 95.744C359.215 95.872 359.447 96.008 359.735 96.152C360.023 96.28 360.375 96.416 360.791 96.56C361.479 96.816 362.063 97.072 362.543 97.328C363.023 97.568 363.415 97.848 363.719 98.168C364.039 98.472 364.271 98.824 364.415 99.224C364.559 99.624 364.631 100.104 364.631 100.664C364.631 101.864 364.183 102.776 363.287 103.4C362.407 104.008 361.143 104.312 359.495 104.312C358.391 104.312 357.503 104.216 356.831 104.024C356.159 103.848 355.687 103.704 355.415 103.592L355.919 101.168C356.351 101.344 356.863 101.512 357.455 101.672C358.063 101.832 358.751 101.912 359.519 101.912ZM371.022 104H368.118V91.448H371.022V104ZM371.334 87.776C371.334 88.32 371.158 88.752 370.806 89.072C370.454 89.392 370.038 89.552 369.558 89.552C369.062 89.552 368.638 89.392 368.286 89.072C367.934 88.752 367.758 88.32 367.758 87.776C367.758 87.216 367.934 86.776 368.286 86.456C368.638 86.136 369.062 85.976 369.558 85.976C370.038 85.976 370.454 86.136 370.806 86.456C371.158 86.776 371.334 87.216 371.334 87.776ZM377.757 97.4C377.757 98.632 378.021 99.536 378.549 100.112C379.093 100.672 379.789 100.952 380.637 100.952C381.101 100.952 381.533 100.888 381.933 100.76C382.349 100.632 382.685 100.48 382.941 100.304V93.8C382.733 93.752 382.477 93.712 382.173 93.68C381.869 93.632 381.485 93.608 381.021 93.608C379.965 93.608 379.157 93.96 378.597 94.664C378.037 95.352 377.757 96.264 377.757 97.4ZM385.845 102.728C385.845 104.728 385.333 106.192 384.309 107.12C383.301 108.048 381.749 108.512 379.653 108.512C378.885 108.512 378.133 108.448 377.397 108.32C376.677 108.192 376.021 108.024 375.429 107.816L375.957 105.344C376.453 105.552 377.013 105.72 377.637 105.848C378.277 105.976 378.965 106.04 379.701 106.04C380.869 106.04 381.701 105.8 382.197 105.32C382.693 104.84 382.941 104.128 382.941 103.184V102.704C382.653 102.848 382.269 102.992 381.789 103.136C381.325 103.28 380.789 103.352 380.181 103.352C379.381 103.352 378.645 103.224 377.973 102.968C377.317 102.712 376.749 102.336 376.269 101.84C375.805 101.344 375.437 100.728 375.165 99.992C374.909 99.24 374.781 98.376 374.781 97.4C374.781 96.488 374.917 95.648 375.189 94.88C375.477 94.112 375.885 93.456 376.413 92.912C376.957 92.368 377.613 91.944 378.381 91.64C379.149 91.336 380.021 91.184 380.997 91.184C381.941 91.184 382.837 91.256 383.685 91.4C384.533 91.544 385.253 91.696 385.845 91.856V102.728ZM390.289 91.856C390.849 91.696 391.577 91.544 392.473 91.4C393.369 91.256 394.361 91.184 395.449 91.184C396.473 91.184 397.329 91.328 398.017 91.616C398.705 91.888 399.249 92.28 399.649 92.792C400.065 93.288 400.353 93.896 400.513 94.616C400.689 95.32 400.777 96.096 400.777 96.944V104H397.873V97.4C397.873 96.728 397.825 96.16 397.729 95.696C397.649 95.216 397.505 94.832 397.297 94.544C397.105 94.24 396.833 94.024 396.481 93.896C396.145 93.752 395.729 93.68 395.233 93.68C394.865 93.68 394.481 93.704 394.081 93.752C393.681 93.8 393.385 93.84 393.193 93.872V104H390.289V91.856ZM418.582 94.064C418.342 93.984 418.006 93.904 417.574 93.824C417.158 93.728 416.67 93.68 416.11 93.68C415.79 93.68 415.446 93.712 415.078 93.776C414.726 93.84 414.478 93.896 414.334 93.944V104H411.43V92.048C411.99 91.84 412.686 91.648 413.518 91.472C414.366 91.28 415.302 91.184 416.326 91.184C416.518 91.184 416.742 91.2 416.998 91.232C417.254 91.248 417.51 91.28 417.766 91.328C418.022 91.36 418.27 91.408 418.51 91.472C418.75 91.52 418.942 91.568 419.086 91.616L418.582 94.064ZM421.164 97.784C421.164 96.68 421.324 95.712 421.644 94.88C421.98 94.048 422.42 93.36 422.964 92.816C423.508 92.256 424.132 91.84 424.836 91.568C425.54 91.28 426.26 91.136 426.996 91.136C428.724 91.136 430.068 91.672 431.028 92.744C432.004 93.816 432.492 95.416 432.492 97.544C432.492 97.704 432.484 97.888 432.468 98.096C432.468 98.288 432.46 98.464 432.444 98.624H424.164C424.244 99.632 424.596 100.416 425.22 100.976C425.86 101.52 426.78 101.792 427.98 101.792C428.684 101.792 429.324 101.728 429.9 101.6C430.492 101.472 430.956 101.336 431.292 101.192L431.676 103.568C431.516 103.648 431.292 103.736 431.004 103.832C430.732 103.912 430.412 103.984 430.044 104.048C429.692 104.128 429.308 104.192 428.892 104.24C428.476 104.288 428.052 104.312 427.62 104.312C426.516 104.312 425.556 104.152 424.74 103.832C423.924 103.496 423.252 103.04 422.724 102.464C422.196 101.872 421.804 101.184 421.548 100.4C421.292 99.6 421.164 98.728 421.164 97.784ZM429.588 96.488C429.588 96.088 429.532 95.712 429.42 95.36C429.308 94.992 429.14 94.68 428.916 94.424C428.708 94.152 428.444 93.944 428.124 93.8C427.82 93.64 427.452 93.56 427.02 93.56C426.572 93.56 426.18 93.648 425.844 93.824C425.508 93.984 425.22 94.2 424.98 94.472C424.756 94.744 424.58 95.056 424.452 95.408C424.324 95.76 424.236 96.12 424.188 96.488H429.588ZM439.465 101.912C440.233 101.912 440.793 101.824 441.145 101.648C441.497 101.456 441.673 101.136 441.673 100.688C441.673 100.272 441.481 99.928 441.097 99.656C440.729 99.384 440.113 99.088 439.249 98.768C438.721 98.576 438.233 98.376 437.785 98.168C437.353 97.944 436.977 97.688 436.657 97.4C436.337 97.112 436.081 96.768 435.889 96.368C435.713 95.952 435.625 95.448 435.625 94.856C435.625 93.704 436.049 92.8 436.897 92.144C437.745 91.472 438.897 91.136 440.353 91.136C441.089 91.136 441.793 91.208 442.465 91.352C443.137 91.48 443.641 91.608 443.977 91.736L443.449 94.088C443.129 93.944 442.721 93.816 442.225 93.704C441.729 93.576 441.153 93.512 440.497 93.512C439.905 93.512 439.425 93.616 439.057 93.824C438.689 94.016 438.505 94.32 438.505 94.736C438.505 94.944 438.537 95.128 438.601 95.288C438.681 95.448 438.809 95.6 438.985 95.744C439.161 95.872 439.393 96.008 439.681 96.152C439.969 96.28 440.321 96.416 440.737 96.56C441.425 96.816 442.009 97.072 442.489 97.328C442.969 97.568 443.361 97.848 443.665 98.168C443.985 98.472 444.217 98.824 444.361 99.224C444.505 99.624 444.577 100.104 444.577 100.664C444.577 101.864 444.129 102.776 443.233 103.4C442.353 104.008 441.089 104.312 439.441 104.312C438.337 104.312 437.449 104.216 436.777 104.024C436.105 103.848 435.633 103.704 435.361 103.592L435.865 101.168C436.297 101.344 436.809 101.512 437.401 101.672C438.009 101.832 438.697 101.912 439.465 101.912ZM447.343 97.784C447.343 96.68 447.503 95.712 447.823 94.88C448.159 94.048 448.599 93.36 449.143 92.816C449.687 92.256 450.311 91.84 451.015 91.568C451.719 91.28 452.439 91.136 453.175 91.136C454.903 91.136 456.247 91.672 457.207 92.744C458.183 93.816 458.671 95.416 458.671 97.544C458.671 97.704 458.663 97.888 458.647 98.096C458.647 98.288 458.639 98.464 458.623 98.624H450.343C450.423 99.632 450.775 100.416 451.399 100.976C452.039 101.52 452.959 101.792 454.159 101.792C454.863 101.792 455.503 101.728 456.079 101.6C456.671 101.472 457.135 101.336 457.471 101.192L457.855 103.568C457.695 103.648 457.471 103.736 457.183 103.832C456.911 103.912 456.591 103.984 456.223 104.048C455.871 104.128 455.487 104.192 455.071 104.24C454.655 104.288 454.231 104.312 453.799 104.312C452.695 104.312 451.735 104.152 450.919 103.832C450.103 103.496 449.431 103.04 448.903 102.464C448.375 101.872 447.983 101.184 447.727 100.4C447.471 99.6 447.343 98.728 447.343 97.784ZM455.767 96.488C455.767 96.088 455.711 95.712 455.599 95.36C455.487 94.992 455.319 94.68 455.095 94.424C454.887 94.152 454.623 93.944 454.303 93.8C453.999 93.64 453.631 93.56 453.199 93.56C452.751 93.56 452.359 93.648 452.023 93.824C451.687 93.984 451.399 94.2 451.159 94.472C450.935 94.744 450.759 95.056 450.631 95.408C450.503 95.76 450.415 96.12 450.367 96.488H455.767ZM466.916 101.96C467.812 101.96 468.492 101.912 468.956 101.816V98.6C468.796 98.552 468.564 98.504 468.26 98.456C467.956 98.408 467.62 98.384 467.252 98.384C466.932 98.384 466.604 98.408 466.268 98.456C465.948 98.504 465.652 98.592 465.38 98.72C465.124 98.848 464.916 99.032 464.756 99.272C464.596 99.496 464.516 99.784 464.516 100.136C464.516 100.824 464.732 101.304 465.164 101.576C465.596 101.832 466.18 101.96 466.916 101.96ZM466.676 91.136C467.636 91.136 468.444 91.256 469.1 91.496C469.756 91.736 470.276 92.072 470.66 92.504C471.06 92.936 471.34 93.464 471.5 94.088C471.676 94.696 471.764 95.368 471.764 96.104V103.712C471.316 103.808 470.636 103.92 469.724 104.048C468.828 104.192 467.812 104.264 466.676 104.264C465.924 104.264 465.236 104.192 464.612 104.048C463.988 103.904 463.452 103.672 463.004 103.352C462.572 103.032 462.228 102.616 461.972 102.104C461.732 101.592 461.612 100.96 461.612 100.208C461.612 99.488 461.748 98.88 462.02 98.384C462.308 97.888 462.692 97.488 463.172 97.184C463.652 96.864 464.204 96.64 464.828 96.512C465.468 96.368 466.132 96.296 466.82 96.296C467.14 96.296 467.476 96.32 467.828 96.368C468.18 96.4 468.556 96.464 468.956 96.56V96.08C468.956 95.744 468.916 95.424 468.836 95.12C468.756 94.816 468.612 94.552 468.404 94.328C468.212 94.088 467.948 93.904 467.612 93.776C467.292 93.648 466.884 93.584 466.388 93.584C465.716 93.584 465.1 93.632 464.54 93.728C463.98 93.824 463.524 93.936 463.172 94.064L462.812 91.712C463.18 91.584 463.716 91.456 464.42 91.328C465.124 91.2 465.876 91.136 466.676 91.136ZM483.223 94.064C482.983 93.984 482.647 93.904 482.215 93.824C481.799 93.728 481.311 93.68 480.751 93.68C480.431 93.68 480.087 93.712 479.719 93.776C479.367 93.84 479.119 93.896 478.975 93.944V104H476.071V92.048C476.631 91.84 477.327 91.648 478.159 91.472C479.007 91.28 479.943 91.184 480.967 91.184C481.159 91.184 481.383 91.2 481.639 91.232C481.895 91.248 482.151 91.28 482.407 91.328C482.663 91.36 482.911 91.408 483.151 91.472C483.391 91.52 483.583 91.568 483.727 91.616L483.223 94.064ZM485.804 97.736C485.804 96.808 485.948 95.944 486.236 95.144C486.524 94.328 486.932 93.624 487.46 93.032C488.004 92.44 488.66 91.976 489.428 91.64C490.196 91.304 491.06 91.136 492.02 91.136C493.204 91.136 494.324 91.352 495.38 91.784L494.756 94.16C494.42 94.016 494.036 93.896 493.604 93.8C493.188 93.704 492.74 93.656 492.26 93.656C491.124 93.656 490.26 94.016 489.668 94.736C489.076 95.44 488.78 96.44 488.78 97.736C488.78 98.984 489.06 99.976 489.62 100.712C490.18 101.432 491.124 101.792 492.452 101.792C492.948 101.792 493.436 101.744 493.916 101.648C494.396 101.552 494.812 101.432 495.164 101.288L495.572 103.688C495.252 103.848 494.764 103.992 494.108 104.12C493.468 104.248 492.804 104.312 492.116 104.312C491.044 104.312 490.108 104.152 489.308 103.832C488.524 103.496 487.868 103.04 487.34 102.464C486.828 101.872 486.444 101.176 486.188 100.376C485.932 99.56 485.804 98.68 485.804 97.736ZM498.571 104V85.856L501.475 85.376V91.592C501.795 91.48 502.163 91.384 502.579 91.304C503.011 91.224 503.435 91.184 503.851 91.184C504.859 91.184 505.691 91.328 506.347 91.616C507.019 91.888 507.555 92.28 507.955 92.792C508.355 93.288 508.635 93.888 508.795 94.592C508.971 95.296 509.059 96.08 509.059 96.944V104H506.155V97.4C506.155 96.728 506.107 96.16 506.011 95.696C505.931 95.216 505.787 94.832 505.579 94.544C505.387 94.24 505.123 94.024 504.787 93.896C504.451 93.752 504.035 93.68 503.539 93.68C503.155 93.68 502.763 93.72 502.363 93.8C501.963 93.88 501.667 93.952 501.475 94.016V104H498.571ZM515.271 89.456C514.711 89.456 514.175 89.528 513.663 89.672C513.151 89.8 512.615 90.016 512.055 90.32L511.239 88.088C511.831 87.752 512.503 87.488 513.255 87.296C514.023 87.088 514.807 86.984 515.607 86.984C516.567 86.984 517.359 87.12 517.983 87.392C518.607 87.648 519.103 87.976 519.471 88.376C519.839 88.776 520.095 89.216 520.239 89.696C520.383 90.176 520.455 90.64 520.455 91.088C520.455 91.632 520.351 92.12 520.143 92.552C519.951 92.984 519.703 93.384 519.399 93.752C519.095 94.12 518.767 94.472 518.415 94.808C518.063 95.128 517.735 95.464 517.431 95.816C517.127 96.152 516.871 96.512 516.663 96.896C516.471 97.28 516.375 97.712 516.375 98.192C516.375 98.272 516.375 98.368 516.375 98.48C516.375 98.576 516.383 98.672 516.399 98.768H513.903C513.871 98.608 513.847 98.44 513.831 98.264C513.815 98.072 513.807 97.896 513.807 97.736C513.807 97.208 513.895 96.736 514.071 96.32C514.247 95.904 514.471 95.52 514.743 95.168C515.015 94.816 515.303 94.488 515.607 94.184C515.927 93.88 516.223 93.576 516.495 93.272C516.767 92.968 516.991 92.656 517.167 92.336C517.343 92.016 517.431 91.664 517.431 91.28C517.431 90.752 517.247 90.32 516.879 89.984C516.527 89.632 515.991 89.456 515.271 89.456ZM517.143 102.416C517.143 102.976 516.959 103.432 516.591 103.784C516.223 104.136 515.767 104.312 515.223 104.312C514.695 104.312 514.239 104.136 513.855 103.784C513.487 103.432 513.303 102.976 513.303 102.416C513.303 101.856 513.487 101.4 513.855 101.048C514.239 100.68 514.695 100.496 515.223 100.496C515.767 100.496 516.223 100.68 516.591 101.048C516.959 101.4 517.143 101.856 517.143 102.416Z" fill="#3B3B3B"/>
<path d="M266.407 31.912H267.959V43H266.407V37.88H260.983V43H259.431V31.912H260.983V36.536H266.407V31.912ZM278.46 38.84C278.46 39.5013 278.364 40.0987 278.172 40.632C277.98 41.1653 277.708 41.624 277.356 42.008C277.015 42.392 276.604 42.6907 276.124 42.904C275.644 43.1067 275.121 43.208 274.556 43.208C273.991 43.208 273.468 43.1067 272.988 42.904C272.508 42.6907 272.092 42.392 271.74 42.008C271.399 41.624 271.132 41.1653 270.94 40.632C270.748 40.0987 270.652 39.5013 270.652 38.84C270.652 38.1893 270.748 37.5973 270.94 37.064C271.132 36.52 271.399 36.056 271.74 35.672C272.092 35.288 272.508 34.9947 272.988 34.792C273.468 34.5787 273.991 34.472 274.556 34.472C275.121 34.472 275.644 34.5787 276.124 34.792C276.604 34.9947 277.015 35.288 277.356 35.672C277.708 36.056 277.98 36.52 278.172 37.064C278.364 37.5973 278.46 38.1893 278.46 38.84ZM276.908 38.84C276.908 37.9013 276.695 37.16 276.268 36.616C275.852 36.0613 275.281 35.784 274.556 35.784C273.831 35.784 273.255 36.0613 272.828 36.616C272.412 37.16 272.204 37.9013 272.204 38.84C272.204 39.7787 272.412 40.5253 272.828 41.08C273.255 41.624 273.831 41.896 274.556 41.896C275.281 41.896 275.852 41.624 276.268 41.08C276.695 40.5253 276.908 39.7787 276.908 38.84ZM287.65 43C287.352 42.232 287.032 41.3573 286.69 40.376C286.36 39.384 286.056 38.3547 285.778 37.288C285.501 38.3547 285.197 39.384 284.866 40.376C284.536 41.3573 284.221 42.232 283.922 43H282.626C282.136 41.9013 281.656 40.648 281.186 39.24C280.717 37.832 280.274 36.312 279.858 34.68H281.458C281.565 35.1813 281.693 35.7253 281.842 36.312C281.992 36.8987 282.146 37.4853 282.306 38.072C282.477 38.6587 282.653 39.224 282.834 39.768C283.016 40.312 283.186 40.7867 283.346 41.192C283.528 40.6907 283.704 40.1627 283.874 39.608C284.056 39.0427 284.226 38.4773 284.386 37.912C284.546 37.336 284.696 36.776 284.834 36.232C284.984 35.6773 285.112 35.16 285.218 34.68H286.45C286.546 35.16 286.664 35.6773 286.802 36.232C286.941 36.776 287.09 37.336 287.25 37.912C287.41 38.4773 287.576 39.0427 287.746 39.608C287.928 40.1627 288.109 40.6907 288.29 41.192C288.45 40.7867 288.616 40.312 288.786 39.768C288.968 39.224 289.144 38.6587 289.314 38.072C289.485 37.4853 289.645 36.8987 289.794 36.312C289.944 35.7253 290.072 35.1813 290.178 34.68H291.714C291.298 36.312 290.856 37.832 290.386 39.24C289.917 40.648 289.437 41.9013 288.946 43H287.65ZM297.991 34.92C298.332 34.8347 298.78 34.744 299.335 34.648C299.9 34.552 300.551 34.504 301.287 34.504C301.82 34.504 302.268 34.5787 302.631 34.728C302.994 34.8667 303.298 35.0747 303.543 35.352C303.618 35.2987 303.735 35.224 303.895 35.128C304.055 35.032 304.252 34.9413 304.487 34.856C304.722 34.76 304.983 34.68 305.271 34.616C305.559 34.5413 305.868 34.504 306.199 34.504C306.839 34.504 307.362 34.6 307.767 34.792C308.172 34.9733 308.487 35.2347 308.711 35.576C308.946 35.9173 309.1 36.3227 309.175 36.792C309.26 37.2613 309.303 37.7733 309.303 38.328V43H307.815V38.648C307.815 38.1573 307.788 37.736 307.735 37.384C307.692 37.032 307.602 36.7387 307.463 36.504C307.335 36.2693 307.154 36.0987 306.919 35.992C306.695 35.8747 306.402 35.816 306.039 35.816C305.538 35.816 305.122 35.8853 304.791 36.024C304.471 36.152 304.252 36.2693 304.135 36.376C304.22 36.6533 304.284 36.9573 304.327 37.288C304.37 37.6187 304.391 37.9653 304.391 38.328V43H302.903V38.648C302.903 38.1573 302.876 37.736 302.823 37.384C302.77 37.032 302.674 36.7387 302.535 36.504C302.407 36.2693 302.226 36.0987 301.991 35.992C301.767 35.8747 301.479 35.816 301.127 35.816C300.978 35.816 300.818 35.8213 300.647 35.832C300.476 35.8427 300.311 35.8587 300.151 35.88C300.002 35.8907 299.863 35.9067 299.735 35.928C299.607 35.9493 299.522 35.9653 299.479 35.976V43H297.991V34.92ZM313.76 43H312.272V34.68H313.76V43ZM313.008 33.176C312.742 33.176 312.512 33.0907 312.32 32.92C312.139 32.7387 312.048 32.4987 312.048 32.2C312.048 31.9013 312.139 31.6667 312.32 31.496C312.512 31.3147 312.742 31.224 313.008 31.224C313.275 31.224 313.499 31.3147 313.68 31.496C313.872 31.6667 313.968 31.9013 313.968 32.2C313.968 32.4987 313.872 32.7387 313.68 32.92C313.499 33.0907 313.275 33.176 313.008 33.176ZM322.035 42.168C321.907 42.2533 321.656 42.3653 321.283 42.504C320.92 42.632 320.494 42.696 320.003 42.696C319.502 42.696 319.027 42.616 318.579 42.456C318.142 42.296 317.758 42.0507 317.427 41.72C317.096 41.3787 316.835 40.9573 316.643 40.456C316.451 39.9547 316.355 39.3573 316.355 38.664C316.355 38.056 316.446 37.5013 316.627 37C316.808 36.488 317.07 36.0507 317.411 35.688C317.763 35.3147 318.19 35.0267 318.691 34.824C319.192 34.6107 319.758 34.504 320.387 34.504C321.08 34.504 321.683 34.5573 322.195 34.664C322.718 34.76 323.155 34.8507 323.507 34.936V42.36C323.507 43.64 323.176 44.568 322.515 45.144C321.854 45.72 320.851 46.008 319.507 46.008C318.984 46.008 318.488 45.9653 318.019 45.88C317.56 45.7947 317.16 45.6933 316.819 45.576L317.091 44.28C317.39 44.3973 317.752 44.4987 318.179 44.584C318.616 44.68 319.07 44.728 319.539 44.728C320.424 44.728 321.059 44.552 321.443 44.2C321.838 43.848 322.035 43.288 322.035 42.52V42.168ZM322.019 35.992C321.87 35.9493 321.667 35.912 321.411 35.88C321.166 35.8373 320.83 35.816 320.403 35.816C319.603 35.816 318.984 36.0773 318.547 36.6C318.12 37.1227 317.907 37.816 317.907 38.68C317.907 39.16 317.966 39.5707 318.083 39.912C318.211 40.2533 318.376 40.536 318.579 40.76C318.792 40.984 319.032 41.1493 319.299 41.256C319.576 41.3627 319.859 41.416 320.147 41.416C320.542 41.416 320.904 41.3627 321.235 41.256C321.566 41.1387 321.827 41.0053 322.019 40.856V35.992ZM326.569 43V30.84L328.057 30.584V34.84C328.334 34.7333 328.628 34.6533 328.937 34.6C329.257 34.536 329.572 34.504 329.881 34.504C330.542 34.504 331.092 34.6 331.529 34.792C331.966 34.9733 332.313 35.2347 332.569 35.576C332.836 35.9067 333.022 36.3067 333.129 36.776C333.236 37.2453 333.289 37.7627 333.289 38.328V43H331.801V38.648C331.801 38.136 331.764 37.6987 331.689 37.336C331.625 36.9733 331.513 36.68 331.353 36.456C331.193 36.232 330.98 36.072 330.713 35.976C330.446 35.8693 330.116 35.816 329.721 35.816C329.561 35.816 329.396 35.8267 329.225 35.848C329.054 35.8693 328.889 35.896 328.729 35.928C328.58 35.9493 328.441 35.976 328.313 36.008C328.196 36.04 328.11 36.0667 328.057 36.088V43H326.569ZM337.602 34.68H340.754V35.928H337.602V39.768C337.602 40.184 337.634 40.5307 337.698 40.808C337.762 41.0747 337.858 41.288 337.986 41.448C338.114 41.5973 338.274 41.704 338.466 41.768C338.658 41.832 338.882 41.864 339.138 41.864C339.586 41.864 339.943 41.816 340.21 41.72C340.487 41.6133 340.679 41.5387 340.786 41.496L341.074 42.728C340.924 42.8027 340.663 42.8933 340.29 43C339.916 43.1173 339.49 43.176 339.01 43.176C338.444 43.176 337.975 43.1067 337.602 42.968C337.239 42.8187 336.946 42.6 336.722 42.312C336.498 42.024 336.338 41.672 336.242 41.256C336.156 40.8293 336.114 40.3387 336.114 39.784V32.36L337.602 32.104V34.68ZM354.15 43C353.852 42.232 353.532 41.3573 353.19 40.376C352.86 39.384 352.556 38.3547 352.278 37.288C352.001 38.3547 351.697 39.384 351.366 40.376C351.036 41.3573 350.721 42.232 350.422 43H349.126C348.636 41.9013 348.156 40.648 347.686 39.24C347.217 37.832 346.774 36.312 346.358 34.68H347.958C348.065 35.1813 348.193 35.7253 348.342 36.312C348.492 36.8987 348.646 37.4853 348.806 38.072C348.977 38.6587 349.153 39.224 349.334 39.768C349.516 40.312 349.686 40.7867 349.846 41.192C350.028 40.6907 350.204 40.1627 350.374 39.608C350.556 39.0427 350.726 38.4773 350.886 37.912C351.046 37.336 351.196 36.776 351.334 36.232C351.484 35.6773 351.612 35.16 351.718 34.68H352.95C353.046 35.16 353.164 35.6773 353.302 36.232C353.441 36.776 353.59 37.336 353.75 37.912C353.91 38.4773 354.076 39.0427 354.246 39.608C354.428 40.1627 354.609 40.6907 354.79 41.192C354.95 40.7867 355.116 40.312 355.286 39.768C355.468 39.224 355.644 38.6587 355.814 38.072C355.985 37.4853 356.145 36.8987 356.294 36.312C356.444 35.7253 356.572 35.1813 356.678 34.68H358.214C357.798 36.312 357.356 37.832 356.886 39.24C356.417 40.648 355.937 41.9013 355.446 43H354.15ZM359.824 38.856C359.824 38.12 359.93 37.48 360.144 36.936C360.357 36.3813 360.64 35.9227 360.992 35.56C361.344 35.1973 361.749 34.9253 362.208 34.744C362.666 34.5627 363.136 34.472 363.616 34.472C364.736 34.472 365.594 34.824 366.192 35.528C366.789 36.2213 367.088 37.2827 367.088 38.712C367.088 38.776 367.088 38.8613 367.088 38.968C367.088 39.064 367.082 39.1547 367.072 39.24H361.376C361.44 40.104 361.69 40.76 362.128 41.208C362.565 41.656 363.248 41.88 364.176 41.88C364.698 41.88 365.136 41.8373 365.488 41.752C365.85 41.656 366.122 41.5653 366.304 41.48L366.512 42.728C366.33 42.824 366.01 42.9253 365.552 43.032C365.104 43.1387 364.592 43.192 364.016 43.192C363.29 43.192 362.661 43.0853 362.128 42.872C361.605 42.648 361.173 42.344 360.832 41.96C360.49 41.576 360.234 41.1227 360.064 40.6C359.904 40.0667 359.824 39.4853 359.824 38.856ZM365.536 38.04C365.546 37.368 365.376 36.8187 365.024 36.392C364.682 35.9547 364.208 35.736 363.6 35.736C363.258 35.736 362.954 35.8053 362.688 35.944C362.432 36.072 362.213 36.2427 362.032 36.456C361.85 36.6693 361.706 36.9147 361.6 37.192C361.504 37.4693 361.44 37.752 361.408 38.04H365.536Z" fill="#6B6B6B"/>
<path d="M305.897 221L306 162" stroke="#4D9786" stroke-opacity="0.400896" stroke-width="2" stroke-linecap="round" stroke-linejoin="round"/>
<path d="M320 221V162" stroke="#4D9786" stroke-opacity="0.400896" stroke-width="2" stroke-linecap="round" stroke-linejoin="round"/>
<path d="M299 210.576L312.397 233L325.992 210.576" stroke="#4D9786" stroke-opacity="0.400896" stroke-width="2" stroke-linecap="round" stroke-linejoin="round"/>
</svg>
