<svg width="119" height="297" viewBox="0 0 119 297" fill="none" xmlns="http://www.w3.org/2000/svg">
<path fill-rule="evenodd" clip-rule="evenodd" d="M56.5933 138.469C47.1299 138.469 39.4583 146.141 39.4583 155.604V170.419C39.4583 179.002 45.77 186.112 54.0055 187.359C54.0092 187.429 54.0131 187.5 54.0172 187.571H76.1023C79.8579 183.875 75.6133 158.81 72.9667 150.503C72.6799 149.603 72.4001 148.896 72.1247 148.357C69.3946 142.516 63.4665 138.469 56.5933 138.469Z" fill="#191847"/>
<path fill-rule="evenodd" clip-rule="evenodd" d="M59.4893 176.895C63.4715 178.907 67.0994 179.807 68.9764 179.319C74.6799 177.839 75.2043 156.826 70.7912 148.542C66.3782 140.258 43.6913 136.648 42.5478 153.061C42.1342 158.997 44.7309 164.268 48.4842 168.508L45.9426 187.554L62.6249 187.571L59.4893 176.895Z" fill="#E7C1A9"/>
<path fill-rule="evenodd" clip-rule="evenodd" d="M40.1877 153.041C40.7001 152.499 41.1915 151.979 41.6772 151.521L41.6584 151.063C41.6584 151.063 47.3948 139.236 56.2136 139.236C65.0245 139.236 67.811 143.361 70.1797 146.868L70.1861 146.877C68.9471 151.158 65.2131 152.89 60.9902 154.849C59.1724 155.693 57.2639 156.578 55.4249 157.727C54.7045 157.137 53.786 156.784 52.7855 156.784C50.4723 156.784 48.597 158.673 48.597 161.002C48.597 163.124 50.1519 164.879 52.1765 165.176C53.0282 174.53 52.7227 185.346 50.2645 187.89H28.883C28.2694 176.596 31.0933 173.371 33.9765 170.079C36.6911 166.979 39.4583 163.819 39.4583 153.806C39.707 153.549 39.9495 153.292 40.1876 153.041L40.1877 153.041Z" fill="#191847"/>
<path d="M28.8631 212H30.9511V207.68H32.6431C35.1811 207.68 37.1251 206.474 37.1251 203.864C37.1251 201.128 35.1811 200.228 32.5711 200.228H28.8631V212ZM30.9511 206.006V201.902H32.4091C34.1551 201.902 35.0731 202.388 35.0731 203.864C35.0731 205.304 34.2271 206.006 32.4811 206.006H30.9511ZM41.1787 212.216C42.2227 212.216 43.1227 211.694 43.9147 211.028H43.9867L44.1307 212H45.8407V206.762C45.8407 204.296 44.7427 202.946 42.5467 202.946C41.1427 202.946 39.8827 203.486 38.9107 204.098L39.6667 205.484C40.4587 205.016 41.2867 204.62 42.1507 204.62C43.3567 204.62 43.7347 205.412 43.7707 206.348C40.1347 206.744 38.5687 207.734 38.5687 209.624C38.5687 211.172 39.6307 212.216 41.1787 212.216ZM41.8447 210.596C41.1067 210.596 40.5667 210.254 40.5667 209.462C40.5667 208.58 41.3587 207.95 43.7707 207.644V209.624C43.1047 210.236 42.5647 210.596 41.8447 210.596ZM48.8804 212H50.9504V206.6C51.4904 205.268 52.3364 204.782 53.0384 204.782C53.4164 204.782 53.6504 204.836 53.9564 204.926L54.3164 203.126C54.0464 203 53.7584 202.946 53.3084 202.946C52.3724 202.946 51.4364 203.576 50.8064 204.728H50.7344L50.5904 203.162H48.8804V212ZM59.762 212.216C60.878 212.216 61.94 211.82 62.786 211.262L62.084 209.966C61.436 210.38 60.788 210.614 60.032 210.614C58.61 210.614 57.602 209.714 57.422 208.148H63.038C63.092 207.932 63.128 207.536 63.128 207.14C63.128 204.674 61.868 202.946 59.474 202.946C57.404 202.946 55.406 204.71 55.406 207.59C55.406 210.506 57.314 212.216 59.762 212.216ZM57.404 206.744C57.584 205.322 58.484 204.548 59.528 204.548C60.734 204.548 61.328 205.376 61.328 206.744H57.404ZM65.6675 212H67.7375V205.826C68.4755 205.106 68.9795 204.728 69.7535 204.728C70.7255 204.728 71.1395 205.268 71.1395 206.726V212H73.2095V206.456C73.2095 204.224 72.3815 202.946 70.4915 202.946C69.2855 202.946 68.3855 203.576 67.5935 204.35H67.5215L67.3775 203.162H65.6675V212ZM79.4163 212.216C80.1183 212.216 80.7303 212.054 81.2163 211.892L80.8563 210.362C80.6043 210.47 80.2443 210.56 79.9383 210.56C79.0923 210.56 78.6963 210.056 78.6963 209.012V204.8H80.9463V203.162H78.6963V200.75H76.9683L76.7163 203.162L75.3483 203.252V204.8H76.6083V209.012C76.6083 210.92 77.3643 212.216 79.4163 212.216ZM85.6589 212.216C87.8909 212.216 89.0969 210.992 89.0969 209.48C89.0969 207.824 87.7649 207.248 86.5589 206.798C85.6049 206.456 84.7229 206.186 84.7229 205.484C84.7229 204.926 85.1369 204.512 86.0189 204.512C86.7209 204.512 87.3509 204.818 87.9629 205.268L88.9169 204.008C88.1969 203.45 87.2069 202.946 85.9829 202.946C84.0029 202.946 82.7609 204.044 82.7609 205.592C82.7609 207.068 84.0749 207.734 85.2449 208.166C86.1809 208.526 87.1349 208.85 87.1349 209.588C87.1349 210.2 86.6849 210.65 85.7309 210.65C84.8309 210.65 84.0749 210.272 83.2829 209.66L82.3109 210.992C83.1749 211.694 84.4529 212.216 85.6589 212.216Z" fill="black"/>
<g clip-path="url(#clip0)">
<path fill-rule="evenodd" clip-rule="evenodd" d="M64.8613 45.2729C57.7004 45.791 51.5699 43.4662 48.0039 39.0191C43.9298 33.9384 43.0334 26.1446 44.8294 17.6458C48.1975 1.70814 69.649 8.33317 72.7771 17.0556C75.9051 25.7781 80.2036 44.163 64.8613 45.2729Z" fill="#E7C1A9"/>
<path fill-rule="evenodd" clip-rule="evenodd" d="M71.1505 14.7855C70.8765 17.3923 64.8226 18.9251 57.3168 18.4054C57.3573 19.3422 57.3065 20.3543 57.1531 21.4456C56.9482 22.9042 56.7039 24.4397 56.4093 25.976C55.8489 24.829 54.8843 23.9612 53.8002 23.8088C51.1804 23.4406 49.0535 25.3423 48.7315 27.6335C48.3052 30.6662 49.8256 33.0804 52.4454 33.4486C53.1776 33.5515 53.9474 33.3256 54.6395 32.8322C53.1326 37.1205 50.9523 40.2409 47.7493 39.7908C42.1809 39.0082 36.7088 30.4415 37.3516 22.3755C36.1592 23.1552 34.9804 24.0175 33.7967 24.8833L33.7967 24.8834C29.3831 28.1119 24.9023 31.3896 19.397 30.6159C8.38203 29.0678 7.13395 6.20739 22.5234 8.37024C31.1035 9.57609 35.9653 11.3065 39.7084 13.4794C40.3964 12.1144 41.218 10.9951 42.1773 10.1666C44.3233 7.81378 50.576 5.62396 57.3531 6.33584C65.5684 7.19881 71.4435 11.999 71.1505 14.7855Z" fill="#191847"/>
<path d="M28.494 67H35.478V65.236H30.582V55.228H28.494V67ZM41.4631 67.216C42.5791 67.216 43.6411 66.82 44.4871 66.262L43.7851 64.966C43.1371 65.38 42.4891 65.614 41.7331 65.614C40.3111 65.614 39.3031 64.714 39.1231 63.148H44.7391C44.7931 62.932 44.8291 62.536 44.8291 62.14C44.8291 59.674 43.5691 57.946 41.1751 57.946C39.1051 57.946 37.1071 59.71 37.1071 62.59C37.1071 65.506 39.0151 67.216 41.4631 67.216ZM39.1051 61.744C39.2851 60.322 40.1851 59.548 41.2291 59.548C42.4351 59.548 43.0291 60.376 43.0291 61.744H39.1051ZM49.2998 67.216C50.3438 67.216 51.2438 66.694 52.0358 66.028H52.1078L52.2518 67H53.9618V61.762C53.9618 59.296 52.8638 57.946 50.6678 57.946C49.2638 57.946 48.0038 58.486 47.0317 59.098L47.7878 60.484C48.5798 60.016 49.4078 59.62 50.2718 59.62C51.4778 59.62 51.8558 60.412 51.8918 61.348C48.2558 61.744 46.6898 62.734 46.6898 64.624C46.6898 66.172 47.7518 67.216 49.2998 67.216ZM49.9658 65.596C49.2278 65.596 48.6878 65.254 48.6878 64.462C48.6878 63.58 49.4798 62.95 51.8918 62.644V64.624C51.2258 65.236 50.6858 65.596 49.9658 65.596ZM57.0015 67H59.0715V61.6C59.6115 60.268 60.4575 59.782 61.1595 59.782C61.5375 59.782 61.7715 59.836 62.0775 59.926L62.4375 58.126C62.1675 58 61.8795 57.946 61.4295 57.946C60.4935 57.946 59.5575 58.576 58.9275 59.728H58.8555L58.7115 58.162H57.0015V67ZM64.2788 67H66.3488V60.826C67.0868 60.106 67.5908 59.728 68.3648 59.728C69.3368 59.728 69.7508 60.268 69.7508 61.726V67H71.8208V61.456C71.8208 59.224 70.9928 57.946 69.1028 57.946C67.8968 57.946 66.9968 58.576 66.2048 59.35H66.1328L65.9888 58.162H64.2788V67ZM78.6936 67.216C79.8096 67.216 80.8716 66.82 81.7176 66.262L81.0156 64.966C80.3676 65.38 79.7196 65.614 78.9636 65.614C77.5416 65.614 76.5336 64.714 76.3536 63.148H81.9696C82.0236 62.932 82.0596 62.536 82.0596 62.14C82.0596 59.674 80.7996 57.946 78.4056 57.946C76.3356 57.946 74.3376 59.71 74.3376 62.59C74.3376 65.506 76.2456 67.216 78.6936 67.216ZM76.3356 61.744C76.5156 60.322 77.4156 59.548 78.4596 59.548C79.6656 59.548 80.2596 60.376 80.2596 61.744H76.3356ZM84.5992 67H86.6692V61.6C87.2092 60.268 88.0552 59.782 88.7572 59.782C89.1352 59.782 89.3692 59.836 89.6752 59.926L90.0352 58.126C89.7652 58 89.4772 57.946 89.0272 57.946C88.0912 57.946 87.1552 58.576 86.5252 59.728H86.4532L86.3092 58.162H84.5992V67Z" fill="black"/>
</g>
<path d="M32.5199 272H34.8999V268.073C34.8999 266.764 34.6959 265.285 34.5939 264.061H34.6619L35.7499 266.475L38.6399 272H41.2069V260.916H38.8269V264.826C38.8269 266.135 39.0309 267.699 39.1329 268.872H39.0649L37.9769 266.424L35.0869 260.916H32.5199V272ZM47.9269 272.204C48.9299 272.204 50.0519 271.847 50.9189 271.252L50.0859 269.739C49.4739 270.113 48.8959 270.3 48.2669 270.3C47.1449 270.3 46.2949 269.739 46.0739 268.515H51.1229C51.1739 268.311 51.2249 267.852 51.2249 267.41C51.2249 265.115 50.0349 263.364 47.6379 263.364C45.6149 263.364 43.6599 265.047 43.6599 267.784C43.6599 270.572 45.5129 272.204 47.9269 272.204ZM46.0569 266.866C46.2269 265.795 46.9069 265.268 47.6889 265.268C48.6919 265.268 49.0999 265.931 49.0999 266.866H46.0569ZM57.2569 272.204C58.2599 272.204 59.3819 271.847 60.2489 271.252L59.4159 269.739C58.8039 270.113 58.2259 270.3 57.5969 270.3C56.4749 270.3 55.6249 269.739 55.4039 268.515H60.4529C60.5039 268.311 60.5549 267.852 60.5549 267.41C60.5549 265.115 59.3649 263.364 56.9679 263.364C54.9449 263.364 52.9899 265.047 52.9899 267.784C52.9899 270.572 54.8429 272.204 57.2569 272.204ZM55.3869 266.866C55.5569 265.795 56.2369 265.268 57.0189 265.268C58.0219 265.268 58.4299 265.931 58.4299 266.866H55.3869ZM65.822 272.204C66.638 272.204 67.471 271.762 68.066 271.167H68.134L68.304 272H70.344V260.083H67.845V262.956L67.947 264.248C67.369 263.704 66.808 263.364 65.873 263.364C64.088 263.364 62.371 265.03 62.371 267.784C62.371 270.538 63.731 272.204 65.822 272.204ZM66.468 270.164C65.499 270.164 64.938 269.416 64.938 267.75C64.938 266.152 65.652 265.404 66.451 265.404C66.91 265.404 67.403 265.54 67.845 265.948V269.399C67.437 269.96 67.012 270.164 66.468 270.164ZM80.0329 272.204C81.4269 272.204 82.5829 271.779 83.5179 271.082C84.4699 271.626 85.4389 272.017 86.3569 272.204L86.9519 270.181C86.3909 270.096 85.7279 269.841 85.0309 269.484C85.8809 268.328 86.4759 267.087 86.8839 265.744H84.6059C84.3339 266.781 83.8919 267.665 83.3309 268.396C82.5149 267.801 81.7329 267.104 81.1039 266.373C82.2599 265.591 83.4159 264.673 83.4159 263.228C83.4159 261.698 82.3619 260.712 80.6959 260.712C78.8429 260.712 77.6869 262.038 77.6869 263.619C77.6869 264.316 77.9419 265.115 78.3669 265.914C77.2789 266.611 76.3439 267.495 76.3439 269.042C76.3439 270.742 77.6189 272.204 80.0329 272.204ZM79.7439 263.602C79.7439 262.837 80.1859 262.361 80.7469 262.361C81.2739 262.361 81.5119 262.701 81.5119 263.228C81.5119 263.976 80.8999 264.452 80.1009 264.928C79.8799 264.469 79.7439 264.01 79.7439 263.602ZM80.3559 270.3C79.3699 270.3 78.7069 269.722 78.7069 268.889C78.7069 268.379 79.0129 267.954 79.4549 267.563C80.1009 268.379 80.8999 269.161 81.7499 269.858C81.2909 270.147 80.8149 270.3 80.3559 270.3ZM16.0157 293.204C19.0077 293.204 21.0477 291.028 21.0477 287.407C21.0477 283.803 19.0077 281.712 16.0157 281.712C13.0237 281.712 10.9837 283.786 10.9837 287.407C10.9837 291.028 13.0237 293.204 16.0157 293.204ZM16.0157 291.045C14.5027 291.045 13.5507 289.634 13.5507 287.407C13.5507 285.197 14.5027 283.871 16.0157 283.871C17.5287 283.871 18.4807 285.197 18.4807 287.407C18.4807 289.634 17.5287 291.045 16.0157 291.045ZM23.459 296.128H25.958V293.663L25.873 292.32C26.468 292.881 27.148 293.204 27.879 293.204C29.698 293.204 31.432 291.538 31.432 288.648C31.432 286.047 30.174 284.364 28.134 284.364C27.25 284.364 26.4 284.806 25.737 285.401H25.669L25.499 284.568H23.459V296.128ZM27.301 291.164C26.876 291.164 26.4 291.028 25.958 290.62V287.169C26.451 286.642 26.893 286.404 27.403 286.404C28.406 286.404 28.865 287.169 28.865 288.682C28.865 290.416 28.168 291.164 27.301 291.164ZM33.7354 296.128H36.2344V293.663L36.1494 292.32C36.7444 292.881 37.4244 293.204 38.1554 293.204C39.9744 293.204 41.7084 291.538 41.7084 288.648C41.7084 286.047 40.4504 284.364 38.4104 284.364C37.5264 284.364 36.6764 284.806 36.0134 285.401H35.9454L35.7754 284.568H33.7354V296.128ZM37.5774 291.164C37.1524 291.164 36.6764 291.028 36.2344 290.62V287.169C36.7274 286.642 37.1694 286.404 37.6794 286.404C38.6824 286.404 39.1414 287.169 39.1414 288.682C39.1414 290.416 38.4444 291.164 37.5774 291.164ZM47.6327 293.204C49.7577 293.204 51.7297 291.589 51.7297 288.784C51.7297 285.979 49.7577 284.364 47.6327 284.364C45.4907 284.364 43.5187 285.979 43.5187 288.784C43.5187 291.589 45.4907 293.204 47.6327 293.204ZM47.6327 291.181C46.5957 291.181 46.0857 290.246 46.0857 288.784C46.0857 287.322 46.5957 286.387 47.6327 286.387C48.6527 286.387 49.1797 287.322 49.1797 288.784C49.1797 290.246 48.6527 291.181 47.6327 291.181ZM53.9727 293H56.4717V288.104C56.9137 286.965 57.6957 286.557 58.3247 286.557C58.6817 286.557 58.9367 286.608 59.2427 286.693L59.6507 284.534C59.4127 284.432 59.1237 284.364 58.6477 284.364C57.7807 284.364 56.8627 284.908 56.2507 286.047H56.1827L56.0127 284.568H53.9727V293ZM64.5244 293.204C65.3404 293.204 65.9524 293.034 66.3944 292.898L66.0034 291.079C65.7824 291.164 65.4764 291.249 65.2044 291.249C64.5414 291.249 64.1164 290.858 64.1164 289.906V286.523H66.1394V284.568H64.1164V282.324H62.0424L61.7534 284.568L60.4614 284.67V286.523H61.6174V289.94C61.6174 291.895 62.4334 293.204 64.5244 293.204ZM70.8494 293.204C72.0054 293.204 72.7874 292.677 73.5014 291.827H73.5524L73.7394 293H75.7794V284.568H73.2804V290.144C72.7874 290.807 72.4134 291.079 71.7844 291.079C71.0534 291.079 70.7304 290.688 70.7304 289.481V284.568H68.2314V289.804C68.2314 291.912 69.0134 293.204 70.8494 293.204ZM78.5098 293H81.0088V287.305C81.5528 286.778 81.9438 286.489 82.5728 286.489C83.2868 286.489 83.6098 286.863 83.6098 288.087V293H86.1088V287.764C86.1088 285.656 85.3268 284.364 83.4908 284.364C82.3518 284.364 81.5018 284.959 80.7878 285.639H80.7198L80.5498 284.568H78.5098V293ZM88.7696 293H91.2686V284.568H88.7696V293ZM90.0106 283.327C90.8606 283.327 91.4556 282.783 91.4556 282.018C91.4556 281.253 90.8606 280.726 90.0106 280.726C89.1776 280.726 88.5656 281.253 88.5656 282.018C88.5656 282.783 89.1776 283.327 90.0106 283.327ZM97.246 293.204C98.062 293.204 98.674 293.034 99.116 292.898L98.725 291.079C98.504 291.164 98.198 291.249 97.926 291.249C97.263 291.249 96.838 290.858 96.838 289.906V286.523H98.861V284.568H96.838V282.324H94.764L94.475 284.568L93.183 284.67V286.523H94.339V289.94C94.339 291.895 95.155 293.204 97.246 293.204ZM101.973 296.298C103.962 296.298 104.863 295.21 105.662 293.085L108.586 284.568H106.189L105.169 288.189C104.965 288.988 104.778 289.787 104.591 290.586H104.523C104.302 289.753 104.098 288.954 103.86 288.189L102.653 284.568H100.137L103.384 292.779L103.265 293.221C103.044 293.884 102.619 294.326 101.786 294.326C101.599 294.326 101.378 294.258 101.225 294.224L100.783 296.128C101.123 296.23 101.463 296.298 101.973 296.298Z" fill="#2D2D2D"/>
<defs>
<clipPath id="clip0">
<rect width="83" height="72" fill="white" transform="translate(7)"/>
</clipPath>
</defs>
</svg>
