<svg width="1070" height="431" viewBox="0 0 1070 431" fill="none" xmlns="http://www.w3.org/2000/svg">
<g clip-path="url(#clip0)">
<g filter="url(#filter0_d)">
<path fill-rule="evenodd" clip-rule="evenodd" d="M98 196C152.124 196 196 152.124 196 98C196 43.8761 152.124 0 98 0C43.8761 0 0 43.8761 0 98C0 152.124 43.8761 196 98 196Z" fill="#A8E6D2"/>
</g>
<path d="M64.0962 92.264C67.3302 92.264 69.2662 90.328 69.2662 87.996C69.2662 85.906 68.0562 84.828 66.3622 84.102L64.4042 83.288C63.2162 82.804 62.1162 82.386 62.1162 81.264C62.1162 80.208 63.0182 79.57 64.3822 79.57C65.6142 79.57 66.5822 80.032 67.5062 80.802L68.8042 79.174C67.6822 78.052 66.0542 77.348 64.3822 77.348C61.5662 77.348 59.5422 79.108 59.5422 81.396C59.5422 83.508 61.0382 84.63 62.4462 85.224L64.4262 86.082C65.7242 86.632 66.6482 87.006 66.6482 88.194C66.6482 89.316 65.7682 90.042 64.1402 90.042C62.8202 90.042 61.4342 89.382 60.4002 88.414L58.9042 90.152C60.2682 91.494 62.1602 92.264 64.0962 92.264ZM76.7714 92.264C78.1354 92.264 79.4334 91.78 80.4674 91.098L79.6094 89.514C78.8174 90.02 78.0254 90.306 77.1014 90.306C75.3634 90.306 74.1314 89.206 73.9114 87.292H80.7754C80.8414 87.028 80.8854 86.544 80.8854 86.06C80.8854 83.046 79.3454 80.934 76.4194 80.934C73.8894 80.934 71.4474 83.09 71.4474 86.61C71.4474 90.174 73.7794 92.264 76.7714 92.264ZM73.8894 85.576C74.1094 83.838 75.2094 82.892 76.4854 82.892C77.9594 82.892 78.6854 83.904 78.6854 85.576H73.8894ZM83.7906 92H86.3206V84.454C87.2226 83.574 87.8386 83.112 88.7846 83.112C89.9726 83.112 90.4786 83.772 90.4786 85.554V92H93.0086V85.224C93.0086 82.496 91.9966 80.934 89.6866 80.934C88.2126 80.934 87.1126 81.704 86.1446 82.65H86.0566L85.8806 81.198H83.7906V92ZM99.6041 92.264C102.332 92.264 103.806 90.768 103.806 88.92C103.806 86.896 102.178 86.192 100.704 85.642C99.5381 85.224 98.4601 84.894 98.4601 84.036C98.4601 83.354 98.9661 82.848 100.044 82.848C100.902 82.848 101.672 83.222 102.42 83.772L103.586 82.232C102.706 81.55 101.496 80.934 100 80.934C97.5801 80.934 96.0621 82.276 96.0621 84.168C96.0621 85.972 97.6681 86.786 99.0981 87.314C100.242 87.754 101.408 88.15 101.408 89.052C101.408 89.8 100.858 90.35 99.6921 90.35C98.5921 90.35 97.6681 89.888 96.7001 89.14L95.5121 90.768C96.5681 91.626 98.1301 92.264 99.6041 92.264ZM110.976 92.264C113.682 92.264 116.124 90.196 116.124 86.61C116.124 83.002 113.682 80.934 110.976 80.934C108.292 80.934 105.85 83.002 105.85 86.61C105.85 90.196 108.292 92.264 110.976 92.264ZM110.976 90.196C109.392 90.196 108.446 88.766 108.446 86.61C108.446 84.432 109.392 83.002 110.976 83.002C112.56 83.002 113.528 84.432 113.528 86.61C113.528 88.766 112.56 90.196 110.976 90.196ZM119.117 92H121.647V85.4C122.307 83.772 123.341 83.178 124.199 83.178C124.661 83.178 124.947 83.244 125.321 83.354L125.761 81.154C125.431 81 125.079 80.934 124.529 80.934C123.385 80.934 122.241 81.704 121.471 83.112H121.383L121.207 81.198H119.117V92ZM128.882 96.444C131.236 96.444 132.358 94.926 133.26 92.484L137.176 81.198H134.734L133.106 86.5C132.842 87.468 132.556 88.546 132.292 89.536H132.204C131.874 88.524 131.566 87.446 131.258 86.5L129.388 81.198H126.814L131.06 91.868L130.862 92.55C130.51 93.628 129.85 94.398 128.706 94.398C128.442 94.398 128.134 94.31 127.936 94.244L127.474 96.224C127.87 96.356 128.288 96.444 128.882 96.444ZM53.3728 112.344C53.8348 110.826 54.2528 109.198 54.6488 107.592H54.7368C55.1548 109.176 55.5728 110.826 56.0348 112.344L56.5408 114.104H52.8668L53.3728 112.344ZM48.5548 120H51.1508L52.2728 116.106H57.1128L58.2348 120H60.9188L56.2328 105.612H53.2408L48.5548 120ZM66.4235 120.264C67.2815 120.264 68.0295 120.066 68.6235 119.868L68.1835 117.998C67.8755 118.13 67.4355 118.24 67.0615 118.24C66.0275 118.24 65.5435 117.624 65.5435 116.348V111.2H68.2935V109.198H65.5435V106.25H63.4315L63.1235 109.198L61.4515 109.308V111.2H62.9915V116.348C62.9915 118.68 63.9155 120.264 66.4235 120.264ZM74.432 120.264C75.29 120.264 76.038 120.066 76.632 119.868L76.192 117.998C75.884 118.13 75.444 118.24 75.07 118.24C74.036 118.24 73.552 117.624 73.552 116.348V111.2H76.302V109.198H73.552V106.25H71.44L71.132 109.198L69.46 109.308V111.2H71V116.348C71 118.68 71.924 120.264 74.432 120.264ZM79.0641 120H81.5941V113.4C82.2541 111.772 83.2881 111.178 84.1461 111.178C84.6081 111.178 84.8941 111.244 85.2681 111.354L85.7081 109.154C85.3781 109 85.0261 108.934 84.4761 108.934C83.3321 108.934 82.1881 109.704 81.4181 111.112H81.3301L81.1541 109.198H79.0641V120ZM89.7979 120.264C91.0739 120.264 92.1739 119.626 93.1419 118.812H93.2299L93.4059 120H95.4959V113.598C95.4959 110.584 94.1539 108.934 91.4699 108.934C89.7539 108.934 88.2139 109.594 87.0259 110.342L87.9499 112.036C88.9179 111.464 89.9299 110.98 90.9859 110.98C92.4599 110.98 92.9219 111.948 92.9659 113.092C88.5219 113.576 86.6079 114.786 86.6079 117.096C86.6079 118.988 87.9059 120.264 89.7979 120.264ZM90.6119 118.284C89.7099 118.284 89.0499 117.866 89.0499 116.898C89.0499 115.82 90.0179 115.05 92.9659 114.676V117.096C92.1519 117.844 91.4919 118.284 90.6119 118.284ZM103.523 120.264C104.755 120.264 106.031 119.824 107.043 118.944L106.009 117.272C105.393 117.778 104.623 118.196 103.787 118.196C102.093 118.196 100.905 116.766 100.905 114.61C100.905 112.432 102.115 111.002 103.853 111.002C104.535 111.002 105.085 111.288 105.657 111.794L106.889 110.144C106.097 109.462 105.107 108.934 103.721 108.934C100.839 108.934 98.3086 111.002 98.3086 114.61C98.3086 118.196 100.575 120.264 103.523 120.264ZM113.255 120.264C114.113 120.264 114.861 120.066 115.455 119.868L115.015 117.998C114.707 118.13 114.267 118.24 113.893 118.24C112.859 118.24 112.375 117.624 112.375 116.348V111.2H115.125V109.198H112.375V106.25H110.263L109.955 109.198L108.283 109.308V111.2H109.823V116.348C109.823 118.68 110.747 120.264 113.255 120.264ZM117.887 120H120.417V109.198H117.887V120ZM119.163 107.306C120.065 107.306 120.725 106.712 120.725 105.876C120.725 105.018 120.065 104.424 119.163 104.424C118.261 104.424 117.601 105.018 117.601 105.876C117.601 106.712 118.261 107.306 119.163 107.306ZM128.556 120.264C131.262 120.264 133.704 118.196 133.704 114.61C133.704 111.002 131.262 108.934 128.556 108.934C125.872 108.934 123.43 111.002 123.43 114.61C123.43 118.196 125.872 120.264 128.556 120.264ZM128.556 118.196C126.972 118.196 126.026 116.766 126.026 114.61C126.026 112.432 126.972 111.002 128.556 111.002C130.14 111.002 131.108 112.432 131.108 114.61C131.108 116.766 130.14 118.196 128.556 118.196ZM136.697 120H139.227V112.454C140.129 111.574 140.745 111.112 141.691 111.112C142.879 111.112 143.385 111.772 143.385 113.554V120H145.915V113.224C145.915 110.496 144.903 108.934 142.593 108.934C141.119 108.934 140.019 109.704 139.051 110.65H138.963L138.787 109.198H136.697V120Z" fill="#4A4A4A"/>
</g>
<g clip-path="url(#clip1)">
<g filter="url(#filter1_d)">
<path fill-rule="evenodd" clip-rule="evenodd" d="M668 197C722.124 197 766 153.124 766 99C766 44.8761 722.124 1 668 1C613.876 1 570 44.8761 570 99C570 153.124 613.876 197 668 197Z" fill="#A8E6D2"/>
</g>
<path d="M615.239 107H617.791V92.612H615.239V107ZM621.717 107H624.247V99.454C625.149 98.574 625.765 98.112 626.711 98.112C627.899 98.112 628.405 98.772 628.405 100.554V107H630.935V100.224C630.935 97.496 629.923 95.934 627.613 95.934C626.139 95.934 625.039 96.704 624.071 97.65H623.983L623.807 96.198H621.717V107ZM638.322 107.264C639.18 107.264 639.928 107.066 640.522 106.868L640.082 104.998C639.774 105.13 639.334 105.24 638.96 105.24C637.926 105.24 637.442 104.624 637.442 103.348V98.2H640.192V96.198H637.442V93.25H635.33L635.022 96.198L633.35 96.308V98.2H634.89V103.348C634.89 105.68 635.814 107.264 638.322 107.264ZM647.231 107.264C648.595 107.264 649.893 106.78 650.927 106.098L650.069 104.514C649.277 105.02 648.485 105.306 647.561 105.306C645.823 105.306 644.591 104.206 644.371 102.292H651.235C651.301 102.028 651.345 101.544 651.345 101.06C651.345 98.046 649.805 95.934 646.879 95.934C644.349 95.934 641.907 98.09 641.907 101.61C641.907 105.174 644.239 107.264 647.231 107.264ZM644.349 100.576C644.569 98.838 645.669 97.892 646.945 97.892C648.419 97.892 649.145 98.904 649.145 100.576H644.349ZM654.25 107H656.78V100.4C657.44 98.772 658.474 98.178 659.332 98.178C659.794 98.178 660.08 98.244 660.454 98.354L660.894 96.154C660.564 96 660.212 95.934 659.662 95.934C658.518 95.934 657.374 96.704 656.604 98.112H656.516L656.34 96.198H654.25V107ZM664.984 107.264C666.26 107.264 667.36 106.626 668.328 105.812H668.416L668.592 107H670.682V100.598C670.682 97.584 669.34 95.934 666.656 95.934C664.94 95.934 663.4 96.594 662.212 97.342L663.136 99.036C664.104 98.464 665.116 97.98 666.172 97.98C667.646 97.98 668.108 98.948 668.152 100.092C663.708 100.576 661.794 101.786 661.794 104.096C661.794 105.988 663.092 107.264 664.984 107.264ZM665.798 105.284C664.896 105.284 664.236 104.866 664.236 103.898C664.236 102.82 665.204 102.05 668.152 101.676V104.096C667.338 104.844 666.678 105.284 665.798 105.284ZM678.708 107.264C679.94 107.264 681.216 106.824 682.228 105.944L681.194 104.272C680.578 104.778 679.808 105.196 678.972 105.196C677.278 105.196 676.09 103.766 676.09 101.61C676.09 99.432 677.3 98.002 679.038 98.002C679.72 98.002 680.27 98.288 680.842 98.794L682.074 97.144C681.282 96.462 680.292 95.934 678.906 95.934C676.024 95.934 673.494 98.002 673.494 101.61C673.494 105.196 675.76 107.264 678.708 107.264ZM688.441 107.264C689.299 107.264 690.047 107.066 690.641 106.868L690.201 104.998C689.893 105.13 689.453 105.24 689.079 105.24C688.045 105.24 687.561 104.624 687.561 103.348V98.2H690.311V96.198H687.561V93.25H685.449L685.141 96.198L683.469 96.308V98.2H685.009V103.348C685.009 105.68 685.933 107.264 688.441 107.264ZM693.073 107H695.603V96.198H693.073V107ZM694.349 94.306C695.251 94.306 695.911 93.712 695.911 92.876C695.911 92.018 695.251 91.424 694.349 91.424C693.447 91.424 692.787 92.018 692.787 92.876C692.787 93.712 693.447 94.306 694.349 94.306ZM703.741 107.264C706.447 107.264 708.889 105.196 708.889 101.61C708.889 98.002 706.447 95.934 703.741 95.934C701.057 95.934 698.615 98.002 698.615 101.61C698.615 105.196 701.057 107.264 703.741 107.264ZM703.741 105.196C702.157 105.196 701.211 103.766 701.211 101.61C701.211 99.432 702.157 98.002 703.741 98.002C705.325 98.002 706.293 99.432 706.293 101.61C706.293 103.766 705.325 105.196 703.741 105.196ZM711.882 107H714.412V99.454C715.314 98.574 715.93 98.112 716.876 98.112C718.064 98.112 718.57 98.772 718.57 100.554V107H721.1V100.224C721.1 97.496 720.088 95.934 717.778 95.934C716.304 95.934 715.204 96.704 714.236 97.65H714.148L713.972 96.198H711.882V107Z" fill="#4A4A4A"/>
</g>
<g filter="url(#filter2_d)">
<g clip-path="url(#clip2)">
<rect x="296" y="74" width="201" height="49" rx="24.5" fill="#FAFAFA" stroke="#F8DA06" stroke-width="5"/>
<path d="M324.817 107H326.951L331.527 92.568H329.657L327.347 100.356C326.841 102.072 326.489 103.436 325.961 105.13H325.873C325.323 103.436 324.993 102.072 324.465 100.356L322.155 92.568H320.197L324.817 107ZM333.812 107H335.616V96.308H333.812V107ZM334.736 94.108C335.44 94.108 335.99 93.624 335.99 92.942C335.99 92.238 335.44 91.776 334.736 91.776C334.032 91.776 333.482 92.238 333.482 92.942C333.482 93.624 334.032 94.108 334.736 94.108ZM342.509 107.264C345.039 107.264 346.425 105.812 346.425 104.074C346.425 102.05 344.709 101.412 343.169 100.84C341.959 100.378 340.793 100.004 340.793 98.992C340.793 98.178 341.409 97.452 342.751 97.452C343.697 97.452 344.467 97.848 345.193 98.398L346.051 97.254C345.237 96.594 344.071 96.044 342.729 96.044C340.419 96.044 339.055 97.364 339.055 99.08C339.055 100.884 340.727 101.61 342.245 102.16C343.411 102.6 344.687 103.084 344.687 104.184C344.687 105.108 343.983 105.856 342.575 105.856C341.299 105.856 340.353 105.328 339.429 104.58L338.527 105.79C339.539 106.626 340.991 107.264 342.509 107.264ZM352.545 107.264C354.019 107.264 355.075 106.494 356.065 105.328H356.131L356.285 107H357.781V96.308H355.977V103.898C354.965 105.152 354.195 105.702 353.095 105.702C351.687 105.702 351.093 104.844 351.093 102.842V96.308H349.267V103.084C349.267 105.812 350.279 107.264 352.545 107.264ZM364.34 107.264C365.682 107.264 366.87 106.56 367.882 105.724H367.948L368.102 107H369.598V100.444C369.598 97.782 368.498 96.044 365.88 96.044C364.164 96.044 362.668 96.792 361.678 97.43L362.382 98.684C363.218 98.112 364.34 97.54 365.572 97.54C367.332 97.54 367.772 98.86 367.772 100.224C363.218 100.73 361.216 101.896 361.216 104.228C361.216 106.142 362.558 107.264 364.34 107.264ZM364.868 105.812C363.812 105.812 362.976 105.306 362.976 104.096C362.976 102.732 364.208 101.852 367.772 101.412V104.382C366.738 105.306 365.902 105.812 364.868 105.812ZM375.365 107.264C375.849 107.264 376.157 107.198 376.399 107.088L376.157 105.724C375.959 105.768 375.871 105.768 375.761 105.768C375.497 105.768 375.255 105.548 375.255 104.976V91.336H373.451V104.844C373.451 106.406 374.001 107.264 375.365 107.264ZM384.617 107H393.153V105.438H386.443V100.202H391.921V98.64H386.443V94.108H392.933V92.568H384.617V107ZM398.445 107.264C398.929 107.264 399.237 107.198 399.479 107.088L399.237 105.724C399.039 105.768 398.951 105.768 398.841 105.768C398.577 105.768 398.335 105.548 398.335 104.976V91.336H396.531V104.844C396.531 106.406 397.081 107.264 398.445 107.264ZM406.961 107.264C408.413 107.264 409.557 106.758 410.481 106.164L409.843 104.976C409.051 105.482 408.193 105.812 407.181 105.812C405.135 105.812 403.749 104.36 403.617 102.094H410.833C410.877 101.83 410.899 101.434 410.899 101.06C410.899 98.002 409.359 96.044 406.631 96.044C404.189 96.044 401.835 98.178 401.835 101.676C401.835 105.174 404.101 107.264 406.961 107.264ZM403.595 100.796C403.815 98.684 405.179 97.474 406.675 97.474C408.347 97.474 409.315 98.64 409.315 100.796H403.595ZM414.03 107H415.834V99.256C416.824 98.156 417.726 97.606 418.518 97.606C419.882 97.606 420.52 98.464 420.52 100.466V107H422.324V99.256C423.314 98.156 424.172 97.606 425.008 97.606C426.35 97.606 426.988 98.464 426.988 100.466V107H428.792V100.224C428.792 97.496 427.736 96.044 425.536 96.044C424.238 96.044 423.138 96.88 422.016 98.09C421.576 96.814 420.696 96.044 419.068 96.044C417.792 96.044 416.67 96.836 415.746 97.848H415.68L415.526 96.308H414.03V107ZM437.094 107.264C438.546 107.264 439.69 106.758 440.614 106.164L439.976 104.976C439.184 105.482 438.326 105.812 437.314 105.812C435.268 105.812 433.882 104.36 433.75 102.094H440.966C441.01 101.83 441.032 101.434 441.032 101.06C441.032 98.002 439.492 96.044 436.764 96.044C434.322 96.044 431.968 98.178 431.968 101.676C431.968 105.174 434.234 107.264 437.094 107.264ZM433.728 100.796C433.948 98.684 435.312 97.474 436.808 97.474C438.48 97.474 439.448 98.64 439.448 100.796H433.728ZM444.163 107H445.967V99.256C447.045 98.178 447.793 97.606 448.893 97.606C450.301 97.606 450.917 98.464 450.917 100.466V107H452.721V100.224C452.721 97.496 451.709 96.044 449.465 96.044C447.991 96.044 446.891 96.836 445.879 97.848H445.813L445.659 96.308H444.163V107ZM460.049 107.264C460.709 107.264 461.435 107.066 462.029 106.868L461.677 105.504C461.325 105.636 460.841 105.79 460.467 105.79C459.235 105.79 458.817 105.042 458.817 103.722V97.782H461.699V96.308H458.817V93.316H457.299L457.079 96.308L455.407 96.418V97.782H456.991V103.7C456.991 105.812 457.761 107.264 460.049 107.264ZM467.184 107.264C469.714 107.264 471.1 105.812 471.1 104.074C471.1 102.05 469.384 101.412 467.844 100.84C466.634 100.378 465.468 100.004 465.468 98.992C465.468 98.178 466.084 97.452 467.426 97.452C468.372 97.452 469.142 97.848 469.868 98.398L470.726 97.254C469.912 96.594 468.746 96.044 467.404 96.044C465.094 96.044 463.73 97.364 463.73 99.08C463.73 100.884 465.402 101.61 466.92 102.16C468.086 102.6 469.362 103.084 469.362 104.184C469.362 105.108 468.658 105.856 467.25 105.856C465.974 105.856 465.028 105.328 464.104 104.58L463.202 105.79C464.214 106.626 465.666 107.264 467.184 107.264Z" fill="#4A4A4A"/>
</g>
</g>
<g filter="url(#filter3_d)">
<g clip-path="url(#clip3)">
<rect x="164" y="132" width="201" height="49" rx="24.5" fill="#FAFAFA" stroke="#51BAA1" stroke-width="2"/>
<path d="M205.529 165.264C208.565 165.264 210.435 163.438 210.435 161.15C210.435 159.016 209.137 158.026 207.465 157.3L205.419 156.42C204.275 155.936 203.021 155.408 203.021 154.022C203.021 152.724 204.099 151.91 205.705 151.91C207.047 151.91 208.103 152.438 208.983 153.274L209.973 152.086C208.939 151.03 207.421 150.304 205.705 150.304C203.087 150.304 201.173 151.932 201.173 154.132C201.173 156.244 202.735 157.278 204.099 157.85L206.167 158.752C207.531 159.368 208.565 159.83 208.565 161.304C208.565 162.712 207.443 163.658 205.551 163.658C204.055 163.658 202.603 162.932 201.569 161.854L200.469 163.13C201.723 164.428 203.505 165.264 205.529 165.264ZM217.747 165.264C220.365 165.264 222.697 163.218 222.697 159.676C222.697 156.09 220.365 154.044 217.747 154.044C215.129 154.044 212.797 156.09 212.797 159.676C212.797 163.218 215.129 165.264 217.747 165.264ZM217.747 163.768C215.921 163.768 214.667 162.118 214.667 159.676C214.667 157.212 215.921 155.54 217.747 155.54C219.595 155.54 220.827 157.212 220.827 159.676C220.827 162.118 219.595 163.768 217.747 163.768ZM229.126 165.264C230.6 165.264 231.656 164.494 232.646 163.328H232.712L232.866 165H234.362V154.308H232.558V161.898C231.546 163.152 230.776 163.702 229.676 163.702C228.268 163.702 227.674 162.844 227.674 160.842V154.308H225.848V161.084C225.848 163.812 226.86 165.264 229.126 165.264ZM238.458 165H240.262V157.256C241.34 156.178 242.088 155.606 243.188 155.606C244.596 155.606 245.212 156.464 245.212 158.466V165H247.016V158.224C247.016 155.496 246.004 154.044 243.76 154.044C242.286 154.044 241.186 154.836 240.174 155.848H240.108L239.954 154.308H238.458V165ZM254.63 165.264C255.884 165.264 257.028 164.56 257.864 163.746H257.93L258.084 165H259.58V149.336H257.754V153.45L257.842 155.276C256.896 154.506 256.082 154.044 254.85 154.044C252.408 154.044 250.208 156.2 250.208 159.676C250.208 163.24 251.946 165.264 254.63 165.264ZM255.026 163.746C253.156 163.746 252.078 162.206 252.078 159.654C252.078 157.212 253.442 155.562 255.158 155.562C256.038 155.562 256.852 155.87 257.754 156.684V162.272C256.874 163.262 256.016 163.746 255.026 163.746ZM268.739 165H277.275V163.438H270.565V158.202H276.043V156.64H270.565V152.108H277.055V150.568H268.739V165ZM287.232 165H289.036V155.782H291.302V154.308H289.036V152.614C289.036 151.25 289.52 150.546 290.532 150.546C290.928 150.546 291.346 150.634 291.742 150.81L292.138 149.424C291.654 149.226 291.016 149.072 290.356 149.072C288.222 149.072 287.232 150.436 287.232 152.614V154.308H282.766V152.944C282.766 151.536 283.382 150.766 284.438 150.766C284.966 150.766 285.406 150.854 285.868 151.052L286.242 149.688C285.714 149.446 284.988 149.292 284.284 149.292C282.062 149.292 280.962 150.678 280.962 152.9V154.308L279.51 154.418V155.782H280.962V165H282.766V155.782H287.232V165ZM297.959 165.264C299.411 165.264 300.555 164.758 301.479 164.164L300.841 162.976C300.049 163.482 299.191 163.812 298.179 163.812C296.133 163.812 294.747 162.36 294.615 160.094H301.831C301.875 159.83 301.897 159.434 301.897 159.06C301.897 156.002 300.357 154.044 297.629 154.044C295.187 154.044 292.833 156.178 292.833 159.676C292.833 163.174 295.099 165.264 297.959 165.264ZM294.593 158.796C294.813 156.684 296.177 155.474 297.673 155.474C299.345 155.474 300.313 156.64 300.313 158.796H294.593ZM309.252 165.264C310.528 165.264 311.738 164.758 312.706 163.9L311.914 162.69C311.254 163.284 310.396 163.768 309.406 163.768C307.448 163.768 306.106 162.118 306.106 159.676C306.106 157.212 307.514 155.54 309.45 155.54C310.308 155.54 310.968 155.936 311.584 156.486L312.508 155.298C311.76 154.616 310.792 154.044 309.384 154.044C306.634 154.044 304.236 156.09 304.236 159.676C304.236 163.218 306.414 165.264 309.252 165.264ZM318.701 165.264C319.361 165.264 320.087 165.066 320.681 164.868L320.329 163.504C319.977 163.636 319.493 163.79 319.119 163.79C317.887 163.79 317.469 163.042 317.469 161.722V155.782H320.351V154.308H317.469V151.316H315.951L315.731 154.308L314.059 154.418V155.782H315.643V161.7C315.643 163.812 316.413 165.264 318.701 165.264ZM325.837 165.264C328.367 165.264 329.753 163.812 329.753 162.074C329.753 160.05 328.037 159.412 326.497 158.84C325.287 158.378 324.121 158.004 324.121 156.992C324.121 156.178 324.737 155.452 326.079 155.452C327.025 155.452 327.795 155.848 328.521 156.398L329.379 155.254C328.565 154.594 327.399 154.044 326.057 154.044C323.747 154.044 322.383 155.364 322.383 157.08C322.383 158.884 324.055 159.61 325.573 160.16C326.739 160.6 328.015 161.084 328.015 162.184C328.015 163.108 327.311 163.856 325.903 163.856C324.627 163.856 323.681 163.328 322.757 162.58L321.855 163.79C322.867 164.626 324.319 165.264 325.837 165.264Z" fill="#4A4A4A"/>
</g>
</g>
<g filter="url(#filter4_d)">
<g clip-path="url(#clip4)">
<rect x="164" y="16" width="201" height="49" rx="24.5" fill="#FAFAFA" stroke="#51BAA1" stroke-width="2"/>
<path d="M198.275 49H200.409L204.985 34.568H203.115L200.805 42.356C200.299 44.072 199.947 45.436 199.419 47.13H199.331C198.781 45.436 198.451 44.072 197.923 42.356L195.613 34.568H193.655L198.275 49ZM211.106 49.264C213.724 49.264 216.056 47.218 216.056 43.676C216.056 40.09 213.724 38.044 211.106 38.044C208.488 38.044 206.156 40.09 206.156 43.676C206.156 47.218 208.488 49.264 211.106 49.264ZM211.106 47.768C209.28 47.768 208.026 46.118 208.026 43.676C208.026 41.212 209.28 39.54 211.106 39.54C212.954 39.54 214.186 41.212 214.186 43.676C214.186 46.118 212.954 47.768 211.106 47.768ZM219.361 49H221.165V38.308H219.361V49ZM220.285 36.108C220.989 36.108 221.539 35.624 221.539 34.942C221.539 34.238 220.989 33.776 220.285 33.776C219.581 33.776 219.031 34.238 219.031 34.942C219.031 35.624 219.581 36.108 220.285 36.108ZM229.487 49.264C230.763 49.264 231.973 48.758 232.941 47.9L232.149 46.69C231.489 47.284 230.631 47.768 229.641 47.768C227.683 47.768 226.341 46.118 226.341 43.676C226.341 41.212 227.749 39.54 229.685 39.54C230.543 39.54 231.203 39.936 231.819 40.486L232.743 39.298C231.995 38.616 231.027 38.044 229.619 38.044C226.869 38.044 224.471 40.09 224.471 43.676C224.471 47.218 226.649 49.264 229.487 49.264ZM239.647 49.264C241.099 49.264 242.243 48.758 243.167 48.164L242.529 46.976C241.737 47.482 240.879 47.812 239.867 47.812C237.821 47.812 236.435 46.36 236.303 44.094H243.519C243.563 43.83 243.585 43.434 243.585 43.06C243.585 40.002 242.045 38.044 239.317 38.044C236.875 38.044 234.521 40.178 234.521 43.676C234.521 47.174 236.787 49.264 239.647 49.264ZM236.281 42.796C236.501 40.684 237.865 39.474 239.361 39.474C241.033 39.474 242.001 40.64 242.001 42.796H236.281ZM254.271 40.926C254.799 39.32 255.261 37.736 255.701 36.064H255.789C256.251 37.736 256.713 39.32 257.241 40.926L257.923 43.126H253.589L254.271 40.926ZM249.871 49H251.741L253.127 44.6H258.385L259.749 49H261.707L256.823 34.568H254.755L249.871 49ZM267.374 49.264C269.904 49.264 271.29 47.812 271.29 46.074C271.29 44.05 269.574 43.412 268.034 42.84C266.824 42.378 265.658 42.004 265.658 40.992C265.658 40.178 266.274 39.452 267.616 39.452C268.562 39.452 269.332 39.848 270.058 40.398L270.916 39.254C270.102 38.594 268.936 38.044 267.594 38.044C265.284 38.044 263.92 39.364 263.92 41.08C263.92 42.884 265.592 43.61 267.11 44.16C268.276 44.6 269.552 45.084 269.552 46.184C269.552 47.108 268.848 47.856 267.44 47.856C266.164 47.856 265.218 47.328 264.294 46.58L263.392 47.79C264.404 48.626 265.856 49.264 267.374 49.264ZM277.08 49.264C279.61 49.264 280.996 47.812 280.996 46.074C280.996 44.05 279.28 43.412 277.74 42.84C276.53 42.378 275.364 42.004 275.364 40.992C275.364 40.178 275.98 39.452 277.322 39.452C278.268 39.452 279.038 39.848 279.764 40.398L280.622 39.254C279.808 38.594 278.642 38.044 277.3 38.044C274.99 38.044 273.626 39.364 273.626 41.08C273.626 42.884 275.298 43.61 276.816 44.16C277.982 44.6 279.258 45.084 279.258 46.184C279.258 47.108 278.554 47.856 277.146 47.856C275.87 47.856 274.924 47.328 274 46.58L273.098 47.79C274.11 48.626 275.562 49.264 277.08 49.264ZM283.992 49H285.796V38.308H283.992V49ZM284.916 36.108C285.62 36.108 286.17 35.624 286.17 34.942C286.17 34.238 285.62 33.776 284.916 33.776C284.212 33.776 283.662 34.238 283.662 34.942C283.662 35.624 284.212 36.108 284.916 36.108ZM292.689 49.264C295.219 49.264 296.605 47.812 296.605 46.074C296.605 44.05 294.889 43.412 293.349 42.84C292.139 42.378 290.973 42.004 290.973 40.992C290.973 40.178 291.589 39.452 292.931 39.452C293.877 39.452 294.647 39.848 295.373 40.398L296.231 39.254C295.417 38.594 294.251 38.044 292.909 38.044C290.599 38.044 289.235 39.364 289.235 41.08C289.235 42.884 290.907 43.61 292.425 44.16C293.591 44.6 294.867 45.084 294.867 46.184C294.867 47.108 294.163 47.856 292.755 47.856C291.479 47.856 290.533 47.328 289.609 46.58L288.707 47.79C289.719 48.626 291.171 49.264 292.689 49.264ZM302.537 49.264C303.197 49.264 303.923 49.066 304.517 48.868L304.165 47.504C303.813 47.636 303.329 47.79 302.955 47.79C301.723 47.79 301.305 47.042 301.305 45.722V39.782H304.187V38.308H301.305V35.316H299.787L299.567 38.308L297.895 38.418V39.782H299.479V45.7C299.479 47.812 300.249 49.264 302.537 49.264ZM309.085 49.264C310.427 49.264 311.615 48.56 312.627 47.724H312.693L312.847 49H314.343V42.444C314.343 39.782 313.243 38.044 310.625 38.044C308.909 38.044 307.413 38.792 306.423 39.43L307.127 40.684C307.963 40.112 309.085 39.54 310.317 39.54C312.077 39.54 312.517 40.86 312.517 42.224C307.963 42.73 305.961 43.896 305.961 46.228C305.961 48.142 307.303 49.264 309.085 49.264ZM309.613 47.812C308.557 47.812 307.721 47.306 307.721 46.096C307.721 44.732 308.953 43.852 312.517 43.412V46.382C311.483 47.306 310.647 47.812 309.613 47.812ZM318.195 49H319.999V41.256C321.077 40.178 321.825 39.606 322.925 39.606C324.333 39.606 324.949 40.464 324.949 42.466V49H326.753V42.224C326.753 39.496 325.741 38.044 323.497 38.044C322.023 38.044 320.923 38.836 319.911 39.848H319.845L319.691 38.308H318.195V49ZM334.081 49.264C334.741 49.264 335.467 49.066 336.061 48.868L335.709 47.504C335.357 47.636 334.873 47.79 334.499 47.79C333.267 47.79 332.849 47.042 332.849 45.722V39.782H335.731V38.308H332.849V35.316H331.331L331.111 38.308L329.439 38.418V39.782H331.023V45.7C331.023 47.812 331.793 49.264 334.081 49.264Z" fill="#4A4A4A"/>
</g>
</g>
<g filter="url(#filter5_d)">
<g clip-path="url(#clip5)">
<rect x="164" y="74" width="116" height="49" rx="24.5" fill="#FAFAFA" stroke="#51BAA1" stroke-width="2"/>
<path d="M197.195 107H198.845V99.058C198.845 97.782 198.713 96.066 198.625 94.79H198.713L199.857 98.068L202.585 105.548H203.795L206.523 98.068L207.667 94.79H207.755C207.667 96.066 207.513 97.782 207.513 99.058V107H209.229V92.568H207.007L204.279 100.268C203.927 101.258 203.641 102.292 203.289 103.282H203.201C202.849 102.292 202.519 101.258 202.167 100.268L199.395 92.568H197.195V107ZM216.616 107.264C218.09 107.264 219.146 106.494 220.136 105.328H220.202L220.356 107H221.852V96.308H220.048V103.898C219.036 105.152 218.266 105.702 217.166 105.702C215.758 105.702 215.164 104.844 215.164 102.842V96.308H213.338V103.084C213.338 105.812 214.35 107.264 216.616 107.264ZM228.742 107.264C231.272 107.264 232.658 105.812 232.658 104.074C232.658 102.05 230.942 101.412 229.402 100.84C228.192 100.378 227.026 100.004 227.026 98.992C227.026 98.178 227.642 97.452 228.984 97.452C229.93 97.452 230.7 97.848 231.426 98.398L232.284 97.254C231.47 96.594 230.304 96.044 228.962 96.044C226.652 96.044 225.288 97.364 225.288 99.08C225.288 100.884 226.96 101.61 228.478 102.16C229.644 102.6 230.92 103.084 230.92 104.184C230.92 105.108 230.216 105.856 228.808 105.856C227.532 105.856 226.586 105.328 225.662 104.58L224.76 105.79C225.772 106.626 227.224 107.264 228.742 107.264ZM235.653 107H237.457V96.308H235.653V107ZM236.577 94.108C237.281 94.108 237.831 93.624 237.831 92.942C237.831 92.238 237.281 91.776 236.577 91.776C235.873 91.776 235.323 92.238 235.323 92.942C235.323 93.624 235.873 94.108 236.577 94.108ZM245.78 107.264C247.056 107.264 248.266 106.758 249.234 105.9L248.442 104.69C247.782 105.284 246.924 105.768 245.934 105.768C243.976 105.768 242.634 104.118 242.634 101.676C242.634 99.212 244.042 97.54 245.978 97.54C246.836 97.54 247.496 97.936 248.112 98.486L249.036 97.298C248.288 96.616 247.32 96.044 245.912 96.044C243.162 96.044 240.764 98.09 240.764 101.676C240.764 105.218 242.942 107.264 245.78 107.264Z" fill="#4A4A4A"/>
</g>
</g>
<g filter="url(#filter6_d)">
<g clip-path="url(#clip6)">
<rect x="376" y="16" width="116" height="49" rx="24.5" fill="#FAFAFA" stroke="#51BAA1" stroke-width="2"/>
<path d="M416.354 49.264C419.39 49.264 421.26 47.438 421.26 45.15C421.26 43.016 419.962 42.026 418.29 41.3L416.244 40.42C415.1 39.936 413.846 39.408 413.846 38.022C413.846 36.724 414.924 35.91 416.53 35.91C417.872 35.91 418.928 36.438 419.808 37.274L420.798 36.086C419.764 35.03 418.246 34.304 416.53 34.304C413.912 34.304 411.998 35.932 411.998 38.132C411.998 40.244 413.56 41.278 414.924 41.85L416.992 42.752C418.356 43.368 419.39 43.83 419.39 45.304C419.39 46.712 418.268 47.658 416.376 47.658C414.88 47.658 413.428 46.932 412.394 45.854L411.294 47.13C412.548 48.428 414.33 49.264 416.354 49.264ZM428.573 49.264C431.191 49.264 433.523 47.218 433.523 43.676C433.523 40.09 431.191 38.044 428.573 38.044C425.955 38.044 423.623 40.09 423.623 43.676C423.623 47.218 425.955 49.264 428.573 49.264ZM428.573 47.768C426.747 47.768 425.493 46.118 425.493 43.676C425.493 41.212 426.747 39.54 428.573 39.54C430.421 39.54 431.653 41.212 431.653 43.676C431.653 46.118 430.421 47.768 428.573 47.768ZM436.828 49H438.632V41.256C439.71 40.178 440.458 39.606 441.558 39.606C442.966 39.606 443.582 40.464 443.582 42.466V49H445.386V42.224C445.386 39.496 444.374 38.044 442.13 38.044C440.656 38.044 439.556 38.836 438.544 39.848H438.478L438.324 38.308H436.828V49ZM452.956 53.928C456.278 53.928 458.368 52.212 458.368 50.232C458.368 48.45 457.114 47.68 454.628 47.68H452.56C451.108 47.68 450.668 47.196 450.668 46.514C450.668 45.92 450.976 45.568 451.35 45.238C451.834 45.48 452.428 45.612 452.956 45.612C455.134 45.612 456.872 44.182 456.872 41.894C456.872 40.992 456.498 40.178 455.992 39.694H458.192V38.308H454.474C454.078 38.154 453.55 38.044 452.956 38.044C450.778 38.044 448.93 39.518 448.93 41.85C448.93 43.126 449.612 44.16 450.316 44.732V44.82C449.766 45.194 449.15 45.898 449.15 46.8C449.15 47.636 449.568 48.208 450.096 48.538V48.626C449.128 49.286 448.534 50.144 448.534 51.046C448.534 52.894 450.338 53.928 452.956 53.928ZM452.956 44.402C451.724 44.402 450.69 43.412 450.69 41.85C450.69 40.288 451.702 39.364 452.956 39.364C454.21 39.364 455.222 40.288 455.222 41.85C455.222 43.412 454.188 44.402 452.956 44.402ZM453.22 52.674C451.284 52.674 450.118 51.948 450.118 50.804C450.118 50.188 450.448 49.55 451.218 49C451.68 49.132 452.186 49.176 452.604 49.176H454.452C455.838 49.176 456.608 49.506 456.608 50.496C456.608 51.618 455.266 52.674 453.22 52.674Z" fill="#4A4A4A"/>
</g>
</g>
<g filter="url(#filter7_d)">
<g clip-path="url(#clip7)">
<rect x="861" y="75" width="113" height="49" rx="24.5" fill="#FAFAFA" stroke="#51BAA1" stroke-width="2"/>
<path d="M892.473 99.926C893.001 98.32 893.463 96.736 893.903 95.064H893.991C894.453 96.736 894.915 98.32 895.443 99.926L896.125 102.126H891.791L892.473 99.926ZM888.073 108H889.943L891.329 103.6H896.587L897.951 108H899.909L895.025 93.568H892.957L888.073 108ZM902.442 108H904.268V101.906H906.886L910.362 108H912.43L908.756 101.708C910.736 101.224 912.012 99.86 912.012 97.616C912.012 94.624 909.9 93.568 906.952 93.568H902.442V108ZM904.268 100.41V95.042H906.688C908.932 95.042 910.186 95.724 910.186 97.616C910.186 99.486 908.932 100.41 906.688 100.41H904.268ZM913.697 111.52H915.017L920.891 92.38H919.571L913.697 111.52ZM926.277 108H928.411L932.987 93.568H931.117L928.807 101.356C928.301 103.072 927.949 104.436 927.421 106.13H927.333C926.783 104.436 926.453 103.072 925.925 101.356L923.615 93.568H921.657L926.277 108ZM935.448 108H937.274V101.906H939.892L943.368 108H945.436L941.762 101.708C943.742 101.224 945.018 99.86 945.018 97.616C945.018 94.624 942.906 93.568 939.958 93.568H935.448V108ZM937.274 100.41V95.042H939.694C941.938 95.042 943.192 95.724 943.192 97.616C943.192 99.486 941.938 100.41 939.694 100.41H937.274Z" fill="#4A4A4A"/>
</g>
</g>
<g filter="url(#filter8_d)">
<g clip-path="url(#clip8)">
<rect x="734" y="17" width="201" height="49" rx="24.5" fill="#FAFAFA" stroke="#51BAA1" stroke-width="2"/>
<path d="M751.412 50H753.238V43.202H759.948V50H761.796V35.568H759.948V41.618H753.238V35.568H751.412V50ZM768.54 50.264C769.882 50.264 771.07 49.56 772.082 48.724H772.148L772.302 50H773.798V43.444C773.798 40.782 772.698 39.044 770.08 39.044C768.364 39.044 766.868 39.792 765.878 40.43L766.582 41.684C767.418 41.112 768.54 40.54 769.772 40.54C771.532 40.54 771.972 41.86 771.972 43.224C767.418 43.73 765.416 44.896 765.416 47.228C765.416 49.142 766.758 50.264 768.54 50.264ZM769.068 48.812C768.012 48.812 767.176 48.306 767.176 47.096C767.176 45.732 768.408 44.852 771.972 44.412V47.382C770.938 48.306 770.102 48.812 769.068 48.812ZM777.651 50H779.455V42.256C780.533 41.178 781.281 40.606 782.381 40.606C783.789 40.606 784.405 41.464 784.405 43.466V50H786.209V43.224C786.209 40.496 785.197 39.044 782.953 39.044C781.479 39.044 780.379 39.836 779.367 40.848H779.301L779.147 39.308H777.651V50ZM793.823 50.264C795.077 50.264 796.221 49.56 797.057 48.746H797.123L797.277 50H798.773V34.336H796.947V38.45L797.035 40.276C796.089 39.506 795.275 39.044 794.043 39.044C791.601 39.044 789.401 41.2 789.401 44.676C789.401 48.24 791.139 50.264 793.823 50.264ZM794.219 48.746C792.349 48.746 791.271 47.206 791.271 44.654C791.271 42.212 792.635 40.562 794.351 40.562C795.231 40.562 796.045 40.87 796.947 41.684V47.272C796.067 48.262 795.209 48.746 794.219 48.746ZM805.657 50.264C808.187 50.264 809.573 48.812 809.573 47.074C809.573 45.05 807.857 44.412 806.317 43.84C805.107 43.378 803.941 43.004 803.941 41.992C803.941 41.178 804.557 40.452 805.899 40.452C806.845 40.452 807.615 40.848 808.341 41.398L809.199 40.254C808.385 39.594 807.219 39.044 805.877 39.044C803.567 39.044 802.203 40.364 802.203 42.08C802.203 43.884 803.875 44.61 805.393 45.16C806.559 45.6 807.835 46.084 807.835 47.184C807.835 48.108 807.131 48.856 805.723 48.856C804.447 48.856 803.501 48.328 802.577 47.58L801.675 48.79C802.687 49.626 804.139 50.264 805.657 50.264ZM811.882 45.182H816.942V43.796H811.882V45.182ZM824.263 50.264C826.881 50.264 829.213 48.218 829.213 44.676C829.213 41.09 826.881 39.044 824.263 39.044C821.645 39.044 819.313 41.09 819.313 44.676C819.313 48.218 821.645 50.264 824.263 50.264ZM824.263 48.768C822.437 48.768 821.183 47.118 821.183 44.676C821.183 42.212 822.437 40.54 824.263 40.54C826.111 40.54 827.343 42.212 827.343 44.676C827.343 47.118 826.111 48.768 824.263 48.768ZM832.517 50H834.321V42.256C835.399 41.178 836.147 40.606 837.247 40.606C838.655 40.606 839.271 41.464 839.271 43.466V50H841.075V43.224C841.075 40.496 840.063 39.044 837.819 39.044C836.345 39.044 835.245 39.836 834.233 40.848H834.167L834.013 39.308H832.517V50ZM852.593 41.926C853.121 40.32 853.583 38.736 854.023 37.064H854.111C854.573 38.736 855.035 40.32 855.563 41.926L856.245 44.126H851.911L852.593 41.926ZM848.193 50H850.063L851.449 45.6H856.707L858.071 50H860.029L855.145 35.568H853.077L848.193 50ZM866.61 50.264C867.886 50.264 869.096 49.758 870.064 48.9L869.272 47.69C868.612 48.284 867.754 48.768 866.764 48.768C864.806 48.768 863.464 47.118 863.464 44.676C863.464 42.212 864.872 40.54 866.808 40.54C867.666 40.54 868.326 40.936 868.942 41.486L869.866 40.298C869.118 39.616 868.15 39.044 866.742 39.044C863.992 39.044 861.594 41.09 861.594 44.676C861.594 48.218 863.772 50.264 866.61 50.264ZM876.06 50.264C876.72 50.264 877.446 50.066 878.04 49.868L877.688 48.504C877.336 48.636 876.852 48.79 876.478 48.79C875.246 48.79 874.828 48.042 874.828 46.722V40.782H877.71V39.308H874.828V36.316H873.31L873.09 39.308L871.418 39.418V40.782H873.002V46.7C873.002 48.812 873.772 50.264 876.06 50.264ZM880.616 50H882.42V39.308H880.616V50ZM881.54 37.108C882.244 37.108 882.794 36.624 882.794 35.942C882.794 35.238 882.244 34.776 881.54 34.776C880.836 34.776 880.286 35.238 880.286 35.942C880.286 36.624 880.836 37.108 881.54 37.108ZM888.829 50H890.941L894.725 39.308H892.943L890.919 45.38C890.611 46.436 890.259 47.514 889.951 48.526H889.863C889.533 47.514 889.181 46.436 888.873 45.38L886.849 39.308H884.979L888.829 50ZM897.277 50H899.081V39.308H897.277V50ZM898.201 37.108C898.905 37.108 899.455 36.624 899.455 35.942C899.455 35.238 898.905 34.776 898.201 34.776C897.497 34.776 896.947 35.238 896.947 35.942C896.947 36.624 897.497 37.108 898.201 37.108ZM906.546 50.264C907.206 50.264 907.932 50.066 908.526 49.868L908.174 48.504C907.822 48.636 907.338 48.79 906.964 48.79C905.732 48.79 905.314 48.042 905.314 46.722V40.782H908.196V39.308H905.314V36.316H903.796L903.576 39.308L901.904 39.418V40.782H903.488V46.7C903.488 48.812 904.258 50.264 906.546 50.264ZM911.279 54.598C913.435 54.598 914.535 52.992 915.283 50.88L919.309 39.308H917.549L915.635 45.226C915.349 46.172 915.041 47.272 914.733 48.24H914.645C914.315 47.25 913.941 46.15 913.611 45.226L911.433 39.308H909.563L913.853 50.022L913.611 50.814C913.171 52.134 912.401 53.102 911.191 53.102C910.927 53.102 910.597 53.014 910.377 52.948L910.025 54.378C910.377 54.51 910.795 54.598 911.279 54.598Z" fill="#4A4A4A"/>
</g>
</g>
<g filter="url(#filter9_d)">
<g clip-path="url(#clip9)">
<rect x="734" y="75" width="116" height="49" rx="24.5" fill="#FAFAFA" stroke="#F8DA06" stroke-width="5"/>
<path d="M772.013 108.264C773.949 108.264 775.533 107.56 776.457 106.592V100.52H771.727V102.038H774.785V105.8C774.213 106.328 773.223 106.658 772.189 106.658C769.109 106.658 767.393 104.37 767.393 100.74C767.393 97.154 769.263 94.91 772.167 94.91C773.619 94.91 774.543 95.526 775.269 96.274L776.281 95.086C775.445 94.206 774.125 93.304 772.123 93.304C768.295 93.304 765.501 96.142 765.501 100.784C765.501 105.492 768.207 108.264 772.013 108.264ZM782.693 108.264C784.035 108.264 785.223 107.56 786.235 106.724H786.301L786.455 108H787.951V101.444C787.951 98.782 786.851 97.044 784.233 97.044C782.517 97.044 781.021 97.792 780.031 98.43L780.735 99.684C781.571 99.112 782.693 98.54 783.925 98.54C785.685 98.54 786.125 99.86 786.125 101.224C781.571 101.73 779.569 102.896 779.569 105.228C779.569 107.142 780.911 108.264 782.693 108.264ZM783.221 106.812C782.165 106.812 781.329 106.306 781.329 105.096C781.329 103.732 782.561 102.852 786.125 102.412V105.382C785.091 106.306 784.255 106.812 783.221 106.812ZM791.803 108H793.607V100.256C794.597 99.156 795.499 98.606 796.291 98.606C797.655 98.606 798.293 99.464 798.293 101.466V108H800.097V100.256C801.087 99.156 801.945 98.606 802.781 98.606C804.123 98.606 804.761 99.464 804.761 101.466V108H806.565V101.224C806.565 98.496 805.509 97.044 803.309 97.044C802.011 97.044 800.911 97.88 799.789 99.09C799.349 97.814 798.469 97.044 796.841 97.044C795.565 97.044 794.443 97.836 793.519 98.848H793.453L793.299 97.308H791.803V108ZM814.866 108.264C816.318 108.264 817.462 107.758 818.386 107.164L817.748 105.976C816.956 106.482 816.098 106.812 815.086 106.812C813.04 106.812 811.654 105.36 811.522 103.094H818.738C818.782 102.83 818.804 102.434 818.804 102.06C818.804 99.002 817.264 97.044 814.536 97.044C812.094 97.044 809.74 99.178 809.74 102.676C809.74 106.174 812.006 108.264 814.866 108.264ZM811.5 101.796C811.72 99.684 813.084 98.474 814.58 98.474C816.252 98.474 817.22 99.64 817.22 101.796H811.5Z" fill="#4A4A4A"/>
</g>
</g>
<g filter="url(#filter10_d)">
<rect x="734" y="133" width="116" height="49" rx="24.5" fill="#FFF6E8"/>
<path d="M762.937 166H764.763V160.28H767.139C770.307 160.28 772.463 158.85 772.463 155.814C772.463 152.646 770.285 151.568 767.051 151.568H762.937V166ZM764.763 158.784V153.042H766.831C769.361 153.042 770.637 153.724 770.637 155.814C770.637 157.86 769.427 158.784 766.919 158.784H764.763ZM778.835 166.264C780.309 166.264 781.365 165.494 782.355 164.328H782.421L782.575 166H784.071V155.308H782.267V162.898C781.255 164.152 780.485 164.702 779.385 164.702C777.977 164.702 777.383 163.844 777.383 161.842V155.308H775.557V162.084C775.557 164.812 776.569 166.264 778.835 166.264ZM787.045 166H795.141V164.526H789.333L794.965 156.276V155.308H787.661V156.782H792.677L787.045 165.032V166ZM796.88 166H804.976V164.526H799.168L804.8 156.276V155.308H797.496V156.782H802.512L796.88 165.032V166ZM809.75 166.264C810.234 166.264 810.542 166.198 810.784 166.088L810.542 164.724C810.344 164.768 810.256 164.768 810.146 164.768C809.882 164.768 809.64 164.548 809.64 163.976V150.336H807.836V163.844C807.836 165.406 808.386 166.264 809.75 166.264ZM818.266 166.264C819.718 166.264 820.862 165.758 821.786 165.164L821.148 163.976C820.356 164.482 819.498 164.812 818.486 164.812C816.44 164.812 815.054 163.36 814.922 161.094H822.138C822.182 160.83 822.204 160.434 822.204 160.06C822.204 157.002 820.664 155.044 817.936 155.044C815.494 155.044 813.14 157.178 813.14 160.676C813.14 164.174 815.406 166.264 818.266 166.264ZM814.9 159.796C815.12 157.684 816.484 156.474 817.98 156.474C819.652 156.474 820.62 157.64 820.62 159.796H814.9Z" fill="#4A4A4A"/>
</g>
<g filter="url(#filter11_d)">
<g clip-path="url(#clip10)">
<rect x="734" y="133" width="116" height="49" rx="24.5" fill="#FAFAFA" stroke="#51BAA1" stroke-width="2"/>
<path d="M762.937 166H764.763V160.28H767.139C770.307 160.28 772.463 158.85 772.463 155.814C772.463 152.646 770.285 151.568 767.051 151.568H762.937V166ZM764.763 158.784V153.042H766.831C769.361 153.042 770.637 153.724 770.637 155.814C770.637 157.86 769.427 158.784 766.919 158.784H764.763ZM778.835 166.264C780.309 166.264 781.365 165.494 782.355 164.328H782.421L782.575 166H784.071V155.308H782.267V162.898C781.255 164.152 780.485 164.702 779.385 164.702C777.977 164.702 777.383 163.844 777.383 161.842V155.308H775.557V162.084C775.557 164.812 776.569 166.264 778.835 166.264ZM787.045 166H795.141V164.526H789.333L794.965 156.276V155.308H787.661V156.782H792.677L787.045 165.032V166ZM796.88 166H804.976V164.526H799.168L804.8 156.276V155.308H797.496V156.782H802.512L796.88 165.032V166ZM809.75 166.264C810.234 166.264 810.542 166.198 810.784 166.088L810.542 164.724C810.344 164.768 810.256 164.768 810.146 164.768C809.882 164.768 809.64 164.548 809.64 163.976V150.336H807.836V163.844C807.836 165.406 808.386 166.264 809.75 166.264ZM818.266 166.264C819.718 166.264 820.862 165.758 821.786 165.164L821.148 163.976C820.356 164.482 819.498 164.812 818.486 164.812C816.44 164.812 815.054 163.36 814.922 161.094H822.138C822.182 160.83 822.204 160.434 822.204 160.06C822.204 157.002 820.664 155.044 817.936 155.044C815.494 155.044 813.14 157.178 813.14 160.676C813.14 164.174 815.406 166.264 818.266 166.264ZM814.9 159.796C815.12 157.684 816.484 156.474 817.98 156.474C819.652 156.474 820.62 157.64 820.62 159.796H814.9Z" fill="#4A4A4A"/>
</g>
</g>
<g filter="url(#filter12_d)">
<g clip-path="url(#clip11)">
<rect x="946" y="17" width="116" height="49" rx="24.5" fill="#FAFAFA" stroke="#51BAA1" stroke-width="2"/>
<path d="M984.461 50H986.265V39.308H984.461V50ZM985.385 37.108C986.089 37.108 986.639 36.624 986.639 35.942C986.639 35.238 986.089 34.776 985.385 34.776C984.681 34.776 984.131 35.238 984.131 35.942C984.131 36.624 984.681 37.108 985.385 37.108ZM990.54 50H992.366V44.28H994.742C997.91 44.28 1000.07 42.85 1000.07 39.814C1000.07 36.646 997.888 35.568 994.654 35.568H990.54V50ZM992.366 42.784V37.042H994.434C996.964 37.042 998.24 37.724 998.24 39.814C998.24 41.86 997.03 42.784 994.522 42.784H992.366ZM1004.83 50.264C1006.17 50.264 1007.36 49.56 1008.37 48.724H1008.44L1008.59 50H1010.09V43.444C1010.09 40.782 1008.99 39.044 1006.37 39.044C1004.66 39.044 1003.16 39.792 1002.17 40.43L1002.87 41.684C1003.71 41.112 1004.83 40.54 1006.06 40.54C1007.82 40.54 1008.26 41.86 1008.26 43.224C1003.71 43.73 1001.71 44.896 1001.71 47.228C1001.71 49.142 1003.05 50.264 1004.83 50.264ZM1005.36 48.812C1004.3 48.812 1003.47 48.306 1003.47 47.096C1003.47 45.732 1004.7 44.852 1008.26 44.412V47.382C1007.23 48.306 1006.39 48.812 1005.36 48.812ZM1017.6 50.264C1018.85 50.264 1019.99 49.56 1020.83 48.746H1020.9L1021.05 50H1022.55V34.336H1020.72V38.45L1020.81 40.276C1019.86 39.506 1019.05 39.044 1017.82 39.044C1015.37 39.044 1013.17 41.2 1013.17 44.676C1013.17 48.24 1014.91 50.264 1017.6 50.264ZM1017.99 48.746C1016.12 48.746 1015.04 47.206 1015.04 44.654C1015.04 42.212 1016.41 40.562 1018.12 40.562C1019 40.562 1019.82 40.87 1020.72 41.684V47.272C1019.84 48.262 1018.98 48.746 1017.99 48.746Z" fill="#4A4A4A"/>
</g>
</g>
<g clip-path="url(#clip12)">
<g filter="url(#filter13_d)">
<path fill-rule="evenodd" clip-rule="evenodd" d="M262 431C316.124 431 360 387.124 360 333C360 278.876 316.124 235 262 235C207.876 235 164 278.876 164 333C164 387.124 207.876 431 262 431Z" fill="#A8E6D2"/>
</g>
<path d="M245.411 327H247.963V320.994H253.199V318.838H247.963V314.768H254.101V312.612H245.411V327ZM259.72 327.264C261.194 327.264 262.25 326.538 263.196 325.416H263.262L263.46 327H265.528V316.198H262.998V323.59C262.184 324.646 261.546 325.086 260.6 325.086C259.434 325.086 258.928 324.426 258.928 322.644V316.198H256.398V322.974C256.398 325.702 257.41 327.264 259.72 327.264ZM269.222 327H271.752V319.454C272.654 318.574 273.27 318.112 274.216 318.112C275.404 318.112 275.91 318.772 275.91 320.554V327H278.44V320.224C278.44 317.496 277.428 315.934 275.118 315.934C273.644 315.934 272.544 316.704 271.576 317.65H271.488L271.312 316.198H269.222V327ZM218.029 355H226.917V352.844H220.581V348.598H225.751V346.442H220.581V342.768H226.697V340.612H218.029V355ZM232.6 355.264C233.194 355.264 233.634 355.176 233.942 355.044L233.612 353.152C233.414 353.196 233.326 353.196 233.216 353.196C232.952 353.196 232.666 352.976 232.666 352.36V339.468H230.136V352.228C230.136 354.098 230.796 355.264 232.6 355.264ZM241.217 355.264C242.581 355.264 243.879 354.78 244.913 354.098L244.055 352.514C243.263 353.02 242.471 353.306 241.547 353.306C239.809 353.306 238.577 352.206 238.357 350.292H245.221C245.287 350.028 245.331 349.544 245.331 349.06C245.331 346.046 243.791 343.934 240.865 343.934C238.335 343.934 235.893 346.09 235.893 349.61C235.893 353.174 238.225 355.264 241.217 355.264ZM238.335 348.576C238.555 346.838 239.655 345.892 240.931 345.892C242.405 345.892 243.131 346.904 243.131 348.576H238.335ZM248.237 355H250.767V347.454C251.603 346.552 252.373 346.112 253.033 346.112C254.177 346.112 254.705 346.772 254.705 348.554V355H257.235V347.454C258.071 346.552 258.819 346.112 259.501 346.112C260.623 346.112 261.151 346.772 261.151 348.554V355H263.703V348.224C263.703 345.496 262.647 343.934 260.359 343.934C258.995 343.934 257.917 344.77 256.883 345.87C256.377 344.66 255.475 343.934 253.891 343.934C252.549 343.934 251.493 344.704 250.591 345.672H250.503L250.327 344.198H248.237V355ZM271.886 355.264C273.25 355.264 274.548 354.78 275.582 354.098L274.724 352.514C273.932 353.02 273.14 353.306 272.216 353.306C270.478 353.306 269.246 352.206 269.026 350.292H275.89C275.956 350.028 276 349.544 276 349.06C276 346.046 274.46 343.934 271.534 343.934C269.004 343.934 266.562 346.09 266.562 349.61C266.562 353.174 268.894 355.264 271.886 355.264ZM269.004 348.576C269.224 346.838 270.324 345.892 271.6 345.892C273.074 345.892 273.8 346.904 273.8 348.576H269.004ZM278.906 355H281.436V347.454C282.338 346.574 282.954 346.112 283.9 346.112C285.088 346.112 285.594 346.772 285.594 348.554V355H288.124V348.224C288.124 345.496 287.112 343.934 284.802 343.934C283.328 343.934 282.228 344.704 281.26 345.65H281.172L280.996 344.198H278.906V355ZM295.511 355.264C296.369 355.264 297.117 355.066 297.711 354.868L297.271 352.998C296.963 353.13 296.523 353.24 296.149 353.24C295.115 353.24 294.631 352.624 294.631 351.348V346.2H297.381V344.198H294.631V341.25H292.519L292.211 344.198L290.539 344.308V346.2H292.079V351.348C292.079 353.68 293.003 355.264 295.511 355.264ZM302.942 355.264C305.67 355.264 307.144 353.768 307.144 351.92C307.144 349.896 305.516 349.192 304.042 348.642C302.876 348.224 301.798 347.894 301.798 347.036C301.798 346.354 302.304 345.848 303.382 345.848C304.24 345.848 305.01 346.222 305.758 346.772L306.924 345.232C306.044 344.55 304.834 343.934 303.338 343.934C300.918 343.934 299.4 345.276 299.4 347.168C299.4 348.972 301.006 349.786 302.436 350.314C303.58 350.754 304.746 351.15 304.746 352.052C304.746 352.8 304.196 353.35 303.03 353.35C301.93 353.35 301.006 352.888 300.038 352.14L298.85 353.768C299.906 354.626 301.468 355.264 302.942 355.264Z" fill="#4A4A4A"/>
</g>
<g filter="url(#filter14_d)">
<g clip-path="url(#clip13)">
<rect x="328" y="251" width="116" height="49" rx="24.5" fill="#FAFAFA" stroke="#51BAA1" stroke-width="2"/>
<path d="M369.41 283H371.258V270.108H375.614V268.568H365.054V270.108H369.41V283ZM381.222 283.264C383.84 283.264 386.172 281.218 386.172 277.676C386.172 274.09 383.84 272.044 381.222 272.044C378.604 272.044 376.272 274.09 376.272 277.676C376.272 281.218 378.604 283.264 381.222 283.264ZM381.222 281.768C379.396 281.768 378.142 280.118 378.142 277.676C378.142 275.212 379.396 273.54 381.222 273.54C383.07 273.54 384.302 275.212 384.302 277.676C384.302 280.118 383.07 281.768 381.222 281.768ZM389.567 287.598C391.723 287.598 392.823 285.992 393.571 283.88L397.597 272.308H395.837L393.923 278.226C393.637 279.172 393.329 280.272 393.021 281.24H392.933C392.603 280.25 392.229 279.15 391.899 278.226L389.721 272.308H387.851L392.141 283.022L391.899 283.814C391.459 285.134 390.689 286.102 389.479 286.102C389.215 286.102 388.885 286.014 388.665 285.948L388.313 287.378C388.665 287.51 389.083 287.598 389.567 287.598ZM402.944 283.264C405.474 283.264 406.86 281.812 406.86 280.074C406.86 278.05 405.144 277.412 403.604 276.84C402.394 276.378 401.228 276.004 401.228 274.992C401.228 274.178 401.844 273.452 403.186 273.452C404.132 273.452 404.902 273.848 405.628 274.398L406.486 273.254C405.672 272.594 404.506 272.044 403.164 272.044C400.854 272.044 399.49 273.364 399.49 275.08C399.49 276.884 401.162 277.61 402.68 278.16C403.846 278.6 405.122 279.084 405.122 280.184C405.122 281.108 404.418 281.856 403.01 281.856C401.734 281.856 400.788 281.328 399.864 280.58L398.962 281.79C399.974 282.626 401.426 283.264 402.944 283.264Z" fill="#4A4A4A"/>
</g>
</g>
<g filter="url(#filter15_d)">
<g clip-path="url(#clip14)">
<rect x="495" y="309" width="116" height="49" rx="24.5" fill="#FAFAFA" stroke="#51BAA1" stroke-width="2"/>
<path d="M535.217 341H537.043V335.28H539.419C542.587 335.28 544.743 333.85 544.743 330.814C544.743 327.646 542.565 326.568 539.331 326.568H535.217V341ZM537.043 333.784V328.042H539.111C541.641 328.042 542.917 328.724 542.917 330.814C542.917 332.86 541.707 333.784 539.199 333.784H537.043ZM551.788 341.264C553.24 341.264 554.384 340.758 555.308 340.164L554.67 338.976C553.878 339.482 553.02 339.812 552.008 339.812C549.962 339.812 548.576 338.36 548.444 336.094H555.66C555.704 335.83 555.726 335.434 555.726 335.06C555.726 332.002 554.186 330.044 551.458 330.044C549.016 330.044 546.662 332.178 546.662 335.676C546.662 339.174 548.928 341.264 551.788 341.264ZM548.422 334.796C548.642 332.684 550.006 331.474 551.502 331.474C553.174 331.474 554.142 332.64 554.142 334.796H548.422ZM562.008 341.264C562.668 341.264 563.394 341.066 563.988 340.868L563.636 339.504C563.284 339.636 562.8 339.79 562.426 339.79C561.194 339.79 560.776 339.042 560.776 337.722V331.782H563.658V330.308H560.776V327.316H559.258L559.038 330.308L557.366 330.418V331.782H558.95V337.7C558.95 339.812 559.72 341.264 562.008 341.264ZM569.144 341.264C571.674 341.264 573.06 339.812 573.06 338.074C573.06 336.05 571.344 335.412 569.804 334.84C568.594 334.378 567.428 334.004 567.428 332.992C567.428 332.178 568.044 331.452 569.386 331.452C570.332 331.452 571.102 331.848 571.828 332.398L572.686 331.254C571.872 330.594 570.706 330.044 569.364 330.044C567.054 330.044 565.69 331.364 565.69 333.08C565.69 334.884 567.362 335.61 568.88 336.16C570.046 336.6 571.322 337.084 571.322 338.184C571.322 339.108 570.618 339.856 569.21 339.856C567.934 339.856 566.988 339.328 566.064 338.58L565.162 339.79C566.174 340.626 567.626 341.264 569.144 341.264Z" fill="#4A4A4A"/>
</g>
</g>
<g filter="url(#filter16_d)">
<g clip-path="url(#clip15)">
<rect x="328" y="309" width="157" height="49" rx="24.5" fill="#FAFAFA" stroke="#51BAA1" stroke-width="2"/>
<path d="M359.454 342H361.28V335.906H363.898L367.374 342H369.442L365.768 335.708C367.748 335.224 369.024 333.86 369.024 331.616C369.024 328.624 366.912 327.568 363.964 327.568H359.454V342ZM361.28 334.41V329.042H363.7C365.944 329.042 367.198 329.724 367.198 331.616C367.198 333.486 365.944 334.41 363.7 334.41H361.28ZM376.412 342.264C377.864 342.264 379.008 341.758 379.932 341.164L379.294 339.976C378.502 340.482 377.644 340.812 376.632 340.812C374.586 340.812 373.2 339.36 373.068 337.094H380.284C380.328 336.83 380.35 336.434 380.35 336.06C380.35 333.002 378.81 331.044 376.082 331.044C373.64 331.044 371.286 333.178 371.286 336.676C371.286 340.174 373.552 342.264 376.412 342.264ZM373.046 335.796C373.266 333.684 374.63 332.474 376.126 332.474C377.798 332.474 378.766 333.64 378.766 335.796H373.046ZM385.282 342H387.394L388.89 336.28C389.176 335.268 389.396 334.256 389.638 333.178H389.726C389.99 334.256 390.188 335.246 390.452 336.258L391.992 342H394.192L397.052 331.308H395.336L393.774 337.49C393.554 338.502 393.356 339.47 393.114 340.46H393.026C392.784 339.47 392.542 338.502 392.278 337.49L390.606 331.308H388.846L387.196 337.49C386.932 338.48 386.712 339.47 386.47 340.46H386.382C386.184 339.47 385.986 338.502 385.744 337.49L384.16 331.308H382.312L385.282 342ZM402.117 342.264C403.459 342.264 404.647 341.56 405.659 340.724H405.725L405.879 342H407.375V335.444C407.375 332.782 406.275 331.044 403.657 331.044C401.941 331.044 400.445 331.792 399.455 332.43L400.159 333.684C400.995 333.112 402.117 332.54 403.349 332.54C405.109 332.54 405.549 333.86 405.549 335.224C400.995 335.73 398.993 336.896 398.993 339.228C398.993 341.142 400.335 342.264 402.117 342.264ZM402.645 340.812C401.589 340.812 400.753 340.306 400.753 339.096C400.753 337.732 401.985 336.852 405.549 336.412V339.382C404.515 340.306 403.679 340.812 402.645 340.812ZM411.228 342H413.032V335.136C413.758 333.332 414.836 332.672 415.738 332.672C416.178 332.672 416.42 332.738 416.772 332.848L417.124 331.264C416.772 331.11 416.442 331.044 415.98 331.044C414.77 331.044 413.67 331.902 412.944 333.244H412.878L412.724 331.308H411.228V342ZM422.781 342.264C424.035 342.264 425.179 341.56 426.015 340.746H426.081L426.235 342H427.731V326.336H425.905V330.45L425.993 332.276C425.047 331.506 424.233 331.044 423.001 331.044C420.559 331.044 418.359 333.2 418.359 336.676C418.359 340.24 420.097 342.264 422.781 342.264ZM423.177 340.746C421.307 340.746 420.229 339.206 420.229 336.654C420.229 334.212 421.593 332.562 423.309 332.562C424.189 332.562 425.003 332.87 425.905 333.684V339.272C425.025 340.262 424.167 340.746 423.177 340.746ZM431.821 342H433.625V331.308H431.821V342ZM432.745 329.108C433.449 329.108 433.999 328.624 433.999 327.942C433.999 327.238 433.449 326.776 432.745 326.776C432.041 326.776 431.491 327.238 431.491 327.942C431.491 328.624 432.041 329.108 432.745 329.108ZM437.724 342H439.528V334.256C440.606 333.178 441.354 332.606 442.454 332.606C443.862 332.606 444.478 333.464 444.478 335.466V342H446.282V335.224C446.282 332.496 445.27 331.044 443.026 331.044C441.552 331.044 440.452 331.836 439.44 332.848H439.374L439.22 331.308H437.724V342ZM453.852 346.928C457.174 346.928 459.264 345.212 459.264 343.232C459.264 341.45 458.01 340.68 455.524 340.68H453.456C452.004 340.68 451.564 340.196 451.564 339.514C451.564 338.92 451.872 338.568 452.246 338.238C452.73 338.48 453.324 338.612 453.852 338.612C456.03 338.612 457.768 337.182 457.768 334.894C457.768 333.992 457.394 333.178 456.888 332.694H459.088V331.308H455.37C454.974 331.154 454.446 331.044 453.852 331.044C451.674 331.044 449.826 332.518 449.826 334.85C449.826 336.126 450.508 337.16 451.212 337.732V337.82C450.662 338.194 450.046 338.898 450.046 339.8C450.046 340.636 450.464 341.208 450.992 341.538V341.626C450.024 342.286 449.43 343.144 449.43 344.046C449.43 345.894 451.234 346.928 453.852 346.928ZM453.852 337.402C452.62 337.402 451.586 336.412 451.586 334.85C451.586 333.288 452.598 332.364 453.852 332.364C455.106 332.364 456.118 333.288 456.118 334.85C456.118 336.412 455.084 337.402 453.852 337.402ZM454.116 345.674C452.18 345.674 451.014 344.948 451.014 343.804C451.014 343.188 451.344 342.55 452.114 342C452.576 342.132 453.082 342.176 453.5 342.176H455.348C456.734 342.176 457.504 342.506 457.504 343.496C457.504 344.618 456.162 345.674 454.116 345.674Z" fill="#4A4A4A"/>
</g>
</g>
<g filter="url(#filter17_d)">
<g clip-path="url(#clip16)">
<rect x="580" y="251" width="221" height="49" rx="24.5" fill="#FAFAFA" stroke="#51BAA1" stroke-width="2"/>
<path d="M611.532 284.264C613.402 284.264 614.81 283.494 615.954 282.174L614.942 281.03C614.018 282.042 612.984 282.658 611.598 282.658C608.87 282.658 607.132 280.37 607.132 276.74C607.132 273.154 608.936 270.91 611.664 270.91C612.896 270.91 613.842 271.46 614.612 272.274L615.602 271.086C614.766 270.14 613.402 269.304 611.642 269.304C607.968 269.304 605.24 272.142 605.24 276.784C605.24 281.492 607.924 284.264 611.532 284.264ZM621.421 284.264C622.763 284.264 623.951 283.56 624.963 282.724H625.029L625.183 284H626.679V277.444C626.679 274.782 625.579 273.044 622.961 273.044C621.245 273.044 619.749 273.792 618.759 274.43L619.463 275.684C620.299 275.112 621.421 274.54 622.653 274.54C624.413 274.54 624.853 275.86 624.853 277.224C620.299 277.73 618.297 278.896 618.297 281.228C618.297 283.142 619.639 284.264 621.421 284.264ZM621.949 282.812C620.893 282.812 620.057 282.306 620.057 281.096C620.057 279.732 621.289 278.852 624.853 278.412V281.382C623.819 282.306 622.983 282.812 621.949 282.812ZM630.532 284H632.336V277.136C633.062 275.332 634.14 274.672 635.042 274.672C635.482 274.672 635.724 274.738 636.076 274.848L636.428 273.264C636.076 273.11 635.746 273.044 635.284 273.044C634.074 273.044 632.974 273.902 632.248 275.244H632.182L632.028 273.308H630.532V284ZM642.014 284.264C642.674 284.264 643.4 284.066 643.994 283.868L643.642 282.504C643.29 282.636 642.806 282.79 642.432 282.79C641.2 282.79 640.782 282.042 640.782 280.722V274.782H643.664V273.308H640.782V270.316H639.264L639.044 273.308L637.372 273.418V274.782H638.956V280.7C638.956 282.812 639.726 284.264 642.014 284.264ZM650.427 284.264C653.045 284.264 655.377 282.218 655.377 278.676C655.377 275.09 653.045 273.044 650.427 273.044C647.809 273.044 645.477 275.09 645.477 278.676C645.477 282.218 647.809 284.264 650.427 284.264ZM650.427 282.768C648.601 282.768 647.347 281.118 647.347 278.676C647.347 276.212 648.601 274.54 650.427 274.54C652.275 274.54 653.507 276.212 653.507 278.676C653.507 281.118 652.275 282.768 650.427 282.768ZM662.84 284.264C665.458 284.264 667.79 282.218 667.79 278.676C667.79 275.09 665.458 273.044 662.84 273.044C660.222 273.044 657.89 275.09 657.89 278.676C657.89 282.218 660.222 284.264 662.84 284.264ZM662.84 282.768C661.014 282.768 659.76 281.118 659.76 278.676C659.76 276.212 661.014 274.54 662.84 274.54C664.688 274.54 665.92 276.212 665.92 278.676C665.92 281.118 664.688 282.768 662.84 282.768ZM671.095 284H672.899V276.256C673.977 275.178 674.725 274.606 675.825 274.606C677.233 274.606 677.849 275.464 677.849 277.466V284H679.653V277.224C679.653 274.496 678.641 273.044 676.397 273.044C674.923 273.044 673.823 273.836 672.811 274.848H672.745L672.591 273.308H671.095V284ZM694.14 284.264C696.01 284.264 697.418 283.494 698.562 282.174L697.55 281.03C696.626 282.042 695.592 282.658 694.206 282.658C691.478 282.658 689.74 280.37 689.74 276.74C689.74 273.154 691.544 270.91 694.272 270.91C695.504 270.91 696.45 271.46 697.22 272.274L698.21 271.086C697.374 270.14 696.01 269.304 694.25 269.304C690.576 269.304 687.848 272.142 687.848 276.784C687.848 281.492 690.532 284.264 694.14 284.264ZM701.565 284H703.369V276.256C704.447 275.178 705.195 274.606 706.295 274.606C707.703 274.606 708.319 275.464 708.319 277.466V284H710.123V277.224C710.123 274.496 709.111 273.044 706.867 273.044C705.393 273.044 704.315 273.836 703.303 274.804L703.369 272.604V268.336H701.565V284ZM716.485 284.264C717.827 284.264 719.015 283.56 720.027 282.724H720.093L720.247 284H721.743V277.444C721.743 274.782 720.643 273.044 718.025 273.044C716.309 273.044 714.813 273.792 713.823 274.43L714.527 275.684C715.363 275.112 716.485 274.54 717.717 274.54C719.477 274.54 719.917 275.86 719.917 277.224C715.363 277.73 713.361 278.896 713.361 281.228C713.361 283.142 714.703 284.264 716.485 284.264ZM717.013 282.812C715.957 282.812 715.121 282.306 715.121 281.096C715.121 279.732 716.353 278.852 719.917 278.412V281.382C718.883 282.306 718.047 282.812 717.013 282.812ZM725.596 284H727.4V277.136C728.126 275.332 729.204 274.672 730.106 274.672C730.546 274.672 730.788 274.738 731.14 274.848L731.492 273.264C731.14 273.11 730.81 273.044 730.348 273.044C729.138 273.044 728.038 273.902 727.312 275.244H727.246L727.092 273.308H725.596V284ZM735.639 284.264C736.981 284.264 738.169 283.56 739.181 282.724H739.247L739.401 284H740.897V277.444C740.897 274.782 739.797 273.044 737.179 273.044C735.463 273.044 733.967 273.792 732.977 274.43L733.681 275.684C734.517 275.112 735.639 274.54 736.871 274.54C738.631 274.54 739.071 275.86 739.071 277.224C734.517 277.73 732.515 278.896 732.515 281.228C732.515 283.142 733.857 284.264 735.639 284.264ZM736.167 282.812C735.111 282.812 734.275 282.306 734.275 281.096C734.275 279.732 735.507 278.852 739.071 278.412V281.382C738.037 282.306 737.201 282.812 736.167 282.812ZM748.973 284.264C750.249 284.264 751.459 283.758 752.427 282.9L751.635 281.69C750.975 282.284 750.117 282.768 749.127 282.768C747.169 282.768 745.827 281.118 745.827 278.676C745.827 276.212 747.235 274.54 749.171 274.54C750.029 274.54 750.689 274.936 751.305 275.486L752.229 274.298C751.481 273.616 750.513 273.044 749.105 273.044C746.355 273.044 743.957 275.09 743.957 278.676C743.957 282.218 746.135 284.264 748.973 284.264ZM758.423 284.264C759.083 284.264 759.809 284.066 760.403 283.868L760.051 282.504C759.699 282.636 759.215 282.79 758.841 282.79C757.609 282.79 757.191 282.042 757.191 280.722V274.782H760.073V273.308H757.191V270.316H755.673L755.453 273.308L753.781 273.418V274.782H755.365V280.7C755.365 282.812 756.135 284.264 758.423 284.264ZM767.012 284.264C768.464 284.264 769.608 283.758 770.532 283.164L769.894 281.976C769.102 282.482 768.244 282.812 767.232 282.812C765.186 282.812 763.8 281.36 763.668 279.094H770.884C770.928 278.83 770.95 278.434 770.95 278.06C770.95 275.002 769.41 273.044 766.682 273.044C764.24 273.044 761.886 275.178 761.886 278.676C761.886 282.174 764.152 284.264 767.012 284.264ZM763.646 277.796C763.866 275.684 765.23 274.474 766.726 274.474C768.398 274.474 769.366 275.64 769.366 277.796H763.646ZM774.081 284H775.885V277.136C776.611 275.332 777.689 274.672 778.591 274.672C779.031 274.672 779.273 274.738 779.625 274.848L779.977 273.264C779.625 273.11 779.295 273.044 778.833 273.044C777.623 273.044 776.523 273.902 775.797 275.244H775.731L775.577 273.308H774.081V284Z" fill="#4A4A4A"/>
</g>
</g>
<g filter="url(#filter18_d)">
<g clip-path="url(#clip17)">
<rect x="454" y="367" width="157" height="49" rx="24.5" fill="#FAFAFA" stroke="#51BAA1" stroke-width="2"/>
<path d="M497.682 400.264C500.718 400.264 502.588 398.438 502.588 396.15C502.588 394.016 501.29 393.026 499.618 392.3L497.572 391.42C496.428 390.936 495.174 390.408 495.174 389.022C495.174 387.724 496.252 386.91 497.858 386.91C499.2 386.91 500.256 387.438 501.136 388.274L502.126 387.086C501.092 386.03 499.574 385.304 497.858 385.304C495.24 385.304 493.326 386.932 493.326 389.132C493.326 391.244 494.888 392.278 496.252 392.85L498.32 393.752C499.684 394.368 500.718 394.83 500.718 396.304C500.718 397.712 499.596 398.658 497.704 398.658C496.208 398.658 494.756 397.932 493.722 396.854L492.622 398.13C493.876 399.428 495.658 400.264 497.682 400.264ZM508.571 400.264C509.231 400.264 509.957 400.066 510.551 399.868L510.199 398.504C509.847 398.636 509.363 398.79 508.989 398.79C507.757 398.79 507.339 398.042 507.339 396.722V390.782H510.221V389.308H507.339V386.316H505.821L505.601 389.308L503.929 389.418V390.782H505.513V396.7C505.513 398.812 506.283 400.264 508.571 400.264ZM516.985 400.264C519.603 400.264 521.935 398.218 521.935 394.676C521.935 391.09 519.603 389.044 516.985 389.044C514.367 389.044 512.035 391.09 512.035 394.676C512.035 398.218 514.367 400.264 516.985 400.264ZM516.985 398.768C515.159 398.768 513.905 397.118 513.905 394.676C513.905 392.212 515.159 390.54 516.985 390.54C518.833 390.54 520.065 392.212 520.065 394.676C520.065 397.118 518.833 398.768 516.985 398.768ZM525.24 400H527.044V393.136C527.77 391.332 528.848 390.672 529.75 390.672C530.19 390.672 530.432 390.738 530.784 390.848L531.136 389.264C530.784 389.11 530.454 389.044 529.992 389.044C528.782 389.044 527.682 389.902 526.956 391.244H526.89L526.736 389.308H525.24V400ZM534.09 404.598C536.246 404.598 537.346 402.992 538.094 400.88L542.12 389.308H540.36L538.446 395.226C538.16 396.172 537.852 397.272 537.544 398.24H537.456C537.126 397.25 536.752 396.15 536.422 395.226L534.244 389.308H532.374L536.664 400.022L536.422 400.814C535.982 402.134 535.212 403.102 534.002 403.102C533.738 403.102 533.408 403.014 533.188 402.948L532.836 404.378C533.188 404.51 533.606 404.598 534.09 404.598ZM546.587 400.264C547.071 400.264 547.379 400.198 547.621 400.088L547.379 398.724C547.181 398.768 547.093 398.768 546.983 398.768C546.719 398.768 546.477 398.548 546.477 397.976V384.336H544.673V397.844C544.673 399.406 545.223 400.264 546.587 400.264ZM550.769 400H552.573V389.308H550.769V400ZM551.693 387.108C552.397 387.108 552.947 386.624 552.947 385.942C552.947 385.238 552.397 384.776 551.693 384.776C550.989 384.776 550.439 385.238 550.439 385.942C550.439 386.624 550.989 387.108 551.693 387.108ZM556.672 400H558.476V392.256C559.554 391.178 560.302 390.606 561.402 390.606C562.81 390.606 563.426 391.464 563.426 393.466V400H565.23V393.224C565.23 390.496 564.218 389.044 561.974 389.044C560.5 389.044 559.4 389.836 558.388 390.848H558.322L558.168 389.308H556.672V400ZM573.526 400.264C574.978 400.264 576.122 399.758 577.046 399.164L576.408 397.976C575.616 398.482 574.758 398.812 573.746 398.812C571.7 398.812 570.314 397.36 570.182 395.094H577.398C577.442 394.83 577.464 394.434 577.464 394.06C577.464 391.002 575.924 389.044 573.196 389.044C570.754 389.044 568.4 391.178 568.4 394.676C568.4 398.174 570.666 400.264 573.526 400.264ZM570.16 393.796C570.38 391.684 571.744 390.474 573.24 390.474C574.912 390.474 575.88 391.64 575.88 393.796H570.16Z" fill="#4A4A4A"/>
</g>
</g>
<g filter="url(#filter19_d)">
<rect x="328" y="367" width="116" height="49" rx="24.5" fill="#FFF6E8"/>
<path d="M356.937 400H358.763V394.28H361.139C364.307 394.28 366.463 392.85 366.463 389.814C366.463 386.646 364.285 385.568 361.051 385.568H356.937V400ZM358.763 392.784V387.042H360.831C363.361 387.042 364.637 387.724 364.637 389.814C364.637 391.86 363.427 392.784 360.919 392.784H358.763ZM372.835 400.264C374.309 400.264 375.365 399.494 376.355 398.328H376.421L376.575 400H378.071V389.308H376.267V396.898C375.255 398.152 374.485 398.702 373.385 398.702C371.977 398.702 371.383 397.844 371.383 395.842V389.308H369.557V396.084C369.557 398.812 370.569 400.264 372.835 400.264ZM381.045 400H389.141V398.526H383.333L388.965 390.276V389.308H381.661V390.782H386.677L381.045 399.032V400ZM390.88 400H398.976V398.526H393.168L398.8 390.276V389.308H391.496V390.782H396.512L390.88 399.032V400ZM403.75 400.264C404.234 400.264 404.542 400.198 404.784 400.088L404.542 398.724C404.344 398.768 404.256 398.768 404.146 398.768C403.882 398.768 403.64 398.548 403.64 397.976V384.336H401.836V397.844C401.836 399.406 402.386 400.264 403.75 400.264ZM412.266 400.264C413.718 400.264 414.862 399.758 415.786 399.164L415.148 397.976C414.356 398.482 413.498 398.812 412.486 398.812C410.44 398.812 409.054 397.36 408.922 395.094H416.138C416.182 394.83 416.204 394.434 416.204 394.06C416.204 391.002 414.664 389.044 411.936 389.044C409.494 389.044 407.14 391.178 407.14 394.676C407.14 398.174 409.406 400.264 412.266 400.264ZM408.9 393.796C409.12 391.684 410.484 390.474 411.98 390.474C413.652 390.474 414.62 391.64 414.62 393.796H408.9Z" fill="#4A4A4A"/>
</g>
<g filter="url(#filter20_d)">
<g clip-path="url(#clip18)">
<rect x="328" y="367" width="116" height="49" rx="24.5" fill="#FAFAFA" stroke="#51BAA1" stroke-width="2"/>
<path d="M355.556 391.926C356.084 390.32 356.546 388.736 356.986 387.064H357.074C357.536 388.736 357.998 390.32 358.526 391.926L359.208 394.126H354.874L355.556 391.926ZM351.156 400H353.026L354.412 395.6H359.67L361.034 400H362.992L358.108 385.568H356.04L351.156 400ZM366.958 400H369.07L370.566 394.28C370.852 393.268 371.072 392.256 371.314 391.178H371.402C371.666 392.256 371.864 393.246 372.128 394.258L373.668 400H375.868L378.728 389.308H377.012L375.45 395.49C375.23 396.502 375.032 397.47 374.79 398.46H374.702C374.46 397.47 374.218 396.502 373.954 395.49L372.282 389.308H370.522L368.872 395.49C368.608 396.48 368.388 397.47 368.146 398.46H368.058C367.86 397.47 367.662 396.502 367.42 395.49L365.836 389.308H363.988L366.958 400ZM383.793 400.264C385.135 400.264 386.323 399.56 387.335 398.724H387.401L387.555 400H389.051V393.444C389.051 390.782 387.951 389.044 385.333 389.044C383.617 389.044 382.121 389.792 381.131 390.43L381.835 391.684C382.671 391.112 383.793 390.54 385.025 390.54C386.785 390.54 387.225 391.86 387.225 393.224C382.671 393.73 380.669 394.896 380.669 397.228C380.669 399.142 382.011 400.264 383.793 400.264ZM384.321 398.812C383.265 398.812 382.429 398.306 382.429 397.096C382.429 395.732 383.661 394.852 387.225 394.412V397.382C386.191 398.306 385.355 398.812 384.321 398.812ZM392.904 400H394.708V393.136C395.434 391.332 396.512 390.672 397.414 390.672C397.854 390.672 398.096 390.738 398.448 390.848L398.8 389.264C398.448 389.11 398.118 389.044 397.656 389.044C396.446 389.044 395.346 389.902 394.62 391.244H394.554L394.4 389.308H392.904V400ZM404.457 400.264C405.711 400.264 406.855 399.56 407.691 398.746H407.757L407.911 400H409.407V384.336H407.581V388.45L407.669 390.276C406.723 389.506 405.909 389.044 404.677 389.044C402.235 389.044 400.035 391.2 400.035 394.676C400.035 398.24 401.773 400.264 404.457 400.264ZM404.853 398.746C402.983 398.746 401.905 397.206 401.905 394.654C401.905 392.212 403.269 390.562 404.985 390.562C405.865 390.562 406.679 390.87 407.581 391.684V397.272C406.701 398.262 405.843 398.746 404.853 398.746ZM416.291 400.264C418.821 400.264 420.207 398.812 420.207 397.074C420.207 395.05 418.491 394.412 416.951 393.84C415.741 393.378 414.575 393.004 414.575 391.992C414.575 391.178 415.191 390.452 416.533 390.452C417.479 390.452 418.249 390.848 418.975 391.398L419.833 390.254C419.019 389.594 417.853 389.044 416.511 389.044C414.201 389.044 412.837 390.364 412.837 392.08C412.837 393.884 414.509 394.61 416.027 395.16C417.193 395.6 418.469 396.084 418.469 397.184C418.469 398.108 417.765 398.856 416.357 398.856C415.081 398.856 414.135 398.328 413.211 397.58L412.309 398.79C413.321 399.626 414.773 400.264 416.291 400.264Z" fill="#4A4A4A"/>
</g>
</g>
<g filter="url(#filter21_d)">
<g clip-path="url(#clip19)">
<rect x="621" y="367" width="116" height="49" rx="24.5" fill="#FAFAFA" stroke="#F8DA06" stroke-width="5"/>
<path d="M652.809 400H654.635V393.906H657.253L660.729 400H662.797L659.123 393.708C661.103 393.224 662.379 391.86 662.379 389.616C662.379 386.624 660.267 385.568 657.319 385.568H652.809V400ZM654.635 392.41V387.042H657.055C659.299 387.042 660.553 387.724 660.553 389.616C660.553 391.486 659.299 392.41 657.055 392.41H654.635ZM669.59 400.264C672.208 400.264 674.54 398.218 674.54 394.676C674.54 391.09 672.208 389.044 669.59 389.044C666.972 389.044 664.64 391.09 664.64 394.676C664.64 398.218 666.972 400.264 669.59 400.264ZM669.59 398.768C667.764 398.768 666.51 397.118 666.51 394.676C666.51 392.212 667.764 390.54 669.59 390.54C671.438 390.54 672.67 392.212 672.67 394.676C672.67 397.118 671.438 398.768 669.59 398.768ZM682.575 400.264C685.017 400.264 687.195 398.13 687.195 394.478C687.195 391.178 685.721 389.044 682.949 389.044C681.761 389.044 680.573 389.682 679.605 390.54L679.649 388.604V384.336H677.845V400H679.297L679.451 398.9H679.517C680.463 399.758 681.585 400.264 682.575 400.264ZM682.267 398.746C681.563 398.746 680.595 398.438 679.649 397.624V392.014C680.661 391.068 681.607 390.562 682.509 390.562C684.533 390.562 685.325 392.146 685.325 394.5C685.325 397.14 684.027 398.746 682.267 398.746ZM694.652 400.264C697.27 400.264 699.602 398.218 699.602 394.676C699.602 391.09 697.27 389.044 694.652 389.044C692.034 389.044 689.702 391.09 689.702 394.676C689.702 398.218 692.034 400.264 694.652 400.264ZM694.652 398.768C692.826 398.768 691.572 397.118 691.572 394.676C691.572 392.212 692.826 390.54 694.652 390.54C696.5 390.54 697.732 392.212 697.732 394.676C697.732 397.118 696.5 398.768 694.652 398.768ZM705.908 400.264C706.568 400.264 707.294 400.066 707.888 399.868L707.536 398.504C707.184 398.636 706.7 398.79 706.326 398.79C705.094 398.79 704.676 398.042 704.676 396.722V390.782H707.558V389.308H704.676V386.316H703.158L702.938 389.308L701.266 389.418V390.782H702.85V396.7C702.85 398.812 703.62 400.264 705.908 400.264Z" fill="#4A4A4A"/>
</g>
</g>
<g filter="url(#filter22_d)">
<g clip-path="url(#clip20)">
<rect x="454" y="251" width="116" height="49" rx="24.5" fill="#FAFAFA" stroke="#51BAA1" stroke-width="2"/>
<path d="M485.083 284H486.909V277.532H492.409V275.992H486.909V271.108H493.399V269.568H485.083V284ZM500.124 284.264C502.742 284.264 505.074 282.218 505.074 278.676C505.074 275.09 502.742 273.044 500.124 273.044C497.506 273.044 495.174 275.09 495.174 278.676C495.174 282.218 497.506 284.264 500.124 284.264ZM500.124 282.768C498.298 282.768 497.044 281.118 497.044 278.676C497.044 276.212 498.298 274.54 500.124 274.54C501.972 274.54 503.204 276.212 503.204 278.676C503.204 281.118 501.972 282.768 500.124 282.768ZM512.537 284.264C515.155 284.264 517.487 282.218 517.487 278.676C517.487 275.09 515.155 273.044 512.537 273.044C509.919 273.044 507.587 275.09 507.587 278.676C507.587 282.218 509.919 284.264 512.537 284.264ZM512.537 282.768C510.711 282.768 509.457 281.118 509.457 278.676C509.457 276.212 510.711 274.54 512.537 274.54C514.385 274.54 515.617 276.212 515.617 278.676C515.617 281.118 514.385 282.768 512.537 282.768ZM524.444 284.264C525.698 284.264 526.842 283.56 527.678 282.746H527.744L527.898 284H529.394V268.336H527.568V272.45L527.656 274.276C526.71 273.506 525.896 273.044 524.664 273.044C522.222 273.044 520.022 275.2 520.022 278.676C520.022 282.24 521.76 284.264 524.444 284.264ZM524.84 282.746C522.97 282.746 521.892 281.206 521.892 278.654C521.892 276.212 523.256 274.562 524.972 274.562C525.852 274.562 526.666 274.87 527.568 275.684V281.272C526.688 282.262 525.83 282.746 524.84 282.746ZM536.278 284.264C538.808 284.264 540.194 282.812 540.194 281.074C540.194 279.05 538.478 278.412 536.938 277.84C535.728 277.378 534.562 277.004 534.562 275.992C534.562 275.178 535.178 274.452 536.52 274.452C537.466 274.452 538.236 274.848 538.962 275.398L539.82 274.254C539.006 273.594 537.84 273.044 536.498 273.044C534.188 273.044 532.824 274.364 532.824 276.08C532.824 277.884 534.496 278.61 536.014 279.16C537.18 279.6 538.456 280.084 538.456 281.184C538.456 282.108 537.752 282.856 536.344 282.856C535.068 282.856 534.122 282.328 533.198 281.58L532.296 282.79C533.308 283.626 534.76 284.264 536.278 284.264Z" fill="#4A4A4A"/>
</g>
</g>
<g filter="url(#filter23_d)">
<g clip-path="url(#clip21)">
<rect x="747" y="367" width="116" height="49" rx="24.5" fill="#FAFAFA" stroke="#51BAA1" stroke-width="2"/>
<path d="M788.41 400H792.106C796.462 400 798.838 397.316 798.838 392.718C798.838 388.142 796.462 385.568 792.018 385.568H788.41V400ZM790.236 398.504V387.064H791.886C795.252 387.064 796.946 389.088 796.946 392.718C796.946 396.37 795.252 398.504 791.886 398.504H790.236ZM806.416 400.264C809.034 400.264 811.366 398.218 811.366 394.676C811.366 391.09 809.034 389.044 806.416 389.044C803.798 389.044 801.466 391.09 801.466 394.676C801.466 398.218 803.798 400.264 806.416 400.264ZM806.416 398.768C804.59 398.768 803.336 397.118 803.336 394.676C803.336 392.212 804.59 390.54 806.416 390.54C808.264 390.54 809.496 392.212 809.496 394.676C809.496 397.118 808.264 398.768 806.416 398.768ZM816.585 400.264C817.069 400.264 817.377 400.198 817.619 400.088L817.377 398.724C817.179 398.768 817.091 398.768 816.981 398.768C816.717 398.768 816.475 398.548 816.475 397.976V384.336H814.671V397.844C814.671 399.406 815.221 400.264 816.585 400.264ZM822.681 400.264C823.165 400.264 823.473 400.198 823.715 400.088L823.473 398.724C823.275 398.768 823.187 398.768 823.077 398.768C822.813 398.768 822.571 398.548 822.571 397.976V384.336H820.767V397.844C820.767 399.406 821.317 400.264 822.681 400.264Z" fill="#4A4A4A"/>
</g>
</g>
<g filter="url(#filter24_d)">
<g clip-path="url(#clip22)">
<rect x="621" y="309" width="116" height="49" rx="24.5" fill="#FAFAFA" stroke="#51BAA1" stroke-width="2"/>
<path d="M655.003 342H663.143V340.438H656.829V327.568H655.003V342ZM666.191 342H674.727V340.438H668.017V335.202H673.495V333.64H668.017V329.108H674.507V327.568H666.191V342ZM683.957 342.264C685.893 342.264 687.477 341.56 688.401 340.592V334.52H683.671V336.038H686.729V339.8C686.157 340.328 685.167 340.658 684.133 340.658C681.053 340.658 679.337 338.37 679.337 334.74C679.337 331.154 681.207 328.91 684.111 328.91C685.563 328.91 686.487 329.526 687.213 330.274L688.225 329.086C687.389 328.206 686.069 327.304 684.067 327.304C680.239 327.304 677.445 330.142 677.445 334.784C677.445 339.492 680.151 342.264 683.957 342.264ZM697.672 342.264C701.302 342.264 703.854 339.36 703.854 334.718C703.854 330.12 701.302 327.304 697.672 327.304C694.042 327.304 691.512 330.098 691.512 334.718C691.512 339.36 694.042 342.264 697.672 342.264ZM697.672 340.658C695.098 340.658 693.404 338.326 693.404 334.718C693.404 331.132 695.098 328.91 697.672 328.91C700.246 328.91 701.94 331.132 701.94 334.718C701.94 338.326 700.246 340.658 697.672 340.658Z" fill="#4A4A4A"/>
</g>
</g>
<defs>
<filter id="filter0_d" x="-12" y="-10" width="220" height="220" filterUnits="userSpaceOnUse" color-interpolation-filters="sRGB">
<feFlood flood-opacity="0" result="BackgroundImageFix"/>
<feColorMatrix in="SourceAlpha" type="matrix" values="0 0 0 0 0 0 0 0 0 0 0 0 0 0 0 0 0 0 127 0"/>
<feOffset dy="2"/>
<feGaussianBlur stdDeviation="6"/>
<feColorMatrix type="matrix" values="0 0 0 0 0.715919 0 0 0 0 0.715919 0 0 0 0 0.715919 0 0 0 0.5 0"/>
<feBlend mode="normal" in2="BackgroundImageFix" result="effect1_dropShadow"/>
<feBlend mode="normal" in="SourceGraphic" in2="effect1_dropShadow" result="shape"/>
</filter>
<filter id="filter1_d" x="558" y="-9" width="220" height="220" filterUnits="userSpaceOnUse" color-interpolation-filters="sRGB">
<feFlood flood-opacity="0" result="BackgroundImageFix"/>
<feColorMatrix in="SourceAlpha" type="matrix" values="0 0 0 0 0 0 0 0 0 0 0 0 0 0 0 0 0 0 127 0"/>
<feOffset dy="2"/>
<feGaussianBlur stdDeviation="6"/>
<feColorMatrix type="matrix" values="0 0 0 0 0.715919 0 0 0 0 0.715919 0 0 0 0 0.715919 0 0 0 0.5 0"/>
<feBlend mode="normal" in2="BackgroundImageFix" result="effect1_dropShadow"/>
<feBlend mode="normal" in="SourceGraphic" in2="effect1_dropShadow" result="shape"/>
</filter>
<filter id="filter2_d" x="288" y="68" width="217" height="65" filterUnits="userSpaceOnUse" color-interpolation-filters="sRGB">
<feFlood flood-opacity="0" result="BackgroundImageFix"/>
<feColorMatrix in="SourceAlpha" type="matrix" values="0 0 0 0 0 0 0 0 0 0 0 0 0 0 0 0 0 0 127 0"/>
<feOffset dy="2"/>
<feGaussianBlur stdDeviation="4"/>
<feColorMatrix type="matrix" values="0 0 0 0 0.67179 0 0 0 0 0.67179 0 0 0 0 0.67179 0 0 0 0.5 0"/>
<feBlend mode="normal" in2="BackgroundImageFix" result="effect1_dropShadow"/>
<feBlend mode="normal" in="SourceGraphic" in2="effect1_dropShadow" result="shape"/>
</filter>
<filter id="filter3_d" x="156" y="126" width="217" height="65" filterUnits="userSpaceOnUse" color-interpolation-filters="sRGB">
<feFlood flood-opacity="0" result="BackgroundImageFix"/>
<feColorMatrix in="SourceAlpha" type="matrix" values="0 0 0 0 0 0 0 0 0 0 0 0 0 0 0 0 0 0 127 0"/>
<feOffset dy="2"/>
<feGaussianBlur stdDeviation="4"/>
<feColorMatrix type="matrix" values="0 0 0 0 0.67179 0 0 0 0 0.67179 0 0 0 0 0.67179 0 0 0 0.5 0"/>
<feBlend mode="normal" in2="BackgroundImageFix" result="effect1_dropShadow"/>
<feBlend mode="normal" in="SourceGraphic" in2="effect1_dropShadow" result="shape"/>
</filter>
<filter id="filter4_d" x="156" y="10" width="217" height="65" filterUnits="userSpaceOnUse" color-interpolation-filters="sRGB">
<feFlood flood-opacity="0" result="BackgroundImageFix"/>
<feColorMatrix in="SourceAlpha" type="matrix" values="0 0 0 0 0 0 0 0 0 0 0 0 0 0 0 0 0 0 127 0"/>
<feOffset dy="2"/>
<feGaussianBlur stdDeviation="4"/>
<feColorMatrix type="matrix" values="0 0 0 0 0.67179 0 0 0 0 0.67179 0 0 0 0 0.67179 0 0 0 0.5 0"/>
<feBlend mode="normal" in2="BackgroundImageFix" result="effect1_dropShadow"/>
<feBlend mode="normal" in="SourceGraphic" in2="effect1_dropShadow" result="shape"/>
</filter>
<filter id="filter5_d" x="156" y="68" width="132" height="65" filterUnits="userSpaceOnUse" color-interpolation-filters="sRGB">
<feFlood flood-opacity="0" result="BackgroundImageFix"/>
<feColorMatrix in="SourceAlpha" type="matrix" values="0 0 0 0 0 0 0 0 0 0 0 0 0 0 0 0 0 0 127 0"/>
<feOffset dy="2"/>
<feGaussianBlur stdDeviation="4"/>
<feColorMatrix type="matrix" values="0 0 0 0 0.67179 0 0 0 0 0.67179 0 0 0 0 0.67179 0 0 0 0.5 0"/>
<feBlend mode="normal" in2="BackgroundImageFix" result="effect1_dropShadow"/>
<feBlend mode="normal" in="SourceGraphic" in2="effect1_dropShadow" result="shape"/>
</filter>
<filter id="filter6_d" x="368" y="10" width="132" height="65" filterUnits="userSpaceOnUse" color-interpolation-filters="sRGB">
<feFlood flood-opacity="0" result="BackgroundImageFix"/>
<feColorMatrix in="SourceAlpha" type="matrix" values="0 0 0 0 0 0 0 0 0 0 0 0 0 0 0 0 0 0 127 0"/>
<feOffset dy="2"/>
<feGaussianBlur stdDeviation="4"/>
<feColorMatrix type="matrix" values="0 0 0 0 0.67179 0 0 0 0 0.67179 0 0 0 0 0.67179 0 0 0 0.5 0"/>
<feBlend mode="normal" in2="BackgroundImageFix" result="effect1_dropShadow"/>
<feBlend mode="normal" in="SourceGraphic" in2="effect1_dropShadow" result="shape"/>
</filter>
<filter id="filter7_d" x="853" y="69" width="129" height="65" filterUnits="userSpaceOnUse" color-interpolation-filters="sRGB">
<feFlood flood-opacity="0" result="BackgroundImageFix"/>
<feColorMatrix in="SourceAlpha" type="matrix" values="0 0 0 0 0 0 0 0 0 0 0 0 0 0 0 0 0 0 127 0"/>
<feOffset dy="2"/>
<feGaussianBlur stdDeviation="4"/>
<feColorMatrix type="matrix" values="0 0 0 0 0.67179 0 0 0 0 0.67179 0 0 0 0 0.67179 0 0 0 0.5 0"/>
<feBlend mode="normal" in2="BackgroundImageFix" result="effect1_dropShadow"/>
<feBlend mode="normal" in="SourceGraphic" in2="effect1_dropShadow" result="shape"/>
</filter>
<filter id="filter8_d" x="726" y="11" width="217" height="65" filterUnits="userSpaceOnUse" color-interpolation-filters="sRGB">
<feFlood flood-opacity="0" result="BackgroundImageFix"/>
<feColorMatrix in="SourceAlpha" type="matrix" values="0 0 0 0 0 0 0 0 0 0 0 0 0 0 0 0 0 0 127 0"/>
<feOffset dy="2"/>
<feGaussianBlur stdDeviation="4"/>
<feColorMatrix type="matrix" values="0 0 0 0 0.67179 0 0 0 0 0.67179 0 0 0 0 0.67179 0 0 0 0.5 0"/>
<feBlend mode="normal" in2="BackgroundImageFix" result="effect1_dropShadow"/>
<feBlend mode="normal" in="SourceGraphic" in2="effect1_dropShadow" result="shape"/>
</filter>
<filter id="filter9_d" x="726" y="69" width="132" height="65" filterUnits="userSpaceOnUse" color-interpolation-filters="sRGB">
<feFlood flood-opacity="0" result="BackgroundImageFix"/>
<feColorMatrix in="SourceAlpha" type="matrix" values="0 0 0 0 0 0 0 0 0 0 0 0 0 0 0 0 0 0 127 0"/>
<feOffset dy="2"/>
<feGaussianBlur stdDeviation="4"/>
<feColorMatrix type="matrix" values="0 0 0 0 0.67179 0 0 0 0 0.67179 0 0 0 0 0.67179 0 0 0 0.5 0"/>
<feBlend mode="normal" in2="BackgroundImageFix" result="effect1_dropShadow"/>
<feBlend mode="normal" in="SourceGraphic" in2="effect1_dropShadow" result="shape"/>
</filter>
<filter id="filter10_d" x="726" y="127" width="132" height="65" filterUnits="userSpaceOnUse" color-interpolation-filters="sRGB">
<feFlood flood-opacity="0" result="BackgroundImageFix"/>
<feColorMatrix in="SourceAlpha" type="matrix" values="0 0 0 0 0 0 0 0 0 0 0 0 0 0 0 0 0 0 127 0"/>
<feOffset dy="2"/>
<feGaussianBlur stdDeviation="4"/>
<feColorMatrix type="matrix" values="0 0 0 0 0.67179 0 0 0 0 0.67179 0 0 0 0 0.67179 0 0 0 0.5 0"/>
<feBlend mode="normal" in2="BackgroundImageFix" result="effect1_dropShadow"/>
<feBlend mode="normal" in="SourceGraphic" in2="effect1_dropShadow" result="shape"/>
</filter>
<filter id="filter11_d" x="726" y="127" width="132" height="65" filterUnits="userSpaceOnUse" color-interpolation-filters="sRGB">
<feFlood flood-opacity="0" result="BackgroundImageFix"/>
<feColorMatrix in="SourceAlpha" type="matrix" values="0 0 0 0 0 0 0 0 0 0 0 0 0 0 0 0 0 0 127 0"/>
<feOffset dy="2"/>
<feGaussianBlur stdDeviation="4"/>
<feColorMatrix type="matrix" values="0 0 0 0 0.67179 0 0 0 0 0.67179 0 0 0 0 0.67179 0 0 0 0.5 0"/>
<feBlend mode="normal" in2="BackgroundImageFix" result="effect1_dropShadow"/>
<feBlend mode="normal" in="SourceGraphic" in2="effect1_dropShadow" result="shape"/>
</filter>
<filter id="filter12_d" x="938" y="11" width="132" height="65" filterUnits="userSpaceOnUse" color-interpolation-filters="sRGB">
<feFlood flood-opacity="0" result="BackgroundImageFix"/>
<feColorMatrix in="SourceAlpha" type="matrix" values="0 0 0 0 0 0 0 0 0 0 0 0 0 0 0 0 0 0 127 0"/>
<feOffset dy="2"/>
<feGaussianBlur stdDeviation="4"/>
<feColorMatrix type="matrix" values="0 0 0 0 0.67179 0 0 0 0 0.67179 0 0 0 0 0.67179 0 0 0 0.5 0"/>
<feBlend mode="normal" in2="BackgroundImageFix" result="effect1_dropShadow"/>
<feBlend mode="normal" in="SourceGraphic" in2="effect1_dropShadow" result="shape"/>
</filter>
<filter id="filter13_d" x="152" y="225" width="220" height="220" filterUnits="userSpaceOnUse" color-interpolation-filters="sRGB">
<feFlood flood-opacity="0" result="BackgroundImageFix"/>
<feColorMatrix in="SourceAlpha" type="matrix" values="0 0 0 0 0 0 0 0 0 0 0 0 0 0 0 0 0 0 127 0"/>
<feOffset dy="2"/>
<feGaussianBlur stdDeviation="6"/>
<feColorMatrix type="matrix" values="0 0 0 0 0.715919 0 0 0 0 0.715919 0 0 0 0 0.715919 0 0 0 0.5 0"/>
<feBlend mode="normal" in2="BackgroundImageFix" result="effect1_dropShadow"/>
<feBlend mode="normal" in="SourceGraphic" in2="effect1_dropShadow" result="shape"/>
</filter>
<filter id="filter14_d" x="320" y="245" width="132" height="65" filterUnits="userSpaceOnUse" color-interpolation-filters="sRGB">
<feFlood flood-opacity="0" result="BackgroundImageFix"/>
<feColorMatrix in="SourceAlpha" type="matrix" values="0 0 0 0 0 0 0 0 0 0 0 0 0 0 0 0 0 0 127 0"/>
<feOffset dy="2"/>
<feGaussianBlur stdDeviation="4"/>
<feColorMatrix type="matrix" values="0 0 0 0 0.67179 0 0 0 0 0.67179 0 0 0 0 0.67179 0 0 0 0.5 0"/>
<feBlend mode="normal" in2="BackgroundImageFix" result="effect1_dropShadow"/>
<feBlend mode="normal" in="SourceGraphic" in2="effect1_dropShadow" result="shape"/>
</filter>
<filter id="filter15_d" x="487" y="303" width="132" height="65" filterUnits="userSpaceOnUse" color-interpolation-filters="sRGB">
<feFlood flood-opacity="0" result="BackgroundImageFix"/>
<feColorMatrix in="SourceAlpha" type="matrix" values="0 0 0 0 0 0 0 0 0 0 0 0 0 0 0 0 0 0 127 0"/>
<feOffset dy="2"/>
<feGaussianBlur stdDeviation="4"/>
<feColorMatrix type="matrix" values="0 0 0 0 0.67179 0 0 0 0 0.67179 0 0 0 0 0.67179 0 0 0 0.5 0"/>
<feBlend mode="normal" in2="BackgroundImageFix" result="effect1_dropShadow"/>
<feBlend mode="normal" in="SourceGraphic" in2="effect1_dropShadow" result="shape"/>
</filter>
<filter id="filter16_d" x="320" y="303" width="173" height="65" filterUnits="userSpaceOnUse" color-interpolation-filters="sRGB">
<feFlood flood-opacity="0" result="BackgroundImageFix"/>
<feColorMatrix in="SourceAlpha" type="matrix" values="0 0 0 0 0 0 0 0 0 0 0 0 0 0 0 0 0 0 127 0"/>
<feOffset dy="2"/>
<feGaussianBlur stdDeviation="4"/>
<feColorMatrix type="matrix" values="0 0 0 0 0.67179 0 0 0 0 0.67179 0 0 0 0 0.67179 0 0 0 0.5 0"/>
<feBlend mode="normal" in2="BackgroundImageFix" result="effect1_dropShadow"/>
<feBlend mode="normal" in="SourceGraphic" in2="effect1_dropShadow" result="shape"/>
</filter>
<filter id="filter17_d" x="572" y="245" width="237" height="65" filterUnits="userSpaceOnUse" color-interpolation-filters="sRGB">
<feFlood flood-opacity="0" result="BackgroundImageFix"/>
<feColorMatrix in="SourceAlpha" type="matrix" values="0 0 0 0 0 0 0 0 0 0 0 0 0 0 0 0 0 0 127 0"/>
<feOffset dy="2"/>
<feGaussianBlur stdDeviation="4"/>
<feColorMatrix type="matrix" values="0 0 0 0 0.67179 0 0 0 0 0.67179 0 0 0 0 0.67179 0 0 0 0.5 0"/>
<feBlend mode="normal" in2="BackgroundImageFix" result="effect1_dropShadow"/>
<feBlend mode="normal" in="SourceGraphic" in2="effect1_dropShadow" result="shape"/>
</filter>
<filter id="filter18_d" x="446" y="361" width="173" height="65" filterUnits="userSpaceOnUse" color-interpolation-filters="sRGB">
<feFlood flood-opacity="0" result="BackgroundImageFix"/>
<feColorMatrix in="SourceAlpha" type="matrix" values="0 0 0 0 0 0 0 0 0 0 0 0 0 0 0 0 0 0 127 0"/>
<feOffset dy="2"/>
<feGaussianBlur stdDeviation="4"/>
<feColorMatrix type="matrix" values="0 0 0 0 0.67179 0 0 0 0 0.67179 0 0 0 0 0.67179 0 0 0 0.5 0"/>
<feBlend mode="normal" in2="BackgroundImageFix" result="effect1_dropShadow"/>
<feBlend mode="normal" in="SourceGraphic" in2="effect1_dropShadow" result="shape"/>
</filter>
<filter id="filter19_d" x="320" y="361" width="132" height="65" filterUnits="userSpaceOnUse" color-interpolation-filters="sRGB">
<feFlood flood-opacity="0" result="BackgroundImageFix"/>
<feColorMatrix in="SourceAlpha" type="matrix" values="0 0 0 0 0 0 0 0 0 0 0 0 0 0 0 0 0 0 127 0"/>
<feOffset dy="2"/>
<feGaussianBlur stdDeviation="4"/>
<feColorMatrix type="matrix" values="0 0 0 0 0.67179 0 0 0 0 0.67179 0 0 0 0 0.67179 0 0 0 0.5 0"/>
<feBlend mode="normal" in2="BackgroundImageFix" result="effect1_dropShadow"/>
<feBlend mode="normal" in="SourceGraphic" in2="effect1_dropShadow" result="shape"/>
</filter>
<filter id="filter20_d" x="320" y="361" width="132" height="65" filterUnits="userSpaceOnUse" color-interpolation-filters="sRGB">
<feFlood flood-opacity="0" result="BackgroundImageFix"/>
<feColorMatrix in="SourceAlpha" type="matrix" values="0 0 0 0 0 0 0 0 0 0 0 0 0 0 0 0 0 0 127 0"/>
<feOffset dy="2"/>
<feGaussianBlur stdDeviation="4"/>
<feColorMatrix type="matrix" values="0 0 0 0 0.67179 0 0 0 0 0.67179 0 0 0 0 0.67179 0 0 0 0.5 0"/>
<feBlend mode="normal" in2="BackgroundImageFix" result="effect1_dropShadow"/>
<feBlend mode="normal" in="SourceGraphic" in2="effect1_dropShadow" result="shape"/>
</filter>
<filter id="filter21_d" x="613" y="361" width="132" height="65" filterUnits="userSpaceOnUse" color-interpolation-filters="sRGB">
<feFlood flood-opacity="0" result="BackgroundImageFix"/>
<feColorMatrix in="SourceAlpha" type="matrix" values="0 0 0 0 0 0 0 0 0 0 0 0 0 0 0 0 0 0 127 0"/>
<feOffset dy="2"/>
<feGaussianBlur stdDeviation="4"/>
<feColorMatrix type="matrix" values="0 0 0 0 0.67179 0 0 0 0 0.67179 0 0 0 0 0.67179 0 0 0 0.5 0"/>
<feBlend mode="normal" in2="BackgroundImageFix" result="effect1_dropShadow"/>
<feBlend mode="normal" in="SourceGraphic" in2="effect1_dropShadow" result="shape"/>
</filter>
<filter id="filter22_d" x="446" y="245" width="132" height="65" filterUnits="userSpaceOnUse" color-interpolation-filters="sRGB">
<feFlood flood-opacity="0" result="BackgroundImageFix"/>
<feColorMatrix in="SourceAlpha" type="matrix" values="0 0 0 0 0 0 0 0 0 0 0 0 0 0 0 0 0 0 127 0"/>
<feOffset dy="2"/>
<feGaussianBlur stdDeviation="4"/>
<feColorMatrix type="matrix" values="0 0 0 0 0.67179 0 0 0 0 0.67179 0 0 0 0 0.67179 0 0 0 0.5 0"/>
<feBlend mode="normal" in2="BackgroundImageFix" result="effect1_dropShadow"/>
<feBlend mode="normal" in="SourceGraphic" in2="effect1_dropShadow" result="shape"/>
</filter>
<filter id="filter23_d" x="739" y="361" width="132" height="65" filterUnits="userSpaceOnUse" color-interpolation-filters="sRGB">
<feFlood flood-opacity="0" result="BackgroundImageFix"/>
<feColorMatrix in="SourceAlpha" type="matrix" values="0 0 0 0 0 0 0 0 0 0 0 0 0 0 0 0 0 0 127 0"/>
<feOffset dy="2"/>
<feGaussianBlur stdDeviation="4"/>
<feColorMatrix type="matrix" values="0 0 0 0 0.67179 0 0 0 0 0.67179 0 0 0 0 0.67179 0 0 0 0.5 0"/>
<feBlend mode="normal" in2="BackgroundImageFix" result="effect1_dropShadow"/>
<feBlend mode="normal" in="SourceGraphic" in2="effect1_dropShadow" result="shape"/>
</filter>
<filter id="filter24_d" x="613" y="303" width="132" height="65" filterUnits="userSpaceOnUse" color-interpolation-filters="sRGB">
<feFlood flood-opacity="0" result="BackgroundImageFix"/>
<feColorMatrix in="SourceAlpha" type="matrix" values="0 0 0 0 0 0 0 0 0 0 0 0 0 0 0 0 0 0 127 0"/>
<feOffset dy="2"/>
<feGaussianBlur stdDeviation="4"/>
<feColorMatrix type="matrix" values="0 0 0 0 0.67179 0 0 0 0 0.67179 0 0 0 0 0.67179 0 0 0 0.5 0"/>
<feBlend mode="normal" in2="BackgroundImageFix" result="effect1_dropShadow"/>
<feBlend mode="normal" in="SourceGraphic" in2="effect1_dropShadow" result="shape"/>
</filter>
<clipPath id="clip0">
<rect width="196" height="196" fill="white"/>
</clipPath>
<clipPath id="clip1">
<rect x="570" y="1" width="196" height="196" fill="white"/>
</clipPath>
<clipPath id="clip2">
<rect x="296" y="74" width="201" height="49" fill="white"/>
</clipPath>
<clipPath id="clip3">
<rect x="164" y="132" width="201" height="49" fill="white"/>
</clipPath>
<clipPath id="clip4">
<rect x="164" y="16" width="201" height="49" fill="white"/>
</clipPath>
<clipPath id="clip5">
<rect x="164" y="74" width="116" height="49" fill="white"/>
</clipPath>
<clipPath id="clip6">
<rect x="376" y="16" width="116" height="49" fill="white"/>
</clipPath>
<clipPath id="clip7">
<rect x="861" y="75" width="113" height="49" fill="white"/>
</clipPath>
<clipPath id="clip8">
<rect x="734" y="17" width="201" height="49" fill="white"/>
</clipPath>
<clipPath id="clip9">
<rect x="734" y="75" width="116" height="49" fill="white"/>
</clipPath>
<clipPath id="clip10">
<rect x="734" y="133" width="116" height="49" fill="white"/>
</clipPath>
<clipPath id="clip11">
<rect x="946" y="17" width="116" height="49" fill="white"/>
</clipPath>
<clipPath id="clip12">
<rect x="164" y="235" width="196" height="196" fill="white"/>
</clipPath>
<clipPath id="clip13">
<rect x="328" y="251" width="116" height="49" fill="white"/>
</clipPath>
<clipPath id="clip14">
<rect x="495" y="309" width="116" height="49" fill="white"/>
</clipPath>
<clipPath id="clip15">
<rect x="328" y="309" width="157" height="49" fill="white"/>
</clipPath>
<clipPath id="clip16">
<rect x="580" y="251" width="221" height="49" fill="white"/>
</clipPath>
<clipPath id="clip17">
<rect x="454" y="367" width="157" height="49" fill="white"/>
</clipPath>
<clipPath id="clip18">
<rect x="328" y="367" width="116" height="49" fill="white"/>
</clipPath>
<clipPath id="clip19">
<rect x="621" y="367" width="116" height="49" fill="white"/>
</clipPath>
<clipPath id="clip20">
<rect x="454" y="251" width="116" height="49" fill="white"/>
</clipPath>
<clipPath id="clip21">
<rect x="747" y="367" width="116" height="49" fill="white"/>
</clipPath>
<clipPath id="clip22">
<rect x="621" y="309" width="116" height="49" fill="white"/>
</clipPath>
</defs>
</svg>
