<svg width="329" height="454" viewBox="0 0 329 454" fill="none" xmlns="http://www.w3.org/2000/svg">
<path d="M9.95312 439.617L9.50781 442.078H8.82812V440.547L8.70312 440.242C8.4375 440.102 8.16406 439.997 7.88281 439.93C7.60677 439.857 7.3151 439.82 7.00781 439.82C6.48177 439.82 5.97656 439.914 5.49219 440.102C5.00781 440.289 4.57031 440.56 4.17969 440.914C3.54427 441.482 3.05208 442.206 2.70312 443.086C2.35417 443.966 2.17969 444.922 2.17969 445.953C2.17969 447.057 2.46875 447.914 3.04688 448.523C3.63021 449.133 4.45052 449.438 5.50781 449.438C5.72135 449.438 5.94271 449.419 6.17188 449.383C6.40625 449.346 6.64323 449.292 6.88281 449.219L7.1875 448.945L7.89062 447.102H8.57812L8.14062 449.633C7.58854 449.815 7.04427 449.953 6.50781 450.047C5.97135 450.146 5.45573 450.195 4.96094 450.195C3.64323 450.195 2.59635 449.794 1.82031 448.992C1.04427 448.19 0.65625 447.112 0.65625 445.758C0.65625 444.721 0.872396 443.74 1.30469 442.812C1.73698 441.885 2.34635 441.096 3.13281 440.445C3.6901 439.997 4.29948 439.656 4.96094 439.422C5.6276 439.188 6.32552 439.07 7.05469 439.07C7.50781 439.07 7.97396 439.117 8.45312 439.211C8.9375 439.299 9.4375 439.435 9.95312 439.617ZM15.2422 442.914H15.0234C14.0755 442.914 13.2969 443.323 12.6875 444.141C12.0781 444.953 11.7734 445.99 11.7734 447.25C11.7734 447.891 11.888 448.372 12.1172 448.695C12.3516 449.013 12.7005 449.172 13.1641 449.172C13.4661 449.172 13.7734 449.083 14.0859 448.906C14.3984 448.729 14.7214 448.464 15.0547 448.109L15.8828 443.891L15.2422 442.914ZM16.7344 442.289H17.5625C17.4792 442.461 17.3854 442.742 17.2812 443.133C17.1823 443.518 17.0729 444 16.9531 444.578L16.3828 447.406C16.3307 447.656 16.2891 447.878 16.2578 448.07C16.2318 448.258 16.2188 448.411 16.2188 448.531C16.2188 448.781 16.2865 448.966 16.4219 449.086C16.5625 449.206 16.7839 449.266 17.0859 449.266C17.1484 449.266 17.2318 449.258 17.3359 449.242C17.4453 449.221 17.6589 449.174 17.9766 449.102V449.586C17.5286 449.773 17.1406 449.911 16.8125 450C16.4896 450.094 16.224 450.141 16.0156 450.141C15.6823 450.141 15.4349 450.042 15.2734 449.844C15.1172 449.646 15.0391 449.341 15.0391 448.93V448.797C14.6068 449.255 14.1953 449.594 13.8047 449.812C13.4141 450.031 13.0286 450.141 12.6484 450.141C11.9661 450.141 11.4271 449.893 11.0312 449.398C10.6406 448.904 10.4453 448.219 10.4453 447.344C10.4453 446.818 10.513 446.307 10.6484 445.812C10.7891 445.318 10.9974 444.841 11.2734 444.383C11.6849 443.706 12.2083 443.188 12.8438 442.828C13.4792 442.469 14.1875 442.289 14.9688 442.289C15.2031 442.289 15.4427 442.32 15.6875 442.383C15.9323 442.44 16.1745 442.526 16.4141 442.641L16.7344 442.289ZM21.9062 442.289H22.2266L21.7188 444.477C22.2135 443.779 22.7083 443.24 23.2031 442.859C23.6979 442.479 24.151 442.289 24.5625 442.289C24.8333 442.289 25.0495 442.367 25.2109 442.523C25.3776 442.674 25.4609 442.872 25.4609 443.117C25.4609 443.43 25.362 443.682 25.1641 443.875C24.9714 444.062 24.7135 444.156 24.3906 444.156H24.2812L23.8594 443.297C23.151 443.573 22.6198 443.927 22.2656 444.359C21.9167 444.792 21.6693 445.419 21.5234 446.242L20.8672 450H19.5234L20.8516 443.453L19.5391 443.219V442.812L21.9062 442.289ZM30.9609 442.898C30.9245 442.893 30.862 442.885 30.7734 442.875C30.6901 442.859 30.625 442.852 30.5781 442.852C29.7812 442.852 29.0833 443.279 28.4844 444.133C27.8854 444.987 27.5859 446.031 27.5859 447.266C27.5859 447.88 27.7083 448.362 27.9531 448.711C28.1979 449.06 28.5339 449.234 28.9609 449.234C29.2734 449.234 29.6068 449.117 29.9609 448.883C30.3151 448.643 30.6641 448.307 31.0078 447.875L31.7266 443.805L30.9609 442.898ZM33.5547 438.227H33.9688L32.2578 447.805C32.2266 447.977 32.2031 448.138 32.1875 448.289C32.1719 448.435 32.1641 448.562 32.1641 448.672C32.1641 448.901 32.2214 449.07 32.3359 449.18C32.4505 449.289 32.6276 449.344 32.8672 449.344C32.9609 449.344 33.0911 449.331 33.2578 449.305C33.4297 449.273 33.6458 449.229 33.9062 449.172V449.648C33.4896 449.799 33.112 449.914 32.7734 449.992C32.4401 450.07 32.1615 450.109 31.9375 450.109C31.5677 450.109 31.2969 450.018 31.125 449.836C30.9531 449.654 30.8672 449.367 30.8672 448.977C30.8672 448.893 30.8672 448.828 30.8672 448.781C30.8724 448.734 30.8776 448.693 30.8828 448.656C30.4974 449.146 30.0911 449.516 29.6641 449.766C29.2422 450.016 28.8151 450.141 28.3828 450.141C27.7318 450.141 27.2188 449.888 26.8438 449.383C26.474 448.878 26.2891 448.177 26.2891 447.281C26.2891 446.74 26.3542 446.224 26.4844 445.734C26.6198 445.245 26.8151 444.794 27.0703 444.383C27.4922 443.721 28.026 443.198 28.6719 442.812C29.3229 442.422 29.9896 442.227 30.6719 442.227C30.901 442.227 31.1198 442.25 31.3281 442.297C31.5365 442.339 31.7448 442.404 31.9531 442.492L32.5156 439.297L31.1016 439.133V438.688L33.5547 438.227ZM35.4062 445.617H38.9844L38.7812 446.688H35.1953L35.4062 445.617ZM44.6953 444.094L44.0234 443.172C43.9453 443.115 43.8646 443.073 43.7812 443.047C43.7031 443.021 43.6172 443.008 43.5234 443.008C43.2005 443.008 42.9323 443.109 42.7188 443.312C42.5104 443.516 42.4062 443.771 42.4062 444.078C42.4062 444.458 42.7969 444.948 43.5781 445.547L43.6094 445.57C43.6562 445.607 43.7292 445.661 43.8281 445.734C44.7552 446.443 45.2188 447.091 45.2188 447.68C45.2188 448.393 44.9453 448.982 44.3984 449.445C43.8516 449.909 43.151 450.141 42.2969 450.141C41.6406 450.141 41.1198 450.016 40.7344 449.766C40.3542 449.51 40.1641 449.167 40.1641 448.734C40.1641 448.49 40.2422 448.294 40.3984 448.148C40.5495 447.997 40.75 447.922 41 447.922C41.1042 447.922 41.2109 447.945 41.3203 447.992C41.4297 448.034 41.5521 448.107 41.6875 448.211L41.3984 449.008C41.5234 449.19 41.6849 449.331 41.8828 449.43C42.0807 449.523 42.3021 449.57 42.5469 449.57C43.0052 449.57 43.362 449.451 43.6172 449.211C43.8776 448.966 44.0078 448.633 44.0078 448.211C44.0078 447.971 43.9375 447.75 43.7969 447.547C43.6562 447.344 43.3568 447.068 42.8984 446.719L42.8281 446.664C41.8646 445.94 41.3828 445.286 41.3828 444.703C41.3828 444.042 41.651 443.474 42.1875 443C42.724 442.526 43.3724 442.289 44.1328 442.289C44.5755 442.289 44.9349 442.383 45.2109 442.57C45.487 442.753 45.625 442.99 45.625 443.281C45.625 443.516 45.5417 443.706 45.375 443.852C45.2083 443.997 44.9818 444.078 44.6953 444.094ZM51.1172 442.898C50.4036 442.898 49.7995 443.302 49.3047 444.109C48.8151 444.917 48.5703 445.919 48.5703 447.117C48.5703 447.872 48.7057 448.456 48.9766 448.867C49.2526 449.279 49.6354 449.484 50.125 449.484C50.8281 449.484 51.4297 449.083 51.9297 448.281C52.4297 447.474 52.6797 446.484 52.6797 445.312C52.6797 444.542 52.5443 443.948 52.2734 443.531C52.0026 443.109 51.6172 442.898 51.1172 442.898ZM51.3203 442.273C52.1589 442.273 52.8229 442.555 53.3125 443.117C53.8021 443.68 54.0469 444.443 54.0469 445.406C54.0469 446.036 53.9349 446.648 53.7109 447.242C53.487 447.831 53.1667 448.367 52.75 448.852C52.375 449.279 51.9505 449.602 51.4766 449.82C51.0026 450.034 50.487 450.141 49.9297 450.141C49.1016 450.141 48.4401 449.867 47.9453 449.32C47.4557 448.768 47.2109 448.029 47.2109 447.102C47.2109 446.461 47.3229 445.833 47.5469 445.219C47.776 444.599 48.0911 444.06 48.4922 443.602C48.8776 443.164 49.3099 442.833 49.7891 442.609C50.2734 442.385 50.7839 442.273 51.3203 442.273ZM58.2188 442.289H58.5391L58.0312 444.477C58.526 443.779 59.0208 443.24 59.5156 442.859C60.0104 442.479 60.4635 442.289 60.875 442.289C61.1458 442.289 61.362 442.367 61.5234 442.523C61.6901 442.674 61.7734 442.872 61.7734 443.117C61.7734 443.43 61.6745 443.682 61.4766 443.875C61.2839 444.062 61.026 444.156 60.7031 444.156H60.5938L60.1719 443.297C59.4635 443.573 58.9323 443.927 58.5781 444.359C58.2292 444.792 57.9818 445.419 57.8359 446.242L57.1797 450H55.8359L57.1641 443.453L55.8516 443.219V442.812L58.2188 442.289ZM64.9375 440.734H65.6719L65.3359 442.562H67.6406V443.25H65.2109L64.375 447.523C64.3698 447.56 64.362 447.609 64.3516 447.672C64.3047 447.943 64.2812 448.128 64.2812 448.227C64.2812 448.549 64.3646 448.797 64.5312 448.969C64.6979 449.135 64.9401 449.219 65.2578 449.219C65.4349 449.219 65.6484 449.193 65.8984 449.141C66.1536 449.083 66.4479 449.003 66.7812 448.898V449.406C66.2396 449.641 65.763 449.818 65.3516 449.938C64.9401 450.052 64.5938 450.109 64.3125 450.109C63.8594 450.109 63.5208 449.99 63.2969 449.75C63.0781 449.51 62.9688 449.146 62.9688 448.656C62.9688 448.505 62.9792 448.339 63 448.156C63.0208 447.969 63.0521 447.779 63.0938 447.586L63.9609 443.25L62.9688 443.328V442.852L64.1406 442.336L64.9375 440.734ZM70.9922 442.289H71.4062L70.2578 448.266C70.237 448.365 70.2214 448.448 70.2109 448.516C70.2057 448.578 70.2031 448.63 70.2031 448.672C70.2031 448.875 70.2682 449.031 70.3984 449.141C70.5286 449.245 70.7214 449.297 70.9766 449.297C71.1224 449.297 71.2917 449.279 71.4844 449.242C71.6823 449.201 71.9062 449.138 72.1562 449.055V449.555C71.7135 449.737 71.3021 449.875 70.9219 449.969C70.5469 450.062 70.2057 450.109 69.8984 450.109C69.5599 450.109 69.3047 450.023 69.1328 449.852C68.9609 449.674 68.875 449.409 68.875 449.055C68.875 448.956 68.8828 448.836 68.8984 448.695C68.9193 448.555 68.9453 448.398 68.9766 448.227L69.9141 443.453L68.625 443.219V442.797L70.9922 442.289ZM71.3125 438.734C71.5417 438.734 71.7422 438.82 71.9141 438.992C72.0859 439.164 72.1719 439.367 72.1719 439.602C72.1719 439.836 72.0859 440.039 71.9141 440.211C71.7474 440.378 71.5469 440.461 71.3125 440.461C71.0677 440.461 70.862 440.38 70.6953 440.219C70.5286 440.052 70.4453 439.846 70.4453 439.602C70.4453 439.362 70.5286 439.159 70.6953 438.992C70.8672 438.82 71.0729 438.734 71.3125 438.734ZM76.0859 442.289H76.4844L76.1953 443.82C76.862 443.294 77.4453 442.909 77.9453 442.664C78.4453 442.414 78.8958 442.289 79.2969 442.289C79.7135 442.289 80.0417 442.404 80.2812 442.633C80.5208 442.862 80.6406 443.174 80.6406 443.57C80.6406 443.716 80.625 443.885 80.5938 444.078C80.5677 444.271 80.5104 444.576 80.4219 444.992L79.875 447.469C79.8698 447.505 79.8594 447.557 79.8438 447.625C79.75 448.083 79.7031 448.385 79.7031 448.531C79.7031 448.781 79.7734 448.974 79.9141 449.109C80.0599 449.245 80.2656 449.312 80.5312 449.312C80.6406 449.312 80.7656 449.302 80.9062 449.281C81.0521 449.255 81.2188 449.219 81.4062 449.172L81.4141 449.617C80.9974 449.779 80.6276 449.898 80.3047 449.977C79.987 450.055 79.7161 450.094 79.4922 450.094C79.1016 450.094 78.8073 450.016 78.6094 449.859C78.4167 449.698 78.3203 449.456 78.3203 449.133C78.3203 449.034 78.3307 448.911 78.3516 448.766C78.3776 448.62 78.4115 448.456 78.4531 448.273L79.1406 445.312C79.1875 445.115 79.2214 444.93 79.2422 444.758C79.2682 444.581 79.2812 444.424 79.2812 444.289C79.2812 443.935 79.2135 443.68 79.0781 443.523C78.9427 443.362 78.724 443.281 78.4219 443.281C78.125 443.281 77.7682 443.396 77.3516 443.625C76.9401 443.854 76.5078 444.177 76.0547 444.594L75.0625 450H73.7031L75.0312 443.453L73.7188 443.219V442.812L76.0859 442.289ZM84.8203 449.453C84.3359 449.568 83.9688 449.758 83.7188 450.023C83.4688 450.294 83.3438 450.633 83.3438 451.039C83.3438 451.555 83.5443 451.979 83.9453 452.312C84.3516 452.646 84.8724 452.812 85.5078 452.812C86.1589 452.812 86.6927 452.677 87.1094 452.406C87.5312 452.141 87.7422 451.812 87.7422 451.422C87.7422 451.214 87.6693 451.023 87.5234 450.852C87.3776 450.685 87.1536 450.534 86.8516 450.398L84.8203 449.453ZM87.5703 444.32C87.5703 443.852 87.4766 443.492 87.2891 443.242C87.1016 442.992 86.8333 442.867 86.4844 442.867C86 442.867 85.5703 443.133 85.1953 443.664C84.8255 444.195 84.6406 444.826 84.6406 445.555C84.6406 445.977 84.7344 446.307 84.9219 446.547C85.1146 446.781 85.3776 446.898 85.7109 446.898C86.1953 446.898 86.625 446.643 87 446.133C87.3802 445.617 87.5703 445.013 87.5703 444.32ZM87.9844 442.672H90.2734V443.359H88.6328C88.6953 443.536 88.7448 443.714 88.7812 443.891C88.8177 444.068 88.8359 444.242 88.8359 444.414C88.8359 445.268 88.5365 445.987 87.9375 446.57C87.3385 447.148 86.6146 447.438 85.7656 447.438C85.7083 447.438 85.6484 447.438 85.5859 447.438C85.5234 447.432 85.4583 447.427 85.3906 447.422C85.3229 447.557 85.2708 447.695 85.2344 447.836C85.2031 447.971 85.1875 448.117 85.1875 448.273V448.367L87.7266 449.523C88.1484 449.716 88.4609 449.943 88.6641 450.203C88.8724 450.464 88.9766 450.763 88.9766 451.102C88.9766 451.732 88.5964 452.286 87.8359 452.766C87.0755 453.245 86.1719 453.484 85.125 453.484C84.1979 453.484 83.4609 453.292 82.9141 452.906C82.3724 452.526 82.1016 452.01 82.1016 451.359C82.1016 450.87 82.2656 450.451 82.5938 450.102C82.9271 449.753 83.4714 449.43 84.2266 449.133C84.2214 449.102 84.2161 449.068 84.2109 449.031C84.2109 448.995 84.2109 448.94 84.2109 448.867C84.2109 448.607 84.2604 448.354 84.3594 448.109C84.4635 447.859 84.6276 447.594 84.8516 447.312C84.3776 447.125 84.013 446.865 83.7578 446.531C83.5026 446.193 83.375 445.807 83.375 445.375C83.375 444.505 83.6771 443.771 84.2812 443.172C84.8854 442.573 85.625 442.273 86.5 442.273C86.7396 442.273 86.9792 442.307 87.2188 442.375C87.4635 442.438 87.7188 442.536 87.9844 442.672ZM100.82 442.914H100.602C99.6536 442.914 98.875 443.323 98.2656 444.141C97.6562 444.953 97.3516 445.99 97.3516 447.25C97.3516 447.891 97.4661 448.372 97.6953 448.695C97.9297 449.013 98.2786 449.172 98.7422 449.172C99.0443 449.172 99.3516 449.083 99.6641 448.906C99.9766 448.729 100.299 448.464 100.633 448.109L101.461 443.891L100.82 442.914ZM102.312 442.289H103.141C103.057 442.461 102.964 442.742 102.859 443.133C102.76 443.518 102.651 444 102.531 444.578L101.961 447.406C101.909 447.656 101.867 447.878 101.836 448.07C101.81 448.258 101.797 448.411 101.797 448.531C101.797 448.781 101.865 448.966 102 449.086C102.141 449.206 102.362 449.266 102.664 449.266C102.727 449.266 102.81 449.258 102.914 449.242C103.023 449.221 103.237 449.174 103.555 449.102V449.586C103.107 449.773 102.719 449.911 102.391 450C102.068 450.094 101.802 450.141 101.594 450.141C101.26 450.141 101.013 450.042 100.852 449.844C100.695 449.646 100.617 449.341 100.617 448.93V448.797C100.185 449.255 99.7734 449.594 99.3828 449.812C98.9922 450.031 98.6068 450.141 98.2266 450.141C97.5443 450.141 97.0052 449.893 96.6094 449.398C96.2188 448.904 96.0234 448.219 96.0234 447.344C96.0234 446.818 96.0911 446.307 96.2266 445.812C96.3672 445.318 96.5755 444.841 96.8516 444.383C97.263 443.706 97.7865 443.188 98.4219 442.828C99.0573 442.469 99.7656 442.289 100.547 442.289C100.781 442.289 101.021 442.32 101.266 442.383C101.51 442.44 101.753 442.526 101.992 442.641L102.312 442.289ZM109.562 444.234L108.641 443.023H108.562C107.885 443.023 107.315 443.404 106.852 444.164C106.393 444.924 106.164 445.878 106.164 447.023C106.164 447.711 106.305 448.247 106.586 448.633C106.867 449.013 107.258 449.203 107.758 449.203C108.138 449.203 108.544 449.089 108.977 448.859C109.409 448.625 109.836 448.297 110.258 447.875V448.609C109.779 449.109 109.281 449.492 108.766 449.758C108.255 450.023 107.755 450.156 107.266 450.156C106.547 450.156 105.971 449.893 105.539 449.367C105.112 448.841 104.898 448.135 104.898 447.25C104.898 446.547 105.01 445.885 105.234 445.266C105.464 444.646 105.794 444.102 106.227 443.633C106.628 443.19 107.078 442.849 107.578 442.609C108.078 442.365 108.581 442.242 109.086 442.242C109.513 442.242 109.867 442.352 110.148 442.57C110.435 442.784 110.578 443.047 110.578 443.359C110.578 443.615 110.484 443.823 110.297 443.984C110.109 444.146 109.865 444.229 109.562 444.234ZM114.141 440.734H114.875L114.539 442.562H116.844V443.25H114.414L113.578 447.523C113.573 447.56 113.565 447.609 113.555 447.672C113.508 447.943 113.484 448.128 113.484 448.227C113.484 448.549 113.568 448.797 113.734 448.969C113.901 449.135 114.143 449.219 114.461 449.219C114.638 449.219 114.852 449.193 115.102 449.141C115.357 449.083 115.651 449.003 115.984 448.898V449.406C115.443 449.641 114.966 449.818 114.555 449.938C114.143 450.052 113.797 450.109 113.516 450.109C113.062 450.109 112.724 449.99 112.5 449.75C112.281 449.51 112.172 449.146 112.172 448.656C112.172 448.505 112.182 448.339 112.203 448.156C112.224 447.969 112.255 447.779 112.297 447.586L113.164 443.25L112.172 443.328V442.852L113.344 442.336L114.141 440.734ZM120.195 442.289H120.609L119.461 448.266C119.44 448.365 119.424 448.448 119.414 448.516C119.409 448.578 119.406 448.63 119.406 448.672C119.406 448.875 119.471 449.031 119.602 449.141C119.732 449.245 119.924 449.297 120.18 449.297C120.326 449.297 120.495 449.279 120.688 449.242C120.885 449.201 121.109 449.138 121.359 449.055V449.555C120.917 449.737 120.505 449.875 120.125 449.969C119.75 450.062 119.409 450.109 119.102 450.109C118.763 450.109 118.508 450.023 118.336 449.852C118.164 449.674 118.078 449.409 118.078 449.055C118.078 448.956 118.086 448.836 118.102 448.695C118.122 448.555 118.148 448.398 118.18 448.227L119.117 443.453L117.828 443.219V442.797L120.195 442.289ZM120.516 438.734C120.745 438.734 120.945 438.82 121.117 438.992C121.289 439.164 121.375 439.367 121.375 439.602C121.375 439.836 121.289 440.039 121.117 440.211C120.951 440.378 120.75 440.461 120.516 440.461C120.271 440.461 120.065 440.38 119.898 440.219C119.732 440.052 119.648 439.846 119.648 439.602C119.648 439.362 119.732 439.159 119.898 438.992C120.07 438.82 120.276 438.734 120.516 438.734ZM123.875 442.258H123.914C124.305 442.258 124.586 442.375 124.758 442.609C124.93 442.844 125.052 443.339 125.125 444.094L125.539 448.477C126.164 447.68 126.677 446.958 127.078 446.312C127.484 445.661 127.789 445.068 127.992 444.531L127.688 442.578C127.818 442.469 127.951 442.388 128.086 442.336C128.221 442.284 128.354 442.258 128.484 442.258C128.755 442.258 128.964 442.339 129.109 442.5C129.26 442.656 129.336 442.88 129.336 443.172C129.336 443.76 128.953 444.651 128.188 445.844C127.427 447.036 126.349 448.422 124.953 450H124.18C124.258 449.859 124.315 449.703 124.352 449.531C124.388 449.354 124.406 449.164 124.406 448.961C124.406 448.888 124.404 448.812 124.398 448.734C124.393 448.656 124.385 448.539 124.375 448.383L123.977 444.641C123.93 444.24 123.867 443.932 123.789 443.719C123.716 443.505 123.617 443.359 123.492 443.281L122.266 443.188V442.781L123.875 442.258ZM133.055 442.289H133.469L132.32 448.266C132.299 448.365 132.284 448.448 132.273 448.516C132.268 448.578 132.266 448.63 132.266 448.672C132.266 448.875 132.331 449.031 132.461 449.141C132.591 449.245 132.784 449.297 133.039 449.297C133.185 449.297 133.354 449.279 133.547 449.242C133.745 449.201 133.969 449.138 134.219 449.055V449.555C133.776 449.737 133.365 449.875 132.984 449.969C132.609 450.062 132.268 450.109 131.961 450.109C131.622 450.109 131.367 450.023 131.195 449.852C131.023 449.674 130.938 449.409 130.938 449.055C130.938 448.956 130.945 448.836 130.961 448.695C130.982 448.555 131.008 448.398 131.039 448.227L131.977 443.453L130.688 443.219V442.797L133.055 442.289ZM133.375 438.734C133.604 438.734 133.805 438.82 133.977 438.992C134.148 439.164 134.234 439.367 134.234 439.602C134.234 439.836 134.148 440.039 133.977 440.211C133.81 440.378 133.609 440.461 133.375 440.461C133.13 440.461 132.924 440.38 132.758 440.219C132.591 440.052 132.508 439.846 132.508 439.602C132.508 439.362 132.591 439.159 132.758 438.992C132.93 438.82 133.135 438.734 133.375 438.734ZM137.922 440.734H138.656L138.32 442.562H140.625V443.25H138.195L137.359 447.523C137.354 447.56 137.346 447.609 137.336 447.672C137.289 447.943 137.266 448.128 137.266 448.227C137.266 448.549 137.349 448.797 137.516 448.969C137.682 449.135 137.924 449.219 138.242 449.219C138.419 449.219 138.633 449.193 138.883 449.141C139.138 449.083 139.432 449.003 139.766 448.898V449.406C139.224 449.641 138.747 449.818 138.336 449.938C137.924 450.052 137.578 450.109 137.297 450.109C136.844 450.109 136.505 449.99 136.281 449.75C136.062 449.51 135.953 449.146 135.953 448.656C135.953 448.505 135.964 448.339 135.984 448.156C136.005 447.969 136.036 447.779 136.078 447.586L136.945 443.25L135.953 443.328V442.852L137.125 442.336L137.922 440.734ZM142.398 442.242C142.424 442.237 142.453 442.234 142.484 442.234C142.516 442.229 142.56 442.227 142.617 442.227C143.237 442.227 143.729 443.169 144.094 445.055C144.146 445.32 144.185 445.521 144.211 445.656L144.742 448.367C145.081 447.503 145.458 446.565 145.875 445.555C146.297 444.539 146.758 443.451 147.258 442.289H147.555L148.82 442.703V443.039L148.008 443.523C147.539 444.044 146.982 445.013 146.336 446.43C145.69 447.846 145.201 448.854 144.867 449.453C144.143 450.776 143.422 451.776 142.703 452.453C141.984 453.13 141.289 453.469 140.617 453.469C140.232 453.469 139.911 453.367 139.656 453.164C139.401 452.961 139.273 452.711 139.273 452.414C139.273 452.195 139.354 452.003 139.516 451.836C139.672 451.674 139.878 451.576 140.133 451.539L141.078 452.477C141.552 452.445 142.016 452.203 142.469 451.75C142.922 451.297 143.391 450.602 143.875 449.664L143.828 449.695L142.836 444.883C142.763 444.513 142.674 444.19 142.57 443.914C142.466 443.638 142.341 443.406 142.195 443.219L140.836 443.102V442.75L142.398 442.242ZM156.812 440.734H157.547L157.211 442.562H159.516V443.25H157.086L156.25 447.523C156.245 447.56 156.237 447.609 156.227 447.672C156.18 447.943 156.156 448.128 156.156 448.227C156.156 448.549 156.24 448.797 156.406 448.969C156.573 449.135 156.815 449.219 157.133 449.219C157.31 449.219 157.523 449.193 157.773 449.141C158.029 449.083 158.323 449.003 158.656 448.898V449.406C158.115 449.641 157.638 449.818 157.227 449.938C156.815 450.052 156.469 450.109 156.188 450.109C155.734 450.109 155.396 449.99 155.172 449.75C154.953 449.51 154.844 449.146 154.844 448.656C154.844 448.505 154.854 448.339 154.875 448.156C154.896 447.969 154.927 447.779 154.969 447.586L155.836 443.25L154.844 443.328V442.852L156.016 442.336L156.812 440.734ZM164.227 442.898C163.513 442.898 162.909 443.302 162.414 444.109C161.924 444.917 161.68 445.919 161.68 447.117C161.68 447.872 161.815 448.456 162.086 448.867C162.362 449.279 162.745 449.484 163.234 449.484C163.938 449.484 164.539 449.083 165.039 448.281C165.539 447.474 165.789 446.484 165.789 445.312C165.789 444.542 165.654 443.948 165.383 443.531C165.112 443.109 164.727 442.898 164.227 442.898ZM164.43 442.273C165.268 442.273 165.932 442.555 166.422 443.117C166.911 443.68 167.156 444.443 167.156 445.406C167.156 446.036 167.044 446.648 166.82 447.242C166.596 447.831 166.276 448.367 165.859 448.852C165.484 449.279 165.06 449.602 164.586 449.82C164.112 450.034 163.596 450.141 163.039 450.141C162.211 450.141 161.549 449.867 161.055 449.32C160.565 448.768 160.32 448.029 160.32 447.102C160.32 446.461 160.432 445.833 160.656 445.219C160.885 444.599 161.201 444.06 161.602 443.602C161.987 443.164 162.419 442.833 162.898 442.609C163.383 442.385 163.893 442.273 164.43 442.273ZM176.352 442.289H176.766L175.617 448.266C175.596 448.365 175.581 448.448 175.57 448.516C175.565 448.578 175.562 448.63 175.562 448.672C175.562 448.875 175.628 449.031 175.758 449.141C175.888 449.245 176.081 449.297 176.336 449.297C176.482 449.297 176.651 449.279 176.844 449.242C177.042 449.201 177.266 449.138 177.516 449.055V449.555C177.073 449.737 176.661 449.875 176.281 449.969C175.906 450.062 175.565 450.109 175.258 450.109C174.919 450.109 174.664 450.023 174.492 449.852C174.32 449.674 174.234 449.409 174.234 449.055C174.234 448.956 174.242 448.836 174.258 448.695C174.279 448.555 174.305 448.398 174.336 448.227L175.273 443.453L173.984 443.219V442.797L176.352 442.289ZM176.672 438.734C176.901 438.734 177.102 438.82 177.273 438.992C177.445 439.164 177.531 439.367 177.531 439.602C177.531 439.836 177.445 440.039 177.273 440.211C177.107 440.378 176.906 440.461 176.672 440.461C176.427 440.461 176.221 440.38 176.055 440.219C175.888 440.052 175.805 439.846 175.805 439.602C175.805 439.362 175.888 439.159 176.055 438.992C176.227 438.82 176.432 438.734 176.672 438.734ZM183.555 442.898C183.518 442.893 183.456 442.885 183.367 442.875C183.284 442.859 183.219 442.852 183.172 442.852C182.375 442.852 181.677 443.279 181.078 444.133C180.479 444.987 180.18 446.031 180.18 447.266C180.18 447.88 180.302 448.362 180.547 448.711C180.792 449.06 181.128 449.234 181.555 449.234C181.867 449.234 182.201 449.117 182.555 448.883C182.909 448.643 183.258 448.307 183.602 447.875L184.32 443.805L183.555 442.898ZM186.148 438.227H186.562L184.852 447.805C184.82 447.977 184.797 448.138 184.781 448.289C184.766 448.435 184.758 448.562 184.758 448.672C184.758 448.901 184.815 449.07 184.93 449.18C185.044 449.289 185.221 449.344 185.461 449.344C185.555 449.344 185.685 449.331 185.852 449.305C186.023 449.273 186.24 449.229 186.5 449.172V449.648C186.083 449.799 185.706 449.914 185.367 449.992C185.034 450.07 184.755 450.109 184.531 450.109C184.161 450.109 183.891 450.018 183.719 449.836C183.547 449.654 183.461 449.367 183.461 448.977C183.461 448.893 183.461 448.828 183.461 448.781C183.466 448.734 183.471 448.693 183.477 448.656C183.091 449.146 182.685 449.516 182.258 449.766C181.836 450.016 181.409 450.141 180.977 450.141C180.326 450.141 179.812 449.888 179.438 449.383C179.068 448.878 178.883 448.177 178.883 447.281C178.883 446.74 178.948 446.224 179.078 445.734C179.214 445.245 179.409 444.794 179.664 444.383C180.086 443.721 180.62 443.198 181.266 442.812C181.917 442.422 182.583 442.227 183.266 442.227C183.495 442.227 183.714 442.25 183.922 442.297C184.13 442.339 184.339 442.404 184.547 442.492L185.109 439.297L183.695 439.133V438.688L186.148 438.227ZM189.109 446.445C189.089 446.555 189.073 446.672 189.062 446.797C189.057 446.922 189.055 447.052 189.055 447.188C189.055 447.828 189.203 448.336 189.5 448.711C189.797 449.081 190.203 449.266 190.719 449.266C191.094 449.266 191.5 449.154 191.938 448.93C192.375 448.706 192.823 448.38 193.281 447.953V448.703C192.786 449.177 192.279 449.536 191.758 449.781C191.237 450.021 190.708 450.141 190.172 450.141C189.411 450.141 188.818 449.885 188.391 449.375C187.969 448.865 187.758 448.151 187.758 447.234C187.758 446.562 187.883 445.906 188.133 445.266C188.383 444.625 188.732 444.07 189.18 443.602C189.57 443.201 190.003 442.883 190.477 442.648C190.956 442.409 191.404 442.289 191.82 442.289C192.326 442.289 192.727 442.432 193.023 442.719C193.32 443.005 193.469 443.391 193.469 443.875C193.469 444.583 193.083 445.167 192.312 445.625C191.542 446.083 190.474 446.357 189.109 446.445ZM189.18 445.906C190.112 445.854 190.867 445.633 191.445 445.242C192.029 444.846 192.32 444.372 192.32 443.82C192.32 443.576 192.24 443.372 192.078 443.211C191.917 443.044 191.719 442.961 191.484 442.961C190.995 442.961 190.542 443.224 190.125 443.75C189.714 444.271 189.398 444.99 189.18 445.906ZM197.602 442.289H198L197.711 443.82C198.378 443.294 198.961 442.909 199.461 442.664C199.961 442.414 200.411 442.289 200.812 442.289C201.229 442.289 201.557 442.404 201.797 442.633C202.036 442.862 202.156 443.174 202.156 443.57C202.156 443.716 202.141 443.885 202.109 444.078C202.083 444.271 202.026 444.576 201.938 444.992L201.391 447.469C201.385 447.505 201.375 447.557 201.359 447.625C201.266 448.083 201.219 448.385 201.219 448.531C201.219 448.781 201.289 448.974 201.43 449.109C201.576 449.245 201.781 449.312 202.047 449.312C202.156 449.312 202.281 449.302 202.422 449.281C202.568 449.255 202.734 449.219 202.922 449.172L202.93 449.617C202.513 449.779 202.143 449.898 201.82 449.977C201.503 450.055 201.232 450.094 201.008 450.094C200.617 450.094 200.323 450.016 200.125 449.859C199.932 449.698 199.836 449.456 199.836 449.133C199.836 449.034 199.846 448.911 199.867 448.766C199.893 448.62 199.927 448.456 199.969 448.273L200.656 445.312C200.703 445.115 200.737 444.93 200.758 444.758C200.784 444.581 200.797 444.424 200.797 444.289C200.797 443.935 200.729 443.68 200.594 443.523C200.458 443.362 200.24 443.281 199.938 443.281C199.641 443.281 199.284 443.396 198.867 443.625C198.456 443.854 198.023 444.177 197.57 444.594L196.578 450H195.219L196.547 443.453L195.234 443.219V442.812L197.602 442.289ZM206.781 440.734H207.516L207.18 442.562H209.484V443.25H207.055L206.219 447.523C206.214 447.56 206.206 447.609 206.195 447.672C206.148 447.943 206.125 448.128 206.125 448.227C206.125 448.549 206.208 448.797 206.375 448.969C206.542 449.135 206.784 449.219 207.102 449.219C207.279 449.219 207.492 449.193 207.742 449.141C207.997 449.083 208.292 449.003 208.625 448.898V449.406C208.083 449.641 207.607 449.818 207.195 449.938C206.784 450.052 206.438 450.109 206.156 450.109C205.703 450.109 205.365 449.99 205.141 449.75C204.922 449.51 204.812 449.146 204.812 448.656C204.812 448.505 204.823 448.339 204.844 448.156C204.865 447.969 204.896 447.779 204.938 447.586L205.805 443.25L204.812 443.328V442.852L205.984 442.336L206.781 440.734ZM212.836 442.289H213.25L212.102 448.266C212.081 448.365 212.065 448.448 212.055 448.516C212.049 448.578 212.047 448.63 212.047 448.672C212.047 448.875 212.112 449.031 212.242 449.141C212.372 449.245 212.565 449.297 212.82 449.297C212.966 449.297 213.135 449.279 213.328 449.242C213.526 449.201 213.75 449.138 214 449.055V449.555C213.557 449.737 213.146 449.875 212.766 449.969C212.391 450.062 212.049 450.109 211.742 450.109C211.404 450.109 211.148 450.023 210.977 449.852C210.805 449.674 210.719 449.409 210.719 449.055C210.719 448.956 210.727 448.836 210.742 448.695C210.763 448.555 210.789 448.398 210.82 448.227L211.758 443.453L210.469 443.219V442.797L212.836 442.289ZM213.156 438.734C213.385 438.734 213.586 438.82 213.758 438.992C213.93 439.164 214.016 439.367 214.016 439.602C214.016 439.836 213.93 440.039 213.758 440.211C213.591 440.378 213.391 440.461 213.156 440.461C212.911 440.461 212.706 440.38 212.539 440.219C212.372 440.052 212.289 439.846 212.289 439.602C212.289 439.362 212.372 439.159 212.539 438.992C212.711 438.82 212.917 438.734 213.156 438.734ZM220.695 440.062L219.383 438.992C219.081 439.19 218.81 439.602 218.57 440.227C218.331 440.846 218.122 441.677 217.945 442.719H220.203V443.438H217.812L217.172 447.984C217.047 448.88 216.891 449.609 216.703 450.172C216.516 450.734 216.273 451.227 215.977 451.648C215.56 452.232 215.138 452.677 214.711 452.984C214.284 453.297 213.872 453.453 213.477 453.453C213.221 453.453 213.016 453.375 212.859 453.219C212.698 453.068 212.617 452.865 212.617 452.609C212.617 452.484 212.648 452.367 212.711 452.258C212.768 452.148 212.854 452.052 212.969 451.969L214.633 452.398C214.93 452.086 215.174 451.63 215.367 451.031C215.56 450.432 215.758 449.432 215.961 448.031L216.633 443.438L215.562 443.555L215.578 443.023L216.789 442.531C217.044 441.214 217.471 440.177 218.07 439.422C218.674 438.667 219.367 438.289 220.148 438.289C220.518 438.289 220.831 438.383 221.086 438.57C221.346 438.758 221.477 438.979 221.477 439.234C221.477 439.443 221.406 439.622 221.266 439.773C221.13 439.919 220.94 440.016 220.695 440.062ZM221.523 442.242C221.549 442.237 221.578 442.234 221.609 442.234C221.641 442.229 221.685 442.227 221.742 442.227C222.362 442.227 222.854 443.169 223.219 445.055C223.271 445.32 223.31 445.521 223.336 445.656L223.867 448.367C224.206 447.503 224.583 446.565 225 445.555C225.422 444.539 225.883 443.451 226.383 442.289H226.68L227.945 442.703V443.039L227.133 443.523C226.664 444.044 226.107 445.013 225.461 446.43C224.815 447.846 224.326 448.854 223.992 449.453C223.268 450.776 222.547 451.776 221.828 452.453C221.109 453.13 220.414 453.469 219.742 453.469C219.357 453.469 219.036 453.367 218.781 453.164C218.526 452.961 218.398 452.711 218.398 452.414C218.398 452.195 218.479 452.003 218.641 451.836C218.797 451.674 219.003 451.576 219.258 451.539L220.203 452.477C220.677 452.445 221.141 452.203 221.594 451.75C222.047 451.297 222.516 450.602 223 449.664L222.953 449.695L221.961 444.883C221.888 444.513 221.799 444.19 221.695 443.914C221.591 443.638 221.466 443.406 221.32 443.219L219.961 443.102V442.75L221.523 442.242ZM236.656 438.227H237.086C237.039 438.482 236.997 438.703 236.961 438.891C236.93 439.078 236.909 439.203 236.898 439.266L235.281 447.312C235.224 447.594 235.18 447.849 235.148 448.078C235.122 448.302 235.109 448.479 235.109 448.609C235.109 448.854 235.182 449.042 235.328 449.172C235.479 449.297 235.698 449.359 235.984 449.359C236.109 449.359 236.263 449.339 236.445 449.297C236.633 449.255 236.859 449.19 237.125 449.102V449.602C236.703 449.779 236.31 449.911 235.945 450C235.581 450.094 235.263 450.141 234.992 450.141C234.602 450.141 234.31 450.044 234.117 449.852C233.924 449.654 233.828 449.357 233.828 448.961C233.828 448.846 233.852 448.633 233.898 448.32C233.951 448.003 234.023 447.602 234.117 447.117L235.648 439.281L234.227 439.117V438.703L236.656 438.227ZM239.859 446.445C239.839 446.555 239.823 446.672 239.812 446.797C239.807 446.922 239.805 447.052 239.805 447.188C239.805 447.828 239.953 448.336 240.25 448.711C240.547 449.081 240.953 449.266 241.469 449.266C241.844 449.266 242.25 449.154 242.688 448.93C243.125 448.706 243.573 448.38 244.031 447.953V448.703C243.536 449.177 243.029 449.536 242.508 449.781C241.987 450.021 241.458 450.141 240.922 450.141C240.161 450.141 239.568 449.885 239.141 449.375C238.719 448.865 238.508 448.151 238.508 447.234C238.508 446.562 238.633 445.906 238.883 445.266C239.133 444.625 239.482 444.07 239.93 443.602C240.32 443.201 240.753 442.883 241.227 442.648C241.706 442.409 242.154 442.289 242.57 442.289C243.076 442.289 243.477 442.432 243.773 442.719C244.07 443.005 244.219 443.391 244.219 443.875C244.219 444.583 243.833 445.167 243.062 445.625C242.292 446.083 241.224 446.357 239.859 446.445ZM239.93 445.906C240.862 445.854 241.617 445.633 242.195 445.242C242.779 444.846 243.07 444.372 243.07 443.82C243.07 443.576 242.99 443.372 242.828 443.211C242.667 443.044 242.469 442.961 242.234 442.961C241.745 442.961 241.292 443.224 240.875 443.75C240.464 444.271 240.148 444.99 239.93 445.906ZM250.523 442.914H250.305C249.357 442.914 248.578 443.323 247.969 444.141C247.359 444.953 247.055 445.99 247.055 447.25C247.055 447.891 247.169 448.372 247.398 448.695C247.633 449.013 247.982 449.172 248.445 449.172C248.747 449.172 249.055 449.083 249.367 448.906C249.68 448.729 250.003 448.464 250.336 448.109L251.164 443.891L250.523 442.914ZM252.016 442.289H252.844C252.76 442.461 252.667 442.742 252.562 443.133C252.464 443.518 252.354 444 252.234 444.578L251.664 447.406C251.612 447.656 251.57 447.878 251.539 448.07C251.513 448.258 251.5 448.411 251.5 448.531C251.5 448.781 251.568 448.966 251.703 449.086C251.844 449.206 252.065 449.266 252.367 449.266C252.43 449.266 252.513 449.258 252.617 449.242C252.727 449.221 252.94 449.174 253.258 449.102V449.586C252.81 449.773 252.422 449.911 252.094 450C251.771 450.094 251.505 450.141 251.297 450.141C250.964 450.141 250.716 450.042 250.555 449.844C250.398 449.646 250.32 449.341 250.32 448.93V448.797C249.888 449.255 249.477 449.594 249.086 449.812C248.695 450.031 248.31 450.141 247.93 450.141C247.247 450.141 246.708 449.893 246.312 449.398C245.922 448.904 245.727 448.219 245.727 447.344C245.727 446.818 245.794 446.307 245.93 445.812C246.07 445.318 246.279 444.841 246.555 444.383C246.966 443.706 247.49 443.188 248.125 442.828C248.76 442.469 249.469 442.289 250.25 442.289C250.484 442.289 250.724 442.32 250.969 442.383C251.214 442.44 251.456 442.526 251.695 442.641L252.016 442.289ZM257.188 442.289H257.508L257 444.477C257.495 443.779 257.99 443.24 258.484 442.859C258.979 442.479 259.432 442.289 259.844 442.289C260.115 442.289 260.331 442.367 260.492 442.523C260.659 442.674 260.742 442.872 260.742 443.117C260.742 443.43 260.643 443.682 260.445 443.875C260.253 444.062 259.995 444.156 259.672 444.156H259.562L259.141 443.297C258.432 443.573 257.901 443.927 257.547 444.359C257.198 444.792 256.951 445.419 256.805 446.242L256.148 450H254.805L256.133 443.453L254.82 443.219V442.812L257.188 442.289ZM264.133 442.289H264.531L264.242 443.82C264.909 443.294 265.492 442.909 265.992 442.664C266.492 442.414 266.943 442.289 267.344 442.289C267.76 442.289 268.089 442.404 268.328 442.633C268.568 442.862 268.688 443.174 268.688 443.57C268.688 443.716 268.672 443.885 268.641 444.078C268.615 444.271 268.557 444.576 268.469 444.992L267.922 447.469C267.917 447.505 267.906 447.557 267.891 447.625C267.797 448.083 267.75 448.385 267.75 448.531C267.75 448.781 267.82 448.974 267.961 449.109C268.107 449.245 268.312 449.312 268.578 449.312C268.688 449.312 268.812 449.302 268.953 449.281C269.099 449.255 269.266 449.219 269.453 449.172L269.461 449.617C269.044 449.779 268.674 449.898 268.352 449.977C268.034 450.055 267.763 450.094 267.539 450.094C267.148 450.094 266.854 450.016 266.656 449.859C266.464 449.698 266.367 449.456 266.367 449.133C266.367 449.034 266.378 448.911 266.398 448.766C266.424 448.62 266.458 448.456 266.5 448.273L267.188 445.312C267.234 445.115 267.268 444.93 267.289 444.758C267.315 444.581 267.328 444.424 267.328 444.289C267.328 443.935 267.26 443.68 267.125 443.523C266.99 443.362 266.771 443.281 266.469 443.281C266.172 443.281 265.815 443.396 265.398 443.625C264.987 443.854 264.555 444.177 264.102 444.594L263.109 450H261.75L263.078 443.453L261.766 443.219V442.812L264.133 442.289ZM273.539 442.289H273.953L272.805 448.266C272.784 448.365 272.768 448.448 272.758 448.516C272.753 448.578 272.75 448.63 272.75 448.672C272.75 448.875 272.815 449.031 272.945 449.141C273.076 449.245 273.268 449.297 273.523 449.297C273.669 449.297 273.839 449.279 274.031 449.242C274.229 449.201 274.453 449.138 274.703 449.055V449.555C274.26 449.737 273.849 449.875 273.469 449.969C273.094 450.062 272.753 450.109 272.445 450.109C272.107 450.109 271.852 450.023 271.68 449.852C271.508 449.674 271.422 449.409 271.422 449.055C271.422 448.956 271.43 448.836 271.445 448.695C271.466 448.555 271.492 448.398 271.523 448.227L272.461 443.453L271.172 443.219V442.797L273.539 442.289ZM273.859 438.734C274.089 438.734 274.289 438.82 274.461 438.992C274.633 439.164 274.719 439.367 274.719 439.602C274.719 439.836 274.633 440.039 274.461 440.211C274.294 440.378 274.094 440.461 273.859 440.461C273.615 440.461 273.409 440.38 273.242 440.219C273.076 440.052 272.992 439.846 272.992 439.602C272.992 439.362 273.076 439.159 273.242 438.992C273.414 438.82 273.62 438.734 273.859 438.734ZM278.633 442.289H279.031L278.742 443.82C279.409 443.294 279.992 442.909 280.492 442.664C280.992 442.414 281.443 442.289 281.844 442.289C282.26 442.289 282.589 442.404 282.828 442.633C283.068 442.862 283.188 443.174 283.188 443.57C283.188 443.716 283.172 443.885 283.141 444.078C283.115 444.271 283.057 444.576 282.969 444.992L282.422 447.469C282.417 447.505 282.406 447.557 282.391 447.625C282.297 448.083 282.25 448.385 282.25 448.531C282.25 448.781 282.32 448.974 282.461 449.109C282.607 449.245 282.812 449.312 283.078 449.312C283.188 449.312 283.312 449.302 283.453 449.281C283.599 449.255 283.766 449.219 283.953 449.172L283.961 449.617C283.544 449.779 283.174 449.898 282.852 449.977C282.534 450.055 282.263 450.094 282.039 450.094C281.648 450.094 281.354 450.016 281.156 449.859C280.964 449.698 280.867 449.456 280.867 449.133C280.867 449.034 280.878 448.911 280.898 448.766C280.924 448.62 280.958 448.456 281 448.273L281.688 445.312C281.734 445.115 281.768 444.93 281.789 444.758C281.815 444.581 281.828 444.424 281.828 444.289C281.828 443.935 281.76 443.68 281.625 443.523C281.49 443.362 281.271 443.281 280.969 443.281C280.672 443.281 280.315 443.396 279.898 443.625C279.487 443.854 279.055 444.177 278.602 444.594L277.609 450H276.25L277.578 443.453L276.266 443.219V442.812L278.633 442.289ZM287.367 449.453C286.883 449.568 286.516 449.758 286.266 450.023C286.016 450.294 285.891 450.633 285.891 451.039C285.891 451.555 286.091 451.979 286.492 452.312C286.898 452.646 287.419 452.812 288.055 452.812C288.706 452.812 289.24 452.677 289.656 452.406C290.078 452.141 290.289 451.812 290.289 451.422C290.289 451.214 290.216 451.023 290.07 450.852C289.924 450.685 289.701 450.534 289.398 450.398L287.367 449.453ZM290.117 444.32C290.117 443.852 290.023 443.492 289.836 443.242C289.648 442.992 289.38 442.867 289.031 442.867C288.547 442.867 288.117 443.133 287.742 443.664C287.372 444.195 287.188 444.826 287.188 445.555C287.188 445.977 287.281 446.307 287.469 446.547C287.661 446.781 287.924 446.898 288.258 446.898C288.742 446.898 289.172 446.643 289.547 446.133C289.927 445.617 290.117 445.013 290.117 444.32ZM290.531 442.672H292.82V443.359H291.18C291.242 443.536 291.292 443.714 291.328 443.891C291.365 444.068 291.383 444.242 291.383 444.414C291.383 445.268 291.083 445.987 290.484 446.57C289.885 447.148 289.161 447.438 288.312 447.438C288.255 447.438 288.195 447.438 288.133 447.438C288.07 447.432 288.005 447.427 287.938 447.422C287.87 447.557 287.818 447.695 287.781 447.836C287.75 447.971 287.734 448.117 287.734 448.273V448.367L290.273 449.523C290.695 449.716 291.008 449.943 291.211 450.203C291.419 450.464 291.523 450.763 291.523 451.102C291.523 451.732 291.143 452.286 290.383 452.766C289.622 453.245 288.719 453.484 287.672 453.484C286.745 453.484 286.008 453.292 285.461 452.906C284.919 452.526 284.648 452.01 284.648 451.359C284.648 450.87 284.812 450.451 285.141 450.102C285.474 449.753 286.018 449.43 286.773 449.133C286.768 449.102 286.763 449.068 286.758 449.031C286.758 448.995 286.758 448.94 286.758 448.867C286.758 448.607 286.807 448.354 286.906 448.109C287.01 447.859 287.174 447.594 287.398 447.312C286.924 447.125 286.56 446.865 286.305 446.531C286.049 446.193 285.922 445.807 285.922 445.375C285.922 444.505 286.224 443.771 286.828 443.172C287.432 442.573 288.172 442.273 289.047 442.273C289.286 442.273 289.526 442.307 289.766 442.375C290.01 442.438 290.266 442.536 290.531 442.672ZM300.523 449.453C300.039 449.568 299.672 449.758 299.422 450.023C299.172 450.294 299.047 450.633 299.047 451.039C299.047 451.555 299.247 451.979 299.648 452.312C300.055 452.646 300.576 452.812 301.211 452.812C301.862 452.812 302.396 452.677 302.812 452.406C303.234 452.141 303.445 451.812 303.445 451.422C303.445 451.214 303.372 451.023 303.227 450.852C303.081 450.685 302.857 450.534 302.555 450.398L300.523 449.453ZM303.273 444.32C303.273 443.852 303.18 443.492 302.992 443.242C302.805 442.992 302.536 442.867 302.188 442.867C301.703 442.867 301.273 443.133 300.898 443.664C300.529 444.195 300.344 444.826 300.344 445.555C300.344 445.977 300.438 446.307 300.625 446.547C300.818 446.781 301.081 446.898 301.414 446.898C301.898 446.898 302.328 446.643 302.703 446.133C303.083 445.617 303.273 445.013 303.273 444.32ZM303.688 442.672H305.977V443.359H304.336C304.398 443.536 304.448 443.714 304.484 443.891C304.521 444.068 304.539 444.242 304.539 444.414C304.539 445.268 304.24 445.987 303.641 446.57C303.042 447.148 302.318 447.438 301.469 447.438C301.411 447.438 301.352 447.438 301.289 447.438C301.227 447.432 301.161 447.427 301.094 447.422C301.026 447.557 300.974 447.695 300.938 447.836C300.906 447.971 300.891 448.117 300.891 448.273V448.367L303.43 449.523C303.852 449.716 304.164 449.943 304.367 450.203C304.576 450.464 304.68 450.763 304.68 451.102C304.68 451.732 304.299 452.286 303.539 452.766C302.779 453.245 301.875 453.484 300.828 453.484C299.901 453.484 299.164 453.292 298.617 452.906C298.076 452.526 297.805 452.01 297.805 451.359C297.805 450.87 297.969 450.451 298.297 450.102C298.63 449.753 299.174 449.43 299.93 449.133C299.924 449.102 299.919 449.068 299.914 449.031C299.914 448.995 299.914 448.94 299.914 448.867C299.914 448.607 299.964 448.354 300.062 448.109C300.167 447.859 300.331 447.594 300.555 447.312C300.081 447.125 299.716 446.865 299.461 446.531C299.206 446.193 299.078 445.807 299.078 445.375C299.078 444.505 299.38 443.771 299.984 443.172C300.589 442.573 301.328 442.273 302.203 442.273C302.443 442.273 302.682 442.307 302.922 442.375C303.167 442.438 303.422 442.536 303.688 442.672ZM310.758 442.898C310.044 442.898 309.44 443.302 308.945 444.109C308.456 444.917 308.211 445.919 308.211 447.117C308.211 447.872 308.346 448.456 308.617 448.867C308.893 449.279 309.276 449.484 309.766 449.484C310.469 449.484 311.07 449.083 311.57 448.281C312.07 447.474 312.32 446.484 312.32 445.312C312.32 444.542 312.185 443.948 311.914 443.531C311.643 443.109 311.258 442.898 310.758 442.898ZM310.961 442.273C311.799 442.273 312.464 442.555 312.953 443.117C313.443 443.68 313.688 444.443 313.688 445.406C313.688 446.036 313.576 446.648 313.352 447.242C313.128 447.831 312.807 448.367 312.391 448.852C312.016 449.279 311.591 449.602 311.117 449.82C310.643 450.034 310.128 450.141 309.57 450.141C308.742 450.141 308.081 449.867 307.586 449.32C307.096 448.768 306.852 448.029 306.852 447.102C306.852 446.461 306.964 445.833 307.188 445.219C307.417 444.599 307.732 444.06 308.133 443.602C308.518 443.164 308.951 442.833 309.43 442.609C309.914 442.385 310.424 442.273 310.961 442.273ZM320.102 442.914H319.883C318.935 442.914 318.156 443.323 317.547 444.141C316.938 444.953 316.633 445.99 316.633 447.25C316.633 447.891 316.747 448.372 316.977 448.695C317.211 449.013 317.56 449.172 318.023 449.172C318.326 449.172 318.633 449.083 318.945 448.906C319.258 448.729 319.581 448.464 319.914 448.109L320.742 443.891L320.102 442.914ZM321.594 442.289H322.422C322.339 442.461 322.245 442.742 322.141 443.133C322.042 443.518 321.932 444 321.812 444.578L321.242 447.406C321.19 447.656 321.148 447.878 321.117 448.07C321.091 448.258 321.078 448.411 321.078 448.531C321.078 448.781 321.146 448.966 321.281 449.086C321.422 449.206 321.643 449.266 321.945 449.266C322.008 449.266 322.091 449.258 322.195 449.242C322.305 449.221 322.518 449.174 322.836 449.102V449.586C322.388 449.773 322 449.911 321.672 450C321.349 450.094 321.083 450.141 320.875 450.141C320.542 450.141 320.294 450.042 320.133 449.844C319.977 449.646 319.898 449.341 319.898 448.93V448.797C319.466 449.255 319.055 449.594 318.664 449.812C318.273 450.031 317.888 450.141 317.508 450.141C316.826 450.141 316.286 449.893 315.891 449.398C315.5 448.904 315.305 448.219 315.305 447.344C315.305 446.818 315.372 446.307 315.508 445.812C315.648 445.318 315.857 444.841 316.133 444.383C316.544 443.706 317.068 443.188 317.703 442.828C318.339 442.469 319.047 442.289 319.828 442.289C320.062 442.289 320.302 442.32 320.547 442.383C320.792 442.44 321.034 442.526 321.273 442.641L321.594 442.289ZM327.328 438.227H327.758C327.711 438.482 327.669 438.703 327.633 438.891C327.602 439.078 327.581 439.203 327.57 439.266L325.953 447.312C325.896 447.594 325.852 447.849 325.82 448.078C325.794 448.302 325.781 448.479 325.781 448.609C325.781 448.854 325.854 449.042 326 449.172C326.151 449.297 326.37 449.359 326.656 449.359C326.781 449.359 326.935 449.339 327.117 449.297C327.305 449.255 327.531 449.19 327.797 449.102V449.602C327.375 449.779 326.982 449.911 326.617 450C326.253 450.094 325.935 450.141 325.664 450.141C325.273 450.141 324.982 450.044 324.789 449.852C324.596 449.654 324.5 449.357 324.5 448.961C324.5 448.846 324.523 448.633 324.57 448.32C324.622 448.003 324.695 447.602 324.789 447.117L326.32 439.281L324.898 439.117V438.703L327.328 438.227Z" fill="#979797"/>
<rect width="253" height="44" rx="22" fill="#D5F0E4"/>
<path d="M34.5779 30.264C36.4259 30.264 37.9439 29.516 39.1099 28.174L37.7459 26.568C36.9319 27.448 35.9419 28.042 34.6659 28.042C32.2459 28.042 30.7059 26.062 30.7059 22.784C30.7059 19.55 32.3779 17.57 34.7319 17.57C35.8539 17.57 36.7119 18.076 37.4599 18.824L38.8239 17.174C37.9219 16.206 36.4699 15.348 34.6659 15.348C31.0359 15.348 28.0879 18.142 28.0879 22.85C28.0879 27.624 30.9479 30.264 34.5779 30.264ZM45.5844 30.264C47.0584 30.264 48.1144 29.538 49.0604 28.416H49.1264L49.3244 30H51.3924V19.198H48.8624V26.59C48.0484 27.646 47.4104 28.086 46.4644 28.086C45.2984 28.086 44.7924 27.426 44.7924 25.644V19.198H42.2624V25.974C42.2624 28.702 43.2744 30.264 45.5844 30.264ZM58.3566 30.264C58.9506 30.264 59.3906 30.176 59.6986 30.044L59.3686 28.152C59.1706 28.196 59.0826 28.196 58.9726 28.196C58.7086 28.196 58.4226 27.976 58.4226 27.36V14.468H55.8926V27.228C55.8926 29.098 56.5526 30.264 58.3566 30.264ZM66.9668 30.264C67.8248 30.264 68.5728 30.066 69.1668 29.868L68.7268 27.998C68.4188 28.13 67.9788 28.24 67.6048 28.24C66.5708 28.24 66.0868 27.624 66.0868 26.348V21.2H68.8368V19.198H66.0868V16.25H63.9748L63.6668 19.198L61.9948 19.308V21.2H63.5348V26.348C63.5348 28.68 64.4588 30.264 66.9668 30.264ZM72.4056 30H74.9356V19.198H72.4056V30ZM73.6816 17.306C74.5836 17.306 75.2436 16.712 75.2436 15.876C75.2436 15.018 74.5836 14.424 73.6816 14.424C72.7796 14.424 72.1196 15.018 72.1196 15.876C72.1196 16.712 72.7796 17.306 73.6816 17.306ZM81.8789 30H84.8049L88.4789 19.198H86.0369L84.3209 24.808C84.0129 25.864 83.7049 26.964 83.3969 28.064H83.3089C83.0229 26.964 82.6929 25.864 82.4069 24.808L80.6909 19.198H78.1169L81.8789 30ZM93.8354 30.264C95.1114 30.264 96.2114 29.626 97.1794 28.812H97.2674L97.4434 30H99.5334V23.598C99.5334 20.584 98.1914 18.934 95.5074 18.934C93.7914 18.934 92.2514 19.594 91.0634 20.342L91.9874 22.036C92.9554 21.464 93.9674 20.98 95.0234 20.98C96.4974 20.98 96.9594 21.948 97.0034 23.092C92.5594 23.576 90.6454 24.786 90.6454 27.096C90.6454 28.988 91.9434 30.264 93.8354 30.264ZM94.6494 28.284C93.7474 28.284 93.0874 27.866 93.0874 26.898C93.0874 25.82 94.0554 25.05 97.0034 24.676V27.096C96.1894 27.844 95.5294 28.284 94.6494 28.284ZM107.319 30.264C108.177 30.264 108.925 30.066 109.519 29.868L109.079 27.998C108.771 28.13 108.331 28.24 107.957 28.24C106.923 28.24 106.439 27.624 106.439 26.348V21.2H109.189V19.198H106.439V16.25H104.327L104.019 19.198L102.347 19.308V21.2H103.887V26.348C103.887 28.68 104.811 30.264 107.319 30.264ZM117.034 30.264C118.398 30.264 119.696 29.78 120.73 29.098L119.872 27.514C119.08 28.02 118.288 28.306 117.364 28.306C115.626 28.306 114.394 27.206 114.174 25.292H121.038C121.104 25.028 121.148 24.544 121.148 24.06C121.148 21.046 119.608 18.934 116.682 18.934C114.152 18.934 111.71 21.09 111.71 24.61C111.71 28.174 114.042 30.264 117.034 30.264ZM114.152 23.576C114.372 21.838 115.472 20.892 116.748 20.892C118.222 20.892 118.948 21.904 118.948 23.576H114.152ZM130.78 30H133.332V15.612H130.78V30ZM138.064 30H140.594V22.454C141.496 21.574 142.112 21.112 143.058 21.112C144.246 21.112 144.752 21.772 144.752 23.554V30H147.282V23.224C147.282 20.496 146.27 18.934 143.96 18.934C142.486 18.934 141.386 19.704 140.418 20.65H140.33L140.154 19.198H138.064V30ZM155.476 30.264C156.334 30.264 157.082 30.066 157.676 29.868L157.236 27.998C156.928 28.13 156.488 28.24 156.114 28.24C155.08 28.24 154.596 27.624 154.596 26.348V21.2H157.346V19.198H154.596V16.25H152.484L152.176 19.198L150.504 19.308V21.2H152.044V26.348C152.044 28.68 152.968 30.264 155.476 30.264ZM165.191 30.264C166.555 30.264 167.853 29.78 168.887 29.098L168.029 27.514C167.237 28.02 166.445 28.306 165.521 28.306C163.783 28.306 162.551 27.206 162.331 25.292H169.195C169.261 25.028 169.305 24.544 169.305 24.06C169.305 21.046 167.765 18.934 164.839 18.934C162.309 18.934 159.867 21.09 159.867 24.61C159.867 28.174 162.199 30.264 165.191 30.264ZM162.309 23.576C162.529 21.838 163.629 20.892 164.905 20.892C166.379 20.892 167.105 21.904 167.105 23.576H162.309ZM173.017 30H175.547V23.4C176.207 21.772 177.241 21.178 178.099 21.178C178.561 21.178 178.847 21.244 179.221 21.354L179.661 19.154C179.331 19 178.979 18.934 178.429 18.934C177.285 18.934 176.141 19.704 175.371 21.112H175.283L175.107 19.198H173.017V30ZM186.925 30.264C188.289 30.264 189.587 29.78 190.621 29.098L189.763 27.514C188.971 28.02 188.179 28.306 187.255 28.306C185.517 28.306 184.285 27.206 184.065 25.292H190.929C190.995 25.028 191.039 24.544 191.039 24.06C191.039 21.046 189.499 18.934 186.573 18.934C184.043 18.934 181.601 21.09 181.601 24.61C181.601 28.174 183.933 30.264 186.925 30.264ZM184.043 23.576C184.263 21.838 185.363 20.892 186.639 20.892C188.113 20.892 188.839 21.904 188.839 23.576H184.043ZM197.765 30.264C200.493 30.264 201.967 28.768 201.967 26.92C201.967 24.896 200.339 24.192 198.865 23.642C197.699 23.224 196.621 22.894 196.621 22.036C196.621 21.354 197.127 20.848 198.205 20.848C199.063 20.848 199.833 21.222 200.581 21.772L201.747 20.232C200.867 19.55 199.657 18.934 198.161 18.934C195.741 18.934 194.223 20.276 194.223 22.168C194.223 23.972 195.829 24.786 197.259 25.314C198.403 25.754 199.569 26.15 199.569 27.052C199.569 27.8 199.019 28.35 197.853 28.35C196.753 28.35 195.829 27.888 194.861 27.14L193.673 28.768C194.729 29.626 196.291 30.264 197.765 30.264ZM208.898 30.264C209.756 30.264 210.504 30.066 211.098 29.868L210.658 27.998C210.35 28.13 209.91 28.24 209.536 28.24C208.502 28.24 208.018 27.624 208.018 26.348V21.2H210.768V19.198H208.018V16.25H205.906L205.598 19.198L203.926 19.308V21.2H205.466V26.348C205.466 28.68 206.39 30.264 208.898 30.264ZM217.135 30.264C219.863 30.264 221.337 28.768 221.337 26.92C221.337 24.896 219.709 24.192 218.235 23.642C217.069 23.224 215.991 22.894 215.991 22.036C215.991 21.354 216.497 20.848 217.575 20.848C218.433 20.848 219.203 21.222 219.951 21.772L221.117 20.232C220.237 19.55 219.027 18.934 217.531 18.934C215.111 18.934 213.593 20.276 213.593 22.168C213.593 23.972 215.199 24.786 216.629 25.314C217.773 25.754 218.939 26.15 218.939 27.052C218.939 27.8 218.389 28.35 217.223 28.35C216.123 28.35 215.199 27.888 214.231 27.14L213.043 28.768C214.099 29.626 215.661 30.264 217.135 30.264Z" fill="#189779"/>
<rect y="55" width="212" height="44" rx="22" fill="#D5F0E4"/>
<path d="M28.1009 85H33.0729C36.2409 85 38.5949 83.658 38.5949 80.776C38.5949 78.84 37.4289 77.718 35.8449 77.366V77.278C37.0989 76.838 37.8469 75.518 37.8469 74.154C37.8469 71.514 35.6689 70.612 32.6989 70.612H28.1009V85ZM30.6529 76.552V72.592H32.5229C34.3929 72.592 35.3389 73.12 35.3389 74.528C35.3389 75.76 34.4809 76.552 32.4789 76.552H30.6529ZM30.6529 83.02V78.466H32.8089C34.9649 78.466 36.1089 79.126 36.1089 80.644C36.1089 82.25 34.9209 83.02 32.8089 83.02H30.6529ZM42.3034 85H44.8334V74.198H42.3034V85ZM43.5794 72.306C44.4814 72.306 45.1414 71.712 45.1414 70.876C45.1414 70.018 44.4814 69.424 43.5794 69.424C42.6774 69.424 42.0174 70.018 42.0174 70.876C42.0174 71.712 42.6774 72.306 43.5794 72.306ZM53.1187 89.774C56.6387 89.774 58.8827 88.102 58.8827 85.968C58.8827 84.098 57.5187 83.306 54.9227 83.306H53.0087C51.6887 83.306 51.2487 82.932 51.2487 82.316C51.2487 81.832 51.4467 81.568 51.7767 81.282C52.2607 81.48 52.7887 81.568 53.2507 81.568C55.5387 81.568 57.3427 80.292 57.3427 77.894C57.3427 77.146 57.0787 76.486 56.7267 76.068H58.7067V74.198H54.8347C54.3947 74.044 53.8447 73.934 53.2507 73.934C50.9847 73.934 48.9827 75.32 48.9827 77.806C48.9827 79.082 49.6647 80.116 50.3907 80.666V80.754C49.7747 81.194 49.2027 81.92 49.2027 82.756C49.2027 83.636 49.6207 84.208 50.1707 84.56V84.648C49.1807 85.264 48.6307 86.056 48.6307 86.958C48.6307 88.85 50.5447 89.774 53.1187 89.774ZM53.2507 79.984C52.1947 79.984 51.3587 79.192 51.3587 77.806C51.3587 76.442 52.1947 75.672 53.2507 75.672C54.3067 75.672 55.1207 76.464 55.1207 77.806C55.1207 79.192 54.2847 79.984 53.2507 79.984ZM53.5147 88.124C51.7987 88.124 50.7427 87.552 50.7427 86.584C50.7427 86.078 51.0067 85.594 51.5787 85.154C51.9967 85.264 52.4587 85.308 53.0527 85.308H54.5267C55.7587 85.308 56.4407 85.55 56.4407 86.386C56.4407 87.31 55.2527 88.124 53.5147 88.124ZM68.0018 85H70.5538V70.612H68.0018V85ZM79.0704 85.264C80.2364 85.264 81.3364 84.626 82.1284 83.834H82.2164L82.3924 85H84.4824V69.468H81.9524V73.384L82.0404 75.122C81.2044 74.396 80.4344 73.934 79.2024 73.934C76.8484 73.934 74.6264 76.09 74.6264 79.61C74.6264 83.174 76.3644 85.264 79.0704 85.264ZM79.6864 83.174C78.1244 83.174 77.2444 81.92 77.2444 79.588C77.2444 77.322 78.3664 76.024 79.7524 76.024C80.4784 76.024 81.2044 76.266 81.9524 76.926V81.964C81.2264 82.8 80.5224 83.174 79.6864 83.174ZM93.6199 85.264C94.9839 85.264 96.2819 84.78 97.3159 84.098L96.4579 82.514C95.6659 83.02 94.8739 83.306 93.9499 83.306C92.2119 83.306 90.9799 82.206 90.7599 80.292H97.6239C97.6899 80.028 97.7339 79.544 97.7339 79.06C97.7339 76.046 96.1939 73.934 93.2679 73.934C90.7379 73.934 88.2959 76.09 88.2959 79.61C88.2959 83.174 90.6279 85.264 93.6199 85.264ZM90.7379 78.576C90.9579 76.838 92.0579 75.892 93.3339 75.892C94.8079 75.892 95.5339 76.904 95.5339 78.576H90.7379ZM103.806 85.264C105.082 85.264 106.182 84.626 107.15 83.812H107.238L107.414 85H109.504V78.598C109.504 75.584 108.162 73.934 105.478 73.934C103.762 73.934 102.222 74.594 101.034 75.342L101.958 77.036C102.926 76.464 103.938 75.98 104.994 75.98C106.468 75.98 106.93 76.948 106.974 78.092C102.53 78.576 100.616 79.786 100.616 82.096C100.616 83.988 101.914 85.264 103.806 85.264ZM104.62 83.284C103.718 83.284 103.058 82.866 103.058 81.898C103.058 80.82 104.026 80.05 106.974 79.676V82.096C106.16 82.844 105.5 83.284 104.62 83.284ZM116.841 85.264C119.569 85.264 121.043 83.768 121.043 81.92C121.043 79.896 119.415 79.192 117.941 78.642C116.775 78.224 115.697 77.894 115.697 77.036C115.697 76.354 116.203 75.848 117.281 75.848C118.139 75.848 118.909 76.222 119.657 76.772L120.823 75.232C119.943 74.55 118.733 73.934 117.237 73.934C114.817 73.934 113.299 75.276 113.299 77.168C113.299 78.972 114.905 79.786 116.335 80.314C117.479 80.754 118.645 81.15 118.645 82.052C118.645 82.8 118.095 83.35 116.929 83.35C115.829 83.35 114.905 82.888 113.937 82.14L112.749 83.768C113.805 84.626 115.367 85.264 116.841 85.264ZM134.719 85.264C137.425 85.264 139.867 83.196 139.867 79.61C139.867 76.002 137.425 73.934 134.719 73.934C132.035 73.934 129.593 76.002 129.593 79.61C129.593 83.196 132.035 85.264 134.719 85.264ZM134.719 83.196C133.135 83.196 132.189 81.766 132.189 79.61C132.189 77.432 133.135 76.002 134.719 76.002C136.303 76.002 137.271 77.432 137.271 79.61C137.271 81.766 136.303 83.196 134.719 83.196ZM144.021 85H146.551V76.2H148.663V74.198H146.551V73.032C146.551 71.778 147.035 71.206 147.915 71.206C148.289 71.206 148.707 71.294 149.103 71.47L149.587 69.578C149.103 69.38 148.377 69.204 147.607 69.204C145.055 69.204 144.021 70.832 144.021 73.076V74.198L142.569 74.308V76.2H144.021V85ZM160.727 77.344C161.189 75.826 161.607 74.198 162.003 72.592H162.091C162.509 74.176 162.927 75.826 163.389 77.344L163.895 79.104H160.221L160.727 77.344ZM155.909 85H158.505L159.627 81.106H164.467L165.589 85H168.273L163.587 70.612H160.595L155.909 85ZM171.342 85H173.894V70.612H171.342V85Z" fill="#189779"/>
<rect y="110" width="238" height="38" rx="19" fill="#D4D4D4"/>
<path d="M30.4154 135.216C31.9454 135.216 33.0974 134.586 34.0334 133.506L33.2054 132.57C32.4494 133.398 31.6034 133.902 30.4694 133.902C28.2374 133.902 26.8154 132.03 26.8154 129.06C26.8154 126.126 28.2914 124.29 30.5234 124.29C31.5314 124.29 32.3054 124.74 32.9354 125.406L33.7454 124.434C33.0614 123.66 31.9454 122.976 30.5054 122.976C27.4994 122.976 25.2674 125.298 25.2674 129.096C25.2674 132.948 27.4634 135.216 30.4154 135.216ZM40.5526 135.216C42.6946 135.216 44.6026 133.542 44.6026 130.644C44.6026 127.71 42.6946 126.036 40.5526 126.036C38.4106 126.036 36.5026 127.71 36.5026 130.644C36.5026 133.542 38.4106 135.216 40.5526 135.216ZM40.5526 133.992C39.0586 133.992 38.0326 132.642 38.0326 130.644C38.0326 128.628 39.0586 127.26 40.5526 127.26C42.0646 127.26 43.0726 128.628 43.0726 130.644C43.0726 132.642 42.0646 133.992 40.5526 133.992ZM47.9664 135H49.4424V128.664C50.2524 127.764 50.9904 127.314 51.6384 127.314C52.7544 127.314 53.2764 128.016 53.2764 129.654V135H54.7524V128.664C55.5624 127.764 56.2644 127.314 56.9484 127.314C58.0464 127.314 58.5684 128.016 58.5684 129.654V135H60.0444V129.456C60.0444 127.224 59.1804 126.036 57.3804 126.036C56.3184 126.036 55.4184 126.72 54.5004 127.71C54.1404 126.666 53.4204 126.036 52.0884 126.036C51.0444 126.036 50.1264 126.684 49.3704 127.512H49.3164L49.1904 126.252H47.9664V135ZM63.9503 135H65.4263V128.664C66.2363 127.764 66.9743 127.314 67.6223 127.314C68.7383 127.314 69.2603 128.016 69.2603 129.654V135H70.7363V128.664C71.5463 127.764 72.2483 127.314 72.9323 127.314C74.0303 127.314 74.5523 128.016 74.5523 129.654V135H76.0283V129.456C76.0283 127.224 75.1643 126.036 73.3643 126.036C72.3023 126.036 71.4023 126.72 70.4843 127.71C70.1243 126.666 69.4043 126.036 68.0723 126.036C67.0283 126.036 66.1103 126.684 65.3543 127.512H65.3003L65.1743 126.252H63.9503V135ZM82.4901 135.216C83.6961 135.216 84.5601 134.586 85.3701 133.632H85.4241L85.5501 135H86.7741V126.252H85.2981V132.462C84.4701 133.488 83.8401 133.938 82.9401 133.938C81.7881 133.938 81.3021 133.236 81.3021 131.598V126.252H79.8081V131.796C79.8081 134.028 80.6361 135.216 82.4901 135.216ZM90.7851 135H92.2611V128.664C93.1431 127.782 93.7551 127.314 94.6551 127.314C95.8071 127.314 96.3111 128.016 96.3111 129.654V135H97.7871V129.456C97.7871 127.224 96.9591 126.036 95.1231 126.036C93.9171 126.036 93.0171 126.684 92.1891 127.512H92.1351L92.0091 126.252H90.7851V135ZM101.689 135H103.165V126.252H101.689V135ZM102.445 124.452C103.021 124.452 103.471 124.056 103.471 123.498C103.471 122.922 103.021 122.544 102.445 122.544C101.869 122.544 101.419 122.922 101.419 123.498C101.419 124.056 101.869 124.452 102.445 124.452ZM110.635 135.216C111.679 135.216 112.669 134.802 113.461 134.1L112.813 133.11C112.273 133.596 111.571 133.992 110.761 133.992C109.159 133.992 108.061 132.642 108.061 130.644C108.061 128.628 109.213 127.26 110.797 127.26C111.499 127.26 112.039 127.584 112.543 128.034L113.299 127.062C112.687 126.504 111.895 126.036 110.743 126.036C108.493 126.036 106.531 127.71 106.531 130.644C106.531 133.542 108.313 135.216 110.635 135.216ZM118.288 135.216C119.386 135.216 120.358 134.64 121.186 133.956H121.24L121.366 135H122.59V129.636C122.59 127.458 121.69 126.036 119.548 126.036C118.144 126.036 116.92 126.648 116.11 127.17L116.686 128.196C117.37 127.728 118.288 127.26 119.296 127.26C120.736 127.26 121.096 128.34 121.096 129.456C117.37 129.87 115.732 130.824 115.732 132.732C115.732 134.298 116.83 135.216 118.288 135.216ZM118.72 134.028C117.856 134.028 117.172 133.614 117.172 132.624C117.172 131.508 118.18 130.788 121.096 130.428V132.858C120.25 133.614 119.566 134.028 118.72 134.028ZM128.91 135.216C129.45 135.216 130.044 135.054 130.53 134.892L130.242 133.776C129.954 133.884 129.558 134.01 129.252 134.01C128.244 134.01 127.902 133.398 127.902 132.318V127.458H130.26V126.252H127.902V123.804H126.66L126.48 126.252L125.112 126.342V127.458H126.408V132.3C126.408 134.028 127.038 135.216 128.91 135.216ZM133.298 135H134.774V126.252H133.298V135ZM134.054 124.452C134.63 124.452 135.08 124.056 135.08 123.498C135.08 122.922 134.63 122.544 134.054 122.544C133.478 122.544 133.028 122.922 133.028 123.498C133.028 124.056 133.478 124.452 134.054 124.452ZM142.19 135.216C144.332 135.216 146.24 133.542 146.24 130.644C146.24 127.71 144.332 126.036 142.19 126.036C140.048 126.036 138.14 127.71 138.14 130.644C138.14 133.542 140.048 135.216 142.19 135.216ZM142.19 133.992C140.696 133.992 139.67 132.642 139.67 130.644C139.67 128.628 140.696 127.26 142.19 127.26C143.702 127.26 144.71 128.628 144.71 130.644C144.71 132.642 143.702 133.992 142.19 133.992ZM149.604 135H151.08V128.664C151.962 127.782 152.574 127.314 153.474 127.314C154.626 127.314 155.13 128.016 155.13 129.654V135H156.606V129.456C156.606 127.224 155.778 126.036 153.942 126.036C152.736 126.036 151.836 126.684 151.008 127.512H150.954L150.828 126.252H149.604V135ZM168.591 135.216C171.075 135.216 172.605 133.722 172.605 131.85C172.605 130.104 171.543 129.294 170.175 128.7L168.501 127.98C167.565 127.584 166.539 127.152 166.539 126.018C166.539 124.956 167.421 124.29 168.735 124.29C169.833 124.29 170.697 124.722 171.417 125.406L172.227 124.434C171.381 123.57 170.139 122.976 168.735 122.976C166.593 122.976 165.027 124.308 165.027 126.108C165.027 127.836 166.305 128.682 167.421 129.15L169.113 129.888C170.229 130.392 171.075 130.77 171.075 131.976C171.075 133.128 170.157 133.902 168.609 133.902C167.385 133.902 166.197 133.308 165.351 132.426L164.451 133.47C165.477 134.532 166.935 135.216 168.591 135.216ZM175.846 135H177.304V132.696L178.942 130.788L181.498 135H183.118L179.788 129.762L182.722 126.252H181.084L177.358 130.86H177.304V122.184H175.846V135ZM185.818 135H187.294V126.252H185.818V135ZM186.574 124.452C187.15 124.452 187.6 124.056 187.6 123.498C187.6 122.922 187.15 122.544 186.574 122.544C185.998 122.544 185.548 122.922 185.548 123.498C185.548 124.056 185.998 124.452 186.574 124.452ZM192.874 135.216C193.27 135.216 193.522 135.162 193.72 135.072L193.522 133.956C193.36 133.992 193.288 133.992 193.198 133.992C192.982 133.992 192.784 133.812 192.784 133.344V122.184H191.308V133.236C191.308 134.514 191.758 135.216 192.874 135.216ZM198.522 135.216C198.918 135.216 199.17 135.162 199.368 135.072L199.17 133.956C199.008 133.992 198.936 133.992 198.846 133.992C198.63 133.992 198.432 133.812 198.432 133.344V122.184H196.956V133.236C196.956 134.514 197.406 135.216 198.522 135.216ZM204.89 135.216C206.96 135.216 208.094 134.028 208.094 132.606C208.094 130.95 206.69 130.428 205.43 129.96C204.44 129.582 203.486 129.276 203.486 128.448C203.486 127.782 203.99 127.188 205.088 127.188C205.862 127.188 206.492 127.512 207.086 127.962L207.788 127.026C207.122 126.486 206.168 126.036 205.07 126.036C203.18 126.036 202.064 127.116 202.064 128.52C202.064 129.996 203.432 130.59 204.674 131.04C205.628 131.4 206.672 131.796 206.672 132.696C206.672 133.452 206.096 134.064 204.944 134.064C203.9 134.064 203.126 133.632 202.37 133.02L201.632 134.01C202.46 134.694 203.648 135.216 204.89 135.216Z" fill="#7E7E7E"/>
<rect y="159" width="201" height="38" rx="19" fill="#D4D4D4"/>
<path d="M28.6378 185H35.2978V183.722H30.1318V173.192H28.6378V185ZM41.4987 185.216C43.6407 185.216 45.5487 183.542 45.5487 180.644C45.5487 177.71 43.6407 176.036 41.4987 176.036C39.3567 176.036 37.4487 177.71 37.4487 180.644C37.4487 183.542 39.3567 185.216 41.4987 185.216ZM41.4987 183.992C40.0047 183.992 38.9787 182.642 38.9787 180.644C38.9787 178.628 40.0047 177.26 41.4987 177.26C43.0107 177.26 44.0187 178.628 44.0187 180.644C44.0187 182.642 43.0107 183.992 41.4987 183.992ZM51.8646 189.032C54.5826 189.032 56.2926 187.628 56.2926 186.008C56.2926 184.55 55.2666 183.92 53.2326 183.92H51.5406C50.3526 183.92 49.9926 183.524 49.9926 182.966C49.9926 182.48 50.2446 182.192 50.5506 181.922C50.9466 182.12 51.4326 182.228 51.8646 182.228C53.6466 182.228 55.0686 181.058 55.0686 179.186C55.0686 178.448 54.7626 177.782 54.3486 177.386H56.1486V176.252H53.1066C52.7826 176.126 52.3506 176.036 51.8646 176.036C50.0826 176.036 48.5706 177.242 48.5706 179.15C48.5706 180.194 49.1286 181.04 49.7046 181.508V181.58C49.2546 181.886 48.7506 182.462 48.7506 183.2C48.7506 183.884 49.0926 184.352 49.5246 184.622V184.694C48.7326 185.234 48.2466 185.936 48.2466 186.674C48.2466 188.186 49.7226 189.032 51.8646 189.032ZM51.8646 181.238C50.8566 181.238 50.0106 180.428 50.0106 179.15C50.0106 177.872 50.8386 177.116 51.8646 177.116C52.8906 177.116 53.7186 177.872 53.7186 179.15C53.7186 180.428 52.8726 181.238 51.8646 181.238ZM52.0806 188.006C50.4966 188.006 49.5426 187.412 49.5426 186.476C49.5426 185.972 49.8126 185.45 50.4426 185C50.8206 185.108 51.2346 185.144 51.5766 185.144H53.0886C54.2226 185.144 54.8526 185.414 54.8526 186.224C54.8526 187.142 53.7546 188.006 52.0806 188.006ZM59.0429 185H60.5189V176.252H59.0429V185ZM59.7989 174.452C60.3749 174.452 60.8249 174.056 60.8249 173.498C60.8249 172.922 60.3749 172.544 59.7989 172.544C59.2229 172.544 58.7729 172.922 58.7729 173.498C58.7729 174.056 59.2229 174.452 59.7989 174.452ZM67.9886 185.216C69.0326 185.216 70.0226 184.802 70.8146 184.1L70.1666 183.11C69.6266 183.596 68.9246 183.992 68.1146 183.992C66.5126 183.992 65.4146 182.642 65.4146 180.644C65.4146 178.628 66.5666 177.26 68.1506 177.26C68.8526 177.26 69.3926 177.584 69.8966 178.034L70.6526 177.062C70.0406 176.504 69.2486 176.036 68.0966 176.036C65.8466 176.036 63.8846 177.71 63.8846 180.644C63.8846 183.542 65.6666 185.216 67.9886 185.216ZM75.6418 185.216C76.7398 185.216 77.7118 184.64 78.5398 183.956H78.5938L78.7198 185H79.9438V179.636C79.9438 177.458 79.0438 176.036 76.9018 176.036C75.4978 176.036 74.2738 176.648 73.4638 177.17L74.0398 178.196C74.7238 177.728 75.6418 177.26 76.6498 177.26C78.0898 177.26 78.4498 178.34 78.4498 179.456C74.7238 179.87 73.0858 180.824 73.0858 182.732C73.0858 184.298 74.1838 185.216 75.6418 185.216ZM76.0738 184.028C75.2098 184.028 74.5258 183.614 74.5258 182.624C74.5258 181.508 75.5338 180.788 78.4498 180.428V182.858C77.6038 183.614 76.9198 184.028 76.0738 184.028ZM85.3221 185.216C85.7181 185.216 85.9701 185.162 86.1681 185.072L85.9701 183.956C85.8081 183.992 85.7361 183.992 85.6461 183.992C85.4301 183.992 85.2321 183.812 85.2321 183.344V172.184H83.7561V183.236C83.7561 184.514 84.2061 185.216 85.3221 185.216ZM96.6595 185H98.1715V174.452H101.736V173.192H93.0955V174.452H96.6595V185ZM104.778 185H106.254V178.664C107.136 177.782 107.748 177.314 108.648 177.314C109.8 177.314 110.304 178.016 110.304 179.654V185H111.78V179.456C111.78 177.224 110.952 176.036 109.116 176.036C107.91 176.036 107.028 176.684 106.2 177.476L106.254 175.676V172.184H104.778V185ZM115.629 185H117.105V176.252H115.629V185ZM116.385 174.452C116.961 174.452 117.411 174.056 117.411 173.498C117.411 172.922 116.961 172.544 116.385 172.544C115.809 172.544 115.359 172.922 115.359 173.498C115.359 174.056 115.809 174.452 116.385 174.452ZM121.119 185H122.595V178.664C123.477 177.782 124.089 177.314 124.989 177.314C126.141 177.314 126.645 178.016 126.645 179.654V185H128.121V179.456C128.121 177.224 127.293 176.036 125.457 176.036C124.251 176.036 123.351 176.684 122.523 177.512H122.469L122.343 176.252H121.119V185ZM132.022 185H133.48V182.696L135.118 180.788L137.674 185H139.294L135.964 179.762L138.898 176.252H137.26L133.534 180.86H133.48V172.184H132.022V185ZM141.994 185H143.47V176.252H141.994V185ZM142.75 174.452C143.326 174.452 143.776 174.056 143.776 173.498C143.776 172.922 143.326 172.544 142.75 172.544C142.174 172.544 141.724 172.922 141.724 173.498C141.724 174.056 142.174 174.452 142.75 174.452ZM147.484 185H148.96V178.664C149.842 177.782 150.454 177.314 151.354 177.314C152.506 177.314 153.01 178.016 153.01 179.654V185H154.486V179.456C154.486 177.224 153.658 176.036 151.822 176.036C150.616 176.036 149.716 176.684 148.888 177.512H148.834L148.708 176.252H147.484V185ZM161.34 189.032C164.058 189.032 165.768 187.628 165.768 186.008C165.768 184.55 164.742 183.92 162.708 183.92H161.016C159.828 183.92 159.468 183.524 159.468 182.966C159.468 182.48 159.72 182.192 160.026 181.922C160.422 182.12 160.908 182.228 161.34 182.228C163.122 182.228 164.544 181.058 164.544 179.186C164.544 178.448 164.238 177.782 163.824 177.386H165.624V176.252H162.582C162.258 176.126 161.826 176.036 161.34 176.036C159.558 176.036 158.046 177.242 158.046 179.15C158.046 180.194 158.604 181.04 159.18 181.508V181.58C158.73 181.886 158.226 182.462 158.226 183.2C158.226 183.884 158.568 184.352 159 184.622V184.694C158.208 185.234 157.722 185.936 157.722 186.674C157.722 188.186 159.198 189.032 161.34 189.032ZM161.34 181.238C160.332 181.238 159.486 180.428 159.486 179.15C159.486 177.872 160.314 177.116 161.34 177.116C162.366 177.116 163.194 177.872 163.194 179.15C163.194 180.428 162.348 181.238 161.34 181.238ZM161.556 188.006C159.972 188.006 159.018 187.412 159.018 186.476C159.018 185.972 159.288 185.45 159.918 185C160.296 185.108 160.71 185.144 161.052 185.144H162.564C163.698 185.144 164.328 185.414 164.328 186.224C164.328 187.142 163.23 188.006 161.556 188.006Z" fill="#7E7E7E"/>
<rect y="257" width="135" height="38" rx="19" fill="#D8D8D8"/>
<path d="M32.3453 283.216C33.8752 283.216 35.0272 282.586 35.9633 281.506L35.1353 280.57C34.3793 281.398 33.5332 281.902 32.3992 281.902C30.1672 281.902 28.7452 280.03 28.7452 277.06C28.7452 274.126 30.2212 272.29 32.4532 272.29C33.4612 272.29 34.2352 272.74 34.8652 273.406L35.6752 272.434C34.9912 271.66 33.8752 270.976 32.4352 270.976C29.4292 270.976 27.1972 273.298 27.1972 277.096C27.1972 280.948 29.3932 283.216 32.3453 283.216ZM39.0805 283H40.5565V277.384C41.1505 275.908 42.0325 275.368 42.7705 275.368C43.1305 275.368 43.3285 275.422 43.6165 275.512L43.9045 274.216C43.6165 274.09 43.3465 274.036 42.9685 274.036C41.9785 274.036 41.0785 274.738 40.4845 275.836H40.4305L40.3045 274.252H39.0805V283ZM49.7509 283.216C50.9389 283.216 51.8749 282.802 52.6309 282.316L52.1089 281.344C51.4609 281.758 50.7589 282.028 49.9309 282.028C48.2569 282.028 47.1229 280.84 47.0149 278.986H52.9189C52.9549 278.77 52.9729 278.446 52.9729 278.14C52.9729 275.638 51.7129 274.036 49.4809 274.036C47.4829 274.036 45.5569 275.782 45.5569 278.644C45.5569 281.506 47.4109 283.216 49.7509 283.216ZM46.9969 277.924C47.1769 276.196 48.2929 275.206 49.5169 275.206C50.8849 275.206 51.6769 276.16 51.6769 277.924H46.9969ZM57.9645 283.216C59.0625 283.216 60.0345 282.64 60.8625 281.956H60.9165L61.0425 283H62.2665V277.636C62.2665 275.458 61.3665 274.036 59.2245 274.036C57.8205 274.036 56.5965 274.648 55.7865 275.17L56.3625 276.196C57.0465 275.728 57.9645 275.26 58.9725 275.26C60.4125 275.26 60.7725 276.34 60.7725 277.456C57.0465 277.87 55.4085 278.824 55.4085 280.732C55.4085 282.298 56.5065 283.216 57.9645 283.216ZM58.3965 282.028C57.5325 282.028 56.8485 281.614 56.8485 280.624C56.8485 279.508 57.8565 278.788 60.7725 278.428V280.858C59.9265 281.614 59.2425 282.028 58.3965 282.028ZM68.5867 283.216C69.1267 283.216 69.7207 283.054 70.2067 282.892L69.9187 281.776C69.6307 281.884 69.2347 282.01 68.9287 282.01C67.9207 282.01 67.5787 281.398 67.5787 280.318V275.458H69.9367V274.252H67.5787V271.804H66.3367L66.1567 274.252L64.7887 274.342V275.458H66.0847V280.3C66.0847 282.028 66.7147 283.216 68.5867 283.216ZM72.9747 283H74.4507V274.252H72.9747V283ZM73.7307 272.452C74.3067 272.452 74.7567 272.056 74.7567 271.498C74.7567 270.922 74.3067 270.544 73.7307 270.544C73.1547 270.544 72.7047 270.922 72.7047 271.498C72.7047 272.056 73.1547 272.452 73.7307 272.452ZM80.3544 283H82.0824L85.1784 274.252H83.7204L82.0644 279.22C81.8124 280.084 81.5244 280.966 81.2724 281.794H81.2004C80.9304 280.966 80.6424 280.084 80.3904 279.22L78.7344 274.252H77.2044L80.3544 283ZM91.4025 283.216C92.5905 283.216 93.5265 282.802 94.2825 282.316L93.7605 281.344C93.1125 281.758 92.4105 282.028 91.5825 282.028C89.9085 282.028 88.7745 280.84 88.6665 278.986H94.5705C94.6065 278.77 94.6245 278.446 94.6245 278.14C94.6245 275.638 93.3645 274.036 91.1325 274.036C89.1345 274.036 87.2085 275.782 87.2085 278.644C87.2085 281.506 89.0625 283.216 91.4025 283.216ZM88.6485 277.924C88.8285 276.196 89.9445 275.206 91.1685 275.206C92.5365 275.206 93.3285 276.16 93.3285 277.924H88.6485ZM100.424 283.216C100.964 283.216 101.558 283.054 102.044 282.892L101.756 281.776C101.468 281.884 101.072 282.01 100.766 282.01C99.7584 282.01 99.4164 281.398 99.4164 280.318V275.458H101.774V274.252H99.4164V271.804H98.1744L97.9944 274.252L96.6264 274.342V275.458H97.9224V280.3C97.9224 282.028 98.5524 283.216 100.424 283.216ZM104.956 286.762C106.72 286.762 107.62 285.448 108.232 283.72L111.526 274.252H110.086L108.52 279.094C108.286 279.868 108.034 280.768 107.782 281.56H107.71C107.44 280.75 107.134 279.85 106.864 279.094L105.082 274.252H103.552L107.062 283.018L106.864 283.666C106.504 284.746 105.874 285.538 104.884 285.538C104.668 285.538 104.398 285.466 104.218 285.412L103.93 286.582C104.218 286.69 104.56 286.762 104.956 286.762Z" fill="#787878"/>
<rect y="208" width="167" height="38" rx="19" fill="#D8D8D8"/>
<path d="M32.3607 234.216C33.8907 234.216 35.0427 233.586 35.9787 232.506L35.1507 231.57C34.3947 232.398 33.5487 232.902 32.4147 232.902C30.1827 232.902 28.7607 231.03 28.7607 228.06C28.7607 225.126 30.2367 223.29 32.4687 223.29C33.4767 223.29 34.2507 223.74 34.8807 224.406L35.6907 223.434C35.0067 222.66 33.8907 221.976 32.4507 221.976C29.4447 221.976 27.2127 224.298 27.2127 228.096C27.2127 231.948 29.4087 234.216 32.3607 234.216ZM42.4979 234.216C44.6399 234.216 46.5479 232.542 46.5479 229.644C46.5479 226.71 44.6399 225.036 42.4979 225.036C40.3559 225.036 38.4479 226.71 38.4479 229.644C38.4479 232.542 40.3559 234.216 42.4979 234.216ZM42.4979 232.992C41.0039 232.992 39.9779 231.642 39.9779 229.644C39.9779 227.628 41.0039 226.26 42.4979 226.26C44.0099 226.26 45.0179 227.628 45.0179 229.644C45.0179 231.642 44.0099 232.992 42.4979 232.992ZM51.4778 234.216C51.8738 234.216 52.1258 234.162 52.3238 234.072L52.1258 232.956C51.9638 232.992 51.8918 232.992 51.8018 232.992C51.5858 232.992 51.3878 232.812 51.3878 232.344V221.184H49.9118V232.236C49.9118 233.514 50.3618 234.216 51.4778 234.216ZM57.1257 234.216C57.5217 234.216 57.7737 234.162 57.9717 234.072L57.7737 232.956C57.6117 232.992 57.5397 232.992 57.4497 232.992C57.2337 232.992 57.0357 232.812 57.0357 232.344V221.184H55.5597V232.236C55.5597 233.514 56.0097 234.216 57.1257 234.216ZM63.2236 234.216C64.3216 234.216 65.2936 233.64 66.1216 232.956H66.1756L66.3016 234H67.5256V228.636C67.5256 226.458 66.6256 225.036 64.4836 225.036C63.0796 225.036 61.8556 225.648 61.0456 226.17L61.6216 227.196C62.3056 226.728 63.2236 226.26 64.2316 226.26C65.6716 226.26 66.0316 227.34 66.0316 228.456C62.3056 228.87 60.6676 229.824 60.6676 231.732C60.6676 233.298 61.7656 234.216 63.2236 234.216ZM63.6556 233.028C62.7916 233.028 62.1076 232.614 62.1076 231.624C62.1076 230.508 63.1156 229.788 66.0316 229.428V231.858C65.1856 232.614 64.5016 233.028 63.6556 233.028ZM75.2079 234.216C77.2059 234.216 78.9879 232.47 78.9879 229.482C78.9879 226.782 77.7819 225.036 75.5139 225.036C74.5419 225.036 73.5699 225.558 72.7779 226.26L72.8139 224.676V221.184H71.3379V234H72.5259L72.6519 233.1H72.7059C73.4799 233.802 74.3979 234.216 75.2079 234.216ZM74.9559 232.974C74.3799 232.974 73.5879 232.722 72.8139 232.056V227.466C73.6419 226.692 74.4159 226.278 75.1539 226.278C76.8099 226.278 77.4579 227.574 77.4579 229.5C77.4579 231.66 76.3959 232.974 74.9559 232.974ZM85.7491 234.216C87.8911 234.216 89.7991 232.542 89.7991 229.644C89.7991 226.71 87.8911 225.036 85.7491 225.036C83.6071 225.036 81.6991 226.71 81.6991 229.644C81.6991 232.542 83.6071 234.216 85.7491 234.216ZM85.7491 232.992C84.2551 232.992 83.2291 231.642 83.2291 229.644C83.2291 227.628 84.2551 226.26 85.7491 226.26C87.2611 226.26 88.2691 227.628 88.2691 229.644C88.2691 231.642 87.2611 232.992 85.7491 232.992ZM93.163 234H94.639V228.384C95.233 226.908 96.115 226.368 96.853 226.368C97.213 226.368 97.411 226.422 97.699 226.512L97.987 225.216C97.699 225.09 97.429 225.036 97.051 225.036C96.061 225.036 95.161 225.738 94.567 226.836H94.513L94.387 225.252H93.163V234ZM102.04 234.216C103.138 234.216 104.11 233.64 104.938 232.956H104.992L105.118 234H106.342V228.636C106.342 226.458 105.442 225.036 103.3 225.036C101.896 225.036 100.672 225.648 99.8617 226.17L100.438 227.196C101.122 226.728 102.04 226.26 103.048 226.26C104.488 226.26 104.848 227.34 104.848 228.456C101.122 228.87 99.4837 229.824 99.4837 231.732C99.4837 233.298 100.582 234.216 102.04 234.216ZM102.472 233.028C101.608 233.028 100.924 232.614 100.924 231.624C100.924 230.508 101.932 229.788 104.848 229.428V231.858C104.002 232.614 103.318 233.028 102.472 233.028ZM112.662 234.216C113.202 234.216 113.796 234.054 114.282 233.892L113.994 232.776C113.706 232.884 113.31 233.01 113.004 233.01C111.996 233.01 111.654 232.398 111.654 231.318V226.458H114.012V225.252H111.654V222.804H110.412L110.232 225.252L108.864 225.342V226.458H110.16V231.3C110.16 233.028 110.79 234.216 112.662 234.216ZM117.05 234H118.526V225.252H117.05V234ZM117.806 223.452C118.382 223.452 118.832 223.056 118.832 222.498C118.832 221.922 118.382 221.544 117.806 221.544C117.23 221.544 116.78 221.922 116.78 222.498C116.78 223.056 117.23 223.452 117.806 223.452ZM125.942 234.216C128.084 234.216 129.992 232.542 129.992 229.644C129.992 226.71 128.084 225.036 125.942 225.036C123.8 225.036 121.892 226.71 121.892 229.644C121.892 232.542 123.8 234.216 125.942 234.216ZM125.942 232.992C124.448 232.992 123.422 231.642 123.422 229.644C123.422 227.628 124.448 226.26 125.942 226.26C127.454 226.26 128.462 227.628 128.462 229.644C128.462 231.642 127.454 232.992 125.942 232.992ZM133.356 234H134.832V227.664C135.714 226.782 136.326 226.314 137.226 226.314C138.378 226.314 138.882 227.016 138.882 228.654V234H140.358V228.456C140.358 226.224 139.53 225.036 137.694 225.036C136.488 225.036 135.588 225.684 134.76 226.512H134.706L134.58 225.252H133.356V234Z" fill="#787878"/>
<rect y="306" width="252" height="38" rx="19" fill="#E7E7E7"/>
<path d="M28.6606 332H30.1546V327.32H32.0986C34.6906 327.32 36.4546 326.15 36.4546 323.666C36.4546 321.074 34.6726 320.192 32.0266 320.192H28.6606V332ZM30.1546 326.096V321.398H31.8466C33.9166 321.398 34.9606 321.956 34.9606 323.666C34.9606 325.34 33.9706 326.096 31.9186 326.096H30.1546ZM41.0145 332.216C42.1125 332.216 43.0845 331.64 43.9125 330.956H43.9665L44.0925 332H45.3165V326.636C45.3165 324.458 44.4165 323.036 42.2745 323.036C40.8705 323.036 39.6465 323.648 38.8365 324.17L39.4125 325.196C40.0965 324.728 41.0145 324.26 42.0225 324.26C43.4625 324.26 43.8225 325.34 43.8225 326.456C40.0965 326.87 38.4585 327.824 38.4585 329.732C38.4585 331.298 39.5565 332.216 41.0145 332.216ZM41.4465 331.028C40.5825 331.028 39.8985 330.614 39.8985 329.624C39.8985 328.508 40.9065 327.788 43.8225 327.428V329.858C42.9765 330.614 42.2925 331.028 41.4465 331.028ZM51.6367 332.216C52.1767 332.216 52.7707 332.054 53.2567 331.892L52.9687 330.776C52.6807 330.884 52.2847 331.01 51.9787 331.01C50.9707 331.01 50.6287 330.398 50.6287 329.318V324.458H52.9867V323.252H50.6287V320.804H49.3867L49.2067 323.252L47.8387 323.342V324.458H49.1347V329.3C49.1347 331.028 49.7647 332.216 51.6367 332.216ZM56.0248 332H57.5008V323.252H56.0248V332ZM56.7808 321.452C57.3568 321.452 57.8068 321.056 57.8068 320.498C57.8068 319.922 57.3568 319.544 56.7808 319.544C56.2048 319.544 55.7548 319.922 55.7548 320.498C55.7548 321.056 56.2048 321.452 56.7808 321.452ZM65.0604 332.216C66.2484 332.216 67.1844 331.802 67.9404 331.316L67.4184 330.344C66.7704 330.758 66.0684 331.028 65.2404 331.028C63.5664 331.028 62.4324 329.84 62.3244 327.986H68.2284C68.2644 327.77 68.2824 327.446 68.2824 327.14C68.2824 324.638 67.0224 323.036 64.7904 323.036C62.7924 323.036 60.8664 324.782 60.8664 327.644C60.8664 330.506 62.7204 332.216 65.0604 332.216ZM62.3064 326.924C62.4864 325.196 63.6024 324.206 64.8264 324.206C66.1944 324.206 66.9864 325.16 66.9864 326.924H62.3064ZM71.5041 332H72.9801V325.664C73.8621 324.782 74.4741 324.314 75.3741 324.314C76.5261 324.314 77.0301 325.016 77.0301 326.654V332H78.5061V326.456C78.5061 324.224 77.6781 323.036 75.8421 323.036C74.6361 323.036 73.7361 323.684 72.9081 324.512H72.8541L72.7281 323.252H71.5041V332ZM85.8639 332.216C86.9079 332.216 87.8979 331.802 88.6899 331.1L88.0419 330.11C87.5019 330.596 86.7999 330.992 85.9899 330.992C84.3879 330.992 83.2899 329.642 83.2899 327.644C83.2899 325.628 84.4419 324.26 86.0259 324.26C86.7279 324.26 87.2679 324.584 87.7719 325.034L88.5279 324.062C87.9159 323.504 87.1239 323.036 85.9719 323.036C83.7219 323.036 81.7599 324.71 81.7599 327.644C81.7599 330.542 83.5419 332.216 85.8639 332.216ZM94.8361 332.216C96.0241 332.216 96.9601 331.802 97.7161 331.316L97.1941 330.344C96.5461 330.758 95.8441 331.028 95.0161 331.028C93.3421 331.028 92.2081 329.84 92.1001 327.986H98.0041C98.0401 327.77 98.0581 327.446 98.0581 327.14C98.0581 324.638 96.7981 323.036 94.5661 323.036C92.5681 323.036 90.6421 324.782 90.6421 327.644C90.6421 330.506 92.4961 332.216 94.8361 332.216ZM92.0821 326.924C92.2621 325.196 93.3781 324.206 94.6021 324.206C95.9701 324.206 96.7621 325.16 96.7621 326.924H92.0821ZM99.9838 334.88H101.064L105.87 319.22H104.79L99.9838 334.88ZM108.777 332H110.271V327.32H112.215C114.807 327.32 116.571 326.15 116.571 323.666C116.571 321.074 114.789 320.192 112.143 320.192H108.777V332ZM110.271 326.096V321.398H111.963C114.033 321.398 115.077 321.956 115.077 323.666C115.077 325.34 114.087 326.096 112.035 326.096H110.271ZM122.995 332.216C124.183 332.216 125.119 331.802 125.875 331.316L125.353 330.344C124.705 330.758 124.003 331.028 123.175 331.028C121.501 331.028 120.367 329.84 120.259 327.986H126.163C126.199 327.77 126.217 327.446 126.217 327.14C126.217 324.638 124.957 323.036 122.725 323.036C120.727 323.036 118.801 324.782 118.801 327.644C118.801 330.506 120.655 332.216 122.995 332.216ZM120.241 326.924C120.421 325.196 121.537 324.206 122.761 324.206C124.129 324.206 124.921 325.16 124.921 326.924H120.241ZM129.438 332H130.914V326.384C131.508 324.908 132.39 324.368 133.128 324.368C133.488 324.368 133.686 324.422 133.974 324.512L134.262 323.216C133.974 323.09 133.704 323.036 133.326 323.036C132.336 323.036 131.436 323.738 130.842 324.836H130.788L130.662 323.252H129.438V332ZM138.954 332.216C141.024 332.216 142.158 331.028 142.158 329.606C142.158 327.95 140.754 327.428 139.494 326.96C138.504 326.582 137.55 326.276 137.55 325.448C137.55 324.782 138.054 324.188 139.152 324.188C139.926 324.188 140.556 324.512 141.15 324.962L141.852 324.026C141.186 323.486 140.232 323.036 139.134 323.036C137.244 323.036 136.128 324.116 136.128 325.52C136.128 326.996 137.496 327.59 138.738 328.04C139.692 328.4 140.736 328.796 140.736 329.696C140.736 330.452 140.16 331.064 139.008 331.064C137.964 331.064 137.19 330.632 136.434 330.02L135.696 331.01C136.524 331.694 137.712 332.216 138.954 332.216ZM148.815 332.216C150.003 332.216 150.939 331.802 151.695 331.316L151.173 330.344C150.525 330.758 149.823 331.028 148.995 331.028C147.321 331.028 146.187 329.84 146.079 327.986H151.983C152.019 327.77 152.037 327.446 152.037 327.14C152.037 324.638 150.777 323.036 148.545 323.036C146.547 323.036 144.621 324.782 144.621 327.644C144.621 330.506 146.475 332.216 148.815 332.216ZM146.061 326.924C146.241 325.196 147.357 324.206 148.581 324.206C149.949 324.206 150.741 325.16 150.741 326.924H146.061ZM157.237 332H158.965L162.061 323.252H160.603L158.947 328.22C158.695 329.084 158.407 329.966 158.155 330.794H158.083C157.813 329.966 157.525 329.084 157.273 328.22L155.617 323.252H154.087L157.237 332ZM168.285 332.216C169.473 332.216 170.409 331.802 171.165 331.316L170.643 330.344C169.995 330.758 169.293 331.028 168.465 331.028C166.791 331.028 165.657 329.84 165.549 327.986H171.453C171.489 327.77 171.507 327.446 171.507 327.14C171.507 324.638 170.247 323.036 168.015 323.036C166.017 323.036 164.091 324.782 164.091 327.644C164.091 330.506 165.945 332.216 168.285 332.216ZM165.531 326.924C165.711 325.196 166.827 324.206 168.051 324.206C169.419 324.206 170.211 325.16 170.211 326.924H165.531ZM174.729 332H176.205V326.384C176.799 324.908 177.681 324.368 178.419 324.368C178.779 324.368 178.977 324.422 179.265 324.512L179.553 323.216C179.265 323.09 178.995 323.036 178.617 323.036C177.627 323.036 176.727 323.738 176.133 324.836H176.079L175.953 323.252H174.729V332ZM183.605 332.216C184.703 332.216 185.675 331.64 186.503 330.956H186.557L186.683 332H187.907V326.636C187.907 324.458 187.007 323.036 184.865 323.036C183.461 323.036 182.237 323.648 181.427 324.17L182.003 325.196C182.687 324.728 183.605 324.26 184.613 324.26C186.053 324.26 186.413 325.34 186.413 326.456C182.687 326.87 181.049 327.824 181.049 329.732C181.049 331.298 182.147 332.216 183.605 332.216ZM184.037 331.028C183.173 331.028 182.489 330.614 182.489 329.624C182.489 328.508 183.497 327.788 186.413 327.428V329.858C185.567 330.614 184.883 331.028 184.037 331.028ZM191.72 332H193.196V325.664C194.078 324.782 194.69 324.314 195.59 324.314C196.742 324.314 197.246 325.016 197.246 326.654V332H198.722V326.456C198.722 324.224 197.894 323.036 196.058 323.036C194.852 323.036 193.952 323.684 193.124 324.512H193.07L192.944 323.252H191.72V332ZM206.079 332.216C207.123 332.216 208.113 331.802 208.905 331.1L208.257 330.11C207.717 330.596 207.015 330.992 206.205 330.992C204.603 330.992 203.505 329.642 203.505 327.644C203.505 325.628 204.657 324.26 206.241 324.26C206.943 324.26 207.483 324.584 207.987 325.034L208.743 324.062C208.131 323.504 207.339 323.036 206.187 323.036C203.937 323.036 201.975 324.71 201.975 327.644C201.975 330.542 203.757 332.216 206.079 332.216ZM215.052 332.216C216.24 332.216 217.176 331.802 217.932 331.316L217.41 330.344C216.762 330.758 216.06 331.028 215.232 331.028C213.558 331.028 212.424 329.84 212.316 327.986H218.22C218.256 327.77 218.274 327.446 218.274 327.14C218.274 324.638 217.014 323.036 214.782 323.036C212.784 323.036 210.858 324.782 210.858 327.644C210.858 330.506 212.712 332.216 215.052 332.216ZM212.298 326.924C212.478 325.196 213.594 324.206 214.818 324.206C216.186 324.206 216.978 325.16 216.978 326.924H212.298Z" fill="#787878"/>
<rect y="355" width="209" height="38" rx="19" fill="#E7E7E7"/>
<path d="M32.4536 381.216C33.9836 381.216 35.1356 380.586 36.0716 379.506L35.2436 378.57C34.4876 379.398 33.6416 379.902 32.5076 379.902C30.2756 379.902 28.8536 378.03 28.8536 375.06C28.8536 372.126 30.3296 370.29 32.5616 370.29C33.5696 370.29 34.3436 370.74 34.9736 371.406L35.7836 370.434C35.0996 369.66 33.9836 368.976 32.5436 368.976C29.5376 368.976 27.3056 371.298 27.3056 375.096C27.3056 378.948 29.5016 381.216 32.4536 381.216ZM41.569 381.216C42.775 381.216 43.639 380.586 44.449 379.632H44.503L44.629 381H45.853V372.252H44.377V378.462C43.549 379.488 42.919 379.938 42.019 379.938C40.867 379.938 40.381 379.236 40.381 377.598V372.252H38.887V377.796C38.887 380.028 39.715 381.216 41.569 381.216ZM52.6181 381.216C53.1581 381.216 53.7521 381.054 54.2381 380.892L53.9501 379.776C53.6621 379.884 53.2661 380.01 52.9601 380.01C51.9521 380.01 51.6101 379.398 51.6101 378.318V373.458H53.9681V372.252H51.6101V369.804H50.3681L50.1881 372.252L48.8201 372.342V373.458H50.1161V378.3C50.1161 380.028 50.7461 381.216 52.6181 381.216ZM59.4085 381.216C59.9485 381.216 60.5425 381.054 61.0285 380.892L60.7405 379.776C60.4525 379.884 60.0565 380.01 59.7505 380.01C58.7425 380.01 58.4005 379.398 58.4005 378.318V373.458H60.7585V372.252H58.4005V369.804H57.1585L56.9785 372.252L55.6105 372.342V373.458H56.9065V378.3C56.9065 380.028 57.5365 381.216 59.4085 381.216ZM63.7965 381H65.2725V372.252H63.7965V381ZM64.5525 370.452C65.1285 370.452 65.5785 370.056 65.5785 369.498C65.5785 368.922 65.1285 368.544 64.5525 368.544C63.9765 368.544 63.5265 368.922 63.5265 369.498C63.5265 370.056 63.9765 370.452 64.5525 370.452ZM69.2862 381H70.7622V374.664C71.6442 373.782 72.2562 373.314 73.1562 373.314C74.3082 373.314 74.8122 374.016 74.8122 375.654V381H76.2882V375.456C76.2882 373.224 75.4602 372.036 73.6242 372.036C72.4182 372.036 71.5182 372.684 70.6902 373.512H70.6362L70.5102 372.252H69.2862V381ZM83.142 385.032C85.86 385.032 87.57 383.628 87.57 382.008C87.57 380.55 86.544 379.92 84.51 379.92H82.818C81.63 379.92 81.27 379.524 81.27 378.966C81.27 378.48 81.522 378.192 81.828 377.922C82.224 378.12 82.71 378.228 83.142 378.228C84.924 378.228 86.346 377.058 86.346 375.186C86.346 374.448 86.04 373.782 85.626 373.386H87.426V372.252H84.384C84.06 372.126 83.628 372.036 83.142 372.036C81.36 372.036 79.848 373.242 79.848 375.15C79.848 376.194 80.406 377.04 80.982 377.508V377.58C80.532 377.886 80.028 378.462 80.028 379.2C80.028 379.884 80.37 380.352 80.802 380.622V380.694C80.01 381.234 79.524 381.936 79.524 382.674C79.524 384.186 81 385.032 83.142 385.032ZM83.142 377.238C82.134 377.238 81.288 376.428 81.288 375.15C81.288 373.872 82.116 373.116 83.142 373.116C84.168 373.116 84.996 373.872 84.996 375.15C84.996 376.428 84.15 377.238 83.142 377.238ZM83.358 384.006C81.774 384.006 80.82 383.412 80.82 382.476C80.82 381.972 81.09 381.45 81.72 381C82.098 381.108 82.512 381.144 82.854 381.144H84.366C85.5 381.144 86.13 381.414 86.13 382.224C86.13 383.142 85.032 384.006 83.358 384.006ZM89.5823 377.058H93.7223V375.924H89.5823V377.058ZM100.516 381.216C101.704 381.216 102.64 380.802 103.396 380.316L102.874 379.344C102.226 379.758 101.524 380.028 100.696 380.028C99.0221 380.028 97.8881 378.84 97.7801 376.986H103.684C103.72 376.77 103.738 376.446 103.738 376.14C103.738 373.638 102.478 372.036 100.246 372.036C98.2481 372.036 96.3221 373.782 96.3221 376.644C96.3221 379.506 98.1761 381.216 100.516 381.216ZM97.7621 375.924C97.9421 374.196 99.0581 373.206 100.282 373.206C101.65 373.206 102.442 374.16 102.442 375.924H97.7621ZM109.948 381.216C110.974 381.216 111.91 380.64 112.594 379.974H112.648L112.774 381H113.998V368.184H112.504V371.55L112.576 373.044C111.802 372.414 111.136 372.036 110.128 372.036C108.13 372.036 106.33 373.8 106.33 376.644C106.33 379.56 107.752 381.216 109.948 381.216ZM110.272 379.974C108.742 379.974 107.86 378.714 107.86 376.626C107.86 374.628 108.976 373.278 110.38 373.278C111.1 373.278 111.766 373.53 112.504 374.196V378.768C111.784 379.578 111.082 379.974 110.272 379.974ZM120.956 385.032C123.674 385.032 125.384 383.628 125.384 382.008C125.384 380.55 124.358 379.92 122.324 379.92H120.632C119.444 379.92 119.084 379.524 119.084 378.966C119.084 378.48 119.336 378.192 119.642 377.922C120.038 378.12 120.524 378.228 120.956 378.228C122.738 378.228 124.16 377.058 124.16 375.186C124.16 374.448 123.854 373.782 123.44 373.386H125.24V372.252H122.198C121.874 372.126 121.442 372.036 120.956 372.036C119.174 372.036 117.662 373.242 117.662 375.15C117.662 376.194 118.22 377.04 118.796 377.508V377.58C118.346 377.886 117.842 378.462 117.842 379.2C117.842 379.884 118.184 380.352 118.616 380.622V380.694C117.824 381.234 117.338 381.936 117.338 382.674C117.338 384.186 118.814 385.032 120.956 385.032ZM120.956 377.238C119.948 377.238 119.102 376.428 119.102 375.15C119.102 373.872 119.93 373.116 120.956 373.116C121.982 373.116 122.81 373.872 122.81 375.15C122.81 376.428 121.964 377.238 120.956 377.238ZM121.172 384.006C119.588 384.006 118.634 383.412 118.634 382.476C118.634 381.972 118.904 381.45 119.534 381C119.912 381.108 120.326 381.144 120.668 381.144H122.18C123.314 381.144 123.944 381.414 123.944 382.224C123.944 383.142 122.846 384.006 121.172 384.006ZM131.434 381.216C132.622 381.216 133.558 380.802 134.314 380.316L133.792 379.344C133.144 379.758 132.442 380.028 131.614 380.028C129.94 380.028 128.806 378.84 128.698 376.986H134.602C134.638 376.77 134.656 376.446 134.656 376.14C134.656 373.638 133.396 372.036 131.164 372.036C129.166 372.036 127.24 373.782 127.24 376.644C127.24 379.506 129.094 381.216 131.434 381.216ZM128.68 375.924C128.86 374.196 129.976 373.206 131.2 373.206C132.568 373.206 133.36 374.16 133.36 375.924H128.68ZM145.134 381H146.646V370.452H150.21V369.192H141.57V370.452H145.134V381ZM155.603 381.216C156.791 381.216 157.727 380.802 158.483 380.316L157.961 379.344C157.313 379.758 156.611 380.028 155.783 380.028C154.109 380.028 152.975 378.84 152.867 376.986H158.771C158.807 376.77 158.825 376.446 158.825 376.14C158.825 373.638 157.565 372.036 155.333 372.036C153.335 372.036 151.409 373.782 151.409 376.644C151.409 379.506 153.263 381.216 155.603 381.216ZM152.849 375.924C153.029 374.196 154.145 373.206 155.369 373.206C156.737 373.206 157.529 374.16 157.529 375.924H152.849ZM165.502 381.216C166.546 381.216 167.536 380.802 168.328 380.1L167.68 379.11C167.14 379.596 166.438 379.992 165.628 379.992C164.026 379.992 162.928 378.642 162.928 376.644C162.928 374.628 164.08 373.26 165.664 373.26C166.366 373.26 166.906 373.584 167.41 374.034L168.166 373.062C167.554 372.504 166.762 372.036 165.61 372.036C163.36 372.036 161.398 373.71 161.398 376.644C161.398 379.542 163.18 381.216 165.502 381.216ZM171.315 381H172.791V374.664C173.673 373.782 174.285 373.314 175.185 373.314C176.337 373.314 176.841 374.016 176.841 375.654V381H178.317V375.456C178.317 373.224 177.489 372.036 175.653 372.036C174.447 372.036 173.565 372.684 172.737 373.476L172.791 371.676V368.184H171.315V381Z" fill="#787878"/>
<path d="M30.7315 408.288C31.4995 408.288 32.1475 407.664 32.1475 406.8C32.1475 405.888 31.4995 405.264 30.7315 405.264C29.9395 405.264 29.2915 405.888 29.2915 406.8C29.2915 407.664 29.9395 408.288 30.7315 408.288ZM38.7715 408.288C39.5395 408.288 40.1875 407.664 40.1875 406.8C40.1875 405.888 39.5395 405.264 38.7715 405.264C37.9795 405.264 37.3315 405.888 37.3315 406.8C37.3315 407.664 37.9795 408.288 38.7715 408.288ZM46.8115 408.288C47.5795 408.288 48.2275 407.664 48.2275 406.8C48.2275 405.888 47.5795 405.264 46.8115 405.264C46.0195 405.264 45.3715 405.888 45.3715 406.8C45.3715 407.664 46.0195 408.288 46.8115 408.288ZM54.9027 408.288C55.6707 408.288 56.3187 407.664 56.3187 406.8C56.3187 405.888 55.6707 405.264 54.9027 405.264C54.1107 405.264 53.4627 405.888 53.4627 406.8C53.4627 407.664 54.1107 408.288 54.9027 408.288ZM62.9427 408.288C63.7107 408.288 64.3587 407.664 64.3587 406.8C64.3587 405.888 63.7107 405.264 62.9427 405.264C62.1507 405.264 61.5027 405.888 61.5027 406.8C61.5027 407.664 62.1507 408.288 62.9427 408.288ZM70.9827 408.288C71.7507 408.288 72.3987 407.664 72.3987 406.8C72.3987 405.888 71.7507 405.264 70.9827 405.264C70.1907 405.264 69.5427 405.888 69.5427 406.8C69.5427 407.664 70.1907 408.288 70.9827 408.288Z" fill="#787878"/>
</svg>
