<svg width="1118" height="314" viewBox="0 0 1118 314" fill="none" xmlns="http://www.w3.org/2000/svg">
<path d="M519.868 67.8677L528.868 50.1324L541.868 64.1854" stroke="#51BAA1" stroke-opacity="0.263467" stroke-width="5" stroke-linecap="round" stroke-linejoin="round"/>
<path d="M424.868 53.1323L415.868 70.8676L402.868 56.8146" stroke="#51BAA1" stroke-opacity="0.263467" stroke-width="5" stroke-linecap="round" stroke-linejoin="round"/>
<path fill-rule="evenodd" clip-rule="evenodd" d="M472.5 123C504.256 123 530 97.2564 530 65.5C530 33.7436 504.256 8 472.5 8C440.744 8 415 33.7436 415 65.5C415 97.2564 440.744 123 472.5 123Z" stroke="#51BAA1" stroke-opacity="0.263467" stroke-width="7"/>
<g clip-path="url(#clip0)">
<path fill-rule="evenodd" clip-rule="evenodd" d="M634.5 123C659.077 123 679 103.077 679 78.5C679 53.9233 659.077 34 634.5 34C609.923 34 590 53.9233 590 78.5C590 103.077 609.923 123 634.5 123Z" stroke="#51BAA1" stroke-opacity="0.263467" stroke-width="7"/>
<path d="M665.464 84.8214L678.223 69.5652L687.728 86.1824" stroke="#51BAA1" stroke-opacity="0.263467" stroke-width="5" stroke-linecap="round" stroke-linejoin="round"/>
<path d="M600.868 70.1323L591.868 87.8676L578.868 73.8146" stroke="#51BAA1" stroke-opacity="0.263467" stroke-width="5" stroke-linecap="round" stroke-linejoin="round"/>
<path d="M635.246 62.984C633.552 62.984 632.188 63.556 631.154 64.7C630.142 65.778 629.636 67.186 629.614 68.946H632.188C632.232 67.714 632.496 66.768 632.98 66.152C633.464 65.492 634.19 65.162 635.158 65.162C636.06 65.162 636.742 65.36 637.204 65.778C637.644 66.196 637.886 66.834 637.886 67.692C637.886 68.572 637.534 69.408 636.852 70.178C636.412 70.64 635.708 71.234 634.696 71.938C632.87 73.192 631.66 74.16 631.088 74.82C630.032 76.008 629.526 77.394 629.526 79H640.482V76.734H632.738C633.09 75.942 634.058 75.018 635.664 73.962C637.204 72.928 638.304 72.092 638.92 71.432C639.932 70.31 640.46 69.078 640.46 67.714C640.46 66.306 639.976 65.184 639.008 64.304C638.018 63.424 636.764 62.984 635.246 62.984Z" fill="#0F6C56"/>
<path d="M621.014 95H621.844V92.23H623.034L624.614 95H625.554L623.884 92.14C624.784 91.92 625.364 91.3 625.364 90.28C625.364 88.92 624.404 88.44 623.064 88.44H621.014V95ZM621.844 91.55V89.11H622.944C623.964 89.11 624.534 89.42 624.534 90.28C624.534 91.13 623.964 91.55 622.944 91.55H621.844ZM628.642 95.12C629.832 95.12 630.892 94.19 630.892 92.58C630.892 90.95 629.832 90.02 628.642 90.02C627.452 90.02 626.392 90.95 626.392 92.58C626.392 94.19 627.452 95.12 628.642 95.12ZM628.642 94.44C627.812 94.44 627.242 93.69 627.242 92.58C627.242 91.46 627.812 90.7 628.642 90.7C629.482 90.7 630.042 91.46 630.042 92.58C630.042 93.69 629.482 94.44 628.642 94.44ZM633.814 95.12C634.484 95.12 634.964 94.77 635.414 94.24H635.444L635.514 95H636.194V90.14H635.374V93.59C634.914 94.16 634.564 94.41 634.064 94.41C633.424 94.41 633.154 94.02 633.154 93.11V90.14H632.324V93.22C632.324 94.46 632.784 95.12 633.814 95.12ZM638.056 95H638.876V91.48C639.366 90.99 639.706 90.73 640.206 90.73C640.846 90.73 641.126 91.12 641.126 92.03V95H641.946V91.92C641.946 90.68 641.486 90.02 640.466 90.02C639.796 90.02 639.296 90.38 638.836 90.84H638.806L638.736 90.14H638.056V95ZM645.407 95.12C645.977 95.12 646.497 94.8 646.877 94.43H646.907L646.977 95H647.657V87.88H646.827V89.75L646.867 90.58C646.437 90.23 646.067 90.02 645.507 90.02C644.397 90.02 643.397 91 643.397 92.58C643.397 94.2 644.187 95.12 645.407 95.12ZM645.587 94.43C644.737 94.43 644.247 93.73 644.247 92.57C644.247 91.46 644.867 90.71 645.647 90.71C646.047 90.71 646.417 90.85 646.827 91.22V93.76C646.427 94.21 646.037 94.43 645.587 94.43ZM650.786 95.12C651.936 95.12 652.566 94.46 652.566 93.67C652.566 92.75 651.786 92.46 651.086 92.2C650.536 91.99 650.006 91.82 650.006 91.36C650.006 90.99 650.286 90.66 650.896 90.66C651.326 90.66 651.676 90.84 652.006 91.09L652.396 90.57C652.026 90.27 651.496 90.02 650.886 90.02C649.836 90.02 649.216 90.62 649.216 91.4C649.216 92.22 649.976 92.55 650.666 92.8C651.196 93 651.776 93.22 651.776 93.72C651.776 94.14 651.456 94.48 650.816 94.48C650.236 94.48 649.806 94.24 649.386 93.9L648.976 94.45C649.436 94.83 650.096 95.12 650.786 95.12Z" fill="#9D9D9D"/>
</g>
<path fill-rule="evenodd" clip-rule="evenodd" d="M396.5 133C401.194 133 405 129.194 405 124.5C405 119.806 401.194 116 396.5 116C391.806 116 388 119.806 388 124.5C388 129.194 391.806 133 396.5 133Z" fill="#51BAA1"/>
<path fill-rule="evenodd" clip-rule="evenodd" d="M228.5 133C233.194 133 237 129.194 237 124.5C237 119.806 233.194 116 228.5 116C223.806 116 220 119.806 220 124.5C220 129.194 223.806 133 228.5 133Z" fill="#51BAA1"/>
<path fill-rule="evenodd" clip-rule="evenodd" d="M61.5 133C66.1944 133 70 129.194 70 124.5C70 119.806 66.1944 116 61.5 116C56.8056 116 53 119.806 53 124.5C53 129.194 56.8056 133 61.5 133Z" fill="#51BAA1"/>
<path fill-rule="evenodd" clip-rule="evenodd" d="M563.5 133C568.194 133 572 129.194 572 124.5C572 119.806 568.194 116 563.5 116C558.806 116 555 119.806 555 124.5C555 129.194 558.806 133 563.5 133Z" fill="#51BAA1"/>
<path d="M19.0709 167H21.6229V161.368H23.8229L26.9249 167H29.7849L26.3529 160.994C28.0689 160.4 29.2129 159.08 29.2129 156.88C29.2129 153.668 26.9249 152.612 23.9329 152.612H19.0709V167ZM21.6229 159.344V154.658H23.6689C25.6269 154.658 26.7049 155.23 26.7049 156.88C26.7049 158.508 25.6269 159.344 23.6689 159.344H21.6229ZM36.7645 167.264C38.1285 167.264 39.4265 166.78 40.4605 166.098L39.6025 164.514C38.8105 165.02 38.0185 165.306 37.0945 165.306C35.3565 165.306 34.1245 164.206 33.9045 162.292H40.7685C40.8345 162.028 40.8785 161.544 40.8785 161.06C40.8785 158.046 39.3385 155.934 36.4125 155.934C33.8825 155.934 31.4405 158.09 31.4405 161.61C31.4405 165.174 33.7725 167.264 36.7645 167.264ZM33.8825 160.576C34.1025 158.838 35.2025 157.892 36.4785 157.892C37.9525 157.892 38.6785 158.904 38.6785 160.576H33.8825ZM46.7978 167.264C49.5258 167.264 50.9998 165.768 50.9998 163.92C50.9998 161.896 49.3718 161.192 47.8978 160.642C46.7318 160.224 45.6538 159.894 45.6538 159.036C45.6538 158.354 46.1598 157.848 47.2378 157.848C48.0958 157.848 48.8658 158.222 49.6138 158.772L50.7798 157.232C49.8998 156.55 48.6898 155.934 47.1938 155.934C44.7738 155.934 43.2558 157.276 43.2558 159.168C43.2558 160.972 44.8618 161.786 46.2918 162.314C47.4358 162.754 48.6018 163.15 48.6018 164.052C48.6018 164.8 48.0518 165.35 46.8858 165.35C45.7858 165.35 44.8618 164.888 43.8938 164.14L42.7058 165.768C43.7618 166.626 45.3238 167.264 46.7978 167.264ZM58.3673 167.264C59.7313 167.264 61.0293 166.78 62.0633 166.098L61.2053 164.514C60.4133 165.02 59.6213 165.306 58.6973 165.306C56.9593 165.306 55.7273 164.206 55.5073 162.292H62.3713C62.4373 162.028 62.4813 161.544 62.4813 161.06C62.4813 158.046 60.9413 155.934 58.0153 155.934C55.4853 155.934 53.0433 158.09 53.0433 161.61C53.0433 165.174 55.3753 167.264 58.3673 167.264ZM55.4853 160.576C55.7053 158.838 56.8053 157.892 58.0813 157.892C59.5553 157.892 60.2813 158.904 60.2813 160.576H55.4853ZM67.7468 167.264C69.0228 167.264 70.1228 166.626 71.0908 165.812H71.1788L71.3548 167H73.4448V160.598C73.4448 157.584 72.1028 155.934 69.4188 155.934C67.7028 155.934 66.1628 156.594 64.9748 157.342L65.8988 159.036C66.8668 158.464 67.8788 157.98 68.9348 157.98C70.4088 157.98 70.8708 158.948 70.9148 160.092C66.4708 160.576 64.5568 161.786 64.5568 164.096C64.5568 165.988 65.8548 167.264 67.7468 167.264ZM68.5608 165.284C67.6588 165.284 66.9988 164.866 66.9988 163.898C66.9988 162.82 67.9668 162.05 70.9148 161.676V164.096C70.1008 164.844 69.4408 165.284 68.5608 165.284ZM76.9614 167H79.4914V160.4C80.1514 158.772 81.1854 158.178 82.0434 158.178C82.5054 158.178 82.7914 158.244 83.1654 158.354L83.6054 156.154C83.2754 156 82.9234 155.934 82.3734 155.934C81.2294 155.934 80.0854 156.704 79.3154 158.112H79.2274L79.0514 156.198H76.9614V167ZM89.9525 167.264C91.1845 167.264 92.4605 166.824 93.4725 165.944L92.4385 164.272C91.8225 164.778 91.0525 165.196 90.2165 165.196C88.5225 165.196 87.3345 163.766 87.3345 161.61C87.3345 159.432 88.5445 158.002 90.2825 158.002C90.9645 158.002 91.5145 158.288 92.0865 158.794L93.3185 157.144C92.5265 156.462 91.5365 155.934 90.1505 155.934C87.2685 155.934 84.7385 158.002 84.7385 161.61C84.7385 165.196 87.0045 167.264 89.9525 167.264ZM96.0935 167H98.6235V159.454C99.5255 158.574 100.141 158.112 101.087 158.112C102.275 158.112 102.781 158.772 102.781 160.554V167H105.311V160.224C105.311 157.496 104.299 155.934 101.989 155.934C100.515 155.934 99.4375 156.704 98.5355 157.562L98.6235 155.472V151.468H96.0935V167Z" fill="#0F6C56"/>
<path d="M182.309 167H184.861V152.612H182.309V167ZM192.571 167.264C193.737 167.264 194.837 166.626 195.629 165.834H195.717L195.893 167H197.983V151.468H195.453V155.384L195.541 157.122C194.705 156.396 193.935 155.934 192.703 155.934C190.349 155.934 188.127 158.09 188.127 161.61C188.127 165.174 189.865 167.264 192.571 167.264ZM193.187 165.174C191.625 165.174 190.745 163.92 190.745 161.588C190.745 159.322 191.867 158.024 193.253 158.024C193.979 158.024 194.705 158.266 195.453 158.926V163.964C194.727 164.8 194.023 165.174 193.187 165.174ZM206.314 167.264C207.678 167.264 208.976 166.78 210.01 166.098L209.152 164.514C208.36 165.02 207.568 165.306 206.644 165.306C204.906 165.306 203.674 164.206 203.454 162.292H210.318C210.384 162.028 210.428 161.544 210.428 161.06C210.428 158.046 208.888 155.934 205.962 155.934C203.432 155.934 200.99 158.09 200.99 161.61C200.99 165.174 203.322 167.264 206.314 167.264ZM203.432 160.576C203.652 158.838 204.752 157.892 206.028 157.892C207.502 157.892 208.228 158.904 208.228 160.576H203.432ZM215.693 167.264C216.969 167.264 218.069 166.626 219.037 165.812H219.125L219.301 167H221.391V160.598C221.391 157.584 220.049 155.934 217.365 155.934C215.649 155.934 214.109 156.594 212.921 157.342L213.845 159.036C214.813 158.464 215.825 157.98 216.881 157.98C218.355 157.98 218.817 158.948 218.861 160.092C214.417 160.576 212.503 161.786 212.503 164.096C212.503 165.988 213.801 167.264 215.693 167.264ZM216.507 165.284C215.605 165.284 214.945 164.866 214.945 163.898C214.945 162.82 215.913 162.05 218.861 161.676V164.096C218.047 164.844 217.387 165.284 216.507 165.284ZM228.37 167.264C229.228 167.264 229.976 167.066 230.57 166.868L230.13 164.998C229.822 165.13 229.382 165.24 229.008 165.24C227.974 165.24 227.49 164.624 227.49 163.348V158.2H230.24V156.198H227.49V153.25H225.378L225.07 156.198L223.398 156.308V158.2H224.938V163.348C224.938 165.68 225.862 167.264 228.37 167.264ZM233.002 167H235.532V156.198H233.002V167ZM234.278 154.306C235.18 154.306 235.84 153.712 235.84 152.876C235.84 152.018 235.18 151.424 234.278 151.424C233.376 151.424 232.716 152.018 232.716 152.876C232.716 153.712 233.376 154.306 234.278 154.306ZM243.671 167.264C246.377 167.264 248.819 165.196 248.819 161.61C248.819 158.002 246.377 155.934 243.671 155.934C240.987 155.934 238.545 158.002 238.545 161.61C238.545 165.196 240.987 167.264 243.671 167.264ZM243.671 165.196C242.087 165.196 241.141 163.766 241.141 161.61C241.141 159.432 242.087 158.002 243.671 158.002C245.255 158.002 246.223 159.432 246.223 161.61C246.223 163.766 245.255 165.196 243.671 165.196ZM251.812 167H254.342V159.454C255.244 158.574 255.86 158.112 256.806 158.112C257.994 158.112 258.5 158.772 258.5 160.554V167H261.03V160.224C261.03 157.496 260.018 155.934 257.708 155.934C256.234 155.934 255.134 156.704 254.166 157.65H254.078L253.902 156.198H251.812V167Z" fill="#0F6C56"/>
<path d="M337.221 167H339.773V161.72H341.841C344.943 161.72 347.319 160.246 347.319 157.056C347.319 153.712 344.943 152.612 341.753 152.612H337.221V167ZM339.773 159.674V154.658H341.555C343.689 154.658 344.811 155.252 344.811 157.056C344.811 158.816 343.777 159.674 341.643 159.674H339.773ZM350.295 167H352.825V160.4C353.485 158.772 354.519 158.178 355.377 158.178C355.839 158.178 356.125 158.244 356.499 158.354L356.939 156.154C356.609 156 356.257 155.934 355.707 155.934C354.563 155.934 353.419 156.704 352.649 158.112H352.561L352.385 156.198H350.295V167ZM363.198 167.264C365.904 167.264 368.346 165.196 368.346 161.61C368.346 158.002 365.904 155.934 363.198 155.934C360.514 155.934 358.072 158.002 358.072 161.61C358.072 165.196 360.514 167.264 363.198 167.264ZM363.198 165.196C361.614 165.196 360.668 163.766 360.668 161.61C360.668 159.432 361.614 158.002 363.198 158.002C364.782 158.002 365.75 159.432 365.75 161.61C365.75 163.766 364.782 165.196 363.198 165.196ZM374.651 167.264C375.509 167.264 376.257 167.066 376.851 166.868L376.411 164.998C376.103 165.13 375.663 165.24 375.289 165.24C374.255 165.24 373.771 164.624 373.771 163.348V158.2H376.521V156.198H373.771V153.25H371.659L371.351 156.198L369.679 156.308V158.2H371.219V163.348C371.219 165.68 372.143 167.264 374.651 167.264ZM383.361 167.264C386.067 167.264 388.509 165.196 388.509 161.61C388.509 158.002 386.067 155.934 383.361 155.934C380.677 155.934 378.235 158.002 378.235 161.61C378.235 165.196 380.677 167.264 383.361 167.264ZM383.361 165.196C381.777 165.196 380.831 163.766 380.831 161.61C380.831 159.432 381.777 158.002 383.361 158.002C384.945 158.002 385.913 159.432 385.913 161.61C385.913 163.766 384.945 165.196 383.361 165.196ZM394.814 167.264C395.672 167.264 396.42 167.066 397.014 166.868L396.574 164.998C396.266 165.13 395.826 165.24 395.452 165.24C394.418 165.24 393.934 164.624 393.934 163.348V158.2H396.684V156.198H393.934V153.25H391.822L391.514 156.198L389.842 156.308V158.2H391.382V163.348C391.382 165.68 392.306 167.264 394.814 167.264ZM400.172 171.444C402.526 171.444 403.648 169.926 404.55 167.484L408.466 156.198H406.024L404.396 161.5C404.132 162.468 403.846 163.546 403.582 164.536H403.494C403.164 163.524 402.856 162.446 402.548 161.5L400.678 156.198H398.104L402.35 166.868L402.152 167.55C401.8 168.628 401.14 169.398 399.996 169.398C399.732 169.398 399.424 169.31 399.226 169.244L398.764 171.224C399.16 171.356 399.578 171.444 400.172 171.444ZM410.828 171.268H413.358V167.88L413.292 166.076C414.172 166.824 415.118 167.264 416.064 167.264C418.462 167.264 420.684 165.13 420.684 161.434C420.684 158.09 419.122 155.934 416.438 155.934C415.25 155.934 414.084 156.572 413.182 157.342H413.094L412.918 156.198H410.828V171.268ZM415.536 165.174C414.898 165.174 414.15 164.932 413.358 164.272V159.234C414.194 158.42 414.942 158.024 415.734 158.024C417.362 158.024 418.066 159.3 418.066 161.456C418.066 163.898 416.966 165.174 415.536 165.174ZM423.735 167H426.265V156.198H423.735V167ZM425.011 154.306C425.913 154.306 426.573 153.712 426.573 152.876C426.573 152.018 425.913 151.424 425.011 151.424C424.109 151.424 423.449 152.018 423.449 152.876C423.449 153.712 424.109 154.306 425.011 154.306ZM429.981 167H432.511V159.454C433.413 158.574 434.029 158.112 434.975 158.112C436.163 158.112 436.669 158.772 436.669 160.554V167H439.199V160.224C439.199 157.496 438.187 155.934 435.877 155.934C434.403 155.934 433.303 156.704 432.335 157.65H432.247L432.071 156.198H429.981V167ZM446.543 171.774C450.063 171.774 452.307 170.102 452.307 167.968C452.307 166.098 450.943 165.306 448.347 165.306H446.433C445.113 165.306 444.673 164.932 444.673 164.316C444.673 163.832 444.871 163.568 445.201 163.282C445.685 163.48 446.213 163.568 446.675 163.568C448.963 163.568 450.767 162.292 450.767 159.894C450.767 159.146 450.503 158.486 450.151 158.068H452.131V156.198H448.259C447.819 156.044 447.269 155.934 446.675 155.934C444.409 155.934 442.407 157.32 442.407 159.806C442.407 161.082 443.089 162.116 443.815 162.666V162.754C443.199 163.194 442.627 163.92 442.627 164.756C442.627 165.636 443.045 166.208 443.595 166.56V166.648C442.605 167.264 442.055 168.056 442.055 168.958C442.055 170.85 443.969 171.774 446.543 171.774ZM446.675 161.984C445.619 161.984 444.783 161.192 444.783 159.806C444.783 158.442 445.619 157.672 446.675 157.672C447.731 157.672 448.545 158.464 448.545 159.806C448.545 161.192 447.709 161.984 446.675 161.984ZM446.939 170.124C445.223 170.124 444.167 169.552 444.167 168.584C444.167 168.078 444.431 167.594 445.003 167.154C445.421 167.264 445.883 167.308 446.477 167.308H447.951C449.183 167.308 449.865 167.55 449.865 168.386C449.865 169.31 448.677 170.124 446.939 170.124Z" fill="#0F6C56"/>
<path d="M530.221 167H532.773V154.768H536.931V152.612H526.063V154.768H530.221V167ZM542.648 167.264C544.012 167.264 545.31 166.78 546.344 166.098L545.486 164.514C544.694 165.02 543.902 165.306 542.978 165.306C541.24 165.306 540.008 164.206 539.788 162.292H546.652C546.718 162.028 546.762 161.544 546.762 161.06C546.762 158.046 545.222 155.934 542.296 155.934C539.766 155.934 537.324 158.09 537.324 161.61C537.324 165.174 539.656 167.264 542.648 167.264ZM539.766 160.576C539.986 158.838 541.086 157.892 542.362 157.892C543.836 157.892 544.562 158.904 544.562 160.576H539.766ZM552.681 167.264C555.409 167.264 556.883 165.768 556.883 163.92C556.883 161.896 555.255 161.192 553.781 160.642C552.615 160.224 551.537 159.894 551.537 159.036C551.537 158.354 552.043 157.848 553.121 157.848C553.979 157.848 554.749 158.222 555.497 158.772L556.663 157.232C555.783 156.55 554.573 155.934 553.077 155.934C550.657 155.934 549.139 157.276 549.139 159.168C549.139 160.972 550.745 161.786 552.175 162.314C553.319 162.754 554.485 163.15 554.485 164.052C554.485 164.8 553.935 165.35 552.769 165.35C551.669 165.35 550.745 164.888 549.777 164.14L548.589 165.768C549.645 166.626 551.207 167.264 552.681 167.264ZM563.007 167.264C563.865 167.264 564.613 167.066 565.207 166.868L564.767 164.998C564.459 165.13 564.019 165.24 563.645 165.24C562.611 165.24 562.127 164.624 562.127 163.348V158.2H564.877V156.198H562.127V153.25H560.015L559.707 156.198L558.035 156.308V158.2H559.575V163.348C559.575 165.68 560.499 167.264 563.007 167.264ZM567.639 167H570.169V156.198H567.639V167ZM568.915 154.306C569.817 154.306 570.477 153.712 570.477 152.876C570.477 152.018 569.817 151.424 568.915 151.424C568.013 151.424 567.353 152.018 567.353 152.876C567.353 153.712 568.013 154.306 568.915 154.306ZM573.886 167H576.416V159.454C577.318 158.574 577.934 158.112 578.88 158.112C580.068 158.112 580.574 158.772 580.574 160.554V167H583.104V160.224C583.104 157.496 582.092 155.934 579.782 155.934C578.308 155.934 577.208 156.704 576.24 157.65H576.152L575.976 156.198H573.886V167ZM590.447 171.774C593.967 171.774 596.211 170.102 596.211 167.968C596.211 166.098 594.847 165.306 592.251 165.306H590.337C589.017 165.306 588.577 164.932 588.577 164.316C588.577 163.832 588.775 163.568 589.105 163.282C589.589 163.48 590.117 163.568 590.579 163.568C592.867 163.568 594.671 162.292 594.671 159.894C594.671 159.146 594.407 158.486 594.055 158.068H596.035V156.198H592.163C591.723 156.044 591.173 155.934 590.579 155.934C588.313 155.934 586.311 157.32 586.311 159.806C586.311 161.082 586.993 162.116 587.719 162.666V162.754C587.103 163.194 586.531 163.92 586.531 164.756C586.531 165.636 586.949 166.208 587.499 166.56V166.648C586.509 167.264 585.959 168.056 585.959 168.958C585.959 170.85 587.873 171.774 590.447 171.774ZM590.579 161.984C589.523 161.984 588.687 161.192 588.687 159.806C588.687 158.442 589.523 157.672 590.579 157.672C591.635 157.672 592.449 158.464 592.449 159.806C592.449 161.192 591.613 161.984 590.579 161.984ZM590.843 170.124C589.127 170.124 588.071 169.552 588.071 168.584C588.071 168.078 588.335 167.594 588.907 167.154C589.325 167.264 589.787 167.308 590.381 167.308H591.855C593.087 167.308 593.769 167.55 593.769 168.386C593.769 169.31 592.581 170.124 590.843 170.124Z" fill="#0F6C56"/>
<path d="M670.266 167H674.248C678.516 167 681.112 164.514 681.112 159.74C681.112 154.988 678.516 152.612 674.116 152.612H670.266V167ZM672.818 164.932V154.68H673.94C676.844 154.68 678.494 156.22 678.494 159.74C678.494 163.282 676.844 164.932 673.94 164.932H672.818ZM688.905 167.264C690.269 167.264 691.567 166.78 692.601 166.098L691.743 164.514C690.951 165.02 690.159 165.306 689.235 165.306C687.497 165.306 686.265 164.206 686.045 162.292H692.909C692.975 162.028 693.019 161.544 693.019 161.06C693.019 158.046 691.479 155.934 688.553 155.934C686.023 155.934 683.581 158.09 683.581 161.61C683.581 165.174 685.913 167.264 688.905 167.264ZM686.023 160.576C686.243 158.838 687.343 157.892 688.619 157.892C690.093 157.892 690.819 158.904 690.819 160.576H686.023ZM698.344 167H701.27L704.944 156.198H702.502L700.786 161.808C700.478 162.864 700.17 163.964 699.862 165.064H699.774C699.488 163.964 699.158 162.864 698.872 161.808L697.156 156.198H694.582L698.344 167ZM711.797 167.264C713.161 167.264 714.459 166.78 715.493 166.098L714.635 164.514C713.843 165.02 713.051 165.306 712.127 165.306C710.389 165.306 709.157 164.206 708.937 162.292H715.801C715.867 162.028 715.911 161.544 715.911 161.06C715.911 158.046 714.371 155.934 711.445 155.934C708.915 155.934 706.473 158.09 706.473 161.61C706.473 165.174 708.805 167.264 711.797 167.264ZM708.915 160.576C709.135 158.838 710.235 157.892 711.511 157.892C712.985 157.892 713.711 158.904 713.711 160.576H708.915ZM721.28 167.264C721.874 167.264 722.314 167.176 722.622 167.044L722.292 165.152C722.094 165.196 722.006 165.196 721.896 165.196C721.632 165.196 721.346 164.976 721.346 164.36V151.468H718.816V164.228C718.816 166.098 719.476 167.264 721.28 167.264ZM729.7 167.264C732.406 167.264 734.848 165.196 734.848 161.61C734.848 158.002 732.406 155.934 729.7 155.934C727.016 155.934 724.574 158.002 724.574 161.61C724.574 165.196 727.016 167.264 729.7 167.264ZM729.7 165.196C728.116 165.196 727.17 163.766 727.17 161.61C727.17 159.432 728.116 158.002 729.7 158.002C731.284 158.002 732.252 159.432 732.252 161.61C732.252 163.766 731.284 165.196 729.7 165.196ZM737.841 171.268H740.371V167.88L740.305 166.076C741.185 166.824 742.131 167.264 743.077 167.264C745.475 167.264 747.697 165.13 747.697 161.434C747.697 158.09 746.135 155.934 743.451 155.934C742.263 155.934 741.097 156.572 740.195 157.342H740.107L739.931 156.198H737.841V171.268ZM742.549 165.174C741.911 165.174 741.163 164.932 740.371 164.272V159.234C741.207 158.42 741.955 158.024 742.747 158.024C744.375 158.024 745.079 159.3 745.079 161.456C745.079 163.898 743.979 165.174 742.549 165.174ZM750.748 167H753.278V159.454C754.114 158.552 754.884 158.112 755.544 158.112C756.688 158.112 757.216 158.772 757.216 160.554V167H759.746V159.454C760.582 158.552 761.33 158.112 762.012 158.112C763.134 158.112 763.662 158.772 763.662 160.554V167H766.214V160.224C766.214 157.496 765.158 155.934 762.87 155.934C761.506 155.934 760.428 156.77 759.394 157.87C758.888 156.66 757.986 155.934 756.402 155.934C755.06 155.934 754.004 156.704 753.102 157.672H753.014L752.838 156.198H750.748V167ZM774.398 167.264C775.762 167.264 777.06 166.78 778.094 166.098L777.236 164.514C776.444 165.02 775.652 165.306 774.728 165.306C772.99 165.306 771.758 164.206 771.538 162.292H778.402C778.468 162.028 778.512 161.544 778.512 161.06C778.512 158.046 776.972 155.934 774.046 155.934C771.516 155.934 769.074 158.09 769.074 161.61C769.074 165.174 771.406 167.264 774.398 167.264ZM771.516 160.576C771.736 158.838 772.836 157.892 774.112 157.892C775.586 157.892 776.312 158.904 776.312 160.576H771.516ZM781.417 167H783.947V159.454C784.849 158.574 785.465 158.112 786.411 158.112C787.599 158.112 788.105 158.772 788.105 160.554V167H790.635V160.224C790.635 157.496 789.623 155.934 787.313 155.934C785.839 155.934 784.739 156.704 783.771 157.65H783.683L783.507 156.198H781.417V167ZM798.022 167.264C798.88 167.264 799.628 167.066 800.222 166.868L799.782 164.998C799.474 165.13 799.034 165.24 798.66 165.24C797.626 165.24 797.142 164.624 797.142 163.348V158.2H799.892V156.198H797.142V153.25H795.03L794.722 156.198L793.05 156.308V158.2H794.59V163.348C794.59 165.68 795.514 167.264 798.022 167.264Z" fill="#0F6C56"/>
<path d="M874.063 167H876.615V152.612H874.063V167ZM880.541 167H883.071V159.454C883.973 158.574 884.589 158.112 885.535 158.112C886.723 158.112 887.229 158.772 887.229 160.554V167H889.759V160.224C889.759 157.496 888.747 155.934 886.437 155.934C884.963 155.934 883.863 156.704 882.895 157.65H882.807L882.631 156.198H880.541V167ZM892.659 162.38H897.895V160.532H892.659V162.38ZM903.305 167H906.319L910.785 152.612H908.167L906.165 159.85C905.725 161.478 905.395 162.886 904.911 164.536H904.823C904.339 162.886 904.009 161.478 903.547 159.85L901.523 152.612H898.817L903.305 167ZM912.795 167H915.325V156.198H912.795V167ZM914.071 154.306C914.973 154.306 915.633 153.712 915.633 152.876C915.633 152.018 914.973 151.424 914.071 151.424C913.169 151.424 912.509 152.018 912.509 152.876C912.509 153.712 913.169 154.306 914.071 154.306ZM921.462 167H924.388L928.062 156.198H925.62L923.904 161.808C923.596 162.864 923.288 163.964 922.98 165.064H922.892C922.606 163.964 922.276 162.864 921.99 161.808L920.274 156.198H917.7L921.462 167ZM934.716 167.264C937.422 167.264 939.864 165.196 939.864 161.61C939.864 158.002 937.422 155.934 934.716 155.934C932.032 155.934 929.59 158.002 929.59 161.61C929.59 165.196 932.032 167.264 934.716 167.264ZM934.716 165.196C933.132 165.196 932.186 163.766 932.186 161.61C932.186 159.432 933.132 158.002 934.716 158.002C936.3 158.002 937.268 159.432 937.268 161.61C937.268 163.766 936.3 165.196 934.716 165.196Z" fill="#0F6C56"/>
<path d="M1013.27 167H1022.15V164.844H1015.82V160.598H1020.99V158.442H1015.82V154.768H1021.93V152.612H1013.27V167ZM1027.58 167H1030.5L1034.18 156.198H1031.74L1030.02 161.808C1029.71 162.864 1029.4 163.964 1029.1 165.064H1029.01C1028.72 163.964 1028.39 162.864 1028.11 161.808L1026.39 156.198H1023.82L1027.58 167ZM1038.73 167.264C1040 167.264 1041.1 166.626 1042.07 165.812H1042.16L1042.34 167H1044.43V160.598C1044.43 157.584 1043.08 155.934 1040.4 155.934C1038.68 155.934 1037.14 156.594 1035.96 157.342L1036.88 159.036C1037.85 158.464 1038.86 157.98 1039.92 157.98C1041.39 157.98 1041.85 158.948 1041.9 160.092C1037.45 160.576 1035.54 161.786 1035.54 164.096C1035.54 165.988 1036.84 167.264 1038.73 167.264ZM1039.54 165.284C1038.64 165.284 1037.98 164.866 1037.98 163.898C1037.98 162.82 1038.95 162.05 1041.9 161.676V164.096C1041.08 164.844 1040.42 165.284 1039.54 165.284ZM1050.41 167.264C1051 167.264 1051.44 167.176 1051.75 167.044L1051.42 165.152C1051.22 165.196 1051.13 165.196 1051.02 165.196C1050.76 165.196 1050.47 164.976 1050.47 164.36V151.468H1047.94V164.228C1047.94 166.098 1048.6 167.264 1050.41 167.264ZM1057.62 167.264C1059.09 167.264 1060.15 166.538 1061.09 165.416H1061.16L1061.36 167H1063.42V156.198H1060.89V163.59C1060.08 164.646 1059.44 165.086 1058.5 165.086C1057.33 165.086 1056.82 164.426 1056.82 162.644V156.198H1054.29V162.974C1054.29 165.702 1055.31 167.264 1057.62 167.264ZM1069.74 167.264C1071.01 167.264 1072.11 166.626 1073.08 165.812H1073.17L1073.34 167H1075.43V160.598C1075.43 157.584 1074.09 155.934 1071.41 155.934C1069.69 155.934 1068.15 156.594 1066.96 157.342L1067.89 159.036C1068.86 158.464 1069.87 157.98 1070.92 157.98C1072.4 157.98 1072.86 158.948 1072.9 160.092C1068.46 160.576 1066.55 161.786 1066.55 164.096C1066.55 165.988 1067.84 167.264 1069.74 167.264ZM1070.55 165.284C1069.65 165.284 1068.99 164.866 1068.99 163.898C1068.99 162.82 1069.96 162.05 1072.9 161.676V164.096C1072.09 164.844 1071.43 165.284 1070.55 165.284ZM1082.41 167.264C1083.27 167.264 1084.02 167.066 1084.61 166.868L1084.17 164.998C1083.86 165.13 1083.42 165.24 1083.05 165.24C1082.02 165.24 1081.53 164.624 1081.53 163.348V158.2H1084.28V156.198H1081.53V153.25H1079.42L1079.11 156.198L1077.44 156.308V158.2H1078.98V163.348C1078.98 165.68 1079.9 167.264 1082.41 167.264ZM1087.05 167H1089.58V156.198H1087.05V167ZM1088.32 154.306C1089.22 154.306 1089.88 153.712 1089.88 152.876C1089.88 152.018 1089.22 151.424 1088.32 151.424C1087.42 151.424 1086.76 152.018 1086.76 152.876C1086.76 153.712 1087.42 154.306 1088.32 154.306ZM1097.71 167.264C1100.42 167.264 1102.86 165.196 1102.86 161.61C1102.86 158.002 1100.42 155.934 1097.71 155.934C1095.03 155.934 1092.59 158.002 1092.59 161.61C1092.59 165.196 1095.03 167.264 1097.71 167.264ZM1097.71 165.196C1096.13 165.196 1095.18 163.766 1095.18 161.61C1095.18 159.432 1096.13 158.002 1097.71 158.002C1099.3 158.002 1100.27 159.432 1100.27 161.61C1100.27 163.766 1099.3 165.196 1097.71 165.196ZM1105.85 167H1108.38V159.454C1109.29 158.574 1109.9 158.112 1110.85 158.112C1112.04 158.112 1112.54 158.772 1112.54 160.554V167H1115.07V160.224C1115.07 157.496 1114.06 155.934 1111.75 155.934C1110.28 155.934 1109.18 156.704 1108.21 157.65H1108.12L1107.94 156.198H1105.85V167Z" fill="#0F6C56"/>
<path fill-rule="evenodd" clip-rule="evenodd" d="M730.5 133C735.194 133 739 129.194 739 124.5C739 119.806 735.194 116 730.5 116C725.806 116 722 119.806 722 124.5C722 129.194 725.806 133 730.5 133Z" fill="#51BAA1"/>
<path fill-rule="evenodd" clip-rule="evenodd" d="M898.5 133C903.194 133 907 129.194 907 124.5C907 119.806 903.194 116 898.5 116C893.806 116 890 119.806 890 124.5C890 129.194 893.806 133 898.5 133Z" fill="#51BAA1"/>
<path fill-rule="evenodd" clip-rule="evenodd" d="M1065.5 133C1070.19 133 1074 129.194 1074 124.5C1074 119.806 1070.19 116 1065.5 116C1060.81 116 1057 119.806 1057 124.5C1057 129.194 1060.81 133 1065.5 133Z" fill="#51BAA1"/>
<path d="M140.198 113.133L156.896 123.938L141.561 135.398" stroke="#51BAA1" stroke-opacity="0.263467" stroke-width="5" stroke-linecap="round" stroke-linejoin="round"/>
<path d="M306.198 113.133L322.896 123.938L307.561 135.398" stroke="#51BAA1" stroke-opacity="0.263467" stroke-width="5" stroke-linecap="round" stroke-linejoin="round"/>
<path d="M807.198 113.133L823.896 123.938L808.561 135.398" stroke="#51BAA1" stroke-opacity="0.263467" stroke-width="5" stroke-linecap="round" stroke-linejoin="round"/>
<path d="M976.198 113.133L992.896 123.938L977.561 135.398" stroke="#51BAA1" stroke-opacity="0.263467" stroke-width="5" stroke-linecap="round" stroke-linejoin="round"/>
<path d="M471.158 52.984C469.618 52.984 468.342 53.402 467.352 54.282C466.296 55.162 465.724 56.394 465.592 57.978H468.122C468.21 57.032 468.518 56.328 469.046 55.866C469.552 55.404 470.256 55.184 471.18 55.184C472.082 55.184 472.764 55.382 473.226 55.778C473.644 56.174 473.864 56.746 473.864 57.516C473.864 58.286 473.622 58.88 473.16 59.276C472.676 59.672 471.972 59.87 471.048 59.87H469.948V61.806H471.048C472.06 61.806 472.83 62.004 473.358 62.444C473.886 62.862 474.172 63.522 474.172 64.424C474.172 65.172 473.908 65.788 473.402 66.294C472.83 66.844 472.038 67.13 471.048 67.13C470.146 67.13 469.42 66.866 468.87 66.36C468.254 65.81 467.946 65.018 467.902 64.006H465.284C465.416 65.766 466.032 67.13 467.132 68.054C468.122 68.89 469.442 69.308 471.07 69.308C472.786 69.308 474.172 68.824 475.228 67.878C476.24 66.954 476.746 65.766 476.746 64.314C476.746 63.39 476.482 62.62 475.954 62.026C475.47 61.454 474.744 61.036 473.82 60.75C475.558 60.178 476.438 59.034 476.438 57.318C476.438 55.954 475.954 54.898 475.008 54.128C474.04 53.358 472.742 52.984 471.158 52.984Z" fill="#0F6C56"/>
<path d="M452.917 88H453.913V84.676H455.341L457.237 88H458.365L456.361 84.568C457.441 84.304 458.137 83.56 458.137 82.336C458.137 80.704 456.985 80.128 455.377 80.128H452.917V88ZM453.913 83.86V80.932H455.233C456.457 80.932 457.141 81.304 457.141 82.336C457.141 83.356 456.457 83.86 455.233 83.86H453.913ZM462.071 88.144C463.499 88.144 464.771 87.028 464.771 85.096C464.771 83.14 463.499 82.024 462.071 82.024C460.643 82.024 459.371 83.14 459.371 85.096C459.371 87.028 460.643 88.144 462.071 88.144ZM462.071 87.328C461.075 87.328 460.391 86.428 460.391 85.096C460.391 83.752 461.075 82.84 462.071 82.84C463.079 82.84 463.751 83.752 463.751 85.096C463.751 86.428 463.079 87.328 462.071 87.328ZM468.277 88.144C469.081 88.144 469.657 87.724 470.197 87.088H470.233L470.317 88H471.133V82.168H470.149V86.308C469.597 86.992 469.177 87.292 468.577 87.292C467.809 87.292 467.485 86.824 467.485 85.732V82.168H466.489V85.864C466.489 87.352 467.041 88.144 468.277 88.144ZM473.367 88H474.351V83.776C474.939 83.188 475.347 82.876 475.947 82.876C476.715 82.876 477.051 83.344 477.051 84.436V88H478.035V84.304C478.035 82.816 477.483 82.024 476.259 82.024C475.455 82.024 474.855 82.456 474.303 83.008H474.267L474.183 82.168H473.367V88ZM482.189 88.144C482.873 88.144 483.497 87.76 483.953 87.316H483.989L484.073 88H484.889V79.456H483.893V81.7L483.941 82.696C483.425 82.276 482.981 82.024 482.309 82.024C480.977 82.024 479.777 83.2 479.777 85.096C479.777 87.04 480.725 88.144 482.189 88.144ZM482.405 87.316C481.385 87.316 480.797 86.476 480.797 85.084C480.797 83.752 481.541 82.852 482.477 82.852C482.957 82.852 483.401 83.02 483.893 83.464V86.512C483.413 87.052 482.945 87.316 482.405 87.316ZM488.643 88.144C490.023 88.144 490.779 87.352 490.779 86.404C490.779 85.3 489.843 84.952 489.003 84.64C488.343 84.388 487.707 84.184 487.707 83.632C487.707 83.188 488.043 82.792 488.775 82.792C489.291 82.792 489.711 83.008 490.107 83.308L490.575 82.684C490.131 82.324 489.495 82.024 488.763 82.024C487.503 82.024 486.759 82.744 486.759 83.68C486.759 84.664 487.671 85.06 488.499 85.36C489.135 85.6 489.831 85.864 489.831 86.464C489.831 86.968 489.447 87.376 488.679 87.376C487.983 87.376 487.467 87.088 486.963 86.68L486.471 87.34C487.023 87.796 487.815 88.144 488.643 88.144Z" fill="#9D9D9D"/>
<path d="M10.5 124.5H1117.5" stroke="#51BAA1" stroke-opacity="0.263467" stroke-width="7"/>
<path d="M1.91587 205H7.83587V203.864H3.24387V194.504H1.91587V205ZM9.92467 205H11.2367V197.224H9.92467V205ZM10.5967 195.624C11.1087 195.624 11.5087 195.272 11.5087 194.776C11.5087 194.264 11.1087 193.928 10.5967 193.928C10.0847 193.928 9.68467 194.264 9.68467 194.776C9.68467 195.272 10.0847 195.624 10.5967 195.624ZM16.6657 205.192C17.1457 205.192 17.6737 205.048 18.1057 204.904L17.8497 203.912C17.5937 204.008 17.2417 204.12 16.9697 204.12C16.0737 204.12 15.7697 203.576 15.7697 202.616V198.296H17.8657V197.224H15.7697V195.048H14.6657L14.5057 197.224L13.2897 197.304V198.296H14.4417V202.6C14.4417 204.136 15.0017 205.192 16.6657 205.192ZM22.9128 205.192C23.9688 205.192 24.8008 204.824 25.4728 204.392L25.0088 203.528C24.4328 203.896 23.8088 204.136 23.0728 204.136C21.5848 204.136 20.5768 203.08 20.4808 201.432H25.7288C25.7608 201.24 25.7768 200.952 25.7768 200.68C25.7768 198.456 24.6568 197.032 22.6728 197.032C20.8968 197.032 19.1848 198.584 19.1848 201.128C19.1848 203.672 20.8328 205.192 22.9128 205.192ZM20.4648 200.488C20.6248 198.952 21.6168 198.072 22.7048 198.072C23.9208 198.072 24.6248 198.92 24.6248 200.488H20.4648ZM28.0538 205H29.3658V200.008C29.8938 198.696 30.6778 198.216 31.3338 198.216C31.6538 198.216 31.8298 198.264 32.0858 198.344L32.3418 197.192C32.0858 197.08 31.8458 197.032 31.5098 197.032C30.6298 197.032 29.8298 197.656 29.3018 198.632H29.2538L29.1418 197.224H28.0538V205ZM35.3576 205.192C36.3336 205.192 37.1976 204.68 37.9336 204.072H37.9816L38.0936 205H39.1816V200.232C39.1816 198.296 38.3816 197.032 36.4776 197.032C35.2296 197.032 34.1416 197.576 33.4216 198.04L33.9336 198.952C34.5416 198.536 35.3576 198.12 36.2536 198.12C37.5336 198.12 37.8536 199.08 37.8536 200.072C34.5416 200.44 33.0856 201.288 33.0856 202.984C33.0856 204.376 34.0616 205.192 35.3576 205.192ZM35.7416 204.136C34.9736 204.136 34.3656 203.768 34.3656 202.888C34.3656 201.896 35.2616 201.256 37.8536 200.936V203.096C37.1016 203.768 36.4936 204.136 35.7416 204.136ZM44.213 205.192C44.693 205.192 45.221 205.048 45.653 204.904L45.397 203.912C45.141 204.008 44.789 204.12 44.517 204.12C43.621 204.12 43.317 203.576 43.317 202.616V198.296H45.413V197.224H43.317V195.048H42.213L42.053 197.224L40.837 197.304V198.296H41.989V202.6C41.989 204.136 42.549 205.192 44.213 205.192ZM49.7988 205.192C50.8708 205.192 51.6388 204.632 52.3588 203.784H52.4068L52.5188 205H53.6068V197.224H52.2948V202.744C51.5588 203.656 50.9988 204.056 50.1988 204.056C49.1748 204.056 48.7428 203.432 48.7428 201.976V197.224H47.4148V202.152C47.4148 204.136 48.1508 205.192 49.7988 205.192ZM56.5854 205H57.8974V200.008C58.4254 198.696 59.2094 198.216 59.8654 198.216C60.1854 198.216 60.3614 198.264 60.6174 198.344L60.8734 197.192C60.6174 197.08 60.3774 197.032 60.0414 197.032C59.1614 197.032 58.3614 197.656 57.8334 198.632H57.7854L57.6734 197.224H56.5854V205ZM65.4836 205.192C66.5396 205.192 67.3716 204.824 68.0436 204.392L67.5796 203.528C67.0036 203.896 66.3796 204.136 65.6436 204.136C64.1556 204.136 63.1476 203.08 63.0516 201.432H68.2996C68.3316 201.24 68.3476 200.952 68.3476 200.68C68.3476 198.456 67.2276 197.032 65.2436 197.032C63.4676 197.032 61.7556 198.584 61.7556 201.128C61.7556 203.672 63.4036 205.192 65.4836 205.192ZM63.0356 200.488C63.1956 198.952 64.1876 198.072 65.2756 198.072C66.4916 198.072 67.1956 198.92 67.1956 200.488H63.0356ZM74.3114 205H75.6394V200.568H77.5434L80.0714 205H81.5754L78.9034 200.424C80.3434 200.072 81.2714 199.08 81.2714 197.448C81.2714 195.272 79.7354 194.504 77.5914 194.504H74.3114V205ZM75.6394 199.48V195.576H77.3994C79.0314 195.576 79.9434 196.072 79.9434 197.448C79.9434 198.808 79.0314 199.48 77.3994 199.48H75.6394ZM86.644 205.192C87.7 205.192 88.532 204.824 89.204 204.392L88.74 203.528C88.164 203.896 87.54 204.136 86.804 204.136C85.316 204.136 84.308 203.08 84.212 201.432H89.46C89.492 201.24 89.508 200.952 89.508 200.68C89.508 198.456 88.388 197.032 86.404 197.032C84.628 197.032 82.916 198.584 82.916 201.128C82.916 203.672 84.564 205.192 86.644 205.192ZM84.196 200.488C84.356 198.952 85.348 198.072 86.436 198.072C87.652 198.072 88.356 198.92 88.356 200.488H84.196ZM93.5432 205H95.0792L97.8312 197.224H96.5352L95.0632 201.64C94.8392 202.408 94.5832 203.192 94.3592 203.928H94.2952C94.0552 203.192 93.7992 202.408 93.5752 201.64L92.1032 197.224H90.7432L93.5432 205ZM99.6875 205H101V197.224H99.6875V205ZM100.36 195.624C100.872 195.624 101.272 195.272 101.272 194.776C101.272 194.264 100.872 193.928 100.36 193.928C99.8475 193.928 99.4475 194.264 99.4475 194.776C99.4475 195.272 99.8475 195.624 100.36 195.624ZM107.133 205.192C108.189 205.192 109.021 204.824 109.693 204.392L109.229 203.528C108.653 203.896 108.029 204.136 107.293 204.136C105.805 204.136 104.797 203.08 104.701 201.432H109.949C109.981 201.24 109.997 200.952 109.997 200.68C109.997 198.456 108.877 197.032 106.893 197.032C105.117 197.032 103.405 198.584 103.405 201.128C103.405 203.672 105.053 205.192 107.133 205.192ZM104.685 200.488C104.845 198.952 105.837 198.072 106.925 198.072C108.141 198.072 108.845 198.92 108.845 200.488H104.685ZM113.584 205H115.12L116.208 200.84C116.416 200.104 116.576 199.368 116.752 198.584H116.816C117.008 199.368 117.152 200.088 117.344 200.824L118.464 205H120.064L122.144 197.224H120.896L119.76 201.72C119.6 202.456 119.456 203.16 119.28 203.88H119.216C119.04 203.16 118.864 202.456 118.672 201.72L117.456 197.224H116.176L114.976 201.72C114.784 202.44 114.624 203.16 114.448 203.88H114.384C114.24 203.16 114.096 202.456 113.92 201.72L112.768 197.224H111.424L113.584 205Z" fill="#858585"/>
<path d="M176.322 200.128C176.706 198.96 177.042 197.808 177.362 196.592H177.426C177.762 197.808 178.098 198.96 178.482 200.128L178.978 201.728H175.826L176.322 200.128ZM173.122 206H174.482L175.49 202.8H179.314L180.306 206H181.73L178.178 195.504H176.674L173.122 206ZM188.072 206H189.384V199.296H191.032V198.224H189.384V196.992C189.384 196 189.736 195.488 190.472 195.488C190.76 195.488 191.064 195.552 191.352 195.68L191.64 194.672C191.288 194.528 190.824 194.416 190.344 194.416C188.792 194.416 188.072 195.408 188.072 196.992V198.224H184.824V197.232C184.824 196.208 185.272 195.648 186.04 195.648C186.424 195.648 186.744 195.712 187.08 195.856L187.352 194.864C186.968 194.688 186.44 194.576 185.928 194.576C184.312 194.576 183.512 195.584 183.512 197.2V198.224L182.456 198.304V199.296H183.512V206H184.824V199.296H188.072V206ZM192.878 206H194.19V198.224H192.878V206ZM193.55 196.624C194.062 196.624 194.462 196.272 194.462 195.776C194.462 195.264 194.062 194.928 193.55 194.928C193.038 194.928 192.638 195.264 192.638 195.776C192.638 196.272 193.038 196.624 193.55 196.624ZM197.171 206H198.483V200.368C199.267 199.584 199.811 199.168 200.611 199.168C201.635 199.168 202.083 199.792 202.083 201.248V206H203.395V201.072C203.395 199.088 202.659 198.032 201.027 198.032C199.955 198.032 199.155 198.608 198.419 199.344H198.371L198.259 198.224H197.171V206ZM206.277 206H207.589V198.224H206.277V206ZM206.949 196.624C207.461 196.624 207.861 196.272 207.861 195.776C207.861 195.264 207.461 194.928 206.949 194.928C206.437 194.928 206.037 195.264 206.037 195.776C206.037 196.272 206.437 196.624 206.949 196.624ZM213.018 206.192C213.498 206.192 214.026 206.048 214.458 205.904L214.202 204.912C213.946 205.008 213.594 205.12 213.322 205.12C212.426 205.12 212.122 204.576 212.122 203.616V199.296H214.218V198.224H212.122V196.048H211.018L210.858 198.224L209.642 198.304V199.296H210.794V203.6C210.794 205.136 211.354 206.192 213.018 206.192ZM216.459 209.344C218.027 209.344 218.827 208.176 219.371 206.64L222.299 198.224H221.019L219.627 202.528C219.419 203.216 219.195 204.016 218.971 204.72H218.907C218.667 204 218.395 203.2 218.155 202.528L216.571 198.224H215.211L218.331 206.016L218.155 206.592C217.835 207.552 217.275 208.256 216.395 208.256C216.203 208.256 215.963 208.192 215.803 208.144L215.547 209.184C215.803 209.28 216.107 209.344 216.459 209.344ZM227.842 206H230.53C233.698 206 235.426 204.048 235.426 200.704C235.426 197.376 233.698 195.504 230.466 195.504H227.842V206ZM229.17 204.912V196.592H230.37C232.818 196.592 234.05 198.064 234.05 200.704C234.05 203.36 232.818 204.912 230.37 204.912H229.17ZM237.914 206H239.226V198.224H237.914V206ZM238.586 196.624C239.098 196.624 239.498 196.272 239.498 195.776C239.498 195.264 239.098 194.928 238.586 194.928C238.074 194.928 237.674 195.264 237.674 195.776C237.674 196.272 238.074 196.624 238.586 196.624ZM243.999 206.192C244.975 206.192 245.839 205.68 246.575 205.072H246.623L246.735 206H247.823V201.232C247.823 199.296 247.023 198.032 245.119 198.032C243.871 198.032 242.783 198.576 242.063 199.04L242.575 199.952C243.183 199.536 243.999 199.12 244.895 199.12C246.175 199.12 246.495 200.08 246.495 201.072C243.183 201.44 241.727 202.288 241.727 203.984C241.727 205.376 242.703 206.192 243.999 206.192ZM244.383 205.136C243.615 205.136 243.007 204.768 243.007 203.888C243.007 202.896 243.903 202.256 246.495 201.936V204.096C245.743 204.768 245.135 205.136 244.383 205.136ZM253.249 209.584C255.665 209.584 257.185 208.336 257.185 206.896C257.185 205.6 256.273 205.04 254.465 205.04H252.961C251.905 205.04 251.585 204.688 251.585 204.192C251.585 203.76 251.809 203.504 252.081 203.264C252.433 203.44 252.865 203.536 253.249 203.536C254.833 203.536 256.097 202.496 256.097 200.832C256.097 200.176 255.825 199.584 255.457 199.232H257.057V198.224H254.353C254.065 198.112 253.681 198.032 253.249 198.032C251.665 198.032 250.321 199.104 250.321 200.8C250.321 201.728 250.817 202.48 251.329 202.896V202.96C250.929 203.232 250.481 203.744 250.481 204.4C250.481 205.008 250.785 205.424 251.169 205.664V205.728C250.465 206.208 250.033 206.832 250.033 207.488C250.033 208.832 251.345 209.584 253.249 209.584ZM253.249 202.656C252.353 202.656 251.601 201.936 251.601 200.8C251.601 199.664 252.337 198.992 253.249 198.992C254.161 198.992 254.897 199.664 254.897 200.8C254.897 201.936 254.145 202.656 253.249 202.656ZM253.441 208.672C252.033 208.672 251.185 208.144 251.185 207.312C251.185 206.864 251.425 206.4 251.985 206C252.321 206.096 252.689 206.128 252.993 206.128H254.337C255.345 206.128 255.905 206.368 255.905 207.088C255.905 207.904 254.929 208.672 253.441 208.672ZM259.043 206H260.355V201.008C260.883 199.696 261.667 199.216 262.323 199.216C262.643 199.216 262.819 199.264 263.075 199.344L263.331 198.192C263.075 198.08 262.835 198.032 262.499 198.032C261.619 198.032 260.819 198.656 260.291 199.632H260.243L260.131 198.224H259.043V206ZM266.347 206.192C267.323 206.192 268.187 205.68 268.923 205.072H268.971L269.083 206H270.171V201.232C270.171 199.296 269.371 198.032 267.467 198.032C266.219 198.032 265.131 198.576 264.411 199.04L264.923 199.952C265.531 199.536 266.347 199.12 267.243 199.12C268.523 199.12 268.843 200.08 268.843 201.072C265.531 201.44 264.075 202.288 264.075 203.984C264.075 205.376 265.051 206.192 266.347 206.192ZM266.731 205.136C265.963 205.136 265.355 204.768 265.355 203.888C265.355 202.896 266.251 202.256 268.843 201.936V204.096C268.091 204.768 267.483 205.136 266.731 205.136ZM272.973 206H274.285V200.368C275.005 199.568 275.661 199.168 276.237 199.168C277.229 199.168 277.693 199.792 277.693 201.248V206H279.005V200.368C279.725 199.568 280.349 199.168 280.957 199.168C281.933 199.168 282.397 199.792 282.397 201.248V206H283.709V201.072C283.709 199.088 282.941 198.032 281.341 198.032C280.397 198.032 279.597 198.64 278.781 199.52C278.461 198.592 277.821 198.032 276.637 198.032C275.709 198.032 274.893 198.608 274.221 199.344H274.173L274.061 198.224H272.973V206Z" fill="#858585"/>
<path d="M180.744 228H184.088C186.44 228 188.072 226.992 188.072 224.928C188.072 223.488 187.192 222.656 185.928 222.416V222.352C186.92 222.032 187.464 221.104 187.464 220.064C187.464 218.224 185.992 217.504 183.864 217.504H180.744V228ZM182.072 221.968V218.56H183.688C185.32 218.56 186.152 219.024 186.152 220.24C186.152 221.312 185.416 221.968 183.624 221.968H182.072ZM182.072 226.944V222.992H183.896C185.736 222.992 186.76 223.584 186.76 224.88C186.76 226.288 185.704 226.944 183.896 226.944H182.072ZM190.378 228H191.69V223.008C192.218 221.696 193.002 221.216 193.658 221.216C193.978 221.216 194.154 221.264 194.41 221.344L194.666 220.192C194.41 220.08 194.17 220.032 193.834 220.032C192.954 220.032 192.154 220.656 191.626 221.632H191.578L191.466 220.224H190.378V228ZM197.682 228.192C198.658 228.192 199.522 227.68 200.258 227.072H200.306L200.418 228H201.506V223.232C201.506 221.296 200.706 220.032 198.802 220.032C197.554 220.032 196.466 220.576 195.746 221.04L196.258 221.952C196.866 221.536 197.682 221.12 198.578 221.12C199.858 221.12 200.178 222.08 200.178 223.072C196.866 223.44 195.41 224.288 195.41 225.984C195.41 227.376 196.386 228.192 197.682 228.192ZM198.066 227.136C197.298 227.136 196.69 226.768 196.69 225.888C196.69 224.896 197.586 224.256 200.178 223.936V226.096C199.426 226.768 198.818 227.136 198.066 227.136ZM204.308 228H205.62V220.224H204.308V228ZM204.98 218.624C205.492 218.624 205.892 218.272 205.892 217.776C205.892 217.264 205.492 216.928 204.98 216.928C204.468 216.928 204.068 217.264 204.068 217.776C204.068 218.272 204.468 218.624 204.98 218.624ZM208.601 228H209.913V222.368C210.697 221.584 211.241 221.168 212.041 221.168C213.065 221.168 213.513 221.792 213.513 223.248V228H214.825V223.072C214.825 221.088 214.089 220.032 212.457 220.032C211.385 220.032 210.585 220.608 209.849 221.344H209.801L209.689 220.224H208.601V228ZM219.738 228.192C221.578 228.192 222.586 227.136 222.586 225.872C222.586 224.4 221.338 223.936 220.218 223.52C219.338 223.184 218.49 222.912 218.49 222.176C218.49 221.584 218.938 221.056 219.914 221.056C220.602 221.056 221.162 221.344 221.69 221.744L222.314 220.912C221.722 220.432 220.874 220.032 219.898 220.032C218.218 220.032 217.226 220.992 217.226 222.24C217.226 223.552 218.442 224.08 219.546 224.48C220.394 224.8 221.322 225.152 221.322 225.952C221.322 226.624 220.81 227.168 219.786 227.168C218.858 227.168 218.17 226.784 217.498 226.24L216.842 227.12C217.578 227.728 218.634 228.192 219.738 228.192ZM226.901 228.192C227.381 228.192 227.909 228.048 228.341 227.904L228.085 226.912C227.829 227.008 227.477 227.12 227.205 227.12C226.309 227.12 226.005 226.576 226.005 225.616V221.296H228.101V220.224H226.005V218.048H224.901L224.741 220.224L223.525 220.304V221.296H224.677V225.6C224.677 227.136 225.237 228.192 226.901 228.192ZM233.02 228.192C234.924 228.192 236.62 226.704 236.62 224.128C236.62 221.52 234.924 220.032 233.02 220.032C231.116 220.032 229.42 221.52 229.42 224.128C229.42 226.704 231.116 228.192 233.02 228.192ZM233.02 227.104C231.692 227.104 230.78 225.904 230.78 224.128C230.78 222.336 231.692 221.12 233.02 221.12C234.364 221.12 235.26 222.336 235.26 224.128C235.26 225.904 234.364 227.104 233.02 227.104ZM239.023 228H240.335V223.008C240.863 221.696 241.647 221.216 242.303 221.216C242.623 221.216 242.799 221.264 243.055 221.344L243.311 220.192C243.055 220.08 242.815 220.032 242.479 220.032C241.599 220.032 240.799 220.656 240.271 221.632H240.223L240.111 220.224H239.023V228ZM244.926 228H246.238V222.368C246.958 221.568 247.614 221.168 248.19 221.168C249.182 221.168 249.646 221.792 249.646 223.248V228H250.958V222.368C251.678 221.568 252.302 221.168 252.91 221.168C253.886 221.168 254.35 221.792 254.35 223.248V228H255.662V223.072C255.662 221.088 254.894 220.032 253.294 220.032C252.35 220.032 251.55 220.64 250.734 221.52C250.414 220.592 249.774 220.032 248.59 220.032C247.662 220.032 246.846 220.608 246.174 221.344H246.126L246.014 220.224H244.926V228ZM258.547 228H259.859V220.224H258.547V228ZM259.219 218.624C259.731 218.624 260.131 218.272 260.131 217.776C260.131 217.264 259.731 216.928 259.219 216.928C258.707 216.928 258.307 217.264 258.307 217.776C258.307 218.272 258.707 218.624 259.219 218.624ZM262.84 228H264.152V222.368C264.936 221.584 265.48 221.168 266.28 221.168C267.304 221.168 267.752 221.792 267.752 223.248V228H269.064V223.072C269.064 221.088 268.328 220.032 266.696 220.032C265.624 220.032 264.824 220.608 264.088 221.344H264.04L263.928 220.224H262.84V228ZM274.569 231.584C276.985 231.584 278.505 230.336 278.505 228.896C278.505 227.6 277.593 227.04 275.785 227.04H274.281C273.225 227.04 272.905 226.688 272.905 226.192C272.905 225.76 273.129 225.504 273.401 225.264C273.753 225.44 274.185 225.536 274.569 225.536C276.153 225.536 277.417 224.496 277.417 222.832C277.417 222.176 277.145 221.584 276.777 221.232H278.377V220.224H275.673C275.385 220.112 275.001 220.032 274.569 220.032C272.985 220.032 271.641 221.104 271.641 222.8C271.641 223.728 272.137 224.48 272.649 224.896V224.96C272.249 225.232 271.801 225.744 271.801 226.4C271.801 227.008 272.105 227.424 272.489 227.664V227.728C271.785 228.208 271.353 228.832 271.353 229.488C271.353 230.832 272.665 231.584 274.569 231.584ZM274.569 224.656C273.673 224.656 272.921 223.936 272.921 222.8C272.921 221.664 273.657 220.992 274.569 220.992C275.481 220.992 276.217 221.664 276.217 222.8C276.217 223.936 275.465 224.656 274.569 224.656ZM274.761 230.672C273.353 230.672 272.505 230.144 272.505 229.312C272.505 228.864 272.745 228.4 273.305 228C273.641 228.096 274.009 228.128 274.313 228.128H275.657C276.665 228.128 277.225 228.368 277.225 229.088C277.225 229.904 276.249 230.672 274.761 230.672Z" fill="#858585"/>
<path d="M340.881 202H342.209V197.84H343.937C346.241 197.84 347.809 196.8 347.809 194.592C347.809 192.288 346.225 191.504 343.873 191.504H340.881V202ZM342.209 196.752V192.576H343.713C345.553 192.576 346.481 193.072 346.481 194.592C346.481 196.08 345.601 196.752 343.777 196.752H342.209ZM351.275 202.192C352.251 202.192 353.115 201.68 353.851 201.072H353.899L354.011 202H355.099V197.232C355.099 195.296 354.299 194.032 352.395 194.032C351.147 194.032 350.059 194.576 349.339 195.04L349.851 195.952C350.459 195.536 351.275 195.12 352.171 195.12C353.451 195.12 353.771 196.08 353.771 197.072C350.459 197.44 349.003 198.288 349.003 199.984C349.003 201.376 349.979 202.192 351.275 202.192ZM351.659 201.136C350.891 201.136 350.283 200.768 350.283 199.888C350.283 198.896 351.179 198.256 353.771 197.936V200.096C353.019 200.768 352.411 201.136 351.659 201.136ZM357.901 205.28H359.213V202.656L359.181 201.296C359.901 201.856 360.621 202.192 361.341 202.192C363.117 202.192 364.701 200.64 364.701 198C364.701 195.584 363.629 194.032 361.629 194.032C360.717 194.032 359.853 194.528 359.149 195.12H359.101L358.989 194.224H357.901V205.28ZM361.117 201.088C360.605 201.088 359.917 200.864 359.213 200.272V196.192C359.981 195.504 360.637 195.136 361.293 195.136C362.765 195.136 363.341 196.288 363.341 198C363.341 199.92 362.397 201.088 361.117 201.088ZM370.284 202.192C371.34 202.192 372.172 201.824 372.844 201.392L372.38 200.528C371.804 200.896 371.18 201.136 370.444 201.136C368.956 201.136 367.948 200.08 367.852 198.432H373.1C373.132 198.24 373.148 197.952 373.148 197.68C373.148 195.456 372.028 194.032 370.044 194.032C368.268 194.032 366.556 195.584 366.556 198.128C366.556 200.672 368.204 202.192 370.284 202.192ZM367.836 197.488C367.996 195.952 368.988 195.072 370.076 195.072C371.292 195.072 371.996 195.92 371.996 197.488H367.836ZM375.425 202H376.737V197.008C377.265 195.696 378.049 195.216 378.705 195.216C379.025 195.216 379.201 195.264 379.457 195.344L379.713 194.192C379.457 194.08 379.217 194.032 378.881 194.032C378.001 194.032 377.201 194.656 376.673 195.632H376.625L376.513 194.224H375.425V202ZM385.014 202H386.342V197.84H388.07C390.374 197.84 391.942 196.8 391.942 194.592C391.942 192.288 390.358 191.504 388.006 191.504H385.014V202ZM386.342 196.752V192.576H387.846C389.686 192.576 390.614 193.072 390.614 194.592C390.614 196.08 389.734 196.752 387.91 196.752H386.342ZM394.304 202H395.616V197.008C396.144 195.696 396.928 195.216 397.584 195.216C397.904 195.216 398.08 195.264 398.336 195.344L398.592 194.192C398.336 194.08 398.096 194.032 397.76 194.032C396.88 194.032 396.08 194.656 395.552 195.632H395.504L395.392 194.224H394.304V202ZM403.074 202.192C404.978 202.192 406.674 200.704 406.674 198.128C406.674 195.52 404.978 194.032 403.074 194.032C401.17 194.032 399.474 195.52 399.474 198.128C399.474 200.704 401.17 202.192 403.074 202.192ZM403.074 201.104C401.746 201.104 400.834 199.904 400.834 198.128C400.834 196.336 401.746 195.12 403.074 195.12C404.418 195.12 405.314 196.336 405.314 198.128C405.314 199.904 404.418 201.104 403.074 201.104ZM411.26 202.192C411.74 202.192 412.268 202.048 412.7 201.904L412.444 200.912C412.188 201.008 411.836 201.12 411.564 201.12C410.668 201.12 410.364 200.576 410.364 199.616V195.296H412.46V194.224H410.364V192.048H409.26L409.1 194.224L407.884 194.304V195.296H409.036V199.6C409.036 201.136 409.596 202.192 411.26 202.192ZM417.379 202.192C419.283 202.192 420.979 200.704 420.979 198.128C420.979 195.52 419.283 194.032 417.379 194.032C415.475 194.032 413.779 195.52 413.779 198.128C413.779 200.704 415.475 202.192 417.379 202.192ZM417.379 201.104C416.051 201.104 415.139 199.904 415.139 198.128C415.139 196.336 416.051 195.12 417.379 195.12C418.723 195.12 419.619 196.336 419.619 198.128C419.619 199.904 418.723 201.104 417.379 201.104ZM425.565 202.192C426.045 202.192 426.573 202.048 427.005 201.904L426.749 200.912C426.493 201.008 426.141 201.12 425.869 201.12C424.973 201.12 424.669 200.576 424.669 199.616V195.296H426.765V194.224H424.669V192.048H423.565L423.405 194.224L422.189 194.304V195.296H423.341V199.6C423.341 201.136 423.901 202.192 425.565 202.192ZM429.007 205.344C430.575 205.344 431.375 204.176 431.919 202.64L434.847 194.224H433.567L432.175 198.528C431.967 199.216 431.743 200.016 431.519 200.72H431.455C431.215 200 430.943 199.2 430.703 198.528L429.119 194.224H427.759L430.879 202.016L430.703 202.592C430.383 203.552 429.823 204.256 428.943 204.256C428.751 204.256 428.511 204.192 428.351 204.144L428.095 205.184C428.351 205.28 428.655 205.344 429.007 205.344ZM436.703 205.28H438.015V202.656L437.983 201.296C438.703 201.856 439.423 202.192 440.143 202.192C441.919 202.192 443.503 200.64 443.503 198C443.503 195.584 442.431 194.032 440.431 194.032C439.519 194.032 438.655 194.528 437.951 195.12H437.903L437.791 194.224H436.703V205.28ZM439.919 201.088C439.407 201.088 438.719 200.864 438.015 200.272V196.192C438.783 195.504 439.439 195.136 440.095 195.136C441.567 195.136 442.143 196.288 442.143 198C442.143 199.92 441.199 201.088 439.919 201.088ZM449.086 202.192C450.142 202.192 450.974 201.824 451.646 201.392L451.182 200.528C450.606 200.896 449.982 201.136 449.246 201.136C447.758 201.136 446.75 200.08 446.654 198.432H451.902C451.934 198.24 451.95 197.952 451.95 197.68C451.95 195.456 450.83 194.032 448.846 194.032C447.07 194.032 445.358 195.584 445.358 198.128C445.358 200.672 447.006 202.192 449.086 202.192ZM446.638 197.488C446.798 195.952 447.79 195.072 448.878 195.072C450.094 195.072 450.798 195.92 450.798 197.488H446.638Z" fill="#858585"/>
<path d="M525.972 205H527.556L529.108 198.68C529.284 197.864 529.476 197.112 529.636 196.296H529.7C529.86 197.112 530.02 197.864 530.212 198.68L531.796 205H533.396L535.572 194.504H534.292L533.188 200.216C532.98 201.336 532.788 202.472 532.596 203.608H532.532C532.276 202.472 532.02 201.32 531.764 200.216L530.308 194.504H529.092L527.636 200.216C527.396 201.336 527.14 202.472 526.9 203.608H526.836C526.644 202.472 526.42 201.352 526.228 200.216L525.124 194.504H523.748L525.972 205ZM537.626 205H538.938V197.224H537.626V205ZM538.298 195.624C538.81 195.624 539.21 195.272 539.21 194.776C539.21 194.264 538.81 193.928 538.298 193.928C537.786 193.928 537.386 194.264 537.386 194.776C537.386 195.272 537.786 195.624 538.298 195.624ZM541.103 205H546.991V203.928H542.767L546.863 197.928V197.224H541.551V198.296H545.199L541.103 204.296V205ZM550.489 205.192C551.465 205.192 552.329 204.68 553.065 204.072H553.113L553.225 205H554.313V200.232C554.313 198.296 553.513 197.032 551.609 197.032C550.361 197.032 549.273 197.576 548.553 198.04L549.065 198.952C549.673 198.536 550.489 198.12 551.385 198.12C552.665 198.12 552.985 199.08 552.985 200.072C549.673 200.44 548.217 201.288 548.217 202.984C548.217 204.376 549.193 205.192 550.489 205.192ZM550.873 204.136C550.105 204.136 549.497 203.768 549.497 202.888C549.497 201.896 550.393 201.256 552.985 200.936V203.096C552.233 203.768 551.625 204.136 550.873 204.136ZM557.115 205H558.427V200.008C558.955 198.696 559.739 198.216 560.395 198.216C560.715 198.216 560.891 198.264 561.147 198.344L561.403 197.192C561.147 197.08 560.907 197.032 560.571 197.032C559.691 197.032 558.891 197.656 558.363 198.632H558.315L558.203 197.224H557.115V205ZM565.517 205.192C566.429 205.192 567.261 204.68 567.869 204.088H567.917L568.029 205H569.117V193.608H567.789V196.6L567.853 197.928C567.165 197.368 566.573 197.032 565.677 197.032C563.901 197.032 562.301 198.6 562.301 201.128C562.301 203.72 563.565 205.192 565.517 205.192ZM565.805 204.088C564.445 204.088 563.661 202.968 563.661 201.112C563.661 199.336 564.653 198.136 565.901 198.136C566.541 198.136 567.133 198.36 567.789 198.952V203.016C567.149 203.736 566.525 204.088 565.805 204.088ZM578.674 205.192C580.578 205.192 582.274 203.704 582.274 201.128C582.274 198.52 580.578 197.032 578.674 197.032C576.77 197.032 575.074 198.52 575.074 201.128C575.074 203.704 576.77 205.192 578.674 205.192ZM578.674 204.104C577.346 204.104 576.434 202.904 576.434 201.128C576.434 199.336 577.346 198.12 578.674 198.12C580.018 198.12 580.914 199.336 580.914 201.128C580.914 202.904 580.018 204.104 578.674 204.104ZM584.901 205H586.213V198.296H587.861V197.224H586.213V195.992C586.213 195 586.565 194.488 587.301 194.488C587.589 194.488 587.893 194.552 588.181 194.68L588.469 193.672C588.117 193.528 587.653 193.416 587.173 193.416C585.621 193.416 584.901 194.408 584.901 195.992V197.224L583.845 197.304V198.296H584.901V205ZM597.264 205.192C599.904 205.192 601.76 203.08 601.76 199.704C601.76 196.36 599.904 194.312 597.264 194.312C594.624 194.312 592.784 196.344 592.784 199.704C592.784 203.08 594.624 205.192 597.264 205.192ZM597.264 204.024C595.392 204.024 594.16 202.328 594.16 199.704C594.16 197.096 595.392 195.48 597.264 195.48C599.136 195.48 600.368 197.096 600.368 199.704C600.368 202.328 599.136 204.024 597.264 204.024ZM603.319 205H609.207V203.928H604.983L609.079 197.928V197.224H603.767V198.296H607.415L603.319 204.296V205Z" fill="#858585"/>
<path d="M538.619 231H539.947V226.84H541.675C543.979 226.84 545.547 225.8 545.547 223.592C545.547 221.288 543.963 220.504 541.611 220.504H538.619V231ZM539.947 225.752V221.576H541.451C543.291 221.576 544.219 222.072 544.219 223.592C544.219 225.08 543.339 225.752 541.515 225.752H539.947ZM549.301 231.192C549.653 231.192 549.877 231.144 550.053 231.064L549.877 230.072C549.733 230.104 549.669 230.104 549.589 230.104C549.397 230.104 549.221 229.944 549.221 229.528V219.608H547.909V229.432C547.909 230.568 548.309 231.192 549.301 231.192ZM554.135 231.192C555.111 231.192 555.975 230.68 556.711 230.072H556.759L556.871 231H557.959V226.232C557.959 224.296 557.159 223.032 555.255 223.032C554.007 223.032 552.919 223.576 552.199 224.04L552.711 224.952C553.319 224.536 554.135 224.12 555.031 224.12C556.311 224.12 556.631 225.08 556.631 226.072C553.319 226.44 551.863 227.288 551.863 228.984C551.863 230.376 552.839 231.192 554.135 231.192ZM554.519 230.136C553.751 230.136 553.143 229.768 553.143 228.888C553.143 227.896 554.039 227.256 556.631 226.936V229.096C555.879 229.768 555.271 230.136 554.519 230.136ZM560.889 234.344C562.457 234.344 563.257 233.176 563.801 231.64L566.729 223.224H565.449L564.057 227.528C563.849 228.216 563.625 229.016 563.401 229.72H563.337C563.097 229 562.825 228.2 562.585 227.528L561.001 223.224H559.641L562.761 231.016L562.585 231.592C562.265 232.552 561.705 233.256 560.825 233.256C560.633 233.256 560.393 233.192 560.233 233.144L559.977 234.184C560.233 234.28 560.537 234.344 560.889 234.344ZM574.592 231.192C575.072 231.192 575.6 231.048 576.032 230.904L575.776 229.912C575.52 230.008 575.168 230.12 574.896 230.12C574 230.12 573.696 229.576 573.696 228.616V224.296H575.792V223.224H573.696V221.048H572.592L572.432 223.224L571.216 223.304V224.296H572.368V228.6C572.368 230.136 572.928 231.192 574.592 231.192ZM580.839 231.192C581.895 231.192 582.727 230.824 583.399 230.392L582.935 229.528C582.359 229.896 581.735 230.136 580.999 230.136C579.511 230.136 578.503 229.08 578.407 227.432H583.655C583.687 227.24 583.703 226.952 583.703 226.68C583.703 224.456 582.583 223.032 580.599 223.032C578.823 223.032 577.111 224.584 577.111 227.128C577.111 229.672 578.759 231.192 580.839 231.192ZM578.391 226.488C578.551 224.952 579.543 224.072 580.631 224.072C581.847 224.072 582.551 224.92 582.551 226.488H578.391ZM588.012 231.192C589.852 231.192 590.86 230.136 590.86 228.872C590.86 227.4 589.612 226.936 588.492 226.52C587.612 226.184 586.764 225.912 586.764 225.176C586.764 224.584 587.212 224.056 588.188 224.056C588.876 224.056 589.436 224.344 589.964 224.744L590.588 223.912C589.996 223.432 589.148 223.032 588.172 223.032C586.492 223.032 585.5 223.992 585.5 225.24C585.5 226.552 586.716 227.08 587.82 227.48C588.668 227.8 589.596 228.152 589.596 228.952C589.596 229.624 589.084 230.168 588.06 230.168C587.132 230.168 586.444 229.784 585.772 229.24L585.116 230.12C585.852 230.728 586.908 231.192 588.012 231.192ZM595.174 231.192C595.654 231.192 596.182 231.048 596.614 230.904L596.358 229.912C596.102 230.008 595.75 230.12 595.478 230.12C594.582 230.12 594.278 229.576 594.278 228.616V224.296H596.374V223.224H594.278V221.048H593.174L593.014 223.224L591.798 223.304V224.296H592.95V228.6C592.95 230.136 593.51 231.192 595.174 231.192Z" fill="#858585"/>
<path d="M716.678 199.128C717.062 197.96 717.398 196.808 717.718 195.592H717.782C718.118 196.808 718.454 197.96 718.838 199.128L719.334 200.728H716.182L716.678 199.128ZM713.478 205H714.838L715.846 201.8H719.67L720.662 205H722.086L718.534 194.504H717.03L713.478 205ZM726.424 208.584C728.84 208.584 730.36 207.336 730.36 205.896C730.36 204.6 729.448 204.04 727.64 204.04H726.136C725.08 204.04 724.76 203.688 724.76 203.192C724.76 202.76 724.984 202.504 725.256 202.264C725.608 202.44 726.04 202.536 726.424 202.536C728.008 202.536 729.272 201.496 729.272 199.832C729.272 199.176 729 198.584 728.632 198.232H730.232V197.224H727.528C727.24 197.112 726.856 197.032 726.424 197.032C724.84 197.032 723.496 198.104 723.496 199.8C723.496 200.728 723.992 201.48 724.504 201.896V201.96C724.104 202.232 723.656 202.744 723.656 203.4C723.656 204.008 723.96 204.424 724.344 204.664V204.728C723.64 205.208 723.208 205.832 723.208 206.488C723.208 207.832 724.52 208.584 726.424 208.584ZM726.424 201.656C725.528 201.656 724.776 200.936 724.776 199.8C724.776 198.664 725.512 197.992 726.424 197.992C727.336 197.992 728.072 198.664 728.072 199.8C728.072 200.936 727.32 201.656 726.424 201.656ZM726.616 207.672C725.208 207.672 724.36 207.144 724.36 206.312C724.36 205.864 724.6 205.4 725.16 205C725.496 205.096 725.864 205.128 726.168 205.128H727.512C728.52 205.128 729.08 205.368 729.08 206.088C729.08 206.904 728.104 207.672 726.616 207.672ZM732.218 205H733.53V197.224H732.218V205ZM732.89 195.624C733.402 195.624 733.802 195.272 733.802 194.776C733.802 194.264 733.402 193.928 732.89 193.928C732.378 193.928 731.978 194.264 731.978 194.776C731.978 195.272 732.378 195.624 732.89 195.624ZM737.903 205.192C738.255 205.192 738.479 205.144 738.655 205.064L738.479 204.072C738.335 204.104 738.271 204.104 738.191 204.104C737.999 204.104 737.823 203.944 737.823 203.528V193.608H736.511V203.432C736.511 204.568 736.911 205.192 737.903 205.192ZM744.097 205.192C745.153 205.192 745.985 204.824 746.657 204.392L746.193 203.528C745.617 203.896 744.993 204.136 744.257 204.136C742.769 204.136 741.761 203.08 741.665 201.432H746.913C746.945 201.24 746.961 200.952 746.961 200.68C746.961 198.456 745.841 197.032 743.857 197.032C742.081 197.032 740.369 198.584 740.369 201.128C740.369 203.672 742.017 205.192 744.097 205.192ZM741.649 200.488C741.809 198.952 742.801 198.072 743.889 198.072C745.105 198.072 745.809 198.92 745.809 200.488H741.649Z" fill="#858585"/>
<path d="M341.594 228H342.794V222.224C342.794 221.296 342.698 220.048 342.634 219.12H342.698L343.53 221.504L345.514 226.944H346.394L348.378 221.504L349.21 219.12H349.274C349.21 220.048 349.098 221.296 349.098 222.224V228H350.346V217.504H348.73L346.746 223.104C346.49 223.824 346.282 224.576 346.026 225.296H345.962C345.706 224.576 345.466 223.824 345.21 223.104L343.194 217.504H341.594V228ZM353.446 228H354.758V220.224H353.446V228ZM354.118 218.624C354.63 218.624 355.03 218.272 355.03 217.776C355.03 217.264 354.63 216.928 354.118 216.928C353.606 216.928 353.206 217.264 353.206 217.776C353.206 218.272 353.606 218.624 354.118 218.624ZM360.395 228.192C361.307 228.192 362.139 227.68 362.747 227.088H362.795L362.907 228H363.995V216.608H362.667V219.6L362.731 220.928C362.043 220.368 361.451 220.032 360.555 220.032C358.779 220.032 357.179 221.6 357.179 224.128C357.179 226.72 358.443 228.192 360.395 228.192ZM360.683 227.088C359.323 227.088 358.539 225.968 358.539 224.112C358.539 222.336 359.531 221.136 360.779 221.136C361.419 221.136 362.011 221.36 362.667 221.952V226.016C362.027 226.736 361.403 227.088 360.683 227.088ZM366.314 224.496H369.994V223.488H366.314V224.496ZM372.518 228H373.83V221.296H375.478V220.224H373.83V218.992C373.83 218 374.182 217.488 374.918 217.488C375.206 217.488 375.51 217.552 375.798 217.68L376.086 216.672C375.734 216.528 375.27 216.416 374.79 216.416C373.238 216.416 372.518 217.408 372.518 218.992V220.224L371.462 220.304V221.296H372.518V228ZM377.322 228H378.634V220.224H377.322V228ZM377.994 218.624C378.506 218.624 378.906 218.272 378.906 217.776C378.906 217.264 378.506 216.928 377.994 216.928C377.482 216.928 377.082 217.264 377.082 217.776C377.082 218.272 377.482 218.624 377.994 218.624ZM385.301 228H386.629V223.84H388.357C390.661 223.84 392.229 222.8 392.229 220.592C392.229 218.288 390.645 217.504 388.293 217.504H385.301V228ZM386.629 222.752V218.576H388.133C389.973 218.576 390.901 219.072 390.901 220.592C390.901 222.08 390.021 222.752 388.197 222.752H386.629ZM394.591 228H395.903V223.008C396.431 221.696 397.215 221.216 397.871 221.216C398.191 221.216 398.367 221.264 398.623 221.344L398.879 220.192C398.623 220.08 398.383 220.032 398.047 220.032C397.167 220.032 396.367 220.656 395.839 221.632H395.791L395.679 220.224H394.591V228ZM403.362 228.192C405.266 228.192 406.962 226.704 406.962 224.128C406.962 221.52 405.266 220.032 403.362 220.032C401.458 220.032 399.762 221.52 399.762 224.128C399.762 226.704 401.458 228.192 403.362 228.192ZM403.362 227.104C402.034 227.104 401.122 225.904 401.122 224.128C401.122 222.336 402.034 221.12 403.362 221.12C404.706 221.12 405.602 222.336 405.602 224.128C405.602 225.904 404.706 227.104 403.362 227.104ZM411.547 228.192C412.027 228.192 412.555 228.048 412.987 227.904L412.731 226.912C412.475 227.008 412.123 227.12 411.851 227.12C410.955 227.12 410.651 226.576 410.651 225.616V221.296H412.747V220.224H410.651V218.048H409.547L409.387 220.224L408.171 220.304V221.296H409.323V225.6C409.323 227.136 409.883 228.192 411.547 228.192ZM417.666 228.192C419.57 228.192 421.266 226.704 421.266 224.128C421.266 221.52 419.57 220.032 417.666 220.032C415.762 220.032 414.066 221.52 414.066 224.128C414.066 226.704 415.762 228.192 417.666 228.192ZM417.666 227.104C416.338 227.104 415.426 225.904 415.426 224.128C415.426 222.336 416.338 221.12 417.666 221.12C419.01 221.12 419.906 222.336 419.906 224.128C419.906 225.904 419.01 227.104 417.666 227.104ZM425.852 228.192C426.332 228.192 426.86 228.048 427.292 227.904L427.036 226.912C426.78 227.008 426.428 227.12 426.156 227.12C425.26 227.12 424.956 226.576 424.956 225.616V221.296H427.052V220.224H424.956V218.048H423.852L423.692 220.224L422.476 220.304V221.296H423.628V225.6C423.628 227.136 424.188 228.192 425.852 228.192ZM429.294 231.344C430.862 231.344 431.662 230.176 432.206 228.64L435.134 220.224H433.854L432.462 224.528C432.254 225.216 432.03 226.016 431.806 226.72H431.742C431.502 226 431.23 225.2 430.99 224.528L429.406 220.224H428.046L431.166 228.016L430.99 228.592C430.67 229.552 430.11 230.256 429.23 230.256C429.038 230.256 428.798 230.192 428.638 230.144L428.382 231.184C428.638 231.28 428.942 231.344 429.294 231.344ZM436.99 231.28H438.302V228.656L438.27 227.296C438.99 227.856 439.71 228.192 440.43 228.192C442.206 228.192 443.79 226.64 443.79 224C443.79 221.584 442.718 220.032 440.718 220.032C439.806 220.032 438.942 220.528 438.238 221.12H438.19L438.078 220.224H436.99V231.28ZM440.206 227.088C439.694 227.088 439.006 226.864 438.302 226.272V222.192C439.07 221.504 439.726 221.136 440.382 221.136C441.854 221.136 442.43 222.288 442.43 224C442.43 225.92 441.486 227.088 440.206 227.088ZM449.373 228.192C450.429 228.192 451.261 227.824 451.933 227.392L451.469 226.528C450.893 226.896 450.269 227.136 449.533 227.136C448.045 227.136 447.037 226.08 446.941 224.432H452.189C452.221 224.24 452.237 223.952 452.237 223.68C452.237 221.456 451.117 220.032 449.133 220.032C447.357 220.032 445.645 221.584 445.645 224.128C445.645 226.672 447.293 228.192 449.373 228.192ZM446.925 223.488C447.085 221.952 448.077 221.072 449.165 221.072C450.381 221.072 451.085 221.92 451.085 223.488H446.925Z" fill="#858585"/>
<path d="M344.803 254H346.131V249.056H351.011V254H352.355V243.504H351.011V247.904H346.131V243.504H344.803V254ZM355.468 254H356.78V246.224H355.468V254ZM356.14 244.624C356.652 244.624 357.052 244.272 357.052 243.776C357.052 243.264 356.652 242.928 356.14 242.928C355.628 242.928 355.228 243.264 355.228 243.776C355.228 244.272 355.628 244.624 356.14 244.624ZM359.105 250.496H362.785V249.488H359.105V250.496ZM365.085 254H366.397V246.224H365.085V254ZM365.757 244.624C366.269 244.624 366.669 244.272 366.669 243.776C366.669 243.264 366.269 242.928 365.757 242.928C365.245 242.928 364.845 243.264 364.845 243.776C364.845 244.272 365.245 244.624 365.757 244.624ZM369.602 254H370.914V247.296H372.562V246.224H370.914V244.992C370.914 244 371.266 243.488 372.002 243.488C372.29 243.488 372.594 243.552 372.882 243.68L373.17 242.672C372.818 242.528 372.354 242.416 371.874 242.416C370.322 242.416 369.602 243.408 369.602 244.992V246.224L368.546 246.304V247.296H369.602V254ZM378.092 254H379.42V249.84H381.148C383.452 249.84 385.02 248.8 385.02 246.592C385.02 244.288 383.436 243.504 381.084 243.504H378.092V254ZM379.42 248.752V244.576H380.924C382.764 244.576 383.692 245.072 383.692 246.592C383.692 248.08 382.812 248.752 380.988 248.752H379.42ZM387.382 254H388.694V249.008C389.222 247.696 390.006 247.216 390.662 247.216C390.982 247.216 391.158 247.264 391.414 247.344L391.67 246.192C391.414 246.08 391.174 246.032 390.838 246.032C389.958 246.032 389.158 246.656 388.63 247.632H388.582L388.47 246.224H387.382V254ZM396.152 254.192C398.056 254.192 399.752 252.704 399.752 250.128C399.752 247.52 398.056 246.032 396.152 246.032C394.248 246.032 392.552 247.52 392.552 250.128C392.552 252.704 394.248 254.192 396.152 254.192ZM396.152 253.104C394.824 253.104 393.912 251.904 393.912 250.128C393.912 248.336 394.824 247.12 396.152 247.12C397.496 247.12 398.392 248.336 398.392 250.128C398.392 251.904 397.496 253.104 396.152 253.104ZM404.338 254.192C404.818 254.192 405.346 254.048 405.778 253.904L405.522 252.912C405.266 253.008 404.914 253.12 404.642 253.12C403.746 253.12 403.442 252.576 403.442 251.616V247.296H405.538V246.224H403.442V244.048H402.338L402.178 246.224L400.962 246.304V247.296H402.114V251.6C402.114 253.136 402.674 254.192 404.338 254.192ZM410.457 254.192C412.361 254.192 414.057 252.704 414.057 250.128C414.057 247.52 412.361 246.032 410.457 246.032C408.553 246.032 406.857 247.52 406.857 250.128C406.857 252.704 408.553 254.192 410.457 254.192ZM410.457 253.104C409.129 253.104 408.217 251.904 408.217 250.128C408.217 248.336 409.129 247.12 410.457 247.12C411.801 247.12 412.697 248.336 412.697 250.128C412.697 251.904 411.801 253.104 410.457 253.104ZM418.643 254.192C419.123 254.192 419.651 254.048 420.083 253.904L419.827 252.912C419.571 253.008 419.219 253.12 418.947 253.12C418.051 253.12 417.747 252.576 417.747 251.616V247.296H419.843V246.224H417.747V244.048H416.643L416.483 246.224L415.267 246.304V247.296H416.419V251.6C416.419 253.136 416.979 254.192 418.643 254.192ZM422.085 257.344C423.653 257.344 424.453 256.176 424.997 254.64L427.925 246.224H426.645L425.253 250.528C425.045 251.216 424.821 252.016 424.597 252.72H424.533C424.293 252 424.021 251.2 423.781 250.528L422.197 246.224H420.837L423.957 254.016L423.781 254.592C423.461 255.552 422.901 256.256 422.021 256.256C421.829 256.256 421.589 256.192 421.429 256.144L421.173 257.184C421.429 257.28 421.733 257.344 422.085 257.344ZM429.781 257.28H431.093V254.656L431.061 253.296C431.781 253.856 432.501 254.192 433.221 254.192C434.997 254.192 436.581 252.64 436.581 250C436.581 247.584 435.509 246.032 433.509 246.032C432.597 246.032 431.733 246.528 431.029 247.12H430.981L430.869 246.224H429.781V257.28ZM432.997 253.088C432.485 253.088 431.797 252.864 431.093 252.272V248.192C431.861 247.504 432.517 247.136 433.173 247.136C434.645 247.136 435.221 248.288 435.221 250C435.221 251.92 434.277 253.088 432.997 253.088ZM442.164 254.192C443.22 254.192 444.052 253.824 444.724 253.392L444.26 252.528C443.684 252.896 443.06 253.136 442.324 253.136C440.836 253.136 439.828 252.08 439.732 250.432H444.98C445.012 250.24 445.028 249.952 445.028 249.68C445.028 247.456 443.908 246.032 441.924 246.032C440.148 246.032 438.436 247.584 438.436 250.128C438.436 252.672 440.084 254.192 442.164 254.192ZM439.716 249.488C439.876 247.952 440.868 247.072 441.956 247.072C443.172 247.072 443.876 247.92 443.876 249.488H439.716Z" fill="#858585"/>
<path d="M16.5678 231.192C18.7118 231.192 20.3278 230.04 20.3278 226.664V220.504H19.0478V226.696C19.0478 229.224 17.9598 230.024 16.5678 230.024C15.1918 230.024 14.1198 229.224 14.1198 226.696V220.504H12.7918V226.664C12.7918 230.04 14.4238 231.192 16.5678 231.192ZM25.3494 231.192C27.1894 231.192 28.1974 230.136 28.1974 228.872C28.1974 227.4 26.9494 226.936 25.8294 226.52C24.9494 226.184 24.1014 225.912 24.1014 225.176C24.1014 224.584 24.5494 224.056 25.5254 224.056C26.2134 224.056 26.7734 224.344 27.3014 224.744L27.9254 223.912C27.3334 223.432 26.4854 223.032 25.5094 223.032C23.8294 223.032 22.8374 223.992 22.8374 225.24C22.8374 226.552 24.0534 227.08 25.1574 227.48C26.0054 227.8 26.9334 228.152 26.9334 228.952C26.9334 229.624 26.4214 230.168 25.3974 230.168C24.4694 230.168 23.7814 229.784 23.1094 229.24L22.4534 230.12C23.1894 230.728 24.2454 231.192 25.3494 231.192ZM33.5281 231.192C34.5841 231.192 35.4161 230.824 36.0881 230.392L35.6241 229.528C35.0481 229.896 34.4241 230.136 33.6881 230.136C32.2001 230.136 31.1921 229.08 31.0961 227.432H36.3441C36.3761 227.24 36.3921 226.952 36.3921 226.68C36.3921 224.456 35.2721 223.032 33.2881 223.032C31.5121 223.032 29.8001 224.584 29.8001 227.128C29.8001 229.672 31.4481 231.192 33.5281 231.192ZM31.0801 226.488C31.2401 224.952 32.2321 224.072 33.3201 224.072C34.5361 224.072 35.2401 224.92 35.2401 226.488H31.0801ZM38.6691 231H39.9811V226.008C40.5091 224.696 41.2931 224.216 41.9491 224.216C42.2691 224.216 42.4451 224.264 42.7011 224.344L42.9571 223.192C42.7011 223.08 42.4611 223.032 42.1251 223.032C41.2451 223.032 40.4451 223.656 39.9171 224.632H39.8691L39.7571 223.224H38.6691V231ZM48.2582 231H49.5862V220.504H48.2582V231ZM52.6889 231H54.0009V225.368C54.7849 224.584 55.3289 224.168 56.1289 224.168C57.1529 224.168 57.6009 224.792 57.6009 226.248V231H58.9129V226.072C58.9129 224.088 58.1769 223.032 56.5449 223.032C55.4729 223.032 54.6729 223.608 53.9369 224.344H53.8889L53.7769 223.224H52.6889V231ZM64.2425 231.192C64.7225 231.192 65.2505 231.048 65.6825 230.904L65.4265 229.912C65.1705 230.008 64.8185 230.12 64.5465 230.12C63.6505 230.12 63.3465 229.576 63.3465 228.616V224.296H65.4425V223.224H63.3465V221.048H62.2425L62.0825 223.224L60.8665 223.304V224.296H62.0185V228.6C62.0185 230.136 62.5785 231.192 64.2425 231.192ZM70.4895 231.192C71.5455 231.192 72.3775 230.824 73.0495 230.392L72.5855 229.528C72.0095 229.896 71.3855 230.136 70.6495 230.136C69.1615 230.136 68.1535 229.08 68.0575 227.432H73.3055C73.3375 227.24 73.3535 226.952 73.3535 226.68C73.3535 224.456 72.2335 223.032 70.2495 223.032C68.4735 223.032 66.7615 224.584 66.7615 227.128C66.7615 229.672 68.4095 231.192 70.4895 231.192ZM68.0415 226.488C68.2015 224.952 69.1935 224.072 70.2815 224.072C71.4975 224.072 72.2015 224.92 72.2015 226.488H68.0415ZM75.6306 231H76.9426V226.008C77.4706 224.696 78.2546 224.216 78.9106 224.216C79.2306 224.216 79.4066 224.264 79.6626 224.344L79.9186 223.192C79.6626 223.08 79.4226 223.032 79.0866 223.032C78.2066 223.032 77.4066 223.656 76.8786 224.632H76.8306L76.7186 223.224H75.6306V231ZM83.6193 231H85.1553L87.9073 223.224H86.6113L85.1393 227.64C84.9153 228.408 84.6593 229.192 84.4353 229.928H84.3713C84.1313 229.192 83.8753 228.408 83.6513 227.64L82.1793 223.224H80.8193L83.6193 231ZM89.7636 231H91.0756V223.224H89.7636V231ZM90.4356 221.624C90.9476 221.624 91.3476 221.272 91.3476 220.776C91.3476 220.264 90.9476 219.928 90.4356 219.928C89.9236 219.928 89.5236 220.264 89.5236 220.776C89.5236 221.272 89.9236 221.624 90.4356 221.624ZM97.2086 231.192C98.2646 231.192 99.0966 230.824 99.7686 230.392L99.3046 229.528C98.7286 229.896 98.1046 230.136 97.3686 230.136C95.8806 230.136 94.8726 229.08 94.7766 227.432H100.025C100.057 227.24 100.073 226.952 100.073 226.68C100.073 224.456 98.9526 223.032 96.9686 223.032C95.1926 223.032 93.4806 224.584 93.4806 227.128C93.4806 229.672 95.1286 231.192 97.2086 231.192ZM94.7606 226.488C94.9206 224.952 95.9126 224.072 97.0006 224.072C98.2166 224.072 98.9206 224.92 98.9206 226.488H94.7606ZM103.66 231H105.196L106.284 226.84C106.492 226.104 106.652 225.368 106.828 224.584H106.892C107.084 225.368 107.228 226.088 107.42 226.824L108.54 231H110.14L112.22 223.224H110.972L109.836 227.72C109.676 228.456 109.532 229.16 109.356 229.88H109.292C109.116 229.16 108.94 228.456 108.748 227.72L107.532 223.224H106.252L105.052 227.72C104.86 228.44 104.7 229.16 104.524 229.88H104.46C104.316 229.16 104.172 228.456 103.996 227.72L102.844 223.224H101.5L103.66 231Z" fill="#858585"/>
<path d="M22.6202 283.192C25.2602 283.192 27.1162 281.08 27.1162 277.704C27.1162 274.36 25.2602 272.312 22.6202 272.312C19.9802 272.312 18.1402 274.344 18.1402 277.704C18.1402 281.08 19.9802 283.192 22.6202 283.192ZM22.6202 282.024C20.7482 282.024 19.5162 280.328 19.5162 277.704C19.5162 275.096 20.7482 273.48 22.6202 273.48C24.4922 273.48 25.7242 275.096 25.7242 277.704C25.7242 280.328 24.4922 282.024 22.6202 282.024ZM33.0407 283.192C34.8167 283.192 36.4007 281.64 36.4007 278.984C36.4007 276.584 35.3287 275.032 33.3127 275.032C32.4487 275.032 31.5847 275.496 30.8807 276.12L30.9127 274.712V271.608H29.6007V283H30.6567L30.7687 282.2H30.8167C31.5047 282.824 32.3207 283.192 33.0407 283.192ZM32.8167 282.088C32.3047 282.088 31.6007 281.864 30.9127 281.272V277.192C31.6487 276.504 32.3367 276.136 32.9927 276.136C34.4647 276.136 35.0407 277.288 35.0407 279C35.0407 280.92 34.0967 282.088 32.8167 282.088ZM40.832 283.192C42.672 283.192 43.68 282.136 43.68 280.872C43.68 279.4 42.432 278.936 41.312 278.52C40.432 278.184 39.584 277.912 39.584 277.176C39.584 276.584 40.032 276.056 41.008 276.056C41.696 276.056 42.256 276.344 42.784 276.744L43.408 275.912C42.816 275.432 41.968 275.032 40.992 275.032C39.312 275.032 38.32 275.992 38.32 277.24C38.32 278.552 39.536 279.08 40.64 279.48C41.488 279.8 42.416 280.152 42.416 280.952C42.416 281.624 41.904 282.168 40.88 282.168C39.952 282.168 39.264 281.784 38.592 281.24L37.936 282.12C38.672 282.728 39.728 283.192 40.832 283.192ZM49.0107 283.192C50.0667 283.192 50.8987 282.824 51.5707 282.392L51.1067 281.528C50.5307 281.896 49.9067 282.136 49.1707 282.136C47.6827 282.136 46.6747 281.08 46.5787 279.432H51.8267C51.8587 279.24 51.8747 278.952 51.8747 278.68C51.8747 276.456 50.7547 275.032 48.7707 275.032C46.9947 275.032 45.2827 276.584 45.2827 279.128C45.2827 281.672 46.9307 283.192 49.0107 283.192ZM46.5627 278.488C46.7227 276.952 47.7147 276.072 48.8027 276.072C50.0187 276.072 50.7227 276.92 50.7227 278.488H46.5627ZM54.1518 283H55.4638V278.008C55.9918 276.696 56.7758 276.216 57.4318 276.216C57.7518 276.216 57.9278 276.264 58.1838 276.344L58.4398 275.192C58.1838 275.08 57.9438 275.032 57.6078 275.032C56.7278 275.032 55.9278 275.656 55.3998 276.632H55.3518L55.2398 275.224H54.1518V283ZM62.1404 283H63.6764L66.4284 275.224H65.1324L63.6604 279.64C63.4364 280.408 63.1804 281.192 62.9564 281.928H62.8924C62.6524 281.192 62.3964 280.408 62.1724 279.64L60.7004 275.224H59.3404L62.1404 283ZM69.7642 283.192C70.7402 283.192 71.6042 282.68 72.3402 282.072H72.3882L72.5002 283H73.5882V278.232C73.5882 276.296 72.7882 275.032 70.8842 275.032C69.6362 275.032 68.5482 275.576 67.8282 276.04L68.3402 276.952C68.9482 276.536 69.7642 276.12 70.6602 276.12C71.9402 276.12 72.2602 277.08 72.2602 278.072C68.9482 278.44 67.4922 279.288 67.4922 280.984C67.4922 282.376 68.4682 283.192 69.7642 283.192ZM70.1482 282.136C69.3802 282.136 68.7722 281.768 68.7722 280.888C68.7722 279.896 69.6682 279.256 72.2602 278.936V281.096C71.5082 281.768 70.9002 282.136 70.1482 282.136ZM78.6195 283.192C79.0995 283.192 79.6275 283.048 80.0595 282.904L79.8035 281.912C79.5475 282.008 79.1955 282.12 78.9235 282.12C78.0275 282.12 77.7235 281.576 77.7235 280.616V276.296H79.8195V275.224H77.7235V273.048H76.6195L76.4595 275.224L75.2435 275.304V276.296H76.3955V280.6C76.3955 282.136 76.9555 283.192 78.6195 283.192ZM81.9334 283H83.2454V275.224H81.9334V283ZM82.6054 273.624C83.1174 273.624 83.5174 273.272 83.5174 272.776C83.5174 272.264 83.1174 271.928 82.6054 271.928C82.0934 271.928 81.6934 272.264 81.6934 272.776C81.6934 273.272 82.0934 273.624 82.6054 273.624ZM89.2504 283.192C91.1544 283.192 92.8504 281.704 92.8504 279.128C92.8504 276.52 91.1544 275.032 89.2504 275.032C87.3464 275.032 85.6504 276.52 85.6504 279.128C85.6504 281.704 87.3464 283.192 89.2504 283.192ZM89.2504 282.104C87.9224 282.104 87.0104 280.904 87.0104 279.128C87.0104 277.336 87.9224 276.12 89.2504 276.12C90.5944 276.12 91.4904 277.336 91.4904 279.128C91.4904 280.904 90.5944 282.104 89.2504 282.104ZM95.2538 283H96.5658V277.368C97.3498 276.584 97.8938 276.168 98.6938 276.168C99.7178 276.168 100.166 276.792 100.166 278.248V283H101.478V278.072C101.478 276.088 100.742 275.032 99.1098 275.032C98.0378 275.032 97.2378 275.608 96.5018 276.344H96.4538L96.3418 275.224H95.2538V283Z" fill="#858585"/>
<path d="M21.6556 310.192C23.0156 310.192 24.0396 309.632 24.8716 308.672L24.1356 307.84C23.4636 308.576 22.7116 309.024 21.7036 309.024C19.7196 309.024 18.4556 307.36 18.4556 304.72C18.4556 302.112 19.7676 300.48 21.7516 300.48C22.6476 300.48 23.3356 300.88 23.8956 301.472L24.6156 300.608C24.0076 299.92 23.0156 299.312 21.7356 299.312C19.0636 299.312 17.0796 301.376 17.0796 304.752C17.0796 308.176 19.0316 310.192 21.6556 310.192ZM28.8478 310.192C29.8238 310.192 30.6878 309.68 31.4238 309.072H31.4718L31.5838 310H32.6718V305.232C32.6718 303.296 31.8718 302.032 29.9678 302.032C28.7198 302.032 27.6318 302.576 26.9118 303.04L27.4238 303.952C28.0318 303.536 28.8478 303.12 29.7438 303.12C31.0238 303.12 31.3438 304.08 31.3438 305.072C28.0318 305.44 26.5758 306.288 26.5758 307.984C26.5758 309.376 27.5518 310.192 28.8478 310.192ZM29.2318 309.136C28.4638 309.136 27.8558 308.768 27.8558 307.888C27.8558 306.896 28.7518 306.256 31.3438 305.936V308.096C30.5918 308.768 29.9838 309.136 29.2318 309.136ZM35.4738 310H36.7858V305.008C37.3138 303.696 38.0978 303.216 38.7538 303.216C39.0738 303.216 39.2498 303.264 39.5058 303.344L39.7618 302.192C39.5058 302.08 39.2658 302.032 38.9298 302.032C38.0498 302.032 37.2498 302.656 36.7218 303.632H36.6738L36.5618 302.224H35.4738V310ZM43.876 310.192C44.788 310.192 45.62 309.68 46.228 309.088H46.276L46.388 310H47.476V298.608H46.148V301.6L46.212 302.928C45.524 302.368 44.932 302.032 44.036 302.032C42.26 302.032 40.66 303.6 40.66 306.128C40.66 308.72 41.924 310.192 43.876 310.192ZM44.164 309.088C42.804 309.088 42.02 307.968 42.02 306.112C42.02 304.336 43.012 303.136 44.26 303.136C44.9 303.136 45.492 303.36 46.148 303.952V308.016C45.508 308.736 44.884 309.088 44.164 309.088ZM57.0492 310.192C59.2572 310.192 60.6172 308.864 60.6172 307.2C60.6172 305.648 59.6732 304.928 58.4572 304.4L56.9692 303.76C56.1372 303.408 55.2252 303.024 55.2252 302.016C55.2252 301.072 56.0092 300.48 57.1772 300.48C58.1532 300.48 58.9212 300.864 59.5612 301.472L60.2812 300.608C59.5292 299.84 58.4252 299.312 57.1772 299.312C55.2732 299.312 53.8812 300.496 53.8812 302.096C53.8812 303.632 55.0172 304.384 56.0092 304.8L57.5132 305.456C58.5052 305.904 59.2572 306.24 59.2572 307.312C59.2572 308.336 58.4412 309.024 57.0652 309.024C55.9772 309.024 54.9212 308.496 54.1692 307.712L53.3692 308.64C54.2812 309.584 55.5772 310.192 57.0492 310.192ZM65.9357 310.192C67.8397 310.192 69.5357 308.704 69.5357 306.128C69.5357 303.52 67.8397 302.032 65.9357 302.032C64.0317 302.032 62.3357 303.52 62.3357 306.128C62.3357 308.704 64.0317 310.192 65.9357 310.192ZM65.9357 309.104C64.6077 309.104 63.6957 307.904 63.6957 306.128C63.6957 304.336 64.6077 303.12 65.9357 303.12C67.2797 303.12 68.1757 304.336 68.1757 306.128C68.1757 307.904 67.2797 309.104 65.9357 309.104ZM71.9391 310H73.2511V305.008C73.7791 303.696 74.5631 303.216 75.2191 303.216C75.5391 303.216 75.7151 303.264 75.9711 303.344L76.2271 302.192C75.9711 302.08 75.7311 302.032 75.3951 302.032C74.5151 302.032 73.7151 302.656 73.1871 303.632H73.1391L73.0271 302.224H71.9391V310ZM80.2895 310.192C80.7695 310.192 81.2975 310.048 81.7295 309.904L81.4735 308.912C81.2175 309.008 80.8655 309.12 80.5935 309.12C79.6975 309.12 79.3935 308.576 79.3935 307.616V303.296H81.4895V302.224H79.3935V300.048H78.2895L78.1295 302.224L76.9135 302.304V303.296H78.0655V307.6C78.0655 309.136 78.6255 310.192 80.2895 310.192ZM83.6033 310H84.9153V302.224H83.6033V310ZM84.2753 300.624C84.7873 300.624 85.1873 300.272 85.1873 299.776C85.1873 299.264 84.7873 298.928 84.2753 298.928C83.7633 298.928 83.3633 299.264 83.3633 299.776C83.3633 300.272 83.7633 300.624 84.2753 300.624ZM87.8964 310H89.2084V304.368C89.9924 303.584 90.5364 303.168 91.3364 303.168C92.3604 303.168 92.8084 303.792 92.8084 305.248V310H94.1204V305.072C94.1204 303.088 93.3844 302.032 91.7524 302.032C90.6804 302.032 89.8804 302.608 89.1444 303.344H89.0964L88.9844 302.224H87.8964V310ZM99.6259 313.584C102.042 313.584 103.562 312.336 103.562 310.896C103.562 309.6 102.65 309.04 100.842 309.04H99.3379C98.2819 309.04 97.9619 308.688 97.9619 308.192C97.9619 307.76 98.1859 307.504 98.4579 307.264C98.8099 307.44 99.2419 307.536 99.6259 307.536C101.21 307.536 102.474 306.496 102.474 304.832C102.474 304.176 102.202 303.584 101.834 303.232H103.434V302.224H100.73C100.442 302.112 100.058 302.032 99.6259 302.032C98.0419 302.032 96.6979 303.104 96.6979 304.8C96.6979 305.728 97.1939 306.48 97.7059 306.896V306.96C97.3059 307.232 96.8579 307.744 96.8579 308.4C96.8579 309.008 97.1619 309.424 97.5459 309.664V309.728C96.8419 310.208 96.4099 310.832 96.4099 311.488C96.4099 312.832 97.7219 313.584 99.6259 313.584ZM99.6259 306.656C98.7299 306.656 97.9779 305.936 97.9779 304.8C97.9779 303.664 98.7139 302.992 99.6259 302.992C100.538 302.992 101.274 303.664 101.274 304.8C101.274 305.936 100.522 306.656 99.6259 306.656ZM99.8179 312.672C98.4099 312.672 97.5619 312.144 97.5619 311.312C97.5619 310.864 97.8019 310.4 98.3619 310C98.6979 310.096 99.0659 310.128 99.3699 310.128H100.714C101.722 310.128 102.282 310.368 102.282 311.088C102.282 311.904 101.306 312.672 99.8179 312.672Z" fill="#858585"/>
<path d="M4.78114 257H10.9891V255.864H6.10914V252.056H10.0931V250.92H6.10914V247.624H10.8291V246.504H4.78114V257ZM11.8582 257H13.2342L14.2902 255.192C14.5462 254.712 14.8022 254.248 15.0742 253.8H15.1382C15.4262 254.248 15.7142 254.728 15.9862 255.192L17.1222 257H18.5462L16.0182 253.08L18.3702 249.224H16.9942L16.0502 250.936C15.8102 251.352 15.5702 251.8 15.3462 252.232H15.2822C15.0102 251.8 14.7542 251.352 14.5142 250.936L13.4742 249.224H12.0502L14.4022 252.936L11.8582 257ZM20.4424 260.28H21.7544V257.656L21.7224 256.296C22.4424 256.856 23.1624 257.192 23.8824 257.192C25.6584 257.192 27.2424 255.64 27.2424 253C27.2424 250.584 26.1704 249.032 24.1704 249.032C23.2584 249.032 22.3944 249.528 21.6904 250.12H21.6424L21.5304 249.224H20.4424V260.28ZM23.6584 256.088C23.1464 256.088 22.4584 255.864 21.7544 255.272V251.192C22.5224 250.504 23.1784 250.136 23.8344 250.136C25.3064 250.136 25.8824 251.288 25.8824 253C25.8824 254.92 24.9384 256.088 23.6584 256.088ZM32.8249 257.192C33.8809 257.192 34.7129 256.824 35.3849 256.392L34.9209 255.528C34.3449 255.896 33.7209 256.136 32.9849 256.136C31.4969 256.136 30.4889 255.08 30.3929 253.432H35.6409C35.6729 253.24 35.6889 252.952 35.6889 252.68C35.6889 250.456 34.5689 249.032 32.5849 249.032C30.8089 249.032 29.0969 250.584 29.0969 253.128C29.0969 255.672 30.7449 257.192 32.8249 257.192ZM30.3769 252.488C30.5369 250.952 31.5289 250.072 32.6169 250.072C33.8329 250.072 34.5369 250.92 34.5369 252.488H30.3769ZM37.966 257H39.278V252.008C39.806 250.696 40.59 250.216 41.246 250.216C41.566 250.216 41.742 250.264 41.998 250.344L42.254 249.192C41.998 249.08 41.758 249.032 41.422 249.032C40.542 249.032 39.742 249.656 39.214 250.632H39.166L39.054 249.224H37.966V257ZM46.3164 257.192C46.7964 257.192 47.3244 257.048 47.7564 256.904L47.5004 255.912C47.2444 256.008 46.8924 256.12 46.6204 256.12C45.7244 256.12 45.4204 255.576 45.4204 254.616V250.296H47.5164V249.224H45.4204V247.048H44.3164L44.1564 249.224L42.9404 249.304V250.296H44.0924V254.6C44.0924 256.136 44.6524 257.192 46.3164 257.192ZM53.3169 257H54.6449V246.504H53.3169V257ZM57.7476 257H59.0596V251.368C59.8436 250.584 60.3876 250.168 61.1876 250.168C62.2116 250.168 62.6596 250.792 62.6596 252.248V257H63.9716V252.072C63.9716 250.088 63.2356 249.032 61.6036 249.032C60.5316 249.032 59.7316 249.608 58.9956 250.344H58.9476L58.8356 249.224H57.7476V257ZM69.3011 257.192C69.7811 257.192 70.3091 257.048 70.7411 256.904L70.4851 255.912C70.2291 256.008 69.8771 256.12 69.6051 256.12C68.7091 256.12 68.4051 255.576 68.4051 254.616V250.296H70.5011V249.224H68.4051V247.048H67.3011L67.1411 249.224L65.9251 249.304V250.296H67.0771V254.6C67.0771 256.136 67.6371 257.192 69.3011 257.192ZM75.5482 257.192C76.6042 257.192 77.4362 256.824 78.1082 256.392L77.6442 255.528C77.0682 255.896 76.4442 256.136 75.7082 256.136C74.2202 256.136 73.2122 255.08 73.1162 253.432H78.3642C78.3962 253.24 78.4122 252.952 78.4122 252.68C78.4122 250.456 77.2922 249.032 75.3082 249.032C73.5322 249.032 71.8202 250.584 71.8202 253.128C71.8202 255.672 73.4682 257.192 75.5482 257.192ZM73.1002 252.488C73.2602 250.952 74.2522 250.072 75.3402 250.072C76.5562 250.072 77.2602 250.92 77.2602 252.488H73.1002ZM80.6893 257H82.0013V252.008C82.5293 250.696 83.3133 250.216 83.9693 250.216C84.2893 250.216 84.4653 250.264 84.7213 250.344L84.9773 249.192C84.7213 249.08 84.4813 249.032 84.1453 249.032C83.2653 249.032 82.4653 249.656 81.9373 250.632H81.8893L81.7773 249.224H80.6893V257ZM88.6779 257H90.2139L92.9659 249.224H91.6699L90.1979 253.64C89.9739 254.408 89.7179 255.192 89.4939 255.928H89.4299C89.1899 255.192 88.9339 254.408 88.7099 253.64L87.2379 249.224H85.8779L88.6779 257ZM94.8222 257H96.1342V249.224H94.8222V257ZM95.4942 247.624C96.0062 247.624 96.4062 247.272 96.4062 246.776C96.4062 246.264 96.0062 245.928 95.4942 245.928C94.9822 245.928 94.5822 246.264 94.5822 246.776C94.5822 247.272 94.9822 247.624 95.4942 247.624ZM102.267 257.192C103.323 257.192 104.155 256.824 104.827 256.392L104.363 255.528C103.787 255.896 103.163 256.136 102.427 256.136C100.939 256.136 99.9313 255.08 99.8353 253.432H105.083C105.115 253.24 105.131 252.952 105.131 252.68C105.131 250.456 104.011 249.032 102.027 249.032C100.251 249.032 98.5393 250.584 98.5393 253.128C98.5393 255.672 100.187 257.192 102.267 257.192ZM99.8193 252.488C99.9793 250.952 100.971 250.072 102.059 250.072C103.275 250.072 103.979 250.92 103.979 252.488H99.8193ZM108.718 257H110.254L111.342 252.84C111.55 252.104 111.71 251.368 111.886 250.584H111.95C112.142 251.368 112.286 252.088 112.478 252.824L113.598 257H115.198L117.278 249.224H116.03L114.894 253.72C114.734 254.456 114.59 255.16 114.414 255.88H114.35C114.174 255.16 113.998 254.456 113.806 253.72L112.59 249.224H111.31L110.11 253.72C109.918 254.44 109.758 255.16 109.582 255.88H109.518C109.374 255.16 109.23 254.456 109.054 253.72L107.902 249.224H106.558L108.718 257Z" fill="#858585"/>
<defs>
<clipPath id="clip0">
<rect x="578" y="26" width="113" height="97" fill="white"/>
</clipPath>
</defs>
</svg>
