<svg width="616" height="274" viewBox="0 0 616 274" fill="none" xmlns="http://www.w3.org/2000/svg">
<path opacity="0.545387" d="M456.734 103.432C460.849 106.223 464.088 110.314 466.244 114.945C468.41 119.586 469.493 124.767 468.784 129.678C468.075 134.599 465.565 139.241 462.158 142.892C458.752 146.542 454.44 149.213 449.646 150.973C444.861 152.744 439.604 153.604 434.652 152.524C429.71 151.444 425.073 148.413 421.834 144.322C418.605 140.231 416.764 135.07 416.193 129.838C415.622 124.597 416.311 119.296 418.33 114.525C420.348 109.753 423.705 105.522 427.977 102.802C432.25 100.081 437.428 98.8708 442.518 99.0109C447.608 99.1509 452.609 100.641 456.734 103.432Z" fill="#D0D3ED"/>
<path d="M24.075 136H26.975V130H29.325C32.85 130 35.55 128.325 35.55 124.7C35.55 120.9 32.85 119.65 29.225 119.65H24.075V136ZM26.975 127.675V121.975H29C31.425 121.975 32.7 122.65 32.7 124.7C32.7 126.7 31.525 127.675 29.1 127.675H26.975ZM41.8709 136.3C43.3209 136.3 44.5709 135.575 45.6709 134.65H45.7709L45.9709 136H48.3459V128.725C48.3459 125.3 46.8209 123.425 43.7709 123.425C41.8209 123.425 40.0709 124.175 38.7209 125.025L39.7709 126.95C40.8709 126.3 42.0209 125.75 43.2209 125.75C44.8959 125.75 45.4209 126.85 45.4709 128.15C40.4209 128.7 38.2459 130.075 38.2459 132.7C38.2459 134.85 39.7209 136.3 41.8709 136.3ZM42.7959 134.05C41.7709 134.05 41.0209 133.575 41.0209 132.475C41.0209 131.25 42.1209 130.375 45.4709 129.95V132.7C44.5459 133.55 43.7959 134.05 42.7959 134.05ZM53.2587 136H56.1337V128.5C56.8837 126.65 58.0587 125.975 59.0337 125.975C59.5587 125.975 59.8837 126.05 60.3087 126.175L60.8087 123.675C60.4337 123.5 60.0337 123.425 59.4087 123.425C58.1087 123.425 56.8087 124.3 55.9337 125.9H55.8337L55.6337 123.725H53.2587V136ZM69.063 136.3C70.613 136.3 72.088 135.75 73.263 134.975L72.288 133.175C71.388 133.75 70.488 134.075 69.438 134.075C67.463 134.075 66.063 132.825 65.813 130.65H73.613C73.688 130.35 73.738 129.8 73.738 129.25C73.738 125.825 71.988 123.425 68.663 123.425C65.788 123.425 63.013 125.875 63.013 129.875C63.013 133.925 65.663 136.3 69.063 136.3ZM65.788 128.7C66.038 126.725 67.288 125.65 68.738 125.65C70.413 125.65 71.238 126.8 71.238 128.7H65.788ZM77.9561 136H80.8311V127.425C81.8561 126.425 82.5561 125.9 83.6311 125.9C84.9811 125.9 85.5561 126.65 85.5561 128.675V136H88.4311V128.3C88.4311 125.2 87.2811 123.425 84.6561 123.425C82.9811 123.425 81.7311 124.3 80.6311 125.375H80.5311L80.3311 123.725H77.9561V136ZM97.7426 136.3C98.7176 136.3 99.5676 136.075 100.243 135.85L99.7426 133.725C99.3926 133.875 98.8926 134 98.4676 134C97.2926 134 96.7426 133.3 96.7426 131.85V126H99.8676V123.725H96.7426V120.375H94.3426L93.9926 123.725L92.0926 123.85V126H93.8426V131.85C93.8426 134.5 94.8926 136.3 97.7426 136.3ZM107.104 136.3C110.204 136.3 111.879 134.6 111.879 132.5C111.879 130.2 110.029 129.4 108.354 128.775C107.029 128.3 105.804 127.925 105.804 126.95C105.804 126.175 106.379 125.6 107.604 125.6C108.579 125.6 109.454 126.025 110.304 126.65L111.629 124.9C110.629 124.125 109.254 123.425 107.554 123.425C104.804 123.425 103.079 124.95 103.079 127.1C103.079 129.15 104.904 130.075 106.529 130.675C107.829 131.175 109.154 131.625 109.154 132.65C109.154 133.5 108.529 134.125 107.204 134.125C105.954 134.125 104.904 133.6 103.804 132.75L102.454 134.6C103.654 135.575 105.429 136.3 107.104 136.3ZM122.395 136H125.27V127.425C126.295 126.425 126.995 125.9 128.07 125.9C129.42 125.9 129.995 126.65 129.995 128.675V136H132.87V128.3C132.87 125.2 131.72 123.425 129.095 123.425C127.42 123.425 126.195 124.3 125.17 125.275L125.27 122.9V118.35H122.395V136ZM140.782 136.3C142.232 136.3 143.482 135.575 144.582 134.65H144.682L144.882 136H147.257V128.725C147.257 125.3 145.732 123.425 142.682 123.425C140.732 123.425 138.982 124.175 137.632 125.025L138.682 126.95C139.782 126.3 140.932 125.75 142.132 125.75C143.807 125.75 144.332 126.85 144.382 128.15C139.332 128.7 137.157 130.075 137.157 132.7C137.157 134.85 138.632 136.3 140.782 136.3ZM141.707 134.05C140.682 134.05 139.932 133.575 139.932 132.475C139.932 131.25 141.032 130.375 144.382 129.95V132.7C143.457 133.55 142.707 134.05 141.707 134.05ZM154.92 136H158.245L162.42 123.725H159.645L157.695 130.1C157.345 131.3 156.995 132.55 156.645 133.8H156.545C156.22 132.55 155.845 131.3 155.52 130.1L153.57 123.725H150.645L154.92 136ZM171.124 136.3C172.674 136.3 174.149 135.75 175.324 134.975L174.349 133.175C173.449 133.75 172.549 134.075 171.499 134.075C169.524 134.075 168.124 132.825 167.874 130.65H175.674C175.749 130.35 175.799 129.8 175.799 129.25C175.799 125.825 174.049 123.425 170.724 123.425C167.849 123.425 165.074 125.875 165.074 129.875C165.074 133.925 167.724 136.3 171.124 136.3ZM167.849 128.7C168.099 126.725 169.349 125.65 170.799 125.65C172.474 125.65 173.299 126.8 173.299 128.7H167.849ZM189.919 136.3C193.019 136.3 194.694 134.6 194.694 132.5C194.694 130.2 192.844 129.4 191.169 128.775C189.844 128.3 188.619 127.925 188.619 126.95C188.619 126.175 189.194 125.6 190.419 125.6C191.394 125.6 192.269 126.025 193.119 126.65L194.444 124.9C193.444 124.125 192.069 123.425 190.369 123.425C187.619 123.425 185.894 124.95 185.894 127.1C185.894 129.15 187.719 130.075 189.344 130.675C190.644 131.175 191.969 131.625 191.969 132.65C191.969 133.5 191.344 134.125 190.019 134.125C188.769 134.125 187.719 133.6 186.619 132.75L185.269 134.6C186.469 135.575 188.244 136.3 189.919 136.3ZM202.57 136.3C203.545 136.3 204.395 136.075 205.07 135.85L204.57 133.725C204.22 133.875 203.72 134 203.295 134C202.12 134 201.57 133.3 201.57 131.85V126H204.695V123.725H201.57V120.375H199.17L198.82 123.725L196.92 123.85V126H198.67V131.85C198.67 134.5 199.72 136.3 202.57 136.3ZM208.75 136H211.625V128.5C212.375 126.65 213.55 125.975 214.525 125.975C215.05 125.975 215.375 126.05 215.8 126.175L216.3 123.675C215.925 123.5 215.525 123.425 214.9 123.425C213.6 123.425 212.3 124.3 211.425 125.9H211.325L211.125 123.725H208.75V136ZM219.549 136H222.424V123.725H219.549V136ZM220.999 121.575C222.024 121.575 222.774 120.9 222.774 119.95C222.774 118.975 222.024 118.3 220.999 118.3C219.974 118.3 219.224 118.975 219.224 119.95C219.224 120.9 219.974 121.575 220.999 121.575ZM232.689 136.3C234.089 136.3 235.539 135.8 236.689 134.8L235.514 132.9C234.814 133.475 233.939 133.95 232.989 133.95C231.064 133.95 229.714 132.325 229.714 129.875C229.714 127.4 231.089 125.775 233.064 125.775C233.839 125.775 234.464 126.1 235.114 126.675L236.514 124.8C235.614 124.025 234.489 123.425 232.914 123.425C229.639 123.425 226.764 125.775 226.764 129.875C226.764 133.95 229.339 136.3 232.689 136.3ZM244.665 136.3C245.64 136.3 246.49 136.075 247.165 135.85L246.665 133.725C246.315 133.875 245.815 134 245.39 134C244.215 134 243.665 133.3 243.665 131.85V126H246.79V123.725H243.665V120.375H241.265L240.915 123.725L239.015 123.85V126H240.765V131.85C240.765 134.5 241.815 136.3 244.665 136.3ZM261.647 136.3C262.622 136.3 263.472 136.075 264.147 135.85L263.647 133.725C263.297 133.875 262.797 134 262.372 134C261.197 134 260.647 133.3 260.647 131.85V126H263.772V123.725H260.647V120.375H258.247L257.897 123.725L255.997 123.85V126H257.747V131.85C257.747 134.5 258.797 136.3 261.647 136.3ZM267.828 136H270.703V123.725H267.828V136ZM269.278 121.575C270.303 121.575 271.053 120.9 271.053 119.95C271.053 118.975 270.303 118.3 269.278 118.3C268.253 118.3 267.503 118.975 267.503 119.95C267.503 120.9 268.253 121.575 269.278 121.575ZM275.843 136H278.718V127.425C279.668 126.4 280.543 125.9 281.293 125.9C282.593 125.9 283.193 126.65 283.193 128.675V136H286.068V127.425C287.018 126.4 287.868 125.9 288.643 125.9C289.918 125.9 290.518 126.65 290.518 128.675V136H293.418V128.3C293.418 125.2 292.218 123.425 289.618 123.425C288.068 123.425 286.843 124.375 285.668 125.625C285.093 124.25 284.068 123.425 282.268 123.425C280.743 123.425 279.543 124.3 278.518 125.4H278.418L278.218 123.725H275.843V136ZM303.634 136.3C305.184 136.3 306.659 135.75 307.834 134.975L306.859 133.175C305.959 133.75 305.059 134.075 304.009 134.075C302.034 134.075 300.634 132.825 300.384 130.65H308.184C308.259 130.35 308.309 129.8 308.309 129.25C308.309 125.825 306.559 123.425 303.234 123.425C300.359 123.425 297.584 125.875 297.584 129.875C297.584 133.925 300.234 136.3 303.634 136.3ZM300.359 128.7C300.609 126.725 301.859 125.65 303.309 125.65C304.984 125.65 305.809 126.8 305.809 128.7H300.359ZM324.13 136.3C325.53 136.3 326.98 135.8 328.13 134.8L326.955 132.9C326.255 133.475 325.38 133.95 324.43 133.95C322.505 133.95 321.155 132.325 321.155 129.875C321.155 127.4 322.53 125.775 324.505 125.775C325.28 125.775 325.905 126.1 326.555 126.675L327.955 124.8C327.055 124.025 325.93 123.425 324.355 123.425C321.08 123.425 318.205 125.775 318.205 129.875C318.205 133.95 320.78 136.3 324.13 136.3ZM336.439 136.3C339.514 136.3 342.289 133.95 342.289 129.875C342.289 125.775 339.514 123.425 336.439 123.425C333.389 123.425 330.614 125.775 330.614 129.875C330.614 133.95 333.389 136.3 336.439 136.3ZM336.439 133.95C334.639 133.95 333.564 132.325 333.564 129.875C333.564 127.4 334.639 125.775 336.439 125.775C338.239 125.775 339.339 127.4 339.339 129.875C339.339 132.325 338.239 133.95 336.439 133.95ZM346.607 136H349.482V127.425C350.507 126.425 351.207 125.9 352.282 125.9C353.632 125.9 354.207 126.65 354.207 128.675V136H357.082V128.3C357.082 125.2 355.932 123.425 353.307 123.425C351.632 123.425 350.382 124.3 349.282 125.375H349.182L348.982 123.725H346.607V136ZM366.394 136.3C367.369 136.3 368.219 136.075 368.894 135.85L368.394 133.725C368.044 133.875 367.544 134 367.119 134C365.944 134 365.394 133.3 365.394 131.85V126H368.519V123.725H365.394V120.375H362.994L362.644 123.725L360.744 123.85V126H362.494V131.85C362.494 134.5 363.544 136.3 366.394 136.3ZM372.574 136H375.449V128.5C376.199 126.65 377.374 125.975 378.349 125.975C378.874 125.975 379.199 126.05 379.624 126.175L380.124 123.675C379.749 123.5 379.349 123.425 378.724 123.425C377.424 123.425 376.124 124.3 375.249 125.9H375.149L374.949 123.725H372.574V136ZM388.153 136.3C391.228 136.3 394.003 133.95 394.003 129.875C394.003 125.775 391.228 123.425 388.153 123.425C385.103 123.425 382.328 125.775 382.328 129.875C382.328 133.95 385.103 136.3 388.153 136.3ZM388.153 133.95C386.353 133.95 385.278 132.325 385.278 129.875C385.278 127.4 386.353 125.775 388.153 125.775C389.953 125.775 391.053 127.4 391.053 129.875C391.053 132.325 389.953 133.95 388.153 133.95ZM401.121 136.3C401.796 136.3 402.296 136.2 402.646 136.05L402.271 133.9C402.046 133.95 401.946 133.95 401.821 133.95C401.521 133.95 401.196 133.7 401.196 133V118.35H398.321V132.85C398.321 134.975 399.071 136.3 401.121 136.3ZM413.558 136H416.433V126H418.833V123.725H416.433V122.4C416.433 120.975 416.983 120.325 417.983 120.325C418.408 120.325 418.883 120.425 419.333 120.625L419.883 118.475C419.333 118.25 418.508 118.05 417.633 118.05C414.733 118.05 413.558 119.9 413.558 122.45V123.725L411.908 123.85V126H413.558V136ZM427.245 136.3C430.32 136.3 433.095 133.95 433.095 129.875C433.095 125.775 430.32 123.425 427.245 123.425C424.195 123.425 421.42 125.775 421.42 129.875C421.42 133.95 424.195 136.3 427.245 136.3ZM427.245 133.95C425.445 133.95 424.37 132.325 424.37 129.875C424.37 127.4 425.445 125.775 427.245 125.775C429.045 125.775 430.145 127.4 430.145 129.875C430.145 132.325 429.045 133.95 427.245 133.95ZM437.413 136H440.288V128.5C441.038 126.65 442.213 125.975 443.188 125.975C443.713 125.975 444.038 126.05 444.463 126.175L444.963 123.675C444.588 123.5 444.188 123.425 443.563 123.425C442.263 123.425 440.963 124.3 440.088 125.9H439.988L439.788 123.725H437.413V136ZM23.825 167H26.65V163.875L28.575 161.675L31.725 167H34.85L30.225 159.725L34.425 154.725H31.275L26.725 160.375H26.65V149.35H23.825V167ZM38.3587 167H41.2337V154.725H38.3587V167ZM39.8087 152.575C40.8337 152.575 41.5837 151.9 41.5837 150.95C41.5837 149.975 40.8337 149.3 39.8087 149.3C38.7837 149.3 38.0337 149.975 38.0337 150.95C38.0337 151.9 38.7837 152.575 39.8087 152.575ZM50.6739 167.3C51.9989 167.3 53.2489 166.575 54.1489 165.675H54.2489L54.4489 167H56.8239V149.35H53.9489V153.8L54.0489 155.775C53.0989 154.95 52.2239 154.425 50.8239 154.425C48.1489 154.425 45.6239 156.875 45.6239 160.875C45.6239 164.925 47.5989 167.3 50.6739 167.3ZM51.3739 164.925C49.5989 164.925 48.5989 163.5 48.5989 160.85C48.5989 158.275 49.8739 156.8 51.4489 156.8C52.2739 156.8 53.0989 157.075 53.9489 157.825V163.55C53.1239 164.5 52.3239 164.925 51.3739 164.925ZM65.3825 167.3C68.4825 167.3 70.1575 165.6 70.1575 163.5C70.1575 161.2 68.3075 160.4 66.6325 159.775C65.3075 159.3 64.0825 158.925 64.0825 157.95C64.0825 157.175 64.6575 156.6 65.8825 156.6C66.8575 156.6 67.7325 157.025 68.5825 157.65L69.9075 155.9C68.9075 155.125 67.5325 154.425 65.8325 154.425C63.0825 154.425 61.3575 155.95 61.3575 158.1C61.3575 160.15 63.1825 161.075 64.8075 161.675C66.1075 162.175 67.4325 162.625 67.4325 163.65C67.4325 164.5 66.8075 165.125 65.4825 165.125C64.2325 165.125 63.1825 164.6 62.0825 163.75L60.7325 165.6C61.9325 166.575 63.7075 167.3 65.3825 167.3ZM84.3234 167.3C85.9984 167.3 87.1984 166.475 88.2734 165.2H88.3484L88.5734 167H90.9234V154.725H88.0484V163.125C87.1234 164.325 86.3984 164.825 85.3234 164.825C83.9984 164.825 83.4234 164.075 83.4234 162.05V154.725H80.5484V162.425C80.5484 165.525 81.6984 167.3 84.3234 167.3ZM99.4622 167.3C102.562 167.3 104.237 165.6 104.237 163.5C104.237 161.2 102.387 160.4 100.712 159.775C99.3872 159.3 98.1622 158.925 98.1622 157.95C98.1622 157.175 98.7372 156.6 99.9622 156.6C100.937 156.6 101.812 157.025 102.662 157.65L103.987 155.9C102.987 155.125 101.612 154.425 99.9122 154.425C97.1622 154.425 95.4372 155.95 95.4372 158.1C95.4372 160.15 97.2622 161.075 98.8872 161.675C100.187 162.175 101.512 162.625 101.512 163.65C101.512 164.5 100.887 165.125 99.5622 165.125C98.3122 165.125 97.2622 164.6 96.1622 163.75L94.8122 165.6C96.0122 166.575 97.7872 167.3 99.4622 167.3ZM108.276 167H111.151V154.725H108.276V167ZM109.726 152.575C110.751 152.575 111.501 151.9 111.501 150.95C111.501 149.975 110.751 149.3 109.726 149.3C108.701 149.3 107.951 149.975 107.951 150.95C107.951 151.9 108.701 152.575 109.726 152.575ZM116.291 167H119.166V158.425C120.191 157.425 120.891 156.9 121.966 156.9C123.316 156.9 123.891 157.65 123.891 159.675V167H126.766V159.3C126.766 156.2 125.616 154.425 122.991 154.425C121.316 154.425 120.066 155.3 118.966 156.375H118.866L118.666 154.725H116.291V167ZM136.028 172.425C140.028 172.425 142.578 170.525 142.578 168.1C142.578 165.975 141.028 165.075 138.078 165.075H135.903C134.403 165.075 133.903 164.65 133.903 163.95C133.903 163.4 134.128 163.1 134.503 162.775C135.053 163 135.653 163.1 136.178 163.1C138.778 163.1 140.828 161.65 140.828 158.925C140.828 158.075 140.528 157.325 140.128 156.85H142.378V154.725H137.978C137.478 154.55 136.853 154.425 136.178 154.425C133.603 154.425 131.328 156 131.328 158.825C131.328 160.275 132.103 161.45 132.928 162.075V162.175C132.228 162.675 131.578 163.5 131.578 164.45C131.578 165.45 132.053 166.1 132.678 166.5V166.6C131.553 167.3 130.928 168.2 130.928 169.225C130.928 171.375 133.103 172.425 136.028 172.425ZM136.178 161.3C134.978 161.3 134.028 160.4 134.028 158.825C134.028 157.275 134.978 156.4 136.178 156.4C137.378 156.4 138.303 157.3 138.303 158.825C138.303 160.4 137.353 161.3 136.178 161.3ZM136.478 170.55C134.528 170.55 133.328 169.9 133.328 168.8C133.328 168.225 133.628 167.675 134.278 167.175C134.753 167.3 135.278 167.35 135.953 167.35H137.628C139.028 167.35 139.803 167.625 139.803 168.575C139.803 169.625 138.453 170.55 136.478 170.55ZM156.115 167.3C159.215 167.3 160.89 165.6 160.89 163.5C160.89 161.2 159.04 160.4 157.365 159.775C156.04 159.3 154.815 158.925 154.815 157.95C154.815 157.175 155.39 156.6 156.615 156.6C157.59 156.6 158.465 157.025 159.315 157.65L160.64 155.9C159.64 155.125 158.265 154.425 156.565 154.425C153.815 154.425 152.09 155.95 152.09 158.1C152.09 160.15 153.915 161.075 155.54 161.675C156.84 162.175 158.165 162.625 158.165 163.65C158.165 164.5 157.54 165.125 156.215 165.125C154.965 165.125 153.915 164.6 152.815 163.75L151.465 165.6C152.665 166.575 154.44 167.3 156.115 167.3ZM170.054 167.3C171.454 167.3 172.904 166.8 174.054 165.8L172.879 163.9C172.179 164.475 171.304 164.95 170.354 164.95C168.429 164.95 167.079 163.325 167.079 160.875C167.079 158.4 168.454 156.775 170.429 156.775C171.204 156.775 171.829 157.1 172.479 157.675L173.879 155.8C172.979 155.025 171.854 154.425 170.279 154.425C167.004 154.425 164.129 156.775 164.129 160.875C164.129 164.95 166.704 167.3 170.054 167.3ZM177.949 167H180.824V159.5C181.574 157.65 182.749 156.975 183.724 156.975C184.249 156.975 184.574 157.05 184.999 157.175L185.499 154.675C185.124 154.5 184.724 154.425 184.099 154.425C182.799 154.425 181.499 155.3 180.624 156.9H180.524L180.324 154.725H177.949V167ZM193.753 167.3C195.303 167.3 196.778 166.75 197.953 165.975L196.978 164.175C196.078 164.75 195.178 165.075 194.128 165.075C192.153 165.075 190.753 163.825 190.503 161.65H198.303C198.378 161.35 198.428 160.8 198.428 160.25C198.428 156.825 196.678 154.425 193.353 154.425C190.478 154.425 187.703 156.875 187.703 160.875C187.703 164.925 190.353 167.3 193.753 167.3ZM190.478 159.7C190.728 157.725 191.978 156.65 193.428 156.65C195.103 156.65 195.928 157.8 195.928 159.7H190.478ZM207.897 167.3C209.447 167.3 210.922 166.75 212.097 165.975L211.122 164.175C210.222 164.75 209.322 165.075 208.272 165.075C206.297 165.075 204.897 163.825 204.647 161.65H212.447C212.522 161.35 212.572 160.8 212.572 160.25C212.572 156.825 210.822 154.425 207.497 154.425C204.622 154.425 201.847 156.875 201.847 160.875C201.847 164.925 204.497 167.3 207.897 167.3ZM204.622 159.7C204.872 157.725 206.122 156.65 207.572 156.65C209.247 156.65 210.072 157.8 210.072 159.7H204.622ZM216.79 167H219.665V158.425C220.69 157.425 221.39 156.9 222.465 156.9C223.815 156.9 224.39 157.65 224.39 159.675V167H227.265V159.3C227.265 156.2 226.115 154.425 223.49 154.425C221.815 154.425 220.565 155.3 219.465 156.375H219.365L219.165 154.725H216.79V167ZM231.476 161.75H237.426V159.65H231.476V161.75ZM247.73 167.3C250.455 167.3 252.98 164.875 252.98 160.65C252.98 156.875 251.205 154.425 248.13 154.425C246.88 154.425 245.605 155.05 244.58 155.95L244.655 153.9V149.35H241.78V167H244.055L244.305 165.7H244.38C245.405 166.725 246.605 167.3 247.73 167.3ZM247.13 164.925C246.405 164.925 245.53 164.65 244.655 163.9V158.175C245.605 157.25 246.455 156.8 247.355 156.8C249.205 156.8 250.005 158.25 250.005 160.7C250.005 163.475 248.755 164.925 247.13 164.925ZM260.021 167.3C261.471 167.3 262.721 166.575 263.821 165.65H263.921L264.121 167H266.496V159.725C266.496 156.3 264.971 154.425 261.921 154.425C259.971 154.425 258.221 155.175 256.871 156.025L257.921 157.95C259.021 157.3 260.171 156.75 261.371 156.75C263.046 156.75 263.571 157.85 263.621 159.15C258.571 159.7 256.396 161.075 256.396 163.7C256.396 165.85 257.871 167.3 260.021 167.3ZM260.946 165.05C259.921 165.05 259.171 164.575 259.171 163.475C259.171 162.25 260.271 161.375 263.621 160.95V163.7C262.696 164.55 261.946 165.05 260.946 165.05ZM274.834 167.3C277.934 167.3 279.609 165.6 279.609 163.5C279.609 161.2 277.759 160.4 276.084 159.775C274.759 159.3 273.534 158.925 273.534 157.95C273.534 157.175 274.109 156.6 275.334 156.6C276.309 156.6 277.184 157.025 278.034 157.65L279.359 155.9C278.359 155.125 276.984 154.425 275.284 154.425C272.534 154.425 270.809 155.95 270.809 158.1C270.809 160.15 272.634 161.075 274.259 161.675C275.559 162.175 276.884 162.625 276.884 163.65C276.884 164.5 276.259 165.125 274.934 165.125C273.684 165.125 272.634 164.6 271.534 163.75L270.184 165.6C271.384 166.575 273.159 167.3 274.834 167.3ZM288.898 167.3C290.448 167.3 291.923 166.75 293.098 165.975L292.123 164.175C291.223 164.75 290.323 165.075 289.273 165.075C287.298 165.075 285.898 163.825 285.648 161.65H293.448C293.523 161.35 293.573 160.8 293.573 160.25C293.573 156.825 291.823 154.425 288.498 154.425C285.623 154.425 282.848 156.875 282.848 160.875C282.848 164.925 285.498 167.3 288.898 167.3ZM285.623 159.7C285.873 157.725 287.123 156.65 288.573 156.65C290.248 156.65 291.073 157.8 291.073 159.7H285.623ZM302.091 167.3C303.416 167.3 304.666 166.575 305.566 165.675H305.666L305.866 167H308.241V149.35H305.366V153.8L305.466 155.775C304.516 154.95 303.641 154.425 302.241 154.425C299.566 154.425 297.041 156.875 297.041 160.875C297.041 164.925 299.016 167.3 302.091 167.3ZM302.791 164.925C301.016 164.925 300.016 163.5 300.016 160.85C300.016 158.275 301.291 156.8 302.866 156.8C303.691 156.8 304.516 157.075 305.366 157.825V163.55C304.541 164.5 303.741 164.925 302.791 164.925ZM324.152 167.3C325.477 167.3 326.727 166.575 327.627 165.675H327.727L327.927 167H330.302V149.35H327.427V153.8L327.527 155.775C326.577 154.95 325.702 154.425 324.302 154.425C321.627 154.425 319.102 156.875 319.102 160.875C319.102 164.925 321.077 167.3 324.152 167.3ZM324.852 164.925C323.077 164.925 322.077 163.5 322.077 160.85C322.077 158.275 323.352 156.8 324.927 156.8C325.752 156.8 326.577 157.075 327.427 157.825V163.55C326.602 164.5 325.802 164.925 324.852 164.925ZM340.685 167.3C342.235 167.3 343.71 166.75 344.885 165.975L343.91 164.175C343.01 164.75 342.11 165.075 341.06 165.075C339.085 165.075 337.685 163.825 337.435 161.65H345.235C345.31 161.35 345.36 160.8 345.36 160.25C345.36 156.825 343.61 154.425 340.285 154.425C337.41 154.425 334.635 156.875 334.635 160.875C334.635 164.925 337.285 167.3 340.685 167.3ZM337.41 159.7C337.66 157.725 338.91 156.65 340.36 156.65C342.035 156.65 342.86 157.8 342.86 159.7H337.41ZM352.328 167H355.653L359.828 154.725H357.053L355.103 161.1C354.753 162.3 354.403 163.55 354.053 164.8H353.953C353.628 163.55 353.253 162.3 352.928 161.1L350.978 154.725H348.053L352.328 167ZM363.429 167H366.304V154.725H363.429V167ZM364.879 152.575C365.904 152.575 366.654 151.9 366.654 150.95C366.654 149.975 365.904 149.3 364.879 149.3C363.854 149.3 363.104 149.975 363.104 150.95C363.104 151.9 363.854 152.575 364.879 152.575ZM376.569 167.3C377.969 167.3 379.419 166.8 380.569 165.8L379.394 163.9C378.694 164.475 377.819 164.95 376.869 164.95C374.944 164.95 373.594 163.325 373.594 160.875C373.594 158.4 374.969 156.775 376.944 156.775C377.719 156.775 378.344 157.1 378.994 157.675L380.394 155.8C379.494 155.025 378.369 154.425 376.794 154.425C373.519 154.425 370.644 156.775 370.644 160.875C370.644 164.95 373.219 167.3 376.569 167.3ZM389.103 167.3C390.653 167.3 392.128 166.75 393.303 165.975L392.328 164.175C391.428 164.75 390.528 165.075 389.478 165.075C387.503 165.075 386.103 163.825 385.853 161.65H393.653C393.728 161.35 393.778 160.8 393.778 160.25C393.778 156.825 392.028 154.425 388.703 154.425C385.828 154.425 383.053 156.875 383.053 160.875C383.053 164.925 385.703 167.3 389.103 167.3ZM385.828 159.7C386.078 157.725 387.328 156.65 388.778 156.65C390.453 156.65 391.278 157.8 391.278 159.7H385.828ZM401.422 167.3C404.522 167.3 406.197 165.6 406.197 163.5C406.197 161.2 404.347 160.4 402.672 159.775C401.347 159.3 400.122 158.925 400.122 157.95C400.122 157.175 400.697 156.6 401.922 156.6C402.897 156.6 403.772 157.025 404.622 157.65L405.947 155.9C404.947 155.125 403.572 154.425 401.872 154.425C399.122 154.425 397.397 155.95 397.397 158.1C397.397 160.15 399.222 161.075 400.847 161.675C402.147 162.175 403.472 162.625 403.472 163.65C403.472 164.5 402.847 165.125 401.522 165.125C400.272 165.125 399.222 164.6 398.122 163.75L396.772 165.6C397.972 166.575 399.747 167.3 401.422 167.3ZM411.86 167.3C412.91 167.3 413.71 166.475 413.71 165.35C413.71 164.225 412.91 163.4 411.86 163.4C410.81 163.4 409.985 164.225 409.985 165.35C409.985 166.475 410.81 167.3 411.86 167.3Z" fill="#4D59D3"/>
<rect y="186" width="451" height="74" rx="4" fill="#F1F1F1"/>
<rect y="186" width="451" height="74" rx="4" fill="#F1F1F1"/>
<path d="M19.608 213.056C20.12 213.056 20.472 212.64 20.472 212.144C20.472 211.696 20.136 211.44 19.688 211.44C19.656 211.44 19.64 211.44 19.608 211.44C19.608 210.848 20.152 210.032 21.128 209.552L20.872 208.944C19.672 209.456 18.76 210.496 18.76 211.968C18.76 212.656 19.112 213.056 19.608 213.056ZM22.248 213.056C22.76 213.056 23.112 212.64 23.112 212.144C23.112 211.696 22.776 211.44 22.328 211.44C22.296 211.44 22.28 211.44 22.248 211.44C22.248 210.848 22.792 210.032 23.768 209.552L23.512 208.944C22.312 209.456 21.4 210.496 21.4 211.968C21.4 212.656 21.752 213.056 22.248 213.056ZM25.9778 220H27.5298L30.3938 213.584C30.7458 212.752 31.1138 211.952 31.4178 211.12H31.4818C31.4498 211.952 31.4338 212.816 31.4338 213.584L31.5458 220H33.1298L37.4498 209.504H36.2178L33.9458 215.28C33.5138 216.4 33.0498 217.536 32.6178 218.688H32.5538C32.5538 217.536 32.5538 216.384 32.5378 215.28L32.3938 209.504H31.2578L28.6338 215.28C28.1698 216.4 27.6418 217.552 27.1458 218.688H27.0818C27.1618 217.552 27.1778 216.4 27.2418 215.28L27.4018 209.504H26.1218L25.9778 220ZM37.9764 216.944C37.9764 219.024 39.1924 220.192 41.0324 220.192C42.0404 220.192 42.9204 219.808 43.5444 219.36L43.0644 218.544C42.5684 218.912 41.9284 219.216 41.3204 219.216C39.9604 219.216 38.9204 218.368 39.2084 216.368H44.2644C44.3604 216.08 44.5364 215.472 44.5364 214.848C44.5364 213.248 43.8804 212.032 42.1364 212.032C40.1044 212.032 37.9764 214.016 37.9764 216.944ZM39.3364 215.536C39.7364 214 40.8564 213.008 41.9924 213.008C43.1124 213.008 43.4964 213.856 43.4964 214.736C43.4964 215.04 43.4644 215.28 43.4164 215.536H39.3364ZM50.5461 220H51.7621L52.8661 214.496C53.7781 213.52 54.5941 213.088 55.0581 213.088C55.8261 213.088 56.1781 213.504 56.1781 214.288C56.1781 214.56 56.1301 214.784 56.0501 215.2L55.0901 220H56.3061L57.4101 214.496C58.3381 213.52 59.1541 213.088 59.6021 213.088C60.3701 213.088 60.7381 213.504 60.7381 214.288C60.7381 214.56 60.6901 214.784 60.6101 215.2L59.6341 220H60.8661L61.8581 215.04C61.9381 214.608 61.9861 214.336 61.9861 213.968C61.9861 212.768 61.4421 212.032 60.1461 212.032C59.3461 212.032 58.3861 212.608 57.3941 213.552C57.2821 212.704 56.8341 212.032 55.6021 212.032C54.7861 212.032 53.8581 212.624 53.0421 213.392H52.9781L53.0901 212.224H52.0821L50.5461 220ZM66.6376 220.192C67.6136 220.192 68.5896 219.648 69.3416 218.848H69.4056L69.2776 220H70.2856L71.8376 212.224H70.8456L70.5416 213.2H70.4776C70.1096 212.496 69.4376 212.032 68.6056 212.032C66.4456 212.032 64.3976 214.384 64.3976 217.376C64.3976 219.2 65.2776 220.192 66.6376 220.192ZM67.0856 219.168C66.2216 219.168 65.6616 218.528 65.6616 217.184C65.6616 215.04 67.1016 213.056 68.6536 213.056C69.2456 213.056 69.7896 213.392 70.2376 214.208L69.5336 217.68C68.7656 218.688 67.9016 219.168 67.0856 219.168ZM80.0296 213.168H79.9816C79.5976 212.48 78.9736 212.032 78.1416 212.032C75.9816 212.032 73.9336 214.384 73.9336 217.376C73.9336 219.2 74.8136 220.192 76.1736 220.192C77.1496 220.192 78.1256 219.648 78.8776 218.848H78.9416L78.8136 220H79.8216L82.1256 208.608H80.8936L80.2856 211.648L80.0296 213.168ZM76.6216 219.168C75.7576 219.168 75.1976 218.528 75.1976 217.184C75.1976 215.04 76.6376 213.056 78.1896 213.056C78.7816 213.056 79.3256 213.392 79.7736 214.208L79.0696 217.68C78.2856 218.688 77.4376 219.168 76.6216 219.168ZM83.4063 216.944C83.4063 219.024 84.6223 220.192 86.4623 220.192C87.4703 220.192 88.3503 219.808 88.9743 219.36L88.4943 218.544C87.9983 218.912 87.3583 219.216 86.7503 219.216C85.3903 219.216 84.3503 218.368 84.6383 216.368H89.6943C89.7903 216.08 89.9663 215.472 89.9663 214.848C89.9663 213.248 89.3103 212.032 87.5663 212.032C85.5343 212.032 83.4063 214.016 83.4063 216.944ZM84.7663 215.536C85.1663 214 86.2863 213.008 87.4223 213.008C88.5423 213.008 88.9263 213.856 88.9263 214.736C88.9263 215.04 88.8943 215.28 88.8463 215.536H84.7663ZM98.344 220.192C99.32 220.192 100.296 219.648 101.048 218.848H101.112L100.984 220H101.992L103.544 212.224H102.552L102.248 213.2H102.184C101.816 212.496 101.144 212.032 100.312 212.032C98.152 212.032 96.104 214.384 96.104 217.376C96.104 219.2 96.984 220.192 98.344 220.192ZM98.792 219.168C97.928 219.168 97.368 218.528 97.368 217.184C97.368 215.04 98.808 213.056 100.36 213.056C100.952 213.056 101.496 213.392 101.944 214.208L101.24 217.68C100.472 218.688 99.608 219.168 98.792 219.168ZM105.512 220H106.728L107.832 214.496C108.808 213.52 109.56 213.088 110.168 213.088C110.968 213.088 111.32 213.504 111.32 214.288C111.32 214.56 111.272 214.784 111.192 215.2L110.232 220H111.448L112.44 215.04C112.536 214.608 112.568 214.336 112.568 213.968C112.568 212.768 112.04 212.032 110.728 212.032C109.752 212.032 108.888 212.624 108.008 213.392H107.944L108.056 212.224H107.048L105.512 220ZM121.249 220.192C122.225 220.192 123.201 219.648 123.953 218.848H124.017L123.889 220H124.897L126.449 212.224H125.457L125.153 213.2H125.089C124.721 212.496 124.049 212.032 123.217 212.032C121.057 212.032 119.009 214.384 119.009 217.376C119.009 219.2 119.889 220.192 121.249 220.192ZM121.697 219.168C120.833 219.168 120.273 218.528 120.273 217.184C120.273 215.04 121.713 213.056 123.265 213.056C123.857 213.056 124.401 213.392 124.849 214.208L124.145 217.68C123.377 218.688 122.513 219.168 121.697 219.168ZM130.609 223.584C132.561 223.584 133.841 222.432 134.257 220.368L135.889 212.224H134.881L134.577 213.2H134.529C134.161 212.496 133.473 212.032 132.657 212.032C130.561 212.032 128.545 214.336 128.545 217.184C128.545 218.992 129.489 219.92 130.801 219.92C131.793 219.92 132.689 219.424 133.505 218.608L133.105 220.272C132.769 221.68 131.985 222.592 130.657 222.592C129.793 222.592 129.057 222.176 128.465 221.664L127.889 222.512C128.641 223.136 129.569 223.584 130.609 223.584ZM131.201 218.896C130.337 218.896 129.809 218.272 129.809 217.008C129.809 214.976 131.201 213.056 132.705 213.056C133.297 213.056 133.809 213.392 134.289 214.208L133.601 217.536C132.865 218.432 131.937 218.896 131.201 218.896ZM137.859 220H139.075L140.051 215.088C140.707 213.824 141.571 213.136 142.339 213.136C142.627 213.136 142.851 213.184 143.011 213.264L143.443 212.176C143.219 212.08 142.995 212.032 142.707 212.032C141.747 212.032 140.915 212.768 140.291 213.712H140.227L140.403 212.224H139.395L137.859 220ZM144.21 216.944C144.21 219.024 145.426 220.192 147.266 220.192C148.274 220.192 149.154 219.808 149.778 219.36L149.298 218.544C148.802 218.912 148.162 219.216 147.554 219.216C146.194 219.216 145.154 218.368 145.442 216.368H150.498C150.594 216.08 150.77 215.472 150.77 214.848C150.77 213.248 150.114 212.032 148.37 212.032C146.338 212.032 144.21 214.016 144.21 216.944ZM145.57 215.536C145.97 214 147.09 213.008 148.226 213.008C149.346 213.008 149.73 213.856 149.73 214.736C149.73 215.04 149.698 215.28 149.65 215.536H145.57ZM152.855 216.944C152.855 219.024 154.071 220.192 155.911 220.192C156.919 220.192 157.799 219.808 158.423 219.36L157.943 218.544C157.447 218.912 156.807 219.216 156.199 219.216C154.839 219.216 153.799 218.368 154.087 216.368H159.143C159.239 216.08 159.415 215.472 159.415 214.848C159.415 213.248 158.759 212.032 157.015 212.032C154.983 212.032 152.855 214.016 152.855 216.944ZM154.215 215.536C154.615 214 155.735 213.008 156.871 213.008C157.991 213.008 158.375 213.856 158.375 214.736C158.375 215.04 158.343 215.28 158.295 215.536H154.215ZM161.404 220H162.62L163.724 214.496C164.636 213.52 165.452 213.088 165.916 213.088C166.684 213.088 167.036 213.504 167.036 214.288C167.036 214.56 166.988 214.784 166.908 215.2L165.948 220H167.164L168.268 214.496C169.196 213.52 170.012 213.088 170.46 213.088C171.228 213.088 171.596 213.504 171.596 214.288C171.596 214.56 171.548 214.784 171.468 215.2L170.492 220H171.724L172.716 215.04C172.796 214.608 172.844 214.336 172.844 213.968C172.844 212.768 172.3 212.032 171.004 212.032C170.204 212.032 169.244 212.608 168.252 213.552C168.14 212.704 167.692 212.032 166.46 212.032C165.644 212.032 164.716 212.624 163.9 213.392H163.836L163.948 212.224H162.94L161.404 220ZM175.224 216.944C175.224 219.024 176.44 220.192 178.28 220.192C179.288 220.192 180.168 219.808 180.792 219.36L180.312 218.544C179.816 218.912 179.176 219.216 178.568 219.216C177.208 219.216 176.168 218.368 176.456 216.368H181.512C181.608 216.08 181.784 215.472 181.784 214.848C181.784 213.248 181.128 212.032 179.384 212.032C177.352 212.032 175.224 214.016 175.224 216.944ZM176.584 215.536C176.984 214 178.104 213.008 179.24 213.008C180.36 213.008 180.744 213.856 180.744 214.736C180.744 215.04 180.712 215.28 180.664 215.536H176.584ZM183.773 220H184.989L186.093 214.496C187.069 213.52 187.821 213.088 188.429 213.088C189.229 213.088 189.581 213.504 189.581 214.288C189.581 214.56 189.533 214.784 189.453 215.2L188.493 220H189.709L190.701 215.04C190.797 214.608 190.829 214.336 190.829 213.968C190.829 212.768 190.301 212.032 188.989 212.032C188.013 212.032 187.149 212.624 186.269 213.392H186.205L186.317 212.224H185.309L183.773 220ZM195.586 220.192C196.194 220.192 196.706 220 197.058 219.84L196.786 218.96C196.546 219.072 196.274 219.2 195.97 219.2C195.234 219.2 194.978 218.88 194.978 218.24C194.978 218.032 194.994 217.856 195.026 217.664L195.938 213.216H197.938L198.13 212.224H196.162L196.594 210.08H195.554L194.978 212.224L193.762 212.304L193.586 213.216H194.722L193.81 217.6C193.778 217.888 193.73 218.144 193.73 218.464C193.73 219.424 194.226 220.192 195.586 220.192ZM205.751 220.192C206.359 220.192 206.871 220 207.223 219.84L206.951 218.96C206.711 219.072 206.439 219.2 206.135 219.2C205.399 219.2 205.143 218.88 205.143 218.24C205.143 218.032 205.159 217.856 205.191 217.664L206.103 213.216H208.103L208.295 212.224H206.327L206.759 210.08H205.719L205.143 212.224L203.927 212.304L203.751 213.216H204.887L203.975 217.6C203.943 217.888 203.895 218.144 203.895 218.464C203.895 219.424 204.391 220.192 205.751 220.192ZM212.157 220.192C214.285 220.192 216.365 218.096 216.365 215.152C216.365 213.216 215.261 212.032 213.581 212.032C211.453 212.032 209.389 214.128 209.389 217.072C209.389 219.008 210.477 220.192 212.157 220.192ZM212.285 219.168C211.213 219.168 210.621 218.4 210.621 216.992C210.621 214.816 212.029 213.04 213.453 213.04C214.525 213.04 215.117 213.824 215.117 215.232C215.117 217.408 213.725 219.168 212.285 219.168ZM223.802 219.072H223.834C224.234 219.728 224.89 220.192 225.706 220.192C227.85 220.192 229.898 217.84 229.898 214.848C229.898 213.04 229.018 212.032 227.658 212.032C226.682 212.032 225.754 212.592 224.97 213.248H224.922L225.018 212.224H224.01L221.802 223.28H223.018L223.514 220.736L223.802 219.072ZM227.21 213.056C228.09 213.056 228.634 213.712 228.634 215.024C228.634 217.184 227.21 219.168 225.658 219.168C225.05 219.168 224.506 218.848 224.074 218.048L224.81 214.336C225.546 213.536 226.49 213.056 227.21 213.056ZM233.211 220.192C233.547 220.192 233.771 220.144 233.979 220.064L233.963 219.12C233.819 219.168 233.771 219.168 233.707 219.168C233.547 219.168 233.435 219.072 233.435 218.88C233.435 218.816 233.435 218.736 233.467 218.576L235.467 208.608H234.235L232.267 218.512C232.203 218.784 232.171 219.008 232.171 219.184C232.171 219.824 232.523 220.192 233.211 220.192ZM239.242 220.192C240.218 220.192 241.194 219.648 241.946 218.848H242.01L241.882 220H242.89L244.442 212.224H243.45L243.146 213.2H243.082C242.714 212.496 242.042 212.032 241.21 212.032C239.05 212.032 237.002 214.384 237.002 217.376C237.002 219.2 237.882 220.192 239.242 220.192ZM239.69 219.168C238.826 219.168 238.266 218.528 238.266 217.184C238.266 215.04 239.706 213.056 241.258 213.056C241.85 213.056 242.394 213.392 242.842 214.208L242.138 217.68C241.37 218.688 240.506 219.168 239.69 219.168ZM245.817 223.344C247.305 223.344 248.249 222.176 249.065 220.656L253.641 212.224H252.425L250.185 216.592C249.801 217.328 249.401 218.176 249.033 218.912H248.969C248.905 218.176 248.825 217.296 248.713 216.592L248.105 212.224H246.889L248.217 220.016L247.929 220.576C247.401 221.648 246.681 222.352 245.897 222.352C245.689 222.352 245.513 222.304 245.321 222.208L244.921 223.12C245.225 223.28 245.593 223.344 245.817 223.344ZM258.544 220H259.76L261.328 212.224H260.096L258.544 220ZM261.136 210.608C261.632 210.608 262.064 210.224 262.064 209.696C262.064 209.232 261.696 208.96 261.28 208.96C260.784 208.96 260.352 209.36 260.352 209.888C260.352 210.352 260.72 210.608 261.136 210.608ZM263.347 220H264.595L265.427 215.776H267.107C269.779 215.776 271.699 214.64 271.699 212.064C271.699 210.24 270.371 209.504 268.403 209.504H265.443L263.347 220ZM265.635 214.768L266.483 210.496H268.099C269.635 210.496 270.467 211.008 270.467 212.224C270.467 213.904 269.315 214.768 267.155 214.768H265.635ZM275.078 220.192C276.054 220.192 277.03 219.648 277.782 218.848H277.846L277.718 220H278.726L280.278 212.224H279.286L278.982 213.2H278.918C278.55 212.496 277.878 212.032 277.046 212.032C274.886 212.032 272.838 214.384 272.838 217.376C272.838 219.2 273.718 220.192 275.078 220.192ZM275.526 219.168C274.662 219.168 274.102 218.528 274.102 217.184C274.102 215.04 275.542 213.056 277.094 213.056C277.686 213.056 278.23 213.392 278.678 214.208L277.974 217.68C277.206 218.688 276.342 219.168 275.526 219.168ZM288.47 213.168H288.422C288.038 212.48 287.414 212.032 286.582 212.032C284.422 212.032 282.374 214.384 282.374 217.376C282.374 219.2 283.254 220.192 284.614 220.192C285.59 220.192 286.566 219.648 287.318 218.848H287.382L287.254 220H288.262L290.566 208.608H289.334L288.726 211.648L288.47 213.168ZM285.062 219.168C284.198 219.168 283.638 218.528 283.638 217.184C283.638 215.04 285.078 213.056 286.63 213.056C287.222 213.056 287.766 213.392 288.214 214.208L287.51 217.68C286.726 218.688 285.878 219.168 285.062 219.168ZM298.667 220.192C300.795 220.192 302.875 218.096 302.875 215.152C302.875 213.216 301.771 212.032 300.091 212.032C297.963 212.032 295.899 214.128 295.899 217.072C295.899 219.008 296.987 220.192 298.667 220.192ZM298.795 219.168C297.723 219.168 297.131 218.4 297.131 216.992C297.131 214.816 298.539 213.04 299.963 213.04C301.035 213.04 301.627 213.824 301.627 215.232C301.627 217.408 300.235 219.168 298.795 219.168ZM304.947 220H306.163L307.139 215.088C307.795 213.824 308.659 213.136 309.427 213.136C309.715 213.136 309.939 213.184 310.099 213.264L310.531 212.176C310.307 212.08 310.083 212.032 309.795 212.032C308.835 212.032 308.003 212.768 307.379 213.712H307.315L307.491 212.224H306.483L304.947 220ZM318.339 220.192C319.475 220.192 320.275 219.712 320.835 219.28L320.291 218.48C319.811 218.848 319.251 219.168 318.563 219.168C317.331 219.168 316.723 218.4 316.723 216.992C316.723 214.864 318.179 213.04 319.731 213.04C320.339 213.04 320.707 213.264 321.107 213.744L321.827 212.976C321.363 212.448 320.739 212.032 319.811 212.032C317.555 212.032 315.475 214.176 315.475 217.072C315.475 219.056 316.643 220.192 318.339 220.192ZM325.936 220.192C328.064 220.192 330.144 218.096 330.144 215.152C330.144 213.216 329.04 212.032 327.36 212.032C325.232 212.032 323.168 214.128 323.168 217.072C323.168 219.008 324.256 220.192 325.936 220.192ZM326.064 219.168C324.992 219.168 324.4 218.4 324.4 216.992C324.4 214.816 325.808 213.04 327.232 213.04C328.304 213.04 328.896 213.824 328.896 215.232C328.896 217.408 327.504 219.168 326.064 219.168ZM332.216 220H333.432L334.536 214.496C335.448 213.52 336.264 213.088 336.728 213.088C337.496 213.088 337.848 213.504 337.848 214.288C337.848 214.56 337.8 214.784 337.72 215.2L336.76 220H337.976L339.08 214.496C340.008 213.52 340.824 213.088 341.272 213.088C342.04 213.088 342.408 213.504 342.408 214.288C342.408 214.56 342.36 214.784 342.28 215.2L341.304 220H342.536L343.528 215.04C343.608 214.608 343.656 214.336 343.656 213.968C343.656 212.768 343.112 212.032 341.816 212.032C341.016 212.032 340.056 212.608 339.064 213.552C338.952 212.704 338.504 212.032 337.272 212.032C336.456 212.032 335.528 212.624 334.712 213.392H334.648L334.76 212.224H333.752L332.216 220ZM347.284 219.072H347.316C347.716 219.728 348.372 220.192 349.188 220.192C351.332 220.192 353.38 217.84 353.38 214.848C353.38 213.04 352.5 212.032 351.14 212.032C350.164 212.032 349.236 212.592 348.452 213.248H348.404L348.5 212.224H347.492L345.284 223.28H346.5L346.996 220.736L347.284 219.072ZM350.692 213.056C351.572 213.056 352.116 213.712 352.116 215.024C352.116 217.184 350.692 219.168 349.14 219.168C348.532 219.168 347.988 218.848 347.556 218.048L348.292 214.336C349.028 213.536 349.972 213.056 350.692 213.056ZM362.868 212.224H361.652L360.548 217.728C359.604 218.704 358.852 219.136 358.244 219.136C357.444 219.136 357.092 218.72 357.092 217.936C357.092 217.664 357.14 217.44 357.22 217.024L358.196 212.224H356.964L355.972 217.184C355.876 217.6 355.844 217.888 355.844 218.256C355.844 219.44 356.372 220.192 357.684 220.192C358.628 220.192 359.524 219.568 360.372 218.816H360.436L360.308 220H361.316L362.868 212.224ZM367.304 220.192C367.912 220.192 368.424 220 368.776 219.84L368.504 218.96C368.264 219.072 367.992 219.2 367.688 219.2C366.952 219.2 366.696 218.88 366.696 218.24C366.696 218.032 366.712 217.856 366.744 217.664L367.656 213.216H369.656L369.848 212.224H367.88L368.312 210.08H367.272L366.696 212.224L365.48 212.304L365.304 213.216H366.44L365.528 217.6C365.496 217.888 365.448 218.144 365.448 218.464C365.448 219.424 365.944 220.192 367.304 220.192ZM370.909 216.944C370.909 219.024 372.125 220.192 373.965 220.192C374.973 220.192 375.853 219.808 376.477 219.36L375.997 218.544C375.501 218.912 374.861 219.216 374.253 219.216C372.893 219.216 371.853 218.368 372.141 216.368H377.197C377.293 216.08 377.469 215.472 377.469 214.848C377.469 213.248 376.813 212.032 375.069 212.032C373.037 212.032 370.909 214.016 370.909 216.944ZM372.269 215.536C372.669 214 373.789 213.008 374.925 213.008C376.045 213.008 376.429 213.856 376.429 214.736C376.429 215.04 376.397 215.28 376.349 215.536H372.269ZM379.458 220H380.674L381.65 215.088C382.306 213.824 383.17 213.136 383.938 213.136C384.226 213.136 384.45 213.184 384.61 213.264L385.042 212.176C384.818 212.08 384.594 212.032 384.306 212.032C383.346 212.032 382.514 212.768 381.89 213.712H381.826L382.002 212.224H380.994L379.458 220ZM390.434 213.216H391.442L390.082 220H391.298L392.658 213.216H394.242L394.434 212.224H392.866L393.138 210.896C393.314 209.984 393.746 209.408 394.45 209.408C394.818 209.408 395.09 209.536 395.314 209.68L395.746 208.8C395.362 208.576 394.93 208.416 394.37 208.416C393.058 208.416 392.226 209.36 391.906 210.928L391.65 212.224L390.61 212.304L390.434 213.216ZM398.087 220.192C400.215 220.192 402.295 218.096 402.295 215.152C402.295 213.216 401.191 212.032 399.511 212.032C397.383 212.032 395.319 214.128 395.319 217.072C395.319 219.008 396.407 220.192 398.087 220.192ZM398.215 219.168C397.143 219.168 396.551 218.4 396.551 216.992C396.551 214.816 397.959 213.04 399.383 213.04C400.455 213.04 401.047 213.824 401.047 215.232C401.047 217.408 399.655 219.168 398.215 219.168ZM404.368 220H405.584L406.56 215.088C407.216 213.824 408.08 213.136 408.848 213.136C409.136 213.136 409.36 213.184 409.52 213.264L409.952 212.176C409.728 212.08 409.504 212.032 409.216 212.032C408.256 212.032 407.424 212.768 406.8 213.712H406.736L406.912 212.224H405.904L404.368 220ZM20.392 240.192C22.52 240.192 24.6 238.096 24.6 235.152C24.6 233.216 23.496 232.032 21.816 232.032C19.688 232.032 17.624 234.128 17.624 237.072C17.624 239.008 18.712 240.192 20.392 240.192ZM20.52 239.168C19.448 239.168 18.856 238.4 18.856 236.992C18.856 234.816 20.264 233.04 21.688 233.04C22.76 233.04 23.352 233.824 23.352 235.232C23.352 237.408 21.96 239.168 20.52 239.168ZM26.6726 240H27.8886L28.9926 234.496C29.9686 233.52 30.7206 233.088 31.3286 233.088C32.1286 233.088 32.4806 233.504 32.4806 234.288C32.4806 234.56 32.4326 234.784 32.3526 235.2L31.3926 240H32.6086L33.6006 235.04C33.6966 234.608 33.7286 234.336 33.7286 233.968C33.7286 232.768 33.2006 232.032 31.8886 232.032C30.9126 232.032 30.0486 232.624 29.1686 233.392H29.1046L29.2166 232.224H28.2086L26.6726 240ZM37.2691 240.192C37.6051 240.192 37.8291 240.144 38.0371 240.064L38.0211 239.12C37.8771 239.168 37.8291 239.168 37.7651 239.168C37.6051 239.168 37.4931 239.072 37.4931 238.88C37.4931 238.816 37.4931 238.736 37.5251 238.576L39.5251 228.608H38.2931L36.3251 238.512C36.2611 238.784 36.2291 239.008 36.2291 239.184C36.2291 239.824 36.5811 240.192 37.2691 240.192ZM40.34 243.344C41.828 243.344 42.772 242.176 43.588 240.656L48.164 232.224H46.948L44.708 236.592C44.324 237.328 43.924 238.176 43.556 238.912H43.492C43.428 238.176 43.348 237.296 43.236 236.592L42.628 232.224H41.412L42.74 240.016L42.452 240.576C41.924 241.648 41.204 242.352 40.42 242.352C40.212 242.352 40.036 242.304 39.844 242.208L39.444 243.12C39.748 243.28 40.116 243.344 40.34 243.344ZM55.5625 240.192C57.7065 240.192 59.2905 238.96 59.2905 237.008C59.2905 235.952 58.6185 235.152 57.4985 234.784V234.72C59.0825 234.272 59.8825 233.232 59.8825 231.936C59.8825 230.528 58.9225 229.6 57.2105 229.6C56.2345 229.6 55.2585 229.952 54.3945 230.608L55.0185 231.424C55.6265 230.928 56.3945 230.608 57.0185 230.608C58.1065 230.608 58.6345 231.248 58.6345 232.144C58.6345 233.12 57.8185 234.256 55.2905 234.256L55.0985 235.184C57.2585 235.184 58.0585 235.968 58.0585 237.056C58.0585 238.272 57.0345 239.168 55.5785 239.168C54.5225 239.168 53.7385 238.512 53.2425 237.792L52.4265 238.432C53.0665 239.392 54.1705 240.192 55.5625 240.192ZM64.4002 240.192C66.6722 240.192 68.5922 236.928 68.5922 233.104C68.5922 231.12 67.6962 229.6 66.0962 229.6C63.8242 229.6 61.8722 232.912 61.8722 236.72C61.8722 238.72 62.7842 240.192 64.4002 240.192ZM64.4642 239.216C63.4722 239.216 63.0242 238.176 63.0242 236.768C63.0242 233.888 64.3682 230.592 66.0162 230.592C66.9922 230.592 67.4562 231.632 67.4562 233.056C67.4562 235.952 66.1122 239.216 64.4642 239.216ZM74.3463 240H75.5623L76.6663 234.496C77.5783 233.52 78.3943 233.088 78.8583 233.088C79.6263 233.088 79.9783 233.504 79.9783 234.288C79.9783 234.56 79.9303 234.784 79.8503 235.2L78.8903 240H80.1063L81.2103 234.496C82.1383 233.52 82.9543 233.088 83.4023 233.088C84.1703 233.088 84.5383 233.504 84.5383 234.288C84.5383 234.56 84.4903 234.784 84.4103 235.2L83.4343 240H84.6663L85.6583 235.04C85.7383 234.608 85.7863 234.336 85.7863 233.968C85.7863 232.768 85.2423 232.032 83.9463 232.032C83.1463 232.032 82.1863 232.608 81.1943 233.552C81.0823 232.704 80.6343 232.032 79.4023 232.032C78.5863 232.032 77.6583 232.624 76.8423 233.392H76.7783L76.8903 232.224H75.8823L74.3463 240ZM88.0698 240H89.2858L90.8538 232.224H89.6218L88.0698 240ZM90.6618 230.608C91.1578 230.608 91.5898 230.224 91.5898 229.696C91.5898 229.232 91.2218 228.96 90.8058 228.96C90.3098 228.96 89.8778 229.36 89.8778 229.888C89.8778 230.352 90.2458 230.608 90.6618 230.608ZM92.8088 240H94.0248L95.1288 234.496C96.1048 233.52 96.8568 233.088 97.4648 233.088C98.2648 233.088 98.6168 233.504 98.6168 234.288C98.6168 234.56 98.5688 234.784 98.4888 235.2L97.5288 240H98.7448L99.7368 235.04C99.8328 234.608 99.8648 234.336 99.8648 233.968C99.8648 232.768 99.3368 232.032 98.0248 232.032C97.0488 232.032 96.1848 232.624 95.3048 233.392H95.2408L95.3528 232.224H94.3448L92.8088 240ZM109.581 232.224H108.365L107.261 237.728C106.317 238.704 105.565 239.136 104.957 239.136C104.157 239.136 103.805 238.72 103.805 237.936C103.805 237.664 103.853 237.44 103.933 237.024L104.909 232.224H103.677L102.685 237.184C102.589 237.6 102.557 237.888 102.557 238.256C102.557 239.44 103.085 240.192 104.397 240.192C105.341 240.192 106.237 239.568 107.085 238.816H107.149L107.021 240H108.029L109.581 232.224ZM114.017 240.192C114.625 240.192 115.137 240 115.489 239.84L115.217 238.96C114.977 239.072 114.705 239.2 114.401 239.2C113.665 239.2 113.409 238.88 113.409 238.24C113.409 238.032 113.425 237.856 113.457 237.664L114.369 233.216H116.369L116.561 232.224H114.593L115.025 230.08H113.985L113.409 232.224L112.193 232.304L112.017 233.216H113.153L112.241 237.6C112.209 237.888 112.161 238.144 112.161 238.464C112.161 239.424 112.657 240.192 114.017 240.192ZM117.622 236.944C117.622 239.024 118.838 240.192 120.678 240.192C121.686 240.192 122.566 239.808 123.19 239.36L122.71 238.544C122.214 238.912 121.574 239.216 120.966 239.216C119.606 239.216 118.566 238.368 118.854 236.368H123.91C124.006 236.08 124.182 235.472 124.182 234.848C124.182 233.248 123.526 232.032 121.782 232.032C119.75 232.032 117.622 234.016 117.622 236.944ZM118.982 235.536C119.382 234 120.502 233.008 121.638 233.008C122.758 233.008 123.142 233.856 123.142 234.736C123.142 235.04 123.11 235.28 123.062 235.536H118.982ZM128.283 240.192C129.963 240.192 131.195 239.248 131.195 237.792C131.195 236.944 130.763 236.352 129.371 235.584C128.667 235.2 127.995 234.864 127.995 234.208C127.995 233.552 128.635 232.992 129.467 232.992C130.171 232.992 130.667 233.328 131.083 233.76L131.787 233.072C131.211 232.464 130.443 232.032 129.499 232.032C128.043 232.032 126.827 232.976 126.827 234.352C126.827 235.232 127.403 235.824 128.603 236.48C129.691 237.072 130.027 237.392 130.027 237.952C130.027 238.656 129.275 239.248 128.379 239.248C127.563 239.248 126.859 238.784 126.379 238.112L125.611 238.72C126.139 239.536 127.243 240.192 128.283 240.192ZM143.796 233.168H143.748C143.364 232.48 142.74 232.032 141.908 232.032C139.748 232.032 137.7 234.384 137.7 237.376C137.7 239.2 138.58 240.192 139.94 240.192C140.916 240.192 141.892 239.648 142.644 238.848H142.708L142.58 240H143.588L145.892 228.608H144.66L144.052 231.648L143.796 233.168ZM140.388 239.168C139.524 239.168 138.964 238.528 138.964 237.184C138.964 235.04 140.404 233.056 141.956 233.056C142.548 233.056 143.092 233.392 143.54 234.208L142.836 237.68C142.052 238.688 141.204 239.168 140.388 239.168ZM149.444 240.192C150.42 240.192 151.396 239.648 152.148 238.848H152.212L152.084 240H153.092L154.644 232.224H153.652L153.348 233.2H153.284C152.916 232.496 152.244 232.032 151.412 232.032C149.252 232.032 147.204 234.384 147.204 237.376C147.204 239.2 148.084 240.192 149.444 240.192ZM149.892 239.168C149.028 239.168 148.468 238.528 148.468 237.184C148.468 235.04 149.908 233.056 151.46 233.056C152.052 233.056 152.596 233.392 153.044 234.208L152.34 237.68C151.572 238.688 150.708 239.168 149.892 239.168ZM156.612 240H157.828L159.396 232.224H158.164L156.612 240ZM159.204 230.608C159.7 230.608 160.132 230.224 160.132 229.696C160.132 229.232 159.764 228.96 159.348 228.96C158.852 228.96 158.42 229.36 158.42 229.888C158.42 230.352 158.788 230.608 159.204 230.608ZM162.599 240.192C162.935 240.192 163.159 240.144 163.367 240.064L163.351 239.12C163.207 239.168 163.159 239.168 163.095 239.168C162.935 239.168 162.823 239.072 162.823 238.88C162.823 238.816 162.823 238.736 162.855 238.576L164.855 228.608H163.623L161.655 238.512C161.591 238.784 161.559 239.008 161.559 239.184C161.559 239.824 161.911 240.192 162.599 240.192ZM165.67 243.344C167.158 243.344 168.102 242.176 168.918 240.656L173.494 232.224H172.278L170.038 236.592C169.654 237.328 169.254 238.176 168.886 238.912H168.822C168.758 238.176 168.678 237.296 168.566 236.592L167.958 232.224H166.742L168.07 240.016L167.782 240.576C167.254 241.648 166.534 242.352 165.75 242.352C165.542 242.352 165.366 242.304 165.174 242.208L164.774 243.12C165.078 243.28 165.446 243.344 165.67 243.344ZM172.998 242.624C174.566 242.176 175.622 240.896 175.622 239.328C175.622 238.688 175.318 238.272 174.758 238.272C174.134 238.272 173.734 238.768 173.734 239.296C173.734 239.776 174.086 240.064 174.566 240.064H174.598C174.454 240.832 173.83 241.504 172.822 241.888L172.998 242.624ZM185.019 240.192C185.995 240.192 186.971 239.648 187.723 238.848H187.787L187.659 240H188.667L190.219 232.224H189.227L188.923 233.2H188.859C188.491 232.496 187.819 232.032 186.987 232.032C184.827 232.032 182.779 234.384 182.779 237.376C182.779 239.2 183.659 240.192 185.019 240.192ZM185.467 239.168C184.603 239.168 184.043 238.528 184.043 237.184C184.043 235.04 185.483 233.056 187.035 233.056C187.627 233.056 188.171 233.392 188.619 234.208L187.915 237.68C187.147 238.688 186.283 239.168 185.467 239.168ZM192.187 240H193.403L194.507 234.496C195.483 233.52 196.235 233.088 196.843 233.088C197.643 233.088 197.995 233.504 197.995 234.288C197.995 234.56 197.947 234.784 197.867 235.2L196.907 240H198.123L199.115 235.04C199.211 234.608 199.243 234.336 199.243 233.968C199.243 232.768 198.715 232.032 197.403 232.032C196.427 232.032 195.563 232.624 194.683 233.392H194.619L194.731 232.224H193.723L192.187 240ZM207.76 233.168H207.712C207.328 232.48 206.704 232.032 205.872 232.032C203.712 232.032 201.664 234.384 201.664 237.376C201.664 239.2 202.544 240.192 203.904 240.192C204.88 240.192 205.856 239.648 206.608 238.848H206.672L206.544 240H207.552L209.856 228.608H208.624L208.016 231.648L207.76 233.168ZM204.352 239.168C203.488 239.168 202.928 238.528 202.928 237.184C202.928 235.04 204.368 233.056 205.92 233.056C206.512 233.056 207.056 233.392 207.504 234.208L206.8 237.68C206.016 238.688 205.168 239.168 204.352 239.168ZM215.061 240H216.277L217.381 234.496C218.357 233.52 219.109 233.088 219.717 233.088C220.517 233.088 220.869 233.504 220.869 234.288C220.869 234.56 220.821 234.784 220.741 235.2L219.781 240H220.997L221.989 235.04C222.085 234.608 222.117 234.336 222.117 233.968C222.117 232.768 221.589 232.032 220.277 232.032C219.333 232.032 218.485 232.592 217.605 233.344H217.541L217.797 232.368L218.565 228.608H217.333L215.061 240ZM224.396 236.944C224.396 239.024 225.612 240.192 227.452 240.192C228.46 240.192 229.34 239.808 229.964 239.36L229.484 238.544C228.988 238.912 228.348 239.216 227.74 239.216C226.38 239.216 225.34 238.368 225.628 236.368H230.684C230.78 236.08 230.956 235.472 230.956 234.848C230.956 233.248 230.3 232.032 228.556 232.032C226.524 232.032 224.396 234.016 224.396 236.944ZM225.756 235.536C226.156 234 227.276 233.008 228.412 233.008C229.532 233.008 229.916 233.856 229.916 234.736C229.916 235.04 229.884 235.28 229.836 235.536H225.756ZM236.966 240H238.182L239.75 232.224H238.518L236.966 240ZM239.558 230.608C240.054 230.608 240.486 230.224 240.486 229.696C240.486 229.232 240.118 228.96 239.702 228.96C239.206 228.96 238.774 229.36 238.774 229.888C238.774 230.352 239.142 230.608 239.558 230.608ZM243.817 240.192C245.497 240.192 246.729 239.248 246.729 237.792C246.729 236.944 246.297 236.352 244.905 235.584C244.201 235.2 243.529 234.864 243.529 234.208C243.529 233.552 244.169 232.992 245.001 232.992C245.705 232.992 246.201 233.328 246.617 233.76L247.321 233.072C246.745 232.464 245.977 232.032 245.033 232.032C243.577 232.032 242.361 232.976 242.361 234.352C242.361 235.232 242.937 235.824 244.137 236.48C245.225 237.072 245.561 237.392 245.561 237.952C245.561 238.656 244.809 239.248 243.913 239.248C243.097 239.248 242.393 238.784 241.913 238.112L241.145 238.72C241.673 239.536 242.777 240.192 243.817 240.192ZM260.529 232.224H259.313L258.209 237.728C257.265 238.704 256.513 239.136 255.905 239.136C255.105 239.136 254.753 238.72 254.753 237.936C254.753 237.664 254.801 237.44 254.881 237.024L255.857 232.224H254.625L253.633 237.184C253.537 237.6 253.505 237.888 253.505 238.256C253.505 239.44 254.033 240.192 255.345 240.192C256.289 240.192 257.185 239.568 258.033 238.816H258.097L257.969 240H258.977L260.529 232.224ZM264.612 240.192C266.292 240.192 267.524 239.248 267.524 237.792C267.524 236.944 267.092 236.352 265.7 235.584C264.996 235.2 264.324 234.864 264.324 234.208C264.324 233.552 264.964 232.992 265.796 232.992C266.5 232.992 266.996 233.328 267.412 233.76L268.116 233.072C267.54 232.464 266.772 232.032 265.828 232.032C264.372 232.032 263.156 232.976 263.156 234.352C263.156 235.232 263.732 235.824 264.932 236.48C266.02 237.072 266.356 237.392 266.356 237.952C266.356 238.656 265.604 239.248 264.708 239.248C263.892 239.248 263.188 238.784 262.708 238.112L261.94 238.72C262.468 239.536 263.572 240.192 264.612 240.192ZM277.304 232.224H276.088L274.984 237.728C274.04 238.704 273.288 239.136 272.68 239.136C271.88 239.136 271.528 238.72 271.528 237.936C271.528 237.664 271.576 237.44 271.656 237.024L272.632 232.224H271.4L270.408 237.184C270.312 237.6 270.28 237.888 270.28 238.256C270.28 239.44 270.808 240.192 272.12 240.192C273.064 240.192 273.96 239.568 274.808 238.816H274.872L274.744 240H275.752L277.304 232.224ZM281.643 240.192C282.619 240.192 283.595 239.648 284.347 238.848H284.411L284.283 240H285.291L286.843 232.224H285.851L285.547 233.2H285.483C285.115 232.496 284.443 232.032 283.611 232.032C281.451 232.032 279.403 234.384 279.403 237.376C279.403 239.2 280.283 240.192 281.643 240.192ZM282.091 239.168C281.227 239.168 280.667 238.528 280.667 237.184C280.667 235.04 282.107 233.056 283.659 233.056C284.251 233.056 284.795 233.392 285.243 234.208L284.539 237.68C283.771 238.688 282.907 239.168 282.091 239.168ZM290.059 240.192C290.395 240.192 290.619 240.144 290.827 240.064L290.811 239.12C290.667 239.168 290.619 239.168 290.555 239.168C290.395 239.168 290.283 239.072 290.283 238.88C290.283 238.816 290.283 238.736 290.315 238.576L292.315 228.608H291.083L289.115 238.512C289.051 238.784 289.019 239.008 289.019 239.184C289.019 239.824 289.371 240.192 290.059 240.192ZM294.97 240.192C295.306 240.192 295.53 240.144 295.738 240.064L295.722 239.12C295.578 239.168 295.53 239.168 295.466 239.168C295.306 239.168 295.194 239.072 295.194 238.88C295.194 238.816 295.194 238.736 295.226 238.576L297.226 228.608H295.994L294.026 238.512C293.962 238.784 293.93 239.008 293.93 239.184C293.93 239.824 294.282 240.192 294.97 240.192ZM298.041 243.344C299.529 243.344 300.473 242.176 301.289 240.656L305.865 232.224H304.649L302.409 236.592C302.025 237.328 301.625 238.176 301.257 238.912H301.193C301.129 238.176 301.049 237.296 300.937 236.592L300.329 232.224H299.113L300.441 240.016L300.153 240.576C299.625 241.648 298.905 242.352 298.121 242.352C297.913 242.352 297.737 242.304 297.545 242.208L297.145 243.12C297.449 243.28 297.817 243.344 298.041 243.344ZM312.352 240H313.824L317.968 232.224H316.736L314.448 236.72C314.048 237.488 313.664 238.272 313.296 239.04H313.232C313.152 238.288 313.088 237.472 313.008 236.72L312.432 232.224H311.216L312.352 240ZM318.915 236.944C318.915 239.024 320.131 240.192 321.971 240.192C322.979 240.192 323.859 239.808 324.483 239.36L324.003 238.544C323.507 238.912 322.867 239.216 322.259 239.216C320.899 239.216 319.859 238.368 320.147 236.368H325.203C325.299 236.08 325.475 235.472 325.475 234.848C325.475 233.248 324.819 232.032 323.075 232.032C321.043 232.032 318.915 234.016 318.915 236.944ZM320.275 235.536C320.675 234 321.795 233.008 322.931 233.008C324.051 233.008 324.435 233.856 324.435 234.736C324.435 235.04 324.403 235.28 324.355 235.536H320.275ZM327.465 240H328.681L329.657 235.088C330.313 233.824 331.177 233.136 331.945 233.136C332.233 233.136 332.457 233.184 332.617 233.264L333.049 232.176C332.825 232.08 332.601 232.032 332.313 232.032C331.353 232.032 330.521 232.768 329.897 233.712H329.833L330.009 232.224H329.001L327.465 240ZM333.377 243.344C334.865 243.344 335.809 242.176 336.625 240.656L341.201 232.224H339.985L337.745 236.592C337.361 237.328 336.961 238.176 336.593 238.912H336.529C336.465 238.176 336.385 237.296 336.273 236.592L335.665 232.224H334.449L335.777 240.016L335.489 240.576C334.961 241.648 334.241 242.352 333.457 242.352C333.249 242.352 333.073 242.304 332.881 242.208L332.481 243.12C332.785 243.28 333.153 243.344 333.377 243.344ZM349 240.192C351.128 240.192 353.208 238.096 353.208 235.152C353.208 233.216 352.104 232.032 350.424 232.032C348.296 232.032 346.232 234.128 346.232 237.072C346.232 239.008 347.32 240.192 349 240.192ZM349.128 239.168C348.056 239.168 347.464 238.4 347.464 236.992C347.464 234.816 348.872 233.04 350.296 233.04C351.368 233.04 351.96 233.824 351.96 235.232C351.96 237.408 350.568 239.168 349.128 239.168ZM356.288 240L356.608 239.024H356.656C357.024 239.728 357.696 240.192 358.528 240.192C360.672 240.192 362.72 237.84 362.72 234.848C362.72 233.024 361.84 232.032 360.48 232.032C359.52 232.032 358.608 232.56 357.84 233.184H357.808L358.16 231.648L358.784 228.608H357.552L355.28 240H356.288ZM360.032 233.056C360.912 233.056 361.456 233.712 361.456 235.024C361.456 237.184 360.032 239.168 358.48 239.168C357.872 239.168 357.328 238.832 356.896 238.016L357.632 234.32C358.368 233.536 359.312 233.056 360.032 233.056ZM364.897 236.944C364.897 239.024 366.113 240.192 367.953 240.192C368.961 240.192 369.841 239.808 370.465 239.36L369.985 238.544C369.489 238.912 368.849 239.216 368.241 239.216C366.881 239.216 365.841 238.368 366.129 236.368H371.185C371.281 236.08 371.457 235.472 371.457 234.848C371.457 233.248 370.801 232.032 369.057 232.032C367.025 232.032 364.897 234.016 364.897 236.944ZM366.257 235.536C366.657 234 367.777 233.008 368.913 233.008C370.033 233.008 370.417 233.856 370.417 234.736C370.417 235.04 370.385 235.28 370.337 235.536H366.257ZM379.67 233.168H379.622C379.238 232.48 378.614 232.032 377.782 232.032C375.622 232.032 373.574 234.384 373.574 237.376C373.574 239.2 374.454 240.192 375.814 240.192C376.79 240.192 377.766 239.648 378.518 238.848H378.582L378.454 240H379.462L381.766 228.608H380.534L379.926 231.648L379.67 233.168ZM376.262 239.168C375.398 239.168 374.838 238.528 374.838 237.184C374.838 235.04 376.278 233.056 377.83 233.056C378.422 233.056 378.966 233.392 379.414 234.208L378.71 237.68C377.926 238.688 377.078 239.168 376.262 239.168ZM382.951 240H384.167L385.735 232.224H384.503L382.951 240ZM385.543 230.608C386.039 230.608 386.471 230.224 386.471 229.696C386.471 229.232 386.103 228.96 385.687 228.96C385.191 228.96 384.759 229.36 384.759 229.888C384.759 230.352 385.127 230.608 385.543 230.608ZM387.786 236.944C387.786 239.024 389.002 240.192 390.842 240.192C391.85 240.192 392.73 239.808 393.354 239.36L392.874 238.544C392.378 238.912 391.738 239.216 391.13 239.216C389.77 239.216 388.73 238.368 389.018 236.368H394.074C394.17 236.08 394.346 235.472 394.346 234.848C394.346 233.248 393.69 232.032 391.946 232.032C389.914 232.032 387.786 234.016 387.786 236.944ZM389.146 235.536C389.546 234 390.666 233.008 391.802 233.008C392.922 233.008 393.306 233.856 393.306 234.736C393.306 235.04 393.274 235.28 393.226 235.536H389.146ZM396.335 240H397.551L398.655 234.496C399.631 233.52 400.383 233.088 400.991 233.088C401.791 233.088 402.143 233.504 402.143 234.288C402.143 234.56 402.095 234.784 402.015 235.2L401.055 240H402.271L403.263 235.04C403.359 234.608 403.391 234.336 403.391 233.968C403.391 232.768 402.863 232.032 401.551 232.032C400.575 232.032 399.711 232.624 398.831 233.392H398.767L398.879 232.224H397.871L396.335 240ZM408.148 240.192C408.756 240.192 409.268 240 409.62 239.84L409.348 238.96C409.108 239.072 408.836 239.2 408.532 239.2C407.796 239.2 407.54 238.88 407.54 238.24C407.54 238.032 407.556 237.856 407.588 237.664L408.5 233.216H410.5L410.692 232.224H408.724L409.156 230.08H408.116L407.54 232.224L406.324 232.304L406.148 233.216H407.284L406.372 237.6C406.34 237.888 406.292 238.144 406.292 238.464C406.292 239.424 406.788 240.192 408.148 240.192ZM412.656 240.192C413.264 240.192 413.712 239.632 413.712 239.088C413.712 238.624 413.44 238.272 412.976 238.272C412.368 238.272 411.904 238.848 411.904 239.392C411.904 239.856 412.192 240.192 412.656 240.192ZM416.432 232.912C417.632 232.4 418.56 231.36 418.56 229.888C418.56 229.2 418.208 228.8 417.712 228.8C417.184 228.8 416.832 229.232 416.832 229.712C416.832 230.176 417.168 230.432 417.632 230.432C417.664 230.432 417.68 230.432 417.712 230.432C417.712 231.008 417.168 231.824 416.176 232.32L416.432 232.912ZM419.072 232.912C420.272 232.4 421.2 231.36 421.2 229.888C421.2 229.2 420.848 228.8 420.352 228.8C419.824 228.8 419.472 229.232 419.472 229.712C419.472 230.176 419.808 230.432 420.272 230.432C420.304 230.432 420.32 230.432 420.352 230.432C420.352 231.008 419.808 231.824 418.816 232.32L419.072 232.912Z" fill="black"/>
<path fill-rule="evenodd" clip-rule="evenodd" d="M526.578 32.0628C522.117 34.769 517.734 36.0765 515.676 35.5427C510.517 34.2043 510.043 15.2084 514.035 7.71958C518.027 0.230801 538.549 -3.0333 539.583 11.8044C539.942 16.954 537.794 21.5498 534.619 25.2999L540.311 52.0001H523.778L526.578 32.0628Z" fill="#D4A181"/>
<path fill-rule="evenodd" clip-rule="evenodd" d="M525.751 13.4429C524.321 11.2997 522.948 9.66504 521.162 8.71574C513.894 8.83134 513.043 7.51989 513.043 3.09974C514.217 2.25426 518.359 0.830608 522.998 0.430144C525.364 -0.25143 528.168 -0.123241 530.868 1.01368C534.202 1.96565 537.025 4.01584 538.272 7.85415C542.783 15.6893 539.359 23.8455 534.745 26.6316C533.516 25.1671 532.445 23.7478 531.488 22.3891C532.256 21.6338 532.733 20.5796 532.733 19.4132C532.733 17.1157 530.883 15.2532 528.6 15.2532C528.432 15.2532 528.267 15.2633 528.104 15.2828C528.001 18.1553 527.579 27.8737 526.468 31.2494C525.159 35.2292 517.52 36.2064 514.856 36.2064C512.555 36.2064 512.633 34.0133 512.689 32.4415C512.697 32.2151 512.705 32.0017 512.705 31.8095C512.705 31.408 513.224 31.409 513.81 31.4102C514.571 31.4117 515.446 31.4134 515.446 30.5343C515.446 29.576 514.131 28.841 512.953 28.1832C512.219 27.7729 511.538 27.3926 511.264 27.0069C510.401 25.7903 510.11 24.1494 511.413 24.1494C512.125 24.1494 513.102 24.5626 514.277 25.0597C516.052 25.8102 518.279 26.7519 520.729 26.7519C524.777 26.7519 525.739 13.6075 525.751 13.4429Z" fill="#191847"/>
<path fill-rule="evenodd" clip-rule="evenodd" d="M545.626 109L520.339 196.144L508.445 261.573H496.507L508.424 109H545.626Z" fill="#D4A181"/>
<path fill-rule="evenodd" clip-rule="evenodd" d="M556.99 109C555.226 154.271 555.922 178.963 556.316 183.076C556.711 187.189 558.953 214.736 574.23 262.954H561.814C541.582 216.697 534.519 189.15 532.199 183.076C529.878 177.002 523.025 152.31 513.02 109H556.99Z" fill="#D4A181"/>
<path fill-rule="evenodd" clip-rule="evenodd" d="M546.169 109C539.591 138.987 528.215 186.853 512.04 252.598H494.579C493.29 185.117 498.776 140.702 508.276 109H546.169Z" fill="#C5CFD6"/>
<path fill-rule="evenodd" clip-rule="evenodd" d="M557.078 109C555.35 154.271 559.829 198.871 573.701 253.303H555.072C534.803 207.736 520.275 163.356 510.346 109H557.078Z" fill="#DDE3E9"/>
<path fill-rule="evenodd" clip-rule="evenodd" d="M576 271.929L575.392 262.132C575.353 261.492 574.728 261.053 574.097 261.168C568.151 262.245 560.243 259.502 560.243 259.502C552.349 265.094 541.142 267.81 536.431 268.76C535.252 268.997 534.499 270.19 534.827 271.347L535.58 274H560.243H574.63L576 271.929Z" fill="#191847"/>
<path fill-rule="evenodd" clip-rule="evenodd" d="M511.11 271.929L510.502 262.132C510.462 261.492 509.838 261.053 509.207 261.168C503.261 262.245 495.353 259.502 495.353 259.502C487.459 265.094 476.252 267.81 471.541 268.76C470.361 268.997 469.609 270.19 469.937 271.347L470.689 274H495.353H509.739L511.11 271.929Z" fill="#191847"/>
<path fill-rule="evenodd" clip-rule="evenodd" d="M599.179 134.353C596.605 130.565 581.711 90.2876 581.711 90.2876L569.483 92.0656C569.483 92.0656 589.171 134.836 590.593 137.304C592.44 140.511 590.807 145.778 589.699 149.349C589.527 149.901 589.368 150.413 589.237 150.871C591.564 151.544 592.45 150.21 593.383 148.804C594.437 147.216 595.553 145.535 598.876 146.549C600.161 146.941 601.394 147.444 602.6 147.936C606.763 149.635 610.588 151.195 614.981 147.546C615.677 146.968 616.264 145.076 614.05 143.974C608.535 141.229 600.438 136.205 599.179 134.353ZM466.502 115.633L487.342 97.9425L493.038 109.622L471.914 120.178C466.267 127.845 463.038 131.102 462.225 129.95C461.541 128.979 461.954 127.995 462.335 127.09C462.632 126.384 462.909 125.726 462.632 125.157C461.998 123.857 457.875 124.287 453.98 124.863C450.084 125.439 451.104 123.614 451.988 122.687C455.818 120.011 460.656 117.66 466.502 115.633Z" fill="#D4A181"/>
<path fill-rule="evenodd" clip-rule="evenodd" d="M530.604 40.3768L523.028 37.868C512.749 63.5756 497.421 88.449 471.81 109.459L478.143 120.399C500.652 107.123 521.958 96.8105 530.604 76.8902C533.506 70.2044 530.841 48.371 530.604 40.3768Z" fill="#2F3676"/>
<path fill-rule="evenodd" clip-rule="evenodd" d="M556.628 112.728C556.628 112.728 524.071 116.184 505.377 112.728C503.833 112.443 503.589 109.854 504.305 108.097C515.456 80.7403 523.103 56.8698 523.103 37.8682C526.172 39.4174 533.845 38.3325 533.845 38.3325C547.593 57.9143 553.913 80.3821 556.628 112.728Z" fill="#8FA0D0"/>
<path fill-rule="evenodd" clip-rule="evenodd" d="M537.785 36.6913C537.43 36.4519 537.243 36.3328 537.243 36.3328L537.263 36.6913H531.534C531.246 38.3866 530.824 44.6703 530.209 53.8328C527.974 87.1281 523.189 158.438 513.002 185.728H583.286C581.803 154.702 570.379 117.599 558.544 86.0947C567.277 94.7944 577.476 109.378 585.719 133.654L598.884 130.27C585.467 72.3859 546.16 42.5335 538.533 37.2055C538.459 37.0331 538.385 36.8618 538.311 36.6913H537.785Z" fill="#5C63AB"/>
</svg>
