<svg width="412" height="495" viewBox="0 0 412 495" fill="none" xmlns="http://www.w3.org/2000/svg">
<path d="M12.4414 477.021L11.8848 480.098H11.0352V478.184L10.8789 477.803C10.5469 477.627 10.2051 477.497 9.85352 477.412C9.50846 477.321 9.14388 477.275 8.75977 477.275C8.10221 477.275 7.4707 477.393 6.86523 477.627C6.25977 477.861 5.71289 478.2 5.22461 478.643C4.43034 479.352 3.8151 480.257 3.37891 481.357C2.94271 482.458 2.72461 483.652 2.72461 484.941C2.72461 486.322 3.08594 487.393 3.80859 488.154C4.53776 488.916 5.56315 489.297 6.88477 489.297C7.15169 489.297 7.42839 489.274 7.71484 489.229C8.00781 489.183 8.30404 489.115 8.60352 489.023L8.98438 488.682L9.86328 486.377H10.7227L10.1758 489.541C9.48568 489.769 8.80534 489.941 8.13477 490.059C7.46419 490.182 6.81966 490.244 6.20117 490.244C4.55404 490.244 3.24544 489.743 2.27539 488.74C1.30534 487.738 0.820312 486.39 0.820312 484.697C0.820312 483.402 1.09049 482.174 1.63086 481.016C2.17122 479.857 2.93294 478.87 3.91602 478.057C4.61263 477.497 5.37435 477.07 6.20117 476.777C7.03451 476.484 7.9069 476.338 8.81836 476.338C9.38477 476.338 9.96745 476.396 10.5664 476.514C11.1719 476.624 11.7969 476.794 12.4414 477.021ZM19.0527 481.143H18.7793C17.5944 481.143 16.6211 481.654 15.8594 482.676C15.0977 483.691 14.7168 484.987 14.7168 486.562C14.7168 487.363 14.86 487.965 15.1465 488.369C15.4395 488.766 15.8757 488.965 16.4551 488.965C16.8327 488.965 17.2168 488.854 17.6074 488.633C17.998 488.411 18.4017 488.079 18.8184 487.637L19.8535 482.363L19.0527 481.143ZM20.918 480.361H21.9531C21.849 480.576 21.7318 480.928 21.6016 481.416C21.4779 481.898 21.3411 482.5 21.1914 483.223L20.4785 486.758C20.4134 487.07 20.3613 487.347 20.3223 487.588C20.2897 487.822 20.2734 488.014 20.2734 488.164C20.2734 488.477 20.3581 488.708 20.5273 488.857C20.7031 489.007 20.9798 489.082 21.3574 489.082C21.4355 489.082 21.5397 489.072 21.6699 489.053C21.8066 489.027 22.0736 488.968 22.4707 488.877V489.482C21.9108 489.717 21.4258 489.889 21.0156 490C20.612 490.117 20.2799 490.176 20.0195 490.176C19.6029 490.176 19.2936 490.052 19.0918 489.805C18.8965 489.557 18.7988 489.176 18.7988 488.662V488.496C18.2585 489.069 17.7441 489.492 17.2559 489.766C16.7676 490.039 16.2858 490.176 15.8105 490.176C14.9577 490.176 14.2839 489.867 13.7891 489.248C13.3008 488.63 13.0566 487.773 13.0566 486.68C13.0566 486.022 13.1413 485.384 13.3105 484.766C13.4863 484.147 13.7467 483.551 14.0918 482.979C14.6061 482.132 15.2604 481.484 16.0547 481.035C16.849 480.586 17.7344 480.361 18.7109 480.361C19.0039 480.361 19.3034 480.4 19.6094 480.479C19.9154 480.55 20.2181 480.658 20.5176 480.801L20.918 480.361ZM27.3828 480.361H27.7832L27.1484 483.096C27.7669 482.223 28.3854 481.549 29.0039 481.074C29.6224 480.599 30.1888 480.361 30.7031 480.361C31.0417 480.361 31.3118 480.459 31.5137 480.654C31.722 480.843 31.8262 481.09 31.8262 481.396C31.8262 481.787 31.7025 482.103 31.4551 482.344C31.2142 482.578 30.8919 482.695 30.4883 482.695H30.3516L29.8242 481.621C28.9388 481.966 28.2747 482.409 27.832 482.949C27.3958 483.49 27.0866 484.274 26.9043 485.303L26.084 490H24.4043L26.0645 481.816L24.4238 481.523V481.016L27.3828 480.361ZM38.7012 481.123C38.6556 481.117 38.5775 481.107 38.4668 481.094C38.3626 481.074 38.2812 481.064 38.2227 481.064C37.2266 481.064 36.3542 481.598 35.6055 482.666C34.8568 483.734 34.4824 485.039 34.4824 486.582C34.4824 487.35 34.6354 487.952 34.9414 488.389C35.2474 488.825 35.6673 489.043 36.2012 489.043C36.5918 489.043 37.0085 488.896 37.4512 488.604C37.8939 488.304 38.3301 487.884 38.7598 487.344L39.6582 482.256L38.7012 481.123ZM41.9434 475.283H42.4609L40.3223 487.256C40.2832 487.471 40.2539 487.673 40.2344 487.861C40.2148 488.044 40.2051 488.203 40.2051 488.34C40.2051 488.626 40.2767 488.838 40.4199 488.975C40.5632 489.111 40.7845 489.18 41.084 489.18C41.2012 489.18 41.3639 489.163 41.5723 489.131C41.7871 489.092 42.0573 489.036 42.3828 488.965V489.561C41.862 489.749 41.39 489.893 40.9668 489.99C40.5501 490.088 40.2018 490.137 39.9219 490.137C39.4596 490.137 39.1211 490.023 38.9062 489.795C38.6914 489.567 38.584 489.209 38.584 488.721C38.584 488.617 38.584 488.535 38.584 488.477C38.5905 488.418 38.597 488.366 38.6035 488.32C38.1217 488.932 37.6139 489.395 37.0801 489.707C36.5527 490.02 36.0189 490.176 35.4785 490.176C34.6647 490.176 34.0234 489.86 33.5547 489.229C33.0924 488.597 32.8613 487.721 32.8613 486.602C32.8613 485.924 32.9427 485.28 33.1055 484.668C33.2747 484.056 33.5189 483.493 33.8379 482.979C34.3652 482.152 35.0326 481.497 35.8398 481.016C36.6536 480.527 37.487 480.283 38.3398 480.283C38.6263 480.283 38.8997 480.312 39.1602 480.371C39.4206 480.423 39.681 480.505 39.9414 480.615L40.6445 476.621L38.877 476.416V475.859L41.9434 475.283ZM44.2578 484.521H48.7305L48.4766 485.859H43.9941L44.2578 484.521ZM55.8691 482.617L55.0293 481.465C54.9316 481.393 54.8307 481.341 54.7266 481.309C54.6289 481.276 54.5215 481.26 54.4043 481.26C54.0007 481.26 53.6654 481.387 53.3984 481.641C53.138 481.895 53.0078 482.214 53.0078 482.598C53.0078 483.073 53.4961 483.685 54.4727 484.434L54.5117 484.463C54.5703 484.508 54.6615 484.577 54.7852 484.668C55.944 485.553 56.5234 486.364 56.5234 487.1C56.5234 487.992 56.1816 488.727 55.498 489.307C54.8145 489.886 53.9388 490.176 52.8711 490.176C52.0508 490.176 51.3997 490.02 50.918 489.707C50.4427 489.388 50.2051 488.958 50.2051 488.418C50.2051 488.112 50.3027 487.868 50.498 487.686C50.6868 487.497 50.9375 487.402 51.25 487.402C51.3802 487.402 51.5137 487.432 51.6504 487.49C51.7871 487.542 51.9401 487.633 52.1094 487.764L51.748 488.76C51.9043 488.988 52.1061 489.163 52.3535 489.287C52.6009 489.404 52.8776 489.463 53.1836 489.463C53.7565 489.463 54.2025 489.313 54.5215 489.014C54.847 488.708 55.0098 488.291 55.0098 487.764C55.0098 487.464 54.9219 487.188 54.7461 486.934C54.5703 486.68 54.196 486.335 53.623 485.898L53.5352 485.83C52.3307 484.925 51.7285 484.108 51.7285 483.379C51.7285 482.552 52.0638 481.842 52.7344 481.25C53.4049 480.658 54.2155 480.361 55.166 480.361C55.7194 480.361 56.1686 480.479 56.5137 480.713C56.8587 480.941 57.0312 481.237 57.0312 481.602C57.0312 481.895 56.9271 482.132 56.7188 482.314C56.5104 482.497 56.2272 482.598 55.8691 482.617ZM63.8965 481.123C63.0046 481.123 62.2493 481.628 61.6309 482.637C61.0189 483.646 60.7129 484.899 60.7129 486.396C60.7129 487.34 60.8822 488.07 61.2207 488.584C61.5658 489.098 62.0443 489.355 62.6562 489.355C63.5352 489.355 64.2871 488.854 64.9121 487.852C65.5371 486.842 65.8496 485.605 65.8496 484.141C65.8496 483.177 65.6803 482.435 65.3418 481.914C65.0033 481.387 64.5215 481.123 63.8965 481.123ZM64.1504 480.342C65.1986 480.342 66.0286 480.693 66.6406 481.396C67.2526 482.1 67.5586 483.053 67.5586 484.258C67.5586 485.046 67.4186 485.811 67.1387 486.553C66.8587 487.288 66.4583 487.959 65.9375 488.564C65.4688 489.098 64.9382 489.502 64.3457 489.775C63.7533 490.042 63.1087 490.176 62.4121 490.176C61.377 490.176 60.5501 489.834 59.9316 489.15C59.3197 488.46 59.0137 487.536 59.0137 486.377C59.0137 485.576 59.1536 484.792 59.4336 484.023C59.7201 483.249 60.1139 482.575 60.6152 482.002C61.097 481.455 61.6374 481.042 62.2363 480.762C62.8418 480.482 63.4798 480.342 64.1504 480.342ZM72.7734 480.361H73.1738L72.5391 483.096C73.1576 482.223 73.776 481.549 74.3945 481.074C75.013 480.599 75.5794 480.361 76.0938 480.361C76.4323 480.361 76.7025 480.459 76.9043 480.654C77.1126 480.843 77.2168 481.09 77.2168 481.396C77.2168 481.787 77.0931 482.103 76.8457 482.344C76.6048 482.578 76.2826 482.695 75.8789 482.695H75.7422L75.2148 481.621C74.3294 481.966 73.6654 482.409 73.2227 482.949C72.7865 483.49 72.4772 484.274 72.2949 485.303L71.4746 490H69.7949L71.4551 481.816L69.8145 481.523V481.016L72.7734 480.361ZM81.1719 478.418H82.0898L81.6699 480.703H84.5508V481.562H81.5137L80.4688 486.904C80.4622 486.95 80.4525 487.012 80.4395 487.09C80.3809 487.428 80.3516 487.66 80.3516 487.783C80.3516 488.187 80.4557 488.496 80.6641 488.711C80.8724 488.919 81.1751 489.023 81.5723 489.023C81.7936 489.023 82.0605 488.991 82.373 488.926C82.6921 488.854 83.0599 488.753 83.4766 488.623V489.258C82.7995 489.551 82.2038 489.772 81.6895 489.922C81.1751 490.065 80.7422 490.137 80.3906 490.137C79.8242 490.137 79.401 489.987 79.1211 489.688C78.8477 489.388 78.7109 488.932 78.7109 488.32C78.7109 488.132 78.724 487.923 78.75 487.695C78.776 487.461 78.8151 487.223 78.8672 486.982L79.9512 481.562L78.7109 481.66V481.064L80.1758 480.42L81.1719 478.418ZM88.7402 480.361H89.2578L87.8223 487.832C87.7962 487.956 87.7767 488.06 87.7637 488.145C87.7572 488.223 87.7539 488.288 87.7539 488.34C87.7539 488.594 87.8353 488.789 87.998 488.926C88.1608 489.056 88.4017 489.121 88.7207 489.121C88.903 489.121 89.1146 489.098 89.3555 489.053C89.6029 489.001 89.8828 488.923 90.1953 488.818V489.443C89.6419 489.671 89.1276 489.844 88.6523 489.961C88.1836 490.078 87.7572 490.137 87.373 490.137C86.9499 490.137 86.6309 490.029 86.416 489.814C86.2012 489.593 86.0938 489.261 86.0938 488.818C86.0938 488.695 86.1035 488.545 86.123 488.369C86.1491 488.193 86.1816 487.998 86.2207 487.783L87.3926 481.816L85.7812 481.523V480.996L88.7402 480.361ZM89.1406 475.918C89.4271 475.918 89.6777 476.025 89.8926 476.24C90.1074 476.455 90.2148 476.709 90.2148 477.002C90.2148 477.295 90.1074 477.549 89.8926 477.764C89.6842 477.972 89.4336 478.076 89.1406 478.076C88.8346 478.076 88.5775 477.975 88.3691 477.773C88.1608 477.565 88.0566 477.308 88.0566 477.002C88.0566 476.702 88.1608 476.449 88.3691 476.24C88.584 476.025 88.8411 475.918 89.1406 475.918ZM95.1074 480.361H95.6055L95.2441 482.275C96.0775 481.618 96.8066 481.136 97.4316 480.83C98.0566 480.518 98.6198 480.361 99.1211 480.361C99.6419 480.361 100.052 480.505 100.352 480.791C100.651 481.077 100.801 481.468 100.801 481.963C100.801 482.145 100.781 482.357 100.742 482.598C100.71 482.839 100.638 483.219 100.527 483.74L99.8438 486.836C99.8372 486.882 99.8242 486.947 99.8047 487.031C99.6875 487.604 99.6289 487.982 99.6289 488.164C99.6289 488.477 99.7168 488.717 99.8926 488.887C100.075 489.056 100.332 489.141 100.664 489.141C100.801 489.141 100.957 489.128 101.133 489.102C101.315 489.069 101.523 489.023 101.758 488.965L101.768 489.521C101.247 489.723 100.785 489.873 100.381 489.971C99.9837 490.068 99.6452 490.117 99.3652 490.117C98.877 490.117 98.5091 490.02 98.2617 489.824C98.0208 489.622 97.9004 489.32 97.9004 488.916C97.9004 488.792 97.9134 488.639 97.9395 488.457C97.972 488.275 98.0143 488.07 98.0664 487.842L98.9258 484.141C98.9844 483.893 99.0267 483.662 99.0527 483.447C99.0853 483.226 99.1016 483.031 99.1016 482.861C99.1016 482.419 99.0169 482.1 98.8477 481.904C98.6784 481.702 98.4049 481.602 98.0273 481.602C97.6562 481.602 97.2103 481.745 96.6895 482.031C96.1751 482.318 95.6348 482.721 95.0684 483.242L93.8281 490H92.1289L93.7891 481.816L92.1484 481.523V481.016L95.1074 480.361ZM106.025 489.316C105.42 489.46 104.961 489.697 104.648 490.029C104.336 490.368 104.18 490.791 104.18 491.299C104.18 491.943 104.43 492.474 104.932 492.891C105.439 493.307 106.09 493.516 106.885 493.516C107.699 493.516 108.366 493.346 108.887 493.008C109.414 492.676 109.678 492.266 109.678 491.777C109.678 491.517 109.587 491.279 109.404 491.064C109.222 490.856 108.942 490.667 108.564 490.498L106.025 489.316ZM109.463 482.9C109.463 482.314 109.346 481.865 109.111 481.553C108.877 481.24 108.542 481.084 108.105 481.084C107.5 481.084 106.963 481.416 106.494 482.08C106.032 482.744 105.801 483.532 105.801 484.443C105.801 484.971 105.918 485.384 106.152 485.684C106.393 485.977 106.722 486.123 107.139 486.123C107.744 486.123 108.281 485.804 108.75 485.166C109.225 484.521 109.463 483.766 109.463 482.9ZM109.98 480.84H112.842V481.699H110.791C110.869 481.921 110.931 482.142 110.977 482.363C111.022 482.585 111.045 482.803 111.045 483.018C111.045 484.085 110.671 484.984 109.922 485.713C109.173 486.436 108.268 486.797 107.207 486.797C107.135 486.797 107.061 486.797 106.982 486.797C106.904 486.79 106.823 486.784 106.738 486.777C106.654 486.947 106.589 487.119 106.543 487.295C106.504 487.464 106.484 487.646 106.484 487.842V487.959L109.658 489.404C110.186 489.645 110.576 489.928 110.83 490.254C111.09 490.579 111.221 490.954 111.221 491.377C111.221 492.165 110.745 492.858 109.795 493.457C108.844 494.056 107.715 494.355 106.406 494.355C105.247 494.355 104.326 494.115 103.643 493.633C102.965 493.158 102.627 492.513 102.627 491.699C102.627 491.087 102.832 490.563 103.242 490.127C103.659 489.691 104.339 489.287 105.283 488.916C105.277 488.877 105.27 488.835 105.264 488.789C105.264 488.743 105.264 488.675 105.264 488.584C105.264 488.258 105.326 487.943 105.449 487.637C105.579 487.324 105.785 486.992 106.064 486.641C105.472 486.406 105.016 486.081 104.697 485.664C104.378 485.241 104.219 484.759 104.219 484.219C104.219 483.132 104.596 482.214 105.352 481.465C106.107 480.716 107.031 480.342 108.125 480.342C108.424 480.342 108.724 480.384 109.023 480.469C109.329 480.547 109.648 480.671 109.98 480.84ZM126.025 481.143H125.752C124.567 481.143 123.594 481.654 122.832 482.676C122.07 483.691 121.689 484.987 121.689 486.562C121.689 487.363 121.833 487.965 122.119 488.369C122.412 488.766 122.848 488.965 123.428 488.965C123.805 488.965 124.189 488.854 124.58 488.633C124.971 488.411 125.374 488.079 125.791 487.637L126.826 482.363L126.025 481.143ZM127.891 480.361H128.926C128.822 480.576 128.704 480.928 128.574 481.416C128.451 481.898 128.314 482.5 128.164 483.223L127.451 486.758C127.386 487.07 127.334 487.347 127.295 487.588C127.262 487.822 127.246 488.014 127.246 488.164C127.246 488.477 127.331 488.708 127.5 488.857C127.676 489.007 127.952 489.082 128.33 489.082C128.408 489.082 128.512 489.072 128.643 489.053C128.779 489.027 129.046 488.968 129.443 488.877V489.482C128.883 489.717 128.398 489.889 127.988 490C127.585 490.117 127.253 490.176 126.992 490.176C126.576 490.176 126.266 490.052 126.064 489.805C125.869 489.557 125.771 489.176 125.771 488.662V488.496C125.231 489.069 124.717 489.492 124.229 489.766C123.74 490.039 123.258 490.176 122.783 490.176C121.93 490.176 121.257 489.867 120.762 489.248C120.273 488.63 120.029 487.773 120.029 486.68C120.029 486.022 120.114 485.384 120.283 484.766C120.459 484.147 120.719 483.551 121.064 482.979C121.579 482.132 122.233 481.484 123.027 481.035C123.822 480.586 124.707 480.361 125.684 480.361C125.977 480.361 126.276 480.4 126.582 480.479C126.888 480.55 127.191 480.658 127.49 480.801L127.891 480.361ZM136.953 482.793L135.801 481.279H135.703C134.857 481.279 134.144 481.755 133.564 482.705C132.992 483.656 132.705 484.847 132.705 486.279C132.705 487.139 132.881 487.809 133.232 488.291C133.584 488.766 134.072 489.004 134.697 489.004C135.173 489.004 135.68 488.861 136.221 488.574C136.761 488.281 137.295 487.871 137.822 487.344V488.262C137.223 488.887 136.602 489.365 135.957 489.697C135.319 490.029 134.694 490.195 134.082 490.195C133.184 490.195 132.464 489.867 131.924 489.209C131.39 488.551 131.123 487.669 131.123 486.562C131.123 485.684 131.263 484.857 131.543 484.082C131.829 483.307 132.243 482.627 132.783 482.041C133.285 481.488 133.848 481.061 134.473 480.762C135.098 480.456 135.726 480.303 136.357 480.303C136.891 480.303 137.334 480.439 137.686 480.713C138.044 480.98 138.223 481.309 138.223 481.699C138.223 482.018 138.105 482.279 137.871 482.48C137.637 482.682 137.331 482.786 136.953 482.793ZM142.676 478.418H143.594L143.174 480.703H146.055V481.562H143.018L141.973 486.904C141.966 486.95 141.956 487.012 141.943 487.09C141.885 487.428 141.855 487.66 141.855 487.783C141.855 488.187 141.96 488.496 142.168 488.711C142.376 488.919 142.679 489.023 143.076 489.023C143.298 489.023 143.564 488.991 143.877 488.926C144.196 488.854 144.564 488.753 144.98 488.623V489.258C144.303 489.551 143.708 489.772 143.193 489.922C142.679 490.065 142.246 490.137 141.895 490.137C141.328 490.137 140.905 489.987 140.625 489.688C140.352 489.388 140.215 488.932 140.215 488.32C140.215 488.132 140.228 487.923 140.254 487.695C140.28 487.461 140.319 487.223 140.371 486.982L141.455 481.562L140.215 481.66V481.064L141.68 480.42L142.676 478.418ZM150.244 480.361H150.762L149.326 487.832C149.3 487.956 149.281 488.06 149.268 488.145C149.261 488.223 149.258 488.288 149.258 488.34C149.258 488.594 149.339 488.789 149.502 488.926C149.665 489.056 149.906 489.121 150.225 489.121C150.407 489.121 150.618 489.098 150.859 489.053C151.107 489.001 151.387 488.923 151.699 488.818V489.443C151.146 489.671 150.632 489.844 150.156 489.961C149.688 490.078 149.261 490.137 148.877 490.137C148.454 490.137 148.135 490.029 147.92 489.814C147.705 489.593 147.598 489.261 147.598 488.818C147.598 488.695 147.607 488.545 147.627 488.369C147.653 488.193 147.686 487.998 147.725 487.783L148.896 481.816L147.285 481.523V480.996L150.244 480.361ZM150.645 475.918C150.931 475.918 151.182 476.025 151.396 476.24C151.611 476.455 151.719 476.709 151.719 477.002C151.719 477.295 151.611 477.549 151.396 477.764C151.188 477.972 150.938 478.076 150.645 478.076C150.339 478.076 150.081 477.975 149.873 477.773C149.665 477.565 149.561 477.308 149.561 477.002C149.561 476.702 149.665 476.449 149.873 476.24C150.088 476.025 150.345 475.918 150.645 475.918ZM154.844 480.322H154.893C155.381 480.322 155.732 480.469 155.947 480.762C156.162 481.055 156.315 481.673 156.406 482.617L156.924 488.096C157.705 487.1 158.346 486.198 158.848 485.391C159.355 484.577 159.736 483.835 159.99 483.164L159.609 480.723C159.772 480.586 159.938 480.485 160.107 480.42C160.277 480.355 160.443 480.322 160.605 480.322C160.944 480.322 161.204 480.423 161.387 480.625C161.576 480.82 161.67 481.1 161.67 481.465C161.67 482.201 161.191 483.314 160.234 484.805C159.284 486.296 157.936 488.027 156.191 490H155.225C155.322 489.824 155.394 489.629 155.439 489.414C155.485 489.193 155.508 488.955 155.508 488.701C155.508 488.61 155.505 488.516 155.498 488.418C155.492 488.32 155.482 488.174 155.469 487.979L154.971 483.301C154.912 482.799 154.834 482.415 154.736 482.148C154.645 481.882 154.521 481.699 154.365 481.602L152.832 481.484V480.977L154.844 480.322ZM166.318 480.361H166.836L165.4 487.832C165.374 487.956 165.355 488.06 165.342 488.145C165.335 488.223 165.332 488.288 165.332 488.34C165.332 488.594 165.413 488.789 165.576 488.926C165.739 489.056 165.98 489.121 166.299 489.121C166.481 489.121 166.693 489.098 166.934 489.053C167.181 489.001 167.461 488.923 167.773 488.818V489.443C167.22 489.671 166.706 489.844 166.23 489.961C165.762 490.078 165.335 490.137 164.951 490.137C164.528 490.137 164.209 490.029 163.994 489.814C163.779 489.593 163.672 489.261 163.672 488.818C163.672 488.695 163.682 488.545 163.701 488.369C163.727 488.193 163.76 487.998 163.799 487.783L164.971 481.816L163.359 481.523V480.996L166.318 480.361ZM166.719 475.918C167.005 475.918 167.256 476.025 167.471 476.24C167.686 476.455 167.793 476.709 167.793 477.002C167.793 477.295 167.686 477.549 167.471 477.764C167.262 477.972 167.012 478.076 166.719 478.076C166.413 478.076 166.156 477.975 165.947 477.773C165.739 477.565 165.635 477.308 165.635 477.002C165.635 476.702 165.739 476.449 165.947 476.24C166.162 476.025 166.419 475.918 166.719 475.918ZM172.402 478.418H173.32L172.9 480.703H175.781V481.562H172.744L171.699 486.904C171.693 486.95 171.683 487.012 171.67 487.09C171.611 487.428 171.582 487.66 171.582 487.783C171.582 488.187 171.686 488.496 171.895 488.711C172.103 488.919 172.406 489.023 172.803 489.023C173.024 489.023 173.291 488.991 173.604 488.926C173.923 488.854 174.29 488.753 174.707 488.623V489.258C174.03 489.551 173.434 489.772 172.92 489.922C172.406 490.065 171.973 490.137 171.621 490.137C171.055 490.137 170.632 489.987 170.352 489.688C170.078 489.388 169.941 488.932 169.941 488.32C169.941 488.132 169.954 487.923 169.98 487.695C170.007 487.461 170.046 487.223 170.098 486.982L171.182 481.562L169.941 481.66V481.064L171.406 480.42L172.402 478.418ZM177.998 480.303C178.031 480.296 178.066 480.293 178.105 480.293C178.145 480.286 178.2 480.283 178.271 480.283C179.046 480.283 179.661 481.462 180.117 483.818C180.182 484.15 180.231 484.401 180.264 484.57L180.928 487.959C181.351 486.878 181.823 485.706 182.344 484.443C182.871 483.174 183.447 481.813 184.072 480.361H184.443L186.025 480.879V481.299L185.01 481.904C184.424 482.555 183.727 483.766 182.92 485.537C182.113 487.308 181.501 488.568 181.084 489.316C180.179 490.97 179.277 492.22 178.379 493.066C177.48 493.913 176.611 494.336 175.771 494.336C175.29 494.336 174.889 494.209 174.57 493.955C174.251 493.701 174.092 493.389 174.092 493.018C174.092 492.744 174.193 492.503 174.395 492.295C174.59 492.093 174.847 491.969 175.166 491.924L176.348 493.096C176.94 493.057 177.52 492.754 178.086 492.188C178.652 491.621 179.238 490.752 179.844 489.58L179.785 489.619L178.545 483.604C178.454 483.141 178.343 482.738 178.213 482.393C178.083 482.048 177.926 481.758 177.744 481.523L176.045 481.377V480.938L177.998 480.303ZM196.016 478.418H196.934L196.514 480.703H199.395V481.562H196.357L195.312 486.904C195.306 486.95 195.296 487.012 195.283 487.09C195.225 487.428 195.195 487.66 195.195 487.783C195.195 488.187 195.299 488.496 195.508 488.711C195.716 488.919 196.019 489.023 196.416 489.023C196.637 489.023 196.904 488.991 197.217 488.926C197.536 488.854 197.904 488.753 198.32 488.623V489.258C197.643 489.551 197.048 489.772 196.533 489.922C196.019 490.065 195.586 490.137 195.234 490.137C194.668 490.137 194.245 489.987 193.965 489.688C193.691 489.388 193.555 488.932 193.555 488.32C193.555 488.132 193.568 487.923 193.594 487.695C193.62 487.461 193.659 487.223 193.711 486.982L194.795 481.562L193.555 481.66V481.064L195.02 480.42L196.016 478.418ZM205.283 481.123C204.391 481.123 203.636 481.628 203.018 482.637C202.406 483.646 202.1 484.899 202.1 486.396C202.1 487.34 202.269 488.07 202.607 488.584C202.952 489.098 203.431 489.355 204.043 489.355C204.922 489.355 205.674 488.854 206.299 487.852C206.924 486.842 207.236 485.605 207.236 484.141C207.236 483.177 207.067 482.435 206.729 481.914C206.39 481.387 205.908 481.123 205.283 481.123ZM205.537 480.342C206.585 480.342 207.415 480.693 208.027 481.396C208.639 482.1 208.945 483.053 208.945 484.258C208.945 485.046 208.805 485.811 208.525 486.553C208.245 487.288 207.845 487.959 207.324 488.564C206.855 489.098 206.325 489.502 205.732 489.775C205.14 490.042 204.495 490.176 203.799 490.176C202.764 490.176 201.937 489.834 201.318 489.15C200.706 488.46 200.4 487.536 200.4 486.377C200.4 485.576 200.54 484.792 200.82 484.023C201.107 483.249 201.501 482.575 202.002 482.002C202.484 481.455 203.024 481.042 203.623 480.762C204.229 480.482 204.867 480.342 205.537 480.342ZM220.439 480.361H220.957L219.521 487.832C219.495 487.956 219.476 488.06 219.463 488.145C219.456 488.223 219.453 488.288 219.453 488.34C219.453 488.594 219.535 488.789 219.697 488.926C219.86 489.056 220.101 489.121 220.42 489.121C220.602 489.121 220.814 489.098 221.055 489.053C221.302 489.001 221.582 488.923 221.895 488.818V489.443C221.341 489.671 220.827 489.844 220.352 489.961C219.883 490.078 219.456 490.137 219.072 490.137C218.649 490.137 218.33 490.029 218.115 489.814C217.9 489.593 217.793 489.261 217.793 488.818C217.793 488.695 217.803 488.545 217.822 488.369C217.848 488.193 217.881 487.998 217.92 487.783L219.092 481.816L217.48 481.523V480.996L220.439 480.361ZM220.84 475.918C221.126 475.918 221.377 476.025 221.592 476.24C221.807 476.455 221.914 476.709 221.914 477.002C221.914 477.295 221.807 477.549 221.592 477.764C221.383 477.972 221.133 478.076 220.84 478.076C220.534 478.076 220.277 477.975 220.068 477.773C219.86 477.565 219.756 477.308 219.756 477.002C219.756 476.702 219.86 476.449 220.068 476.24C220.283 476.025 220.54 475.918 220.84 475.918ZM229.443 481.123C229.398 481.117 229.32 481.107 229.209 481.094C229.105 481.074 229.023 481.064 228.965 481.064C227.969 481.064 227.096 481.598 226.348 482.666C225.599 483.734 225.225 485.039 225.225 486.582C225.225 487.35 225.378 487.952 225.684 488.389C225.99 488.825 226.41 489.043 226.943 489.043C227.334 489.043 227.751 488.896 228.193 488.604C228.636 488.304 229.072 487.884 229.502 487.344L230.4 482.256L229.443 481.123ZM232.686 475.283H233.203L231.064 487.256C231.025 487.471 230.996 487.673 230.977 487.861C230.957 488.044 230.947 488.203 230.947 488.34C230.947 488.626 231.019 488.838 231.162 488.975C231.305 489.111 231.527 489.18 231.826 489.18C231.943 489.18 232.106 489.163 232.314 489.131C232.529 489.092 232.799 489.036 233.125 488.965V489.561C232.604 489.749 232.132 489.893 231.709 489.99C231.292 490.088 230.944 490.137 230.664 490.137C230.202 490.137 229.863 490.023 229.648 489.795C229.434 489.567 229.326 489.209 229.326 488.721C229.326 488.617 229.326 488.535 229.326 488.477C229.333 488.418 229.339 488.366 229.346 488.32C228.864 488.932 228.356 489.395 227.822 489.707C227.295 490.02 226.761 490.176 226.221 490.176C225.407 490.176 224.766 489.86 224.297 489.229C223.835 488.597 223.604 487.721 223.604 486.602C223.604 485.924 223.685 485.28 223.848 484.668C224.017 484.056 224.261 483.493 224.58 482.979C225.107 482.152 225.775 481.497 226.582 481.016C227.396 480.527 228.229 480.283 229.082 480.283C229.368 480.283 229.642 480.312 229.902 480.371C230.163 480.423 230.423 480.505 230.684 480.615L231.387 476.621L229.619 476.416V475.859L232.686 475.283ZM236.387 485.557C236.361 485.693 236.341 485.84 236.328 485.996C236.322 486.152 236.318 486.315 236.318 486.484C236.318 487.285 236.504 487.92 236.875 488.389C237.246 488.851 237.754 489.082 238.398 489.082C238.867 489.082 239.375 488.942 239.922 488.662C240.469 488.382 241.029 487.975 241.602 487.441V488.379C240.983 488.971 240.348 489.421 239.697 489.727C239.046 490.026 238.385 490.176 237.715 490.176C236.764 490.176 236.022 489.857 235.488 489.219C234.961 488.581 234.697 487.689 234.697 486.543C234.697 485.703 234.854 484.883 235.166 484.082C235.479 483.281 235.915 482.588 236.475 482.002C236.963 481.501 237.503 481.104 238.096 480.811C238.695 480.511 239.255 480.361 239.775 480.361C240.407 480.361 240.908 480.54 241.279 480.898C241.65 481.257 241.836 481.738 241.836 482.344C241.836 483.229 241.354 483.958 240.391 484.531C239.427 485.104 238.092 485.446 236.387 485.557ZM236.475 484.883C237.64 484.818 238.584 484.541 239.307 484.053C240.036 483.558 240.4 482.965 240.4 482.275C240.4 481.969 240.299 481.715 240.098 481.514C239.896 481.305 239.648 481.201 239.355 481.201C238.743 481.201 238.177 481.53 237.656 482.188C237.142 482.839 236.748 483.737 236.475 484.883ZM247.002 480.361H247.5L247.139 482.275C247.972 481.618 248.701 481.136 249.326 480.83C249.951 480.518 250.514 480.361 251.016 480.361C251.536 480.361 251.947 480.505 252.246 480.791C252.546 481.077 252.695 481.468 252.695 481.963C252.695 482.145 252.676 482.357 252.637 482.598C252.604 482.839 252.533 483.219 252.422 483.74L251.738 486.836C251.732 486.882 251.719 486.947 251.699 487.031C251.582 487.604 251.523 487.982 251.523 488.164C251.523 488.477 251.611 488.717 251.787 488.887C251.969 489.056 252.227 489.141 252.559 489.141C252.695 489.141 252.852 489.128 253.027 489.102C253.21 489.069 253.418 489.023 253.652 488.965L253.662 489.521C253.141 489.723 252.679 489.873 252.275 489.971C251.878 490.068 251.54 490.117 251.26 490.117C250.771 490.117 250.404 490.02 250.156 489.824C249.915 489.622 249.795 489.32 249.795 488.916C249.795 488.792 249.808 488.639 249.834 488.457C249.867 488.275 249.909 488.07 249.961 487.842L250.82 484.141C250.879 483.893 250.921 483.662 250.947 483.447C250.98 483.226 250.996 483.031 250.996 482.861C250.996 482.419 250.911 482.1 250.742 481.904C250.573 481.702 250.299 481.602 249.922 481.602C249.551 481.602 249.105 481.745 248.584 482.031C248.07 482.318 247.529 482.721 246.963 483.242L245.723 490H244.023L245.684 481.816L244.043 481.523V481.016L247.002 480.361ZM258.477 478.418H259.395L258.975 480.703H261.855V481.562H258.818L257.773 486.904C257.767 486.95 257.757 487.012 257.744 487.09C257.686 487.428 257.656 487.66 257.656 487.783C257.656 488.187 257.76 488.496 257.969 488.711C258.177 488.919 258.48 489.023 258.877 489.023C259.098 489.023 259.365 488.991 259.678 488.926C259.997 488.854 260.365 488.753 260.781 488.623V489.258C260.104 489.551 259.508 489.772 258.994 489.922C258.48 490.065 258.047 490.137 257.695 490.137C257.129 490.137 256.706 489.987 256.426 489.688C256.152 489.388 256.016 488.932 256.016 488.32C256.016 488.132 256.029 487.923 256.055 487.695C256.081 487.461 256.12 487.223 256.172 486.982L257.256 481.562L256.016 481.66V481.064L257.48 480.42L258.477 478.418ZM266.045 480.361H266.562L265.127 487.832C265.101 487.956 265.081 488.06 265.068 488.145C265.062 488.223 265.059 488.288 265.059 488.34C265.059 488.594 265.14 488.789 265.303 488.926C265.465 489.056 265.706 489.121 266.025 489.121C266.208 489.121 266.419 489.098 266.66 489.053C266.908 489.001 267.188 488.923 267.5 488.818V489.443C266.947 489.671 266.432 489.844 265.957 489.961C265.488 490.078 265.062 490.137 264.678 490.137C264.255 490.137 263.936 490.029 263.721 489.814C263.506 489.593 263.398 489.261 263.398 488.818C263.398 488.695 263.408 488.545 263.428 488.369C263.454 488.193 263.486 487.998 263.525 487.783L264.697 481.816L263.086 481.523V480.996L266.045 480.361ZM266.445 475.918C266.732 475.918 266.982 476.025 267.197 476.24C267.412 476.455 267.52 476.709 267.52 477.002C267.52 477.295 267.412 477.549 267.197 477.764C266.989 477.972 266.738 478.076 266.445 478.076C266.139 478.076 265.882 477.975 265.674 477.773C265.465 477.565 265.361 477.308 265.361 477.002C265.361 476.702 265.465 476.449 265.674 476.24C265.889 476.025 266.146 475.918 266.445 475.918ZM275.869 477.578L274.229 476.24C273.851 476.488 273.512 477.002 273.213 477.783C272.913 478.558 272.653 479.596 272.432 480.898H275.254V481.797H272.266L271.465 487.48C271.309 488.6 271.113 489.512 270.879 490.215C270.645 490.918 270.342 491.533 269.971 492.061C269.45 492.79 268.923 493.346 268.389 493.73C267.855 494.121 267.34 494.316 266.846 494.316C266.527 494.316 266.27 494.219 266.074 494.023C265.872 493.835 265.771 493.581 265.771 493.262C265.771 493.105 265.811 492.959 265.889 492.822C265.96 492.686 266.068 492.565 266.211 492.461L268.291 492.998C268.662 492.607 268.968 492.038 269.209 491.289C269.45 490.54 269.697 489.29 269.951 487.539L270.791 481.797L269.453 481.943L269.473 481.279L270.986 480.664C271.305 479.017 271.839 477.721 272.588 476.777C273.343 475.833 274.209 475.361 275.186 475.361C275.648 475.361 276.038 475.479 276.357 475.713C276.683 475.947 276.846 476.224 276.846 476.543C276.846 476.803 276.758 477.028 276.582 477.217C276.413 477.399 276.175 477.52 275.869 477.578ZM276.904 480.303C276.937 480.296 276.973 480.293 277.012 480.293C277.051 480.286 277.106 480.283 277.178 480.283C277.952 480.283 278.568 481.462 279.023 483.818C279.089 484.15 279.137 484.401 279.17 484.57L279.834 487.959C280.257 486.878 280.729 485.706 281.25 484.443C281.777 483.174 282.354 481.813 282.979 480.361H283.35L284.932 480.879V481.299L283.916 481.904C283.33 482.555 282.633 483.766 281.826 485.537C281.019 487.308 280.407 488.568 279.99 489.316C279.085 490.97 278.184 492.22 277.285 493.066C276.387 493.913 275.518 494.336 274.678 494.336C274.196 494.336 273.796 494.209 273.477 493.955C273.158 493.701 272.998 493.389 272.998 493.018C272.998 492.744 273.099 492.503 273.301 492.295C273.496 492.093 273.753 491.969 274.072 491.924L275.254 493.096C275.846 493.057 276.426 492.754 276.992 492.188C277.559 491.621 278.145 490.752 278.75 489.58L278.691 489.619L277.451 483.604C277.36 483.141 277.249 482.738 277.119 482.393C276.989 482.048 276.833 481.758 276.65 481.523L274.951 481.377V480.938L276.904 480.303ZM295.82 475.283H296.357C296.299 475.602 296.247 475.879 296.201 476.113C296.162 476.348 296.136 476.504 296.123 476.582L294.102 486.641C294.03 486.992 293.975 487.311 293.936 487.598C293.903 487.878 293.887 488.099 293.887 488.262C293.887 488.568 293.978 488.802 294.16 488.965C294.349 489.121 294.622 489.199 294.98 489.199C295.137 489.199 295.329 489.173 295.557 489.121C295.791 489.069 296.074 488.988 296.406 488.877V489.502C295.879 489.723 295.387 489.889 294.932 490C294.476 490.117 294.079 490.176 293.74 490.176C293.252 490.176 292.887 490.055 292.646 489.814C292.406 489.567 292.285 489.196 292.285 488.701C292.285 488.558 292.314 488.291 292.373 487.9C292.438 487.503 292.529 487.002 292.646 486.396L294.561 476.602L292.783 476.396V475.879L295.82 475.283ZM299.824 485.557C299.798 485.693 299.779 485.84 299.766 485.996C299.759 486.152 299.756 486.315 299.756 486.484C299.756 487.285 299.941 487.92 300.312 488.389C300.684 488.851 301.191 489.082 301.836 489.082C302.305 489.082 302.812 488.942 303.359 488.662C303.906 488.382 304.466 487.975 305.039 487.441V488.379C304.421 488.971 303.786 489.421 303.135 489.727C302.484 490.026 301.823 490.176 301.152 490.176C300.202 490.176 299.46 489.857 298.926 489.219C298.398 488.581 298.135 487.689 298.135 486.543C298.135 485.703 298.291 484.883 298.604 484.082C298.916 483.281 299.352 482.588 299.912 482.002C300.4 481.501 300.941 481.104 301.533 480.811C302.132 480.511 302.692 480.361 303.213 480.361C303.844 480.361 304.346 480.54 304.717 480.898C305.088 481.257 305.273 481.738 305.273 482.344C305.273 483.229 304.792 483.958 303.828 484.531C302.865 485.104 301.53 485.446 299.824 485.557ZM299.912 484.883C301.077 484.818 302.021 484.541 302.744 484.053C303.473 483.558 303.838 482.965 303.838 482.275C303.838 481.969 303.737 481.715 303.535 481.514C303.333 481.305 303.086 481.201 302.793 481.201C302.181 481.201 301.615 481.53 301.094 482.188C300.579 482.839 300.186 483.737 299.912 484.883ZM313.154 481.143H312.881C311.696 481.143 310.723 481.654 309.961 482.676C309.199 483.691 308.818 484.987 308.818 486.562C308.818 487.363 308.962 487.965 309.248 488.369C309.541 488.766 309.977 488.965 310.557 488.965C310.934 488.965 311.318 488.854 311.709 488.633C312.1 488.411 312.503 488.079 312.92 487.637L313.955 482.363L313.154 481.143ZM315.02 480.361H316.055C315.951 480.576 315.833 480.928 315.703 481.416C315.579 481.898 315.443 482.5 315.293 483.223L314.58 486.758C314.515 487.07 314.463 487.347 314.424 487.588C314.391 487.822 314.375 488.014 314.375 488.164C314.375 488.477 314.46 488.708 314.629 488.857C314.805 489.007 315.081 489.082 315.459 489.082C315.537 489.082 315.641 489.072 315.771 489.053C315.908 489.027 316.175 488.968 316.572 488.877V489.482C316.012 489.717 315.527 489.889 315.117 490C314.714 490.117 314.382 490.176 314.121 490.176C313.704 490.176 313.395 490.052 313.193 489.805C312.998 489.557 312.9 489.176 312.9 488.662V488.496C312.36 489.069 311.846 489.492 311.357 489.766C310.869 490.039 310.387 490.176 309.912 490.176C309.059 490.176 308.385 489.867 307.891 489.248C307.402 488.63 307.158 487.773 307.158 486.68C307.158 486.022 307.243 485.384 307.412 484.766C307.588 484.147 307.848 483.551 308.193 482.979C308.708 482.132 309.362 481.484 310.156 481.035C310.951 480.586 311.836 480.361 312.812 480.361C313.105 480.361 313.405 480.4 313.711 480.479C314.017 480.55 314.32 480.658 314.619 480.801L315.02 480.361ZM321.484 480.361H321.885L321.25 483.096C321.868 482.223 322.487 481.549 323.105 481.074C323.724 480.599 324.29 480.361 324.805 480.361C325.143 480.361 325.413 480.459 325.615 480.654C325.824 480.843 325.928 481.09 325.928 481.396C325.928 481.787 325.804 482.103 325.557 482.344C325.316 482.578 324.993 482.695 324.59 482.695H324.453L323.926 481.621C323.04 481.966 322.376 482.409 321.934 482.949C321.497 483.49 321.188 484.274 321.006 485.303L320.186 490H318.506L320.166 481.816L318.525 481.523V481.016L321.484 480.361ZM330.166 480.361H330.664L330.303 482.275C331.136 481.618 331.865 481.136 332.49 480.83C333.115 480.518 333.678 480.361 334.18 480.361C334.701 480.361 335.111 480.505 335.41 480.791C335.71 481.077 335.859 481.468 335.859 481.963C335.859 482.145 335.84 482.357 335.801 482.598C335.768 482.839 335.697 483.219 335.586 483.74L334.902 486.836C334.896 486.882 334.883 486.947 334.863 487.031C334.746 487.604 334.688 487.982 334.688 488.164C334.688 488.477 334.775 488.717 334.951 488.887C335.133 489.056 335.391 489.141 335.723 489.141C335.859 489.141 336.016 489.128 336.191 489.102C336.374 489.069 336.582 489.023 336.816 488.965L336.826 489.521C336.305 489.723 335.843 489.873 335.439 489.971C335.042 490.068 334.704 490.117 334.424 490.117C333.936 490.117 333.568 490.02 333.32 489.824C333.079 489.622 332.959 489.32 332.959 488.916C332.959 488.792 332.972 488.639 332.998 488.457C333.031 488.275 333.073 488.07 333.125 487.842L333.984 484.141C334.043 483.893 334.085 483.662 334.111 483.447C334.144 483.226 334.16 483.031 334.16 482.861C334.16 482.419 334.076 482.1 333.906 481.904C333.737 481.702 333.464 481.602 333.086 481.602C332.715 481.602 332.269 481.745 331.748 482.031C331.234 482.318 330.693 482.721 330.127 483.242L328.887 490H327.188L328.848 481.816L327.207 481.523V481.016L330.166 480.361ZM341.924 480.361H342.441L341.006 487.832C340.98 487.956 340.96 488.06 340.947 488.145C340.941 488.223 340.938 488.288 340.938 488.34C340.938 488.594 341.019 488.789 341.182 488.926C341.344 489.056 341.585 489.121 341.904 489.121C342.087 489.121 342.298 489.098 342.539 489.053C342.786 489.001 343.066 488.923 343.379 488.818V489.443C342.826 489.671 342.311 489.844 341.836 489.961C341.367 490.078 340.941 490.137 340.557 490.137C340.133 490.137 339.814 490.029 339.6 489.814C339.385 489.593 339.277 489.261 339.277 488.818C339.277 488.695 339.287 488.545 339.307 488.369C339.333 488.193 339.365 487.998 339.404 487.783L340.576 481.816L338.965 481.523V480.996L341.924 480.361ZM342.324 475.918C342.611 475.918 342.861 476.025 343.076 476.24C343.291 476.455 343.398 476.709 343.398 477.002C343.398 477.295 343.291 477.549 343.076 477.764C342.868 477.972 342.617 478.076 342.324 478.076C342.018 478.076 341.761 477.975 341.553 477.773C341.344 477.565 341.24 477.308 341.24 477.002C341.24 476.702 341.344 476.449 341.553 476.24C341.768 476.025 342.025 475.918 342.324 475.918ZM348.291 480.361H348.789L348.428 482.275C349.261 481.618 349.99 481.136 350.615 480.83C351.24 480.518 351.803 480.361 352.305 480.361C352.826 480.361 353.236 480.505 353.535 480.791C353.835 481.077 353.984 481.468 353.984 481.963C353.984 482.145 353.965 482.357 353.926 482.598C353.893 482.839 353.822 483.219 353.711 483.74L353.027 486.836C353.021 486.882 353.008 486.947 352.988 487.031C352.871 487.604 352.812 487.982 352.812 488.164C352.812 488.477 352.9 488.717 353.076 488.887C353.258 489.056 353.516 489.141 353.848 489.141C353.984 489.141 354.141 489.128 354.316 489.102C354.499 489.069 354.707 489.023 354.941 488.965L354.951 489.521C354.43 489.723 353.968 489.873 353.564 489.971C353.167 490.068 352.829 490.117 352.549 490.117C352.061 490.117 351.693 490.02 351.445 489.824C351.204 489.622 351.084 489.32 351.084 488.916C351.084 488.792 351.097 488.639 351.123 488.457C351.156 488.275 351.198 488.07 351.25 487.842L352.109 484.141C352.168 483.893 352.21 483.662 352.236 483.447C352.269 483.226 352.285 483.031 352.285 482.861C352.285 482.419 352.201 482.1 352.031 481.904C351.862 481.702 351.589 481.602 351.211 481.602C350.84 481.602 350.394 481.745 349.873 482.031C349.359 482.318 348.818 482.721 348.252 483.242L347.012 490H345.312L346.973 481.816L345.332 481.523V481.016L348.291 480.361ZM359.209 489.316C358.604 489.46 358.145 489.697 357.832 490.029C357.52 490.368 357.363 490.791 357.363 491.299C357.363 491.943 357.614 492.474 358.115 492.891C358.623 493.307 359.274 493.516 360.068 493.516C360.882 493.516 361.549 493.346 362.07 493.008C362.598 492.676 362.861 492.266 362.861 491.777C362.861 491.517 362.77 491.279 362.588 491.064C362.406 490.856 362.126 490.667 361.748 490.498L359.209 489.316ZM362.646 482.9C362.646 482.314 362.529 481.865 362.295 481.553C362.061 481.24 361.725 481.084 361.289 481.084C360.684 481.084 360.146 481.416 359.678 482.08C359.215 482.744 358.984 483.532 358.984 484.443C358.984 484.971 359.102 485.384 359.336 485.684C359.577 485.977 359.906 486.123 360.322 486.123C360.928 486.123 361.465 485.804 361.934 485.166C362.409 484.521 362.646 483.766 362.646 482.9ZM363.164 480.84H366.025V481.699H363.975C364.053 481.921 364.115 482.142 364.16 482.363C364.206 482.585 364.229 482.803 364.229 483.018C364.229 484.085 363.854 484.984 363.105 485.713C362.357 486.436 361.452 486.797 360.391 486.797C360.319 486.797 360.244 486.797 360.166 486.797C360.088 486.79 360.007 486.784 359.922 486.777C359.837 486.947 359.772 487.119 359.727 487.295C359.688 487.464 359.668 487.646 359.668 487.842V487.959L362.842 489.404C363.369 489.645 363.76 489.928 364.014 490.254C364.274 490.579 364.404 490.954 364.404 491.377C364.404 492.165 363.929 492.858 362.979 493.457C362.028 494.056 360.898 494.355 359.59 494.355C358.431 494.355 357.51 494.115 356.826 493.633C356.149 493.158 355.811 492.513 355.811 491.699C355.811 491.087 356.016 490.563 356.426 490.127C356.842 489.691 357.523 489.287 358.467 488.916C358.46 488.877 358.454 488.835 358.447 488.789C358.447 488.743 358.447 488.675 358.447 488.584C358.447 488.258 358.509 487.943 358.633 487.637C358.763 487.324 358.968 486.992 359.248 486.641C358.656 486.406 358.2 486.081 357.881 485.664C357.562 485.241 357.402 484.759 357.402 484.219C357.402 483.132 357.78 482.214 358.535 481.465C359.29 480.716 360.215 480.342 361.309 480.342C361.608 480.342 361.908 480.384 362.207 480.469C362.513 480.547 362.832 480.671 363.164 480.84ZM375.654 489.316C375.049 489.46 374.59 489.697 374.277 490.029C373.965 490.368 373.809 490.791 373.809 491.299C373.809 491.943 374.059 492.474 374.561 492.891C375.068 493.307 375.719 493.516 376.514 493.516C377.327 493.516 377.995 493.346 378.516 493.008C379.043 492.676 379.307 492.266 379.307 491.777C379.307 491.517 379.215 491.279 379.033 491.064C378.851 490.856 378.571 490.667 378.193 490.498L375.654 489.316ZM379.092 482.9C379.092 482.314 378.975 481.865 378.74 481.553C378.506 481.24 378.171 481.084 377.734 481.084C377.129 481.084 376.592 481.416 376.123 482.08C375.661 482.744 375.43 483.532 375.43 484.443C375.43 484.971 375.547 485.384 375.781 485.684C376.022 485.977 376.351 486.123 376.768 486.123C377.373 486.123 377.91 485.804 378.379 485.166C378.854 484.521 379.092 483.766 379.092 482.9ZM379.609 480.84H382.471V481.699H380.42C380.498 481.921 380.56 482.142 380.605 482.363C380.651 482.585 380.674 482.803 380.674 483.018C380.674 484.085 380.299 484.984 379.551 485.713C378.802 486.436 377.897 486.797 376.836 486.797C376.764 486.797 376.689 486.797 376.611 486.797C376.533 486.79 376.452 486.784 376.367 486.777C376.283 486.947 376.217 487.119 376.172 487.295C376.133 487.464 376.113 487.646 376.113 487.842V487.959L379.287 489.404C379.814 489.645 380.205 489.928 380.459 490.254C380.719 490.579 380.85 490.954 380.85 491.377C380.85 492.165 380.374 492.858 379.424 493.457C378.473 494.056 377.344 494.355 376.035 494.355C374.876 494.355 373.955 494.115 373.271 493.633C372.594 493.158 372.256 492.513 372.256 491.699C372.256 491.087 372.461 490.563 372.871 490.127C373.288 489.691 373.968 489.287 374.912 488.916C374.906 488.877 374.899 488.835 374.893 488.789C374.893 488.743 374.893 488.675 374.893 488.584C374.893 488.258 374.954 487.943 375.078 487.637C375.208 487.324 375.413 486.992 375.693 486.641C375.101 486.406 374.645 486.081 374.326 485.664C374.007 485.241 373.848 484.759 373.848 484.219C373.848 483.132 374.225 482.214 374.98 481.465C375.736 480.716 376.66 480.342 377.754 480.342C378.053 480.342 378.353 480.384 378.652 480.469C378.958 480.547 379.277 480.671 379.609 480.84ZM388.447 481.123C387.555 481.123 386.8 481.628 386.182 482.637C385.57 483.646 385.264 484.899 385.264 486.396C385.264 487.34 385.433 488.07 385.771 488.584C386.117 489.098 386.595 489.355 387.207 489.355C388.086 489.355 388.838 488.854 389.463 487.852C390.088 486.842 390.4 485.605 390.4 484.141C390.4 483.177 390.231 482.435 389.893 481.914C389.554 481.387 389.072 481.123 388.447 481.123ZM388.701 480.342C389.749 480.342 390.579 480.693 391.191 481.396C391.803 482.1 392.109 483.053 392.109 484.258C392.109 485.046 391.969 485.811 391.689 486.553C391.41 487.288 391.009 487.959 390.488 488.564C390.02 489.098 389.489 489.502 388.896 489.775C388.304 490.042 387.66 490.176 386.963 490.176C385.928 490.176 385.101 489.834 384.482 489.15C383.87 488.46 383.564 487.536 383.564 486.377C383.564 485.576 383.704 484.792 383.984 484.023C384.271 483.249 384.665 482.575 385.166 482.002C385.648 481.455 386.188 481.042 386.787 480.762C387.393 480.482 388.031 480.342 388.701 480.342ZM400.127 481.143H399.854C398.669 481.143 397.695 481.654 396.934 482.676C396.172 483.691 395.791 484.987 395.791 486.562C395.791 487.363 395.934 487.965 396.221 488.369C396.514 488.766 396.95 488.965 397.529 488.965C397.907 488.965 398.291 488.854 398.682 488.633C399.072 488.411 399.476 488.079 399.893 487.637L400.928 482.363L400.127 481.143ZM401.992 480.361H403.027C402.923 480.576 402.806 480.928 402.676 481.416C402.552 481.898 402.415 482.5 402.266 483.223L401.553 486.758C401.488 487.07 401.436 487.347 401.396 487.588C401.364 487.822 401.348 488.014 401.348 488.164C401.348 488.477 401.432 488.708 401.602 488.857C401.777 489.007 402.054 489.082 402.432 489.082C402.51 489.082 402.614 489.072 402.744 489.053C402.881 489.027 403.148 488.968 403.545 488.877V489.482C402.985 489.717 402.5 489.889 402.09 490C401.686 490.117 401.354 490.176 401.094 490.176C400.677 490.176 400.368 490.052 400.166 489.805C399.971 489.557 399.873 489.176 399.873 488.662V488.496C399.333 489.069 398.818 489.492 398.33 489.766C397.842 490.039 397.36 490.176 396.885 490.176C396.032 490.176 395.358 489.867 394.863 489.248C394.375 488.63 394.131 487.773 394.131 486.68C394.131 486.022 394.215 485.384 394.385 484.766C394.561 484.147 394.821 483.551 395.166 482.979C395.68 482.132 396.335 481.484 397.129 481.035C397.923 480.586 398.809 480.361 399.785 480.361C400.078 480.361 400.378 480.4 400.684 480.479C400.99 480.55 401.292 480.658 401.592 480.801L401.992 480.361ZM409.16 475.283H409.697C409.639 475.602 409.587 475.879 409.541 476.113C409.502 476.348 409.476 476.504 409.463 476.582L407.441 486.641C407.37 486.992 407.314 487.311 407.275 487.598C407.243 487.878 407.227 488.099 407.227 488.262C407.227 488.568 407.318 488.802 407.5 488.965C407.689 489.121 407.962 489.199 408.32 489.199C408.477 489.199 408.669 489.173 408.896 489.121C409.131 489.069 409.414 488.988 409.746 488.877V489.502C409.219 489.723 408.727 489.889 408.271 490C407.816 490.117 407.419 490.176 407.08 490.176C406.592 490.176 406.227 490.055 405.986 489.814C405.745 489.567 405.625 489.196 405.625 488.701C405.625 488.558 405.654 488.291 405.713 487.9C405.778 487.503 405.869 487.002 405.986 486.396L407.9 476.602L406.123 476.396V475.879L409.16 475.283Z" fill="#979797"/>
<rect width="253" height="45" rx="22.5" fill="#D5F0E4"/>
<path d="M28.9032 31.288C30.9192 31.288 32.5752 30.472 33.8472 29.008L32.3592 27.256C31.4712 28.216 30.3912 28.864 28.9992 28.864C26.3592 28.864 24.6792 26.704 24.6792 23.128C24.6792 19.6 26.5032 17.44 29.0712 17.44C30.2952 17.44 31.2312 17.992 32.0472 18.808L33.5352 17.008C32.5512 15.952 30.9672 15.016 28.9992 15.016C25.0392 15.016 21.8232 18.064 21.8232 23.2C21.8232 28.408 24.9432 31.288 28.9032 31.288ZM40.9103 31.288C42.5183 31.288 43.6703 30.496 44.7023 29.272H44.7743L44.9903 31H47.2463V19.216H44.4863V27.28C43.5983 28.432 42.9023 28.912 41.8703 28.912C40.5983 28.912 40.0463 28.192 40.0463 26.248V19.216H37.2863V26.608C37.2863 29.584 38.3903 31.288 40.9103 31.288ZM54.8435 31.288C55.4915 31.288 55.9715 31.192 56.3075 31.048L55.9475 28.984C55.7315 29.032 55.6355 29.032 55.5155 29.032C55.2275 29.032 54.9155 28.792 54.9155 28.12V14.056H52.1555V27.976C52.1555 30.016 52.8755 31.288 54.8435 31.288ZM64.2365 31.288C65.1725 31.288 65.9885 31.072 66.6365 30.856L66.1565 28.816C65.8205 28.96 65.3405 29.08 64.9325 29.08C63.8045 29.08 63.2765 28.408 63.2765 27.016V21.4H66.2765V19.216H63.2765V16H60.9725L60.6365 19.216L58.8125 19.336V21.4H60.4925V27.016C60.4925 29.56 61.5005 31.288 64.2365 31.288ZM70.1697 31H72.9297V19.216H70.1697V31ZM71.5617 17.152C72.5457 17.152 73.2657 16.504 73.2657 15.592C73.2657 14.656 72.5457 14.008 71.5617 14.008C70.5777 14.008 69.8577 14.656 69.8577 15.592C69.8577 16.504 70.5777 17.152 71.5617 17.152ZM80.5043 31H83.6963L87.7043 19.216H85.0403L83.1683 25.336C82.8323 26.488 82.4963 27.688 82.1603 28.888H82.0643C81.7523 27.688 81.3923 26.488 81.0803 25.336L79.2083 19.216H76.4003L80.5043 31ZM93.5477 31.288C94.9397 31.288 96.1397 30.592 97.1957 29.704H97.2917L97.4837 31H99.7637V24.016C99.7637 20.728 98.2997 18.928 95.3717 18.928C93.4997 18.928 91.8197 19.648 90.5237 20.464L91.5317 22.312C92.5877 21.688 93.6917 21.16 94.8437 21.16C96.4517 21.16 96.9557 22.216 97.0037 23.464C92.1557 23.992 90.0677 25.312 90.0677 27.832C90.0677 29.896 91.4837 31.288 93.5477 31.288ZM94.4357 29.128C93.4517 29.128 92.7317 28.672 92.7317 27.616C92.7317 26.44 93.7877 25.6 97.0037 25.192V27.832C96.1157 28.648 95.3957 29.128 94.4357 29.128ZM108.257 31.288C109.193 31.288 110.009 31.072 110.657 30.856L110.177 28.816C109.841 28.96 109.361 29.08 108.953 29.08C107.825 29.08 107.297 28.408 107.297 27.016V21.4H110.297V19.216H107.297V16H104.993L104.657 19.216L102.833 19.336V21.4H104.513V27.016C104.513 29.56 105.521 31.288 108.257 31.288ZM118.855 31.288C120.343 31.288 121.759 30.76 122.887 30.016L121.951 28.288C121.087 28.84 120.223 29.152 119.215 29.152C117.319 29.152 115.975 27.952 115.735 25.864H123.223C123.295 25.576 123.343 25.048 123.343 24.52C123.343 21.232 121.663 18.928 118.471 18.928C115.711 18.928 113.047 21.28 113.047 25.12C113.047 29.008 115.591 31.288 118.855 31.288ZM115.711 23.992C115.951 22.096 117.151 21.064 118.543 21.064C120.151 21.064 120.943 22.168 120.943 23.992H115.711ZM133.851 31H136.635V15.304H133.851V31ZM141.797 31H144.557V22.768C145.541 21.808 146.213 21.304 147.245 21.304C148.541 21.304 149.093 22.024 149.093 23.968V31H151.853V23.608C151.853 20.632 150.749 18.928 148.229 18.928C146.621 18.928 145.421 19.768 144.365 20.8H144.269L144.077 19.216H141.797V31ZM160.792 31.288C161.728 31.288 162.544 31.072 163.192 30.856L162.712 28.816C162.376 28.96 161.896 29.08 161.488 29.08C160.36 29.08 159.832 28.408 159.832 27.016V21.4H162.832V19.216H159.832V16H157.528L157.192 19.216L155.368 19.336V21.4H157.048V27.016C157.048 29.56 158.056 31.288 160.792 31.288ZM171.391 31.288C172.879 31.288 174.295 30.76 175.423 30.016L174.487 28.288C173.623 28.84 172.759 29.152 171.751 29.152C169.855 29.152 168.511 27.952 168.271 25.864H175.759C175.831 25.576 175.879 25.048 175.879 24.52C175.879 21.232 174.199 18.928 171.007 18.928C168.247 18.928 165.583 21.28 165.583 25.12C165.583 29.008 168.127 31.288 171.391 31.288ZM168.247 23.992C168.487 22.096 169.687 21.064 171.079 21.064C172.687 21.064 173.479 22.168 173.479 23.992H168.247ZM179.928 31H182.688V23.8C183.408 22.024 184.536 21.376 185.472 21.376C185.976 21.376 186.288 21.448 186.696 21.568L187.176 19.168C186.816 19 186.432 18.928 185.832 18.928C184.584 18.928 183.336 19.768 182.496 21.304H182.4L182.208 19.216H179.928V31ZM195.1 31.288C196.588 31.288 198.004 30.76 199.132 30.016L198.196 28.288C197.332 28.84 196.468 29.152 195.46 29.152C193.564 29.152 192.22 27.952 191.98 25.864H199.468C199.54 25.576 199.588 25.048 199.588 24.52C199.588 21.232 197.908 18.928 194.716 18.928C191.956 18.928 189.292 21.28 189.292 25.12C189.292 29.008 191.836 31.288 195.1 31.288ZM191.956 23.992C192.196 22.096 193.396 21.064 194.788 21.064C196.396 21.064 197.188 22.168 197.188 23.992H191.956ZM206.926 31.288C209.902 31.288 211.51 29.656 211.51 27.64C211.51 25.432 209.734 24.664 208.126 24.064C206.854 23.608 205.678 23.248 205.678 22.312C205.678 21.568 206.23 21.016 207.406 21.016C208.342 21.016 209.182 21.424 209.998 22.024L211.27 20.344C210.31 19.6 208.99 18.928 207.358 18.928C204.718 18.928 203.062 20.392 203.062 22.456C203.062 24.424 204.814 25.312 206.374 25.888C207.622 26.368 208.894 26.8 208.894 27.784C208.894 28.6 208.294 29.2 207.022 29.2C205.822 29.2 204.814 28.696 203.758 27.88L202.462 29.656C203.614 30.592 205.318 31.288 206.926 31.288ZM219.07 31.288C220.006 31.288 220.822 31.072 221.47 30.856L220.99 28.816C220.654 28.96 220.174 29.08 219.766 29.08C218.638 29.08 218.11 28.408 218.11 27.016V21.4H221.11V19.216H218.11V16H215.806L215.47 19.216L213.646 19.336V21.4H215.326V27.016C215.326 29.56 216.334 31.288 219.07 31.288ZM228.057 31.288C231.033 31.288 232.641 29.656 232.641 27.64C232.641 25.432 230.865 24.664 229.257 24.064C227.985 23.608 226.809 23.248 226.809 22.312C226.809 21.568 227.361 21.016 228.537 21.016C229.473 21.016 230.313 21.424 231.129 22.024L232.401 20.344C231.441 19.6 230.121 18.928 228.489 18.928C225.849 18.928 224.193 20.392 224.193 22.456C224.193 24.424 225.945 25.312 227.505 25.888C228.753 26.368 230.025 26.8 230.025 27.784C230.025 28.6 229.425 29.2 228.153 29.2C226.953 29.2 225.945 28.696 224.889 27.88L223.593 29.656C224.745 30.592 226.449 31.288 228.057 31.288Z" fill="#189779"/>
<rect y="53" width="212" height="45" rx="22.5" fill="#D5F0E4"/>
<path d="M21.4737 83H26.8977C30.3537 83 32.9217 81.536 32.9217 78.392C32.9217 76.28 31.6497 75.056 29.9217 74.672V74.576C31.2897 74.096 32.1057 72.656 32.1057 71.168C32.1057 68.288 29.7297 67.304 26.4897 67.304H21.4737V83ZM24.2577 73.784V69.464H26.2977C28.3377 69.464 29.3697 70.04 29.3697 71.576C29.3697 72.92 28.4337 73.784 26.2497 73.784H24.2577ZM24.2577 80.84V75.872H26.6097C28.9617 75.872 30.2097 76.592 30.2097 78.248C30.2097 80 28.9137 80.84 26.6097 80.84H24.2577ZM36.9673 83H39.7273V71.216H36.9673V83ZM38.3593 69.152C39.3433 69.152 40.0633 68.504 40.0633 67.592C40.0633 66.656 39.3433 66.008 38.3593 66.008C37.3753 66.008 36.6553 66.656 36.6553 67.592C36.6553 68.504 37.3753 69.152 38.3593 69.152ZM48.7659 88.208C52.6059 88.208 55.0539 86.384 55.0539 84.056C55.0539 82.016 53.5659 81.152 50.7339 81.152H48.6459C47.2059 81.152 46.7259 80.744 46.7259 80.072C46.7259 79.544 46.9419 79.256 47.3019 78.944C47.8299 79.16 48.4059 79.256 48.9099 79.256C51.4059 79.256 53.3739 77.864 53.3739 75.248C53.3739 74.432 53.0859 73.712 52.7019 73.256H54.8619V71.216H50.6379C50.1579 71.048 49.5579 70.928 48.9099 70.928C46.4379 70.928 44.2539 72.44 44.2539 75.152C44.2539 76.544 44.9979 77.672 45.7899 78.272V78.368C45.1179 78.848 44.4939 79.64 44.4939 80.552C44.4939 81.512 44.9499 82.136 45.5499 82.52V82.616C44.4699 83.288 43.8699 84.152 43.8699 85.136C43.8699 87.2 45.9579 88.208 48.7659 88.208ZM48.9099 77.528C47.7579 77.528 46.8459 76.664 46.8459 75.152C46.8459 73.664 47.7579 72.824 48.9099 72.824C50.0619 72.824 50.9499 73.688 50.9499 75.152C50.9499 76.664 50.0379 77.528 48.9099 77.528ZM49.1979 86.408C47.3259 86.408 46.1739 85.784 46.1739 84.728C46.1739 84.176 46.4619 83.648 47.0859 83.168C47.5419 83.288 48.0459 83.336 48.6939 83.336H50.3019C51.6459 83.336 52.3899 83.6 52.3899 84.512C52.3899 85.52 51.0939 86.408 49.1979 86.408ZM65.002 83H67.786V67.304H65.002V83ZM77.0768 83.288C78.3488 83.288 79.5488 82.592 80.4128 81.728H80.5088L80.7008 83H82.9808V66.056H80.2208V70.328L80.3168 72.224C79.4048 71.432 78.5648 70.928 77.2208 70.928C74.6528 70.928 72.2288 73.28 72.2288 77.12C72.2288 81.008 74.1248 83.288 77.0768 83.288ZM77.7488 81.008C76.0448 81.008 75.0848 79.64 75.0848 77.096C75.0848 74.624 76.3088 73.208 77.8208 73.208C78.6128 73.208 79.4048 73.472 80.2208 74.192V79.688C79.4288 80.6 78.6608 81.008 77.7488 81.008ZM92.949 83.288C94.437 83.288 95.853 82.76 96.981 82.016L96.045 80.288C95.181 80.84 94.317 81.152 93.309 81.152C91.413 81.152 90.069 79.952 89.829 77.864H97.317C97.389 77.576 97.437 77.048 97.437 76.52C97.437 73.232 95.757 70.928 92.565 70.928C89.805 70.928 87.141 73.28 87.141 77.12C87.141 81.008 89.685 83.288 92.949 83.288ZM89.805 75.992C90.045 74.096 91.245 73.064 92.637 73.064C94.245 73.064 95.037 74.168 95.037 75.992H89.805ZM104.061 83.288C105.453 83.288 106.653 82.592 107.709 81.704H107.805L107.997 83H110.277V76.016C110.277 72.728 108.813 70.928 105.885 70.928C104.013 70.928 102.333 71.648 101.037 72.464L102.045 74.312C103.101 73.688 104.205 73.16 105.357 73.16C106.965 73.16 107.469 74.216 107.517 75.464C102.669 75.992 100.581 77.312 100.581 79.832C100.581 81.896 101.997 83.288 104.061 83.288ZM104.949 81.128C103.965 81.128 103.245 80.672 103.245 79.616C103.245 78.44 104.301 77.6 107.517 77.192V79.832C106.629 80.648 105.909 81.128 104.949 81.128ZM118.281 83.288C121.257 83.288 122.865 81.656 122.865 79.64C122.865 77.432 121.089 76.664 119.481 76.064C118.209 75.608 117.033 75.248 117.033 74.312C117.033 73.568 117.585 73.016 118.761 73.016C119.697 73.016 120.537 73.424 121.353 74.024L122.625 72.344C121.665 71.6 120.345 70.928 118.713 70.928C116.073 70.928 114.417 72.392 114.417 74.456C114.417 76.424 116.169 77.312 117.729 77.888C118.977 78.368 120.249 78.8 120.249 79.784C120.249 80.6 119.649 81.2 118.377 81.2C117.177 81.2 116.169 80.696 115.113 79.88L113.817 81.656C114.969 82.592 116.673 83.288 118.281 83.288ZM137.785 83.288C140.737 83.288 143.401 81.032 143.401 77.12C143.401 73.184 140.737 70.928 137.785 70.928C134.857 70.928 132.193 73.184 132.193 77.12C132.193 81.032 134.857 83.288 137.785 83.288ZM137.785 81.032C136.057 81.032 135.025 79.472 135.025 77.12C135.025 74.744 136.057 73.184 137.785 73.184C139.513 73.184 140.569 74.744 140.569 77.12C140.569 79.472 139.513 81.032 137.785 81.032ZM147.932 83H150.692V73.4H152.996V71.216H150.692V69.944C150.692 68.576 151.22 67.952 152.18 67.952C152.588 67.952 153.044 68.048 153.476 68.24L154.004 66.176C153.476 65.96 152.684 65.768 151.844 65.768C149.06 65.768 147.932 67.544 147.932 69.992V71.216L146.348 71.336V73.4H147.932V83ZM166.157 74.648C166.661 72.992 167.117 71.216 167.549 69.464H167.645C168.101 71.192 168.557 72.992 169.061 74.648L169.613 76.568H165.605L166.157 74.648ZM160.901 83H163.733L164.957 78.752H170.237L171.461 83H174.389L169.277 67.304H166.013L160.901 83ZM177.737 83H180.521V67.304H177.737V83Z" fill="#189779"/>
<rect y="106" width="246" height="40" rx="20" fill="#D4D4D4"/>
<path d="M26.8504 134.24C28.5504 134.24 29.8304 133.54 30.8704 132.34L29.9504 131.3C29.1104 132.22 28.1704 132.78 26.9104 132.78C24.4304 132.78 22.8504 130.7 22.8504 127.4C22.8504 124.14 24.4904 122.1 26.9704 122.1C28.0904 122.1 28.9504 122.6 29.6504 123.34L30.5504 122.26C29.7904 121.4 28.5504 120.64 26.9504 120.64C23.6104 120.64 21.1304 123.22 21.1304 127.44C21.1304 131.72 23.5704 134.24 26.8504 134.24ZM38.114 134.24C40.494 134.24 42.614 132.38 42.614 129.16C42.614 125.9 40.494 124.04 38.114 124.04C35.734 124.04 33.614 125.9 33.614 129.16C33.614 132.38 35.734 134.24 38.114 134.24ZM38.114 132.88C36.454 132.88 35.314 131.38 35.314 129.16C35.314 126.92 36.454 125.4 38.114 125.4C39.794 125.4 40.914 126.92 40.914 129.16C40.914 131.38 39.794 132.88 38.114 132.88ZM46.3516 134H47.9916V126.96C48.8916 125.96 49.7116 125.46 50.4316 125.46C51.6716 125.46 52.2516 126.24 52.2516 128.06V134H53.8916V126.96C54.7916 125.96 55.5716 125.46 56.3316 125.46C57.5516 125.46 58.1316 126.24 58.1316 128.06V134H59.7716V127.84C59.7716 125.36 58.8116 124.04 56.8116 124.04C55.6316 124.04 54.6316 124.8 53.6116 125.9C53.2116 124.74 52.4116 124.04 50.9316 124.04C49.7716 124.04 48.7516 124.76 47.9116 125.68H47.8516L47.7116 124.28H46.3516V134ZM64.1114 134H65.7514V126.96C66.6514 125.96 67.4714 125.46 68.1914 125.46C69.4314 125.46 70.0114 126.24 70.0114 128.06V134H71.6514V126.96C72.5514 125.96 73.3314 125.46 74.0914 125.46C75.3114 125.46 75.8914 126.24 75.8914 128.06V134H77.5314V127.84C77.5314 125.36 76.5714 124.04 74.5714 124.04C73.3914 124.04 72.3914 124.8 71.3714 125.9C70.9714 124.74 70.1714 124.04 68.6914 124.04C67.5314 124.04 66.5114 124.76 65.6714 125.68H65.6114L65.4714 124.28H64.1114V134ZM84.7112 134.24C86.0512 134.24 87.0112 133.54 87.9112 132.48H87.9712L88.1112 134H89.4712V124.28H87.8312V131.18C86.9112 132.32 86.2112 132.82 85.2112 132.82C83.9312 132.82 83.3912 132.04 83.3912 130.22V124.28H81.7312V130.44C81.7312 132.92 82.6512 134.24 84.7112 134.24ZM93.9279 134H95.5679V126.96C96.5479 125.98 97.2279 125.46 98.2279 125.46C99.5079 125.46 100.068 126.24 100.068 128.06V134H101.708V127.84C101.708 125.36 100.788 124.04 98.7479 124.04C97.4079 124.04 96.4079 124.76 95.4879 125.68H95.4279L95.2879 124.28H93.9279V134ZM106.043 134H107.683V124.28H106.043V134ZM106.883 122.28C107.523 122.28 108.023 121.84 108.023 121.22C108.023 120.58 107.523 120.16 106.883 120.16C106.243 120.16 105.743 120.58 105.743 121.22C105.743 121.84 106.243 122.28 106.883 122.28ZM115.983 134.24C117.143 134.24 118.243 133.78 119.123 133L118.403 131.9C117.803 132.44 117.023 132.88 116.123 132.88C114.343 132.88 113.123 131.38 113.123 129.16C113.123 126.92 114.403 125.4 116.163 125.4C116.943 125.4 117.543 125.76 118.103 126.26L118.943 125.18C118.263 124.56 117.383 124.04 116.103 124.04C113.603 124.04 111.423 125.9 111.423 129.16C111.423 132.38 113.403 134.24 115.983 134.24ZM124.486 134.24C125.706 134.24 126.786 133.6 127.706 132.84H127.766L127.906 134H129.266V128.04C129.266 125.62 128.266 124.04 125.886 124.04C124.326 124.04 122.966 124.72 122.066 125.3L122.706 126.44C123.466 125.92 124.486 125.4 125.606 125.4C127.206 125.4 127.606 126.6 127.606 127.84C123.466 128.3 121.646 129.36 121.646 131.48C121.646 133.22 122.866 134.24 124.486 134.24ZM124.966 132.92C124.006 132.92 123.246 132.46 123.246 131.36C123.246 130.12 124.366 129.32 127.606 128.92V131.62C126.666 132.46 125.906 132.92 124.966 132.92ZM136.289 134.24C136.889 134.24 137.549 134.06 138.089 133.88L137.769 132.64C137.449 132.76 137.009 132.9 136.669 132.9C135.549 132.9 135.169 132.22 135.169 131.02V125.62H137.789V124.28H135.169V121.56H133.789L133.589 124.28L132.069 124.38V125.62H133.509V131C133.509 132.92 134.209 134.24 136.289 134.24ZM141.164 134H142.804V124.28H141.164V134ZM142.004 122.28C142.644 122.28 143.144 121.84 143.144 121.22C143.144 120.58 142.644 120.16 142.004 120.16C141.364 120.16 140.864 120.58 140.864 121.22C140.864 121.84 141.364 122.28 142.004 122.28ZM151.044 134.24C153.424 134.24 155.544 132.38 155.544 129.16C155.544 125.9 153.424 124.04 151.044 124.04C148.664 124.04 146.544 125.9 146.544 129.16C146.544 132.38 148.664 134.24 151.044 134.24ZM151.044 132.88C149.384 132.88 148.244 131.38 148.244 129.16C148.244 126.92 149.384 125.4 151.044 125.4C152.724 125.4 153.844 126.92 153.844 129.16C153.844 131.38 152.724 132.88 151.044 132.88ZM159.282 134H160.922V126.96C161.902 125.98 162.582 125.46 163.582 125.46C164.862 125.46 165.422 126.24 165.422 128.06V134H167.062V127.84C167.062 125.36 166.142 124.04 164.102 124.04C162.762 124.04 161.762 124.76 160.842 125.68H160.782L160.642 124.28H159.282V134ZM180.379 134.24C183.139 134.24 184.839 132.58 184.839 130.5C184.839 128.56 183.659 127.66 182.139 127L180.279 126.2C179.239 125.76 178.099 125.28 178.099 124.02C178.099 122.84 179.079 122.1 180.539 122.1C181.759 122.1 182.719 122.58 183.519 123.34L184.419 122.26C183.479 121.3 182.099 120.64 180.539 120.64C178.159 120.64 176.419 122.12 176.419 124.12C176.419 126.04 177.839 126.98 179.079 127.5L180.959 128.32C182.199 128.88 183.139 129.3 183.139 130.64C183.139 131.92 182.119 132.78 180.399 132.78C179.039 132.78 177.719 132.12 176.779 131.14L175.779 132.3C176.919 133.48 178.539 134.24 180.379 134.24ZM188.44 134H190.06V131.44L191.88 129.32L194.72 134H196.52L192.82 128.18L196.08 124.28H194.26L190.12 129.4H190.06V119.76H188.44V134ZM199.52 134H201.16V124.28H199.52V134ZM200.36 122.28C201 122.28 201.5 121.84 201.5 121.22C201.5 120.58 201 120.16 200.36 120.16C199.72 120.16 199.22 120.58 199.22 121.22C199.22 121.84 199.72 122.28 200.36 122.28ZM207.36 134.24C207.8 134.24 208.08 134.18 208.3 134.08L208.08 132.84C207.9 132.88 207.82 132.88 207.72 132.88C207.48 132.88 207.26 132.68 207.26 132.16V119.76H205.62V132.04C205.62 133.46 206.12 134.24 207.36 134.24ZM213.635 134.24C214.075 134.24 214.355 134.18 214.575 134.08L214.355 132.84C214.175 132.88 214.095 132.88 213.995 132.88C213.755 132.88 213.535 132.68 213.535 132.16V119.76H211.895V132.04C211.895 133.46 212.395 134.24 213.635 134.24ZM220.711 134.24C223.011 134.24 224.271 132.92 224.271 131.34C224.271 129.5 222.711 128.92 221.311 128.4C220.211 127.98 219.151 127.64 219.151 126.72C219.151 125.98 219.711 125.32 220.931 125.32C221.791 125.32 222.491 125.68 223.151 126.18L223.931 125.14C223.191 124.54 222.131 124.04 220.911 124.04C218.811 124.04 217.571 125.24 217.571 126.8C217.571 128.44 219.091 129.1 220.471 129.6C221.531 130 222.691 130.44 222.691 131.44C222.691 132.28 222.051 132.96 220.771 132.96C219.611 132.96 218.751 132.48 217.911 131.8L217.091 132.9C218.011 133.66 219.331 134.24 220.711 134.24Z" fill="#7E7E7E"/>
<rect y="159" width="201" height="40" rx="20" fill="#D4D4D4"/>
<path d="M22.0975 187H29.4975V185.58H23.7575V173.88H22.0975V187ZM36.3875 187.24C38.7675 187.24 40.8875 185.38 40.8875 182.16C40.8875 178.9 38.7675 177.04 36.3875 177.04C34.0075 177.04 31.8875 178.9 31.8875 182.16C31.8875 185.38 34.0075 187.24 36.3875 187.24ZM36.3875 185.88C34.7275 185.88 33.5875 184.38 33.5875 182.16C33.5875 179.92 34.7275 178.4 36.3875 178.4C38.0675 178.4 39.1875 179.92 39.1875 182.16C39.1875 184.38 38.0675 185.88 36.3875 185.88ZM47.9051 191.48C50.9251 191.48 52.8251 189.92 52.8251 188.12C52.8251 186.5 51.6851 185.8 49.4251 185.8H47.5451C46.2251 185.8 45.8251 185.36 45.8251 184.74C45.8251 184.2 46.1051 183.88 46.4451 183.58C46.8851 183.8 47.4251 183.92 47.9051 183.92C49.8851 183.92 51.4651 182.62 51.4651 180.54C51.4651 179.72 51.1251 178.98 50.6651 178.54H52.6651V177.28H49.2851C48.9251 177.14 48.4451 177.04 47.9051 177.04C45.9251 177.04 44.2451 178.38 44.2451 180.5C44.2451 181.66 44.8651 182.6 45.5051 183.12V183.2C45.0051 183.54 44.4451 184.18 44.4451 185C44.4451 185.76 44.8251 186.28 45.3051 186.58V186.66C44.4251 187.26 43.8851 188.04 43.8851 188.86C43.8851 190.54 45.5251 191.48 47.9051 191.48ZM47.9051 182.82C46.7851 182.82 45.8451 181.92 45.8451 180.5C45.8451 179.08 46.7651 178.24 47.9051 178.24C49.0451 178.24 49.9651 179.08 49.9651 180.5C49.9651 181.92 49.0251 182.82 47.9051 182.82ZM48.1451 190.34C46.3851 190.34 45.3251 189.68 45.3251 188.64C45.3251 188.08 45.6251 187.5 46.3251 187C46.7451 187.12 47.2051 187.16 47.5851 187.16H49.2651C50.5251 187.16 51.2251 187.46 51.2251 188.36C51.2251 189.38 50.0051 190.34 48.1451 190.34ZM55.881 187H57.521V177.28H55.881V187ZM56.721 175.28C57.361 175.28 57.861 174.84 57.861 174.22C57.861 173.58 57.361 173.16 56.721 173.16C56.081 173.16 55.581 173.58 55.581 174.22C55.581 174.84 56.081 175.28 56.721 175.28ZM65.8207 187.24C66.9807 187.24 68.0807 186.78 68.9607 186L68.2407 184.9C67.6407 185.44 66.8607 185.88 65.9607 185.88C64.1807 185.88 62.9607 184.38 62.9607 182.16C62.9607 179.92 64.2407 178.4 66.0007 178.4C66.7807 178.4 67.3807 178.76 67.9407 179.26L68.7807 178.18C68.1007 177.56 67.2207 177.04 65.9407 177.04C63.4407 177.04 61.2607 178.9 61.2607 182.16C61.2607 185.38 63.2407 187.24 65.8207 187.24ZM74.3242 187.24C75.5442 187.24 76.6242 186.6 77.5442 185.84H77.6042L77.7442 187H79.1042V181.04C79.1042 178.62 78.1042 177.04 75.7242 177.04C74.1642 177.04 72.8042 177.72 71.9042 178.3L72.5442 179.44C73.3042 178.92 74.3242 178.4 75.4442 178.4C77.0442 178.4 77.4442 179.6 77.4442 180.84C73.3042 181.3 71.4842 182.36 71.4842 184.48C71.4842 186.22 72.7042 187.24 74.3242 187.24ZM74.8042 185.92C73.8442 185.92 73.0842 185.46 73.0842 184.36C73.0842 183.12 74.2042 182.32 77.4442 181.92V184.62C76.5042 185.46 75.7442 185.92 74.8042 185.92ZM85.0801 187.24C85.5201 187.24 85.8001 187.18 86.0201 187.08L85.8001 185.84C85.6201 185.88 85.5401 185.88 85.4401 185.88C85.2001 185.88 84.9801 185.68 84.9801 185.16V172.76H83.3401V185.04C83.3401 186.46 83.8401 187.24 85.0801 187.24ZM97.6772 187H99.3572V175.28H103.317V173.88H93.7172V175.28H97.6772V187ZM106.698 187H108.338V179.96C109.318 178.98 109.998 178.46 110.998 178.46C112.278 178.46 112.838 179.24 112.838 181.06V187H114.478V180.84C114.478 178.36 113.558 177.04 111.518 177.04C110.178 177.04 109.198 177.76 108.278 178.64L108.338 176.64V172.76H106.698V187ZM118.754 187H120.394V177.28H118.754V187ZM119.594 175.28C120.234 175.28 120.734 174.84 120.734 174.22C120.734 173.58 120.234 173.16 119.594 173.16C118.954 173.16 118.454 173.58 118.454 174.22C118.454 174.84 118.954 175.28 119.594 175.28ZM124.854 187H126.494V179.96C127.474 178.98 128.154 178.46 129.154 178.46C130.434 178.46 130.994 179.24 130.994 181.06V187H132.634V180.84C132.634 178.36 131.714 177.04 129.674 177.04C128.334 177.04 127.334 177.76 126.414 178.68H126.354L126.214 177.28H124.854V187ZM136.969 187H138.589V184.44L140.409 182.32L143.249 187H145.049L141.349 181.18L144.609 177.28H142.789L138.649 182.4H138.589V172.76H136.969V187ZM148.049 187H149.689V177.28H148.049V187ZM148.889 175.28C149.529 175.28 150.029 174.84 150.029 174.22C150.029 173.58 149.529 173.16 148.889 173.16C148.249 173.16 147.749 173.58 147.749 174.22C147.749 174.84 148.249 175.28 148.889 175.28ZM154.149 187H155.789V179.96C156.769 178.98 157.449 178.46 158.449 178.46C159.729 178.46 160.289 179.24 160.289 181.06V187H161.929V180.84C161.929 178.36 161.009 177.04 158.969 177.04C157.629 177.04 156.629 177.76 155.709 178.68H155.649L155.509 177.28H154.149V187ZM169.544 191.48C172.564 191.48 174.464 189.92 174.464 188.12C174.464 186.5 173.324 185.8 171.064 185.8H169.184C167.864 185.8 167.464 185.36 167.464 184.74C167.464 184.2 167.744 183.88 168.084 183.58C168.524 183.8 169.064 183.92 169.544 183.92C171.524 183.92 173.104 182.62 173.104 180.54C173.104 179.72 172.764 178.98 172.304 178.54H174.304V177.28H170.924C170.564 177.14 170.084 177.04 169.544 177.04C167.564 177.04 165.884 178.38 165.884 180.5C165.884 181.66 166.504 182.6 167.144 183.12V183.2C166.644 183.54 166.084 184.18 166.084 185C166.084 185.76 166.464 186.28 166.944 186.58V186.66C166.064 187.26 165.524 188.04 165.524 188.86C165.524 190.54 167.164 191.48 169.544 191.48ZM169.544 182.82C168.424 182.82 167.484 181.92 167.484 180.5C167.484 179.08 168.404 178.24 169.544 178.24C170.684 178.24 171.604 179.08 171.604 180.5C171.604 181.92 170.664 182.82 169.544 182.82ZM169.784 190.34C168.024 190.34 166.964 189.68 166.964 188.64C166.964 188.08 167.264 187.5 167.964 187C168.384 187.12 168.844 187.16 169.224 187.16H170.904C172.164 187.16 172.864 187.46 172.864 188.36C172.864 189.38 171.644 190.34 169.784 190.34Z" fill="#7E7E7E"/>
<rect y="212" width="135" height="40" rx="20" fill="#D8D8D8"/>
<path d="M26.7725 240.24C28.4725 240.24 29.7525 239.54 30.7925 238.34L29.8725 237.3C29.0325 238.22 28.0925 238.78 26.8325 238.78C24.3525 238.78 22.7725 236.7 22.7725 233.4C22.7725 230.14 24.4125 228.1 26.8925 228.1C28.0125 228.1 28.8725 228.6 29.5725 229.34L30.4725 228.26C29.7125 227.4 28.4725 226.64 26.8725 226.64C23.5325 226.64 21.0525 229.22 21.0525 233.44C21.0525 237.72 23.4925 240.24 26.7725 240.24ZM34.2561 240H35.8961V233.76C36.5561 232.12 37.5361 231.52 38.3561 231.52C38.7561 231.52 38.9761 231.58 39.2961 231.68L39.6161 230.24C39.2961 230.1 38.9961 230.04 38.5761 230.04C37.4761 230.04 36.4761 230.82 35.8161 232.04H35.7561L35.6161 230.28H34.2561V240ZM46.1121 240.24C47.4321 240.24 48.4721 239.78 49.3121 239.24L48.7321 238.16C48.0121 238.62 47.2321 238.92 46.3121 238.92C44.4521 238.92 43.1921 237.6 43.0721 235.54H49.6321C49.6721 235.3 49.6921 234.94 49.6921 234.6C49.6921 231.82 48.2921 230.04 45.8121 230.04C43.5921 230.04 41.4521 231.98 41.4521 235.16C41.4521 238.34 43.5121 240.24 46.1121 240.24ZM43.0521 234.36C43.2521 232.44 44.4921 231.34 45.8521 231.34C47.3721 231.34 48.2521 232.4 48.2521 234.36H43.0521ZM55.2383 240.24C56.4583 240.24 57.5383 239.6 58.4583 238.84H58.5183L58.6583 240H60.0183V234.04C60.0183 231.62 59.0183 230.04 56.6383 230.04C55.0783 230.04 53.7183 230.72 52.8183 231.3L53.4583 232.44C54.2183 231.92 55.2383 231.4 56.3583 231.4C57.9583 231.4 58.3583 232.6 58.3583 233.84C54.2183 234.3 52.3983 235.36 52.3983 237.48C52.3983 239.22 53.6183 240.24 55.2383 240.24ZM55.7183 238.92C54.7583 238.92 53.9983 238.46 53.9983 237.36C53.9983 236.12 55.1183 235.32 58.3583 234.92V237.62C57.4183 238.46 56.6583 238.92 55.7183 238.92ZM67.0408 240.24C67.6408 240.24 68.3008 240.06 68.8408 239.88L68.5208 238.64C68.2008 238.76 67.7608 238.9 67.4208 238.9C66.3008 238.9 65.9208 238.22 65.9208 237.02V231.62H68.5408V230.28H65.9208V227.56H64.5408L64.3408 230.28L62.8208 230.38V231.62H64.2608V237C64.2608 238.92 64.9608 240.24 67.0408 240.24ZM71.9164 240H73.5564V230.28H71.9164V240ZM72.7564 228.28C73.3964 228.28 73.8964 227.84 73.8964 227.22C73.8964 226.58 73.3964 226.16 72.7564 226.16C72.1164 226.16 71.6164 226.58 71.6164 227.22C71.6164 227.84 72.1164 228.28 72.7564 228.28ZM80.116 240H82.036L85.476 230.28H83.856L82.016 235.8C81.736 236.76 81.416 237.74 81.136 238.66H81.056C80.756 237.74 80.436 236.76 80.156 235.8L78.316 230.28H76.616L80.116 240ZM92.3916 240.24C93.7116 240.24 94.7516 239.78 95.5916 239.24L95.0116 238.16C94.2916 238.62 93.5116 238.92 92.5916 238.92C90.7316 238.92 89.4716 237.6 89.3516 235.54H95.9116C95.9516 235.3 95.9716 234.94 95.9716 234.6C95.9716 231.82 94.5716 230.04 92.0916 230.04C89.8716 230.04 87.7316 231.98 87.7316 235.16C87.7316 238.34 89.7916 240.24 92.3916 240.24ZM89.3316 234.36C89.5316 232.44 90.7716 231.34 92.1316 231.34C93.6516 231.34 94.5316 232.4 94.5316 234.36H89.3316ZM102.416 240.24C103.016 240.24 103.676 240.06 104.216 239.88L103.896 238.64C103.576 238.76 103.136 238.9 102.796 238.9C101.676 238.9 101.296 238.22 101.296 237.02V231.62H103.916V230.28H101.296V227.56H99.916L99.716 230.28L98.196 230.38V231.62H99.636V237C99.636 238.92 100.336 240.24 102.416 240.24ZM107.452 244.18C109.412 244.18 110.412 242.72 111.092 240.8L114.752 230.28H113.152L111.412 235.66C111.152 236.52 110.872 237.52 110.592 238.4H110.512C110.212 237.5 109.872 236.5 109.572 235.66L107.592 230.28H105.892L109.792 240.02L109.572 240.74C109.172 241.94 108.472 242.82 107.372 242.82C107.132 242.82 106.832 242.74 106.632 242.68L106.312 243.98C106.632 244.1 107.012 244.18 107.452 244.18Z" fill="#787878"/>
<rect y="265" width="167" height="40" rx="20" fill="#D8D8D8"/>
<path d="M27.123 293.24C28.823 293.24 30.103 292.54 31.143 291.34L30.223 290.3C29.383 291.22 28.443 291.78 27.183 291.78C24.703 291.78 23.123 289.7 23.123 286.4C23.123 283.14 24.763 281.1 27.243 281.1C28.363 281.1 29.223 281.6 29.923 282.34L30.823 281.26C30.063 280.4 28.823 279.64 27.223 279.64C23.883 279.64 21.403 282.22 21.403 286.44C21.403 290.72 23.843 293.24 27.123 293.24ZM38.3866 293.24C40.7666 293.24 42.8866 291.38 42.8866 288.16C42.8866 284.9 40.7666 283.04 38.3866 283.04C36.0066 283.04 33.8866 284.9 33.8866 288.16C33.8866 291.38 36.0066 293.24 38.3866 293.24ZM38.3866 291.88C36.7266 291.88 35.5866 290.38 35.5866 288.16C35.5866 285.92 36.7266 284.4 38.3866 284.4C40.0666 284.4 41.1866 285.92 41.1866 288.16C41.1866 290.38 40.0666 291.88 38.3866 291.88ZM48.3642 293.24C48.8042 293.24 49.0842 293.18 49.3042 293.08L49.0842 291.84C48.9042 291.88 48.8242 291.88 48.7242 291.88C48.4842 291.88 48.2642 291.68 48.2642 291.16V278.76H46.6242V291.04C46.6242 292.46 47.1242 293.24 48.3642 293.24ZM54.6396 293.24C55.0796 293.24 55.3596 293.18 55.5796 293.08L55.3596 291.84C55.1796 291.88 55.0996 291.88 54.9996 291.88C54.7596 291.88 54.5396 291.68 54.5396 291.16V278.76H52.8996V291.04C52.8996 292.46 53.3996 293.24 54.6396 293.24ZM61.4151 293.24C62.6351 293.24 63.7151 292.6 64.6351 291.84H64.6951L64.8351 293H66.1951V287.04C66.1951 284.62 65.1951 283.04 62.8151 283.04C61.2551 283.04 59.8951 283.72 58.9951 284.3L59.6351 285.44C60.3951 284.92 61.4151 284.4 62.5351 284.4C64.1351 284.4 64.5351 285.6 64.5351 286.84C60.3951 287.3 58.5751 288.36 58.5751 290.48C58.5751 292.22 59.7951 293.24 61.4151 293.24ZM61.8951 291.92C60.9351 291.92 60.1751 291.46 60.1751 290.36C60.1751 289.12 61.2951 288.32 64.5351 287.92V290.62C63.5951 291.46 62.8351 291.92 61.8951 291.92ZM74.731 293.24C76.951 293.24 78.931 291.3 78.931 287.98C78.931 284.98 77.591 283.04 75.071 283.04C73.991 283.04 72.911 283.62 72.031 284.4L72.071 282.64V278.76H70.431V293H71.751L71.891 292H71.951C72.811 292.78 73.831 293.24 74.731 293.24ZM74.451 291.86C73.811 291.86 72.931 291.58 72.071 290.84V285.74C72.991 284.88 73.851 284.42 74.671 284.42C76.511 284.42 77.231 285.86 77.231 288C77.231 290.4 76.051 291.86 74.451 291.86ZM86.4434 293.24C88.8234 293.24 90.9434 291.38 90.9434 288.16C90.9434 284.9 88.8234 283.04 86.4434 283.04C84.0634 283.04 81.9434 284.9 81.9434 288.16C81.9434 291.38 84.0634 293.24 86.4434 293.24ZM86.4434 291.88C84.7834 291.88 83.6434 290.38 83.6434 288.16C83.6434 285.92 84.7834 284.4 86.4434 284.4C88.1234 284.4 89.2434 285.92 89.2434 288.16C89.2434 290.38 88.1234 291.88 86.4434 291.88ZM94.6811 293H96.3211V286.76C96.9811 285.12 97.9611 284.52 98.7811 284.52C99.1811 284.52 99.4011 284.58 99.7211 284.68L100.041 283.24C99.7211 283.1 99.4211 283.04 99.0011 283.04C97.9011 283.04 96.9011 283.82 96.2411 285.04H96.1811L96.0411 283.28H94.6811V293ZM104.544 293.24C105.764 293.24 106.844 292.6 107.764 291.84H107.824L107.964 293H109.324V287.04C109.324 284.62 108.324 283.04 105.944 283.04C104.384 283.04 103.024 283.72 102.124 284.3L102.764 285.44C103.524 284.92 104.544 284.4 105.664 284.4C107.264 284.4 107.664 285.6 107.664 286.84C103.524 287.3 101.704 288.36 101.704 290.48C101.704 292.22 102.924 293.24 104.544 293.24ZM105.024 291.92C104.064 291.92 103.304 291.46 103.304 290.36C103.304 289.12 104.424 288.32 107.664 287.92V290.62C106.724 291.46 105.964 291.92 105.024 291.92ZM116.347 293.24C116.947 293.24 117.607 293.06 118.147 292.88L117.827 291.64C117.507 291.76 117.067 291.9 116.727 291.9C115.607 291.9 115.227 291.22 115.227 290.02V284.62H117.847V283.28H115.227V280.56H113.847L113.647 283.28L112.127 283.38V284.62H113.567V290C113.567 291.92 114.267 293.24 116.347 293.24ZM121.222 293H122.862V283.28H121.222V293ZM122.062 281.28C122.702 281.28 123.202 280.84 123.202 280.22C123.202 279.58 122.702 279.16 122.062 279.16C121.422 279.16 120.922 279.58 120.922 280.22C120.922 280.84 121.422 281.28 122.062 281.28ZM131.102 293.24C133.482 293.24 135.602 291.38 135.602 288.16C135.602 284.9 133.482 283.04 131.102 283.04C128.722 283.04 126.602 284.9 126.602 288.16C126.602 291.38 128.722 293.24 131.102 293.24ZM131.102 291.88C129.442 291.88 128.302 290.38 128.302 288.16C128.302 285.92 129.442 284.4 131.102 284.4C132.782 284.4 133.902 285.92 133.902 288.16C133.902 290.38 132.782 291.88 131.102 291.88ZM139.339 293H140.979V285.96C141.959 284.98 142.639 284.46 143.639 284.46C144.919 284.46 145.479 285.24 145.479 287.06V293H147.119V286.84C147.119 284.36 146.199 283.04 144.159 283.04C142.819 283.04 141.819 283.76 140.899 284.68H140.839L140.699 283.28H139.339V293Z" fill="#787878"/>
<rect y="318" width="252" height="40" rx="20" fill="#E7E7E7"/>
<path d="M21.1785 346H22.8385V340.8H24.9985C27.8785 340.8 29.8385 339.5 29.8385 336.74C29.8385 333.86 27.8585 332.88 24.9185 332.88H21.1785V346ZM22.8385 339.44V334.22H24.7185C27.0185 334.22 28.1785 334.84 28.1785 336.74C28.1785 338.6 27.0785 339.44 24.7985 339.44H22.8385ZM34.905 346.24C36.125 346.24 37.205 345.6 38.125 344.84H38.185L38.325 346H39.685V340.04C39.685 337.62 38.685 336.04 36.305 336.04C34.745 336.04 33.385 336.72 32.485 337.3L33.125 338.44C33.885 337.92 34.905 337.4 36.025 337.4C37.625 337.4 38.025 338.6 38.025 339.84C33.885 340.3 32.065 341.36 32.065 343.48C32.065 345.22 33.285 346.24 34.905 346.24ZM35.385 344.92C34.425 344.92 33.665 344.46 33.665 343.36C33.665 342.12 34.785 341.32 38.025 340.92V343.62C37.085 344.46 36.325 344.92 35.385 344.92ZM46.7075 346.24C47.3075 346.24 47.9675 346.06 48.5075 345.88L48.1875 344.64C47.8675 344.76 47.4275 344.9 47.0875 344.9C45.9675 344.9 45.5875 344.22 45.5875 343.02V337.62H48.2075V336.28H45.5875V333.56H44.2075L44.0075 336.28L42.4875 336.38V337.62H43.9275V343C43.9275 344.92 44.6275 346.24 46.7075 346.24ZM51.5831 346H53.2231V336.28H51.5831V346ZM52.4231 334.28C53.0631 334.28 53.5631 333.84 53.5631 333.22C53.5631 332.58 53.0631 332.16 52.4231 332.16C51.7831 332.16 51.2831 332.58 51.2831 333.22C51.2831 333.84 51.7831 334.28 52.4231 334.28ZM61.6227 346.24C62.9427 346.24 63.9827 345.78 64.8227 345.24L64.2427 344.16C63.5227 344.62 62.7427 344.92 61.8227 344.92C59.9627 344.92 58.7027 343.6 58.5827 341.54H65.1427C65.1827 341.3 65.2027 340.94 65.2027 340.6C65.2027 337.82 63.8027 336.04 61.3227 336.04C59.1027 336.04 56.9627 337.98 56.9627 341.16C56.9627 344.34 59.0227 346.24 61.6227 346.24ZM58.5627 340.36C58.7627 338.44 60.0027 337.34 61.3627 337.34C62.8827 337.34 63.7627 338.4 63.7627 340.36H58.5627ZM68.7824 346H70.4224V338.96C71.4024 337.98 72.0824 337.46 73.0824 337.46C74.3624 337.46 74.9224 338.24 74.9224 340.06V346H76.5624V339.84C76.5624 337.36 75.6424 336.04 73.6024 336.04C72.2624 336.04 71.2624 336.76 70.3424 337.68H70.2824L70.1424 336.28H68.7824V346ZM84.7376 346.24C85.8976 346.24 86.9976 345.78 87.8776 345L87.1576 343.9C86.5576 344.44 85.7776 344.88 84.8776 344.88C83.0976 344.88 81.8776 343.38 81.8776 341.16C81.8776 338.92 83.1576 337.4 84.9176 337.4C85.6976 337.4 86.2976 337.76 86.8576 338.26L87.6976 337.18C87.0176 336.56 86.1376 336.04 84.8576 336.04C82.3576 336.04 80.1776 337.9 80.1776 341.16C80.1776 344.38 82.1576 346.24 84.7376 346.24ZM94.7068 346.24C96.0268 346.24 97.0668 345.78 97.9068 345.24L97.3268 344.16C96.6068 344.62 95.8268 344.92 94.9068 344.92C93.0468 344.92 91.7868 343.6 91.6668 341.54H98.2268C98.2668 341.3 98.2868 340.94 98.2868 340.6C98.2868 337.82 96.8868 336.04 94.4068 336.04C92.1868 336.04 90.0468 337.98 90.0468 341.16C90.0468 344.34 92.1068 346.24 94.7068 346.24ZM91.6468 340.36C91.8468 338.44 93.0868 337.34 94.4468 337.34C95.9668 337.34 96.8468 338.4 96.8468 340.36H91.6468ZM100.426 349.2H101.626L106.966 331.8H105.766L100.426 349.2ZM110.196 346H111.856V340.8H114.016C116.896 340.8 118.856 339.5 118.856 336.74C118.856 333.86 116.876 332.88 113.936 332.88H110.196V346ZM111.856 339.44V334.22H113.736C116.036 334.22 117.196 334.84 117.196 336.74C117.196 338.6 116.096 339.44 113.816 339.44H111.856ZM125.994 346.24C127.314 346.24 128.354 345.78 129.194 345.24L128.614 344.16C127.894 344.62 127.114 344.92 126.194 344.92C124.334 344.92 123.074 343.6 122.954 341.54H129.514C129.554 341.3 129.574 340.94 129.574 340.6C129.574 337.82 128.174 336.04 125.694 336.04C123.474 336.04 121.334 337.98 121.334 341.16C121.334 344.34 123.394 346.24 125.994 346.24ZM122.934 340.36C123.134 338.44 124.374 337.34 125.734 337.34C127.254 337.34 128.134 338.4 128.134 340.36H122.934ZM133.154 346H134.794V339.76C135.454 338.12 136.434 337.52 137.254 337.52C137.654 337.52 137.874 337.58 138.194 337.68L138.514 336.24C138.194 336.1 137.894 336.04 137.474 336.04C136.374 336.04 135.374 336.82 134.714 338.04H134.654L134.514 336.28H133.154V346ZM143.727 346.24C146.027 346.24 147.287 344.92 147.287 343.34C147.287 341.5 145.727 340.92 144.327 340.4C143.227 339.98 142.167 339.64 142.167 338.72C142.167 337.98 142.727 337.32 143.947 337.32C144.807 337.32 145.507 337.68 146.167 338.18L146.947 337.14C146.207 336.54 145.147 336.04 143.927 336.04C141.827 336.04 140.587 337.24 140.587 338.8C140.587 340.44 142.107 341.1 143.487 341.6C144.547 342 145.707 342.44 145.707 343.44C145.707 344.28 145.067 344.96 143.787 344.96C142.627 344.96 141.767 344.48 140.927 343.8L140.107 344.9C141.027 345.66 142.347 346.24 143.727 346.24ZM154.684 346.24C156.004 346.24 157.044 345.78 157.884 345.24L157.304 344.16C156.584 344.62 155.804 344.92 154.884 344.92C153.024 344.92 151.764 343.6 151.644 341.54H158.204C158.244 341.3 158.264 340.94 158.264 340.6C158.264 337.82 156.864 336.04 154.384 336.04C152.164 336.04 150.024 337.98 150.024 341.16C150.024 344.34 152.084 346.24 154.684 346.24ZM151.624 340.36C151.824 338.44 153.064 337.34 154.424 337.34C155.944 337.34 156.824 338.4 156.824 340.36H151.624ZM164.041 346H165.961L169.401 336.28H167.781L165.941 341.8C165.661 342.76 165.341 343.74 165.061 344.66H164.981C164.681 343.74 164.361 342.76 164.081 341.8L162.241 336.28H160.541L164.041 346ZM176.317 346.24C177.637 346.24 178.677 345.78 179.517 345.24L178.937 344.16C178.217 344.62 177.437 344.92 176.517 344.92C174.657 344.92 173.397 343.6 173.277 341.54H179.837C179.877 341.3 179.897 340.94 179.897 340.6C179.897 337.82 178.497 336.04 176.017 336.04C173.797 336.04 171.657 337.98 171.657 341.16C171.657 344.34 173.717 346.24 176.317 346.24ZM173.257 340.36C173.457 338.44 174.697 337.34 176.057 337.34C177.577 337.34 178.457 338.4 178.457 340.36H173.257ZM183.476 346H185.116V339.76C185.776 338.12 186.756 337.52 187.576 337.52C187.976 337.52 188.196 337.58 188.516 337.68L188.836 336.24C188.516 336.1 188.216 336.04 187.796 336.04C186.696 336.04 185.696 336.82 185.036 338.04H184.976L184.836 336.28H183.476V346ZM193.339 346.24C194.559 346.24 195.639 345.6 196.559 344.84H196.619L196.759 346H198.119V340.04C198.119 337.62 197.119 336.04 194.739 336.04C193.179 336.04 191.819 336.72 190.919 337.3L191.559 338.44C192.319 337.92 193.339 337.4 194.459 337.4C196.059 337.4 196.459 338.6 196.459 339.84C192.319 340.3 190.499 341.36 190.499 343.48C190.499 345.22 191.719 346.24 193.339 346.24ZM193.819 344.92C192.859 344.92 192.099 344.46 192.099 343.36C192.099 342.12 193.219 341.32 196.459 340.92V343.62C195.519 344.46 194.759 344.92 193.819 344.92ZM202.355 346H203.995V338.96C204.975 337.98 205.655 337.46 206.655 337.46C207.935 337.46 208.495 338.24 208.495 340.06V346H210.135V339.84C210.135 337.36 209.215 336.04 207.175 336.04C205.835 336.04 204.835 336.76 203.915 337.68H203.855L203.715 336.28H202.355V346ZM218.31 346.24C219.47 346.24 220.57 345.78 221.45 345L220.73 343.9C220.13 344.44 219.35 344.88 218.45 344.88C216.67 344.88 215.45 343.38 215.45 341.16C215.45 338.92 216.73 337.4 218.49 337.4C219.27 337.4 219.87 337.76 220.43 338.26L221.27 337.18C220.59 336.56 219.71 336.04 218.43 336.04C215.93 336.04 213.75 337.9 213.75 341.16C213.75 344.38 215.73 346.24 218.31 346.24ZM228.28 346.24C229.6 346.24 230.64 345.78 231.48 345.24L230.9 344.16C230.18 344.62 229.4 344.92 228.48 344.92C226.62 344.92 225.36 343.6 225.24 341.54H231.8C231.84 341.3 231.86 340.94 231.86 340.6C231.86 337.82 230.46 336.04 227.98 336.04C225.76 336.04 223.62 337.98 223.62 341.16C223.62 344.34 225.68 346.24 228.28 346.24ZM225.22 340.36C225.42 338.44 226.66 337.34 228.02 337.34C229.54 337.34 230.42 338.4 230.42 340.36H225.22Z" fill="#787878"/>
<rect y="371" width="209" height="40" rx="20" fill="#E7E7E7"/>
<path d="M27.1151 399.24C28.8151 399.24 30.0951 398.54 31.1351 397.34L30.2151 396.3C29.3751 397.22 28.4351 397.78 27.1751 397.78C24.6951 397.78 23.1151 395.7 23.1151 392.4C23.1151 389.14 24.7551 387.1 27.2351 387.1C28.3551 387.1 29.2151 387.6 29.9151 388.34L30.8151 387.26C30.0551 386.4 28.8151 385.64 27.2151 385.64C23.8751 385.64 21.3951 388.22 21.3951 392.44C21.3951 396.72 23.8351 399.24 27.1151 399.24ZM37.2434 399.24C38.5834 399.24 39.5434 398.54 40.4434 397.48H40.5034L40.6434 399H42.0034V389.28H40.3634V396.18C39.4434 397.32 38.7434 397.82 37.7434 397.82C36.4634 397.82 35.9234 397.04 35.9234 395.22V389.28H34.2634V395.44C34.2634 397.92 35.1834 399.24 37.2434 399.24ZM49.52 399.24C50.12 399.24 50.78 399.06 51.32 398.88L51 397.64C50.68 397.76 50.24 397.9 49.9 397.9C48.78 397.9 48.4 397.22 48.4 396.02V390.62H51.02V389.28H48.4V386.56H47.02L46.82 389.28L45.3 389.38V390.62H46.74V396C46.74 397.92 47.44 399.24 49.52 399.24ZM57.065 399.24C57.665 399.24 58.325 399.06 58.865 398.88L58.545 397.64C58.225 397.76 57.785 397.9 57.445 397.9C56.325 397.9 55.945 397.22 55.945 396.02V390.62H58.565V389.28H55.945V386.56H54.565L54.365 389.28L52.845 389.38V390.62H54.285V396C54.285 397.92 54.985 399.24 57.065 399.24ZM61.9406 399H63.5806V389.28H61.9406V399ZM62.7806 387.28C63.4206 387.28 63.9206 386.84 63.9206 386.22C63.9206 385.58 63.4206 385.16 62.7806 385.16C62.1406 385.16 61.6406 385.58 61.6406 386.22C61.6406 386.84 62.1406 387.28 62.7806 387.28ZM68.0403 399H69.6803V391.96C70.6603 390.98 71.3403 390.46 72.3403 390.46C73.6203 390.46 74.1803 391.24 74.1803 393.06V399H75.8203V392.84C75.8203 390.36 74.9003 389.04 72.8603 389.04C71.5203 389.04 70.5203 389.76 69.6003 390.68H69.5403L69.4003 389.28H68.0403V399ZM83.4355 403.48C86.4555 403.48 88.3555 401.92 88.3555 400.12C88.3555 398.5 87.2155 397.8 84.9555 397.8H83.0755C81.7555 397.8 81.3555 397.36 81.3555 396.74C81.3555 396.2 81.6355 395.88 81.9755 395.58C82.4155 395.8 82.9555 395.92 83.4355 395.92C85.4155 395.92 86.9955 394.62 86.9955 392.54C86.9955 391.72 86.6555 390.98 86.1955 390.54H88.1955V389.28H84.8155C84.4555 389.14 83.9755 389.04 83.4355 389.04C81.4555 389.04 79.7755 390.38 79.7755 392.5C79.7755 393.66 80.3955 394.6 81.0355 395.12V395.2C80.5355 395.54 79.9755 396.18 79.9755 397C79.9755 397.76 80.3555 398.28 80.8355 398.58V398.66C79.9555 399.26 79.4155 400.04 79.4155 400.86C79.4155 402.54 81.0555 403.48 83.4355 403.48ZM83.4355 394.82C82.3155 394.82 81.3755 393.92 81.3755 392.5C81.3755 391.08 82.2955 390.24 83.4355 390.24C84.5755 390.24 85.4955 391.08 85.4955 392.5C85.4955 393.92 84.5555 394.82 83.4355 394.82ZM83.6755 402.34C81.9155 402.34 80.8555 401.68 80.8555 400.64C80.8555 400.08 81.1555 399.5 81.8555 399C82.2755 399.12 82.7355 399.16 83.1155 399.16H84.7955C86.0555 399.16 86.7555 399.46 86.7555 400.36C86.7555 401.38 85.5355 402.34 83.6755 402.34ZM90.5914 394.62H95.1914V393.36H90.5914V394.62ZM102.74 399.24C104.06 399.24 105.1 398.78 105.94 398.24L105.36 397.16C104.64 397.62 103.86 397.92 102.94 397.92C101.08 397.92 99.8202 396.6 99.7002 394.54H106.26C106.3 394.3 106.32 393.94 106.32 393.6C106.32 390.82 104.92 389.04 102.44 389.04C100.22 389.04 98.0802 390.98 98.0802 394.16C98.0802 397.34 100.14 399.24 102.74 399.24ZM99.6802 393.36C99.8802 391.44 101.12 390.34 102.48 390.34C104 390.34 104.88 391.4 104.88 393.36H99.6802ZM113.22 399.24C114.36 399.24 115.4 398.6 116.16 397.86H116.22L116.36 399H117.72V384.76H116.06V388.5L116.14 390.16C115.28 389.46 114.54 389.04 113.42 389.04C111.2 389.04 109.2 391 109.2 394.16C109.2 397.4 110.78 399.24 113.22 399.24ZM113.58 397.86C111.88 397.86 110.9 396.46 110.9 394.14C110.9 391.92 112.14 390.42 113.7 390.42C114.5 390.42 115.24 390.7 116.06 391.44V396.52C115.26 397.42 114.48 397.86 113.58 397.86ZM125.451 403.48C128.471 403.48 130.371 401.92 130.371 400.12C130.371 398.5 129.231 397.8 126.971 397.8H125.091C123.771 397.8 123.371 397.36 123.371 396.74C123.371 396.2 123.651 395.88 123.991 395.58C124.431 395.8 124.971 395.92 125.451 395.92C127.431 395.92 129.011 394.62 129.011 392.54C129.011 391.72 128.671 390.98 128.211 390.54H130.211V389.28H126.831C126.471 389.14 125.991 389.04 125.451 389.04C123.471 389.04 121.791 390.38 121.791 392.5C121.791 393.66 122.411 394.6 123.051 395.12V395.2C122.551 395.54 121.991 396.18 121.991 397C121.991 397.76 122.371 398.28 122.851 398.58V398.66C121.971 399.26 121.431 400.04 121.431 400.86C121.431 402.54 123.071 403.48 125.451 403.48ZM125.451 394.82C124.331 394.82 123.391 393.92 123.391 392.5C123.391 391.08 124.311 390.24 125.451 390.24C126.591 390.24 127.511 391.08 127.511 392.5C127.511 393.92 126.571 394.82 125.451 394.82ZM125.691 402.34C123.931 402.34 122.871 401.68 122.871 400.64C122.871 400.08 123.171 399.5 123.871 399C124.291 399.12 124.751 399.16 125.131 399.16H126.811C128.071 399.16 128.771 399.46 128.771 400.36C128.771 401.38 127.551 402.34 125.691 402.34ZM137.094 399.24C138.414 399.24 139.454 398.78 140.294 398.24L139.714 397.16C138.994 397.62 138.214 397.92 137.294 397.92C135.434 397.92 134.174 396.6 134.054 394.54H140.614C140.654 394.3 140.674 393.94 140.674 393.6C140.674 390.82 139.274 389.04 136.794 389.04C134.574 389.04 132.434 390.98 132.434 394.16C132.434 397.34 134.494 399.24 137.094 399.24ZM134.034 393.36C134.234 391.44 135.474 390.34 136.834 390.34C138.354 390.34 139.234 391.4 139.234 393.36H134.034ZM152.315 399H153.995V387.28H157.955V385.88H148.355V387.28H152.315V399ZM163.947 399.24C165.267 399.24 166.307 398.78 167.147 398.24L166.567 397.16C165.847 397.62 165.067 397.92 164.147 397.92C162.287 397.92 161.027 396.6 160.907 394.54H167.467C167.507 394.3 167.527 393.94 167.527 393.6C167.527 390.82 166.127 389.04 163.647 389.04C161.427 389.04 159.287 390.98 159.287 394.16C159.287 397.34 161.347 399.24 163.947 399.24ZM160.887 393.36C161.087 391.44 162.327 390.34 163.687 390.34C165.207 390.34 166.087 391.4 166.087 393.36H160.887ZM174.947 399.24C176.107 399.24 177.207 398.78 178.087 398L177.367 396.9C176.767 397.44 175.987 397.88 175.087 397.88C173.307 397.88 172.087 396.38 172.087 394.16C172.087 391.92 173.367 390.4 175.127 390.4C175.907 390.4 176.507 390.76 177.067 391.26L177.907 390.18C177.227 389.56 176.347 389.04 175.067 389.04C172.567 389.04 170.387 390.9 170.387 394.16C170.387 397.38 172.367 399.24 174.947 399.24ZM181.406 399H183.046V391.96C184.026 390.98 184.706 390.46 185.706 390.46C186.986 390.46 187.546 391.24 187.546 393.06V399H189.186V392.84C189.186 390.36 188.266 389.04 186.226 389.04C184.886 389.04 183.906 389.76 182.986 390.64L183.046 388.64V384.76H181.406V399Z" fill="#787878"/>
<path d="M23.7315 449.288C24.4995 449.288 25.1475 448.664 25.1475 447.8C25.1475 446.888 24.4995 446.264 23.7315 446.264C22.9395 446.264 22.2915 446.888 22.2915 447.8C22.2915 448.664 22.9395 449.288 23.7315 449.288ZM31.7715 449.288C32.5395 449.288 33.1875 448.664 33.1875 447.8C33.1875 446.888 32.5395 446.264 31.7715 446.264C30.9795 446.264 30.3315 446.888 30.3315 447.8C30.3315 448.664 30.9795 449.288 31.7715 449.288ZM39.8115 449.288C40.5795 449.288 41.2275 448.664 41.2275 447.8C41.2275 446.888 40.5795 446.264 39.8115 446.264C39.0195 446.264 38.3715 446.888 38.3715 447.8C38.3715 448.664 39.0195 449.288 39.8115 449.288ZM47.9027 449.288C48.6707 449.288 49.3187 448.664 49.3187 447.8C49.3187 446.888 48.6707 446.264 47.9027 446.264C47.1107 446.264 46.4627 446.888 46.4627 447.8C46.4627 448.664 47.1107 449.288 47.9027 449.288ZM55.9427 449.288C56.7107 449.288 57.3587 448.664 57.3587 447.8C57.3587 446.888 56.7107 446.264 55.9427 446.264C55.1507 446.264 54.5027 446.888 54.5027 447.8C54.5027 448.664 55.1507 449.288 55.9427 449.288ZM63.9827 449.288C64.7507 449.288 65.3987 448.664 65.3987 447.8C65.3987 446.888 64.7507 446.264 63.9827 446.264C63.1907 446.264 62.5427 446.888 62.5427 447.8C62.5427 448.664 63.1907 449.288 63.9827 449.288Z" fill="#787878"/>
</svg>
