<svg width="616" height="274" viewBox="0 0 616 274" fill="none" xmlns="http://www.w3.org/2000/svg">
<path opacity="0.545387" d="M456.734 103.432C460.849 106.223 464.088 110.314 466.244 114.945C468.41 119.586 469.493 124.767 468.784 129.678C468.075 134.599 465.565 139.241 462.158 142.892C458.752 146.542 454.44 149.213 449.646 150.973C444.861 152.744 439.604 153.604 434.652 152.524C429.71 151.444 425.073 148.413 421.834 144.322C418.605 140.231 416.764 135.07 416.193 129.838C415.622 124.597 416.311 119.296 418.33 114.525C420.348 109.753 423.705 105.522 427.977 102.802C432.25 100.081 437.428 98.8708 442.518 99.0109C447.608 99.1509 452.609 100.641 456.734 103.432Z" fill="#D0D3ED"/>
<path d="M23.992 137H26.776V131.24H29.032C32.416 131.24 35.008 129.632 35.008 126.152C35.008 122.504 32.416 121.304 28.936 121.304H23.992V137ZM26.776 129.008V123.536H28.72C31.048 123.536 32.272 124.184 32.272 126.152C32.272 128.072 31.144 129.008 28.816 129.008H26.776ZM41.076 137.288C42.468 137.288 43.668 136.592 44.724 135.704H44.82L45.012 137H47.292V130.016C47.292 126.728 45.828 124.928 42.9 124.928C41.028 124.928 39.348 125.648 38.052 126.464L39.06 128.312C40.116 127.688 41.22 127.16 42.372 127.16C43.98 127.16 44.484 128.216 44.532 129.464C39.684 129.992 37.596 131.312 37.596 133.832C37.596 135.896 39.012 137.288 41.076 137.288ZM41.964 135.128C40.98 135.128 40.26 134.672 40.26 133.616C40.26 132.44 41.316 131.6 44.532 131.192V133.832C43.644 134.648 42.924 135.128 41.964 135.128ZM52.0084 137H54.7684V129.8C55.4884 128.024 56.6164 127.376 57.5524 127.376C58.0564 127.376 58.3684 127.448 58.7764 127.568L59.2564 125.168C58.8964 125 58.5124 124.928 57.9124 124.928C56.6644 124.928 55.4164 125.768 54.5764 127.304H54.4804L54.2884 125.216H52.0084V137ZM67.1804 137.288C68.6684 137.288 70.0844 136.76 71.2124 136.016L70.2764 134.288C69.4124 134.84 68.5484 135.152 67.5404 135.152C65.6444 135.152 64.3004 133.952 64.0604 131.864H71.5484C71.6204 131.576 71.6684 131.048 71.6684 130.52C71.6684 127.232 69.9884 124.928 66.7964 124.928C64.0364 124.928 61.3724 127.28 61.3724 131.12C61.3724 135.008 63.9164 137.288 67.1804 137.288ZM64.0364 129.992C64.2764 128.096 65.4764 127.064 66.8684 127.064C68.4764 127.064 69.2684 128.168 69.2684 129.992H64.0364ZM75.7178 137H78.4778V128.768C79.4618 127.808 80.1338 127.304 81.1658 127.304C82.4618 127.304 83.0138 128.024 83.0138 129.968V137H85.7738V129.608C85.7738 126.632 84.6698 124.928 82.1498 124.928C80.5418 124.928 79.3418 125.768 78.2858 126.8H78.1898L77.9978 125.216H75.7178V137ZM94.7129 137.288C95.6489 137.288 96.4649 137.072 97.1129 136.856L96.6329 134.816C96.2969 134.96 95.8169 135.08 95.4089 135.08C94.2809 135.08 93.7529 134.408 93.7529 133.016V127.4H96.7529V125.216H93.7529V122H91.4489L91.1129 125.216L89.2889 125.336V127.4H90.9689V133.016C90.9689 135.56 91.9769 137.288 94.7129 137.288ZM103.7 137.288C106.676 137.288 108.284 135.656 108.284 133.64C108.284 131.432 106.508 130.664 104.9 130.064C103.628 129.608 102.452 129.248 102.452 128.312C102.452 127.568 103.004 127.016 104.18 127.016C105.116 127.016 105.956 127.424 106.772 128.024L108.044 126.344C107.084 125.6 105.764 124.928 104.132 124.928C101.492 124.928 99.8357 126.392 99.8357 128.456C99.8357 130.424 101.588 131.312 103.148 131.888C104.396 132.368 105.668 132.8 105.668 133.784C105.668 134.6 105.068 135.2 103.796 135.2C102.596 135.2 101.588 134.696 100.532 133.88L99.2357 135.656C100.388 136.592 102.092 137.288 103.7 137.288ZM118.379 137H121.139V128.768C122.123 127.808 122.795 127.304 123.827 127.304C125.123 127.304 125.675 128.024 125.675 129.968V137H128.435V129.608C128.435 126.632 127.331 124.928 124.811 124.928C123.203 124.928 122.027 125.768 121.043 126.704L121.139 124.424V120.056H118.379V137ZM136.031 137.288C137.423 137.288 138.623 136.592 139.679 135.704H139.775L139.967 137H142.247V130.016C142.247 126.728 140.783 124.928 137.855 124.928C135.983 124.928 134.303 125.648 133.007 126.464L134.015 128.312C135.071 127.688 136.175 127.16 137.327 127.16C138.935 127.16 139.439 128.216 139.487 129.464C134.639 129.992 132.551 131.312 132.551 133.832C132.551 135.896 133.967 137.288 136.031 137.288ZM136.919 135.128C135.935 135.128 135.215 134.672 135.215 133.616C135.215 132.44 136.271 131.6 139.487 131.192V133.832C138.599 134.648 137.879 135.128 136.919 135.128ZM149.603 137H152.795L156.803 125.216H154.139L152.267 131.336C151.931 132.488 151.595 133.688 151.259 134.888H151.163C150.851 133.688 150.491 132.488 150.179 131.336L148.307 125.216H145.499L149.603 137ZM165.159 137.288C166.647 137.288 168.063 136.76 169.191 136.016L168.255 134.288C167.391 134.84 166.527 135.152 165.519 135.152C163.623 135.152 162.279 133.952 162.039 131.864H169.527C169.599 131.576 169.647 131.048 169.647 130.52C169.647 127.232 167.967 124.928 164.775 124.928C162.015 124.928 159.351 127.28 159.351 131.12C159.351 135.008 161.895 137.288 165.159 137.288ZM162.015 129.992C162.255 128.096 163.455 127.064 164.847 127.064C166.455 127.064 167.247 128.168 167.247 129.992H162.015ZM183.202 137.288C186.178 137.288 187.786 135.656 187.786 133.64C187.786 131.432 186.01 130.664 184.402 130.064C183.13 129.608 181.954 129.248 181.954 128.312C181.954 127.568 182.506 127.016 183.682 127.016C184.618 127.016 185.458 127.424 186.274 128.024L187.546 126.344C186.586 125.6 185.266 124.928 183.634 124.928C180.994 124.928 179.338 126.392 179.338 128.456C179.338 130.424 181.09 131.312 182.65 131.888C183.898 132.368 185.17 132.8 185.17 133.784C185.17 134.6 184.57 135.2 183.298 135.2C182.098 135.2 181.09 134.696 180.034 133.88L178.738 135.656C179.89 136.592 181.594 137.288 183.202 137.288ZM195.347 137.288C196.283 137.288 197.099 137.072 197.747 136.856L197.267 134.816C196.931 134.96 196.451 135.08 196.043 135.08C194.915 135.08 194.387 134.408 194.387 133.016V127.4H197.387V125.216H194.387V122H192.083L191.747 125.216L189.923 125.336V127.4H191.603V133.016C191.603 135.56 192.611 137.288 195.347 137.288ZM201.28 137H204.04V129.8C204.76 128.024 205.888 127.376 206.824 127.376C207.328 127.376 207.64 127.448 208.048 127.568L208.528 125.168C208.168 125 207.784 124.928 207.184 124.928C205.936 124.928 204.688 125.768 203.848 127.304H203.752L203.56 125.216H201.28V137ZM211.647 137H214.407V125.216H211.647V137ZM213.039 123.152C214.023 123.152 214.743 122.504 214.743 121.592C214.743 120.656 214.023 120.008 213.039 120.008C212.055 120.008 211.335 120.656 211.335 121.592C211.335 122.504 212.055 123.152 213.039 123.152ZM224.261 137.288C225.605 137.288 226.997 136.808 228.101 135.848L226.973 134.024C226.301 134.576 225.461 135.032 224.549 135.032C222.701 135.032 221.405 133.472 221.405 131.12C221.405 128.744 222.725 127.184 224.621 127.184C225.365 127.184 225.965 127.496 226.589 128.048L227.933 126.248C227.069 125.504 225.989 124.928 224.477 124.928C221.333 124.928 218.573 127.184 218.573 131.12C218.573 135.032 221.045 137.288 224.261 137.288ZM235.758 137.288C236.694 137.288 237.51 137.072 238.158 136.856L237.678 134.816C237.342 134.96 236.862 135.08 236.454 135.08C235.326 135.08 234.798 134.408 234.798 133.016V127.4H237.798V125.216H234.798V122H232.494L232.158 125.216L230.334 125.336V127.4H232.014V133.016C232.014 135.56 233.022 137.288 235.758 137.288ZM252.061 137.288C252.997 137.288 253.813 137.072 254.461 136.856L253.981 134.816C253.645 134.96 253.165 135.08 252.757 135.08C251.629 135.08 251.101 134.408 251.101 133.016V127.4H254.101V125.216H251.101V122H248.797L248.461 125.216L246.637 125.336V127.4H248.317V133.016C248.317 135.56 249.325 137.288 252.061 137.288ZM257.994 137H260.754V125.216H257.994V137ZM259.386 123.152C260.37 123.152 261.09 122.504 261.09 121.592C261.09 120.656 260.37 120.008 259.386 120.008C258.402 120.008 257.682 120.656 257.682 121.592C257.682 122.504 258.402 123.152 259.386 123.152ZM265.689 137H268.449V128.768C269.361 127.784 270.201 127.304 270.921 127.304C272.169 127.304 272.745 128.024 272.745 129.968V137H275.505V128.768C276.417 127.784 277.233 127.304 277.977 127.304C279.201 127.304 279.777 128.024 279.777 129.968V137H282.561V129.608C282.561 126.632 281.409 124.928 278.913 124.928C277.425 124.928 276.249 125.84 275.121 127.04C274.569 125.72 273.585 124.928 271.857 124.928C270.393 124.928 269.241 125.768 268.257 126.824H268.161L267.969 125.216H265.689V137ZM292.369 137.288C293.857 137.288 295.273 136.76 296.401 136.016L295.465 134.288C294.601 134.84 293.737 135.152 292.729 135.152C290.833 135.152 289.489 133.952 289.249 131.864H296.737C296.809 131.576 296.857 131.048 296.857 130.52C296.857 127.232 295.177 124.928 291.985 124.928C289.225 124.928 286.561 127.28 286.561 131.12C286.561 135.008 289.105 137.288 292.369 137.288ZM289.225 129.992C289.465 128.096 290.665 127.064 292.057 127.064C293.665 127.064 294.457 128.168 294.457 129.992H289.225ZM312.044 137.288C313.388 137.288 314.78 136.808 315.884 135.848L314.756 134.024C314.084 134.576 313.244 135.032 312.332 135.032C310.484 135.032 309.188 133.472 309.188 131.12C309.188 128.744 310.508 127.184 312.404 127.184C313.148 127.184 313.748 127.496 314.372 128.048L315.716 126.248C314.852 125.504 313.772 124.928 312.26 124.928C309.116 124.928 306.356 127.184 306.356 131.12C306.356 135.032 308.828 137.288 312.044 137.288ZM323.862 137.288C326.814 137.288 329.478 135.032 329.478 131.12C329.478 127.184 326.814 124.928 323.862 124.928C320.934 124.928 318.27 127.184 318.27 131.12C318.27 135.032 320.934 137.288 323.862 137.288ZM323.862 135.032C322.134 135.032 321.102 133.472 321.102 131.12C321.102 128.744 322.134 127.184 323.862 127.184C325.59 127.184 326.646 128.744 326.646 131.12C326.646 133.472 325.59 135.032 323.862 135.032ZM333.623 137H336.383V128.768C337.367 127.808 338.039 127.304 339.071 127.304C340.367 127.304 340.919 128.024 340.919 129.968V137H343.679V129.608C343.679 126.632 342.575 124.928 340.055 124.928C338.447 124.928 337.247 125.768 336.191 126.8H336.095L335.903 125.216H333.623V137ZM352.618 137.288C353.554 137.288 354.37 137.072 355.018 136.856L354.538 134.816C354.202 134.96 353.722 135.08 353.314 135.08C352.186 135.08 351.658 134.408 351.658 133.016V127.4H354.658V125.216H351.658V122H349.354L349.018 125.216L347.194 125.336V127.4H348.874V133.016C348.874 135.56 349.882 137.288 352.618 137.288ZM358.551 137H361.311V129.8C362.031 128.024 363.159 127.376 364.095 127.376C364.599 127.376 364.911 127.448 365.319 127.568L365.799 125.168C365.439 125 365.055 124.928 364.455 124.928C363.207 124.928 361.959 125.768 361.119 127.304H361.023L360.831 125.216H358.551V137ZM373.507 137.288C376.459 137.288 379.123 135.032 379.123 131.12C379.123 127.184 376.459 124.928 373.507 124.928C370.579 124.928 367.915 127.184 367.915 131.12C367.915 135.032 370.579 137.288 373.507 137.288ZM373.507 135.032C371.779 135.032 370.747 133.472 370.747 131.12C370.747 128.744 371.779 127.184 373.507 127.184C375.235 127.184 376.291 128.744 376.291 131.12C376.291 133.472 375.235 135.032 373.507 135.032ZM385.956 137.288C386.604 137.288 387.084 137.192 387.42 137.048L387.06 134.984C386.844 135.032 386.748 135.032 386.628 135.032C386.34 135.032 386.028 134.792 386.028 134.12V120.056H383.268V133.976C383.268 136.016 383.988 137.288 385.956 137.288ZM397.895 137H400.655V127.4H402.959V125.216H400.655V123.944C400.655 122.576 401.183 121.952 402.143 121.952C402.551 121.952 403.007 122.048 403.439 122.24L403.967 120.176C403.439 119.96 402.647 119.768 401.807 119.768C399.023 119.768 397.895 121.544 397.895 123.992V125.216L396.311 125.336V127.4H397.895V137ZM411.036 137.288C413.988 137.288 416.652 135.032 416.652 131.12C416.652 127.184 413.988 124.928 411.036 124.928C408.108 124.928 405.444 127.184 405.444 131.12C405.444 135.032 408.108 137.288 411.036 137.288ZM411.036 135.032C409.308 135.032 408.276 133.472 408.276 131.12C408.276 128.744 409.308 127.184 411.036 127.184C412.764 127.184 413.82 128.744 413.82 131.12C413.82 133.472 412.764 135.032 411.036 135.032ZM420.797 137H423.557V129.8C424.277 128.024 425.405 127.376 426.341 127.376C426.845 127.376 427.157 127.448 427.565 127.568L428.045 125.168C427.685 125 427.301 124.928 426.701 124.928C425.453 124.928 424.205 125.768 423.365 127.304H423.269L423.077 125.216H420.797V137ZM23.752 167H26.464V164L28.312 161.888L31.336 167H34.336L29.896 160.016L33.928 155.216H30.904L26.536 160.64H26.464V150.056H23.752V167ZM37.7044 167H40.4644V155.216H37.7044V167ZM39.0964 153.152C40.0804 153.152 40.8004 152.504 40.8004 151.592C40.8004 150.656 40.0804 150.008 39.0964 150.008C38.1124 150.008 37.3924 150.656 37.3924 151.592C37.3924 152.504 38.1124 153.152 39.0964 153.152ZM49.527 167.288C50.799 167.288 51.999 166.592 52.863 165.728H52.959L53.151 167H55.431V150.056H52.671V154.328L52.767 156.224C51.855 155.432 51.015 154.928 49.671 154.928C47.103 154.928 44.679 157.28 44.679 161.12C44.679 165.008 46.575 167.288 49.527 167.288ZM50.199 165.008C48.495 165.008 47.535 163.64 47.535 161.096C47.535 158.624 48.759 157.208 50.271 157.208C51.063 157.208 51.855 157.472 52.671 158.192V163.688C51.879 164.6 51.111 165.008 50.199 165.008ZM63.6472 167.288C66.6232 167.288 68.2312 165.656 68.2312 163.64C68.2312 161.432 66.4552 160.664 64.8472 160.064C63.5752 159.608 62.3992 159.248 62.3992 158.312C62.3992 157.568 62.9512 157.016 64.1272 157.016C65.0632 157.016 65.9032 157.424 66.7192 158.024L67.9912 156.344C67.0312 155.6 65.7112 154.928 64.0792 154.928C61.4392 154.928 59.7832 156.392 59.7832 158.456C59.7832 160.424 61.5352 161.312 63.0952 161.888C64.3432 162.368 65.6152 162.8 65.6152 163.784C65.6152 164.6 65.0152 165.2 63.7432 165.2C62.5432 165.2 61.5352 164.696 60.4792 163.88L59.1832 165.656C60.3352 166.592 62.0392 167.288 63.6472 167.288ZM81.8305 167.288C83.4385 167.288 84.5905 166.496 85.6225 165.272H85.6945L85.9105 167H88.1665V155.216H85.4065V163.28C84.5185 164.432 83.8225 164.912 82.7905 164.912C81.5185 164.912 80.9665 164.192 80.9665 162.248V155.216H78.2065V162.608C78.2065 165.584 79.3105 167.288 81.8305 167.288ZM96.3638 167.288C99.3398 167.288 100.948 165.656 100.948 163.64C100.948 161.432 99.1718 160.664 97.5638 160.064C96.2918 159.608 95.1158 159.248 95.1158 158.312C95.1158 157.568 95.6678 157.016 96.8438 157.016C97.7798 157.016 98.6198 157.424 99.4358 158.024L100.708 156.344C99.7478 155.6 98.4278 154.928 96.7958 154.928C94.1558 154.928 92.4998 156.392 92.4998 158.456C92.4998 160.424 94.2518 161.312 95.8118 161.888C97.0598 162.368 98.3318 162.8 98.3318 163.784C98.3318 164.6 97.7318 165.2 96.4598 165.2C95.2598 165.2 94.2518 164.696 93.1958 163.88L91.8998 165.656C93.0518 166.592 94.7558 167.288 96.3638 167.288ZM104.825 167H107.585V155.216H104.825V167ZM106.217 153.152C107.201 153.152 107.921 152.504 107.921 151.592C107.921 150.656 107.201 150.008 106.217 150.008C105.233 150.008 104.513 150.656 104.513 151.592C104.513 152.504 105.233 153.152 106.217 153.152ZM112.52 167H115.28V158.768C116.264 157.808 116.936 157.304 117.968 157.304C119.264 157.304 119.816 158.024 119.816 159.968V167H122.576V159.608C122.576 156.632 121.472 154.928 118.952 154.928C117.344 154.928 116.144 155.768 115.088 156.8H114.992L114.8 155.216H112.52V167ZM131.467 172.208C135.307 172.208 137.755 170.384 137.755 168.056C137.755 166.016 136.267 165.152 133.435 165.152H131.347C129.907 165.152 129.427 164.744 129.427 164.072C129.427 163.544 129.643 163.256 130.003 162.944C130.531 163.16 131.107 163.256 131.611 163.256C134.107 163.256 136.075 161.864 136.075 159.248C136.075 158.432 135.787 157.712 135.403 157.256H137.563V155.216H133.339C132.859 155.048 132.259 154.928 131.611 154.928C129.139 154.928 126.955 156.44 126.955 159.152C126.955 160.544 127.699 161.672 128.491 162.272V162.368C127.819 162.848 127.195 163.64 127.195 164.552C127.195 165.512 127.651 166.136 128.251 166.52V166.616C127.171 167.288 126.571 168.152 126.571 169.136C126.571 171.2 128.659 172.208 131.467 172.208ZM131.611 161.528C130.459 161.528 129.547 160.664 129.547 159.152C129.547 157.664 130.459 156.824 131.611 156.824C132.763 156.824 133.651 157.688 133.651 159.152C133.651 160.664 132.739 161.528 131.611 161.528ZM131.899 170.408C130.027 170.408 128.875 169.784 128.875 168.728C128.875 168.176 129.163 167.648 129.787 167.168C130.243 167.288 130.747 167.336 131.395 167.336H133.003C134.347 167.336 135.091 167.6 135.091 168.512C135.091 169.52 133.795 170.408 131.899 170.408ZM150.751 167.288C153.727 167.288 155.335 165.656 155.335 163.64C155.335 161.432 153.559 160.664 151.951 160.064C150.679 159.608 149.503 159.248 149.503 158.312C149.503 157.568 150.055 157.016 151.231 157.016C152.167 157.016 153.007 157.424 153.823 158.024L155.095 156.344C154.135 155.6 152.815 154.928 151.183 154.928C148.543 154.928 146.887 156.392 146.887 158.456C146.887 160.424 148.639 161.312 150.199 161.888C151.447 162.368 152.719 162.8 152.719 163.784C152.719 164.6 152.119 165.2 150.847 165.2C149.647 165.2 148.639 164.696 147.583 163.88L146.287 165.656C147.439 166.592 149.143 167.288 150.751 167.288ZM164.132 167.288C165.476 167.288 166.868 166.808 167.972 165.848L166.844 164.024C166.172 164.576 165.332 165.032 164.42 165.032C162.572 165.032 161.276 163.472 161.276 161.12C161.276 158.744 162.596 157.184 164.492 157.184C165.236 157.184 165.836 157.496 166.46 158.048L167.804 156.248C166.94 155.504 165.86 154.928 164.348 154.928C161.204 154.928 158.444 157.184 158.444 161.12C158.444 165.032 160.916 167.288 164.132 167.288ZM171.711 167H174.471V159.8C175.191 158.024 176.319 157.376 177.255 157.376C177.759 157.376 178.071 157.448 178.479 157.568L178.959 155.168C178.599 155 178.215 154.928 177.615 154.928C176.367 154.928 175.119 155.768 174.279 157.304H174.183L173.991 155.216H171.711V167ZM186.883 167.288C188.371 167.288 189.787 166.76 190.915 166.016L189.979 164.288C189.115 164.84 188.251 165.152 187.243 165.152C185.347 165.152 184.003 163.952 183.763 161.864H191.251C191.323 161.576 191.371 161.048 191.371 160.52C191.371 157.232 189.691 154.928 186.499 154.928C183.739 154.928 181.075 157.28 181.075 161.12C181.075 165.008 183.619 167.288 186.883 167.288ZM183.739 159.992C183.979 158.096 185.179 157.064 186.571 157.064C188.179 157.064 188.971 158.168 188.971 159.992H183.739ZM200.461 167.288C201.949 167.288 203.365 166.76 204.493 166.016L203.557 164.288C202.693 164.84 201.829 165.152 200.821 165.152C198.925 165.152 197.581 163.952 197.341 161.864H204.829C204.901 161.576 204.949 161.048 204.949 160.52C204.949 157.232 203.269 154.928 200.077 154.928C197.317 154.928 194.653 157.28 194.653 161.12C194.653 165.008 197.197 167.288 200.461 167.288ZM197.317 159.992C197.557 158.096 198.757 157.064 200.149 157.064C201.757 157.064 202.549 158.168 202.549 159.992H197.317ZM208.998 167H211.758V158.768C212.742 157.808 213.414 157.304 214.446 157.304C215.742 157.304 216.294 158.024 216.294 159.968V167H219.054V159.608C219.054 156.632 217.95 154.928 215.43 154.928C213.822 154.928 212.622 155.768 211.566 156.8H211.47L211.278 155.216H208.998V167ZM223.097 161.96H228.809V159.944H223.097V161.96ZM238.701 167.288C241.317 167.288 243.741 164.96 243.741 160.904C243.741 157.28 242.037 154.928 239.085 154.928C237.885 154.928 236.661 155.528 235.677 156.392L235.749 154.424V150.056H232.989V167H235.173L235.413 165.752H235.485C236.469 166.736 237.621 167.288 238.701 167.288ZM238.125 165.008C237.429 165.008 236.589 164.744 235.749 164.024V158.528C236.661 157.64 237.477 157.208 238.341 157.208C240.117 157.208 240.885 158.6 240.885 160.952C240.885 163.616 239.685 165.008 238.125 165.008ZM250.5 167.288C251.892 167.288 253.092 166.592 254.148 165.704H254.244L254.436 167H256.716V160.016C256.716 156.728 255.252 154.928 252.324 154.928C250.452 154.928 248.772 155.648 247.476 156.464L248.484 158.312C249.54 157.688 250.644 157.16 251.796 157.16C253.404 157.16 253.908 158.216 253.956 159.464C249.108 159.992 247.02 161.312 247.02 163.832C247.02 165.896 248.436 167.288 250.5 167.288ZM251.388 165.128C250.404 165.128 249.684 164.672 249.684 163.616C249.684 162.44 250.74 161.6 253.956 161.192V163.832C253.068 164.648 252.348 165.128 251.388 165.128ZM264.721 167.288C267.697 167.288 269.305 165.656 269.305 163.64C269.305 161.432 267.529 160.664 265.921 160.064C264.649 159.608 263.473 159.248 263.473 158.312C263.473 157.568 264.025 157.016 265.201 157.016C266.137 157.016 266.977 157.424 267.793 158.024L269.065 156.344C268.105 155.6 266.785 154.928 265.153 154.928C262.513 154.928 260.857 156.392 260.857 158.456C260.857 160.424 262.609 161.312 264.169 161.888C265.417 162.368 266.689 162.8 266.689 163.784C266.689 164.6 266.089 165.2 264.817 165.2C263.617 165.2 262.609 164.696 261.553 163.88L260.257 165.656C261.409 166.592 263.113 167.288 264.721 167.288ZM278.222 167.288C279.71 167.288 281.126 166.76 282.254 166.016L281.318 164.288C280.454 164.84 279.59 165.152 278.582 165.152C276.686 165.152 275.342 163.952 275.102 161.864H282.59C282.662 161.576 282.71 161.048 282.71 160.52C282.71 157.232 281.03 154.928 277.838 154.928C275.078 154.928 272.414 157.28 272.414 161.12C272.414 165.008 274.958 167.288 278.222 167.288ZM275.078 159.992C275.318 158.096 276.518 157.064 277.91 157.064C279.518 157.064 280.31 158.168 280.31 159.992H275.078ZM290.887 167.288C292.159 167.288 293.359 166.592 294.223 165.728H294.319L294.511 167H296.791V150.056H294.031V154.328L294.127 156.224C293.215 155.432 292.375 154.928 291.031 154.928C288.463 154.928 286.039 157.28 286.039 161.12C286.039 165.008 287.935 167.288 290.887 167.288ZM291.559 165.008C289.855 165.008 288.895 163.64 288.895 161.096C288.895 158.624 290.119 157.208 291.631 157.208C292.423 157.208 293.215 157.472 294.031 158.192V163.688C293.239 164.6 292.471 165.008 291.559 165.008ZM312.066 167.288C313.338 167.288 314.538 166.592 315.402 165.728H315.498L315.69 167H317.97V150.056H315.21V154.328L315.306 156.224C314.394 155.432 313.554 154.928 312.21 154.928C309.642 154.928 307.218 157.28 307.218 161.12C307.218 165.008 309.114 167.288 312.066 167.288ZM312.738 165.008C311.034 165.008 310.074 163.64 310.074 161.096C310.074 158.624 311.298 157.208 312.81 157.208C313.602 157.208 314.394 157.472 315.21 158.192V163.688C314.418 164.6 313.65 165.008 312.738 165.008ZM327.938 167.288C329.426 167.288 330.842 166.76 331.97 166.016L331.034 164.288C330.17 164.84 329.306 165.152 328.298 165.152C326.402 165.152 325.058 163.952 324.818 161.864H332.306C332.378 161.576 332.426 161.048 332.426 160.52C332.426 157.232 330.746 154.928 327.554 154.928C324.794 154.928 322.13 157.28 322.13 161.12C322.13 165.008 324.674 167.288 327.938 167.288ZM324.794 159.992C325.034 158.096 326.234 157.064 327.626 157.064C329.234 157.064 330.026 158.168 330.026 159.992H324.794ZM339.115 167H342.307L346.315 155.216H343.651L341.779 161.336C341.443 162.488 341.107 163.688 340.771 164.888H340.675C340.363 163.688 340.003 162.488 339.691 161.336L337.819 155.216H335.011L339.115 167ZM349.771 167H352.531V155.216H349.771V167ZM351.163 153.152C352.147 153.152 352.867 152.504 352.867 151.592C352.867 150.656 352.147 150.008 351.163 150.008C350.179 150.008 349.459 150.656 349.459 151.592C349.459 152.504 350.179 153.152 351.163 153.152ZM362.386 167.288C363.73 167.288 365.122 166.808 366.226 165.848L365.098 164.024C364.426 164.576 363.586 165.032 362.674 165.032C360.826 165.032 359.53 163.472 359.53 161.12C359.53 158.744 360.85 157.184 362.746 157.184C363.49 157.184 364.09 157.496 364.714 158.048L366.058 156.248C365.194 155.504 364.114 154.928 362.602 154.928C359.458 154.928 356.698 157.184 356.698 161.12C356.698 165.032 359.17 167.288 362.386 167.288ZM374.419 167.288C375.907 167.288 377.323 166.76 378.451 166.016L377.515 164.288C376.651 164.84 375.787 165.152 374.779 165.152C372.883 165.152 371.539 163.952 371.299 161.864H378.787C378.859 161.576 378.907 161.048 378.907 160.52C378.907 157.232 377.227 154.928 374.035 154.928C371.275 154.928 368.611 157.28 368.611 161.12C368.611 165.008 371.155 167.288 374.419 167.288ZM371.275 159.992C371.515 158.096 372.715 157.064 374.107 157.064C375.715 157.064 376.507 158.168 376.507 159.992H371.275ZM386.245 167.288C389.221 167.288 390.829 165.656 390.829 163.64C390.829 161.432 389.053 160.664 387.445 160.064C386.173 159.608 384.997 159.248 384.997 158.312C384.997 157.568 385.549 157.016 386.725 157.016C387.661 157.016 388.501 157.424 389.317 158.024L390.589 156.344C389.629 155.6 388.309 154.928 386.677 154.928C384.037 154.928 382.381 156.392 382.381 158.456C382.381 160.424 384.133 161.312 385.693 161.888C386.941 162.368 388.213 162.8 388.213 163.784C388.213 164.6 387.613 165.2 386.341 165.2C385.141 165.2 384.133 164.696 383.077 163.88L381.781 165.656C382.933 166.592 384.637 167.288 386.245 167.288ZM396.266 167.288C397.274 167.288 398.042 166.496 398.042 165.416C398.042 164.336 397.274 163.544 396.266 163.544C395.258 163.544 394.466 164.336 394.466 165.416C394.466 166.496 395.258 167.288 396.266 167.288Z" fill="#4D59D3"/>
<rect y="186" width="451" height="74" rx="4" fill="#F1F1F1"/>
<rect y="186" width="451" height="74" rx="4" fill="#F1F1F1"/>
<path d="M19.608 213.056C20.12 213.056 20.472 212.64 20.472 212.144C20.472 211.696 20.136 211.44 19.688 211.44C19.656 211.44 19.64 211.44 19.608 211.44C19.608 210.848 20.152 210.032 21.128 209.552L20.872 208.944C19.672 209.456 18.76 210.496 18.76 211.968C18.76 212.656 19.112 213.056 19.608 213.056ZM22.248 213.056C22.76 213.056 23.112 212.64 23.112 212.144C23.112 211.696 22.776 211.44 22.328 211.44C22.296 211.44 22.28 211.44 22.248 211.44C22.248 210.848 22.792 210.032 23.768 209.552L23.512 208.944C22.312 209.456 21.4 210.496 21.4 211.968C21.4 212.656 21.752 213.056 22.248 213.056ZM25.9778 220H27.5298L30.3938 213.584C30.7458 212.752 31.1138 211.952 31.4178 211.12H31.4818C31.4498 211.952 31.4338 212.816 31.4338 213.584L31.5458 220H33.1298L37.4498 209.504H36.2178L33.9458 215.28C33.5138 216.4 33.0498 217.536 32.6178 218.688H32.5538C32.5538 217.536 32.5538 216.384 32.5378 215.28L32.3938 209.504H31.2578L28.6338 215.28C28.1698 216.4 27.6418 217.552 27.1458 218.688H27.0818C27.1618 217.552 27.1778 216.4 27.2418 215.28L27.4018 209.504H26.1218L25.9778 220ZM37.9764 216.944C37.9764 219.024 39.1924 220.192 41.0324 220.192C42.0404 220.192 42.9204 219.808 43.5444 219.36L43.0644 218.544C42.5684 218.912 41.9284 219.216 41.3204 219.216C39.9604 219.216 38.9204 218.368 39.2084 216.368H44.2644C44.3604 216.08 44.5364 215.472 44.5364 214.848C44.5364 213.248 43.8804 212.032 42.1364 212.032C40.1044 212.032 37.9764 214.016 37.9764 216.944ZM39.3364 215.536C39.7364 214 40.8564 213.008 41.9924 213.008C43.1124 213.008 43.4964 213.856 43.4964 214.736C43.4964 215.04 43.4644 215.28 43.4164 215.536H39.3364ZM50.5461 220H51.7621L52.8661 214.496C53.7781 213.52 54.5941 213.088 55.0581 213.088C55.8261 213.088 56.1781 213.504 56.1781 214.288C56.1781 214.56 56.1301 214.784 56.0501 215.2L55.0901 220H56.3061L57.4101 214.496C58.3381 213.52 59.1541 213.088 59.6021 213.088C60.3701 213.088 60.7381 213.504 60.7381 214.288C60.7381 214.56 60.6901 214.784 60.6101 215.2L59.6341 220H60.8661L61.8581 215.04C61.9381 214.608 61.9861 214.336 61.9861 213.968C61.9861 212.768 61.4421 212.032 60.1461 212.032C59.3461 212.032 58.3861 212.608 57.3941 213.552C57.2821 212.704 56.8341 212.032 55.6021 212.032C54.7861 212.032 53.8581 212.624 53.0421 213.392H52.9781L53.0901 212.224H52.0821L50.5461 220ZM66.6376 220.192C67.6136 220.192 68.5896 219.648 69.3416 218.848H69.4056L69.2776 220H70.2856L71.8376 212.224H70.8456L70.5416 213.2H70.4776C70.1096 212.496 69.4376 212.032 68.6056 212.032C66.4456 212.032 64.3976 214.384 64.3976 217.376C64.3976 219.2 65.2776 220.192 66.6376 220.192ZM67.0856 219.168C66.2216 219.168 65.6616 218.528 65.6616 217.184C65.6616 215.04 67.1016 213.056 68.6536 213.056C69.2456 213.056 69.7896 213.392 70.2376 214.208L69.5336 217.68C68.7656 218.688 67.9016 219.168 67.0856 219.168ZM80.0296 213.168H79.9816C79.5976 212.48 78.9736 212.032 78.1416 212.032C75.9816 212.032 73.9336 214.384 73.9336 217.376C73.9336 219.2 74.8136 220.192 76.1736 220.192C77.1496 220.192 78.1256 219.648 78.8776 218.848H78.9416L78.8136 220H79.8216L82.1256 208.608H80.8936L80.2856 211.648L80.0296 213.168ZM76.6216 219.168C75.7576 219.168 75.1976 218.528 75.1976 217.184C75.1976 215.04 76.6376 213.056 78.1896 213.056C78.7816 213.056 79.3256 213.392 79.7736 214.208L79.0696 217.68C78.2856 218.688 77.4376 219.168 76.6216 219.168ZM83.4063 216.944C83.4063 219.024 84.6223 220.192 86.4623 220.192C87.4703 220.192 88.3503 219.808 88.9743 219.36L88.4943 218.544C87.9983 218.912 87.3583 219.216 86.7503 219.216C85.3903 219.216 84.3503 218.368 84.6383 216.368H89.6943C89.7903 216.08 89.9663 215.472 89.9663 214.848C89.9663 213.248 89.3103 212.032 87.5663 212.032C85.5343 212.032 83.4063 214.016 83.4063 216.944ZM84.7663 215.536C85.1663 214 86.2863 213.008 87.4223 213.008C88.5423 213.008 88.9263 213.856 88.9263 214.736C88.9263 215.04 88.8943 215.28 88.8463 215.536H84.7663ZM98.344 220.192C99.32 220.192 100.296 219.648 101.048 218.848H101.112L100.984 220H101.992L103.544 212.224H102.552L102.248 213.2H102.184C101.816 212.496 101.144 212.032 100.312 212.032C98.152 212.032 96.104 214.384 96.104 217.376C96.104 219.2 96.984 220.192 98.344 220.192ZM98.792 219.168C97.928 219.168 97.368 218.528 97.368 217.184C97.368 215.04 98.808 213.056 100.36 213.056C100.952 213.056 101.496 213.392 101.944 214.208L101.24 217.68C100.472 218.688 99.608 219.168 98.792 219.168ZM105.512 220H106.728L107.832 214.496C108.808 213.52 109.56 213.088 110.168 213.088C110.968 213.088 111.32 213.504 111.32 214.288C111.32 214.56 111.272 214.784 111.192 215.2L110.232 220H111.448L112.44 215.04C112.536 214.608 112.568 214.336 112.568 213.968C112.568 212.768 112.04 212.032 110.728 212.032C109.752 212.032 108.888 212.624 108.008 213.392H107.944L108.056 212.224H107.048L105.512 220ZM121.249 220.192C122.225 220.192 123.201 219.648 123.953 218.848H124.017L123.889 220H124.897L126.449 212.224H125.457L125.153 213.2H125.089C124.721 212.496 124.049 212.032 123.217 212.032C121.057 212.032 119.009 214.384 119.009 217.376C119.009 219.2 119.889 220.192 121.249 220.192ZM121.697 219.168C120.833 219.168 120.273 218.528 120.273 217.184C120.273 215.04 121.713 213.056 123.265 213.056C123.857 213.056 124.401 213.392 124.849 214.208L124.145 217.68C123.377 218.688 122.513 219.168 121.697 219.168ZM130.609 223.584C132.561 223.584 133.841 222.432 134.257 220.368L135.889 212.224H134.881L134.577 213.2H134.529C134.161 212.496 133.473 212.032 132.657 212.032C130.561 212.032 128.545 214.336 128.545 217.184C128.545 218.992 129.489 219.92 130.801 219.92C131.793 219.92 132.689 219.424 133.505 218.608L133.105 220.272C132.769 221.68 131.985 222.592 130.657 222.592C129.793 222.592 129.057 222.176 128.465 221.664L127.889 222.512C128.641 223.136 129.569 223.584 130.609 223.584ZM131.201 218.896C130.337 218.896 129.809 218.272 129.809 217.008C129.809 214.976 131.201 213.056 132.705 213.056C133.297 213.056 133.809 213.392 134.289 214.208L133.601 217.536C132.865 218.432 131.937 218.896 131.201 218.896ZM137.859 220H139.075L140.051 215.088C140.707 213.824 141.571 213.136 142.339 213.136C142.627 213.136 142.851 213.184 143.011 213.264L143.443 212.176C143.219 212.08 142.995 212.032 142.707 212.032C141.747 212.032 140.915 212.768 140.291 213.712H140.227L140.403 212.224H139.395L137.859 220ZM144.21 216.944C144.21 219.024 145.426 220.192 147.266 220.192C148.274 220.192 149.154 219.808 149.778 219.36L149.298 218.544C148.802 218.912 148.162 219.216 147.554 219.216C146.194 219.216 145.154 218.368 145.442 216.368H150.498C150.594 216.08 150.77 215.472 150.77 214.848C150.77 213.248 150.114 212.032 148.37 212.032C146.338 212.032 144.21 214.016 144.21 216.944ZM145.57 215.536C145.97 214 147.09 213.008 148.226 213.008C149.346 213.008 149.73 213.856 149.73 214.736C149.73 215.04 149.698 215.28 149.65 215.536H145.57ZM152.855 216.944C152.855 219.024 154.071 220.192 155.911 220.192C156.919 220.192 157.799 219.808 158.423 219.36L157.943 218.544C157.447 218.912 156.807 219.216 156.199 219.216C154.839 219.216 153.799 218.368 154.087 216.368H159.143C159.239 216.08 159.415 215.472 159.415 214.848C159.415 213.248 158.759 212.032 157.015 212.032C154.983 212.032 152.855 214.016 152.855 216.944ZM154.215 215.536C154.615 214 155.735 213.008 156.871 213.008C157.991 213.008 158.375 213.856 158.375 214.736C158.375 215.04 158.343 215.28 158.295 215.536H154.215ZM161.404 220H162.62L163.724 214.496C164.636 213.52 165.452 213.088 165.916 213.088C166.684 213.088 167.036 213.504 167.036 214.288C167.036 214.56 166.988 214.784 166.908 215.2L165.948 220H167.164L168.268 214.496C169.196 213.52 170.012 213.088 170.46 213.088C171.228 213.088 171.596 213.504 171.596 214.288C171.596 214.56 171.548 214.784 171.468 215.2L170.492 220H171.724L172.716 215.04C172.796 214.608 172.844 214.336 172.844 213.968C172.844 212.768 172.3 212.032 171.004 212.032C170.204 212.032 169.244 212.608 168.252 213.552C168.14 212.704 167.692 212.032 166.46 212.032C165.644 212.032 164.716 212.624 163.9 213.392H163.836L163.948 212.224H162.94L161.404 220ZM175.224 216.944C175.224 219.024 176.44 220.192 178.28 220.192C179.288 220.192 180.168 219.808 180.792 219.36L180.312 218.544C179.816 218.912 179.176 219.216 178.568 219.216C177.208 219.216 176.168 218.368 176.456 216.368H181.512C181.608 216.08 181.784 215.472 181.784 214.848C181.784 213.248 181.128 212.032 179.384 212.032C177.352 212.032 175.224 214.016 175.224 216.944ZM176.584 215.536C176.984 214 178.104 213.008 179.24 213.008C180.36 213.008 180.744 213.856 180.744 214.736C180.744 215.04 180.712 215.28 180.664 215.536H176.584ZM183.773 220H184.989L186.093 214.496C187.069 213.52 187.821 213.088 188.429 213.088C189.229 213.088 189.581 213.504 189.581 214.288C189.581 214.56 189.533 214.784 189.453 215.2L188.493 220H189.709L190.701 215.04C190.797 214.608 190.829 214.336 190.829 213.968C190.829 212.768 190.301 212.032 188.989 212.032C188.013 212.032 187.149 212.624 186.269 213.392H186.205L186.317 212.224H185.309L183.773 220ZM195.586 220.192C196.194 220.192 196.706 220 197.058 219.84L196.786 218.96C196.546 219.072 196.274 219.2 195.97 219.2C195.234 219.2 194.978 218.88 194.978 218.24C194.978 218.032 194.994 217.856 195.026 217.664L195.938 213.216H197.938L198.13 212.224H196.162L196.594 210.08H195.554L194.978 212.224L193.762 212.304L193.586 213.216H194.722L193.81 217.6C193.778 217.888 193.73 218.144 193.73 218.464C193.73 219.424 194.226 220.192 195.586 220.192ZM205.751 220.192C206.359 220.192 206.871 220 207.223 219.84L206.951 218.96C206.711 219.072 206.439 219.2 206.135 219.2C205.399 219.2 205.143 218.88 205.143 218.24C205.143 218.032 205.159 217.856 205.191 217.664L206.103 213.216H208.103L208.295 212.224H206.327L206.759 210.08H205.719L205.143 212.224L203.927 212.304L203.751 213.216H204.887L203.975 217.6C203.943 217.888 203.895 218.144 203.895 218.464C203.895 219.424 204.391 220.192 205.751 220.192ZM212.157 220.192C214.285 220.192 216.365 218.096 216.365 215.152C216.365 213.216 215.261 212.032 213.581 212.032C211.453 212.032 209.389 214.128 209.389 217.072C209.389 219.008 210.477 220.192 212.157 220.192ZM212.285 219.168C211.213 219.168 210.621 218.4 210.621 216.992C210.621 214.816 212.029 213.04 213.453 213.04C214.525 213.04 215.117 213.824 215.117 215.232C215.117 217.408 213.725 219.168 212.285 219.168ZM223.802 219.072H223.834C224.234 219.728 224.89 220.192 225.706 220.192C227.85 220.192 229.898 217.84 229.898 214.848C229.898 213.04 229.018 212.032 227.658 212.032C226.682 212.032 225.754 212.592 224.97 213.248H224.922L225.018 212.224H224.01L221.802 223.28H223.018L223.514 220.736L223.802 219.072ZM227.21 213.056C228.09 213.056 228.634 213.712 228.634 215.024C228.634 217.184 227.21 219.168 225.658 219.168C225.05 219.168 224.506 218.848 224.074 218.048L224.81 214.336C225.546 213.536 226.49 213.056 227.21 213.056ZM233.211 220.192C233.547 220.192 233.771 220.144 233.979 220.064L233.963 219.12C233.819 219.168 233.771 219.168 233.707 219.168C233.547 219.168 233.435 219.072 233.435 218.88C233.435 218.816 233.435 218.736 233.467 218.576L235.467 208.608H234.235L232.267 218.512C232.203 218.784 232.171 219.008 232.171 219.184C232.171 219.824 232.523 220.192 233.211 220.192ZM239.242 220.192C240.218 220.192 241.194 219.648 241.946 218.848H242.01L241.882 220H242.89L244.442 212.224H243.45L243.146 213.2H243.082C242.714 212.496 242.042 212.032 241.21 212.032C239.05 212.032 237.002 214.384 237.002 217.376C237.002 219.2 237.882 220.192 239.242 220.192ZM239.69 219.168C238.826 219.168 238.266 218.528 238.266 217.184C238.266 215.04 239.706 213.056 241.258 213.056C241.85 213.056 242.394 213.392 242.842 214.208L242.138 217.68C241.37 218.688 240.506 219.168 239.69 219.168ZM245.817 223.344C247.305 223.344 248.249 222.176 249.065 220.656L253.641 212.224H252.425L250.185 216.592C249.801 217.328 249.401 218.176 249.033 218.912H248.969C248.905 218.176 248.825 217.296 248.713 216.592L248.105 212.224H246.889L248.217 220.016L247.929 220.576C247.401 221.648 246.681 222.352 245.897 222.352C245.689 222.352 245.513 222.304 245.321 222.208L244.921 223.12C245.225 223.28 245.593 223.344 245.817 223.344ZM258.544 220H259.76L261.328 212.224H260.096L258.544 220ZM261.136 210.608C261.632 210.608 262.064 210.224 262.064 209.696C262.064 209.232 261.696 208.96 261.28 208.96C260.784 208.96 260.352 209.36 260.352 209.888C260.352 210.352 260.72 210.608 261.136 210.608ZM263.347 220H264.595L265.427 215.776H267.107C269.779 215.776 271.699 214.64 271.699 212.064C271.699 210.24 270.371 209.504 268.403 209.504H265.443L263.347 220ZM265.635 214.768L266.483 210.496H268.099C269.635 210.496 270.467 211.008 270.467 212.224C270.467 213.904 269.315 214.768 267.155 214.768H265.635ZM275.078 220.192C276.054 220.192 277.03 219.648 277.782 218.848H277.846L277.718 220H278.726L280.278 212.224H279.286L278.982 213.2H278.918C278.55 212.496 277.878 212.032 277.046 212.032C274.886 212.032 272.838 214.384 272.838 217.376C272.838 219.2 273.718 220.192 275.078 220.192ZM275.526 219.168C274.662 219.168 274.102 218.528 274.102 217.184C274.102 215.04 275.542 213.056 277.094 213.056C277.686 213.056 278.23 213.392 278.678 214.208L277.974 217.68C277.206 218.688 276.342 219.168 275.526 219.168ZM288.47 213.168H288.422C288.038 212.48 287.414 212.032 286.582 212.032C284.422 212.032 282.374 214.384 282.374 217.376C282.374 219.2 283.254 220.192 284.614 220.192C285.59 220.192 286.566 219.648 287.318 218.848H287.382L287.254 220H288.262L290.566 208.608H289.334L288.726 211.648L288.47 213.168ZM285.062 219.168C284.198 219.168 283.638 218.528 283.638 217.184C283.638 215.04 285.078 213.056 286.63 213.056C287.222 213.056 287.766 213.392 288.214 214.208L287.51 217.68C286.726 218.688 285.878 219.168 285.062 219.168ZM298.667 220.192C300.795 220.192 302.875 218.096 302.875 215.152C302.875 213.216 301.771 212.032 300.091 212.032C297.963 212.032 295.899 214.128 295.899 217.072C295.899 219.008 296.987 220.192 298.667 220.192ZM298.795 219.168C297.723 219.168 297.131 218.4 297.131 216.992C297.131 214.816 298.539 213.04 299.963 213.04C301.035 213.04 301.627 213.824 301.627 215.232C301.627 217.408 300.235 219.168 298.795 219.168ZM304.947 220H306.163L307.139 215.088C307.795 213.824 308.659 213.136 309.427 213.136C309.715 213.136 309.939 213.184 310.099 213.264L310.531 212.176C310.307 212.08 310.083 212.032 309.795 212.032C308.835 212.032 308.003 212.768 307.379 213.712H307.315L307.491 212.224H306.483L304.947 220ZM318.339 220.192C319.475 220.192 320.275 219.712 320.835 219.28L320.291 218.48C319.811 218.848 319.251 219.168 318.563 219.168C317.331 219.168 316.723 218.4 316.723 216.992C316.723 214.864 318.179 213.04 319.731 213.04C320.339 213.04 320.707 213.264 321.107 213.744L321.827 212.976C321.363 212.448 320.739 212.032 319.811 212.032C317.555 212.032 315.475 214.176 315.475 217.072C315.475 219.056 316.643 220.192 318.339 220.192ZM325.936 220.192C328.064 220.192 330.144 218.096 330.144 215.152C330.144 213.216 329.04 212.032 327.36 212.032C325.232 212.032 323.168 214.128 323.168 217.072C323.168 219.008 324.256 220.192 325.936 220.192ZM326.064 219.168C324.992 219.168 324.4 218.4 324.4 216.992C324.4 214.816 325.808 213.04 327.232 213.04C328.304 213.04 328.896 213.824 328.896 215.232C328.896 217.408 327.504 219.168 326.064 219.168ZM332.216 220H333.432L334.536 214.496C335.448 213.52 336.264 213.088 336.728 213.088C337.496 213.088 337.848 213.504 337.848 214.288C337.848 214.56 337.8 214.784 337.72 215.2L336.76 220H337.976L339.08 214.496C340.008 213.52 340.824 213.088 341.272 213.088C342.04 213.088 342.408 213.504 342.408 214.288C342.408 214.56 342.36 214.784 342.28 215.2L341.304 220H342.536L343.528 215.04C343.608 214.608 343.656 214.336 343.656 213.968C343.656 212.768 343.112 212.032 341.816 212.032C341.016 212.032 340.056 212.608 339.064 213.552C338.952 212.704 338.504 212.032 337.272 212.032C336.456 212.032 335.528 212.624 334.712 213.392H334.648L334.76 212.224H333.752L332.216 220ZM347.284 219.072H347.316C347.716 219.728 348.372 220.192 349.188 220.192C351.332 220.192 353.38 217.84 353.38 214.848C353.38 213.04 352.5 212.032 351.14 212.032C350.164 212.032 349.236 212.592 348.452 213.248H348.404L348.5 212.224H347.492L345.284 223.28H346.5L346.996 220.736L347.284 219.072ZM350.692 213.056C351.572 213.056 352.116 213.712 352.116 215.024C352.116 217.184 350.692 219.168 349.14 219.168C348.532 219.168 347.988 218.848 347.556 218.048L348.292 214.336C349.028 213.536 349.972 213.056 350.692 213.056ZM362.868 212.224H361.652L360.548 217.728C359.604 218.704 358.852 219.136 358.244 219.136C357.444 219.136 357.092 218.72 357.092 217.936C357.092 217.664 357.14 217.44 357.22 217.024L358.196 212.224H356.964L355.972 217.184C355.876 217.6 355.844 217.888 355.844 218.256C355.844 219.44 356.372 220.192 357.684 220.192C358.628 220.192 359.524 219.568 360.372 218.816H360.436L360.308 220H361.316L362.868 212.224ZM367.304 220.192C367.912 220.192 368.424 220 368.776 219.84L368.504 218.96C368.264 219.072 367.992 219.2 367.688 219.2C366.952 219.2 366.696 218.88 366.696 218.24C366.696 218.032 366.712 217.856 366.744 217.664L367.656 213.216H369.656L369.848 212.224H367.88L368.312 210.08H367.272L366.696 212.224L365.48 212.304L365.304 213.216H366.44L365.528 217.6C365.496 217.888 365.448 218.144 365.448 218.464C365.448 219.424 365.944 220.192 367.304 220.192ZM370.909 216.944C370.909 219.024 372.125 220.192 373.965 220.192C374.973 220.192 375.853 219.808 376.477 219.36L375.997 218.544C375.501 218.912 374.861 219.216 374.253 219.216C372.893 219.216 371.853 218.368 372.141 216.368H377.197C377.293 216.08 377.469 215.472 377.469 214.848C377.469 213.248 376.813 212.032 375.069 212.032C373.037 212.032 370.909 214.016 370.909 216.944ZM372.269 215.536C372.669 214 373.789 213.008 374.925 213.008C376.045 213.008 376.429 213.856 376.429 214.736C376.429 215.04 376.397 215.28 376.349 215.536H372.269ZM379.458 220H380.674L381.65 215.088C382.306 213.824 383.17 213.136 383.938 213.136C384.226 213.136 384.45 213.184 384.61 213.264L385.042 212.176C384.818 212.08 384.594 212.032 384.306 212.032C383.346 212.032 382.514 212.768 381.89 213.712H381.826L382.002 212.224H380.994L379.458 220ZM390.434 213.216H391.442L390.082 220H391.298L392.658 213.216H394.242L394.434 212.224H392.866L393.138 210.896C393.314 209.984 393.746 209.408 394.45 209.408C394.818 209.408 395.09 209.536 395.314 209.68L395.746 208.8C395.362 208.576 394.93 208.416 394.37 208.416C393.058 208.416 392.226 209.36 391.906 210.928L391.65 212.224L390.61 212.304L390.434 213.216ZM398.087 220.192C400.215 220.192 402.295 218.096 402.295 215.152C402.295 213.216 401.191 212.032 399.511 212.032C397.383 212.032 395.319 214.128 395.319 217.072C395.319 219.008 396.407 220.192 398.087 220.192ZM398.215 219.168C397.143 219.168 396.551 218.4 396.551 216.992C396.551 214.816 397.959 213.04 399.383 213.04C400.455 213.04 401.047 213.824 401.047 215.232C401.047 217.408 399.655 219.168 398.215 219.168ZM404.368 220H405.584L406.56 215.088C407.216 213.824 408.08 213.136 408.848 213.136C409.136 213.136 409.36 213.184 409.52 213.264L409.952 212.176C409.728 212.08 409.504 212.032 409.216 212.032C408.256 212.032 407.424 212.768 406.8 213.712H406.736L406.912 212.224H405.904L404.368 220ZM20.392 240.192C22.52 240.192 24.6 238.096 24.6 235.152C24.6 233.216 23.496 232.032 21.816 232.032C19.688 232.032 17.624 234.128 17.624 237.072C17.624 239.008 18.712 240.192 20.392 240.192ZM20.52 239.168C19.448 239.168 18.856 238.4 18.856 236.992C18.856 234.816 20.264 233.04 21.688 233.04C22.76 233.04 23.352 233.824 23.352 235.232C23.352 237.408 21.96 239.168 20.52 239.168ZM26.6726 240H27.8886L28.9926 234.496C29.9686 233.52 30.7206 233.088 31.3286 233.088C32.1286 233.088 32.4806 233.504 32.4806 234.288C32.4806 234.56 32.4326 234.784 32.3526 235.2L31.3926 240H32.6086L33.6006 235.04C33.6966 234.608 33.7286 234.336 33.7286 233.968C33.7286 232.768 33.2006 232.032 31.8886 232.032C30.9126 232.032 30.0486 232.624 29.1686 233.392H29.1046L29.2166 232.224H28.2086L26.6726 240ZM37.2691 240.192C37.6051 240.192 37.8291 240.144 38.0371 240.064L38.0211 239.12C37.8771 239.168 37.8291 239.168 37.7651 239.168C37.6051 239.168 37.4931 239.072 37.4931 238.88C37.4931 238.816 37.4931 238.736 37.5251 238.576L39.5251 228.608H38.2931L36.3251 238.512C36.2611 238.784 36.2291 239.008 36.2291 239.184C36.2291 239.824 36.5811 240.192 37.2691 240.192ZM40.34 243.344C41.828 243.344 42.772 242.176 43.588 240.656L48.164 232.224H46.948L44.708 236.592C44.324 237.328 43.924 238.176 43.556 238.912H43.492C43.428 238.176 43.348 237.296 43.236 236.592L42.628 232.224H41.412L42.74 240.016L42.452 240.576C41.924 241.648 41.204 242.352 40.42 242.352C40.212 242.352 40.036 242.304 39.844 242.208L39.444 243.12C39.748 243.28 40.116 243.344 40.34 243.344ZM55.5625 240.192C57.7065 240.192 59.2905 238.96 59.2905 237.008C59.2905 235.952 58.6185 235.152 57.4985 234.784V234.72C59.0825 234.272 59.8825 233.232 59.8825 231.936C59.8825 230.528 58.9225 229.6 57.2105 229.6C56.2345 229.6 55.2585 229.952 54.3945 230.608L55.0185 231.424C55.6265 230.928 56.3945 230.608 57.0185 230.608C58.1065 230.608 58.6345 231.248 58.6345 232.144C58.6345 233.12 57.8185 234.256 55.2905 234.256L55.0985 235.184C57.2585 235.184 58.0585 235.968 58.0585 237.056C58.0585 238.272 57.0345 239.168 55.5785 239.168C54.5225 239.168 53.7385 238.512 53.2425 237.792L52.4265 238.432C53.0665 239.392 54.1705 240.192 55.5625 240.192ZM64.4002 240.192C66.6722 240.192 68.5922 236.928 68.5922 233.104C68.5922 231.12 67.6962 229.6 66.0962 229.6C63.8242 229.6 61.8722 232.912 61.8722 236.72C61.8722 238.72 62.7842 240.192 64.4002 240.192ZM64.4642 239.216C63.4722 239.216 63.0242 238.176 63.0242 236.768C63.0242 233.888 64.3682 230.592 66.0162 230.592C66.9922 230.592 67.4562 231.632 67.4562 233.056C67.4562 235.952 66.1122 239.216 64.4642 239.216ZM74.3463 240H75.5623L76.6663 234.496C77.5783 233.52 78.3943 233.088 78.8583 233.088C79.6263 233.088 79.9783 233.504 79.9783 234.288C79.9783 234.56 79.9303 234.784 79.8503 235.2L78.8903 240H80.1063L81.2103 234.496C82.1383 233.52 82.9543 233.088 83.4023 233.088C84.1703 233.088 84.5383 233.504 84.5383 234.288C84.5383 234.56 84.4903 234.784 84.4103 235.2L83.4343 240H84.6663L85.6583 235.04C85.7383 234.608 85.7863 234.336 85.7863 233.968C85.7863 232.768 85.2423 232.032 83.9463 232.032C83.1463 232.032 82.1863 232.608 81.1943 233.552C81.0823 232.704 80.6343 232.032 79.4023 232.032C78.5863 232.032 77.6583 232.624 76.8423 233.392H76.7783L76.8903 232.224H75.8823L74.3463 240ZM88.0698 240H89.2858L90.8538 232.224H89.6218L88.0698 240ZM90.6618 230.608C91.1578 230.608 91.5898 230.224 91.5898 229.696C91.5898 229.232 91.2218 228.96 90.8058 228.96C90.3098 228.96 89.8778 229.36 89.8778 229.888C89.8778 230.352 90.2458 230.608 90.6618 230.608ZM92.8088 240H94.0248L95.1288 234.496C96.1048 233.52 96.8568 233.088 97.4648 233.088C98.2648 233.088 98.6168 233.504 98.6168 234.288C98.6168 234.56 98.5688 234.784 98.4888 235.2L97.5288 240H98.7448L99.7368 235.04C99.8328 234.608 99.8648 234.336 99.8648 233.968C99.8648 232.768 99.3368 232.032 98.0248 232.032C97.0488 232.032 96.1848 232.624 95.3048 233.392H95.2408L95.3528 232.224H94.3448L92.8088 240ZM109.581 232.224H108.365L107.261 237.728C106.317 238.704 105.565 239.136 104.957 239.136C104.157 239.136 103.805 238.72 103.805 237.936C103.805 237.664 103.853 237.44 103.933 237.024L104.909 232.224H103.677L102.685 237.184C102.589 237.6 102.557 237.888 102.557 238.256C102.557 239.44 103.085 240.192 104.397 240.192C105.341 240.192 106.237 239.568 107.085 238.816H107.149L107.021 240H108.029L109.581 232.224ZM114.017 240.192C114.625 240.192 115.137 240 115.489 239.84L115.217 238.96C114.977 239.072 114.705 239.2 114.401 239.2C113.665 239.2 113.409 238.88 113.409 238.24C113.409 238.032 113.425 237.856 113.457 237.664L114.369 233.216H116.369L116.561 232.224H114.593L115.025 230.08H113.985L113.409 232.224L112.193 232.304L112.017 233.216H113.153L112.241 237.6C112.209 237.888 112.161 238.144 112.161 238.464C112.161 239.424 112.657 240.192 114.017 240.192ZM117.622 236.944C117.622 239.024 118.838 240.192 120.678 240.192C121.686 240.192 122.566 239.808 123.19 239.36L122.71 238.544C122.214 238.912 121.574 239.216 120.966 239.216C119.606 239.216 118.566 238.368 118.854 236.368H123.91C124.006 236.08 124.182 235.472 124.182 234.848C124.182 233.248 123.526 232.032 121.782 232.032C119.75 232.032 117.622 234.016 117.622 236.944ZM118.982 235.536C119.382 234 120.502 233.008 121.638 233.008C122.758 233.008 123.142 233.856 123.142 234.736C123.142 235.04 123.11 235.28 123.062 235.536H118.982ZM128.283 240.192C129.963 240.192 131.195 239.248 131.195 237.792C131.195 236.944 130.763 236.352 129.371 235.584C128.667 235.2 127.995 234.864 127.995 234.208C127.995 233.552 128.635 232.992 129.467 232.992C130.171 232.992 130.667 233.328 131.083 233.76L131.787 233.072C131.211 232.464 130.443 232.032 129.499 232.032C128.043 232.032 126.827 232.976 126.827 234.352C126.827 235.232 127.403 235.824 128.603 236.48C129.691 237.072 130.027 237.392 130.027 237.952C130.027 238.656 129.275 239.248 128.379 239.248C127.563 239.248 126.859 238.784 126.379 238.112L125.611 238.72C126.139 239.536 127.243 240.192 128.283 240.192ZM143.796 233.168H143.748C143.364 232.48 142.74 232.032 141.908 232.032C139.748 232.032 137.7 234.384 137.7 237.376C137.7 239.2 138.58 240.192 139.94 240.192C140.916 240.192 141.892 239.648 142.644 238.848H142.708L142.58 240H143.588L145.892 228.608H144.66L144.052 231.648L143.796 233.168ZM140.388 239.168C139.524 239.168 138.964 238.528 138.964 237.184C138.964 235.04 140.404 233.056 141.956 233.056C142.548 233.056 143.092 233.392 143.54 234.208L142.836 237.68C142.052 238.688 141.204 239.168 140.388 239.168ZM149.444 240.192C150.42 240.192 151.396 239.648 152.148 238.848H152.212L152.084 240H153.092L154.644 232.224H153.652L153.348 233.2H153.284C152.916 232.496 152.244 232.032 151.412 232.032C149.252 232.032 147.204 234.384 147.204 237.376C147.204 239.2 148.084 240.192 149.444 240.192ZM149.892 239.168C149.028 239.168 148.468 238.528 148.468 237.184C148.468 235.04 149.908 233.056 151.46 233.056C152.052 233.056 152.596 233.392 153.044 234.208L152.34 237.68C151.572 238.688 150.708 239.168 149.892 239.168ZM156.612 240H157.828L159.396 232.224H158.164L156.612 240ZM159.204 230.608C159.7 230.608 160.132 230.224 160.132 229.696C160.132 229.232 159.764 228.96 159.348 228.96C158.852 228.96 158.42 229.36 158.42 229.888C158.42 230.352 158.788 230.608 159.204 230.608ZM162.599 240.192C162.935 240.192 163.159 240.144 163.367 240.064L163.351 239.12C163.207 239.168 163.159 239.168 163.095 239.168C162.935 239.168 162.823 239.072 162.823 238.88C162.823 238.816 162.823 238.736 162.855 238.576L164.855 228.608H163.623L161.655 238.512C161.591 238.784 161.559 239.008 161.559 239.184C161.559 239.824 161.911 240.192 162.599 240.192ZM165.67 243.344C167.158 243.344 168.102 242.176 168.918 240.656L173.494 232.224H172.278L170.038 236.592C169.654 237.328 169.254 238.176 168.886 238.912H168.822C168.758 238.176 168.678 237.296 168.566 236.592L167.958 232.224H166.742L168.07 240.016L167.782 240.576C167.254 241.648 166.534 242.352 165.75 242.352C165.542 242.352 165.366 242.304 165.174 242.208L164.774 243.12C165.078 243.28 165.446 243.344 165.67 243.344ZM172.998 242.624C174.566 242.176 175.622 240.896 175.622 239.328C175.622 238.688 175.318 238.272 174.758 238.272C174.134 238.272 173.734 238.768 173.734 239.296C173.734 239.776 174.086 240.064 174.566 240.064H174.598C174.454 240.832 173.83 241.504 172.822 241.888L172.998 242.624ZM185.019 240.192C185.995 240.192 186.971 239.648 187.723 238.848H187.787L187.659 240H188.667L190.219 232.224H189.227L188.923 233.2H188.859C188.491 232.496 187.819 232.032 186.987 232.032C184.827 232.032 182.779 234.384 182.779 237.376C182.779 239.2 183.659 240.192 185.019 240.192ZM185.467 239.168C184.603 239.168 184.043 238.528 184.043 237.184C184.043 235.04 185.483 233.056 187.035 233.056C187.627 233.056 188.171 233.392 188.619 234.208L187.915 237.68C187.147 238.688 186.283 239.168 185.467 239.168ZM192.187 240H193.403L194.507 234.496C195.483 233.52 196.235 233.088 196.843 233.088C197.643 233.088 197.995 233.504 197.995 234.288C197.995 234.56 197.947 234.784 197.867 235.2L196.907 240H198.123L199.115 235.04C199.211 234.608 199.243 234.336 199.243 233.968C199.243 232.768 198.715 232.032 197.403 232.032C196.427 232.032 195.563 232.624 194.683 233.392H194.619L194.731 232.224H193.723L192.187 240ZM207.76 233.168H207.712C207.328 232.48 206.704 232.032 205.872 232.032C203.712 232.032 201.664 234.384 201.664 237.376C201.664 239.2 202.544 240.192 203.904 240.192C204.88 240.192 205.856 239.648 206.608 238.848H206.672L206.544 240H207.552L209.856 228.608H208.624L208.016 231.648L207.76 233.168ZM204.352 239.168C203.488 239.168 202.928 238.528 202.928 237.184C202.928 235.04 204.368 233.056 205.92 233.056C206.512 233.056 207.056 233.392 207.504 234.208L206.8 237.68C206.016 238.688 205.168 239.168 204.352 239.168ZM215.061 240H216.277L217.381 234.496C218.357 233.52 219.109 233.088 219.717 233.088C220.517 233.088 220.869 233.504 220.869 234.288C220.869 234.56 220.821 234.784 220.741 235.2L219.781 240H220.997L221.989 235.04C222.085 234.608 222.117 234.336 222.117 233.968C222.117 232.768 221.589 232.032 220.277 232.032C219.333 232.032 218.485 232.592 217.605 233.344H217.541L217.797 232.368L218.565 228.608H217.333L215.061 240ZM224.396 236.944C224.396 239.024 225.612 240.192 227.452 240.192C228.46 240.192 229.34 239.808 229.964 239.36L229.484 238.544C228.988 238.912 228.348 239.216 227.74 239.216C226.38 239.216 225.34 238.368 225.628 236.368H230.684C230.78 236.08 230.956 235.472 230.956 234.848C230.956 233.248 230.3 232.032 228.556 232.032C226.524 232.032 224.396 234.016 224.396 236.944ZM225.756 235.536C226.156 234 227.276 233.008 228.412 233.008C229.532 233.008 229.916 233.856 229.916 234.736C229.916 235.04 229.884 235.28 229.836 235.536H225.756ZM236.966 240H238.182L239.75 232.224H238.518L236.966 240ZM239.558 230.608C240.054 230.608 240.486 230.224 240.486 229.696C240.486 229.232 240.118 228.96 239.702 228.96C239.206 228.96 238.774 229.36 238.774 229.888C238.774 230.352 239.142 230.608 239.558 230.608ZM243.817 240.192C245.497 240.192 246.729 239.248 246.729 237.792C246.729 236.944 246.297 236.352 244.905 235.584C244.201 235.2 243.529 234.864 243.529 234.208C243.529 233.552 244.169 232.992 245.001 232.992C245.705 232.992 246.201 233.328 246.617 233.76L247.321 233.072C246.745 232.464 245.977 232.032 245.033 232.032C243.577 232.032 242.361 232.976 242.361 234.352C242.361 235.232 242.937 235.824 244.137 236.48C245.225 237.072 245.561 237.392 245.561 237.952C245.561 238.656 244.809 239.248 243.913 239.248C243.097 239.248 242.393 238.784 241.913 238.112L241.145 238.72C241.673 239.536 242.777 240.192 243.817 240.192ZM260.529 232.224H259.313L258.209 237.728C257.265 238.704 256.513 239.136 255.905 239.136C255.105 239.136 254.753 238.72 254.753 237.936C254.753 237.664 254.801 237.44 254.881 237.024L255.857 232.224H254.625L253.633 237.184C253.537 237.6 253.505 237.888 253.505 238.256C253.505 239.44 254.033 240.192 255.345 240.192C256.289 240.192 257.185 239.568 258.033 238.816H258.097L257.969 240H258.977L260.529 232.224ZM264.612 240.192C266.292 240.192 267.524 239.248 267.524 237.792C267.524 236.944 267.092 236.352 265.7 235.584C264.996 235.2 264.324 234.864 264.324 234.208C264.324 233.552 264.964 232.992 265.796 232.992C266.5 232.992 266.996 233.328 267.412 233.76L268.116 233.072C267.54 232.464 266.772 232.032 265.828 232.032C264.372 232.032 263.156 232.976 263.156 234.352C263.156 235.232 263.732 235.824 264.932 236.48C266.02 237.072 266.356 237.392 266.356 237.952C266.356 238.656 265.604 239.248 264.708 239.248C263.892 239.248 263.188 238.784 262.708 238.112L261.94 238.72C262.468 239.536 263.572 240.192 264.612 240.192ZM277.304 232.224H276.088L274.984 237.728C274.04 238.704 273.288 239.136 272.68 239.136C271.88 239.136 271.528 238.72 271.528 237.936C271.528 237.664 271.576 237.44 271.656 237.024L272.632 232.224H271.4L270.408 237.184C270.312 237.6 270.28 237.888 270.28 238.256C270.28 239.44 270.808 240.192 272.12 240.192C273.064 240.192 273.96 239.568 274.808 238.816H274.872L274.744 240H275.752L277.304 232.224ZM281.643 240.192C282.619 240.192 283.595 239.648 284.347 238.848H284.411L284.283 240H285.291L286.843 232.224H285.851L285.547 233.2H285.483C285.115 232.496 284.443 232.032 283.611 232.032C281.451 232.032 279.403 234.384 279.403 237.376C279.403 239.2 280.283 240.192 281.643 240.192ZM282.091 239.168C281.227 239.168 280.667 238.528 280.667 237.184C280.667 235.04 282.107 233.056 283.659 233.056C284.251 233.056 284.795 233.392 285.243 234.208L284.539 237.68C283.771 238.688 282.907 239.168 282.091 239.168ZM290.059 240.192C290.395 240.192 290.619 240.144 290.827 240.064L290.811 239.12C290.667 239.168 290.619 239.168 290.555 239.168C290.395 239.168 290.283 239.072 290.283 238.88C290.283 238.816 290.283 238.736 290.315 238.576L292.315 228.608H291.083L289.115 238.512C289.051 238.784 289.019 239.008 289.019 239.184C289.019 239.824 289.371 240.192 290.059 240.192ZM294.97 240.192C295.306 240.192 295.53 240.144 295.738 240.064L295.722 239.12C295.578 239.168 295.53 239.168 295.466 239.168C295.306 239.168 295.194 239.072 295.194 238.88C295.194 238.816 295.194 238.736 295.226 238.576L297.226 228.608H295.994L294.026 238.512C293.962 238.784 293.93 239.008 293.93 239.184C293.93 239.824 294.282 240.192 294.97 240.192ZM298.041 243.344C299.529 243.344 300.473 242.176 301.289 240.656L305.865 232.224H304.649L302.409 236.592C302.025 237.328 301.625 238.176 301.257 238.912H301.193C301.129 238.176 301.049 237.296 300.937 236.592L300.329 232.224H299.113L300.441 240.016L300.153 240.576C299.625 241.648 298.905 242.352 298.121 242.352C297.913 242.352 297.737 242.304 297.545 242.208L297.145 243.12C297.449 243.28 297.817 243.344 298.041 243.344ZM312.352 240H313.824L317.968 232.224H316.736L314.448 236.72C314.048 237.488 313.664 238.272 313.296 239.04H313.232C313.152 238.288 313.088 237.472 313.008 236.72L312.432 232.224H311.216L312.352 240ZM318.915 236.944C318.915 239.024 320.131 240.192 321.971 240.192C322.979 240.192 323.859 239.808 324.483 239.36L324.003 238.544C323.507 238.912 322.867 239.216 322.259 239.216C320.899 239.216 319.859 238.368 320.147 236.368H325.203C325.299 236.08 325.475 235.472 325.475 234.848C325.475 233.248 324.819 232.032 323.075 232.032C321.043 232.032 318.915 234.016 318.915 236.944ZM320.275 235.536C320.675 234 321.795 233.008 322.931 233.008C324.051 233.008 324.435 233.856 324.435 234.736C324.435 235.04 324.403 235.28 324.355 235.536H320.275ZM327.465 240H328.681L329.657 235.088C330.313 233.824 331.177 233.136 331.945 233.136C332.233 233.136 332.457 233.184 332.617 233.264L333.049 232.176C332.825 232.08 332.601 232.032 332.313 232.032C331.353 232.032 330.521 232.768 329.897 233.712H329.833L330.009 232.224H329.001L327.465 240ZM333.377 243.344C334.865 243.344 335.809 242.176 336.625 240.656L341.201 232.224H339.985L337.745 236.592C337.361 237.328 336.961 238.176 336.593 238.912H336.529C336.465 238.176 336.385 237.296 336.273 236.592L335.665 232.224H334.449L335.777 240.016L335.489 240.576C334.961 241.648 334.241 242.352 333.457 242.352C333.249 242.352 333.073 242.304 332.881 242.208L332.481 243.12C332.785 243.28 333.153 243.344 333.377 243.344ZM349 240.192C351.128 240.192 353.208 238.096 353.208 235.152C353.208 233.216 352.104 232.032 350.424 232.032C348.296 232.032 346.232 234.128 346.232 237.072C346.232 239.008 347.32 240.192 349 240.192ZM349.128 239.168C348.056 239.168 347.464 238.4 347.464 236.992C347.464 234.816 348.872 233.04 350.296 233.04C351.368 233.04 351.96 233.824 351.96 235.232C351.96 237.408 350.568 239.168 349.128 239.168ZM356.288 240L356.608 239.024H356.656C357.024 239.728 357.696 240.192 358.528 240.192C360.672 240.192 362.72 237.84 362.72 234.848C362.72 233.024 361.84 232.032 360.48 232.032C359.52 232.032 358.608 232.56 357.84 233.184H357.808L358.16 231.648L358.784 228.608H357.552L355.28 240H356.288ZM360.032 233.056C360.912 233.056 361.456 233.712 361.456 235.024C361.456 237.184 360.032 239.168 358.48 239.168C357.872 239.168 357.328 238.832 356.896 238.016L357.632 234.32C358.368 233.536 359.312 233.056 360.032 233.056ZM364.897 236.944C364.897 239.024 366.113 240.192 367.953 240.192C368.961 240.192 369.841 239.808 370.465 239.36L369.985 238.544C369.489 238.912 368.849 239.216 368.241 239.216C366.881 239.216 365.841 238.368 366.129 236.368H371.185C371.281 236.08 371.457 235.472 371.457 234.848C371.457 233.248 370.801 232.032 369.057 232.032C367.025 232.032 364.897 234.016 364.897 236.944ZM366.257 235.536C366.657 234 367.777 233.008 368.913 233.008C370.033 233.008 370.417 233.856 370.417 234.736C370.417 235.04 370.385 235.28 370.337 235.536H366.257ZM379.67 233.168H379.622C379.238 232.48 378.614 232.032 377.782 232.032C375.622 232.032 373.574 234.384 373.574 237.376C373.574 239.2 374.454 240.192 375.814 240.192C376.79 240.192 377.766 239.648 378.518 238.848H378.582L378.454 240H379.462L381.766 228.608H380.534L379.926 231.648L379.67 233.168ZM376.262 239.168C375.398 239.168 374.838 238.528 374.838 237.184C374.838 235.04 376.278 233.056 377.83 233.056C378.422 233.056 378.966 233.392 379.414 234.208L378.71 237.68C377.926 238.688 377.078 239.168 376.262 239.168ZM382.951 240H384.167L385.735 232.224H384.503L382.951 240ZM385.543 230.608C386.039 230.608 386.471 230.224 386.471 229.696C386.471 229.232 386.103 228.96 385.687 228.96C385.191 228.96 384.759 229.36 384.759 229.888C384.759 230.352 385.127 230.608 385.543 230.608ZM387.786 236.944C387.786 239.024 389.002 240.192 390.842 240.192C391.85 240.192 392.73 239.808 393.354 239.36L392.874 238.544C392.378 238.912 391.738 239.216 391.13 239.216C389.77 239.216 388.73 238.368 389.018 236.368H394.074C394.17 236.08 394.346 235.472 394.346 234.848C394.346 233.248 393.69 232.032 391.946 232.032C389.914 232.032 387.786 234.016 387.786 236.944ZM389.146 235.536C389.546 234 390.666 233.008 391.802 233.008C392.922 233.008 393.306 233.856 393.306 234.736C393.306 235.04 393.274 235.28 393.226 235.536H389.146ZM396.335 240H397.551L398.655 234.496C399.631 233.52 400.383 233.088 400.991 233.088C401.791 233.088 402.143 233.504 402.143 234.288C402.143 234.56 402.095 234.784 402.015 235.2L401.055 240H402.271L403.263 235.04C403.359 234.608 403.391 234.336 403.391 233.968C403.391 232.768 402.863 232.032 401.551 232.032C400.575 232.032 399.711 232.624 398.831 233.392H398.767L398.879 232.224H397.871L396.335 240ZM408.148 240.192C408.756 240.192 409.268 240 409.62 239.84L409.348 238.96C409.108 239.072 408.836 239.2 408.532 239.2C407.796 239.2 407.54 238.88 407.54 238.24C407.54 238.032 407.556 237.856 407.588 237.664L408.5 233.216H410.5L410.692 232.224H408.724L409.156 230.08H408.116L407.54 232.224L406.324 232.304L406.148 233.216H407.284L406.372 237.6C406.34 237.888 406.292 238.144 406.292 238.464C406.292 239.424 406.788 240.192 408.148 240.192ZM412.656 240.192C413.264 240.192 413.712 239.632 413.712 239.088C413.712 238.624 413.44 238.272 412.976 238.272C412.368 238.272 411.904 238.848 411.904 239.392C411.904 239.856 412.192 240.192 412.656 240.192ZM416.432 232.912C417.632 232.4 418.56 231.36 418.56 229.888C418.56 229.2 418.208 228.8 417.712 228.8C417.184 228.8 416.832 229.232 416.832 229.712C416.832 230.176 417.168 230.432 417.632 230.432C417.664 230.432 417.68 230.432 417.712 230.432C417.712 231.008 417.168 231.824 416.176 232.32L416.432 232.912ZM419.072 232.912C420.272 232.4 421.2 231.36 421.2 229.888C421.2 229.2 420.848 228.8 420.352 228.8C419.824 228.8 419.472 229.232 419.472 229.712C419.472 230.176 419.808 230.432 420.272 230.432C420.304 230.432 420.32 230.432 420.352 230.432C420.352 231.008 419.808 231.824 418.816 232.32L419.072 232.912Z" fill="black"/>
<path fill-rule="evenodd" clip-rule="evenodd" d="M526.578 32.0628C522.117 34.769 517.734 36.0765 515.676 35.5427C510.517 34.2043 510.043 15.2084 514.035 7.71958C518.027 0.230801 538.549 -3.0333 539.583 11.8044C539.942 16.954 537.794 21.5498 534.619 25.2999L540.311 52.0001H523.778L526.578 32.0628Z" fill="#D4A181"/>
<path fill-rule="evenodd" clip-rule="evenodd" d="M525.751 13.4429C524.321 11.2997 522.948 9.66504 521.162 8.71574C513.894 8.83134 513.043 7.51989 513.043 3.09974C514.217 2.25426 518.359 0.830608 522.998 0.430144C525.364 -0.25143 528.168 -0.123241 530.868 1.01368C534.202 1.96565 537.025 4.01584 538.272 7.85415C542.783 15.6893 539.359 23.8455 534.745 26.6316C533.516 25.1671 532.445 23.7478 531.488 22.3891C532.256 21.6338 532.733 20.5796 532.733 19.4132C532.733 17.1157 530.883 15.2532 528.6 15.2532C528.432 15.2532 528.267 15.2633 528.104 15.2828C528.001 18.1553 527.579 27.8737 526.468 31.2494C525.159 35.2292 517.52 36.2064 514.856 36.2064C512.555 36.2064 512.633 34.0133 512.689 32.4415C512.697 32.2151 512.705 32.0017 512.705 31.8095C512.705 31.408 513.224 31.409 513.81 31.4102C514.571 31.4117 515.446 31.4134 515.446 30.5343C515.446 29.576 514.131 28.841 512.953 28.1832C512.219 27.7729 511.538 27.3926 511.264 27.0069C510.401 25.7903 510.11 24.1494 511.412 24.1494C512.125 24.1494 513.102 24.5626 514.277 25.0597C516.052 25.8102 518.279 26.7519 520.729 26.7519C524.777 26.7519 525.739 13.6075 525.751 13.4429Z" fill="#191847"/>
<path fill-rule="evenodd" clip-rule="evenodd" d="M545.626 109L520.339 196.144L508.445 261.573H496.507L508.424 109H545.626Z" fill="#D4A181"/>
<path fill-rule="evenodd" clip-rule="evenodd" d="M556.99 109C555.226 154.271 555.922 178.963 556.316 183.076C556.711 187.189 558.953 214.736 574.23 262.954H561.814C541.582 216.697 534.519 189.15 532.199 183.076C529.878 177.002 523.025 152.31 513.02 109H556.99Z" fill="#D4A181"/>
<path fill-rule="evenodd" clip-rule="evenodd" d="M546.169 109C539.591 138.987 528.215 186.853 512.04 252.598H494.579C493.29 185.117 498.776 140.702 508.276 109H546.169Z" fill="#C5CFD6"/>
<path fill-rule="evenodd" clip-rule="evenodd" d="M557.078 109C555.35 154.271 559.829 198.871 573.701 253.303H555.072C534.803 207.736 520.275 163.356 510.346 109H557.078Z" fill="#DDE3E9"/>
<path fill-rule="evenodd" clip-rule="evenodd" d="M576 271.929L575.392 262.132C575.353 261.492 574.728 261.053 574.097 261.168C568.151 262.245 560.243 259.502 560.243 259.502C552.349 265.094 541.142 267.81 536.431 268.76C535.252 268.997 534.499 270.19 534.827 271.347L535.58 274H560.243H574.63L576 271.929Z" fill="#191847"/>
<path fill-rule="evenodd" clip-rule="evenodd" d="M511.11 271.929L510.502 262.132C510.462 261.492 509.838 261.053 509.207 261.168C503.261 262.245 495.353 259.502 495.353 259.502C487.459 265.094 476.252 267.81 471.541 268.76C470.361 268.997 469.609 270.19 469.937 271.347L470.689 274H495.353H509.739L511.11 271.929Z" fill="#191847"/>
<path fill-rule="evenodd" clip-rule="evenodd" d="M599.179 134.353C596.605 130.565 581.711 90.2876 581.711 90.2876L569.483 92.0656C569.483 92.0656 589.171 134.836 590.593 137.304C592.44 140.511 590.807 145.778 589.699 149.349C589.527 149.901 589.368 150.413 589.237 150.871C591.564 151.544 592.45 150.21 593.383 148.804C594.437 147.216 595.553 145.535 598.876 146.549C600.161 146.941 601.394 147.444 602.6 147.936C606.763 149.635 610.588 151.195 614.981 147.546C615.677 146.968 616.264 145.076 614.05 143.974C608.535 141.229 600.438 136.205 599.179 134.353ZM466.502 115.633L487.342 97.9425L493.038 109.622L471.914 120.178C466.267 127.845 463.038 131.102 462.225 129.95C461.541 128.979 461.954 127.995 462.335 127.09C462.632 126.384 462.909 125.726 462.632 125.157C461.998 123.857 457.875 124.287 453.98 124.863C450.084 125.439 451.104 123.614 451.988 122.687C455.818 120.011 460.656 117.66 466.502 115.633Z" fill="#D4A181"/>
<path fill-rule="evenodd" clip-rule="evenodd" d="M530.604 40.3771L523.028 37.8683C512.749 63.5758 497.421 88.4492 471.81 109.459L478.143 120.399C500.652 107.123 521.958 96.8108 530.604 76.8904C533.506 70.2047 530.841 48.3713 530.604 40.3771Z" fill="#2F3676"/>
<path fill-rule="evenodd" clip-rule="evenodd" d="M556.628 112.728C556.628 112.728 524.071 116.184 505.377 112.728C503.833 112.443 503.589 109.854 504.305 108.097C515.456 80.7403 523.103 56.8698 523.103 37.8682C526.172 39.4174 533.845 38.3325 533.845 38.3325C547.593 57.9143 553.913 80.3821 556.628 112.728Z" fill="#8FA0D0"/>
<path fill-rule="evenodd" clip-rule="evenodd" d="M537.785 36.6911C537.43 36.4516 537.243 36.3325 537.243 36.3325L537.263 36.6911H531.533C531.246 38.3864 530.824 44.6701 530.209 53.8326C527.974 87.1279 523.189 158.438 513.002 185.727H583.286C581.803 154.701 570.379 117.599 558.544 86.0945C567.277 94.7941 577.476 109.377 585.719 133.654L598.884 130.27C585.467 72.3857 546.16 42.5332 538.533 37.2052C538.459 37.0329 538.385 36.8615 538.311 36.6911H537.785Z" fill="#5C63AB"/>
</svg>
