<svg width="846" height="286" viewBox="0 0 846 286" fill="none" xmlns="http://www.w3.org/2000/svg">
<path fill-rule="evenodd" clip-rule="evenodd" d="M0 54H563C571.837 54 579 61.1634 579 70V194C579 202.837 571.837 210 563 210H0V54Z" fill="#EEF9F0"/>
<rect y="54" width="5" height="156" fill="#51BAA1"/>
<g opacity="0.394438">
<path fill-rule="evenodd" clip-rule="evenodd" d="M307.248 141.554C306.589 141.38 305.962 141.782 305.765 142.42C303.717 149.405 297.969 154.925 290.769 156.854C279.568 159.855 268.228 153.648 265.361 142.947L269.524 145.226C269.811 145.383 270.183 145.4 270.412 145.339C270.64 145.278 270.954 145.077 271.124 144.797C271.464 144.238 271.288 143.583 270.714 143.268L264.225 139.624C263.651 139.309 262.965 139.493 262.625 140.052L258.799 146.344C258.459 146.903 258.634 147.559 259.209 147.873C259.783 148.187 260.468 148.003 260.809 147.444L263.104 143.669C266.379 155.431 278.981 162.236 291.325 158.929C299.325 156.785 305.756 150.614 307.972 142.882C308.283 142.214 307.878 141.62 307.248 141.554Z" fill="#51BAA1"/>
<path d="M307.248 141.554C306.589 141.38 305.962 141.782 305.765 142.42C303.717 149.405 297.969 154.925 290.769 156.854C279.568 159.855 268.228 153.648 265.361 142.947L269.524 145.226C269.811 145.383 270.183 145.4 270.412 145.339C270.64 145.278 270.954 145.077 271.124 144.797C271.464 144.238 271.288 143.583 270.714 143.268L264.225 139.624C263.651 139.309 262.965 139.493 262.625 140.052L258.799 146.344C258.459 146.903 258.634 147.559 259.209 147.873C259.783 148.187 260.468 148.003 260.809 147.444L263.104 143.669C266.379 155.431 278.981 162.236 291.325 158.929C299.325 156.785 305.756 150.614 307.972 142.882C308.283 142.214 307.878 141.62 307.248 141.554" stroke="#51BAA1"/>
</g>
<g opacity="0.394438">
<path fill-rule="evenodd" clip-rule="evenodd" d="M310.342 113.896C309.774 113.574 309.086 113.745 308.736 114.297L306.26 118.046C303.205 106.28 290.743 99.2948 278.356 102.383C270.328 104.385 263.793 110.422 261.44 118.085C261.232 118.717 261.625 119.315 262.28 119.499C262.935 119.684 263.569 119.294 263.777 118.662C265.949 111.741 271.79 106.34 279.016 104.539C290.255 101.736 301.467 108.105 304.135 118.808L300.02 116.47C299.452 116.147 298.764 116.319 298.414 116.87C298.064 117.421 298.228 118.077 298.795 118.399L305.324 122.107C305.607 122.269 305.979 122.292 306.208 122.235C306.437 122.178 306.754 121.983 306.929 121.707L310.865 115.506C311.073 114.874 310.91 114.219 310.342 113.896Z" fill="#51BAA1"/>
<path d="M310.342 113.896C309.774 113.574 309.086 113.745 308.736 114.297L306.26 118.046C303.205 106.28 290.743 99.2948 278.356 102.383C270.328 104.385 263.793 110.422 261.44 118.085C261.232 118.717 261.625 119.315 262.28 119.499C262.935 119.684 263.569 119.294 263.777 118.662C265.949 111.741 271.79 106.34 279.016 104.539C290.255 101.736 301.467 108.105 304.135 118.808L300.02 116.47C299.452 116.147 298.764 116.319 298.414 116.87C298.064 117.421 298.228 118.077 298.795 118.399L305.324 122.107C305.607 122.269 305.979 122.292 306.208 122.235C306.437 122.178 306.754 121.983 306.929 121.707L310.865 115.506C311.073 114.874 310.91 114.219 310.342 113.896" stroke="#51BAA1"/>
</g>
<path d="M63.3363 137V122.908H60.8168V137H63.3363ZM66.6327 137H69.0643V131.004C69.0643 129.52 69.953 128.514 71.3495 128.514C72.7362 128.514 73.4198 129.334 73.4198 130.799V137H75.8514V130.311C75.8514 127.918 74.5526 126.453 72.2674 126.453C70.6756 126.453 69.5721 127.195 69.0155 128.426H68.9666V126.648H66.6327V137ZM84.5481 126.473C83.0442 126.473 81.8723 127.234 81.2864 128.436H81.2376V126.648H78.8645V140.408H81.2962V135.281H81.345C81.9114 136.443 83.0833 137.166 84.5872 137.166C87.1848 137.166 88.845 135.125 88.845 131.824C88.845 128.514 87.1751 126.473 84.5481 126.473ZM83.8059 135.174C82.2923 135.174 81.2864 133.855 81.2766 131.824C81.2864 129.812 82.2923 128.475 83.8059 128.475C85.3782 128.475 86.3548 129.783 86.3548 131.824C86.3548 133.875 85.3782 135.174 83.8059 135.174ZM100.647 126.648H98.2155V132.635C98.2155 134.139 97.3464 135.135 95.9402 135.135C94.573 135.135 93.8503 134.334 93.8503 132.85V126.648H91.4187V133.338C91.4187 135.73 92.8445 137.186 95.0905 137.186C96.6628 137.186 97.7077 136.463 98.2546 135.203H98.3034V137H100.647V126.648ZM104.373 124.227V126.648H102.889V128.523H104.373V134.246C104.373 136.258 105.252 137.049 107.488 137.049C108.006 137.049 108.485 137.01 108.748 136.951V135.096C108.592 135.125 108.279 135.145 108.055 135.145C107.195 135.145 106.805 134.754 106.805 133.904V128.523H108.758V126.648H106.805V124.227H104.373ZM111.293 129.617C111.293 131.15 112.289 132.127 114.271 132.566L115.99 132.947C117.074 133.191 117.445 133.543 117.445 134.168C117.445 134.939 116.713 135.428 115.531 135.428C114.3 135.428 113.607 134.92 113.421 133.914H111.029C111.224 135.916 112.826 137.205 115.531 137.205C118.07 137.205 119.867 135.887 119.867 133.934C119.867 132.43 119.037 131.6 116.888 131.121L115.17 130.74C114.086 130.496 113.656 130.086 113.656 129.49C113.656 128.729 114.369 128.221 115.443 128.221C116.566 128.221 117.259 128.816 117.357 129.754H119.623C119.564 127.791 117.963 126.434 115.443 126.434C112.943 126.434 111.293 127.723 111.293 129.617Z" fill="black"/>
<path d="M264.672 137V122.908H261.761L257.445 133.66H257.367L253.05 122.908H250.131V137H252.406V127H252.474L256.547 137H258.265L262.338 127H262.406V137H264.672ZM271.503 135.33C270.448 135.33 269.745 134.793 269.745 133.943C269.745 133.123 270.419 132.596 271.591 132.518L273.984 132.371V133.162C273.984 134.412 272.88 135.33 271.503 135.33ZM270.771 137.166C272.099 137.166 273.398 136.473 273.993 135.35H274.042V137H276.386V129.871C276.386 127.791 274.716 126.434 272.148 126.434C269.511 126.434 267.86 127.82 267.753 129.754H270.009C270.165 128.895 270.898 128.338 272.05 128.338C273.251 128.338 273.984 128.963 273.984 130.047V130.789L271.249 130.945C268.73 131.102 267.314 132.205 267.314 134.041C267.314 135.906 268.769 137.166 270.771 137.166ZM288.53 130.34C288.364 128.162 286.674 126.434 283.94 126.434C280.932 126.434 278.979 128.514 278.979 131.824C278.979 135.184 280.932 137.205 283.96 137.205C286.557 137.205 288.344 135.682 288.54 133.367H286.245C286.02 134.539 285.219 135.242 283.989 135.242C282.446 135.242 281.45 133.992 281.45 131.824C281.45 129.695 282.436 128.406 283.969 128.406C285.268 128.406 286.04 129.236 286.235 130.34H288.53ZM291.123 137H293.555V131.053C293.555 129.529 294.443 128.514 295.908 128.514C297.314 128.514 298.037 129.383 298.037 130.828V137H300.469V130.33C300.469 127.957 299.131 126.453 296.846 126.453C295.273 126.453 294.131 127.166 293.574 128.426H293.525V122.908H291.123V137ZM303.54 137H305.972V126.648H303.54V137ZM304.742 125.086C305.494 125.086 306.08 124.49 306.08 123.768C306.08 123.035 305.494 122.449 304.742 122.449C304.009 122.449 303.414 123.035 303.414 123.768C303.414 124.49 304.009 125.086 304.742 125.086ZM309.073 137H311.505V131.004C311.505 129.52 312.393 128.514 313.79 128.514C315.177 128.514 315.86 129.334 315.86 130.799V137H318.292V130.311C318.292 127.918 316.993 126.453 314.708 126.453C313.116 126.453 312.013 127.195 311.456 128.426H311.407V126.648H309.073V137ZM325.768 128.318C327.164 128.318 328.102 129.344 328.151 130.809H323.317C323.414 129.363 324.401 128.318 325.768 128.318ZM328.16 133.904C327.897 134.764 327.037 135.33 325.905 135.33C324.313 135.33 323.297 134.217 323.297 132.557V132.41H330.534V131.619C330.534 128.475 328.698 126.434 325.758 126.434C322.77 126.434 320.875 128.592 320.875 131.863C320.875 135.164 322.75 137.205 325.856 137.205C328.307 137.205 330.123 135.857 330.436 133.904H328.16Z" fill="black"/>
<path d="M457.187 122.674C453.076 122.674 450.498 125.477 450.498 129.959C450.498 134.441 453.076 137.234 457.187 137.234C461.289 137.234 463.867 134.441 463.867 129.959C463.867 125.477 461.289 122.674 457.187 122.674ZM457.187 124.822C459.697 124.822 461.299 126.814 461.299 129.959C461.299 133.094 459.697 135.086 457.187 135.086C454.668 135.086 453.076 133.094 453.076 129.959C453.076 126.814 454.668 124.822 457.187 124.822ZM475.874 126.648H473.442V132.635C473.442 134.139 472.573 135.135 471.167 135.135C469.8 135.135 469.077 134.334 469.077 132.85V126.648H466.646V133.338C466.646 135.73 468.071 137.186 470.317 137.186C471.89 137.186 472.935 136.463 473.482 135.203H473.53V137H475.874V126.648ZM479.6 124.227V126.648H478.116V128.523H479.6V134.246C479.6 136.258 480.479 137.049 482.715 137.049C483.233 137.049 483.711 137.01 483.975 136.951V135.096C483.819 135.125 483.506 135.145 483.282 135.145C482.422 135.145 482.032 134.754 482.032 133.904V128.523H483.985V126.648H482.032V124.227H479.6ZM492.389 126.473C490.885 126.473 489.713 127.234 489.127 128.436H489.078V126.648H486.705V140.408H489.137V135.281H489.186C489.752 136.443 490.924 137.166 492.428 137.166C495.025 137.166 496.686 135.125 496.686 131.824C496.686 128.514 495.016 126.473 492.389 126.473ZM491.646 135.174C490.133 135.174 489.127 133.855 489.117 131.824C489.127 129.812 490.133 128.475 491.646 128.475C493.219 128.475 494.195 129.783 494.195 131.824C494.195 133.875 493.219 135.174 491.646 135.174ZM508.488 126.648H506.056V132.635C506.056 134.139 505.187 135.135 503.781 135.135C502.414 135.135 501.691 134.334 501.691 132.85V126.648H499.259V133.338C499.259 135.73 500.685 137.186 502.931 137.186C504.503 137.186 505.548 136.463 506.095 135.203H506.144V137H508.488V126.648ZM512.214 124.227V126.648H510.729V128.523H512.214V134.246C512.214 136.258 513.093 137.049 515.329 137.049C515.847 137.049 516.325 137.01 516.589 136.951V135.096C516.432 135.125 516.12 135.145 515.895 135.145C515.036 135.145 514.645 134.754 514.645 133.904V128.523H516.599V126.648H514.645V124.227H512.214ZM519.133 129.617C519.133 131.15 520.129 132.127 522.112 132.566L523.83 132.947C524.914 133.191 525.285 133.543 525.285 134.168C525.285 134.939 524.553 135.428 523.371 135.428C522.141 135.428 521.448 134.92 521.262 133.914H518.869C519.065 135.916 520.666 137.205 523.371 137.205C525.91 137.205 527.707 135.887 527.707 133.934C527.707 132.43 526.877 131.6 524.729 131.121L523.01 130.74C521.926 130.496 521.496 130.086 521.496 129.49C521.496 128.729 522.209 128.221 523.284 128.221C524.407 128.221 525.1 128.816 525.198 129.754H527.463C527.405 127.791 525.803 126.434 523.284 126.434C520.784 126.434 519.133 127.723 519.133 129.617Z" fill="black"/>
<path d="M74.0249 169.727V181H77.8139C81.1655 181 83.1343 178.914 83.1343 175.359C83.1343 171.812 81.1577 169.727 77.8139 169.727H74.0249ZM75.4311 170.992H77.7202C80.2827 170.992 81.6968 172.555 81.6968 175.375C81.6968 178.172 80.2749 179.734 77.7202 179.734H75.4311V170.992ZM88.201 179.984C87.2244 179.984 86.576 179.477 86.576 178.703C86.576 177.938 87.201 177.453 88.2948 177.383L90.4666 177.25V177.914C90.4666 179.086 89.4823 179.984 88.201 179.984ZM87.8963 181.141C88.9901 181.141 90.0213 180.531 90.5057 179.602H90.5369V181H91.826V175.383C91.826 173.766 90.6229 172.734 88.7166 172.734C86.7948 172.734 85.5916 173.812 85.4979 175.219H86.8104C86.9823 174.422 87.6385 173.93 88.6854 173.93C89.8104 173.93 90.4666 174.523 90.4666 175.516V176.195L88.1385 176.328C86.2635 176.438 85.1932 177.312 85.1932 178.703C85.1932 180.164 86.2791 181.141 87.8963 181.141ZM94.8381 170.914V172.875H93.6271V173.992H94.8381V178.891C94.8381 180.453 95.4162 181.062 96.9084 181.062C97.2287 181.062 97.6037 181.039 97.7677 181V179.859C97.674 179.875 97.3615 179.898 97.2052 179.898C96.5099 179.898 96.1974 179.562 96.1974 178.82V173.992H97.7756V172.875H96.1974V170.914H94.8381ZM102.6 179.984C101.624 179.984 100.975 179.477 100.975 178.703C100.975 177.938 101.6 177.453 102.694 177.383L104.866 177.25V177.914C104.866 179.086 103.881 179.984 102.6 179.984ZM102.295 181.141C103.389 181.141 104.42 180.531 104.905 179.602H104.936V181H106.225V175.383C106.225 173.766 105.022 172.734 103.116 172.734C101.194 172.734 99.9908 173.812 99.897 175.219H101.21C101.381 174.422 102.038 173.93 103.085 173.93C104.21 173.93 104.866 174.523 104.866 175.516V176.195L102.538 176.328C100.663 176.438 99.5923 177.312 99.5923 178.703C99.5923 180.164 100.678 181.141 102.295 181.141Z" fill="black"/>
<path d="M279.445 181V169.727H277.812L273.921 179.211H273.859L269.968 169.727H268.335V181H269.648V172.312H269.702L273.296 181H274.484L278.077 172.312H278.132V181H279.445ZM285.636 181.141C287.879 181.141 289.394 179.523 289.394 176.938C289.394 174.344 287.879 172.734 285.636 172.734C283.386 172.734 281.871 174.344 281.871 176.938C281.871 179.523 283.386 181.141 285.636 181.141ZM285.636 179.945C284.199 179.945 283.254 178.852 283.254 176.938C283.254 175.023 284.199 173.93 285.636 173.93C287.074 173.93 288.011 175.023 288.011 176.938C288.011 178.852 287.074 179.945 285.636 179.945ZM294.695 181.141C295.867 181.141 296.797 180.562 297.32 179.625H297.344V181H298.641V169.727H297.281V174.195H297.25C296.766 173.305 295.828 172.734 294.664 172.734C292.617 172.734 291.219 174.391 291.219 176.938C291.219 179.484 292.625 181.141 294.695 181.141ZM294.953 173.93C296.352 173.93 297.289 175.125 297.289 176.938C297.289 178.758 296.352 179.945 294.953 179.945C293.516 179.945 292.609 178.781 292.609 176.938C292.609 175.102 293.516 173.93 294.953 173.93ZM304.582 173.914C305.864 173.914 306.715 174.883 306.746 176.242H302.332C302.418 174.891 303.309 173.914 304.582 173.914ZM306.715 178.672C306.489 179.438 305.731 179.961 304.7 179.961C303.239 179.961 302.325 178.938 302.325 177.383V177.305H308.153V176.789C308.153 174.328 306.801 172.734 304.606 172.734C302.364 172.734 300.926 174.445 300.926 176.969C300.926 179.523 302.34 181.141 304.668 181.141C306.442 181.141 307.817 180.094 308.051 178.672H306.715ZM310.446 181H311.805V169.727H310.446V181Z" fill="black"/>
<path d="M449.69 169.727V181H451.096V176.977H453.698C455.815 176.977 457.323 175.484 457.323 173.344C457.323 171.211 455.83 169.727 453.713 169.727H449.69ZM451.096 170.977H453.346C454.963 170.977 455.877 171.852 455.877 173.344C455.877 174.844 454.955 175.727 453.346 175.727H451.096V170.977ZM459.577 181H460.936V175.938C460.936 174.789 461.624 174.031 462.678 174.031C463.006 174.031 463.296 174.07 463.405 174.109V172.789C463.296 172.773 463.092 172.734 462.858 172.734C461.905 172.734 461.155 173.305 460.889 174.203H460.858V172.875H459.577V181ZM468.229 173.914C469.511 173.914 470.362 174.883 470.394 176.242H465.979C466.065 174.891 466.956 173.914 468.229 173.914ZM470.362 178.672C470.136 179.438 469.378 179.961 468.347 179.961C466.886 179.961 465.972 178.938 465.972 177.383V177.305H471.8V176.789C471.8 174.328 470.448 172.734 468.253 172.734C466.011 172.734 464.573 174.445 464.573 176.969C464.573 179.523 465.987 181.141 468.315 181.141C470.089 181.141 471.464 180.094 471.698 178.672H470.362ZM477.101 181.141C478.273 181.141 479.202 180.562 479.726 179.625H479.749V181H481.046V169.727H479.687V174.195H479.656C479.171 173.305 478.234 172.734 477.07 172.734C475.023 172.734 473.624 174.391 473.624 176.938C473.624 179.484 475.031 181.141 477.101 181.141ZM477.359 173.93C478.757 173.93 479.695 175.125 479.695 176.938C479.695 178.758 478.757 179.945 477.359 179.945C475.921 179.945 475.015 178.781 475.015 176.938C475.015 175.102 475.921 173.93 477.359 173.93ZM483.8 181H485.16V172.875H483.8V181ZM484.48 171.43C484.957 171.43 485.332 171.047 485.332 170.578C485.332 170.102 484.957 169.727 484.48 169.727C484.011 169.727 483.629 170.102 483.629 170.578C483.629 171.047 484.011 171.43 484.48 171.43ZM494.594 175.539C494.422 174.078 493.211 172.734 491.18 172.734C488.938 172.734 487.445 174.375 487.445 176.938C487.445 179.555 488.945 181.141 491.195 181.141C493.039 181.141 494.398 180 494.609 178.383H493.273C493.039 179.359 492.312 179.945 491.203 179.945C489.797 179.945 488.828 178.828 488.828 176.938C488.828 175.094 489.781 173.93 491.188 173.93C492.383 173.93 493.07 174.656 493.266 175.539H494.594ZM497.145 170.914V172.875H495.934V173.992H497.145V178.891C497.145 180.453 497.723 181.062 499.215 181.062C499.535 181.062 499.91 181.039 500.075 181V179.859C499.981 179.875 499.668 179.898 499.512 179.898C498.817 179.898 498.504 179.562 498.504 178.82V173.992H500.082V172.875H498.504V170.914H497.145ZM502.454 181H503.813V172.875H502.454V181ZM503.133 171.43C503.61 171.43 503.985 171.047 503.985 170.578C503.985 170.102 503.61 169.727 503.133 169.727C502.665 169.727 502.282 170.102 502.282 170.578C502.282 171.047 502.665 171.43 503.133 171.43ZM509.864 181.141C512.107 181.141 513.622 179.523 513.622 176.938C513.622 174.344 512.107 172.734 509.864 172.734C507.614 172.734 506.099 174.344 506.099 176.938C506.099 179.523 507.614 181.141 509.864 181.141ZM509.864 179.945C508.427 179.945 507.482 178.852 507.482 176.938C507.482 175.023 508.427 173.93 509.864 173.93C511.302 173.93 512.239 175.023 512.239 176.938C512.239 178.852 511.302 179.945 509.864 179.945ZM515.845 181H517.204V176.219C517.204 174.844 518.04 173.938 519.322 173.938C520.572 173.938 521.189 174.656 521.189 175.969V181H522.548V175.727C522.548 173.883 521.517 172.734 519.736 172.734C518.478 172.734 517.611 173.297 517.158 174.172H517.126V172.875H515.845V181ZM525.412 183.398L529.404 169.727H528.24L524.248 183.398H525.412ZM458.126 188.727V200H461.915C465.266 200 467.235 197.914 467.235 194.359C467.235 190.812 465.259 188.727 461.915 188.727H458.126ZM459.532 189.992H461.821C464.384 189.992 465.798 191.555 465.798 194.375C465.798 197.172 464.376 198.734 461.821 198.734H459.532V189.992ZM472.88 192.914C474.161 192.914 475.013 193.883 475.044 195.242H470.63C470.716 193.891 471.607 192.914 472.88 192.914ZM475.013 197.672C474.786 198.438 474.028 198.961 472.997 198.961C471.536 198.961 470.622 197.938 470.622 196.383V196.305H476.45V195.789C476.45 193.328 475.099 191.734 472.903 191.734C470.661 191.734 469.224 193.445 469.224 195.969C469.224 198.523 470.638 200.141 472.966 200.141C474.739 200.141 476.114 199.094 476.349 197.672H475.013ZM485.423 194.539C485.251 193.078 484.04 191.734 482.009 191.734C479.767 191.734 478.275 193.375 478.275 195.938C478.275 198.555 479.775 200.141 482.025 200.141C483.869 200.141 485.228 199 485.439 197.383H484.103C483.869 198.359 483.142 198.945 482.033 198.945C480.626 198.945 479.658 197.828 479.658 195.938C479.658 194.094 480.611 192.93 482.017 192.93C483.212 192.93 483.9 193.656 484.095 194.539H485.423ZM487.607 200H488.967V191.875H487.607V200ZM488.287 190.43C488.763 190.43 489.138 190.047 489.138 189.578C489.138 189.102 488.763 188.727 488.287 188.727C487.818 188.727 487.435 189.102 487.435 189.578C487.435 190.047 487.818 190.43 488.287 190.43ZM491.51 194.117C491.51 195.289 492.252 196 493.783 196.367L495.072 196.68C496.002 196.906 496.322 197.242 496.322 197.828C496.322 198.562 495.643 199.031 494.541 199.031C493.44 199.031 492.815 198.586 492.651 197.656H491.291C491.447 199.18 492.635 200.141 494.541 200.141C496.354 200.141 497.69 199.141 497.69 197.727C497.69 196.562 497.096 195.922 495.455 195.523L494.166 195.211C493.26 194.992 492.846 194.609 492.846 194.047C492.846 193.336 493.502 192.844 494.494 192.844C495.494 192.844 496.119 193.367 496.221 194.219H497.518C497.463 192.781 496.276 191.734 494.494 191.734C492.736 191.734 491.51 192.727 491.51 194.117ZM500.022 200H501.381V191.875H500.022V200ZM500.702 190.43C501.178 190.43 501.553 190.047 501.553 189.578C501.553 189.102 501.178 188.727 500.702 188.727C500.233 188.727 499.85 189.102 499.85 189.578C499.85 190.047 500.233 190.43 500.702 190.43ZM507.432 200.141C509.675 200.141 511.19 198.523 511.19 195.938C511.19 193.344 509.675 191.734 507.432 191.734C505.182 191.734 503.667 193.344 503.667 195.938C503.667 198.523 505.182 200.141 507.432 200.141ZM507.432 198.945C505.995 198.945 505.05 197.852 505.05 195.938C505.05 194.023 505.995 192.93 507.432 192.93C508.87 192.93 509.807 194.023 509.807 195.938C509.807 197.852 508.87 198.945 507.432 198.945ZM513.413 200H514.773V195.219C514.773 193.844 515.609 192.938 516.89 192.938C518.14 192.938 518.757 193.656 518.757 194.969V200H520.116V194.727C520.116 192.883 519.085 191.734 517.304 191.734C516.046 191.734 515.179 192.297 514.726 193.172H514.695V191.875H513.413V200Z" fill="black"/>
<path d="M140.5 129.75H140V130.75H140.5V129.75ZM234.5 130.25L229.5 127.363V133.137L234.5 130.25ZM140.5 130.75H230V129.75H140.5V130.75Z" fill="#189779"/>
<path d="M347.5 129.708H347V130.708H347.5V129.708ZM437.5 130.208L432.5 127.322V133.095L437.5 130.208ZM347.5 130.708H433V129.708H347.5V130.708Z" fill="#189779"/>
<path d="M6.47754 18V7.2334H10.2656V5.31738H0.421875V7.2334H4.21875V18H6.47754ZM11.0614 18H13.2499V12.5771C13.2499 11.2676 13.997 10.4678 15.2362 10.4678C15.6054 10.4678 15.9394 10.5205 16.1239 10.5908V8.61328C15.9657 8.57812 15.7196 8.52539 15.4384 8.52539C14.3397 8.52539 13.5224 9.17578 13.206 10.3096H13.162V8.68359H11.0614V18ZM21.3934 16.4971C20.4441 16.4971 19.8113 16.0137 19.8113 15.249C19.8113 14.5107 20.4178 14.0361 21.4725 13.9658L23.6258 13.834V14.5459C23.6258 15.6709 22.6326 16.4971 21.3934 16.4971ZM20.7342 18.1494C21.9295 18.1494 23.0984 17.5254 23.6346 16.5146H23.6785V18H25.7879V11.584C25.7879 9.71191 24.285 8.49023 21.9734 8.49023C19.6004 8.49023 18.115 9.73828 18.0184 11.4785H20.0486C20.1892 10.7051 20.8484 10.2041 21.8855 10.2041C22.9666 10.2041 23.6258 10.7666 23.6258 11.7422V12.4102L21.1648 12.5508C18.8973 12.6914 17.6228 13.6846 17.6228 15.3369C17.6228 17.0156 18.9324 18.1494 20.7342 18.1494ZM28.5612 18H30.7497V8.68359H28.5612V18ZM29.6423 7.27734C30.319 7.27734 30.8464 6.74121 30.8464 6.09082C30.8464 5.43164 30.319 4.9043 29.6423 4.9043C28.9831 4.9043 28.447 5.43164 28.447 6.09082C28.447 6.74121 28.9831 7.27734 29.6423 7.27734ZM33.5406 18H35.7291V12.6035C35.7291 11.2676 36.5289 10.3623 37.7857 10.3623C39.0338 10.3623 39.649 11.1006 39.649 12.4189V18H41.8375V11.9795C41.8375 9.82617 40.6685 8.50781 38.6119 8.50781C37.1793 8.50781 36.1861 9.17578 35.6851 10.2832H35.6412V8.68359H33.5406V18ZM44.602 18H46.7905V8.68359H44.602V18ZM45.6831 7.27734C46.3598 7.27734 46.8872 6.74121 46.8872 6.09082C46.8872 5.43164 46.3598 4.9043 45.6831 4.9043C45.0239 4.9043 44.4878 5.43164 44.4878 6.09082C44.4878 6.74121 45.0239 7.27734 45.6831 7.27734ZM49.5814 18H51.7699V12.6035C51.7699 11.2676 52.5697 10.3623 53.8265 10.3623C55.0746 10.3623 55.6898 11.1006 55.6898 12.4189V18H57.8783V11.9795C57.8783 9.82617 56.7094 8.50781 54.6527 8.50781C53.2201 8.50781 52.2269 9.17578 51.726 10.2832H51.682V8.68359H49.5814V18ZM64.7034 16.2686C63.3235 16.2686 62.4446 15.1611 62.4446 13.3154C62.4446 11.4873 63.3235 10.3271 64.7034 10.3271C66.1008 10.3271 67.0061 11.5049 67.0061 13.3154C67.0061 15.1348 66.1008 16.2686 64.7034 16.2686ZM64.6946 21.5156C67.4104 21.5156 69.1946 20.0742 69.1946 17.8506V8.68359H67.0501V10.2832H67.0149C66.4788 9.21094 65.4065 8.52539 64.0794 8.52539C61.6975 8.52539 60.2034 10.3623 60.2034 13.3066C60.2034 16.207 61.7327 18.0088 64.0354 18.0088C65.3714 18.0088 66.47 17.3408 66.9534 16.3389H67.0061V17.9121C67.0061 19.0986 66.1887 19.8984 64.7649 19.8984C63.7278 19.8984 62.928 19.415 62.6907 18.7031H60.5198C60.7395 20.3379 62.3919 21.5156 64.6946 21.5156ZM1.11621 26.3174V39H3.38379V34.8076H5.9502C8.5166 34.8076 10.3184 33.0938 10.3184 30.5625C10.3184 28.0312 8.56934 26.3174 6.04688 26.3174H1.11621ZM3.38379 28.1719H5.44922C7.0752 28.1719 8.01562 29.042 8.01562 30.5625C8.01562 32.1006 7.06641 32.9795 5.44043 32.9795H3.38379V28.1719ZM12.7753 39H14.9638V33.6475C14.9638 32.2764 15.7636 31.3623 17.0819 31.3623C18.3476 31.3623 18.9979 32.1445 18.9979 33.4453V39H21.1864V32.9971C21.1864 30.8613 19.9823 29.5078 17.9257 29.5078C16.5106 29.5078 15.4823 30.1494 14.9813 31.2832H14.9374V26.3174H12.7753V39ZM27.2996 37.4971C26.3504 37.4971 25.7176 37.0137 25.7176 36.249C25.7176 35.5107 26.324 35.0361 27.3787 34.9658L29.532 34.834V35.5459C29.532 36.6709 28.5389 37.4971 27.2996 37.4971ZM26.6404 39.1494C27.8357 39.1494 29.0047 38.5254 29.5408 37.5146H29.5848V39H31.6941V32.584C31.6941 30.7119 30.1912 29.4902 27.8797 29.4902C25.5066 29.4902 24.0213 30.7383 23.9246 32.4785H25.9549C26.0955 31.7051 26.7547 31.2041 27.7918 31.2041C28.8728 31.2041 29.532 31.7666 29.532 32.7422V33.4102L27.0711 33.5508C24.8035 33.6914 23.5291 34.6846 23.5291 36.3369C23.5291 38.0156 24.8387 39.1494 26.6404 39.1494ZM34.2477 32.3555C34.2477 33.7354 35.1442 34.6143 36.9284 35.0098L38.4753 35.3525C39.4509 35.5723 39.7849 35.8887 39.7849 36.4512C39.7849 37.1455 39.1257 37.585 38.0622 37.585C36.9548 37.585 36.3307 37.1279 36.1638 36.2227H34.0104C34.1862 38.0244 35.6276 39.1846 38.0622 39.1846C40.3474 39.1846 41.9645 37.998 41.9645 36.2402C41.9645 34.8867 41.2175 34.1396 39.2839 33.709L37.737 33.3662C36.7614 33.1465 36.3747 32.7773 36.3747 32.2412C36.3747 31.5557 37.0163 31.0986 37.9831 31.0986C38.9938 31.0986 39.6179 31.6348 39.7057 32.4785H41.7448C41.6921 30.7119 40.2507 29.4902 37.9831 29.4902C35.7331 29.4902 34.2477 30.6504 34.2477 32.3555ZM48.3326 31.1865C49.5894 31.1865 50.4332 32.1094 50.4771 33.4277H46.1265C46.2144 32.127 47.1021 31.1865 48.3326 31.1865ZM50.4859 36.2139C50.2486 36.9873 49.4752 37.4971 48.4556 37.4971C47.023 37.4971 46.109 36.4951 46.109 35.001V34.8691H52.6217V34.1572C52.6217 31.3271 50.9693 29.4902 48.3238 29.4902C45.6344 29.4902 43.9293 31.4326 43.9293 34.377C43.9293 37.3477 45.6168 39.1846 48.4117 39.1846C50.6178 39.1846 52.2525 37.9717 52.5338 36.2139H50.4859Z" fill="#189779"/>
<path d="M605 54H830C838.837 54 846 61.1634 846 70V188C846 196.837 838.837 204 830 204H605V54Z" fill="#FFF6E8"/>
<rect x="605" y="54" width="5" height="150" fill="#FFCD7A"/>
<path d="M705.946 159.036H707.423L703.266 147.763H701.876L697.72 159.036H699.196L700.329 155.81H704.813L705.946 159.036ZM702.548 149.474H702.595L704.399 154.615H700.743L702.548 149.474ZM715.943 153.575C715.771 152.115 714.56 150.771 712.528 150.771C710.286 150.771 708.794 152.411 708.794 154.974C708.794 157.591 710.294 159.177 712.544 159.177C714.388 159.177 715.747 158.036 715.958 156.419H714.622C714.388 157.396 713.661 157.982 712.552 157.982C711.146 157.982 710.177 156.865 710.177 154.974C710.177 153.13 711.13 151.966 712.536 151.966C713.732 151.966 714.419 152.693 714.614 153.575H715.943ZM724.806 153.575C724.634 152.115 723.423 150.771 721.392 150.771C719.15 150.771 717.658 152.411 717.658 154.974C717.658 157.591 719.158 159.177 721.408 159.177C723.251 159.177 724.611 158.036 724.822 156.419H723.486C723.251 157.396 722.525 157.982 721.416 157.982C720.009 157.982 719.041 156.865 719.041 154.974C719.041 153.13 719.994 151.966 721.4 151.966C722.595 151.966 723.283 152.693 723.478 153.575H724.806ZM733.592 150.911H732.232V155.685C732.232 157.068 731.435 157.974 730.115 157.974C728.857 157.974 728.24 157.263 728.24 155.943V150.911H726.881V156.185C726.881 158.029 727.92 159.177 729.693 159.177C730.943 159.177 731.787 158.654 732.271 157.716H732.303V159.036H733.592V150.911ZM736.205 159.036H737.565V153.974C737.565 152.825 738.252 152.068 739.307 152.068C739.635 152.068 739.924 152.107 740.033 152.146V150.825C739.924 150.81 739.721 150.771 739.486 150.771C738.533 150.771 737.783 151.341 737.518 152.24H737.486V150.911H736.205V159.036ZM744.514 158.021C743.538 158.021 742.889 157.513 742.889 156.74C742.889 155.974 743.514 155.49 744.608 155.419L746.78 155.286V155.95C746.78 157.122 745.795 158.021 744.514 158.021ZM744.209 159.177C745.303 159.177 746.334 158.568 746.819 157.638H746.85V159.036H748.139V153.419C748.139 151.802 746.936 150.771 745.03 150.771C743.108 150.771 741.905 151.849 741.811 153.255H743.124C743.295 152.458 743.952 151.966 744.999 151.966C746.124 151.966 746.78 152.56 746.78 153.552V154.232L744.452 154.365C742.577 154.474 741.506 155.349 741.506 156.74C741.506 158.2 742.592 159.177 744.209 159.177ZM757.464 153.575C757.292 152.115 756.081 150.771 754.05 150.771C751.807 150.771 750.315 152.411 750.315 154.974C750.315 157.591 751.815 159.177 754.065 159.177C755.909 159.177 757.268 158.036 757.479 156.419H756.143C755.909 157.396 755.182 157.982 754.073 157.982C752.667 157.982 751.698 156.865 751.698 154.974C751.698 153.13 752.651 151.966 754.057 151.966C755.253 151.966 755.94 152.693 756.136 153.575H757.464ZM760.257 162.075C761.726 162.075 762.398 161.505 763.093 159.607L766.288 150.911H764.859L762.609 157.677H762.585L760.335 150.911H758.882L761.882 159.044L761.695 159.615C761.382 160.56 760.96 160.927 760.202 160.927C760.031 160.927 759.82 160.919 759.671 160.888V162.029C759.82 162.06 760.093 162.075 760.257 162.075Z" fill="black"/>
<path d="M671.036 116.599V130.691H673.555V126.033H676.407C679.259 126.033 681.261 124.128 681.261 121.316C681.261 118.503 679.317 116.599 676.514 116.599H671.036ZM673.555 118.66H675.85C677.657 118.66 678.702 119.626 678.702 121.316C678.702 123.025 677.647 124.001 675.841 124.001H673.555V118.66ZM687.994 122.009C689.391 122.009 690.328 123.035 690.377 124.5H685.543C685.641 123.054 686.627 122.009 687.994 122.009ZM690.387 127.595C690.123 128.455 689.264 129.021 688.131 129.021C686.539 129.021 685.524 127.908 685.524 126.248V126.101H692.76V125.31C692.76 122.166 690.924 120.125 687.985 120.125C684.996 120.125 683.102 122.283 683.102 125.554C683.102 128.855 684.977 130.896 688.082 130.896C690.533 130.896 692.35 129.548 692.662 127.595H690.387ZM695.392 130.691H697.824V124.666C697.824 123.21 698.654 122.322 700.031 122.322C700.441 122.322 700.812 122.38 701.017 122.458V120.261C700.841 120.222 700.568 120.164 700.256 120.164C699.035 120.164 698.127 120.886 697.775 122.146H697.726V120.339H695.392V130.691ZM704.04 130.691H706.472V122.214H708.503V120.369H706.433V119.519C706.433 118.679 706.853 118.24 707.78 118.24C708.064 118.24 708.347 118.269 708.552 118.298V116.599C708.249 116.541 707.722 116.492 707.243 116.492C704.997 116.492 704.04 117.439 704.04 119.451V120.369H702.624V122.214H704.04V130.691ZM715.374 130.896C718.411 130.896 720.383 128.875 720.383 125.515C720.383 122.166 718.391 120.125 715.374 120.125C712.356 120.125 710.364 122.175 710.364 125.515C710.364 128.875 712.336 130.896 715.374 130.896ZM715.374 128.972C713.831 128.972 712.835 127.722 712.835 125.515C712.835 123.318 713.84 122.058 715.374 122.058C716.917 122.058 717.913 123.318 717.913 125.515C717.913 127.722 716.917 128.972 715.374 128.972ZM723.006 130.691H725.438V124.666C725.438 123.21 726.268 122.322 727.645 122.322C728.055 122.322 728.426 122.38 728.631 122.458V120.261C728.455 120.222 728.182 120.164 727.869 120.164C726.648 120.164 725.74 120.886 725.389 122.146H725.34V120.339H723.006V130.691ZM730.941 130.691H733.373V124.353C733.373 123.103 734.193 122.195 735.365 122.195C736.498 122.195 737.201 122.908 737.201 124.06V130.691H739.564V124.294C739.564 123.054 740.365 122.195 741.537 122.195C742.728 122.195 743.392 122.917 743.392 124.187V130.691H745.824V123.591C745.824 121.521 744.486 120.144 742.445 120.144C740.951 120.144 739.72 120.945 739.222 122.224H739.164C738.783 120.896 737.738 120.144 736.273 120.144C734.867 120.144 733.773 120.935 733.324 122.136H733.275V120.339H730.941V130.691ZM752.616 129.021C751.561 129.021 750.858 128.484 750.858 127.634C750.858 126.814 751.532 126.287 752.704 126.208L755.097 126.062V126.853C755.097 128.103 753.993 129.021 752.616 129.021ZM751.884 130.857C753.212 130.857 754.511 130.164 755.106 129.041H755.155V130.691H757.499V123.562C757.499 121.482 755.829 120.125 753.261 120.125C750.624 120.125 748.974 121.511 748.866 123.445H751.122C751.278 122.585 752.011 122.029 753.163 122.029C754.364 122.029 755.097 122.654 755.097 123.738V124.48L752.362 124.636C749.843 124.792 748.427 125.896 748.427 127.732C748.427 129.597 749.882 130.857 751.884 130.857ZM760.522 130.691H762.953V124.695C762.953 123.21 763.842 122.205 765.239 122.205C766.625 122.205 767.309 123.025 767.309 124.49V130.691H769.741V124.001C769.741 121.609 768.442 120.144 766.157 120.144C764.565 120.144 763.461 120.886 762.905 122.117H762.856V120.339H760.522V130.691ZM781.875 124.031C781.709 121.853 780.019 120.125 777.285 120.125C774.277 120.125 772.324 122.205 772.324 125.515C772.324 128.875 774.277 130.896 777.304 130.896C779.902 130.896 781.689 129.373 781.885 127.058H779.59C779.365 128.23 778.564 128.933 777.334 128.933C775.791 128.933 774.795 127.683 774.795 125.515C774.795 123.386 775.781 122.097 777.314 122.097C778.613 122.097 779.385 122.927 779.58 124.031H781.875ZM788.863 122.009C790.259 122.009 791.196 123.035 791.245 124.5H786.411C786.509 123.054 787.495 122.009 788.863 122.009ZM791.255 127.595C790.991 128.455 790.132 129.021 788.999 129.021C787.407 129.021 786.392 127.908 786.392 126.248V126.101H793.628V125.31C793.628 122.166 791.792 120.125 788.853 120.125C785.864 120.125 783.97 122.283 783.97 125.554C783.97 128.855 785.845 130.896 788.95 130.896C791.402 130.896 793.218 129.548 793.53 127.595H791.255Z" fill="black"/>
<path d="M250.852 92H252.297V84.5542H254.057V83.3672H252.288V82.4126C252.288 81.5576 252.662 81.1426 253.442 81.1426C253.683 81.1426 253.924 81.1675 254.098 81.1924V80.022C253.891 79.9888 253.542 79.9556 253.218 79.9556C251.624 79.9556 250.852 80.7441 250.852 82.4043V83.3672H249.649V84.5542H250.852V92ZM256.526 92H257.971V83.3672H256.526V92ZM257.249 81.8315C257.755 81.8315 258.153 81.4248 258.153 80.9268C258.153 80.4204 257.755 80.022 257.249 80.022C256.75 80.022 256.344 80.4204 256.344 80.9268C256.344 81.4248 256.75 81.8315 257.249 81.8315ZM261.287 81.2837V83.3672H260.001V84.5542H261.287V89.7588C261.287 91.4189 261.901 92.0664 263.487 92.0664C263.827 92.0664 264.226 92.0415 264.4 92V90.7881C264.3 90.8047 263.968 90.8296 263.802 90.8296C263.064 90.8296 262.732 90.4727 262.732 89.6841V84.5542H264.408V83.3672H262.732V81.2837H261.287ZM271.705 81.2837V83.3672H270.419V84.5542H271.705V89.7588C271.705 91.4189 272.32 92.0664 273.905 92.0664C274.245 92.0664 274.644 92.0415 274.818 92V90.7881C274.719 90.8047 274.387 90.8296 274.221 90.8296C273.482 90.8296 273.15 90.4727 273.15 89.6841V84.5542H274.827V83.3672H273.15V81.2837H271.705ZM280.6 92.1494C282.982 92.1494 284.593 90.4312 284.593 87.6836C284.593 84.9277 282.982 83.2178 280.6 83.2178C278.209 83.2178 276.599 84.9277 276.599 87.6836C276.599 90.4312 278.209 92.1494 280.6 92.1494ZM280.6 90.8794C279.073 90.8794 278.068 89.7173 278.068 87.6836C278.068 85.6499 279.073 84.4878 280.6 84.4878C282.127 84.4878 283.124 85.6499 283.124 87.6836C283.124 89.7173 282.127 90.8794 280.6 90.8794ZM294.613 92.1494C295.858 92.1494 296.845 91.5352 297.402 90.5391H297.427V92H298.804V80.022H297.36V84.77H297.327C296.812 83.8237 295.816 83.2178 294.579 83.2178C292.405 83.2178 290.919 84.9775 290.919 87.6836C290.919 90.3896 292.413 92.1494 294.613 92.1494ZM294.886 84.4878C296.372 84.4878 297.368 85.7578 297.368 87.6836C297.368 89.6177 296.372 90.8794 294.886 90.8794C293.359 90.8794 292.396 89.6426 292.396 87.6836C292.396 85.7329 293.359 84.4878 294.886 84.4878ZM304.503 90.9209C303.466 90.9209 302.777 90.3813 302.777 89.5596C302.777 88.7461 303.441 88.2314 304.603 88.1567L306.911 88.0156V88.7212C306.911 89.9663 305.865 90.9209 304.503 90.9209ZM304.18 92.1494C305.342 92.1494 306.437 91.502 306.952 90.5142H306.985V92H308.355V86.0317C308.355 84.3135 307.077 83.2178 305.051 83.2178C303.009 83.2178 301.731 84.3633 301.631 85.8574H303.026C303.208 85.0107 303.906 84.4878 305.018 84.4878C306.213 84.4878 306.911 85.1187 306.911 86.1729V86.895L304.437 87.0361C302.445 87.1523 301.307 88.082 301.307 89.5596C301.307 91.1118 302.461 92.1494 304.18 92.1494ZM311.555 81.2837V83.3672H310.269V84.5542H311.555V89.7588C311.555 91.4189 312.169 92.0664 313.755 92.0664C314.095 92.0664 314.494 92.0415 314.668 92V90.7881C314.568 90.8047 314.236 90.8296 314.07 90.8296C313.332 90.8296 313 90.4727 313 89.6841V84.5542H314.676V83.3672H313V81.2837H311.555ZM319.802 90.9209C318.765 90.9209 318.076 90.3813 318.076 89.5596C318.076 88.7461 318.74 88.2314 319.902 88.1567L322.21 88.0156V88.7212C322.21 89.9663 321.164 90.9209 319.802 90.9209ZM319.479 92.1494C320.641 92.1494 321.736 91.502 322.251 90.5142H322.284V92H323.654V86.0317C323.654 84.3135 322.376 83.2178 320.35 83.2178C318.308 83.2178 317.03 84.3633 316.93 85.8574H318.325C318.507 85.0107 319.205 84.4878 320.317 84.4878C321.512 84.4878 322.21 85.1187 322.21 86.1729V86.895L319.736 87.0361C317.744 87.1523 316.607 88.082 316.607 89.5596C316.607 91.1118 317.76 92.1494 319.479 92.1494Z" fill="#189779"/>
<path d="M612.251 17L616.663 4.31738H614.22L611.003 14.5654H610.95L607.733 4.31738H605.237L609.649 17H612.251ZM620.887 15.4971C619.937 15.4971 619.305 15.0137 619.305 14.249C619.305 13.5107 619.911 13.0361 620.966 12.9658L623.119 12.834V13.5459C623.119 14.6709 622.126 15.4971 620.887 15.4971ZM620.227 17.1494C621.423 17.1494 622.592 16.5254 623.128 15.5146H623.172V17H625.281V10.584C625.281 8.71191 623.778 7.49023 621.467 7.49023C619.094 7.49023 617.608 8.73828 617.512 10.4785H619.542C619.683 9.70508 620.342 9.2041 621.379 9.2041C622.46 9.2041 623.119 9.7666 623.119 10.7422V11.4102L620.658 11.5508C618.391 11.6914 617.116 12.6846 617.116 14.3369C617.116 16.0156 618.426 17.1494 620.227 17.1494ZM628.063 17H630.252V4.31738H628.063V17ZM633.122 17H635.31V7.68359H633.122V17ZM634.203 6.27734C634.88 6.27734 635.407 5.74121 635.407 5.09082C635.407 4.43164 634.88 3.9043 634.203 3.9043C633.544 3.9043 633.008 4.43164 633.008 5.09082C633.008 5.74121 633.544 6.27734 634.203 6.27734ZM641.582 17.1494C642.944 17.1494 644.016 16.4551 644.526 15.4092H644.561V17H646.706V4.31738H644.517V9.24805H644.464C643.972 8.21973 642.918 7.52539 641.582 7.52539C639.235 7.52539 637.714 9.38867 637.714 12.333C637.714 15.2949 639.235 17.1494 641.582 17.1494ZM642.241 9.32715C643.621 9.32715 644.526 10.5137 644.526 12.3418C644.526 14.1875 643.621 15.3564 642.241 15.3564C640.826 15.3564 639.956 14.1963 639.956 12.3418C639.956 10.4961 640.835 9.32715 642.241 9.32715ZM652.898 15.4971C651.949 15.4971 651.316 15.0137 651.316 14.249C651.316 13.5107 651.922 13.0361 652.977 12.9658L655.13 12.834V13.5459C655.13 14.6709 654.137 15.4971 652.898 15.4971ZM652.239 17.1494C653.434 17.1494 654.603 16.5254 655.139 15.5146H655.183V17H657.292V10.584C657.292 8.71191 655.79 7.49023 653.478 7.49023C651.105 7.49023 649.62 8.73828 649.523 10.4785H651.553C651.694 9.70508 652.353 9.2041 653.39 9.2041C654.471 9.2041 655.13 9.7666 655.13 10.7422V11.4102L652.669 11.5508C650.402 11.6914 649.127 12.6846 649.127 14.3369C649.127 16.0156 650.437 17.1494 652.239 17.1494ZM660.62 5.50391V7.68359H659.284V9.37109H660.62V14.5215C660.62 16.332 661.411 17.0439 663.423 17.0439C663.889 17.0439 664.32 17.0088 664.557 16.9561V15.2861C664.416 15.3125 664.135 15.3301 663.933 15.3301C663.16 15.3301 662.808 14.9785 662.808 14.2139V9.37109H664.566V7.68359H662.808V5.50391H660.62ZM667.067 17H669.255V7.68359H667.067V17ZM668.148 6.27734C668.824 6.27734 669.352 5.74121 669.352 5.09082C669.352 4.43164 668.824 3.9043 668.148 3.9043C667.489 3.9043 666.952 4.43164 666.952 5.09082C666.952 5.74121 667.489 6.27734 668.148 6.27734ZM676.168 17.1846C678.902 17.1846 680.677 15.3652 680.677 12.3418C680.677 9.32715 678.884 7.49023 676.168 7.49023C673.452 7.49023 671.659 9.33594 671.659 12.3418C671.659 15.3652 673.435 17.1846 676.168 17.1846ZM676.168 15.4531C674.779 15.4531 673.883 14.3281 673.883 12.3418C673.883 10.3643 674.788 9.23047 676.168 9.23047C677.557 9.23047 678.453 10.3643 678.453 12.3418C678.453 14.3281 677.557 15.4531 676.168 15.4531ZM683.037 17H685.226V11.6035C685.226 10.2676 686.025 9.3623 687.282 9.3623C688.53 9.3623 689.146 10.1006 689.146 11.4189V17H691.334V10.9795C691.334 8.82617 690.165 7.50781 688.108 7.50781C686.676 7.50781 685.683 8.17578 685.182 9.2832H685.138V7.68359H683.037V17ZM606.116 25.3174V38H608.384V33.8076H610.95C613.517 33.8076 615.318 32.0938 615.318 29.5625C615.318 27.0312 613.569 25.3174 611.047 25.3174H606.116ZM608.384 27.1719H610.449C612.075 27.1719 613.016 28.042 613.016 29.5625C613.016 31.1006 612.066 31.9795 610.44 31.9795H608.384V27.1719ZM617.775 38H619.964V32.6475C619.964 31.2764 620.764 30.3623 622.082 30.3623C623.348 30.3623 623.998 31.1445 623.998 32.4453V38H626.186V31.9971C626.186 29.8613 624.982 28.5078 622.926 28.5078C621.511 28.5078 620.482 29.1494 619.981 30.2832H619.937V25.3174H617.775V38ZM632.3 36.4971C631.35 36.4971 630.718 36.0137 630.718 35.249C630.718 34.5107 631.324 34.0361 632.379 33.9658L634.532 33.834V34.5459C634.532 35.6709 633.539 36.4971 632.3 36.4971ZM631.64 38.1494C632.836 38.1494 634.005 37.5254 634.541 36.5146H634.585V38H636.694V31.584C636.694 29.7119 635.191 28.4902 632.88 28.4902C630.507 28.4902 629.021 29.7383 628.925 31.4785H630.955C631.095 30.7051 631.755 30.2041 632.792 30.2041C633.873 30.2041 634.532 30.7666 634.532 31.7422V32.4102L632.071 32.5508C629.804 32.6914 628.529 33.6846 628.529 35.3369C628.529 37.0156 629.839 38.1494 631.64 38.1494ZM639.248 31.3555C639.248 32.7354 640.144 33.6143 641.928 34.0098L643.475 34.3525C644.451 34.5723 644.785 34.8887 644.785 35.4512C644.785 36.1455 644.126 36.585 643.062 36.585C641.955 36.585 641.331 36.1279 641.164 35.2227H639.01C639.186 37.0244 640.628 38.1846 643.062 38.1846C645.347 38.1846 646.965 36.998 646.965 35.2402C646.965 33.8867 646.217 33.1396 644.284 32.709L642.737 32.3662C641.761 32.1465 641.375 31.7773 641.375 31.2412C641.375 30.5557 642.016 30.0986 642.983 30.0986C643.994 30.0986 644.618 30.6348 644.706 31.4785H646.745C646.692 29.7119 645.251 28.4902 642.983 28.4902C640.733 28.4902 639.248 29.6504 639.248 31.3555ZM653.333 30.1865C654.589 30.1865 655.433 31.1094 655.477 32.4277H651.127C651.214 31.127 652.102 30.1865 653.333 30.1865ZM655.486 35.2139C655.249 35.9873 654.475 36.4971 653.456 36.4971C652.023 36.4971 651.109 35.4951 651.109 34.001V33.8691H657.622V33.1572C657.622 30.3271 655.969 28.4902 653.324 28.4902C650.634 28.4902 648.929 30.4326 648.929 33.377C648.929 36.3477 650.617 38.1846 653.412 38.1846C655.618 38.1846 657.253 36.9717 657.534 35.2139H655.486Z" fill="#B97C18"/>
<path d="M290.5 198C290.5 197.724 290.276 197.5 290 197.5C289.724 197.5 289.5 197.724 289.5 198H290.5ZM290 256H289.5C289.5 256.276 289.724 256.5 290 256.5V256ZM727 256V256.5C727.133 256.5 727.261 256.447 727.355 256.352C727.449 256.258 727.501 256.13 727.5 255.996L727 256ZM726.579 198L723.729 203.021L729.502 202.979L726.579 198ZM289.5 198V256H290.5V198H289.5ZM290 256.5H727V255.5H290V256.5ZM727.5 255.996L727.112 202.496L726.112 202.504L726.5 256.004L727.5 255.996Z" fill="#D8D8D8"/>
<g filter="url(#filter0_d)">
<rect x="427" y="232" width="152" height="48" fill="#F2F2F2"/>
</g>
<path d="M455.82 252H457.18V246.906C457.18 245.781 457.961 244.938 459.039 244.938C460.047 244.938 460.703 245.578 460.703 246.555V252H462.063V246.836C462.063 245.734 462.82 244.938 463.899 244.938C464.969 244.938 465.586 245.594 465.586 246.703V252H466.945V246.391C466.945 244.781 465.906 243.734 464.297 243.734C463.156 243.734 462.203 244.312 461.75 245.281H461.719C461.367 244.297 460.547 243.734 459.438 243.734C458.344 243.734 457.516 244.312 457.133 245.172H457.102V243.875H455.82V252ZM472.786 244.914C474.067 244.914 474.918 245.883 474.95 247.242H470.536C470.622 245.891 471.512 244.914 472.786 244.914ZM474.918 249.672C474.692 250.438 473.934 250.961 472.903 250.961C471.442 250.961 470.528 249.938 470.528 248.383V248.305H476.356V247.789C476.356 245.328 475.004 243.734 472.809 243.734C470.567 243.734 469.129 245.445 469.129 247.969C469.129 250.523 470.543 252.141 472.872 252.141C474.645 252.141 476.02 251.094 476.254 249.672H474.918ZM481.259 250.984C480.282 250.984 479.634 250.477 479.634 249.703C479.634 248.938 480.259 248.453 481.352 248.383L483.524 248.25V248.914C483.524 250.086 482.54 250.984 481.259 250.984ZM480.954 252.141C482.048 252.141 483.079 251.531 483.563 250.602H483.595V252H484.884V246.383C484.884 244.766 483.68 243.734 481.774 243.734C479.852 243.734 478.649 244.812 478.555 246.219H479.868C480.04 245.422 480.696 244.93 481.743 244.93C482.868 244.93 483.524 245.523 483.524 246.516V247.195L481.196 247.328C479.321 247.438 478.251 248.312 478.251 249.703C478.251 251.164 479.337 252.141 480.954 252.141ZM487.318 246.117C487.318 247.289 488.06 248 489.591 248.367L490.88 248.68C491.81 248.906 492.13 249.242 492.13 249.828C492.13 250.562 491.45 251.031 490.349 251.031C489.247 251.031 488.622 250.586 488.458 249.656H487.099C487.255 251.18 488.443 252.141 490.349 252.141C492.161 252.141 493.497 251.141 493.497 249.727C493.497 248.562 492.903 247.922 491.263 247.523L489.974 247.211C489.068 246.992 488.653 246.609 488.653 246.047C488.653 245.336 489.31 244.844 490.302 244.844C491.302 244.844 491.927 245.367 492.028 246.219H493.325C493.271 244.781 492.083 243.734 490.302 243.734C488.544 243.734 487.318 244.727 487.318 246.117ZM502.431 243.875H501.072V248.648C501.072 250.031 500.275 250.938 498.955 250.938C497.697 250.938 497.08 250.227 497.08 248.906V243.875H495.72V249.148C495.72 250.992 496.759 252.141 498.533 252.141C499.783 252.141 500.626 251.617 501.111 250.68H501.142V252H502.431V243.875ZM505.045 252H506.404V246.938C506.404 245.789 507.092 245.031 508.146 245.031C508.474 245.031 508.764 245.07 508.873 245.109V243.789C508.764 243.773 508.56 243.734 508.326 243.734C507.373 243.734 506.623 244.305 506.357 245.203H506.326V243.875H505.045V252ZM513.697 244.914C514.979 244.914 515.83 245.883 515.861 247.242H511.447C511.533 245.891 512.424 244.914 513.697 244.914ZM515.83 249.672C515.604 250.438 514.846 250.961 513.815 250.961C512.354 250.961 511.44 249.938 511.44 248.383V248.305H517.268V247.789C517.268 245.328 515.916 243.734 513.721 243.734C511.479 243.734 510.041 245.445 510.041 247.969C510.041 250.523 511.455 252.141 513.783 252.141C515.557 252.141 516.932 251.094 517.166 249.672H515.83ZM522.569 252.141C523.741 252.141 524.67 251.562 525.194 250.625H525.217V252H526.514V240.727H525.155V245.195H525.124C524.639 244.305 523.702 243.734 522.538 243.734C520.491 243.734 519.092 245.391 519.092 247.938C519.092 250.484 520.499 252.141 522.569 252.141ZM522.827 244.93C524.225 244.93 525.163 246.125 525.163 247.938C525.163 249.758 524.225 250.945 522.827 250.945C521.389 250.945 520.483 249.781 520.483 247.938C520.483 246.102 521.389 244.93 522.827 244.93ZM537.366 252.141C539.445 252.141 540.82 250.492 540.82 247.938C540.82 245.391 539.437 243.734 537.39 243.734C536.241 243.734 535.296 244.305 534.788 245.234H534.757V240.727H533.398V252H534.695V250.625H534.726C535.249 251.562 536.179 252.141 537.366 252.141ZM537.101 244.93C538.538 244.93 539.429 246.094 539.429 247.938C539.429 249.797 538.538 250.945 537.101 250.945C535.726 250.945 534.749 249.75 534.749 247.938C534.749 246.133 535.726 244.93 537.101 244.93ZM543.496 255.039C544.964 255.039 545.636 254.469 546.332 252.57L549.527 243.875H548.097L545.847 250.641H545.824L543.574 243.875H542.121L545.121 252.008L544.933 252.578C544.621 253.523 544.199 253.891 543.441 253.891C543.269 253.891 543.058 253.883 542.91 253.852V254.992C543.058 255.023 543.332 255.039 543.496 255.039ZM444.378 262.875H442.964L440.714 269.555H440.683L438.44 262.875H437.011L440.003 271H441.394L444.378 262.875ZM448.82 269.984C447.843 269.984 447.195 269.477 447.195 268.703C447.195 267.938 447.82 267.453 448.913 267.383L451.085 267.25V267.914C451.085 269.086 450.101 269.984 448.82 269.984ZM448.515 271.141C449.609 271.141 450.64 270.531 451.124 269.602H451.156V271H452.445V265.383C452.445 263.766 451.242 262.734 449.335 262.734C447.413 262.734 446.21 263.812 446.117 265.219H447.429C447.601 264.422 448.257 263.93 449.304 263.93C450.429 263.93 451.085 264.523 451.085 265.516V266.195L448.757 266.328C446.882 266.438 445.812 267.312 445.812 268.703C445.812 270.164 446.898 271.141 448.515 271.141ZM455.09 271H456.449V259.727H455.09V271ZM459.203 271H460.563V262.875H459.203V271ZM459.883 261.43C460.359 261.43 460.734 261.047 460.734 260.578C460.734 260.102 460.359 259.727 459.883 259.727C459.414 259.727 459.031 260.102 459.031 260.578C459.031 261.047 459.414 261.43 459.883 261.43ZM466.325 271.141C467.496 271.141 468.426 270.562 468.95 269.625H468.973V271H470.27V259.727H468.911V264.195H468.879C468.395 263.305 467.457 262.734 466.293 262.734C464.246 262.734 462.848 264.391 462.848 266.938C462.848 269.484 464.254 271.141 466.325 271.141ZM466.582 263.93C467.981 263.93 468.918 265.125 468.918 266.938C468.918 268.758 467.981 269.945 466.582 269.945C465.145 269.945 464.239 268.781 464.239 266.938C464.239 265.102 465.145 263.93 466.582 263.93ZM475.634 269.984C474.657 269.984 474.009 269.477 474.009 268.703C474.009 267.938 474.634 267.453 475.727 267.383L477.899 267.25V267.914C477.899 269.086 476.915 269.984 475.634 269.984ZM475.329 271.141C476.423 271.141 477.454 270.531 477.938 269.602H477.969V271H479.259V265.383C479.259 263.766 478.055 262.734 476.149 262.734C474.227 262.734 473.024 263.812 472.93 265.219H474.243C474.415 264.422 475.071 263.93 476.118 263.93C477.243 263.93 477.899 264.523 477.899 265.516V266.195L475.571 266.328C473.696 266.438 472.626 267.312 472.626 268.703C472.626 270.164 473.712 271.141 475.329 271.141ZM482.271 260.914V262.875H481.06V263.992H482.271V268.891C482.271 270.453 482.849 271.062 484.341 271.062C484.661 271.062 485.036 271.039 485.2 271V269.859C485.107 269.875 484.794 269.898 484.638 269.898C483.942 269.898 483.63 269.562 483.63 268.82V263.992H485.208V262.875H483.63V260.914H482.271ZM487.58 271H488.939V262.875H487.58V271ZM488.259 261.43C488.736 261.43 489.111 261.047 489.111 260.578C489.111 260.102 488.736 259.727 488.259 259.727C487.791 259.727 487.408 260.102 487.408 260.578C487.408 261.047 487.791 261.43 488.259 261.43ZM494.99 271.141C497.232 271.141 498.748 269.523 498.748 266.938C498.748 264.344 497.232 262.734 494.99 262.734C492.74 262.734 491.224 264.344 491.224 266.938C491.224 269.523 492.74 271.141 494.99 271.141ZM494.99 269.945C493.553 269.945 492.607 268.852 492.607 266.938C492.607 265.023 493.553 263.93 494.99 263.93C496.428 263.93 497.365 265.023 497.365 266.938C497.365 268.852 496.428 269.945 494.99 269.945ZM500.971 271H502.33V266.219C502.33 264.844 503.166 263.938 504.447 263.938C505.697 263.938 506.315 264.656 506.315 265.969V271H507.674V265.727C507.674 263.883 506.643 262.734 504.861 262.734C503.604 262.734 502.736 263.297 502.283 264.172H502.252V262.875H500.971V271ZM517.464 271.141C518.636 271.141 519.565 270.562 520.089 269.625H520.112V271H521.409V259.727H520.05V264.195H520.018C519.534 263.305 518.597 262.734 517.432 262.734C515.386 262.734 513.987 264.391 513.987 266.938C513.987 269.484 515.393 271.141 517.464 271.141ZM517.722 263.93C519.12 263.93 520.057 265.125 520.057 266.938C520.057 268.758 519.12 269.945 517.722 269.945C516.284 269.945 515.378 268.781 515.378 266.938C515.378 265.102 516.284 263.93 517.722 263.93ZM526.773 269.984C525.796 269.984 525.148 269.477 525.148 268.703C525.148 267.938 525.773 267.453 526.866 267.383L529.038 267.25V267.914C529.038 269.086 528.054 269.984 526.773 269.984ZM526.468 271.141C527.562 271.141 528.593 270.531 529.077 269.602H529.109V271H530.398V265.383C530.398 263.766 529.195 262.734 527.288 262.734C525.366 262.734 524.163 263.812 524.07 265.219H525.382C525.554 264.422 526.21 263.93 527.257 263.93C528.382 263.93 529.038 264.523 529.038 265.516V266.195L526.71 266.328C524.835 266.438 523.765 267.312 523.765 268.703C523.765 270.164 524.851 271.141 526.468 271.141ZM533.41 260.914V262.875H532.199V263.992H533.41V268.891C533.41 270.453 533.988 271.062 535.48 271.062C535.8 271.062 536.175 271.039 536.339 271V269.859C536.246 269.875 535.933 269.898 535.777 269.898C535.082 269.898 534.769 269.562 534.769 268.82V263.992H536.347V262.875H534.769V260.914H533.41ZM541.172 269.984C540.195 269.984 539.547 269.477 539.547 268.703C539.547 267.938 540.172 267.453 541.266 267.383L543.437 267.25V267.914C543.437 269.086 542.453 269.984 541.172 269.984ZM540.867 271.141C541.961 271.141 542.992 270.531 543.477 269.602H543.508V271H544.797V265.383C544.797 263.766 543.594 262.734 541.687 262.734C539.766 262.734 538.562 263.812 538.469 265.219H539.781C539.953 264.422 540.609 263.93 541.656 263.93C542.781 263.93 543.437 264.523 543.437 265.516V266.195L541.109 266.328C539.234 266.438 538.164 267.312 538.164 268.703C538.164 270.164 539.25 271.141 540.867 271.141ZM547.231 265.117C547.231 266.289 547.973 267 549.504 267.367L550.793 267.68C551.723 267.906 552.043 268.242 552.043 268.828C552.043 269.562 551.364 270.031 550.262 270.031C549.16 270.031 548.535 269.586 548.371 268.656H547.012C547.168 270.18 548.356 271.141 550.262 271.141C552.075 271.141 553.41 270.141 553.41 268.727C553.41 267.562 552.817 266.922 551.176 266.523L549.887 266.211C548.981 265.992 548.567 265.609 548.567 265.047C548.567 264.336 549.223 263.844 550.215 263.844C551.215 263.844 551.84 264.367 551.942 265.219H553.239C553.184 263.781 551.996 262.734 550.215 262.734C548.457 262.734 547.231 263.727 547.231 265.117ZM558.93 263.914C560.212 263.914 561.063 264.883 561.094 266.242H556.68C556.766 264.891 557.657 263.914 558.93 263.914ZM561.063 268.672C560.837 269.438 560.079 269.961 559.048 269.961C557.587 269.961 556.673 268.938 556.673 267.383V267.305H562.501V266.789C562.501 264.328 561.149 262.734 558.954 262.734C556.712 262.734 555.274 264.445 555.274 266.969C555.274 269.523 556.688 271.141 559.016 271.141C560.79 271.141 562.165 270.094 562.399 268.672H561.063ZM565.161 260.914V262.875H563.95V263.992H565.161V268.891C565.161 270.453 565.739 271.062 567.231 271.062C567.552 271.062 567.927 271.039 568.091 271V269.859C567.997 269.875 567.685 269.898 567.528 269.898C566.833 269.898 566.521 269.562 566.521 268.82V263.992H568.099V262.875H566.521V260.914H565.161Z" fill="#6D6D6D"/>
<defs>
<filter id="filter0_d" x="423" y="230" width="160" height="56" filterUnits="userSpaceOnUse" color-interpolation-filters="sRGB">
<feFlood flood-opacity="0" result="BackgroundImageFix"/>
<feColorMatrix in="SourceAlpha" type="matrix" values="0 0 0 0 0 0 0 0 0 0 0 0 0 0 0 0 0 0 127 0"/>
<feOffset dy="2"/>
<feGaussianBlur stdDeviation="2"/>
<feColorMatrix type="matrix" values="0 0 0 0 0.692389 0 0 0 0 0.692389 0 0 0 0 0.692389 0 0 0 0.5 0"/>
<feBlend mode="normal" in2="BackgroundImageFix" result="effect1_dropShadow"/>
<feBlend mode="normal" in="SourceGraphic" in2="effect1_dropShadow" result="shape"/>
</filter>
</defs>
</svg>
