<svg width="18" height="15" viewBox="0 0 18 15" fill="none" xmlns="http://www.w3.org/2000/svg">
<rect x="4.28571" y="3.57143" width="8.57143" height="8.57143" rx="2" fill="#CDB19A"/>
<path d="M14.1971 0H11.7934C11.5156 0 11.2903 0.225273 11.2903 0.503142C11.2903 0.78101 11.5156 1.00628 11.7934 1.00628H14.1971C14.6658 1.00628 15.0471 1.3876 15.0471 1.85629V4.25994C15.0471 4.5378 15.2723 4.76308 15.5502 4.76308C15.8281 4.76308 16.0534 4.5378 16.0534 4.25994V1.85629C16.0534 0.832733 15.2206 0 14.1971 0V0Z" fill="#825B46"/>
<path d="M1.55661 4.76308C1.83448 4.76308 2.05975 4.5378 2.05975 4.25994V1.85629C2.05975 1.3876 2.44107 1.00628 2.90973 1.00628H5.3134C5.59127 1.00628 5.81654 0.78101 5.81654 0.503142C5.81654 0.225273 5.59127 0 5.3134 0H2.90973C1.8862 0 1.05347 0.832733 1.05347 1.85629V4.25994C1.05347 4.5378 1.27874 4.76308 1.55661 4.76308Z" fill="#825B46"/>
<path d="M5.3134 13.9937H2.90973C2.44107 13.9937 2.05975 13.6124 2.05975 13.1437V10.7401C2.05975 10.4622 1.83448 10.2369 1.55661 10.2369C1.27874 10.2369 1.05347 10.4622 1.05347 10.7401V13.1437C1.05347 14.1673 1.8862 15 2.90973 15H5.3134C5.59127 15 5.81654 14.7747 5.81654 14.4969C5.81654 14.219 5.59127 13.9937 5.3134 13.9937Z" fill="#825B46"/>
<path d="M15.5502 10.2369C15.2723 10.2369 15.0471 10.4622 15.0471 10.7401V13.1437C15.0471 13.6124 14.6658 13.9937 14.1971 13.9937H11.7934C11.5156 13.9937 11.2903 14.219 11.2903 14.4969C11.2903 14.7747 11.5156 15 11.7934 15H14.1971C15.2207 15 16.0534 14.1673 16.0534 13.1437V10.7401C16.0534 10.4622 15.8281 10.2369 15.5502 10.2369Z" fill="#825B46"/>
<path d="M0 7.50001C0 7.77788 0.225273 8.00316 0.503142 8.00316H16.6037C16.8816 8.00316 17.1068 7.77788 17.1068 7.50001C17.1068 7.22215 16.8816 6.99687 16.6037 6.99687H0.503142C0.225273 6.99687 0 7.22215 0 7.50001Z" fill="#825B46"/>
</svg>
