<svg width="36" height="37" viewBox="0 0 36 37" fill="none" xmlns="http://www.w3.org/2000/svg">
<path opacity="0.545387" d="M27.6683 3.0367C30.4635 4.94883 32.6635 7.75192 34.1279 10.9251C35.5991 14.1051 36.3346 17.6552 35.8532 21.0203C35.3717 24.3922 33.6665 27.5723 31.3528 30.0738C29.0391 32.5753 26.1102 34.4052 22.8537 35.6114C19.6038 36.8245 16.0329 37.4139 12.6694 36.6737C9.31251 35.9336 6.16294 33.8569 3.96291 31.0539C1.76958 28.2508 0.519113 24.7144 0.131268 21.13C-0.256578 17.5387 0.211511 13.9064 1.58235 10.6372C2.95318 7.36812 5.23344 4.46908 8.1356 2.60493C11.0378 0.740773 14.5551 -0.0885017 18.0123 0.0074475C21.4695 0.103397 24.8665 1.12457 27.6683 3.0367Z" fill="#C3E8DF"/>
</svg>
