<svg width="21" height="22" viewBox="0 0 21 22" fill="none" xmlns="http://www.w3.org/2000/svg">
<path d="M21 16.0696C21 17.4349 19.8938 18.5418 18.5294 18.5418H2.47059C1.10621 18.5418 0 17.4349 0 16.0696V3.90181C0 2.53652 3.57679 0 4.94118 0H17.6801C19.5911 0 21 1.42896 21 3.32207V16.0696Z" fill="#C1694F"/>
<path d="M19.3201 17.8044C19.3201 19.1425 18.2168 20.2274 16.8561 20.2274H3.30409C1.94334 20.2274 0.840089 19.1425 0.840089 17.8044V3.26607C0.840089 0.770933 0.827153 0.843019 3.92009 0.843019H16.8561C18.2168 0.843019 19.3201 1.92794 19.3201 3.26607V17.8044Z" fill="#CCD6DD"/>
<path d="M18.48 19.2161C18.48 20.2402 17.6527 21.0702 16.632 21.0702H1.848C0.827288 21.0702 0 20.2402 0 19.2161V4.38262C0 3.3585 0.827288 2.52844 1.848 2.52844H16.632C17.6527 2.52844 18.48 3.3585 18.48 4.38262V19.2161Z" fill="#E1E8ED"/>
<path d="M18.4801 19.4408C18.4801 20.8061 17.3907 21.9131 16.047 21.9131H3.27319C1.92951 21.9131 0.840088 20.8061 0.840088 19.4408V5.84349C0.840088 4.47819 1.92951 3.37125 3.27319 3.37125H16.047C17.3907 3.37125 18.4801 4.47819 18.4801 5.84349V19.4408Z" fill="#C1694F"/>
<path d="M17.6401 19.505C17.6401 20.8348 16.5257 21.913 15.1512 21.913H3.32898C1.95449 21.913 0.840088 20.8348 0.840088 19.505V7.46488C0.840088 6.13505 1.95449 5.05685 3.32898 5.05685H15.3596C16.7341 5.05685 17.6401 5.93338 17.6401 7.26321V19.505Z" fill="#D99E82"/>
<path d="M2.94 3.65217C1.94746 3.65217 1.92217 2.48226 2.352 1.97826C2.84122 1.40548 3.6015 1.21739 4.96154 1.21739H5.88V0H4.28123C1.94746 0 0 1.52174 0 3.27174V19.4783C0 20.8229 1.05311 21.913 2.352 21.913H3.528V3.65217H2.94Z" fill="#C1694F"/>
<path d="M15.12 10.6756C15.12 11.2959 14.5824 11.7993 13.92 11.7993H7.91997C7.25757 11.7993 6.71997 11.2959 6.71997 10.6756V9.55185C6.71997 8.93154 7.25757 8.4281 7.91997 8.4281H13.92C14.5824 8.4281 15.12 8.93154 15.12 9.55185V10.6756Z" fill="#E1E8ED"/>
</svg>
