<svg width="23" height="24" viewBox="0 0 23 24" fill="none" xmlns="http://www.w3.org/2000/svg">
<path d="M23 17.5413C23 19.0317 21.7884 20.24 20.2941 20.24H2.70588C1.21156 20.24 0 19.0317 0 17.5413V4.25917C0 2.76883 3.91744 0 5.41176 0H19.364C21.457 0 23 1.55983 23 3.62633V17.5413Z" fill="#C1694F"/>
<path d="M21.16 19.4351C21.16 20.8958 19.9517 22.08 18.4613 22.08H3.61867C2.12833 22.08 0.919999 20.8958 0.919999 19.4351V3.56525C0.919999 0.841591 0.905831 0.920279 4.29333 0.920279H18.4613C19.9517 0.920279 21.16 2.10456 21.16 3.56525V19.4351Z" fill="#CCD6DD"/>
<path d="M20.24 20.976C20.24 22.0939 19.3339 23 18.216 23H2.024C0.906077 23 0 22.0939 0 20.976V4.78401C0 3.66609 0.906077 2.76001 2.024 2.76001H18.216C19.3339 2.76001 20.24 3.66609 20.24 4.78401V20.976Z" fill="#E1E8ED"/>
<path d="M20.24 21.2214C20.24 22.7117 19.0468 23.9201 17.5752 23.9201H3.58483C2.11317 23.9201 0.919998 22.7117 0.919998 21.2214V6.37872C0.919998 4.88838 2.11317 3.68005 3.58483 3.68005H17.5752C19.0468 3.68005 20.24 4.88838 20.24 6.37872V21.2214Z" fill="#C1694F"/>
<path d="M19.32 21.2914C19.32 22.7431 18.0995 23.92 16.5941 23.92H3.64592C2.14053 23.92 0.919998 22.7431 0.919998 21.2914V8.14859C0.919998 6.69696 2.14053 5.52002 3.64592 5.52002H16.8224C18.3278 5.52002 19.32 6.47682 19.32 7.92845V21.2914Z" fill="#D99E82"/>
<path d="M3.22 3.98667C2.13293 3.98667 2.10524 2.7096 2.576 2.15944C3.11181 1.5342 3.9445 1.32889 5.43407 1.32889H6.44V0H4.68896C2.13293 0 0 1.66111 0 3.57139V21.2622C0 22.73 1.1534 23.92 2.576 23.92H3.864V3.98667H3.22Z" fill="#C1694F"/>
<path d="M16.56 11.6533C16.56 12.3304 15.9712 12.88 15.2457 12.88H8.67429C7.9488 12.88 7.36 12.3304 7.36 11.6533V10.4266C7.36 9.7495 7.9488 9.19995 8.67429 9.19995H15.2457C15.9712 9.19995 16.56 9.7495 16.56 10.4266V11.6533Z" fill="#E1E8ED"/>
</svg>
