<svg width="36" height="36" viewBox="0 0 36 36" fill="none" xmlns="http://www.w3.org/2000/svg">
<path fill-rule="evenodd" clip-rule="evenodd" d="M18 36C27.9411 36 36 27.9411 36 18C36 8.05887 27.9411 0 18 0C8.05887 0 0 8.05887 0 18C0 27.9411 8.05887 36 18 36Z" fill="#B7E8D7"/>
<path d="M16.1401 19.4688H17.6977C19.5024 19.4688 20.5336 20.4355 20.5551 21.8105C20.5659 23.1855 19.5239 24.2168 17.7192 24.2168C16.0112 24.2168 15.0766 23.2393 14.9369 22.0039H12.5307C12.5952 24.3242 14.228 26.3008 17.644 26.3008C20.7377 26.3008 23.1977 24.5176 23.1547 21.8965C23.1225 19.5439 21.3285 18.4697 20.0073 18.3623V18.2764C21.1352 18.1152 22.7035 16.9121 22.6606 14.8389C22.6176 12.6475 20.6088 11.0469 17.7407 11.0469C14.5717 11.0469 12.8852 13.0127 12.8315 15.2256H15.27C15.3344 14.2266 16.0649 13.0986 17.6762 13.0986C19.1371 13.0986 20.0825 13.9795 20.0932 15.2041C20.1039 16.4932 19.0942 17.417 17.6118 17.417H16.1401V19.4688Z" fill="white"/>
</svg>
