<svg width="27" height="28" viewBox="0 0 27 28" fill="none" xmlns="http://www.w3.org/2000/svg">
<path d="M18.1364 11H8.86364C8.86364 11 5 15.5714 5 18.619C5 21.6667 13.5 27 13.5 27C13.5 27 22 21.6667 22 18.619C22 15.5714 18.1364 11 18.1364 11Z" fill="#31373D"/>
<path d="M14.7992 0.416732C14.0853 -0.138911 12.9157 -0.138911 12.2018 0.416732L0.535456 9.49013C-0.178485 10.0458 -0.178485 10.955 0.535456 11.5107L12.201 20.5833C12.9157 21.1389 14.0845 21.1389 14.7984 20.5833L26.4639 11.5107C27.1787 10.955 27.1787 10.0458 26.4639 9.49013L14.7992 0.416732Z" fill="#292F33"/>
<path d="M14.7991 0.416732C14.0852 -0.138911 12.9156 -0.138911 12.2017 0.416732L0.535452 9.49013C-0.178484 10.0458 -0.178484 10.955 0.535452 11.5107L12.2009 20.5833C12.9148 21.1389 14.0844 21.1389 14.7983 20.5833L26.4645 11.5107C27.1785 10.955 27.1785 10.0458 26.4645 9.49013L14.7991 0.416732Z" fill="#394146"/>
<path d="M5.5 19C5.5 19 4 20.6364 4 21.4545V26.3636C4 26.3636 4 28 5.5 28C7 28 7 26.3636 7 26.3636V21.4545C7 20.6364 5.5 19 5.5 19Z" fill="#FCAB40"/>
<path d="M5.5 23C6.88071 23 8 21.8807 8 20.5C8 19.1193 6.88071 18 5.5 18C4.11929 18 3 19.1193 3 20.5C3 21.8807 4.11929 23 5.5 23Z" fill="#FDD888"/>
<path d="M5.75331 21C5.3394 21 5.00347 20.6648 5.00347 20.25V17.2816C4.97197 16.8061 5.14369 15.7547 5.99102 15.1187L12.7561 9.18641C13.0681 8.91267 13.542 8.94417 13.8142 9.25616C14.0871 9.5674 14.0556 10.0414 13.7444 10.3144L6.93582 16.2827C6.48292 16.6247 6.50241 17.2366 6.50241 17.2426L6.50391 20.25C6.50391 20.6648 6.16798 21 5.75331 21Z" fill="#FCAB40"/>
<path d="M13.5 13C14.8807 13 16 11.8807 16 10.5C16 9.11929 14.8807 8 13.5 8C12.1193 8 11 9.11929 11 10.5C11 11.8807 12.1193 13 13.5 13Z" fill="#31373D"/>
</svg>
