<svg width="36" height="36" viewBox="0 0 36 36" fill="none" xmlns="http://www.w3.org/2000/svg">
<path fill-rule="evenodd" clip-rule="evenodd" d="M18 36C27.9411 36 36 27.9411 36 18C36 8.05887 27.9411 0 18 0C8.05887 0 0 8.05887 0 18C0 27.9411 8.05887 36 18 36Z" fill="#B7E8D7"/>
<path d="M15.3559 15.6123C15.3559 15.5908 15.3452 15.5156 15.3452 15.4834C15.3452 14.248 16.226 13.1631 17.7192 13.1631C19.0512 13.1631 20.0502 14.0439 20.0502 15.3545C20.0502 16.6113 19.1801 17.5674 18.3959 18.4375L13.0248 24.3779V26H22.9077V23.8516H16.5805V23.7871L20.0932 19.7803C21.3823 18.3086 22.6391 17.084 22.6391 15.1289C22.6391 12.7979 20.7162 11.0469 17.7729 11.0469C14.4858 11.0469 12.8744 13.2598 12.8744 15.4941V15.6123H15.3559Z" fill="white"/>
</svg>
