<svg width="22" height="23" viewBox="0 0 22 23" fill="none" xmlns="http://www.w3.org/2000/svg">
<path d="M14.8182 9H7.18182C7.18182 9 4 12.7143 4 15.1905C4 17.6667 11 22 11 22C11 22 18 17.6667 18 15.1905C18 12.7143 14.8182 9 14.8182 9Z" fill="#31373D"/>
<path d="M12.0586 0.337355C11.4769 -0.112452 10.5239 -0.112452 9.94219 0.337355L0.436297 7.68249C-0.145432 8.1323 -0.145432 8.86834 0.436297 9.31815L9.94154 16.6626C10.5239 17.1125 11.4762 17.1125 12.058 16.6626L21.5632 9.31815C22.1456 8.86834 22.1456 8.1323 21.5632 7.68249L12.0586 0.337355Z" fill="#292F33"/>
<path d="M12.0585 0.337355C11.4768 -0.112452 10.5238 -0.112452 9.94211 0.337355L0.436294 7.68249C-0.145431 8.1323 -0.145431 8.86834 0.436294 9.31815L9.94147 16.6626C10.5232 17.1125 11.4762 17.1125 12.0579 16.6626L21.5637 9.31815C22.1454 8.86834 22.1454 8.1323 21.5637 7.68249L12.0585 0.337355Z" fill="#394146"/>
<path d="M4 16C4 16 3 17.2727 3 17.9091V21.7273C3 21.7273 3 23 4 23C5 23 5 21.7273 5 21.7273V17.9091C5 17.2727 4 16 4 16Z" fill="#FCAB40"/>
<path d="M4 19C5.10457 19 6 18.1046 6 17C6 15.8954 5.10457 15 4 15C2.89543 15 2 15.8954 2 17C2 18.1046 2.89543 19 4 19Z" fill="#FDD888"/>
<path d="M4.58591 17C4.26398 17 4.0027 16.7206 4.0027 16.375V13.9014C3.9782 13.5051 4.11176 12.6289 4.77079 12.0989L10.0326 7.15534C10.2752 6.92723 10.6438 6.95348 10.8555 7.21347C11.0678 7.47283 11.0433 7.86782 10.8012 8.09531L5.50564 13.0689C5.15338 13.3539 5.16854 13.8639 5.16854 13.8689L5.16971 16.375C5.16971 16.7206 4.90843 17 4.58591 17Z" fill="#FCAB40"/>
<path d="M11 11C12.1046 11 13 10.1046 13 9C13 7.89543 12.1046 7 11 7C9.89543 7 9 7.89543 9 9C9 10.1046 9.89543 11 11 11Z" fill="#31373D"/>
</svg>
