<svg width="110" height="110" viewBox="0 0 110 110" fill="none" xmlns="http://www.w3.org/2000/svg">
<g filter="url(#filter0_d)">
<path fill-rule="evenodd" clip-rule="evenodd" d="M55 70C71.5685 70 85 56.5685 85 40C85 23.4315 71.5685 10 55 10C38.4315 10 25 23.4315 25 40C25 56.5685 38.4315 70 55 70Z" fill="white"/>
</g>
<path d="M61.0047 35.3585C58.8875 36.4171 57.1232 37.6521 56.0646 38.8872C55.8882 37.1228 55.3589 35.1821 54.3003 32.8885C52.1831 28.6541 49.0073 25.8312 47.243 26.7134C45.4787 27.5955 45.6551 31.8299 47.7723 36.0643C48.8309 38.1814 50.0659 39.9458 51.301 41.0043C49.5366 41.1808 47.5959 41.7101 45.3023 42.7687C41.0679 44.8859 38.245 48.0616 39.1271 49.8259C40.0093 51.5903 44.2437 51.4138 48.478 49.2967C50.5952 48.2381 52.3595 47.003 53.4181 45.768C53.5946 47.5323 54.1239 49.4731 55.1825 51.7667C57.2996 56.0011 60.4754 58.824 62.2397 57.9418C64.0041 57.0597 63.8276 52.8253 61.7104 48.5909C60.6518 46.4737 59.4168 44.7094 58.1818 43.6508C59.9461 43.4744 61.8869 42.9451 64.1805 41.8865C68.4149 39.7693 71.2378 36.5935 70.3556 34.8292C69.4734 32.8885 65.4155 33.2413 61.0047 35.3585Z" fill="#E64A19"/>
<path d="M54.4692 32.6605C53.7616 34.9632 53.4077 37.0889 53.4077 38.6831C52.1693 37.6203 50.2232 36.5575 47.9233 35.6718C43.3235 34.0776 39.2544 34.4318 38.5467 36.2032C37.8391 38.1517 41.0236 40.9858 45.6234 42.58C47.9233 43.2886 50.0463 43.6428 51.6386 43.6428C50.5771 44.8828 49.5156 46.8312 48.631 49.134C47.0387 53.7395 47.3926 57.8136 49.1617 58.5221C51.1078 59.2307 53.9385 56.0422 55.5307 51.4367C56.2384 49.134 56.5922 47.0084 56.5922 45.4142C57.8307 46.477 59.7768 47.5398 62.0767 48.4255C66.6765 50.0197 70.7456 49.6654 71.4533 47.8941C72.1609 45.9456 68.9764 43.1114 64.3766 41.5172C62.0767 40.8087 59.9537 40.4544 58.3614 40.4544C59.4229 39.2145 60.4844 37.266 61.369 34.9632C62.9613 30.3577 62.6074 26.2837 60.8383 25.5751C58.7153 25.0437 56.0615 28.2321 54.4692 32.6605Z" fill="#FF5722"/>
<path d="M51.8965 42.069C51.8965 43.783 53.286 45.1724 55 45.1724C56.714 45.1724 58.1034 43.783 58.1034 42.069C58.1034 40.355 56.714 38.9655 55 38.9655C53.286 38.9655 51.8965 40.355 51.8965 42.069H51.8965Z" fill="#FFCCBC"/>
<defs>
<filter id="filter0_d" x="0" y="0" width="110" height="110" filterUnits="userSpaceOnUse" color-interpolation-filters="sRGB">
<feFlood flood-opacity="0" result="BackgroundImageFix"/>
<feColorMatrix in="SourceAlpha" type="matrix" values="0 0 0 0 0 0 0 0 0 0 0 0 0 0 0 0 0 0 127 0"/>
<feOffset dy="15"/>
<feGaussianBlur stdDeviation="12.5"/>
<feColorMatrix type="matrix" values="0 0 0 0 0 0 0 0 0 0 0 0 0 0 0 0 0 0 0.14906 0"/>
<feBlend mode="normal" in2="BackgroundImageFix" result="effect1_dropShadow"/>
<feBlend mode="normal" in="SourceGraphic" in2="effect1_dropShadow" result="shape"/>
</filter>
</defs>
</svg>
