<svg width="298" height="102" viewBox="0 0 298 102" fill="none" xmlns="http://www.w3.org/2000/svg">
<g opacity="0.600074">
<path d="M9.81833 8.72311C10.163 6.55158 12.8708 4.23199 14.9878 4.18264C15.1355 4.18264 15.2832 4.13329 15.3817 4.03458C15.4801 3.98523 15.5786 3.93587 15.6278 3.78782C16.3663 2.40593 15.9725 1.32017 14.7416 0.431814C13.3139 -0.604599 11.0492 0.431814 9.9168 1.36952C7.06128 3.73846 4.15654 7.83468 4.30423 11.7336C3.8119 14.3494 3.91037 17.1625 4.64887 19.4821C5.1412 20.9626 6.56895 21.7029 8.04594 21.8016C9.52293 21.9004 12.5754 22.3445 13.9047 21.4563C15.234 20.5678 15.3324 18.8405 15.4801 17.36C15.6278 15.7313 16.0709 12.6713 14.6924 11.3882C13.3139 10.1543 9.37523 11.4869 9.81833 8.72311Z" fill="#9FDAF4" fill-opacity="0.683047"/>
<path d="M25.8183 8.72311C26.1629 6.55158 28.8706 4.23199 30.9877 4.18264C31.1354 4.18264 31.2831 4.13329 31.3816 4.03458C31.4801 3.98523 31.5785 3.93587 31.6278 3.78782C32.3663 2.40593 31.9725 1.32017 30.7416 0.431814C29.3139 -0.604599 27.0492 0.431814 25.9168 1.36952C23.0613 3.73846 20.1565 7.83476 20.3042 11.7336C19.8119 14.3494 19.9104 17.1625 20.6488 19.4821C21.1411 20.9626 22.5689 21.7029 24.0459 21.8016C25.5229 21.9004 28.5753 22.3445 29.9046 21.4563C31.2338 20.5678 31.3323 18.8405 31.48 17.36C31.6277 15.7313 32.0708 12.6713 30.6923 11.3882C29.3138 10.1543 25.326 11.4869 25.8183 8.72311Z" fill="#9FDAF4" fill-opacity="0.683047"/>
</g>
<path d="M31.6691 15.14L31.0291 17.76H26.9691L24.2691 29H21.1491L23.8491 17.76H19.7891L20.4291 15.14H31.6691ZM37.7085 18.3C38.2819 18.3 38.7752 18.3867 39.1885 18.56C39.6019 18.72 39.9419 18.9533 40.2085 19.26C40.4752 19.5533 40.6752 19.9067 40.8085 20.32C40.9419 20.7333 41.0085 21.18 41.0085 21.66C41.0085 22.22 40.9419 22.7733 40.8085 23.32L39.4485 29H36.4685L37.7885 23.44C37.8419 23.2133 37.8885 22.9733 37.9285 22.72C37.9819 22.4667 38.0085 22.2267 38.0085 22C38.0085 21.6533 37.9152 21.36 37.7285 21.12C37.5552 20.8667 37.2152 20.74 36.7085 20.74C36.4952 20.74 36.2885 20.7533 36.0885 20.78C35.9019 20.8067 35.7152 20.84 35.5285 20.88L33.5885 29H30.6085L34.2085 13.96L37.3085 13.48L36.0885 18.5C36.3552 18.4467 36.6219 18.4 36.8885 18.36C37.1685 18.32 37.4419 18.3 37.7085 18.3ZM42.9616 24.88C42.9616 24.0267 43.1082 23.2 43.4016 22.4C43.7082 21.6 44.1349 20.8933 44.6816 20.28C45.2282 19.6533 45.8882 19.1533 46.6616 18.78C47.4482 18.3933 48.3149 18.2 49.2616 18.2C49.7282 18.2 50.1616 18.2667 50.5616 18.4C50.9616 18.5333 51.3082 18.7267 51.6016 18.98C51.9082 19.2333 52.1416 19.5467 52.3016 19.92C52.4749 20.28 52.5616 20.6933 52.5616 21.16C52.5616 21.9067 52.3949 22.54 52.0616 23.06C51.7282 23.58 51.2616 24.0067 50.6616 24.34C50.0749 24.66 49.3749 24.8933 48.5616 25.04C47.7482 25.1867 46.8616 25.26 45.9016 25.26C45.9949 25.82 46.1949 26.22 46.5016 26.46C46.8216 26.6867 47.3216 26.8 48.0016 26.8C48.4282 26.8 48.8616 26.7667 49.3016 26.7C49.7416 26.62 50.1549 26.5067 50.5416 26.36L50.7616 28.7C50.3882 28.8467 49.9082 28.98 49.3216 29.1C48.7482 29.22 48.1216 29.28 47.4416 29.28C46.6149 29.28 45.9149 29.1667 45.3416 28.94C44.7816 28.7 44.3216 28.38 43.9616 27.98C43.6149 27.58 43.3616 27.1133 43.2016 26.58C43.0416 26.0467 42.9616 25.48 42.9616 24.88ZM48.7816 20.56C48.1016 20.56 47.5016 20.8067 46.9816 21.3C46.4749 21.78 46.1416 22.42 45.9816 23.22C46.8082 23.1933 47.4749 23.1267 47.9816 23.02C48.4882 22.9 48.8816 22.76 49.1616 22.6C49.4416 22.44 49.6282 22.2667 49.7216 22.08C49.8149 21.8933 49.8616 21.7067 49.8616 21.52C49.8616 20.88 49.5016 20.56 48.7816 20.56ZM67.7406 27.68C67.5406 28.5467 67.274 29.2933 66.9406 29.92C66.6206 30.56 66.214 31.0867 65.7206 31.5C65.2406 31.9267 64.6606 32.24 63.9806 32.44C63.3006 32.6533 62.5073 32.76 61.6006 32.76C60.7606 32.76 60.054 32.68 59.4806 32.52C58.9073 32.3733 58.3873 32.1867 57.9206 31.96L58.9206 29.6C59.334 29.7867 59.7606 29.9467 60.2006 30.08C60.654 30.2133 61.2073 30.28 61.8606 30.28C62.714 30.28 63.354 30.0867 63.7806 29.7C64.2206 29.3267 64.5073 28.84 64.6406 28.24L64.7206 27.86C64.454 27.9933 64.1673 28.1 63.8606 28.18C63.5673 28.26 63.254 28.3 62.9206 28.3C62.294 28.3 61.754 28.2067 61.3006 28.02C60.8473 27.82 60.474 27.5467 60.1806 27.2C59.9006 26.8533 59.6873 26.4467 59.5406 25.98C59.4073 25.5 59.3406 24.98 59.3406 24.42C59.3406 23.4067 59.5273 22.5133 59.9006 21.74C60.274 20.9533 60.7673 20.3 61.3806 19.78C62.0073 19.26 62.7206 18.8667 63.5206 18.6C64.334 18.3333 65.1806 18.2 66.0606 18.2C66.7006 18.2 67.334 18.2667 67.9606 18.4C68.5873 18.5333 69.2006 18.74 69.8006 19.02L67.7406 27.68ZM66.4206 20.78C66.194 20.7267 65.914 20.7 65.5806 20.7C65.074 20.7 64.6206 20.7933 64.2206 20.98C63.8206 21.1533 63.474 21.3933 63.1806 21.7C62.9006 22.0067 62.6806 22.38 62.5206 22.82C62.374 23.2467 62.3006 23.7067 62.3006 24.2C62.3006 24.44 62.3206 24.6667 62.3606 24.88C62.4006 25.08 62.474 25.26 62.5806 25.42C62.6873 25.5667 62.834 25.6867 63.0206 25.78C63.2073 25.8733 63.4406 25.92 63.7206 25.92C63.9073 25.92 64.154 25.8867 64.4606 25.82C64.7806 25.7533 65.0673 25.6 65.3206 25.36L66.4206 20.78ZM75.2127 29.28C74.5061 29.28 73.8927 29.1733 73.3727 28.96C72.8527 28.7467 72.4194 28.4467 72.0727 28.06C71.7394 27.6733 71.4861 27.22 71.3127 26.7C71.1394 26.1667 71.0527 25.58 71.0527 24.94C71.0527 24.14 71.1794 23.34 71.4327 22.54C71.6994 21.74 72.0861 21.02 72.5927 20.38C73.0994 19.74 73.7194 19.22 74.4527 18.82C75.1861 18.4067 76.0261 18.2 76.9727 18.2C77.6661 18.2 78.2727 18.3067 78.7927 18.52C79.3261 18.7333 79.7594 19.0333 80.0927 19.42C80.4394 19.8067 80.6994 20.2667 80.8727 20.8C81.0461 21.32 81.1327 21.9 81.1327 22.54C81.1327 23.34 81.0061 24.14 80.7527 24.94C80.4994 25.74 80.1261 26.46 79.6327 27.1C79.1394 27.74 78.5194 28.2667 77.7727 28.68C77.0394 29.08 76.1861 29.28 75.2127 29.28ZM76.6927 20.72C76.2527 20.72 75.8661 20.8467 75.5327 21.1C75.1994 21.3533 74.9194 21.6733 74.6927 22.06C74.4661 22.4467 74.2927 22.8733 74.1727 23.34C74.0661 23.7933 74.0127 24.2267 74.0127 24.64C74.0127 25.32 74.1194 25.8467 74.3327 26.22C74.5461 26.58 74.9327 26.76 75.4927 26.76C75.9327 26.76 76.3194 26.6333 76.6527 26.38C76.9861 26.1267 77.2661 25.8067 77.4927 25.42C77.7194 25.0333 77.8861 24.6133 77.9927 24.16C78.1127 23.6933 78.1727 23.2533 78.1727 22.84C78.1727 22.16 78.0661 21.64 77.8527 21.28C77.6394 20.9067 77.2527 20.72 76.6927 20.72ZM92.2415 24.46C92.0549 25.22 92.0015 25.9867 92.0815 26.76C92.1615 27.52 92.3149 28.2 92.5415 28.8L89.8815 29.18C89.8015 29.02 89.7282 28.8667 89.6615 28.72C89.5949 28.5733 89.5282 28.4067 89.4615 28.22C89.0882 28.5267 88.6749 28.78 88.2215 28.98C87.7682 29.18 87.2615 29.28 86.7015 29.28C86.0349 29.28 85.4615 29.1667 84.9815 28.94C84.5149 28.7 84.1282 28.3867 83.8215 28C83.5282 27.6 83.3149 27.14 83.1815 26.62C83.0482 26.0867 82.9815 25.52 82.9815 24.92C82.9815 24 83.1415 23.1333 83.4615 22.32C83.7949 21.5067 84.2482 20.8 84.8215 20.2C85.4082 19.5867 86.0949 19.1067 86.8815 18.76C87.6682 18.4133 88.5215 18.24 89.4415 18.24C89.5615 18.24 89.7682 18.2467 90.0615 18.26C90.3682 18.2733 90.7149 18.3067 91.1015 18.36C91.4882 18.4 91.8949 18.4733 92.3215 18.58C92.7482 18.6867 93.1549 18.8333 93.5415 19.02L92.2415 24.46ZM90.1615 20.78C89.9882 20.7533 89.8282 20.7333 89.6815 20.72C89.5482 20.7067 89.3815 20.7 89.1815 20.7C88.7282 20.7 88.3015 20.8133 87.9015 21.04C87.5149 21.2667 87.1749 21.5667 86.8815 21.94C86.5882 22.3 86.3549 22.72 86.1815 23.2C86.0215 23.68 85.9415 24.18 85.9415 24.7C85.9415 25.34 86.0482 25.8467 86.2615 26.22C86.4749 26.5933 86.8682 26.78 87.4415 26.78C87.7482 26.78 88.0215 26.72 88.2615 26.6C88.5149 26.48 88.7815 26.28 89.0615 26C89.0882 25.6667 89.1282 25.32 89.1815 24.96C89.2482 24.5867 89.3149 24.2467 89.3815 23.94L90.1615 20.78ZM98.9438 29.2C97.9971 29.2 97.2505 29.08 96.7038 28.84C96.1705 28.5867 95.7838 28.2467 95.5438 27.82C95.3171 27.3933 95.2038 26.9067 95.2038 26.36C95.2171 25.8 95.2971 25.2067 95.4438 24.58L97.9838 13.96L101.084 13.48L98.3038 25C98.2505 25.24 98.2171 25.46 98.2038 25.66C98.2038 25.86 98.2438 26.04 98.3238 26.2C98.4038 26.3467 98.5371 26.4667 98.7238 26.56C98.9238 26.6533 99.1971 26.7133 99.5438 26.74L98.9438 29.2ZM109.546 29H106.586L109.086 18.48H112.066L109.546 29ZM110.986 17.2C110.573 17.2 110.199 17.08 109.866 16.84C109.533 16.5867 109.366 16.2067 109.366 15.7C109.366 15.42 109.419 15.16 109.526 14.92C109.646 14.6667 109.799 14.4533 109.986 14.28C110.173 14.0933 110.386 13.9467 110.626 13.84C110.879 13.7333 111.146 13.68 111.426 13.68C111.839 13.68 112.213 13.8067 112.546 14.06C112.879 14.3 113.046 14.6733 113.046 15.18C113.046 15.46 112.986 15.7267 112.866 15.98C112.759 16.22 112.613 16.4333 112.426 16.62C112.239 16.7933 112.019 16.9333 111.766 17.04C111.526 17.1467 111.266 17.2 110.986 17.2ZM116.114 26.88C116.794 26.88 117.261 26.7867 117.514 26.6C117.768 26.4 117.894 26.1867 117.894 25.96C117.894 25.8133 117.868 25.6867 117.814 25.58C117.774 25.4733 117.701 25.3733 117.594 25.28C117.488 25.1867 117.341 25.0933 117.154 25C116.968 24.8933 116.728 24.7733 116.434 24.64C116.101 24.4933 115.788 24.34 115.494 24.18C115.201 24.0067 114.941 23.8067 114.714 23.58C114.501 23.34 114.328 23.0733 114.194 22.78C114.074 22.4733 114.014 22.1133 114.014 21.7C114.014 20.62 114.408 19.7667 115.194 19.14C115.994 18.5133 117.154 18.2 118.674 18.2C119.394 18.2 120.034 18.28 120.594 18.44C121.154 18.6 121.608 18.7733 121.954 18.96L120.934 21.18C120.654 21.0333 120.294 20.8933 119.854 20.76C119.414 20.6267 118.981 20.56 118.554 20.56C118.368 20.56 118.181 20.5733 117.994 20.6C117.821 20.6133 117.654 20.6533 117.494 20.72C117.348 20.7867 117.228 20.88 117.134 21C117.041 21.12 116.994 21.28 116.994 21.48C116.994 21.7467 117.094 21.9467 117.294 22.08C117.508 22.2133 117.801 22.3733 118.174 22.56C118.694 22.8133 119.128 23.0467 119.474 23.26C119.821 23.4733 120.094 23.7 120.294 23.94C120.508 24.18 120.661 24.4533 120.754 24.76C120.848 25.0667 120.894 25.4267 120.894 25.84C120.894 26.2667 120.801 26.6867 120.614 27.1C120.441 27.5133 120.161 27.88 119.774 28.2C119.388 28.52 118.894 28.78 118.294 28.98C117.694 29.18 116.974 29.28 116.134 29.28C115.614 29.28 115.141 29.2467 114.714 29.18C114.301 29.1133 113.934 29.0333 113.614 28.94C113.294 28.8333 113.021 28.7267 112.794 28.62C112.581 28.5133 112.414 28.4267 112.294 28.36L113.314 26.08C113.541 26.2133 113.894 26.38 114.374 26.58C114.854 26.78 115.434 26.88 116.114 26.88ZM130.476 18.96C130.703 18.8933 130.949 18.82 131.216 18.74C131.496 18.6467 131.803 18.5667 132.136 18.5C132.483 18.42 132.863 18.36 133.276 18.32C133.703 18.2667 134.183 18.24 134.716 18.24C136.289 18.24 137.369 18.6933 137.956 19.6C138.543 20.5067 138.643 21.7467 138.256 23.32L136.896 29H133.916L135.236 23.44C135.316 23.0933 135.376 22.76 135.416 22.44C135.469 22.1067 135.469 21.82 135.416 21.58C135.363 21.3267 135.236 21.1267 135.036 20.98C134.849 20.82 134.556 20.74 134.156 20.74C133.769 20.74 133.376 20.78 132.976 20.86L131.036 29H128.056L130.476 18.96ZM144.608 29.28C143.901 29.28 143.288 29.1733 142.768 28.96C142.248 28.7467 141.815 28.4467 141.468 28.06C141.135 27.6733 140.881 27.22 140.708 26.7C140.535 26.1667 140.448 25.58 140.448 24.94C140.448 24.14 140.575 23.34 140.828 22.54C141.095 21.74 141.481 21.02 141.988 20.38C142.495 19.74 143.115 19.22 143.848 18.82C144.581 18.4067 145.421 18.2 146.368 18.2C147.061 18.2 147.668 18.3067 148.188 18.52C148.721 18.7333 149.155 19.0333 149.488 19.42C149.835 19.8067 150.095 20.2667 150.268 20.8C150.441 21.32 150.528 21.9 150.528 22.54C150.528 23.34 150.401 24.14 150.148 24.94C149.895 25.74 149.521 26.46 149.028 27.1C148.535 27.74 147.915 28.2667 147.168 28.68C146.435 29.08 145.581 29.28 144.608 29.28ZM146.088 20.72C145.648 20.72 145.261 20.8467 144.928 21.1C144.595 21.3533 144.315 21.6733 144.088 22.06C143.861 22.4467 143.688 22.8733 143.568 23.34C143.461 23.7933 143.408 24.2267 143.408 24.64C143.408 25.32 143.515 25.8467 143.728 26.22C143.941 26.58 144.328 26.76 144.888 26.76C145.328 26.76 145.715 26.6333 146.048 26.38C146.381 26.1267 146.661 25.8067 146.888 25.42C147.115 25.0333 147.281 24.6133 147.388 24.16C147.508 23.6933 147.568 23.2533 147.568 22.84C147.568 22.16 147.461 21.64 147.248 21.28C147.035 20.9067 146.648 20.72 146.088 20.72ZM154.637 15.86L157.737 15.38L156.977 18.48H160.297L159.697 20.92H156.397L155.517 24.6C155.437 24.9067 155.384 25.1933 155.357 25.46C155.344 25.7267 155.377 25.96 155.457 26.16C155.55 26.3467 155.704 26.4933 155.917 26.6C156.13 26.7067 156.424 26.76 156.797 26.76C157.117 26.76 157.424 26.7333 157.717 26.68C158.024 26.6133 158.33 26.5267 158.637 26.42L158.857 28.7C158.457 28.8467 158.024 28.9733 157.557 29.08C157.09 29.1867 156.537 29.24 155.897 29.24C154.977 29.24 154.264 29.1067 153.757 28.84C153.25 28.56 152.89 28.1867 152.677 27.72C152.464 27.24 152.37 26.6933 152.397 26.08C152.424 25.4667 152.517 24.82 152.677 24.14L154.637 15.86ZM168.651 15.86L171.751 15.38L170.991 18.48H174.311L173.711 20.92H170.411L169.531 24.6C169.451 24.9067 169.398 25.1933 169.371 25.46C169.358 25.7267 169.391 25.96 169.471 26.16C169.564 26.3467 169.718 26.4933 169.931 26.6C170.144 26.7067 170.438 26.76 170.811 26.76C171.131 26.76 171.438 26.7333 171.731 26.68C172.038 26.6133 172.344 26.5267 172.651 26.42L172.871 28.7C172.471 28.8467 172.038 28.9733 171.571 29.08C171.104 29.1867 170.551 29.24 169.911 29.24C168.991 29.24 168.278 29.1067 167.771 28.84C167.264 28.56 166.904 28.1867 166.691 27.72C166.478 27.24 166.384 26.6933 166.411 26.08C166.438 25.4667 166.531 24.82 166.691 24.14L168.651 15.86ZM179.023 29.28C178.316 29.28 177.703 29.1733 177.183 28.96C176.663 28.7467 176.229 28.4467 175.883 28.06C175.549 27.6733 175.296 27.22 175.123 26.7C174.949 26.1667 174.863 25.58 174.863 24.94C174.863 24.14 174.989 23.34 175.243 22.54C175.509 21.74 175.896 21.02 176.403 20.38C176.909 19.74 177.529 19.22 178.263 18.82C178.996 18.4067 179.836 18.2 180.783 18.2C181.476 18.2 182.083 18.3067 182.603 18.52C183.136 18.7333 183.569 19.0333 183.903 19.42C184.249 19.8067 184.509 20.2667 184.683 20.8C184.856 21.32 184.943 21.9 184.943 22.54C184.943 23.34 184.816 24.14 184.563 24.94C184.309 25.74 183.936 26.46 183.443 27.1C182.949 27.74 182.329 28.2667 181.583 28.68C180.849 29.08 179.996 29.28 179.023 29.28ZM180.503 20.72C180.063 20.72 179.676 20.8467 179.343 21.1C179.009 21.3533 178.729 21.6733 178.503 22.06C178.276 22.4467 178.103 22.8733 177.983 23.34C177.876 23.7933 177.823 24.2267 177.823 24.64C177.823 25.32 177.929 25.8467 178.143 26.22C178.356 26.58 178.743 26.76 179.303 26.76C179.743 26.76 180.129 26.6333 180.463 26.38C180.796 26.1267 181.076 25.8067 181.303 25.42C181.529 25.0333 181.696 24.6133 181.803 24.16C181.923 23.6933 181.983 23.2533 181.983 22.84C181.983 22.16 181.876 21.64 181.663 21.28C181.449 20.9067 181.063 20.72 180.503 20.72ZM202.781 29H199.821L202.321 18.48H205.301L202.781 29ZM204.221 17.2C203.807 17.2 203.434 17.08 203.101 16.84C202.767 16.5867 202.601 16.2067 202.601 15.7C202.601 15.42 202.654 15.16 202.761 14.92C202.881 14.6667 203.034 14.4533 203.221 14.28C203.407 14.0933 203.621 13.9467 203.861 13.84C204.114 13.7333 204.381 13.68 204.661 13.68C205.074 13.68 205.447 13.8067 205.781 14.06C206.114 14.3 206.281 14.6733 206.281 15.18C206.281 15.46 206.221 15.7267 206.101 15.98C205.994 16.22 205.847 16.4333 205.661 16.62C205.474 16.7933 205.254 16.9333 205.001 17.04C204.761 17.1467 204.501 17.2 204.221 17.2ZM199.621 13.48C200.221 13.48 200.707 13.5267 201.081 13.62C201.454 13.7133 201.754 13.8133 201.981 13.92L200.921 16.24C200.681 16.1733 200.447 16.12 200.221 16.08C200.007 16.0267 199.767 16 199.501 16C198.767 16 198.221 16.1867 197.861 16.56C197.514 16.9333 197.274 17.4 197.141 17.96L197.021 18.48H200.541L199.941 20.92H196.441L195.221 26.02C194.767 27.9267 194.274 29.4067 193.741 30.46C193.207 31.5267 192.621 32.3 191.981 32.78L189.321 32.4C189.667 32.08 189.987 31.6867 190.281 31.22C190.574 30.7533 190.834 30.26 191.061 29.74C191.301 29.22 191.501 28.6933 191.661 28.16C191.834 27.6133 191.974 27.1067 192.081 26.64L194.161 17.92C194.494 16.5067 195.094 15.4133 195.961 14.64C196.827 13.8667 198.047 13.48 199.621 13.48ZM208.348 18.96C208.575 18.8933 208.821 18.82 209.088 18.74C209.368 18.6467 209.675 18.5667 210.008 18.5C210.355 18.42 210.735 18.36 211.148 18.32C211.575 18.2667 212.055 18.24 212.588 18.24C214.161 18.24 215.241 18.6933 215.828 19.6C216.415 20.5067 216.515 21.7467 216.128 23.32L214.768 29H211.788L213.108 23.44C213.188 23.0933 213.248 22.76 213.288 22.44C213.341 22.1067 213.341 21.82 213.288 21.58C213.235 21.3267 213.108 21.1267 212.908 20.98C212.721 20.82 212.428 20.74 212.028 20.74C211.641 20.74 211.248 20.78 210.848 20.86L208.908 29H205.928L208.348 18.96ZM220.68 29H217.72L220.22 18.48H223.2L220.68 29ZM222.12 17.2C221.707 17.2 221.333 17.08 221 16.84C220.667 16.5867 220.5 16.2067 220.5 15.7C220.5 15.42 220.553 15.16 220.66 14.92C220.78 14.6667 220.933 14.4533 221.12 14.28C221.307 14.0933 221.52 13.9467 221.76 13.84C222.013 13.7333 222.28 13.68 222.56 13.68C222.973 13.68 223.347 13.8067 223.68 14.06C224.013 14.3 224.18 14.6733 224.18 15.18C224.18 15.46 224.12 15.7267 224 15.98C223.893 16.22 223.747 16.4333 223.56 16.62C223.373 16.7933 223.153 16.9333 222.9 17.04C222.66 17.1467 222.4 17.2 222.12 17.2ZM227.249 26.88C227.929 26.88 228.395 26.7867 228.649 26.6C228.902 26.4 229.029 26.1867 229.029 25.96C229.029 25.8133 229.002 25.6867 228.949 25.58C228.909 25.4733 228.835 25.3733 228.729 25.28C228.622 25.1867 228.475 25.0933 228.289 25C228.102 24.8933 227.862 24.7733 227.569 24.64C227.235 24.4933 226.922 24.34 226.629 24.18C226.335 24.0067 226.075 23.8067 225.849 23.58C225.635 23.34 225.462 23.0733 225.329 22.78C225.209 22.4733 225.149 22.1133 225.149 21.7C225.149 20.62 225.542 19.7667 226.329 19.14C227.129 18.5133 228.289 18.2 229.809 18.2C230.529 18.2 231.169 18.28 231.729 18.44C232.289 18.6 232.742 18.7733 233.089 18.96L232.069 21.18C231.789 21.0333 231.429 20.8933 230.989 20.76C230.549 20.6267 230.115 20.56 229.689 20.56C229.502 20.56 229.315 20.5733 229.129 20.6C228.955 20.6133 228.789 20.6533 228.629 20.72C228.482 20.7867 228.362 20.88 228.269 21C228.175 21.12 228.129 21.28 228.129 21.48C228.129 21.7467 228.229 21.9467 228.429 22.08C228.642 22.2133 228.935 22.3733 229.309 22.56C229.829 22.8133 230.262 23.0467 230.609 23.26C230.955 23.4733 231.229 23.7 231.429 23.94C231.642 24.18 231.795 24.4533 231.889 24.76C231.982 25.0667 232.029 25.4267 232.029 25.84C232.029 26.2667 231.935 26.6867 231.749 27.1C231.575 27.5133 231.295 27.88 230.909 28.2C230.522 28.52 230.029 28.78 229.429 28.98C228.829 29.18 228.109 29.28 227.269 29.28C226.749 29.28 226.275 29.2467 225.849 29.18C225.435 29.1133 225.069 29.0333 224.749 28.94C224.429 28.8333 224.155 28.7267 223.929 28.62C223.715 28.5133 223.549 28.4267 223.429 28.36L224.449 26.08C224.675 26.2133 225.029 26.38 225.509 26.58C225.989 26.78 226.569 26.88 227.249 26.88ZM241.041 18.3C241.614 18.3 242.108 18.3867 242.521 18.56C242.934 18.72 243.274 18.9533 243.541 19.26C243.808 19.5533 244.008 19.9067 244.141 20.32C244.274 20.7333 244.341 21.18 244.341 21.66C244.341 22.22 244.274 22.7733 244.141 23.32L242.781 29H239.801L241.121 23.44C241.174 23.2133 241.221 22.9733 241.261 22.72C241.314 22.4667 241.341 22.2267 241.341 22C241.341 21.6533 241.248 21.36 241.061 21.12C240.888 20.8667 240.548 20.74 240.041 20.74C239.828 20.74 239.621 20.7533 239.421 20.78C239.234 20.8067 239.048 20.84 238.861 20.88L236.921 29H233.941L237.541 13.96L240.641 13.48L239.421 18.5C239.688 18.4467 239.954 18.4 240.221 18.36C240.501 18.32 240.774 18.3 241.041 18.3ZM253.803 15.86L256.903 15.38L256.143 18.48H259.463L258.863 20.92H255.563L254.683 24.6C254.603 24.9067 254.55 25.1933 254.523 25.46C254.51 25.7267 254.543 25.96 254.623 26.16C254.717 26.3467 254.87 26.4933 255.083 26.6C255.297 26.7067 255.59 26.76 255.963 26.76C256.283 26.76 256.59 26.7333 256.883 26.68C257.19 26.6133 257.497 26.5267 257.803 26.42L258.023 28.7C257.623 28.8467 257.19 28.9733 256.723 29.08C256.257 29.1867 255.703 29.24 255.063 29.24C254.143 29.24 253.43 29.1067 252.923 28.84C252.417 28.56 252.057 28.1867 251.843 27.72C251.63 27.24 251.537 26.6933 251.563 26.08C251.59 25.4667 251.683 24.82 251.843 24.14L253.803 15.86ZM266.808 18.3C267.381 18.3 267.875 18.3867 268.288 18.56C268.701 18.72 269.041 18.9533 269.308 19.26C269.575 19.5533 269.775 19.9067 269.908 20.32C270.041 20.7333 270.108 21.18 270.108 21.66C270.108 22.22 270.041 22.7733 269.908 23.32L268.548 29H265.568L266.888 23.44C266.941 23.2133 266.988 22.9733 267.028 22.72C267.081 22.4667 267.108 22.2267 267.108 22C267.108 21.6533 267.015 21.36 266.828 21.12C266.655 20.8667 266.315 20.74 265.808 20.74C265.595 20.74 265.388 20.7533 265.188 20.78C265.001 20.8067 264.815 20.84 264.628 20.88L262.688 29H259.708L263.308 13.96L266.408 13.48L265.188 18.5C265.455 18.4467 265.721 18.4 265.988 18.36C266.268 18.32 266.541 18.3 266.808 18.3ZM272.061 24.88C272.061 24.0267 272.208 23.2 272.501 22.4C272.808 21.6 273.234 20.8933 273.781 20.28C274.328 19.6533 274.988 19.1533 275.761 18.78C276.548 18.3933 277.414 18.2 278.361 18.2C278.828 18.2 279.261 18.2667 279.661 18.4C280.061 18.5333 280.408 18.7267 280.701 18.98C281.008 19.2333 281.241 19.5467 281.401 19.92C281.574 20.28 281.661 20.6933 281.661 21.16C281.661 21.9067 281.494 22.54 281.161 23.06C280.828 23.58 280.361 24.0067 279.761 24.34C279.174 24.66 278.474 24.8933 277.661 25.04C276.848 25.1867 275.961 25.26 275.001 25.26C275.094 25.82 275.294 26.22 275.601 26.46C275.921 26.6867 276.421 26.8 277.101 26.8C277.528 26.8 277.961 26.7667 278.401 26.7C278.841 26.62 279.254 26.5067 279.641 26.36L279.861 28.7C279.488 28.8467 279.008 28.98 278.421 29.1C277.848 29.22 277.221 29.28 276.541 29.28C275.714 29.28 275.014 29.1667 274.441 28.94C273.881 28.7 273.421 28.38 273.061 27.98C272.714 27.58 272.461 27.1133 272.301 26.58C272.141 26.0467 272.061 25.48 272.061 24.88ZM277.881 20.56C277.201 20.56 276.601 20.8067 276.081 21.3C275.574 21.78 275.241 22.42 275.081 23.22C275.908 23.1933 276.574 23.1267 277.081 23.02C277.588 22.9 277.981 22.76 278.261 22.6C278.541 22.44 278.728 22.2667 278.821 22.08C278.914 21.8933 278.961 21.7067 278.961 21.52C278.961 20.88 278.601 20.56 277.881 20.56ZM6.26908 52.28C5.60242 52.28 5.02908 52.1667 4.54908 51.94C4.08242 51.7133 3.69575 51.4067 3.38908 51.02C3.09575 50.62 2.87575 50.16 2.72908 49.64C2.59575 49.1067 2.52908 48.54 2.52908 47.94C2.52908 47.0333 2.68908 46.18 3.00908 45.38C3.34242 44.5667 3.79575 43.86 4.36908 43.26C4.94242 42.66 5.62242 42.1867 6.40908 41.84C7.19575 41.4933 8.05575 41.32 8.98908 41.32C9.22908 41.32 9.44908 41.3333 9.64908 41.36C9.86242 41.3867 10.0758 41.4267 10.2891 41.48L11.3691 36.96L14.4691 36.48L11.8291 47.46C11.6424 48.22 11.5891 48.9867 11.6691 49.76C11.7491 50.52 11.9024 51.2 12.1291 51.8L9.46908 52.18C9.38908 52.02 9.31575 51.8667 9.24908 51.72C9.18242 51.5733 9.11575 51.4067 9.04908 51.22C8.67575 51.5267 8.25575 51.78 7.78908 51.98C7.33575 52.18 6.82908 52.28 6.26908 52.28ZM9.70908 43.86C9.62908 43.8467 9.55575 43.8333 9.48908 43.82C9.43575 43.8067 9.37575 43.8 9.30908 43.8C9.25575 43.7867 9.18242 43.78 9.08908 43.78C8.99575 43.78 8.87575 43.78 8.72908 43.78C8.26242 43.78 7.82908 43.8933 7.42908 44.12C7.02908 44.3333 6.68242 44.6267 6.38908 45C6.10908 45.3733 5.88908 45.8 5.72908 46.28C5.56908 46.7467 5.48908 47.2267 5.48908 47.72C5.48908 48.36 5.59575 48.8667 5.80908 49.24C6.03575 49.6 6.43575 49.78 7.00908 49.78C7.31575 49.78 7.59575 49.72 7.84908 49.6C8.10242 49.48 8.36908 49.28 8.64908 49C8.67575 48.6667 8.71575 48.32 8.76908 47.96C8.83575 47.5867 8.90242 47.2467 8.96908 46.94L9.70908 43.86ZM17.1304 52H14.1704L16.6704 41.48H19.6504L17.1304 52ZM18.5704 40.2C18.1571 40.2 17.7837 40.08 17.4504 39.84C17.1171 39.5867 16.9504 39.2067 16.9504 38.7C16.9504 38.42 17.0037 38.16 17.1104 37.92C17.2304 37.6667 17.3837 37.4533 17.5704 37.28C17.7571 37.0933 17.9704 36.9467 18.2104 36.84C18.4637 36.7333 18.7304 36.68 19.0104 36.68C19.4237 36.68 19.7971 36.8067 20.1304 37.06C20.4637 37.3 20.6304 37.6733 20.6304 38.18C20.6304 38.46 20.5704 38.7267 20.4504 38.98C20.3437 39.22 20.1971 39.4333 20.0104 39.62C19.8237 39.7933 19.6037 39.9333 19.3504 40.04C19.1104 40.1467 18.8504 40.2 18.5704 40.2ZM30.1389 47.46C29.9522 48.22 29.8989 48.9867 29.9789 49.76C30.0589 50.52 30.2122 51.2 30.4389 51.8L27.7789 52.18C27.6989 52.02 27.6256 51.8667 27.5589 51.72C27.4922 51.5733 27.4256 51.4067 27.3589 51.22C26.9856 51.5267 26.5722 51.78 26.1189 51.98C25.6656 52.18 25.1589 52.28 24.5989 52.28C23.9322 52.28 23.3589 52.1667 22.8789 51.94C22.4122 51.7 22.0256 51.3867 21.7189 51C21.4256 50.6 21.2122 50.14 21.0789 49.62C20.9456 49.0867 20.8789 48.52 20.8789 47.92C20.8789 47 21.0389 46.1333 21.3589 45.32C21.6922 44.5067 22.1456 43.8 22.7189 43.2C23.3056 42.5867 23.9922 42.1067 24.7789 41.76C25.5656 41.4133 26.4189 41.24 27.3389 41.24C27.4589 41.24 27.6656 41.2467 27.9589 41.26C28.2656 41.2733 28.6122 41.3067 28.9989 41.36C29.3856 41.4 29.7922 41.4733 30.2189 41.58C30.6456 41.6867 31.0522 41.8333 31.4389 42.02L30.1389 47.46ZM28.0589 43.78C27.8856 43.7533 27.7256 43.7333 27.5789 43.72C27.4456 43.7067 27.2789 43.7 27.0789 43.7C26.6256 43.7 26.1989 43.8133 25.7989 44.04C25.4122 44.2667 25.0722 44.5667 24.7789 44.94C24.4856 45.3 24.2522 45.72 24.0789 46.2C23.9189 46.68 23.8389 47.18 23.8389 47.7C23.8389 48.34 23.9456 48.8467 24.1589 49.22C24.3722 49.5933 24.7656 49.78 25.3389 49.78C25.6456 49.78 25.9189 49.72 26.1589 49.6C26.4122 49.48 26.6789 49.28 26.9589 49C26.9856 48.6667 27.0256 48.32 27.0789 47.96C27.1456 47.5867 27.2122 47.2467 27.2789 46.94L28.0589 43.78ZM41.5612 50.68C41.3612 51.5467 41.0945 52.2933 40.7612 52.92C40.4412 53.56 40.0345 54.0867 39.5412 54.5C39.0612 54.9267 38.4812 55.24 37.8012 55.44C37.1212 55.6533 36.3278 55.76 35.4212 55.76C34.5812 55.76 33.8745 55.68 33.3012 55.52C32.7278 55.3733 32.2078 55.1867 31.7412 54.96L32.7412 52.6C33.1545 52.7867 33.5812 52.9467 34.0212 53.08C34.4745 53.2133 35.0278 53.28 35.6812 53.28C36.5345 53.28 37.1745 53.0867 37.6012 52.7C38.0412 52.3267 38.3278 51.84 38.4612 51.24L38.5412 50.86C38.2745 50.9933 37.9878 51.1 37.6812 51.18C37.3878 51.26 37.0745 51.3 36.7412 51.3C36.1145 51.3 35.5745 51.2067 35.1212 51.02C34.6678 50.82 34.2945 50.5467 34.0012 50.2C33.7212 49.8533 33.5078 49.4467 33.3612 48.98C33.2278 48.5 33.1612 47.98 33.1612 47.42C33.1612 46.4067 33.3478 45.5133 33.7212 44.74C34.0945 43.9533 34.5878 43.3 35.2012 42.78C35.8278 42.26 36.5412 41.8667 37.3412 41.6C38.1545 41.3333 39.0012 41.2 39.8812 41.2C40.5212 41.2 41.1545 41.2667 41.7812 41.4C42.4078 41.5333 43.0212 41.74 43.6212 42.02L41.5612 50.68ZM40.2412 43.78C40.0145 43.7267 39.7345 43.7 39.4012 43.7C38.8945 43.7 38.4412 43.7933 38.0412 43.98C37.6412 44.1533 37.2945 44.3933 37.0012 44.7C36.7212 45.0067 36.5012 45.38 36.3412 45.82C36.1945 46.2467 36.1212 46.7067 36.1212 47.2C36.1212 47.44 36.1412 47.6667 36.1812 47.88C36.2212 48.08 36.2945 48.26 36.4012 48.42C36.5078 48.5667 36.6545 48.6867 36.8412 48.78C37.0278 48.8733 37.2612 48.92 37.5412 48.92C37.7278 48.92 37.9745 48.8867 38.2812 48.82C38.6012 48.7533 38.8878 48.6 39.1412 48.36L40.2412 43.78ZM52.3133 44.04C52.0466 43.9733 51.7799 43.9133 51.5133 43.86C51.2599 43.7933 50.8799 43.76 50.3733 43.76C50.1866 43.76 49.9799 43.78 49.7533 43.82C49.5266 43.8467 49.3399 43.88 49.1933 43.92L47.2533 52H44.2733L46.6733 42.04C47.2466 41.8533 47.8866 41.68 48.5933 41.52C49.3133 41.3467 50.1199 41.26 51.0133 41.26C51.3466 41.26 51.7133 41.2933 52.1133 41.36C52.5266 41.4133 52.8866 41.5067 53.1933 41.64L52.3133 44.04ZM62.7808 47.46C62.5942 48.22 62.5408 48.9867 62.6208 49.76C62.7008 50.52 62.8542 51.2 63.0808 51.8L60.4208 52.18C60.3408 52.02 60.2675 51.8667 60.2008 51.72C60.1342 51.5733 60.0675 51.4067 60.0008 51.22C59.6275 51.5267 59.2142 51.78 58.7608 51.98C58.3075 52.18 57.8008 52.28 57.2408 52.28C56.5742 52.28 56.0008 52.1667 55.5208 51.94C55.0542 51.7 54.6675 51.3867 54.3608 51C54.0675 50.6 53.8542 50.14 53.7208 49.62C53.5875 49.0867 53.5208 48.52 53.5208 47.92C53.5208 47 53.6808 46.1333 54.0008 45.32C54.3342 44.5067 54.7875 43.8 55.3608 43.2C55.9475 42.5867 56.6342 42.1067 57.4208 41.76C58.2075 41.4133 59.0608 41.24 59.9808 41.24C60.1008 41.24 60.3075 41.2467 60.6008 41.26C60.9075 41.2733 61.2542 41.3067 61.6408 41.36C62.0275 41.4 62.4342 41.4733 62.8608 41.58C63.2875 41.6867 63.6942 41.8333 64.0808 42.02L62.7808 47.46ZM60.7008 43.78C60.5275 43.7533 60.3675 43.7333 60.2208 43.72C60.0875 43.7067 59.9208 43.7 59.7208 43.7C59.2675 43.7 58.8408 43.8133 58.4408 44.04C58.0542 44.2667 57.7142 44.5667 57.4208 44.94C57.1275 45.3 56.8942 45.72 56.7208 46.2C56.5608 46.68 56.4808 47.18 56.4808 47.7C56.4808 48.34 56.5875 48.8467 56.8008 49.22C57.0142 49.5933 57.4075 49.78 57.9808 49.78C58.2875 49.78 58.5608 49.72 58.8008 49.6C59.0542 49.48 59.3208 49.28 59.6008 49C59.6275 48.6667 59.6675 48.32 59.7208 47.96C59.7875 47.5867 59.8542 47.2467 59.9208 46.94L60.7008 43.78ZM67.5431 41.96C67.7698 41.8933 68.0098 41.82 68.2631 41.74C68.5298 41.6467 68.8231 41.5667 69.1431 41.5C69.4764 41.42 69.8431 41.36 70.2431 41.32C70.6564 41.2667 71.1298 41.24 71.6631 41.24C72.3031 41.24 72.8298 41.32 73.2431 41.48C73.6698 41.64 74.0564 41.88 74.4031 42.2C74.8964 41.92 75.3831 41.6933 75.8631 41.52C76.3564 41.3333 76.9298 41.24 77.5831 41.24C78.2098 41.24 78.7431 41.3267 79.1831 41.5C79.6364 41.66 80.0098 41.9 80.3031 42.22C80.5964 42.5267 80.8098 42.9 80.9431 43.34C81.0764 43.7667 81.1431 44.24 81.1431 44.76C81.1431 45 81.1231 45.2533 81.0831 45.52C81.0564 45.7867 81.0098 46.0533 80.9431 46.32L79.5831 52H76.6031L77.9231 46.44C77.9631 46.2533 78.0031 46.0467 78.0431 45.82C78.0964 45.58 78.1231 45.3467 78.1231 45.12C78.1231 44.7467 78.0364 44.4267 77.8631 44.16C77.6898 43.88 77.3498 43.74 76.8431 43.74C76.5631 43.74 76.2964 43.7933 76.0431 43.9C75.7898 43.9933 75.5631 44.0933 75.3631 44.2C75.3898 44.3067 75.4031 44.4067 75.4031 44.5C75.4031 44.5933 75.4031 44.68 75.4031 44.76C75.4031 45 75.3831 45.2533 75.3431 45.52C75.3164 45.7867 75.2698 46.0533 75.2031 46.32L73.8431 52H70.8631L72.1831 46.44C72.2231 46.2533 72.2631 46.0467 72.3031 45.82C72.3564 45.58 72.3831 45.3467 72.3831 45.12C72.3831 44.7467 72.2964 44.4267 72.1231 44.16C71.9498 43.88 71.6098 43.74 71.1031 43.74C70.8898 43.74 70.7098 43.7533 70.5631 43.78C70.4164 43.7933 70.2431 43.82 70.0431 43.86L68.1031 52H65.1231L67.5431 41.96ZM85.9016 48.96C85.8616 50.12 85.5683 51.22 85.0216 52.26C84.4883 53.3 83.8349 54.3 83.0616 55.26L80.8816 54.68C81.3883 53.8 81.8149 52.8867 82.1616 51.94C82.5083 50.9933 82.7149 50 82.7816 48.96H85.9016ZM100.175 41.26C100.815 41.26 101.368 41.3733 101.835 41.6C102.301 41.8267 102.688 42.1333 102.995 42.52C103.301 42.9067 103.528 43.36 103.675 43.88C103.821 44.4 103.895 44.96 103.895 45.56C103.895 46.48 103.721 47.3533 103.375 48.18C103.041 48.9933 102.581 49.7067 101.995 50.32C101.408 50.92 100.715 51.4 99.9147 51.76C99.1147 52.1067 98.248 52.28 97.3147 52.28C97.1947 52.28 96.9814 52.2733 96.6747 52.26C96.3814 52.26 96.0414 52.2333 95.6547 52.18C95.268 52.1267 94.8547 52.0467 94.4147 51.94C93.988 51.8333 93.5814 51.6867 93.1947 51.5L96.6547 36.96L99.7547 36.48L98.5147 41.64C98.7814 41.52 99.048 41.4267 99.3147 41.36C99.5814 41.2933 99.868 41.26 100.175 41.26ZM97.5747 49.82C98.0414 49.82 98.4814 49.7067 98.8947 49.48C99.308 49.2533 99.6614 48.9533 99.9547 48.58C100.261 48.1933 100.501 47.76 100.675 47.28C100.848 46.8 100.935 46.3 100.935 45.78C100.935 45.14 100.828 44.64 100.615 44.28C100.401 43.92 100.008 43.74 99.4347 43.74C99.248 43.74 99.0014 43.7733 98.6947 43.84C98.4014 43.9067 98.1347 44.0467 97.8947 44.26L96.5747 49.74C96.6547 49.7533 96.7214 49.7667 96.7747 49.78C96.8414 49.7933 96.908 49.8067 96.9747 49.82C97.0414 49.82 97.1214 49.82 97.2147 49.82C97.308 49.82 97.428 49.82 97.5747 49.82ZM116.163 41.48L114.743 47.46C114.556 48.22 114.503 48.9867 114.583 49.76C114.663 50.52 114.816 51.2 115.043 51.8L112.383 52.18C112.236 51.8867 112.096 51.56 111.963 51.2C111.59 51.4933 111.17 51.74 110.703 51.94C110.236 52.14 109.716 52.24 109.143 52.24C108.356 52.24 107.716 52.1 107.223 51.82C106.743 51.5267 106.383 51.1467 106.143 50.68C105.903 50.2 105.77 49.6533 105.743 49.04C105.73 48.4267 105.803 47.8 105.963 47.16L107.323 41.48H110.303L108.963 47.12C108.896 47.4133 108.836 47.7133 108.783 48.02C108.743 48.3267 108.743 48.6133 108.783 48.88C108.823 49.1333 108.923 49.3467 109.083 49.52C109.256 49.68 109.523 49.76 109.883 49.76C110.19 49.76 110.47 49.7067 110.723 49.6C110.99 49.48 111.27 49.28 111.563 49C111.59 48.6667 111.63 48.32 111.683 47.96C111.75 47.5867 111.816 47.2467 111.883 46.94L113.183 41.48H116.163ZM120.069 38.86L123.169 38.38L122.409 41.48H125.729L125.129 43.92H121.829L120.949 47.6C120.869 47.9067 120.815 48.1933 120.789 48.46C120.775 48.7267 120.809 48.96 120.889 49.16C120.982 49.3467 121.135 49.4933 121.349 49.6C121.562 49.7067 121.855 49.76 122.229 49.76C122.549 49.76 122.855 49.7333 123.149 49.68C123.455 49.6133 123.762 49.5267 124.069 49.42L124.289 51.7C123.889 51.8467 123.455 51.9733 122.989 52.08C122.522 52.1867 121.969 52.24 121.329 52.24C120.409 52.24 119.695 52.1067 119.189 51.84C118.682 51.56 118.322 51.1867 118.109 50.72C117.895 50.24 117.802 49.6933 117.829 49.08C117.855 48.4667 117.949 47.82 118.109 47.14L120.069 38.86ZM135.562 52.28C134.896 52.28 134.322 52.1667 133.842 51.94C133.376 51.7133 132.989 51.4067 132.682 51.02C132.389 50.62 132.169 50.16 132.022 49.64C131.889 49.1067 131.822 48.54 131.822 47.94C131.822 47.0333 131.982 46.18 132.302 45.38C132.636 44.5667 133.089 43.86 133.662 43.26C134.236 42.66 134.916 42.1867 135.702 41.84C136.489 41.4933 137.349 41.32 138.282 41.32C138.522 41.32 138.742 41.3333 138.942 41.36C139.156 41.3867 139.369 41.4267 139.582 41.48L140.662 36.96L143.762 36.48L141.122 47.46C140.936 48.22 140.882 48.9867 140.962 49.76C141.042 50.52 141.196 51.2 141.422 51.8L138.762 52.18C138.682 52.02 138.609 51.8667 138.542 51.72C138.476 51.5733 138.409 51.4067 138.342 51.22C137.969 51.5267 137.549 51.78 137.082 51.98C136.629 52.18 136.122 52.28 135.562 52.28ZM139.002 43.86C138.922 43.8467 138.849 43.8333 138.782 43.82C138.729 43.8067 138.669 43.8 138.602 43.8C138.549 43.7867 138.476 43.78 138.382 43.78C138.289 43.78 138.169 43.78 138.022 43.78C137.556 43.78 137.122 43.8933 136.722 44.12C136.322 44.3333 135.976 44.6267 135.682 45C135.402 45.3733 135.182 45.8 135.022 46.28C134.862 46.7467 134.782 47.2267 134.782 47.72C134.782 48.36 134.889 48.8667 135.102 49.24C135.329 49.6 135.729 49.78 136.302 49.78C136.609 49.78 136.889 49.72 137.142 49.6C137.396 49.48 137.662 49.28 137.942 49C137.969 48.6667 138.009 48.32 138.062 47.96C138.129 47.5867 138.196 47.2467 138.262 46.94L139.002 43.86ZM146.424 52H143.464L145.964 41.48H148.944L146.424 52ZM147.864 40.2C147.45 40.2 147.077 40.08 146.744 39.84C146.41 39.5867 146.244 39.2067 146.244 38.7C146.244 38.42 146.297 38.16 146.404 37.92C146.524 37.6667 146.677 37.4533 146.864 37.28C147.05 37.0933 147.264 36.9467 147.504 36.84C147.757 36.7333 148.024 36.68 148.304 36.68C148.717 36.68 149.09 36.8067 149.424 37.06C149.757 37.3 149.924 37.6733 149.924 38.18C149.924 38.46 149.864 38.7267 149.744 38.98C149.637 39.22 149.49 39.4333 149.304 39.62C149.117 39.7933 148.897 39.9333 148.644 40.04C148.404 40.1467 148.144 40.2 147.864 40.2ZM152.992 49.88C153.672 49.88 154.139 49.7867 154.392 49.6C154.646 49.4 154.772 49.1867 154.772 48.96C154.772 48.8133 154.746 48.6867 154.692 48.58C154.652 48.4733 154.579 48.3733 154.472 48.28C154.366 48.1867 154.219 48.0933 154.032 48C153.846 47.8933 153.606 47.7733 153.312 47.64C152.979 47.4933 152.666 47.34 152.372 47.18C152.079 47.0067 151.819 46.8067 151.592 46.58C151.379 46.34 151.206 46.0733 151.072 45.78C150.952 45.4733 150.892 45.1133 150.892 44.7C150.892 43.62 151.286 42.7667 152.072 42.14C152.872 41.5133 154.032 41.2 155.552 41.2C156.272 41.2 156.912 41.28 157.472 41.44C158.032 41.6 158.486 41.7733 158.832 41.96L157.812 44.18C157.532 44.0333 157.172 43.8933 156.732 43.76C156.292 43.6267 155.859 43.56 155.432 43.56C155.246 43.56 155.059 43.5733 154.872 43.6C154.699 43.6133 154.532 43.6533 154.372 43.72C154.226 43.7867 154.106 43.88 154.012 44C153.919 44.12 153.872 44.28 153.872 44.48C153.872 44.7467 153.972 44.9467 154.172 45.08C154.386 45.2133 154.679 45.3733 155.052 45.56C155.572 45.8133 156.006 46.0467 156.352 46.26C156.699 46.4733 156.972 46.7 157.172 46.94C157.386 47.18 157.539 47.4533 157.632 47.76C157.726 48.0667 157.772 48.4267 157.772 48.84C157.772 49.2667 157.679 49.6867 157.492 50.1C157.319 50.5133 157.039 50.88 156.652 51.2C156.266 51.52 155.772 51.78 155.172 51.98C154.572 52.18 153.852 52.28 153.012 52.28C152.492 52.28 152.019 52.2467 151.592 52.18C151.179 52.1133 150.812 52.0333 150.492 51.94C150.172 51.8333 149.899 51.7267 149.672 51.62C149.459 51.5133 149.292 51.4267 149.172 51.36L150.192 49.08C150.419 49.2133 150.772 49.38 151.252 49.58C151.732 49.78 152.312 49.88 152.992 49.88ZM160.285 47.8C160.285 46.8933 160.431 46.04 160.725 45.24C161.018 44.44 161.438 43.74 161.985 43.14C162.531 42.54 163.191 42.0667 163.965 41.72C164.751 41.3733 165.625 41.2 166.585 41.2C167.185 41.2 167.718 41.26 168.185 41.38C168.665 41.4867 169.098 41.6333 169.485 41.82L168.465 44.14C168.198 44.0333 167.918 43.94 167.625 43.86C167.345 43.7667 166.998 43.72 166.585 43.72C165.585 43.72 164.798 44.06 164.225 44.74C163.651 45.4067 163.365 46.32 163.365 47.48C163.365 48.16 163.511 48.7133 163.805 49.14C164.098 49.5533 164.638 49.76 165.425 49.76C165.811 49.76 166.185 49.72 166.545 49.64C166.905 49.56 167.225 49.46 167.505 49.34L167.725 51.72C167.351 51.8667 166.938 51.9933 166.485 52.1C166.045 52.22 165.505 52.28 164.865 52.28C164.038 52.28 163.338 52.16 162.765 51.92C162.191 51.68 161.718 51.36 161.345 50.96C160.971 50.5467 160.698 50.0667 160.525 49.52C160.365 48.9733 160.285 48.4 160.285 47.8ZM180.759 41.48L179.339 47.46C179.152 48.22 179.099 48.9867 179.179 49.76C179.259 50.52 179.412 51.2 179.639 51.8L176.979 52.18C176.832 51.8867 176.692 51.56 176.559 51.2C176.185 51.4933 175.765 51.74 175.299 51.94C174.832 52.14 174.312 52.24 173.739 52.24C172.952 52.24 172.312 52.1 171.819 51.82C171.339 51.5267 170.979 51.1467 170.739 50.68C170.499 50.2 170.365 49.6533 170.339 49.04C170.325 48.4267 170.399 47.8 170.559 47.16L171.919 41.48H174.899L173.559 47.12C173.492 47.4133 173.432 47.7133 173.379 48.02C173.339 48.3267 173.339 48.6133 173.379 48.88C173.419 49.1333 173.519 49.3467 173.679 49.52C173.852 49.68 174.119 49.76 174.479 49.76C174.785 49.76 175.065 49.7067 175.319 49.6C175.585 49.48 175.865 49.28 176.159 49C176.185 48.6667 176.225 48.32 176.279 47.96C176.345 47.5867 176.412 47.2467 176.479 46.94L177.779 41.48H180.759ZM185.224 49.88C185.904 49.88 186.371 49.7867 186.624 49.6C186.877 49.4 187.004 49.1867 187.004 48.96C187.004 48.8133 186.977 48.6867 186.924 48.58C186.884 48.4733 186.811 48.3733 186.704 48.28C186.597 48.1867 186.451 48.0933 186.264 48C186.077 47.8933 185.837 47.7733 185.544 47.64C185.211 47.4933 184.897 47.34 184.604 47.18C184.311 47.0067 184.051 46.8067 183.824 46.58C183.611 46.34 183.437 46.0733 183.304 45.78C183.184 45.4733 183.124 45.1133 183.124 44.7C183.124 43.62 183.517 42.7667 184.304 42.14C185.104 41.5133 186.264 41.2 187.784 41.2C188.504 41.2 189.144 41.28 189.704 41.44C190.264 41.6 190.717 41.7733 191.064 41.96L190.044 44.18C189.764 44.0333 189.404 43.8933 188.964 43.76C188.524 43.6267 188.091 43.56 187.664 43.56C187.477 43.56 187.291 43.5733 187.104 43.6C186.931 43.6133 186.764 43.6533 186.604 43.72C186.457 43.7867 186.337 43.88 186.244 44C186.151 44.12 186.104 44.28 186.104 44.48C186.104 44.7467 186.204 44.9467 186.404 45.08C186.617 45.2133 186.911 45.3733 187.284 45.56C187.804 45.8133 188.237 46.0467 188.584 46.26C188.931 46.4733 189.204 46.7 189.404 46.94C189.617 47.18 189.771 47.4533 189.864 47.76C189.957 48.0667 190.004 48.4267 190.004 48.84C190.004 49.2667 189.911 49.6867 189.724 50.1C189.551 50.5133 189.271 50.88 188.884 51.2C188.497 51.52 188.004 51.78 187.404 51.98C186.804 52.18 186.084 52.28 185.244 52.28C184.724 52.28 184.251 52.2467 183.824 52.18C183.411 52.1133 183.044 52.0333 182.724 51.94C182.404 51.8333 182.131 51.7267 181.904 51.62C181.691 51.5133 181.524 51.4267 181.404 51.36L182.424 49.08C182.651 49.2133 183.004 49.38 183.484 49.58C183.964 49.78 184.544 49.88 185.224 49.88ZM195.336 49.88C196.016 49.88 196.483 49.7867 196.736 49.6C196.99 49.4 197.116 49.1867 197.116 48.96C197.116 48.8133 197.09 48.6867 197.036 48.58C196.996 48.4733 196.923 48.3733 196.816 48.28C196.71 48.1867 196.563 48.0933 196.376 48C196.19 47.8933 195.95 47.7733 195.656 47.64C195.323 47.4933 195.01 47.34 194.716 47.18C194.423 47.0067 194.163 46.8067 193.936 46.58C193.723 46.34 193.55 46.0733 193.416 45.78C193.296 45.4733 193.236 45.1133 193.236 44.7C193.236 43.62 193.63 42.7667 194.416 42.14C195.216 41.5133 196.376 41.2 197.896 41.2C198.616 41.2 199.256 41.28 199.816 41.44C200.376 41.6 200.83 41.7733 201.176 41.96L200.156 44.18C199.876 44.0333 199.516 43.8933 199.076 43.76C198.636 43.6267 198.203 43.56 197.776 43.56C197.59 43.56 197.403 43.5733 197.216 43.6C197.043 43.6133 196.876 43.6533 196.716 43.72C196.57 43.7867 196.45 43.88 196.356 44C196.263 44.12 196.216 44.28 196.216 44.48C196.216 44.7467 196.316 44.9467 196.516 45.08C196.73 45.2133 197.023 45.3733 197.396 45.56C197.916 45.8133 198.35 46.0467 198.696 46.26C199.043 46.4733 199.316 46.7 199.516 46.94C199.73 47.18 199.883 47.4533 199.976 47.76C200.07 48.0667 200.116 48.4267 200.116 48.84C200.116 49.2667 200.023 49.6867 199.836 50.1C199.663 50.5133 199.383 50.88 198.996 51.2C198.61 51.52 198.116 51.78 197.516 51.98C196.916 52.18 196.196 52.28 195.356 52.28C194.836 52.28 194.363 52.2467 193.936 52.18C193.523 52.1133 193.156 52.0333 192.836 51.94C192.516 51.8333 192.243 51.7267 192.016 51.62C191.803 51.5133 191.636 51.4267 191.516 51.36L192.536 49.08C192.763 49.2133 193.116 49.38 193.596 49.58C194.076 49.78 194.656 49.88 195.336 49.88ZM205.722 48.96C205.682 50.12 205.389 51.22 204.842 52.26C204.309 53.3 203.656 54.3 202.882 55.26L200.702 54.68C201.209 53.8 201.636 52.8867 201.982 51.94C202.329 50.9933 202.536 50 202.602 48.96H205.722ZM215.635 52C215.289 50.6667 214.975 49.1133 214.695 47.34C214.415 45.5533 214.222 43.6 214.115 41.48H217.195C217.209 42 217.229 42.5733 217.255 43.2C217.282 43.8133 217.315 44.4333 217.355 45.06C217.395 45.6867 217.442 46.3 217.495 46.9C217.549 47.4867 217.609 48.02 217.675 48.5C217.969 48.1 218.295 47.6067 218.655 47.02C219.029 46.4333 219.389 45.82 219.735 45.18C220.082 44.54 220.402 43.9 220.695 43.26C220.989 42.6067 221.215 42.0133 221.375 41.48H224.535C224.189 42.4267 223.755 43.4 223.235 44.4C222.729 45.4 222.182 46.3667 221.595 47.3C221.009 48.2333 220.409 49.1067 219.795 49.92C219.195 50.7333 218.635 51.4267 218.115 52H215.635ZM234.238 47.46C234.051 48.22 233.998 48.9867 234.078 49.76C234.158 50.52 234.311 51.2 234.538 51.8L231.878 52.18C231.798 52.02 231.725 51.8667 231.658 51.72C231.591 51.5733 231.525 51.4067 231.458 51.22C231.085 51.5267 230.671 51.78 230.218 51.98C229.765 52.18 229.258 52.28 228.698 52.28C228.031 52.28 227.458 52.1667 226.978 51.94C226.511 51.7 226.125 51.3867 225.818 51C225.525 50.6 225.311 50.14 225.178 49.62C225.045 49.0867 224.978 48.52 224.978 47.92C224.978 47 225.138 46.1333 225.458 45.32C225.791 44.5067 226.245 43.8 226.818 43.2C227.405 42.5867 228.091 42.1067 228.878 41.76C229.665 41.4133 230.518 41.24 231.438 41.24C231.558 41.24 231.765 41.2467 232.058 41.26C232.365 41.2733 232.711 41.3067 233.098 41.36C233.485 41.4 233.891 41.4733 234.318 41.58C234.745 41.6867 235.151 41.8333 235.538 42.02L234.238 47.46ZM232.158 43.78C231.985 43.7533 231.825 43.7333 231.678 43.72C231.545 43.7067 231.378 43.7 231.178 43.7C230.725 43.7 230.298 43.8133 229.898 44.04C229.511 44.2667 229.171 44.5667 228.878 44.94C228.585 45.3 228.351 45.72 228.178 46.2C228.018 46.68 227.938 47.18 227.938 47.7C227.938 48.34 228.045 48.8467 228.258 49.22C228.471 49.5933 228.865 49.78 229.438 49.78C229.745 49.78 230.018 49.72 230.258 49.6C230.511 49.48 230.778 49.28 231.058 49C231.085 48.6667 231.125 48.32 231.178 47.96C231.245 47.5867 231.311 47.2467 231.378 46.94L232.158 43.78ZM240.94 52.2C239.993 52.2 239.247 52.08 238.7 51.84C238.167 51.5867 237.78 51.2467 237.54 50.82C237.313 50.3933 237.2 49.9067 237.2 49.36C237.213 48.8 237.293 48.2067 237.44 47.58L239.98 36.96L243.08 36.48L240.3 48C240.247 48.24 240.213 48.46 240.2 48.66C240.2 48.86 240.24 49.04 240.32 49.2C240.4 49.3467 240.533 49.4667 240.72 49.56C240.92 49.6533 241.193 49.7133 241.54 49.74L240.94 52.2ZM246.293 52H243.333L245.833 41.48H248.813L246.293 52ZM247.733 40.2C247.32 40.2 246.946 40.08 246.613 39.84C246.28 39.5867 246.113 39.2067 246.113 38.7C246.113 38.42 246.166 38.16 246.273 37.92C246.393 37.6667 246.547 37.4533 246.733 37.28C246.92 37.0933 247.133 36.9467 247.373 36.84C247.627 36.7333 247.893 36.68 248.173 36.68C248.587 36.68 248.96 36.8067 249.293 37.06C249.627 37.3 249.793 37.6733 249.793 38.18C249.793 38.46 249.733 38.7267 249.613 38.98C249.507 39.22 249.36 39.4333 249.173 39.62C248.987 39.7933 248.767 39.9333 248.513 40.04C248.273 40.1467 248.013 40.2 247.733 40.2ZM253.782 52.28C253.115 52.28 252.542 52.1667 252.062 51.94C251.595 51.7133 251.208 51.4067 250.902 51.02C250.608 50.62 250.388 50.16 250.242 49.64C250.108 49.1067 250.042 48.54 250.042 47.94C250.042 47.0333 250.202 46.18 250.522 45.38C250.855 44.5667 251.308 43.86 251.882 43.26C252.455 42.66 253.135 42.1867 253.922 41.84C254.708 41.4933 255.568 41.32 256.502 41.32C256.742 41.32 256.962 41.3333 257.162 41.36C257.375 41.3867 257.588 41.4267 257.802 41.48L258.882 36.96L261.982 36.48L259.342 47.46C259.155 48.22 259.102 48.9867 259.182 49.76C259.262 50.52 259.415 51.2 259.642 51.8L256.982 52.18C256.902 52.02 256.828 51.8667 256.762 51.72C256.695 51.5733 256.628 51.4067 256.562 51.22C256.188 51.5267 255.768 51.78 255.302 51.98C254.848 52.18 254.342 52.28 253.782 52.28ZM257.222 43.86C257.142 43.8467 257.068 43.8333 257.002 43.82C256.948 43.8067 256.888 43.8 256.822 43.8C256.768 43.7867 256.695 43.78 256.602 43.78C256.508 43.78 256.388 43.78 256.242 43.78C255.775 43.78 255.342 43.8933 254.942 44.12C254.542 44.3333 254.195 44.6267 253.902 45C253.622 45.3733 253.402 45.8 253.242 46.28C253.082 46.7467 253.002 47.2267 253.002 47.72C253.002 48.36 253.108 48.8667 253.322 49.24C253.548 49.6 253.948 49.78 254.522 49.78C254.828 49.78 255.108 49.72 255.362 49.6C255.615 49.48 255.882 49.28 256.162 49C256.188 48.6667 256.228 48.32 256.282 47.96C256.348 47.5867 256.415 47.2467 256.482 46.94L257.222 43.86ZM271.543 47.46C271.356 48.22 271.303 48.9867 271.383 49.76C271.463 50.52 271.616 51.2 271.843 51.8L269.183 52.18C269.103 52.02 269.03 51.8667 268.963 51.72C268.896 51.5733 268.83 51.4067 268.763 51.22C268.39 51.5267 267.976 51.78 267.523 51.98C267.07 52.18 266.563 52.28 266.003 52.28C265.336 52.28 264.763 52.1667 264.283 51.94C263.816 51.7 263.43 51.3867 263.123 51C262.83 50.6 262.616 50.14 262.483 49.62C262.35 49.0867 262.283 48.52 262.283 47.92C262.283 47 262.443 46.1333 262.763 45.32C263.096 44.5067 263.55 43.8 264.123 43.2C264.71 42.5867 265.396 42.1067 266.183 41.76C266.97 41.4133 267.823 41.24 268.743 41.24C268.863 41.24 269.07 41.2467 269.363 41.26C269.67 41.2733 270.016 41.3067 270.403 41.36C270.79 41.4 271.196 41.4733 271.623 41.58C272.05 41.6867 272.456 41.8333 272.843 42.02L271.543 47.46ZM269.463 43.78C269.29 43.7533 269.13 43.7333 268.983 43.72C268.85 43.7067 268.683 43.7 268.483 43.7C268.03 43.7 267.603 43.8133 267.203 44.04C266.816 44.2667 266.476 44.5667 266.183 44.94C265.89 45.3 265.656 45.72 265.483 46.2C265.323 46.68 265.243 47.18 265.243 47.7C265.243 48.34 265.35 48.8467 265.563 49.22C265.776 49.5933 266.17 49.78 266.743 49.78C267.05 49.78 267.323 49.72 267.563 49.6C267.816 49.48 268.083 49.28 268.363 49C268.39 48.6667 268.43 48.32 268.483 47.96C268.55 47.5867 268.616 47.2467 268.683 46.94L269.463 43.78ZM276.745 38.86L279.845 38.38L279.085 41.48H282.405L281.805 43.92H278.505L277.625 47.6C277.545 47.9067 277.492 48.1933 277.465 48.46C277.452 48.7267 277.485 48.96 277.565 49.16C277.659 49.3467 277.812 49.4933 278.025 49.6C278.239 49.7067 278.532 49.76 278.905 49.76C279.225 49.76 279.532 49.7333 279.825 49.68C280.132 49.6133 280.439 49.5267 280.745 49.42L280.965 51.7C280.565 51.8467 280.132 51.9733 279.665 52.08C279.199 52.1867 278.645 52.24 278.005 52.24C277.085 52.24 276.372 52.1067 275.865 51.84C275.359 51.56 274.999 51.1867 274.785 50.72C274.572 50.24 274.479 49.6933 274.505 49.08C274.532 48.4667 274.625 47.82 274.785 47.14L276.745 38.86ZM282.957 47.88C282.957 47.0267 283.104 46.2 283.397 45.4C283.704 44.6 284.13 43.8933 284.677 43.28C285.224 42.6533 285.884 42.1533 286.657 41.78C287.444 41.3933 288.31 41.2 289.257 41.2C289.724 41.2 290.157 41.2667 290.557 41.4C290.957 41.5333 291.304 41.7267 291.597 41.98C291.904 42.2333 292.137 42.5467 292.297 42.92C292.47 43.28 292.557 43.6933 292.557 44.16C292.557 44.9067 292.39 45.54 292.057 46.06C291.724 46.58 291.257 47.0067 290.657 47.34C290.07 47.66 289.37 47.8933 288.557 48.04C287.744 48.1867 286.857 48.26 285.897 48.26C285.99 48.82 286.19 49.22 286.497 49.46C286.817 49.6867 287.317 49.8 287.997 49.8C288.424 49.8 288.857 49.7667 289.297 49.7C289.737 49.62 290.15 49.5067 290.537 49.36L290.757 51.7C290.384 51.8467 289.904 51.98 289.317 52.1C288.744 52.22 288.117 52.28 287.437 52.28C286.61 52.28 285.91 52.1667 285.337 51.94C284.777 51.7 284.317 51.38 283.957 50.98C283.61 50.58 283.357 50.1133 283.197 49.58C283.037 49.0467 282.957 48.48 282.957 47.88ZM288.777 43.56C288.097 43.56 287.497 43.8067 286.977 44.3C286.47 44.78 286.137 45.42 285.977 46.22C286.804 46.1933 287.47 46.1267 287.977 46.02C288.484 45.9 288.877 45.76 289.157 45.6C289.437 45.44 289.624 45.2667 289.717 45.08C289.81 44.8933 289.857 44.7067 289.857 44.52C289.857 43.88 289.497 43.56 288.777 43.56ZM296.827 48.96C296.787 50.12 296.494 51.22 295.947 52.26C295.414 53.3 294.76 54.3 293.987 55.26L291.807 54.68C292.314 53.8 292.74 52.8867 293.087 51.94C293.434 50.9933 293.64 50 293.707 48.96H296.827ZM24.0159 70.46C23.8292 71.22 23.7759 71.9867 23.8559 72.76C23.9359 73.52 24.0892 74.2 24.3159 74.8L21.6559 75.18C21.5759 75.02 21.5025 74.8667 21.4359 74.72C21.3692 74.5733 21.3025 74.4067 21.2359 74.22C20.8625 74.5267 20.4492 74.78 19.9959 74.98C19.5425 75.18 19.0359 75.28 18.4759 75.28C17.8092 75.28 17.2359 75.1667 16.7559 74.94C16.2892 74.7 15.9025 74.3867 15.5959 74C15.3025 73.6 15.0892 73.14 14.9559 72.62C14.8225 72.0867 14.7559 71.52 14.7559 70.92C14.7559 70 14.9159 69.1333 15.2359 68.32C15.5692 67.5067 16.0225 66.8 16.5959 66.2C17.1825 65.5867 17.8692 65.1067 18.6559 64.76C19.4425 64.4133 20.2959 64.24 21.2159 64.24C21.3359 64.24 21.5425 64.2467 21.8359 64.26C22.1425 64.2733 22.4892 64.3067 22.8759 64.36C23.2625 64.4 23.6692 64.4733 24.0959 64.58C24.5225 64.6867 24.9292 64.8333 25.3159 65.02L24.0159 70.46ZM21.9359 66.78C21.7625 66.7533 21.6025 66.7333 21.4559 66.72C21.3225 66.7067 21.1559 66.7 20.9559 66.7C20.5025 66.7 20.0759 66.8133 19.6759 67.04C19.2892 67.2667 18.9492 67.5667 18.6559 67.94C18.3625 68.3 18.1292 68.72 17.9559 69.2C17.7959 69.68 17.7159 70.18 17.7159 70.7C17.7159 71.34 17.8225 71.8467 18.0359 72.22C18.2492 72.5933 18.6425 72.78 19.2159 72.78C19.5225 72.78 19.7959 72.72 20.0359 72.6C20.2892 72.48 20.5559 72.28 20.8359 72C20.8625 71.6667 20.9025 71.32 20.9559 70.96C21.0225 70.5867 21.0892 70.2467 21.1559 69.94L21.9359 66.78ZM28.7781 64.96C29.0048 64.8933 29.2515 64.82 29.5181 64.74C29.7981 64.6467 30.1048 64.5667 30.4381 64.5C30.7848 64.42 31.1648 64.36 31.5781 64.32C32.0048 64.2667 32.4848 64.24 33.0181 64.24C34.5915 64.24 35.6715 64.6933 36.2581 65.6C36.8448 66.5067 36.9448 67.7467 36.5581 69.32L35.1981 75H32.2181L33.5381 69.44C33.6181 69.0933 33.6781 68.76 33.7181 68.44C33.7715 68.1067 33.7715 67.82 33.7181 67.58C33.6648 67.3267 33.5381 67.1267 33.3381 66.98C33.1515 66.82 32.8581 66.74 32.4581 66.74C32.0715 66.74 31.6781 66.78 31.2781 66.86L29.3381 75H26.3581L28.7781 64.96ZM42.4902 75.28C41.8236 75.28 41.2502 75.1667 40.7702 74.94C40.3036 74.7133 39.9169 74.4067 39.6102 74.02C39.3169 73.62 39.0969 73.16 38.9502 72.64C38.8169 72.1067 38.7502 71.54 38.7502 70.94C38.7502 70.0333 38.9102 69.18 39.2302 68.38C39.5636 67.5667 40.0169 66.86 40.5902 66.26C41.1636 65.66 41.8436 65.1867 42.6302 64.84C43.4169 64.4933 44.2769 64.32 45.2102 64.32C45.4502 64.32 45.6702 64.3333 45.8702 64.36C46.0836 64.3867 46.2969 64.4267 46.5102 64.48L47.5902 59.96L50.6902 59.48L48.0502 70.46C47.8636 71.22 47.8102 71.9867 47.8902 72.76C47.9702 73.52 48.1236 74.2 48.3502 74.8L45.6902 75.18C45.6102 75.02 45.5369 74.8667 45.4702 74.72C45.4036 74.5733 45.3369 74.4067 45.2702 74.22C44.8969 74.5267 44.4769 74.78 44.0102 74.98C43.5569 75.18 43.0502 75.28 42.4902 75.28ZM45.9302 66.86C45.8502 66.8467 45.7769 66.8333 45.7102 66.82C45.6569 66.8067 45.5969 66.8 45.5302 66.8C45.4769 66.7867 45.4036 66.78 45.3102 66.78C45.2169 66.78 45.0969 66.78 44.9502 66.78C44.4836 66.78 44.0502 66.8933 43.6502 67.12C43.2502 67.3333 42.9036 67.6267 42.6102 68C42.3302 68.3733 42.1102 68.8 41.9502 69.28C41.7902 69.7467 41.7102 70.2267 41.7102 70.72C41.7102 71.36 41.8169 71.8667 42.0302 72.24C42.2569 72.6 42.6569 72.78 43.2302 72.78C43.5369 72.78 43.8169 72.72 44.0702 72.6C44.3236 72.48 44.5902 72.28 44.8702 72C44.8969 71.6667 44.9369 71.32 44.9902 70.96C45.0569 70.5867 45.1236 70.2467 45.1902 69.94L45.9302 66.86ZM58.0607 64.96C58.2873 64.8933 58.5273 64.82 58.7807 64.74C59.0473 64.6467 59.3407 64.5667 59.6607 64.5C59.994 64.42 60.3607 64.36 60.7607 64.32C61.174 64.2667 61.6473 64.24 62.1807 64.24C62.8207 64.24 63.3473 64.32 63.7607 64.48C64.1873 64.64 64.574 64.88 64.9207 65.2C65.414 64.92 65.9007 64.6933 66.3807 64.52C66.874 64.3333 67.4473 64.24 68.1007 64.24C68.7273 64.24 69.2607 64.3267 69.7007 64.5C70.154 64.66 70.5273 64.9 70.8207 65.22C71.114 65.5267 71.3273 65.9 71.4607 66.34C71.594 66.7667 71.6607 67.24 71.6607 67.76C71.6607 68 71.6407 68.2533 71.6007 68.52C71.574 68.7867 71.5273 69.0533 71.4607 69.32L70.1007 75H67.1207L68.4407 69.44C68.4807 69.2533 68.5207 69.0467 68.5607 68.82C68.614 68.58 68.6407 68.3467 68.6407 68.12C68.6407 67.7467 68.554 67.4267 68.3807 67.16C68.2073 66.88 67.8673 66.74 67.3607 66.74C67.0807 66.74 66.814 66.7933 66.5607 66.9C66.3073 66.9933 66.0807 67.0933 65.8807 67.2C65.9073 67.3067 65.9207 67.4067 65.9207 67.5C65.9207 67.5933 65.9207 67.68 65.9207 67.76C65.9207 68 65.9007 68.2533 65.8607 68.52C65.834 68.7867 65.7873 69.0533 65.7207 69.32L64.3607 75H61.3807L62.7007 69.44C62.7407 69.2533 62.7807 69.0467 62.8207 68.82C62.874 68.58 62.9007 68.3467 62.9007 68.12C62.9007 67.7467 62.814 67.4267 62.6407 67.16C62.4673 66.88 62.1273 66.74 61.6207 66.74C61.4073 66.74 61.2273 66.7533 61.0807 66.78C60.934 66.7933 60.7607 66.82 60.5607 66.86L58.6207 75H55.6407L58.0607 64.96ZM84.0192 64.48L82.5992 70.46C82.4125 71.22 82.3592 71.9867 82.4392 72.76C82.5192 73.52 82.6725 74.2 82.8992 74.8L80.2392 75.18C80.0925 74.8867 79.9525 74.56 79.8192 74.2C79.4458 74.4933 79.0258 74.74 78.5592 74.94C78.0925 75.14 77.5725 75.24 76.9992 75.24C76.2125 75.24 75.5725 75.1 75.0792 74.82C74.5992 74.5267 74.2392 74.1467 73.9992 73.68C73.7592 73.2 73.6258 72.6533 73.5992 72.04C73.5858 71.4267 73.6592 70.8 73.8192 70.16L75.1792 64.48H78.1592L76.8192 70.12C76.7525 70.4133 76.6925 70.7133 76.6392 71.02C76.5992 71.3267 76.5992 71.6133 76.6392 71.88C76.6792 72.1333 76.7792 72.3467 76.9392 72.52C77.1125 72.68 77.3792 72.76 77.7392 72.76C78.0458 72.76 78.3258 72.7067 78.5792 72.6C78.8458 72.48 79.1258 72.28 79.4192 72C79.4458 71.6667 79.4858 71.32 79.5392 70.96C79.6058 70.5867 79.6725 70.2467 79.7392 69.94L81.0392 64.48H84.0192ZM87.9247 61.86L91.0247 61.38L90.2647 64.48H93.5847L92.9847 66.92H89.6847L88.8047 70.6C88.7247 70.9067 88.6714 71.1933 88.6447 71.46C88.6314 71.7267 88.6647 71.96 88.7447 72.16C88.838 72.3467 88.9914 72.4933 89.2047 72.6C89.418 72.7067 89.7114 72.76 90.0847 72.76C90.4047 72.76 90.7114 72.7333 91.0047 72.68C91.3114 72.6133 91.618 72.5267 91.9247 72.42L92.1447 74.7C91.7447 74.8467 91.3114 74.9733 90.8447 75.08C90.378 75.1867 89.8247 75.24 89.1847 75.24C88.2647 75.24 87.5514 75.1067 87.0447 74.84C86.538 74.56 86.178 74.1867 85.9647 73.72C85.7514 73.24 85.658 72.6933 85.6847 72.08C85.7114 71.4667 85.8047 70.82 85.9647 70.14L87.9247 61.86ZM104.849 64.48L103.429 70.46C103.243 71.22 103.189 71.9867 103.269 72.76C103.349 73.52 103.503 74.2 103.729 74.8L101.069 75.18C100.923 74.8867 100.783 74.56 100.649 74.2C100.276 74.4933 99.8561 74.74 99.3895 74.94C98.9228 75.14 98.4028 75.24 97.8295 75.24C97.0428 75.24 96.4028 75.1 95.9095 74.82C95.4295 74.5267 95.0695 74.1467 94.8295 73.68C94.5895 73.2 94.4561 72.6533 94.4295 72.04C94.4161 71.4267 94.4895 70.8 94.6495 70.16L96.0095 64.48H98.9895L97.6495 70.12C97.5828 70.4133 97.5228 70.7133 97.4695 71.02C97.4295 71.3267 97.4295 71.6133 97.4695 71.88C97.5095 72.1333 97.6095 72.3467 97.7695 72.52C97.9428 72.68 98.2095 72.76 98.5695 72.76C98.8761 72.76 99.1561 72.7067 99.4095 72.6C99.6761 72.48 99.9561 72.28 100.249 72C100.276 71.6667 100.316 71.32 100.369 70.96C100.436 70.5867 100.503 70.2467 100.569 69.94L101.869 64.48H104.849ZM115.56 70.46C115.373 71.22 115.32 71.9867 115.4 72.76C115.48 73.52 115.633 74.2 115.86 74.8L113.2 75.18C113.12 75.02 113.046 74.8667 112.98 74.72C112.913 74.5733 112.846 74.4067 112.78 74.22C112.406 74.5267 111.993 74.78 111.54 74.98C111.086 75.18 110.58 75.28 110.02 75.28C109.353 75.28 108.78 75.1667 108.3 74.94C107.833 74.7 107.446 74.3867 107.14 74C106.846 73.6 106.633 73.14 106.5 72.62C106.366 72.0867 106.3 71.52 106.3 70.92C106.3 70 106.46 69.1333 106.78 68.32C107.113 67.5067 107.566 66.8 108.14 66.2C108.726 65.5867 109.413 65.1067 110.2 64.76C110.986 64.4133 111.84 64.24 112.76 64.24C112.88 64.24 113.086 64.2467 113.38 64.26C113.686 64.2733 114.033 64.3067 114.42 64.36C114.806 64.4 115.213 64.4733 115.64 64.58C116.066 64.6867 116.473 64.8333 116.86 65.02L115.56 70.46ZM113.48 66.78C113.306 66.7533 113.146 66.7333 113 66.72C112.866 66.7067 112.7 66.7 112.5 66.7C112.046 66.7 111.62 66.8133 111.22 67.04C110.833 67.2667 110.493 67.5667 110.2 67.94C109.906 68.3 109.673 68.72 109.5 69.2C109.34 69.68 109.26 70.18 109.26 70.7C109.26 71.34 109.366 71.8467 109.58 72.22C109.793 72.5933 110.186 72.78 110.76 72.78C111.066 72.78 111.34 72.72 111.58 72.6C111.833 72.48 112.1 72.28 112.38 72C112.406 71.6667 112.446 71.32 112.5 70.96C112.566 70.5867 112.633 70.2467 112.7 69.94L113.48 66.78ZM122.262 75.2C121.315 75.2 120.569 75.08 120.022 74.84C119.489 74.5867 119.102 74.2467 118.862 73.82C118.635 73.3933 118.522 72.9067 118.522 72.36C118.535 71.8 118.615 71.2067 118.762 70.58L121.302 59.96L124.402 59.48L121.622 71C121.569 71.24 121.535 71.46 121.522 71.66C121.522 71.86 121.562 72.04 121.642 72.2C121.722 72.3467 121.855 72.4667 122.042 72.56C122.242 72.6533 122.515 72.7133 122.862 72.74L122.262 75.2ZM132.864 75H129.904L132.404 64.48H135.384L132.864 75ZM134.304 63.2C133.891 63.2 133.517 63.08 133.184 62.84C132.851 62.5867 132.684 62.2067 132.684 61.7C132.684 61.42 132.737 61.16 132.844 60.92C132.964 60.6667 133.117 60.4533 133.304 60.28C133.491 60.0933 133.704 59.9467 133.944 59.84C134.197 59.7333 134.464 59.68 134.744 59.68C135.157 59.68 135.531 59.8067 135.864 60.06C136.197 60.3 136.364 60.6733 136.364 61.18C136.364 61.46 136.304 61.7267 136.184 61.98C136.077 62.22 135.931 62.4333 135.744 62.62C135.557 62.7933 135.337 62.9333 135.084 63.04C134.844 63.1467 134.584 63.2 134.304 63.2ZM138.433 64.96C138.659 64.8933 138.906 64.82 139.173 64.74C139.453 64.6467 139.759 64.5667 140.093 64.5C140.439 64.42 140.819 64.36 141.233 64.32C141.659 64.2667 142.139 64.24 142.673 64.24C144.246 64.24 145.326 64.6933 145.913 65.6C146.499 66.5067 146.599 67.7467 146.213 69.32L144.853 75H141.873L143.193 69.44C143.273 69.0933 143.333 68.76 143.373 68.44C143.426 68.1067 143.426 67.82 143.373 67.58C143.319 67.3267 143.193 67.1267 142.993 66.98C142.806 66.82 142.513 66.74 142.113 66.74C141.726 66.74 141.333 66.78 140.933 66.86L138.993 75H136.013L138.433 64.96ZM148.405 70.92C148.405 69.88 148.578 68.9467 148.925 68.12C149.285 67.2933 149.771 66.5933 150.385 66.02C151.011 65.4467 151.738 65.0067 152.565 64.7C153.391 64.3933 154.285 64.24 155.245 64.24C156.485 64.24 157.758 64.5 159.065 65.02L155.805 78.7H152.825L153.745 74.82C153.158 75.0733 152.558 75.2 151.945 75.2C151.438 75.2 150.965 75.1067 150.525 74.92C150.098 74.72 149.725 74.44 149.405 74.08C149.098 73.7067 148.851 73.2533 148.665 72.72C148.491 72.1867 148.405 71.5867 148.405 70.92ZM155.685 66.78C155.551 66.7533 155.411 66.7333 155.265 66.72C155.118 66.7067 154.971 66.7 154.825 66.7C154.278 66.7 153.791 66.8067 153.365 67.02C152.938 67.2333 152.571 67.5267 152.265 67.9C151.971 68.26 151.745 68.6867 151.585 69.18C151.438 69.66 151.365 70.1667 151.365 70.7C151.365 71.46 151.491 71.9867 151.745 72.28C151.998 72.5733 152.345 72.72 152.785 72.72C153.038 72.72 153.285 72.6867 153.525 72.62C153.778 72.54 154.058 72.4067 154.365 72.22L155.685 66.78ZM170.734 64.48L169.314 70.46C169.127 71.22 169.074 71.9867 169.154 72.76C169.234 73.52 169.387 74.2 169.614 74.8L166.954 75.18C166.807 74.8867 166.667 74.56 166.534 74.2C166.161 74.4933 165.741 74.74 165.274 74.94C164.807 75.14 164.287 75.24 163.714 75.24C162.927 75.24 162.287 75.1 161.794 74.82C161.314 74.5267 160.954 74.1467 160.714 73.68C160.474 73.2 160.341 72.6533 160.314 72.04C160.301 71.4267 160.374 70.8 160.534 70.16L161.894 64.48H164.874L163.534 70.12C163.467 70.4133 163.407 70.7133 163.354 71.02C163.314 71.3267 163.314 71.6133 163.354 71.88C163.394 72.1333 163.494 72.3467 163.654 72.52C163.827 72.68 164.094 72.76 164.454 72.76C164.761 72.76 165.041 72.7067 165.294 72.6C165.561 72.48 165.841 72.28 166.134 72C166.161 71.6667 166.201 71.32 166.254 70.96C166.321 70.5867 166.387 70.2467 166.454 69.94L167.754 64.48H170.734ZM174.74 75H171.78L174.28 64.48H177.26L174.74 75ZM176.18 63.2C175.766 63.2 175.393 63.08 175.06 62.84C174.726 62.5867 174.56 62.2067 174.56 61.7C174.56 61.42 174.613 61.16 174.72 60.92C174.84 60.6667 174.993 60.4533 175.18 60.28C175.366 60.0933 175.58 59.9467 175.82 59.84C176.073 59.7333 176.34 59.68 176.62 59.68C177.033 59.68 177.406 59.8067 177.74 60.06C178.073 60.3 178.24 60.6733 178.24 61.18C178.24 61.46 178.18 61.7267 178.06 61.98C177.953 62.22 177.806 62.4333 177.62 62.62C177.433 62.7933 177.213 62.9333 176.96 63.04C176.72 63.1467 176.46 63.2 176.18 63.2ZM185.928 67.04C185.661 66.9733 185.395 66.9133 185.128 66.86C184.875 66.7933 184.495 66.76 183.988 66.76C183.801 66.76 183.595 66.78 183.368 66.82C183.141 66.8467 182.955 66.88 182.808 66.92L180.868 75H177.888L180.288 65.04C180.861 64.8533 181.501 64.68 182.208 64.52C182.928 64.3467 183.735 64.26 184.628 64.26C184.961 64.26 185.328 64.2933 185.728 64.36C186.141 64.4133 186.501 64.5067 186.808 64.64L185.928 67.04ZM187.058 70.88C187.058 70.0267 187.204 69.2 187.498 68.4C187.804 67.6 188.231 66.8933 188.778 66.28C189.324 65.6533 189.984 65.1533 190.758 64.78C191.544 64.3933 192.411 64.2 193.358 64.2C193.824 64.2 194.258 64.2667 194.658 64.4C195.058 64.5333 195.404 64.7267 195.698 64.98C196.004 65.2333 196.238 65.5467 196.398 65.92C196.571 66.28 196.658 66.6933 196.658 67.16C196.658 67.9067 196.491 68.54 196.158 69.06C195.824 69.58 195.358 70.0067 194.758 70.34C194.171 70.66 193.471 70.8933 192.658 71.04C191.844 71.1867 190.958 71.26 189.998 71.26C190.091 71.82 190.291 72.22 190.598 72.46C190.918 72.6867 191.418 72.8 192.098 72.8C192.524 72.8 192.958 72.7667 193.398 72.7C193.838 72.62 194.251 72.5067 194.638 72.36L194.858 74.7C194.484 74.8467 194.004 74.98 193.418 75.1C192.844 75.22 192.218 75.28 191.538 75.28C190.711 75.28 190.011 75.1667 189.438 74.94C188.878 74.7 188.418 74.38 188.058 73.98C187.711 73.58 187.458 73.1133 187.298 72.58C187.138 72.0467 187.058 71.48 187.058 70.88ZM192.878 66.56C192.198 66.56 191.598 66.8067 191.078 67.3C190.571 67.78 190.238 68.42 190.078 69.22C190.904 69.1933 191.571 69.1267 192.078 69.02C192.584 68.9 192.978 68.76 193.258 68.6C193.538 68.44 193.724 68.2667 193.818 68.08C193.911 67.8933 193.958 67.7067 193.958 67.52C193.958 66.88 193.598 66.56 192.878 66.56ZM210.937 59.48C211.537 59.48 212.057 59.5467 212.497 59.68C212.95 59.8 213.29 59.9133 213.517 60.02L212.517 62.36C212.277 62.24 211.997 62.1533 211.677 62.1C211.37 62.0333 211.083 62 210.817 62C210.083 62 209.537 62.1867 209.177 62.56C208.83 62.9333 208.59 63.4 208.457 63.96L208.337 64.48H211.857L211.257 66.92H207.757L206.537 72.02C206.083 73.9267 205.59 75.4067 205.057 76.46C204.523 77.5267 203.937 78.3 203.297 78.78L200.637 78.4C200.983 78.08 201.303 77.6867 201.597 77.22C201.89 76.7533 202.15 76.26 202.377 75.74C202.617 75.22 202.817 74.6933 202.977 74.16C203.15 73.6133 203.29 73.1067 203.397 72.64L205.477 63.92C205.81 62.5067 206.41 61.4133 207.277 60.64C208.143 59.8667 209.363 59.48 210.937 59.48ZM220.011 67.04C219.744 66.9733 219.477 66.9133 219.211 66.86C218.957 66.7933 218.577 66.76 218.071 66.76C217.884 66.76 217.677 66.78 217.451 66.82C217.224 66.8467 217.037 66.88 216.891 66.92L214.951 75H211.971L214.371 65.04C214.944 64.8533 215.584 64.68 216.291 64.52C217.011 64.3467 217.817 64.26 218.711 64.26C219.044 64.26 219.411 64.2933 219.811 64.36C220.224 64.4133 220.584 64.5067 220.891 64.64L220.011 67.04ZM225.3 75.28C224.593 75.28 223.98 75.1733 223.46 74.96C222.94 74.7467 222.507 74.4467 222.16 74.06C221.827 73.6733 221.573 73.22 221.4 72.7C221.227 72.1667 221.14 71.58 221.14 70.94C221.14 70.14 221.267 69.34 221.52 68.54C221.787 67.74 222.173 67.02 222.68 66.38C223.187 65.74 223.807 65.22 224.54 64.82C225.273 64.4067 226.113 64.2 227.06 64.2C227.753 64.2 228.36 64.3067 228.88 64.52C229.413 64.7333 229.847 65.0333 230.18 65.42C230.527 65.8067 230.787 66.2667 230.96 66.8C231.133 67.32 231.22 67.9 231.22 68.54C231.22 69.34 231.093 70.14 230.84 70.94C230.587 71.74 230.213 72.46 229.72 73.1C229.227 73.74 228.607 74.2667 227.86 74.68C227.127 75.08 226.273 75.28 225.3 75.28ZM226.78 66.72C226.34 66.72 225.953 66.8467 225.62 67.1C225.287 67.3533 225.007 67.6733 224.78 68.06C224.553 68.4467 224.38 68.8733 224.26 69.34C224.153 69.7933 224.1 70.2267 224.1 70.64C224.1 71.32 224.207 71.8467 224.42 72.22C224.633 72.58 225.02 72.76 225.58 72.76C226.02 72.76 226.407 72.6333 226.74 72.38C227.073 72.1267 227.353 71.8067 227.58 71.42C227.807 71.0333 227.973 70.6133 228.08 70.16C228.2 69.6933 228.26 69.2533 228.26 68.84C228.26 68.16 228.153 67.64 227.94 67.28C227.727 66.9067 227.34 66.72 226.78 66.72ZM234.889 64.96C235.115 64.8933 235.355 64.82 235.609 64.74C235.875 64.6467 236.169 64.5667 236.489 64.5C236.822 64.42 237.189 64.36 237.589 64.32C238.002 64.2667 238.475 64.24 239.009 64.24C239.649 64.24 240.175 64.32 240.589 64.48C241.015 64.64 241.402 64.88 241.749 65.2C242.242 64.92 242.729 64.6933 243.209 64.52C243.702 64.3333 244.275 64.24 244.929 64.24C245.555 64.24 246.089 64.3267 246.529 64.5C246.982 64.66 247.355 64.9 247.649 65.22C247.942 65.5267 248.155 65.9 248.289 66.34C248.422 66.7667 248.489 67.24 248.489 67.76C248.489 68 248.469 68.2533 248.429 68.52C248.402 68.7867 248.355 69.0533 248.289 69.32L246.929 75H243.949L245.269 69.44C245.309 69.2533 245.349 69.0467 245.389 68.82C245.442 68.58 245.469 68.3467 245.469 68.12C245.469 67.7467 245.382 67.4267 245.209 67.16C245.035 66.88 244.695 66.74 244.189 66.74C243.909 66.74 243.642 66.7933 243.389 66.9C243.135 66.9933 242.909 67.0933 242.709 67.2C242.735 67.3067 242.749 67.4067 242.749 67.5C242.749 67.5933 242.749 67.68 242.749 67.76C242.749 68 242.729 68.2533 242.689 68.52C242.662 68.7867 242.615 69.0533 242.549 69.32L241.189 75H238.209L239.529 69.44C239.569 69.2533 239.609 69.0467 239.649 68.82C239.702 68.58 239.729 68.3467 239.729 68.12C239.729 67.7467 239.642 67.4267 239.469 67.16C239.295 66.88 238.955 66.74 238.449 66.74C238.235 66.74 238.055 66.7533 237.909 66.78C237.762 66.7933 237.589 66.82 237.389 66.86L235.449 75H232.469L234.889 64.96ZM257.936 61.86L261.036 61.38L260.276 64.48H263.596L262.996 66.92H259.696L258.816 70.6C258.736 70.9067 258.683 71.1933 258.656 71.46C258.643 71.7267 258.676 71.96 258.756 72.16C258.85 72.3467 259.003 72.4933 259.216 72.6C259.43 72.7067 259.723 72.76 260.096 72.76C260.416 72.76 260.723 72.7333 261.016 72.68C261.323 72.6133 261.63 72.5267 261.936 72.42L262.156 74.7C261.756 74.8467 261.323 74.9733 260.856 75.08C260.39 75.1867 259.836 75.24 259.196 75.24C258.276 75.24 257.563 75.1067 257.056 74.84C256.55 74.56 256.19 74.1867 255.976 73.72C255.763 73.24 255.67 72.6933 255.696 72.08C255.723 71.4667 255.816 70.82 255.976 70.14L257.936 61.86ZM270.941 64.3C271.515 64.3 272.008 64.3867 272.421 64.56C272.835 64.72 273.175 64.9533 273.441 65.26C273.708 65.5533 273.908 65.9067 274.041 66.32C274.175 66.7333 274.241 67.18 274.241 67.66C274.241 68.22 274.175 68.7733 274.041 69.32L272.681 75H269.701L271.021 69.44C271.075 69.2133 271.121 68.9733 271.161 68.72C271.215 68.4667 271.241 68.2267 271.241 68C271.241 67.6533 271.148 67.36 270.961 67.12C270.788 66.8667 270.448 66.74 269.941 66.74C269.728 66.74 269.521 66.7533 269.321 66.78C269.135 66.8067 268.948 66.84 268.761 66.88L266.821 75H263.841L267.441 59.96L270.541 59.48L269.321 64.5C269.588 64.4467 269.855 64.4 270.121 64.36C270.401 64.32 270.675 64.3 270.941 64.3ZM276.194 70.88C276.194 70.0267 276.341 69.2 276.634 68.4C276.941 67.6 277.368 66.8933 277.914 66.28C278.461 65.6533 279.121 65.1533 279.894 64.78C280.681 64.3933 281.548 64.2 282.494 64.2C282.961 64.2 283.394 64.2667 283.794 64.4C284.194 64.5333 284.541 64.7267 284.834 64.98C285.141 65.2333 285.374 65.5467 285.534 65.92C285.708 66.28 285.794 66.6933 285.794 67.16C285.794 67.9067 285.628 68.54 285.294 69.06C284.961 69.58 284.494 70.0067 283.894 70.34C283.308 70.66 282.608 70.8933 281.794 71.04C280.981 71.1867 280.094 71.26 279.134 71.26C279.228 71.82 279.428 72.22 279.734 72.46C280.054 72.6867 280.554 72.8 281.234 72.8C281.661 72.8 282.094 72.7667 282.534 72.7C282.974 72.62 283.388 72.5067 283.774 72.36L283.994 74.7C283.621 74.8467 283.141 74.98 282.554 75.1C281.981 75.22 281.354 75.28 280.674 75.28C279.848 75.28 279.148 75.1667 278.574 74.94C278.014 74.7 277.554 74.38 277.194 73.98C276.848 73.58 276.594 73.1133 276.434 72.58C276.274 72.0467 276.194 71.48 276.194 70.88ZM282.014 66.56C281.334 66.56 280.734 66.8067 280.214 67.3C279.708 67.78 279.374 68.42 279.214 69.22C280.041 69.1933 280.708 69.1267 281.214 69.02C281.721 68.9 282.114 68.76 282.394 68.6C282.674 68.44 282.861 68.2667 282.954 68.08C283.048 67.8933 283.094 67.7067 283.094 67.52C283.094 66.88 282.734 66.56 282.014 66.56ZM52.788 95.68C53.0147 95.7333 53.2947 95.76 53.628 95.76C54.148 95.76 54.6214 95.6667 55.048 95.48C55.4747 95.28 55.8347 95.0067 56.128 94.66C56.4347 94.3133 56.668 93.9 56.828 93.42C57.0014 92.9267 57.088 92.3867 57.088 91.8C57.088 91.2267 56.9614 90.74 56.708 90.34C56.4547 89.94 56.0147 89.74 55.388 89.74C54.9614 89.74 54.5614 89.78 54.188 89.86L52.788 95.68ZM60.048 91.58C60.048 92.5533 59.888 93.4467 59.568 94.26C59.248 95.06 58.8014 95.7533 58.228 96.34C57.668 96.9267 56.988 97.3867 56.188 97.72C55.4014 98.04 54.5414 98.2 53.608 98.2C53.1547 98.2 52.7014 98.16 52.248 98.08L51.348 101.7H48.388L51.708 87.86C52.2414 87.7 52.848 87.56 53.528 87.44C54.2214 87.3067 54.968 87.24 55.768 87.24C56.5147 87.24 57.1547 87.3533 57.688 87.58C58.2347 87.8067 58.6814 88.12 59.028 88.52C59.3747 88.9067 59.628 89.3667 59.788 89.9C59.9614 90.42 60.048 90.98 60.048 91.58ZM61.895 93.88C61.895 93.0267 62.0416 92.2 62.335 91.4C62.6416 90.6 63.0683 89.8933 63.615 89.28C64.1616 88.6533 64.8216 88.1533 65.595 87.78C66.3816 87.3933 67.2483 87.2 68.195 87.2C68.6616 87.2 69.095 87.2667 69.495 87.4C69.895 87.5333 70.2416 87.7267 70.535 87.98C70.8416 88.2333 71.075 88.5467 71.235 88.92C71.4083 89.28 71.495 89.6933 71.495 90.16C71.495 90.9067 71.3283 91.54 70.995 92.06C70.6616 92.58 70.195 93.0067 69.595 93.34C69.0083 93.66 68.3083 93.8933 67.495 94.04C66.6816 94.1867 65.795 94.26 64.835 94.26C64.9283 94.82 65.1283 95.22 65.435 95.46C65.755 95.6867 66.255 95.8 66.935 95.8C67.3616 95.8 67.795 95.7667 68.235 95.7C68.675 95.62 69.0883 95.5067 69.475 95.36L69.695 97.7C69.3216 97.8467 68.8416 97.98 68.255 98.1C67.6816 98.22 67.055 98.28 66.375 98.28C65.5483 98.28 64.8483 98.1667 64.275 97.94C63.715 97.7 63.255 97.38 62.895 96.98C62.5483 96.58 62.295 96.1133 62.135 95.58C61.975 95.0467 61.895 94.48 61.895 93.88ZM67.715 89.56C67.035 89.56 66.435 89.8067 65.915 90.3C65.4083 90.78 65.075 91.42 64.915 92.22C65.7416 92.1933 66.4083 92.1267 66.915 92.02C67.4216 91.9 67.815 91.76 68.095 91.6C68.375 91.44 68.5616 91.2667 68.655 91.08C68.7483 90.8933 68.795 90.7067 68.795 90.52C68.795 89.88 68.435 89.56 67.715 89.56ZM80.3849 90.04C80.1182 89.9733 79.8516 89.9133 79.5849 89.86C79.3316 89.7933 78.9516 89.76 78.4449 89.76C78.2582 89.76 78.0516 89.78 77.8249 89.82C77.5982 89.8467 77.4116 89.88 77.2649 89.92L75.3249 98H72.3449L74.7449 88.04C75.3182 87.8533 75.9582 87.68 76.6649 87.52C77.3849 87.3467 78.1916 87.26 79.0849 87.26C79.4182 87.26 79.7849 87.2933 80.1849 87.36C80.5982 87.4133 80.9582 87.5067 81.2649 87.64L80.3849 90.04ZM84.725 95.88C85.405 95.88 85.8716 95.7867 86.125 95.6C86.3783 95.4 86.505 95.1867 86.505 94.96C86.505 94.8133 86.4783 94.6867 86.425 94.58C86.385 94.4733 86.3116 94.3733 86.205 94.28C86.0983 94.1867 85.9516 94.0933 85.765 94C85.5783 93.8933 85.3383 93.7733 85.045 93.64C84.7116 93.4933 84.3983 93.34 84.105 93.18C83.8116 93.0067 83.5516 92.8067 83.325 92.58C83.1116 92.34 82.9383 92.0733 82.805 91.78C82.685 91.4733 82.625 91.1133 82.625 90.7C82.625 89.62 83.0183 88.7667 83.805 88.14C84.605 87.5133 85.765 87.2 87.285 87.2C88.005 87.2 88.645 87.28 89.205 87.44C89.765 87.6 90.2183 87.7733 90.565 87.96L89.545 90.18C89.265 90.0333 88.905 89.8933 88.465 89.76C88.025 89.6267 87.5916 89.56 87.165 89.56C86.9783 89.56 86.7916 89.5733 86.605 89.6C86.4316 89.6133 86.265 89.6533 86.105 89.72C85.9583 89.7867 85.8383 89.88 85.745 90C85.6516 90.12 85.605 90.28 85.605 90.48C85.605 90.7467 85.705 90.9467 85.905 91.08C86.1183 91.2133 86.4116 91.3733 86.785 91.56C87.305 91.8133 87.7383 92.0467 88.085 92.26C88.4316 92.4733 88.705 92.7 88.905 92.94C89.1183 93.18 89.2716 93.4533 89.365 93.76C89.4583 94.0667 89.505 94.4267 89.505 94.84C89.505 95.2667 89.4116 95.6867 89.225 96.1C89.0516 96.5133 88.7716 96.88 88.385 97.2C87.9983 97.52 87.505 97.78 86.905 97.98C86.305 98.18 85.585 98.28 84.745 98.28C84.225 98.28 83.7516 98.2467 83.325 98.18C82.9116 98.1133 82.545 98.0333 82.225 97.94C81.905 97.8333 81.6316 97.7267 81.405 97.62C81.1916 97.5133 81.025 97.4267 80.905 97.36L81.925 95.08C82.1516 95.2133 82.505 95.38 82.985 95.58C83.465 95.78 84.045 95.88 84.725 95.88ZM94.9174 95.68C95.144 95.7333 95.424 95.76 95.7574 95.76C96.2774 95.76 96.7507 95.6667 97.1774 95.48C97.604 95.28 97.964 95.0067 98.2574 94.66C98.564 94.3133 98.7974 93.9 98.9574 93.42C99.1307 92.9267 99.2174 92.3867 99.2174 91.8C99.2174 91.2267 99.0907 90.74 98.8374 90.34C98.584 89.94 98.144 89.74 97.5174 89.74C97.0907 89.74 96.6907 89.78 96.3174 89.86L94.9174 95.68ZM102.177 91.58C102.177 92.5533 102.017 93.4467 101.697 94.26C101.377 95.06 100.931 95.7533 100.357 96.34C99.7974 96.9267 99.1174 97.3867 98.3174 97.72C97.5307 98.04 96.6707 98.2 95.7374 98.2C95.284 98.2 94.8307 98.16 94.3774 98.08L93.4774 101.7H90.5174L93.8374 87.86C94.3707 87.7 94.9774 87.56 95.6574 87.44C96.3507 87.3067 97.0974 87.24 97.8974 87.24C98.644 87.24 99.284 87.3533 99.8174 87.58C100.364 87.8067 100.811 88.12 101.157 88.52C101.504 88.9067 101.757 89.3667 101.917 89.9C102.091 90.42 102.177 90.98 102.177 91.58ZM104.024 93.88C104.024 93.0267 104.171 92.2 104.464 91.4C104.771 90.6 105.198 89.8933 105.744 89.28C106.291 88.6533 106.951 88.1533 107.724 87.78C108.511 87.3933 109.378 87.2 110.324 87.2C110.791 87.2 111.224 87.2667 111.624 87.4C112.024 87.5333 112.371 87.7267 112.664 87.98C112.971 88.2333 113.204 88.5467 113.364 88.92C113.538 89.28 113.624 89.6933 113.624 90.16C113.624 90.9067 113.458 91.54 113.124 92.06C112.791 92.58 112.324 93.0067 111.724 93.34C111.138 93.66 110.438 93.8933 109.624 94.04C108.811 94.1867 107.924 94.26 106.964 94.26C107.058 94.82 107.258 95.22 107.564 95.46C107.884 95.6867 108.384 95.8 109.064 95.8C109.491 95.8 109.924 95.7667 110.364 95.7C110.804 95.62 111.218 95.5067 111.604 95.36L111.824 97.7C111.451 97.8467 110.971 97.98 110.384 98.1C109.811 98.22 109.184 98.28 108.504 98.28C107.678 98.28 106.978 98.1667 106.404 97.94C105.844 97.7 105.384 97.38 105.024 96.98C104.678 96.58 104.424 96.1133 104.264 95.58C104.104 95.0467 104.024 94.48 104.024 93.88ZM109.844 89.56C109.164 89.56 108.564 89.8067 108.044 90.3C107.538 90.78 107.204 91.42 107.044 92.22C107.871 92.1933 108.538 92.1267 109.044 92.02C109.551 91.9 109.944 91.76 110.224 91.6C110.504 91.44 110.691 91.2667 110.784 91.08C110.878 90.8933 110.924 90.7067 110.924 90.52C110.924 89.88 110.564 89.56 109.844 89.56ZM115.074 93.8C115.074 92.8933 115.221 92.04 115.514 91.24C115.808 90.44 116.228 89.74 116.774 89.14C117.321 88.54 117.981 88.0667 118.754 87.72C119.541 87.3733 120.414 87.2 121.374 87.2C121.974 87.2 122.508 87.26 122.974 87.38C123.454 87.4867 123.888 87.6333 124.274 87.82L123.254 90.14C122.988 90.0333 122.708 89.94 122.414 89.86C122.134 89.7667 121.788 89.72 121.374 89.72C120.374 89.72 119.588 90.06 119.014 90.74C118.441 91.4067 118.154 92.32 118.154 93.48C118.154 94.16 118.301 94.7133 118.594 95.14C118.888 95.5533 119.428 95.76 120.214 95.76C120.601 95.76 120.974 95.72 121.334 95.64C121.694 95.56 122.014 95.46 122.294 95.34L122.514 97.72C122.141 97.8667 121.728 97.9933 121.274 98.1C120.834 98.22 120.294 98.28 119.654 98.28C118.828 98.28 118.128 98.16 117.554 97.92C116.981 97.68 116.508 97.36 116.134 96.96C115.761 96.5467 115.488 96.0667 115.314 95.52C115.154 94.9733 115.074 94.4 115.074 93.8ZM127.388 84.86L130.488 84.38L129.728 87.48H133.048L132.448 89.92H129.148L128.268 93.6C128.188 93.9067 128.135 94.1933 128.108 94.46C128.095 94.7267 128.128 94.96 128.208 95.16C128.301 95.3467 128.455 95.4933 128.668 95.6C128.881 95.7067 129.175 95.76 129.548 95.76C129.868 95.76 130.175 95.7333 130.468 95.68C130.775 95.6133 131.081 95.5267 131.388 95.42L131.608 97.7C131.208 97.8467 130.775 97.9733 130.308 98.08C129.841 98.1867 129.288 98.24 128.648 98.24C127.728 98.24 127.015 98.1067 126.508 97.84C126.001 97.56 125.641 97.1867 125.428 96.72C125.215 96.24 125.121 95.6933 125.148 95.08C125.175 94.4667 125.268 93.82 125.428 93.14L127.388 84.86ZM136.253 98H133.293L135.793 87.48H138.773L136.253 98ZM137.693 86.2C137.279 86.2 136.906 86.08 136.573 85.84C136.239 85.5867 136.073 85.2067 136.073 84.7C136.073 84.42 136.126 84.16 136.233 83.92C136.353 83.6667 136.506 83.4533 136.693 83.28C136.879 83.0933 137.093 82.9467 137.333 82.84C137.586 82.7333 137.853 82.68 138.133 82.68C138.546 82.68 138.919 82.8067 139.253 83.06C139.586 83.3 139.753 83.6733 139.753 84.18C139.753 84.46 139.693 84.7267 139.573 84.98C139.466 85.22 139.319 85.4333 139.133 85.62C138.946 85.7933 138.726 85.9333 138.473 86.04C138.233 86.1467 137.973 86.2 137.693 86.2ZM142.021 98C141.675 96.6667 141.361 95.1133 141.081 93.34C140.801 91.5533 140.608 89.6 140.501 87.48H143.581C143.595 88 143.615 88.5733 143.641 89.2C143.668 89.8133 143.701 90.4333 143.741 91.06C143.781 91.6867 143.828 92.3 143.881 92.9C143.935 93.4867 143.995 94.02 144.061 94.5C144.355 94.1 144.681 93.6067 145.041 93.02C145.415 92.4333 145.775 91.82 146.121 91.18C146.468 90.54 146.788 89.9 147.081 89.26C147.375 88.6067 147.601 88.0133 147.761 87.48H150.921C150.575 88.4267 150.141 89.4 149.621 90.4C149.115 91.4 148.568 92.3667 147.981 93.3C147.395 94.2333 146.795 95.1067 146.181 95.92C145.581 96.7333 145.021 97.4267 144.501 98H142.021ZM151.364 93.88C151.364 93.0267 151.51 92.2 151.804 91.4C152.11 90.6 152.537 89.8933 153.084 89.28C153.63 88.6533 154.29 88.1533 155.064 87.78C155.85 87.3933 156.717 87.2 157.664 87.2C158.13 87.2 158.564 87.2667 158.964 87.4C159.364 87.5333 159.71 87.7267 160.004 87.98C160.31 88.2333 160.544 88.5467 160.704 88.92C160.877 89.28 160.964 89.6933 160.964 90.16C160.964 90.9067 160.797 91.54 160.464 92.06C160.13 92.58 159.664 93.0067 159.064 93.34C158.477 93.66 157.777 93.8933 156.964 94.04C156.15 94.1867 155.264 94.26 154.304 94.26C154.397 94.82 154.597 95.22 154.904 95.46C155.224 95.6867 155.724 95.8 156.404 95.8C156.83 95.8 157.264 95.7667 157.704 95.7C158.144 95.62 158.557 95.5067 158.944 95.36L159.164 97.7C158.79 97.8467 158.31 97.98 157.724 98.1C157.15 98.22 156.524 98.28 155.844 98.28C155.017 98.28 154.317 98.1667 153.744 97.94C153.184 97.7 152.724 97.38 152.364 96.98C152.017 96.58 151.764 96.1133 151.604 95.58C151.444 95.0467 151.364 94.48 151.364 93.88ZM157.184 89.56C156.504 89.56 155.904 89.8067 155.384 90.3C154.877 90.78 154.544 91.42 154.384 92.22C155.21 92.1933 155.877 92.1267 156.384 92.02C156.89 91.9 157.284 91.76 157.564 91.6C157.844 91.44 158.03 91.2667 158.124 91.08C158.217 90.8933 158.264 90.7067 158.264 90.52C158.264 89.88 157.904 89.56 157.184 89.56ZM171.823 98.28C171.116 98.28 170.503 98.1733 169.983 97.96C169.463 97.7467 169.029 97.4467 168.683 97.06C168.349 96.6733 168.096 96.22 167.923 95.7C167.749 95.1667 167.663 94.58 167.663 93.94C167.663 93.14 167.789 92.34 168.043 91.54C168.309 90.74 168.696 90.02 169.203 89.38C169.709 88.74 170.329 88.22 171.063 87.82C171.796 87.4067 172.636 87.2 173.583 87.2C174.276 87.2 174.883 87.3067 175.403 87.52C175.936 87.7333 176.369 88.0333 176.703 88.42C177.049 88.8067 177.309 89.2667 177.483 89.8C177.656 90.32 177.743 90.9 177.743 91.54C177.743 92.34 177.616 93.14 177.363 93.94C177.109 94.74 176.736 95.46 176.243 96.1C175.749 96.74 175.129 97.2667 174.383 97.68C173.649 98.08 172.796 98.28 171.823 98.28ZM173.303 89.72C172.863 89.72 172.476 89.8467 172.143 90.1C171.809 90.3533 171.529 90.6733 171.303 91.06C171.076 91.4467 170.903 91.8733 170.783 92.34C170.676 92.7933 170.623 93.2267 170.623 93.64C170.623 94.32 170.729 94.8467 170.943 95.22C171.156 95.58 171.543 95.76 172.103 95.76C172.543 95.76 172.929 95.6333 173.263 95.38C173.596 95.1267 173.876 94.8067 174.103 94.42C174.329 94.0333 174.496 93.6133 174.603 93.16C174.723 92.6933 174.783 92.2533 174.783 91.84C174.783 91.16 174.676 90.64 174.463 90.28C174.249 89.9067 173.863 89.72 173.303 89.72ZM187.172 82.48C187.772 82.48 188.292 82.5467 188.732 82.68C189.185 82.8 189.525 82.9133 189.752 83.02L188.752 85.36C188.512 85.24 188.232 85.1533 187.912 85.1C187.605 85.0333 187.318 85 187.052 85C186.318 85 185.772 85.1867 185.412 85.56C185.065 85.9333 184.825 86.4 184.692 86.96L184.572 87.48H188.092L187.492 89.92H183.992L182.772 95.02C182.318 96.9267 181.825 98.4067 181.292 99.46C180.758 100.527 180.172 101.3 179.532 101.78L176.872 101.4C177.218 101.08 177.538 100.687 177.832 100.22C178.125 99.7533 178.385 99.26 178.612 98.74C178.852 98.22 179.052 97.6933 179.212 97.16C179.385 96.6133 179.525 96.1067 179.632 95.64L181.712 86.92C182.045 85.5067 182.645 84.4133 183.512 83.64C184.378 82.8667 185.598 82.48 187.172 82.48ZM204.475 87.48L203.055 93.46C202.868 94.22 202.815 94.9867 202.895 95.76C202.975 96.52 203.128 97.2 203.355 97.8L200.695 98.18C200.548 97.8867 200.408 97.56 200.275 97.2C199.901 97.4933 199.481 97.74 199.015 97.94C198.548 98.14 198.028 98.24 197.455 98.24C196.668 98.24 196.028 98.1 195.535 97.82C195.055 97.5267 194.695 97.1467 194.455 96.68C194.215 96.2 194.081 95.6533 194.055 95.04C194.041 94.4267 194.115 93.8 194.275 93.16L195.635 87.48H198.615L197.275 93.12C197.208 93.4133 197.148 93.7133 197.095 94.02C197.055 94.3267 197.055 94.6133 197.095 94.88C197.135 95.1333 197.235 95.3467 197.395 95.52C197.568 95.68 197.835 95.76 198.195 95.76C198.501 95.76 198.781 95.7067 199.035 95.6C199.301 95.48 199.581 95.28 199.875 95C199.901 94.6667 199.941 94.32 199.995 93.96C200.061 93.5867 200.128 93.2467 200.195 92.94L201.495 87.48H204.475ZM208.94 95.88C209.62 95.88 210.087 95.7867 210.34 95.6C210.594 95.4 210.72 95.1867 210.72 94.96C210.72 94.8133 210.694 94.6867 210.64 94.58C210.6 94.4733 210.527 94.3733 210.42 94.28C210.314 94.1867 210.167 94.0933 209.98 94C209.794 93.8933 209.554 93.7733 209.26 93.64C208.927 93.4933 208.614 93.34 208.32 93.18C208.027 93.0067 207.767 92.8067 207.54 92.58C207.327 92.34 207.154 92.0733 207.02 91.78C206.9 91.4733 206.84 91.1133 206.84 90.7C206.84 89.62 207.234 88.7667 208.02 88.14C208.82 87.5133 209.98 87.2 211.5 87.2C212.22 87.2 212.86 87.28 213.42 87.44C213.98 87.6 214.434 87.7733 214.78 87.96L213.76 90.18C213.48 90.0333 213.12 89.8933 212.68 89.76C212.24 89.6267 211.807 89.56 211.38 89.56C211.194 89.56 211.007 89.5733 210.82 89.6C210.647 89.6133 210.48 89.6533 210.32 89.72C210.174 89.7867 210.054 89.88 209.96 90C209.867 90.12 209.82 90.28 209.82 90.48C209.82 90.7467 209.92 90.9467 210.12 91.08C210.334 91.2133 210.627 91.3733 211 91.56C211.52 91.8133 211.954 92.0467 212.3 92.26C212.647 92.4733 212.92 92.7 213.12 92.94C213.334 93.18 213.487 93.4533 213.58 93.76C213.674 94.0667 213.72 94.4267 213.72 94.84C213.72 95.2667 213.627 95.6867 213.44 96.1C213.267 96.5133 212.987 96.88 212.6 97.2C212.214 97.52 211.72 97.78 211.12 97.98C210.52 98.18 209.8 98.28 208.96 98.28C208.44 98.28 207.967 98.2467 207.54 98.18C207.127 98.1133 206.76 98.0333 206.44 97.94C206.12 97.8333 205.847 97.7267 205.62 97.62C205.407 97.5133 205.24 97.4267 205.12 97.36L206.14 95.08C206.367 95.2133 206.72 95.38 207.2 95.58C207.68 95.78 208.26 95.88 208.94 95.88ZM216.233 93.88C216.233 93.0267 216.379 92.2 216.673 91.4C216.979 90.6 217.406 89.8933 217.953 89.28C218.499 88.6533 219.159 88.1533 219.933 87.78C220.719 87.3933 221.586 87.2 222.533 87.2C222.999 87.2 223.433 87.2667 223.833 87.4C224.233 87.5333 224.579 87.7267 224.873 87.98C225.179 88.2333 225.413 88.5467 225.573 88.92C225.746 89.28 225.833 89.6933 225.833 90.16C225.833 90.9067 225.666 91.54 225.333 92.06C224.999 92.58 224.533 93.0067 223.933 93.34C223.346 93.66 222.646 93.8933 221.833 94.04C221.019 94.1867 220.133 94.26 219.173 94.26C219.266 94.82 219.466 95.22 219.773 95.46C220.093 95.6867 220.593 95.8 221.273 95.8C221.699 95.8 222.133 95.7667 222.573 95.7C223.013 95.62 223.426 95.5067 223.813 95.36L224.033 97.7C223.659 97.8467 223.179 97.98 222.593 98.1C222.019 98.22 221.393 98.28 220.713 98.28C219.886 98.28 219.186 98.1667 218.613 97.94C218.053 97.7 217.593 97.38 217.233 96.98C216.886 96.58 216.633 96.1133 216.473 95.58C216.313 95.0467 216.233 94.48 216.233 93.88ZM222.053 89.56C221.373 89.56 220.773 89.8067 220.253 90.3C219.746 90.78 219.413 91.42 219.253 92.22C220.079 92.1933 220.746 92.1267 221.253 92.02C221.759 91.9 222.153 91.76 222.433 91.6C222.713 91.44 222.899 91.2667 222.993 91.08C223.086 90.8933 223.133 90.7067 223.133 90.52C223.133 89.88 222.773 89.56 222.053 89.56ZM234.723 90.04C234.456 89.9733 234.189 89.9133 233.923 89.86C233.669 89.7933 233.289 89.76 232.783 89.76C232.596 89.76 232.389 89.78 232.163 89.82C231.936 89.8467 231.749 89.88 231.603 89.92L229.663 98H226.683L229.083 88.04C229.656 87.8533 230.296 87.68 231.003 87.52C231.723 87.3467 232.529 87.26 233.423 87.26C233.756 87.26 234.123 87.2933 234.523 87.36C234.936 87.4133 235.296 87.5067 235.603 87.64L234.723 90.04ZM239.063 95.88C239.743 95.88 240.209 95.7867 240.463 95.6C240.716 95.4 240.843 95.1867 240.843 94.96C240.843 94.8133 240.816 94.6867 240.763 94.58C240.723 94.4733 240.649 94.3733 240.543 94.28C240.436 94.1867 240.289 94.0933 240.103 94C239.916 93.8933 239.676 93.7733 239.383 93.64C239.049 93.4933 238.736 93.34 238.443 93.18C238.149 93.0067 237.889 92.8067 237.663 92.58C237.449 92.34 237.276 92.0733 237.143 91.78C237.023 91.4733 236.963 91.1133 236.963 90.7C236.963 89.62 237.356 88.7667 238.143 88.14C238.943 87.5133 240.103 87.2 241.623 87.2C242.343 87.2 242.983 87.28 243.543 87.44C244.103 87.6 244.556 87.7733 244.903 87.96L243.883 90.18C243.603 90.0333 243.243 89.8933 242.803 89.76C242.363 89.6267 241.929 89.56 241.503 89.56C241.316 89.56 241.129 89.5733 240.943 89.6C240.769 89.6133 240.603 89.6533 240.443 89.72C240.296 89.7867 240.176 89.88 240.083 90C239.989 90.12 239.943 90.28 239.943 90.48C239.943 90.7467 240.043 90.9467 240.243 91.08C240.456 91.2133 240.749 91.3733 241.123 91.56C241.643 91.8133 242.076 92.0467 242.423 92.26C242.769 92.4733 243.043 92.7 243.243 92.94C243.456 93.18 243.609 93.4533 243.703 93.76C243.796 94.0667 243.843 94.4267 243.843 94.84C243.843 95.2667 243.749 95.6867 243.563 96.1C243.389 96.5133 243.109 96.88 242.723 97.2C242.336 97.52 241.843 97.78 241.243 97.98C240.643 98.18 239.923 98.28 239.083 98.28C238.563 98.28 238.089 98.2467 237.663 98.18C237.249 98.1133 236.883 98.0333 236.563 97.94C236.243 97.8333 235.969 97.7267 235.743 97.62C235.529 97.5133 235.363 97.4267 235.243 97.36L236.263 95.08C236.489 95.2133 236.843 95.38 237.323 95.58C237.803 95.78 238.383 95.88 239.063 95.88ZM247.828 94.58C248.295 94.58 248.682 94.7133 248.988 94.98C249.308 95.2333 249.468 95.64 249.468 96.2C249.468 96.5067 249.408 96.7867 249.288 97.04C249.182 97.2933 249.035 97.5133 248.848 97.7C248.662 97.8733 248.448 98.0067 248.208 98.1C247.968 98.2067 247.722 98.26 247.468 98.26C247.002 98.26 246.608 98.1333 246.288 97.88C245.982 97.6133 245.828 97.2 245.828 96.64C245.828 96.3333 245.882 96.0533 245.988 95.8C246.108 95.5467 246.262 95.3333 246.448 95.16C246.635 94.9733 246.848 94.8333 247.088 94.74C247.328 94.6333 247.575 94.58 247.828 94.58Z" fill="#1B75AD"/>
</svg>
