<svg width="86" height="87" viewBox="0 0 86 87" fill="none" xmlns="http://www.w3.org/2000/svg">
<g filter="url(#filter0_d)">
<path d="M61.7995 9.82718C67.2345 13.4964 71.5123 18.8753 74.3599 24.9644C77.2204 31.0666 78.6507 37.879 77.7145 44.3363C76.7783 50.8067 73.4627 56.909 68.9639 61.7092C64.465 66.5094 58.7699 70.0208 52.4377 72.3355C46.1185 74.6633 39.1752 75.7943 32.6349 74.3739C26.1077 72.9536 19.9835 68.9687 15.7057 63.5898C11.4409 58.2109 9.00939 51.4249 8.25524 44.5467C7.5011 37.6554 8.41127 30.6852 11.0768 24.412C13.7423 18.1388 18.1761 12.5758 23.8192 8.99865C29.4623 5.42148 36.3016 3.83017 43.0239 4.01429C49.7462 4.19841 56.3514 6.15796 61.7995 9.82718Z" fill="#E2F4FC"/>
<path d="M54.3701 27.5933V16H32.6299V27.5933C32.6299 31.8758 35.1383 35.5739 38.7724 37.3157C39.5933 37.7091 40.1265 38.523 40.1265 39.4299V39.5703C40.1265 40.4772 39.5933 41.2909 38.7724 41.6845C35.1383 43.4263 32.6299 47.1242 32.6299 51.4069V63H54.3701V51.4067C54.3701 47.1242 51.8617 43.4261 48.2276 41.6843C47.4067 41.2909 46.8735 40.477 46.8735 39.5701V39.4297C46.8735 38.5228 47.4067 37.7091 48.2276 37.3155C51.8617 35.5739 54.3701 31.876 54.3701 27.5933Z" fill="#FFEACF"/>
<path d="M52.7185 52.0738C52.3872 52.0738 52.1187 51.8094 52.1187 51.4831C52.1187 48.1669 50.1758 45.0952 47.169 43.657C46.8712 43.5144 46.7468 43.161 46.8916 42.8677C47.0365 42.5743 47.3951 42.4521 47.693 42.5944C51.1102 44.2287 53.3182 47.7176 53.3182 51.4829C53.3182 51.8094 53.0497 52.0738 52.7185 52.0738Z" fill="#FCF9DE"/>
<path d="M42.7421 41.6843C41.9261 41.2907 41.3961 40.477 41.3961 39.5701V39.4297C41.3961 38.5228 41.9261 37.7091 42.7421 37.3155C46.3541 35.5737 48.8474 31.8758 48.8474 27.5931V16H54.3701V27.5933C54.3701 31.8758 51.8768 35.5739 48.2648 37.3157C47.4488 37.7093 46.9188 38.523 46.9188 39.4299V39.5703C46.9188 40.4772 47.4488 41.2909 48.2648 41.6845C51.8768 43.4263 54.3701 47.1242 54.3701 51.4069V63H48.8474V51.4067C48.8474 47.1242 46.3541 43.4261 42.7421 41.6843Z" fill="#FFD59A"/>
<path d="M35.4351 31.6089C36.919 34.4863 39.9622 36.465 43.4698 36.465H43.5302C47.0377 36.465 50.081 34.4863 51.5649 31.6089H35.4351V31.6089Z" fill="#F9BB32"/>
<path d="M52.4416 60.0517V58.5886C52.4416 53.6575 48.4047 49.6458 43.4425 49.6458H43.3822C38.4202 49.6458 34.3831 53.6575 34.3831 58.5886V60.0517H52.4416Z" fill="#F9BB32"/>
<rect x="42.7987" y="34.7307" width="1.57792" height="15.6089" fill="#F9BB32"/>
<path d="M38.2381 51.3235C38.2381 51.2845 38.2399 51.2459 38.2403 51.2067C36.0105 52.8328 34.5584 55.4586 34.5584 58.4172V59.8783H38.2383V51.3235H38.2381Z" fill="#DB9C2E"/>
<path d="M42.7987 42.7085C43.2948 42.354 43.8226 42.0408 44.3766 41.773V37.4005C43.8226 37.1327 43.2948 36.8197 42.7987 36.465V42.7085Z" fill="#DB9C2E"/>
<path d="M42.7987 36.465C41.0592 35.2761 39.689 33.5888 38.8938 31.6089H35.4351C36.8186 34.342 39.578 36.2661 42.7987 36.465Z" fill="#DB9C2E"/>
<path d="M55.8704 20.1624H31.1296C30.5057 20.1624 30 19.6562 30 19.032V17.1304C30 16.506 30.5059 16 31.1296 16H55.8704C56.4943 16 57 16.5062 57 17.1304V19.032C57 19.6562 56.4941 20.1624 55.8704 20.1624Z" fill="#BF6C0D"/>
<path d="M31.1296 58.8376H55.8704C56.4943 58.8376 57 59.3438 57 59.968V61.8696C57 62.494 56.4941 63 55.8704 63H31.1296C30.5057 63 30 62.4938 30 61.8696V59.968C30 59.3438 30.5059 58.8376 31.1296 58.8376Z" fill="#BF6C0D"/>
<path d="M40.8701 24.6716C41.8384 24.6716 42.6234 23.8951 42.6234 22.9373C42.6234 21.9794 41.8384 21.2029 40.8701 21.2029C39.9018 21.2029 39.1169 21.9794 39.1169 22.9373C39.1169 23.8951 39.9018 24.6716 40.8701 24.6716Z" fill="#FFD59A"/>
<path d="M40.8701 58.3173C41.8384 58.3173 42.6234 57.5408 42.6234 56.583C42.6234 55.6252 41.8384 54.8487 40.8701 54.8487C39.9018 54.8487 39.1169 55.6252 39.1169 56.583C39.1169 57.5408 39.9018 58.3173 40.8701 58.3173Z" fill="#DB9C2E"/>
<path d="M35.5371 19.032V17.1306C35.5371 16.506 36.041 16 36.6623 16H31.1252C30.5037 16 30 16.5062 30 17.1306V19.032C30 19.6564 30.5039 20.1624 31.1252 20.1624H36.6623C36.041 20.1624 35.5371 19.6562 35.5371 19.032Z" fill="#A56021"/>
<path d="M35.5371 61.8696V59.9681C35.5371 59.3437 36.041 58.8376 36.6623 58.8376H31.1252C30.5037 58.8376 30 59.3439 30 59.9681V61.8696C30 62.4942 30.5039 63 31.1252 63H36.6623C36.041 63.0002 35.5371 62.4942 35.5371 61.8696Z" fill="#A56021"/>
</g>
<defs>
<filter id="filter0_d" x="0" y="0" width="86" height="87" filterUnits="userSpaceOnUse" color-interpolation-filters="sRGB">
<feFlood flood-opacity="0" result="BackgroundImageFix"/>
<feColorMatrix in="SourceAlpha" type="matrix" values="0 0 0 0 0 0 0 0 0 0 0 0 0 0 0 0 0 0 127 0"/>
<feOffset dy="4"/>
<feGaussianBlur stdDeviation="4"/>
<feColorMatrix type="matrix" values="0 0 0 0 0.801432 0 0 0 0 0.801432 0 0 0 0 0.801432 0 0 0 0.5 0"/>
<feBlend mode="normal" in2="BackgroundImageFix" result="effect1_dropShadow"/>
<feBlend mode="normal" in="SourceGraphic" in2="effect1_dropShadow" result="shape"/>
</filter>
</defs>
</svg>
