<svg width="86" height="88" viewBox="0 0 86 88" fill="none" xmlns="http://www.w3.org/2000/svg">
<g filter="url(#filter0_d)">
<path d="M61.7995 9.89463C67.2345 13.6063 71.5123 19.0475 74.3599 25.207C77.2204 31.3799 78.6507 38.2711 77.7145 44.8032C76.7783 51.3486 73.4627 57.5214 68.9639 62.3772C64.465 67.233 58.7699 70.7851 52.4377 73.1265C46.1185 75.4812 39.1752 76.6253 32.6349 75.1886C26.1077 73.7518 19.9835 69.7208 15.7057 64.2796C11.4409 58.8385 9.00939 51.9738 8.25524 45.0161C7.5011 38.045 8.41127 30.9941 11.0768 24.6483C13.7423 18.3025 18.1761 12.6751 23.8192 9.05651C29.4623 5.43794 36.3016 3.82821 43.0239 4.01446C49.7462 4.20071 56.3514 6.18294 61.7995 9.89463Z" fill="#E2F4FC"/>
<path d="M50.8817 27.7953C40.3612 28.0077 32.0014 36.7989 32.0014 47.4038L60.9152 54.0742H63.7499C67.5073 54.0742 70.5532 51.0045 70.5532 47.2178C70.5532 36.3562 61.7084 27.5765 50.8817 27.7953Z" fill="#D3AF55"/>
<path d="M61.853 31.3442C61.798 31.1316 61.7215 30.9224 61.6249 30.72C61.5238 30.5207 61.4002 30.3304 61.2588 30.1495C61.1881 30.0593 61.1136 29.973 61.036 29.8911C60.9564 29.8106 60.872 29.7358 60.7858 29.6649C60.6128 29.5232 60.4286 29.4001 60.2362 29.2975C59.8429 29.0995 59.4178 28.9835 58.9811 28.966C58.1129 28.9353 57.4405 28.2585 57.375 27.3952C57.3604 27.1748 57.3225 26.9569 57.2627 26.744C57.2001 26.5344 57.1128 26.3333 57.0068 26.139C56.7987 25.7459 56.4891 25.4105 56.1241 25.1277C55.3768 24.5816 54.4588 24.3748 53.6008 24.5916C52.7638 24.783 51.9217 24.3495 51.6194 23.5255C51.465 23.1124 51.2184 22.7403 50.9009 22.4275C50.5782 22.1273 50.1906 21.8716 49.7479 21.7268C49.3108 21.5672 48.8487 21.5253 48.41 21.5637C47.9687 21.61 47.5448 21.7563 47.1718 21.9832C46.4299 22.448 45.504 22.2732 44.9508 21.6103C44.8115 21.4392 44.6541 21.2811 44.4808 21.1443C44.3072 21.013 44.1178 20.899 43.9167 20.8037C43.8162 20.7562 43.7125 20.7133 43.6066 20.6752C43.5005 20.6392 43.3918 20.6126 43.281 20.5886C43.0597 20.5417 42.8304 20.5153 42.5977 20.5105C42.365 20.5154 42.1356 20.5418 41.9143 20.5886C41.8037 20.6125 41.6949 20.6393 41.5888 20.6752C41.4827 20.7133 41.3792 20.7562 41.2787 20.8037C41.0775 20.899 40.8883 21.0128 40.7145 21.1443C40.5412 21.2811 40.3837 21.4392 40.2445 21.6103C39.6914 22.2731 38.7654 22.4478 38.0233 21.9831C37.6503 21.7562 37.2265 21.6099 36.7852 21.5636C36.3466 21.5252 35.8845 21.5671 35.4473 21.7267C35.0047 21.8715 34.6171 22.1273 34.2944 22.4275C33.977 22.7403 33.7303 23.1125 33.5758 23.5256C33.2736 24.3493 32.4316 24.7829 31.5944 24.5917C30.7367 24.3748 29.8187 24.5816 29.0712 25.1278C28.7062 25.4106 28.3966 25.7461 28.1884 26.1391C28.0824 26.3334 27.9951 26.5347 27.9325 26.7442C27.8728 26.957 27.8348 27.1749 27.8201 27.3954C27.7549 28.2586 27.0824 28.9353 26.2141 28.9662C25.7773 28.9838 25.3524 29.0997 24.959 29.2977C24.7668 29.4004 24.5826 29.5236 24.4095 29.6651C24.3232 29.736 24.2388 29.8108 24.1592 29.8913C24.0816 29.9732 24.0072 30.0594 23.9364 30.1498C23.7952 30.3306 23.6714 30.521 23.5705 30.7202C23.4738 30.9227 23.3973 31.1318 23.3424 31.3444C23.2277 31.7665 23.2225 32.2176 23.2985 32.6487C23.3178 32.7553 23.3263 32.8611 23.3244 32.965C23.325 33.0704 23.3156 33.174 23.2968 33.2747C23.2592 33.4758 23.1842 33.6651 23.077 33.8342C22.8672 34.1749 22.5395 34.4429 22.1177 34.5572C21.701 34.6789 21.3114 34.8876 20.9771 35.1708C20.8139 35.3143 20.663 35.4756 20.5274 35.6522C20.4596 35.7405 20.3954 35.8326 20.3356 35.9279C20.278 36.0246 20.2257 36.1251 20.1772 36.2285C20.0806 36.4355 20.0045 36.6485 19.9498 36.8639C19.8982 37.0806 19.8728 37.3019 19.8661 37.5206C19.8615 37.74 19.8728 37.9559 19.9161 38.1715C19.9588 38.3867 20.0228 38.597 20.1086 38.7997C20.1947 39.0009 20.2308 39.2025 20.2398 39.4117L42.4515 46.7743L57.57 36.1336C61.4253 35.3253 61.8965 32.6487 61.8965 32.6487C61.9727 32.2173 61.9677 31.7662 61.853 31.3442Z" fill="#B5CF57"/>
<path d="M57.5703 36.1333C55.967 37.448 48.5889 41.7974 42.4517 46.774L58.5497 52.1099C58.7903 51.7345 59.1255 51.4747 59.5014 51.3306C59.6909 51.2618 59.8862 51.2091 60.0949 51.2046C60.3009 51.194 60.511 51.2094 60.7265 51.2726C61.1578 51.3909 61.6278 51.393 62.0856 51.2718C62.3175 51.2159 62.5355 51.1154 62.7554 51.0028C62.9681 50.8814 63.1731 50.7345 63.3611 50.5637C63.7307 50.2147 64.0152 49.7966 64.1696 49.3452C64.2091 49.2332 64.2424 49.1204 64.2693 49.008C64.293 48.893 64.3088 48.7771 64.3191 48.6627C64.3291 48.5481 64.3325 48.4344 64.3294 48.3222C64.3236 48.2082 64.3092 48.0941 64.2895 47.9832C64.25 47.7637 64.254 47.5519 64.2794 47.3438C64.2939 47.2407 64.3175 47.1409 64.3498 47.0447C64.3812 46.948 64.4144 46.8513 64.4598 46.7608C64.5039 46.6696 64.5588 46.5838 64.6176 46.5007C64.6737 46.4164 64.7382 46.3369 64.8105 46.2628C64.9589 46.1161 65.1252 45.985 65.3213 45.883C65.4211 45.8314 65.5187 45.7733 65.6134 45.7091C65.7043 45.6435 65.791 45.5715 65.8753 45.4938C65.9593 45.416 66.0403 45.3326 66.1176 45.2439C66.1911 45.1542 66.2581 45.0584 66.3227 44.9584C66.386 44.8581 66.4485 44.754 66.5005 44.6445C66.5501 44.5346 66.5952 44.4208 66.6354 44.3037C66.7214 44.0705 66.7614 43.8207 66.7891 43.5663C66.8147 43.3118 66.7953 43.0573 66.7664 42.8131C66.7229 42.5685 66.6586 42.3328 66.569 42.1133C66.4704 41.8943 66.3567 41.6903 66.2186 41.5081C66.074 41.3266 65.9131 41.1657 65.7381 41.0291C65.5604 40.8954 65.409 40.7396 65.2971 40.5675C65.1839 40.3957 65.0864 40.2128 65.0356 40.0166C64.981 39.8214 64.9445 39.6209 64.9558 39.4114C64.9646 39.2022 65.0008 39.0005 65.087 38.7993C65.1727 38.5966 65.2369 38.3864 65.2794 38.1712C65.3228 37.9559 65.3341 37.7398 65.3295 37.5203C65.3228 37.3015 65.2974 37.0803 65.2458 36.8636C65.191 36.6483 65.115 36.4351 65.0183 36.2282C64.9699 36.1248 64.9176 36.0243 64.86 35.9276C64.8001 35.832 64.736 35.7401 64.6682 35.6519C64.5325 35.4753 64.3817 35.314 64.2184 35.1705C64.1813 35.1392 64.1435 35.1085 64.105 35.0789C63.6137 34.7007 63.0074 34.4285 62.394 34.3514C60.8226 34.1538 59.5025 34.5489 57.5703 36.1333Z" fill="#915729"/>
<path d="M44.0201 38.3036C47.7776 38.3036 50.8236 35.2341 50.8236 31.4477C50.8236 27.6613 47.7776 24.5918 44.0201 24.5918C40.2627 24.5918 37.2166 27.6613 37.2166 31.4477C37.2166 35.2341 40.2627 38.3036 44.0201 38.3036Z" fill="#E56E31"/>
<path d="M29.0538 40.2471C32.8112 40.2471 35.8573 37.1776 35.8573 33.3912C35.8573 29.6048 32.8112 26.5353 29.0538 26.5353C25.2963 26.5353 22.2503 29.6048 22.2503 33.3912C22.2503 37.1776 25.2963 40.2471 29.0538 40.2471Z" fill="#E56E31"/>
<path d="M22.2503 50.0634C26.0078 50.0634 29.0538 46.9939 29.0538 43.2075C29.0538 39.4211 26.0078 36.3516 22.2503 36.3516C18.4928 36.3516 15.4468 39.4211 15.4468 43.2075C15.4468 46.9939 18.4928 50.0634 22.2503 50.0634Z" fill="#D55D3B"/>
<path d="M54.6788 48.3605C58.4363 48.3605 61.4823 45.291 61.4823 41.5046C61.4823 37.7182 58.4363 34.6487 54.6788 34.6487C50.9213 34.6487 47.8753 37.7182 47.8753 41.5046C47.8753 45.291 50.9213 48.3605 54.6788 48.3605Z" fill="#D55D3B"/>
<path d="M53.8315 30.0544C55.0477 29.7259 56.1607 30.8476 55.8348 32.0734L55.1995 34.4633L54.5642 36.8532C54.2383 38.079 52.7179 38.4895 51.8276 37.5921L50.0917 35.8427L48.3558 34.0932C47.4654 33.1959 47.8728 31.6637 49.089 31.3352L51.4602 30.6948L53.8315 30.0544Z" fill="#B7B82C"/>
<path d="M52.8606 34.219L53.4959 31.8291C53.6565 31.2251 53.4669 30.6474 53.0886 30.255L51.4602 30.6947L49.089 31.335C47.8728 31.6636 47.4654 33.1957 48.3558 34.093L50.0917 35.8424L51.6895 37.4527C51.938 37.2467 52.1313 36.9617 52.2253 36.6085L52.8606 34.219Z" fill="#D9DA64"/>
<path d="M35.6983 25.4413C36.3278 24.6132 37.9019 24.6132 38.5314 25.4413L39.7588 27.0559L40.9862 28.6706C41.6158 29.4987 40.8288 30.534 39.5696 30.534H37.1148H34.6599C33.4007 30.534 32.6137 29.4988 33.2433 28.6706L34.4707 27.0559L35.6983 25.4413Z" fill="#B7B82C"/>
<path d="M37.9337 28.1817L36.7062 26.567C36.3962 26.159 35.8566 25.953 35.3138 25.947L34.471 27.0557L33.2436 28.6704C32.6141 29.4985 33.401 30.5338 34.6602 30.5338H37.1151H39.3747C39.4058 30.2905 39.3426 30.0348 39.1613 29.7963L37.9337 28.1817Z" fill="#D9DA64"/>
<path d="M18.6703 35.1048C18.5345 34.0705 19.6474 32.9488 20.6736 33.0857L22.6745 33.3527L24.6753 33.6196C25.7015 33.7566 25.8714 35.0495 24.981 35.9467L23.245 37.6962L21.509 39.4457C20.6187 40.343 19.3358 40.1719 19.2 39.1376L18.9351 37.1212L18.6703 35.1048Z" fill="#B7B82C"/>
<path d="M22.1738 35.4496L20.1729 35.1826C19.6673 35.1152 19.1413 35.3539 18.7534 35.7365L18.9354 37.1212L19.2003 39.1376C19.3361 40.1718 20.6189 40.3429 21.5094 39.4457L23.2453 37.6962L24.8431 36.086C24.6946 35.8918 24.4704 35.7561 24.1747 35.7165L22.1738 35.4496Z" fill="#D9DA64"/>
<path d="M18.3948 47.4038C18.3948 36.799 26.7547 28.0078 37.2751 27.7953C48.1019 27.5766 56.9465 36.3562 56.9465 47.2179C56.9465 51.0045 59.9925 54.0744 63.7498 54.0744H25.0137C21.3582 54.0742 18.3948 51.0877 18.3948 47.4038Z" fill="#FFE996"/>
<path d="M57.0103 48.1447H18.4365C18.8025 51.4798 21.6069 54.0743 25.0137 54.0743H63.7499C60.3047 54.0742 57.4595 51.4927 57.0103 48.1447Z" fill="#FFDF66"/>
<path d="M30.0373 38.0195C30.4966 38.0195 30.8689 37.6439 30.8689 37.1805C30.8689 36.7171 30.4966 36.3414 30.0373 36.3414C29.5781 36.3414 29.2058 36.7171 29.2058 37.1805C29.2058 37.6439 29.5781 38.0195 30.0373 38.0195Z" fill="#D3AF55"/>
<path d="M26.0456 41.3759C26.5049 41.3759 26.8772 41.0002 26.8772 40.5368C26.8772 40.0734 26.5049 39.6978 26.0456 39.6978C25.5864 39.6978 25.2141 40.0734 25.2141 40.5368C25.2141 41.0002 25.5864 41.3759 26.0456 41.3759Z" fill="#D3AF55"/>
<path d="M32.6983 44.061C33.1576 44.061 33.5299 43.6854 33.5299 43.222C33.5299 42.7586 33.1576 42.3829 32.6983 42.3829C32.2391 42.3829 31.8668 42.7586 31.8668 43.222C31.8668 43.6854 32.2391 44.061 32.6983 44.061Z" fill="#D3AF55"/>
<path d="M26.1565 37.3483C26.6157 37.3483 26.988 36.9726 26.988 36.5092C26.988 36.0458 26.6157 35.6702 26.1565 35.6702C25.6972 35.6702 25.325 36.0458 25.325 36.5092C25.325 36.9726 25.6972 37.3483 26.1565 37.3483Z" fill="#D3AF55"/>
<path d="M36.1355 33.9918C36.5948 33.9918 36.967 33.6162 36.967 33.1528C36.967 32.6894 36.5948 32.3137 36.1355 32.3137C35.6763 32.3137 35.304 32.6894 35.304 33.1528C35.304 33.6162 35.6763 33.9918 36.1355 33.9918Z" fill="#D3AF55"/>
<path d="M39.4619 41.8234C39.9212 41.8234 40.2934 41.4477 40.2934 40.9843C40.2934 40.5209 39.9212 40.1453 39.4619 40.1453C39.0027 40.1453 38.6304 40.5209 38.6304 40.9843C38.6304 41.4477 39.0027 41.8234 39.4619 41.8234Z" fill="#D3AF55"/>
<path d="M42.7882 36.2294C43.2474 36.2294 43.6197 35.8537 43.6197 35.3903C43.6197 34.9269 43.2474 34.5513 42.7882 34.5513C42.3289 34.5513 41.9566 34.9269 41.9566 35.3903C41.9566 35.8537 42.3289 36.2294 42.7882 36.2294Z" fill="#D3AF55"/>
<path d="M50.5497 42.9422C51.0089 42.9422 51.3812 42.5665 51.3812 42.1031C51.3812 41.6397 51.0089 41.264 50.5497 41.264C50.0904 41.264 49.7181 41.6397 49.7181 42.1031C49.7181 42.5665 50.0904 42.9422 50.5497 42.9422Z" fill="#D3AF55"/>
</g>
<defs>
<filter id="filter0_d" x="0" y="0" width="86" height="87.8219" filterUnits="userSpaceOnUse" color-interpolation-filters="sRGB">
<feFlood flood-opacity="0" result="BackgroundImageFix"/>
<feColorMatrix in="SourceAlpha" type="matrix" values="0 0 0 0 0 0 0 0 0 0 0 0 0 0 0 0 0 0 127 0"/>
<feOffset dy="4"/>
<feGaussianBlur stdDeviation="4"/>
<feColorMatrix type="matrix" values="0 0 0 0 0.801432 0 0 0 0 0.801432 0 0 0 0 0.801432 0 0 0 0.5 0"/>
<feBlend mode="normal" in2="BackgroundImageFix" result="effect1_dropShadow"/>
<feBlend mode="normal" in="SourceGraphic" in2="effect1_dropShadow" result="shape"/>
</filter>
</defs>
</svg>
