<svg width="110" height="110" viewBox="0 0 110 110" fill="none" xmlns="http://www.w3.org/2000/svg">
<g filter="url(#filter0_d)">
<path fill-rule="evenodd" clip-rule="evenodd" d="M55 70C71.5685 70 85 56.5685 85 40C85 23.4315 71.5685 10 55 10C38.4315 10 25 23.4315 25 40C25 56.5685 38.4315 70 55 70Z" fill="white"/>
</g>
<path d="M70.577 25.4138H69.5999C68.525 25.4138 67.6456 26.2983 67.6456 27.3793C67.6456 32.5683 59.8284 32.5683 59.8284 27.3793C59.8284 24.785 55.9198 24.785 55.9198 27.3793V32.2931C55.9198 32.8435 55.4898 33.2759 54.9427 33.2759C54.4149 33.2759 53.9655 32.8435 53.9655 32.2931V27.3793C53.9655 26.2394 54.3564 25.3352 54.9427 24.7062C57.0338 22.4459 61.7828 23.3303 61.7828 27.3793C61.7828 29.9737 65.6913 29.9737 65.6913 27.3793C65.6913 25.2173 67.4503 23.4483 69.5999 23.4483H70.577C71.8668 23.4483 71.8864 25.4138 70.577 25.4138Z" fill="#0059AA"/>
<path d="M55 33.2759V24.7062C57.0839 22.4459 61.8165 23.3303 61.8165 27.3793C61.8165 29.9738 65.7115 29.9738 65.7115 27.3793C65.7115 25.2173 67.4644 23.4483 69.6066 23.4483H70.5804C71.8658 23.4483 71.8852 25.4138 70.5804 25.4138H69.6066C68.5355 25.4138 67.6591 26.2983 67.6591 27.3794C67.6591 32.5683 59.8688 32.5683 59.8688 27.3794C59.8688 24.785 55.9737 24.785 55.9737 27.3794V32.2932C55.9738 32.8435 55.5453 33.2759 55 33.2759Z" fill="#08469C"/>
<path d="M56.5518 31.2069H52.4138C51.8344 31.2069 51.3793 31.6667 51.3793 32.2518V36.327C51.3793 36.8913 51.8139 37.351 52.3723 37.3719C53.2827 37.4138 53.8828 37.4138 54.4828 37.4138C55.0827 37.4138 55.6828 37.4138 56.5932 37.3719C57.1518 37.351 57.5862 36.8913 57.5862 36.327V32.2518C57.5863 31.6667 57.1311 31.2069 56.5518 31.2069Z" fill="#C5C9F7"/>
<path d="M57.5862 32.2518V36.327C57.5862 36.8913 57.2241 37.351 56.7587 37.3719C56.0001 37.4138 55.5 37.4138 55 37.4138V31.2069H56.7242C57.2069 31.2069 57.5862 31.6667 57.5862 32.2518Z" fill="#A8AFF1"/>
<path d="M69.7251 36.3681C69.7251 36.3488 69.6669 36.1563 69.6475 36.1563C68.9297 34.3082 66.7957 33.365 64.8362 33.981C62.2364 34.8088 58.5504 35.1938 54.8836 35.1938C51.2169 35.1938 47.5308 34.7702 45.0086 34.0003C43.0879 33.4227 41.0315 34.366 40.3331 36.1563L40.2749 36.3487C39.0914 39.5443 37.326 49.8047 39.4212 54.29C39.9257 55.3488 40.6242 56.061 41.5166 56.3691C43.476 57.1006 46.0175 55.6376 49.2381 51.9223L53.4867 48.8807C53.8747 48.7844 54.3792 48.7266 54.8836 48.7266C55.4462 48.7074 56.0283 48.7652 56.5133 48.8807L60.762 51.9223C63.4587 55.0216 65.6704 56.5423 67.4552 56.5423C68.9103 56.5423 69.958 55.599 70.5788 54.29C72.674 49.8047 70.9086 39.5444 69.7251 36.3681Z" fill="#E1E4FB"/>
<path d="M70.5856 54.2985C69.969 55.6081 68.9287 56.5517 67.4838 56.5517C65.7115 56.5517 63.5152 55.0304 60.8373 51.9298L56.6183 48.8869C56.1367 48.7714 55.5587 48.7136 55 48.7328V35.1944C58.6411 35.1944 62.3014 34.8092 64.8831 33.9811C66.8288 33.3648 68.948 34.3084 69.6608 36.1573C69.6801 36.1573 69.7379 36.3498 69.7379 36.3691C70.9131 39.5468 72.6661 49.8113 70.5856 54.2985Z" fill="#C5C9F7"/>
<path d="M47.2414 41.0345H46.2069V40C46.2069 39.4282 45.7442 38.9655 45.1724 38.9655C44.6006 38.9655 44.1379 39.4282 44.1379 40V41.0345H43.1035C42.5317 41.0345 42.069 41.4971 42.069 42.069C42.069 42.6408 42.5316 43.1034 43.1035 43.1034H44.1379V44.1379C44.1379 44.7097 44.6006 45.1724 45.1724 45.1724C45.7442 45.1724 46.2069 44.7098 46.2069 44.1379V43.1034H47.2414C47.8131 43.1034 48.2759 42.6408 48.2759 42.069C48.2759 41.4971 47.8131 41.0345 47.2414 41.0345Z" fill="#0D70B2"/>
<path d="M64.3103 41.0345C64.8817 41.0345 65.3448 40.5713 65.3448 40C65.3448 39.4287 64.8817 38.9655 64.3103 38.9655C63.739 38.9655 63.2759 39.4287 63.2759 40C63.2759 40.5713 63.739 41.0345 64.3103 41.0345Z" fill="#32D736"/>
<path d="M66.3793 43.1035C66.9506 43.1035 67.4138 42.6403 67.4138 42.069C67.4138 41.4976 66.9506 41.0345 66.3793 41.0345C65.808 41.0345 65.3448 41.4976 65.3448 42.069C65.3448 42.6403 65.808 43.1035 66.3793 43.1035Z" fill="#B758CE"/>
<path d="M64.3103 44.6552C64.8817 44.6552 65.3448 44.192 65.3448 43.6207C65.3448 43.0494 64.8817 42.5862 64.3103 42.5862C63.739 42.5862 63.2759 43.0494 63.2759 43.6207C63.2759 44.192 63.739 44.6552 64.3103 44.6552Z" fill="#17ACE8"/>
<path d="M62.7586 43.1035C63.3299 43.1035 63.7931 42.6403 63.7931 42.069C63.7931 41.4976 63.3299 41.0345 62.7586 41.0345C62.1873 41.0345 61.7241 41.4976 61.7241 42.069C61.7241 42.6403 62.1873 43.1035 62.7586 43.1035Z" fill="#FD003A"/>
<path d="M53.0603 43.1035H51.25C50.7497 43.1035 50.3448 42.6408 50.3448 42.069C50.3448 41.4971 50.7496 41.0345 51.25 41.0345H53.0603C53.5606 41.0345 53.9655 41.4971 53.9655 42.069C53.9655 42.6408 53.5606 43.1035 53.0603 43.1035Z" fill="#0D70B2"/>
<path d="M58.75 43.1035H56.9397C56.4394 43.1035 56.0345 42.6408 56.0345 42.069C56.0345 41.4971 56.4393 41.0345 56.9397 41.0345H58.75C59.2503 41.0345 59.6552 41.4971 59.6552 42.069C59.6552 42.6408 59.2503 43.1035 58.75 43.1035Z" fill="#0059AA"/>
<path d="M50.0862 52.931C47.9466 52.931 46.2069 51.1912 46.2069 49.0517C46.2069 46.9123 47.9467 45.1724 50.0862 45.1724C52.2257 45.1724 53.9655 46.9123 53.9655 49.0517C53.9655 51.1912 52.2257 52.931 50.0862 52.931Z" fill="#0D70B2"/>
<path d="M59.9138 52.931C57.7743 52.931 56.0345 51.1912 56.0345 49.0517C56.0345 46.9123 57.7743 45.1724 59.9138 45.1724C62.0533 45.1724 63.7931 46.9123 63.7931 49.0517C63.7931 51.1912 62.0533 52.931 59.9138 52.931Z" fill="#0059AA"/>
<defs>
<filter id="filter0_d" x="0" y="0" width="110" height="110" filterUnits="userSpaceOnUse" color-interpolation-filters="sRGB">
<feFlood flood-opacity="0" result="BackgroundImageFix"/>
<feColorMatrix in="SourceAlpha" type="matrix" values="0 0 0 0 0 0 0 0 0 0 0 0 0 0 0 0 0 0 127 0"/>
<feOffset dy="15"/>
<feGaussianBlur stdDeviation="12.5"/>
<feColorMatrix type="matrix" values="0 0 0 0 0 0 0 0 0 0 0 0 0 0 0 0 0 0 0.14906 0"/>
<feBlend mode="normal" in2="BackgroundImageFix" result="effect1_dropShadow"/>
<feBlend mode="normal" in="SourceGraphic" in2="effect1_dropShadow" result="shape"/>
</filter>
</defs>
</svg>
