<svg width="24" height="24" viewBox="0 0 24 24" fill="none" xmlns="http://www.w3.org/2000/svg">
<path fill-rule="evenodd" clip-rule="evenodd" d="M13.44 0H18.7429C21.6416 0 24 2.41823 24 5.39062V18.6094C24 21.5818 21.6416 24 18.7429 24H13.44V0ZM15.9543 12.7266C15.9543 14.2903 17.195 15.5625 18.72 15.5625C20.245 15.5625 21.4857 14.2903 21.4857 12.7266C21.4857 11.1629 20.245 9.89062 18.72 9.89062C17.195 9.89062 15.9543 11.1629 15.9543 12.7266Z" fill="#DA0303"/>
<path fill-rule="evenodd" clip-rule="evenodd" d="M5.27809 24H11.52V0H5.27809C2.36775 0 0 2.41823 0 5.39062V18.6094C0 21.5818 2.36775 24 5.27809 24ZM1.37689 5.39062C1.37689 3.19364 3.12697 1.40625 5.27809 1.40625H10.1431V22.5938H5.27809C3.12697 22.5938 1.37689 20.8064 1.37689 18.6094V5.39062Z" fill="#DA0303"/>
<path d="M5.76001 9.89062C4.22895 9.89062 2.98328 8.61839 2.98328 7.05469C2.98328 5.49098 4.22895 4.21875 5.76001 4.21875C7.29107 4.21875 8.53674 5.49098 8.53674 7.05469C8.53674 8.61839 7.29107 9.89062 5.76001 9.89062Z" fill="#DA0303"/>
</svg>
