<svg width="22" height="22" viewBox="0 0 22 22" fill="none" xmlns="http://www.w3.org/2000/svg">
<path fill-rule="evenodd" clip-rule="evenodd" d="M12.4348 0H17.2381C19.8638 0 22 2.21671 22 4.94141V17.0586C22 19.7833 19.8638 22 17.2381 22H12.4348V0ZM14.7122 11.666C14.7122 13.0994 15.8361 14.2656 17.2174 14.2656C18.5987 14.2656 19.7226 13.0994 19.7226 11.666C19.7226 10.2326 18.5987 9.06641 17.2174 9.06641C15.8361 9.06641 14.7122 10.2326 14.7122 11.666Z" fill="#DA0303"/>
<path fill-rule="evenodd" clip-rule="evenodd" d="M4.82072 22H10.5217V0H4.82072C2.16257 0 0 2.21671 0 4.94141V17.0586C0 19.7833 2.16257 22 4.82072 22ZM1.25758 4.94141C1.25758 2.9275 2.856 1.28906 4.82072 1.28906H9.26416V20.7109H4.82072C2.856 20.7109 1.25758 19.0725 1.25758 17.0586V4.94141Z" fill="#DA0303"/>
<path d="M5.26085 9.06641C3.86246 9.06641 2.72473 7.90019 2.72473 6.4668C2.72473 5.0334 3.86246 3.86719 5.26085 3.86719C6.65923 3.86719 7.79696 5.0334 7.79696 6.4668C7.79696 7.90019 6.65923 9.06641 5.26085 9.06641Z" fill="#DA0303"/>
</svg>
