<svg width="44" height="34" viewBox="0 0 44 34" fill="none" xmlns="http://www.w3.org/2000/svg">
<g opacity="0.600074">
<path d="M9.33357 13.4812C9.88641 10.1252 14.2302 6.54035 17.6263 6.46408C17.8632 6.46408 18.1001 6.38781 18.2581 6.23526C18.416 6.15899 18.574 6.08271 18.653 5.8539C19.8376 3.71826 19.2058 2.04026 17.2314 0.667348C14.941 -0.93438 11.308 0.667348 9.49153 2.11653C4.91081 5.77762 0.251109 12.1081 0.488043 18.1338C-0.301736 22.1764 -0.143781 26.5238 1.04089 30.1086C1.83067 32.3968 4.12103 33.5409 6.49036 33.6935C8.8597 33.8461 13.7563 34.5325 15.8887 33.1597C18.0211 31.7866 18.1791 29.1171 18.416 26.829C18.653 24.312 19.3638 19.583 17.1524 17.5999C14.941 15.6931 8.62277 17.7524 9.33357 13.4812Z" fill="#9FDAF4" fill-opacity="0.683047"/>
<path d="M34.0835 13.4812C34.6364 10.1252 38.98 6.54035 42.3761 6.46408C42.6131 6.46408 42.85 6.38781 43.008 6.23526C43.166 6.15899 43.3239 6.08271 43.403 5.8539C44.5876 3.71826 43.9558 2.04026 41.9814 0.667348C39.691 -0.93438 36.0581 0.667348 34.2415 2.11653C29.6608 5.77762 25.0011 12.1083 25.238 18.1338C24.4483 22.1764 24.6062 26.5238 25.7908 30.1086C26.5805 32.3968 28.8709 33.5409 31.2403 33.6935C33.6096 33.8461 38.5062 34.5325 40.6386 33.1597C42.7709 31.7866 42.929 29.1171 43.1659 26.829C43.4028 24.312 44.1136 19.583 41.9023 17.5999C39.6909 15.6931 33.2937 17.7524 34.0835 13.4812Z" fill="#9FDAF4" fill-opacity="0.683047"/>
</g>
</svg>
