<svg width="150" height="121" viewBox="0 0 150 121" fill="none" xmlns="http://www.w3.org/2000/svg">
<path fill-rule="evenodd" clip-rule="evenodd" d="M44.5368 7.78845C41.0647 7.78845 38.25 10.6031 38.25 14.0752V19.9632C38.25 23.1126 40.5658 25.7211 43.5874 26.1788C43.5887 26.2046 43.5901 26.2305 43.5916 26.2565H51.6945C52.9938 24.9459 51.6834 16.4892 50.7155 12.9086C50.1685 9.99392 47.6102 7.78845 44.5368 7.78845Z" fill="#191847"/>
<path fill-rule="evenodd" clip-rule="evenodd" d="M44.6584 21.705C46.4678 22.831 48.2456 23.375 49.0801 23.1529C51.1727 22.596 51.3651 14.6928 49.7459 11.577C48.1268 8.46134 39.8031 7.10331 39.3835 13.2765C39.2379 15.4191 40.1093 17.3311 41.3968 18.8913L39.0882 30H45.7941L44.6584 21.705Z" fill="#D4A181"/>
<path fill-rule="evenodd" clip-rule="evenodd" d="M38.4962 13.3126C38.6909 13.1138 38.8793 12.9215 39.0662 12.7494L39.0572 12.5252C39.0572 12.5252 41.1619 8.0769 44.3974 8.0769C47.6301 8.0769 48.6525 9.62844 49.5216 10.9473L49.5239 10.9509C49.0693 12.5611 47.6993 13.2126 46.15 13.9494C45.483 14.2665 44.7828 14.5995 44.1081 15.0316C43.8438 14.8099 43.5068 14.677 43.1397 14.677C42.291 14.677 41.6029 15.3873 41.6029 16.2636C41.6029 17.1398 42.291 17.8501 43.1397 17.8501C43.1631 17.8501 43.1864 17.8496 43.2095 17.8485C43.5185 21.2748 43.3947 25.1877 42.4739 26.1165H34.371C34.1384 21.9441 35.1839 20.7539 36.2522 19.5377C37.2573 18.3933 38.2828 17.2259 38.2828 13.5296C38.3549 13.4569 38.426 13.3843 38.4962 13.3126Z" fill="#191847"/>
<path fill-rule="evenodd" clip-rule="evenodd" d="M36.2667 53L46.5389 89.1985L54.0336 115.879H59.5L51.5358 53H36.2667Z" fill="#191847"/>
<path fill-rule="evenodd" clip-rule="evenodd" d="M33.5196 53C33.282 71.6571 32.4718 81.8332 32.2223 83.5283C31.9728 85.2234 28.2008 96.0068 20.9061 115.879H26.5689C35.8555 96.815 41.0396 86.0316 42.121 83.5283C43.2025 81.025 46.5399 70.8489 51.5666 53H33.5196Z" fill="#2F3676"/>
<path fill-rule="evenodd" clip-rule="evenodd" d="M20.4 121L20.6833 115.025L26.6333 115.025C30.8653 118.013 37.6833 119.862 37.6833 119.862V121H26.9167L23.2333 120.431V121H20.4Z" fill="#191847"/>
<path fill-rule="evenodd" clip-rule="evenodd" d="M53.2667 121L53.55 115.025L59.5 115.025C63.732 118.013 70.55 119.862 70.55 119.862V121H59.7833L56.1 120.431V121H53.2667Z" fill="#191847"/>
<path fill-rule="evenodd" clip-rule="evenodd" d="M72.0088 39.9842L60.75 41.5106L62.77 46.5241L71.9055 42.9243C75.8432 43.3104 77.7473 43.2175 77.6177 42.6454C77.5085 42.1631 77.0899 42.0175 76.7044 41.8834C76.4041 41.7789 76.1238 41.6814 76.0254 41.4371C75.8006 40.8792 77.0806 39.7229 78.3422 38.6776C79.6037 37.6323 78.7569 37.44 78.2246 37.4554C76.3329 37.8961 74.261 38.7391 72.0088 39.9842ZM17.2345 67.4714C18.0702 65.7864 25.382 44.1008 25.382 44.1008L31.6262 44.124C31.6262 44.124 21.3558 67.0956 20.9159 68.1792C20.3445 69.5867 21.3151 71.6318 21.9733 73.0184C22.0751 73.233 22.1695 73.4318 22.2495 73.61C21.3362 74.0161 20.8975 73.5252 20.435 73.0076C19.9126 72.423 19.3599 71.8044 18.0586 72.4061C17.5559 72.6386 17.0802 72.9134 16.6154 73.1819C15.01 74.1094 13.5352 74.9615 11.5289 73.7311C11.2108 73.536 10.8623 72.8015 11.7044 72.2276C13.8025 70.7977 16.826 68.2951 17.2345 67.4714Z" fill="#997659"/>
<path fill-rule="evenodd" clip-rule="evenodd" d="M42.4856 24.4171L47.3746 24.7408C48.5786 35.5678 55.1371 42.4067 69.8211 40.0915L71.772 54.0343C58.0475 55.7973 46.0111 50.336 43.5444 35.5494C42.9058 31.7217 42.4016 27.7381 42.4856 24.4171Z" fill="#AFB9C5"/>
<path fill-rule="evenodd" clip-rule="evenodd" d="M18.0911 64.6631C21.4855 46.7122 28.65 32.8245 39.5845 23H40.0537H40.0697L40.0736 23.0045L47.481 24.6907C47.481 33.5346 49.4606 40.1427 51.3638 46.4958C52.1856 49.2393 52.9933 51.9353 53.6211 54.7433H33.6156C33.3338 57.9604 33.1607 61.267 33.0705 64.6631H18.0911Z" fill="#C5CFD6"/>
<path fill-rule="evenodd" clip-rule="evenodd" d="M33.6156 54.7433C34.1893 48.1936 35.2138 42.0148 36.9075 36.207C36.5363 42.418 36.4333 50.1229 37.6815 54.7433H33.6156Z" fill="black" fill-opacity="0.1"/>
<path fill-rule="evenodd" clip-rule="evenodd" d="M112.952 19.309C111.081 20.4323 109.243 20.9751 108.38 20.7535C106.217 20.1979 106.018 12.3128 107.692 9.2043C109.366 6.09575 117.972 4.74084 118.406 10.8999C118.556 13.0375 117.655 14.9451 116.324 16.5018L118.711 27.5849H111.778L112.952 19.309Z" fill="#D4A181"/>
<path fill-rule="evenodd" clip-rule="evenodd" d="M112.605 11.5801C112.006 10.6905 111.43 10.012 110.681 9.61792C107.633 9.6659 107.276 9.12153 107.276 7.28675C107.768 6.93579 109.505 6.34484 111.451 6.17861C112.443 5.89569 113.619 5.94891 114.751 6.42083C116.149 6.81599 117.333 7.66701 117.856 9.26028C119.748 12.5126 118.312 15.8982 116.377 17.0547C115.862 16.4468 115.412 15.8576 115.011 15.2937C115.333 14.9801 115.533 14.5425 115.533 14.0584C115.533 13.1047 114.757 12.3316 113.8 12.3316C113.73 12.3316 113.66 12.3358 113.592 12.3439C113.549 13.5362 113.372 17.5703 112.906 18.9715C112.357 20.6235 109.154 21.0291 108.036 21.0291C107.071 21.0291 107.104 20.1188 107.128 19.4663C107.131 19.3724 107.134 19.2838 107.134 19.204C107.134 19.0373 107.352 19.0378 107.598 19.0382C107.917 19.0389 108.284 19.0396 108.284 18.6747C108.284 18.2769 107.732 17.9718 107.238 17.6988C106.93 17.5284 106.645 17.3706 106.53 17.2105C106.168 16.7055 106.046 16.0243 106.592 16.0243C106.891 16.0243 107.301 16.1959 107.794 16.4022C108.538 16.7137 109.472 17.1046 110.499 17.1046C112.197 17.1046 112.6 11.6484 112.605 11.5801Z" fill="#191847"/>
<path fill-rule="evenodd" clip-rule="evenodd" d="M120.226 52L109.591 88.4421L104.589 115.803H99.5684L104.58 52H120.226Z" fill="#D4A181"/>
<path fill-rule="evenodd" clip-rule="evenodd" d="M125.005 52C124.263 70.9315 124.556 81.2572 124.722 82.9772C124.888 84.6972 125.831 96.2167 132.256 116.381H127.034C118.525 97.0368 115.555 85.5173 114.579 82.9772C113.603 80.4371 110.721 70.1114 106.513 52H125.005Z" fill="#D4A181"/>
<path fill-rule="evenodd" clip-rule="evenodd" d="M120.454 52C117.688 64.5398 112.903 84.5566 106.101 112.05H98.7576C98.2152 83.8306 100.522 65.2574 104.518 52H120.454Z" fill="#C5CFD6"/>
<path fill-rule="evenodd" clip-rule="evenodd" d="M125.042 52C124.316 70.9315 126.199 89.5826 132.033 112.345H124.198C115.674 93.2897 109.564 74.7306 105.389 52H125.042Z" fill="#DDE3E9"/>
<path fill-rule="evenodd" clip-rule="evenodd" d="M133 120.134L132.79 116.762C132.75 116.122 132.121 115.677 131.482 115.72C129.108 115.88 126.373 114.937 126.373 114.937C123.576 116.907 119.791 118.024 117.482 118.564C116.397 118.818 115.695 119.928 116.001 121H126.373H132.424L133 120.134Z" fill="#191847"/>
<path fill-rule="evenodd" clip-rule="evenodd" d="M105.71 120.134L105.499 116.762C105.459 116.122 104.831 115.677 104.192 115.72C101.817 115.88 99.0828 114.937 99.0828 114.937C96.286 116.907 92.5002 118.024 90.1921 118.564C89.1065 118.818 88.4047 119.928 88.7104 121H99.0828H105.133L105.71 120.134Z" fill="#191847"/>
<path fill-rule="evenodd" clip-rule="evenodd" d="M142.966 62.3082C141.889 60.7174 135.661 43.8008 135.661 43.8008L130.547 44.5476C130.547 44.5476 138.781 62.5111 139.375 63.5478C140.148 64.8946 139.465 67.1066 139.001 68.6065C138.93 68.8386 138.863 69.0536 138.808 69.2457C139.781 69.5283 140.152 68.9681 140.542 68.3776C140.983 67.7105 141.449 67.0047 142.839 67.4307C143.376 67.5953 143.892 67.8066 144.396 68.0132C146.137 68.7265 147.737 69.3819 149.574 67.8495C149.865 67.6065 150.11 66.8121 149.185 66.3493C146.878 65.1961 143.492 63.0859 142.966 62.3082ZM87.4827 54.4457L96.1977 47.0158L98.5796 51.9213L89.7461 56.3546C87.3846 59.5747 86.034 60.9428 85.6943 60.459C85.4079 60.051 85.5809 59.6381 85.7402 59.2577C85.8643 58.9614 85.9802 58.6849 85.8641 58.4459C85.5991 57.9001 83.8749 58.0807 82.246 58.3225C80.6171 58.5644 81.0434 57.798 81.4132 57.4084C83.0149 56.2846 85.0381 55.297 87.4827 54.4457Z" fill="#D4A181"/>
<path fill-rule="evenodd" clip-rule="evenodd" d="M114.289 22.8382L111.121 21.7846C106.823 32.5817 100.412 43.0285 89.7023 51.8526L92.3508 56.4474C101.763 50.8717 110.674 46.5404 114.289 38.1739C115.503 35.3658 114.388 26.1958 114.289 22.8382Z" fill="#2F3676"/>
<path fill-rule="evenodd" clip-rule="evenodd" d="M125.172 53.2258C125.172 53.2258 111.557 54.6775 103.739 53.2258C103.094 53.1059 102.992 52.0188 103.291 51.281C107.954 39.791 111.152 29.7653 111.152 21.7847C112.435 22.4353 115.644 21.9797 115.644 21.9797C121.394 30.204 124.036 39.6405 125.172 53.2258Z" fill="#8FA0D0"/>
<path fill-rule="evenodd" clip-rule="evenodd" d="M117.292 21.2904C117.144 21.1898 117.065 21.1398 117.065 21.1398L117.074 21.2904H114.678C114.557 22.0024 114.381 24.6415 114.124 28.4898C113.189 42.4738 111.188 72.4239 106.928 83.8856H136.32C135.7 70.8547 130.922 55.2717 125.973 42.0398C129.625 45.6936 133.89 51.8186 137.337 62.0147L142.842 60.5935C137.232 36.2821 120.794 23.7441 117.605 21.5063C117.574 21.4339 117.543 21.3619 117.512 21.2904H117.292Z" fill="#5C63AB"/>
</svg>
