<svg width="270" height="442" viewBox="0 0 270 442" fill="none" xmlns="http://www.w3.org/2000/svg">
<path d="M30.6484 431.213L30.3145 433.059H29.8047V431.91L29.7109 431.682C29.5117 431.576 29.3066 431.498 29.0957 431.447C28.8887 431.393 28.6699 431.365 28.4395 431.365C28.0449 431.365 27.666 431.436 27.3027 431.576C26.9395 431.717 26.6113 431.92 26.3184 432.186C25.8418 432.611 25.4727 433.154 25.2109 433.814C24.9492 434.475 24.8184 435.191 24.8184 435.965C24.8184 436.793 25.0352 437.436 25.4688 437.893C25.9062 438.35 26.5215 438.578 27.3145 438.578C27.4746 438.578 27.6406 438.564 27.8125 438.537C27.9883 438.51 28.166 438.469 28.3457 438.414L28.5742 438.209L29.1016 436.826H29.6172L29.2891 438.725C28.875 438.861 28.4668 438.965 28.0645 439.035C27.6621 439.109 27.2754 439.146 26.9043 439.146C25.916 439.146 25.1309 438.846 24.5488 438.244C23.9668 437.643 23.6758 436.834 23.6758 435.818C23.6758 435.041 23.8379 434.305 24.1621 433.609C24.4863 432.914 24.9434 432.322 25.5332 431.834C25.9512 431.498 26.4082 431.242 26.9043 431.066C27.4043 430.891 27.9277 430.803 28.4746 430.803C28.8145 430.803 29.1641 430.838 29.5234 430.908C29.8867 430.975 30.2617 431.076 30.6484 431.213ZM34.6152 433.686H34.4512C33.7402 433.686 33.1562 433.992 32.6992 434.605C32.2422 435.215 32.0137 435.992 32.0137 436.938C32.0137 437.418 32.0996 437.779 32.2715 438.021C32.4473 438.26 32.709 438.379 33.0566 438.379C33.2832 438.379 33.5137 438.312 33.748 438.18C33.9824 438.047 34.2246 437.848 34.4746 437.582L35.0957 434.418L34.6152 433.686ZM35.7344 433.217H36.3555C36.293 433.346 36.2227 433.557 36.1445 433.85C36.0703 434.139 35.9883 434.5 35.8984 434.934L35.4707 437.055C35.4316 437.242 35.4004 437.408 35.377 437.553C35.3574 437.693 35.3477 437.809 35.3477 437.898C35.3477 438.086 35.3984 438.225 35.5 438.314C35.6055 438.404 35.7715 438.449 35.998 438.449C36.0449 438.449 36.1074 438.443 36.1855 438.432C36.2676 438.416 36.4277 438.381 36.666 438.326V438.689C36.3301 438.83 36.0391 438.934 35.793 439C35.5508 439.07 35.3516 439.105 35.1953 439.105C34.9453 439.105 34.7598 439.031 34.6387 438.883C34.5215 438.734 34.4629 438.506 34.4629 438.197V438.098C34.1387 438.441 33.8301 438.695 33.5371 438.859C33.2441 439.023 32.9551 439.105 32.6699 439.105C32.1582 439.105 31.7539 438.92 31.457 438.549C31.1641 438.178 31.0176 437.664 31.0176 437.008C31.0176 436.613 31.0684 436.23 31.1699 435.859C31.2754 435.488 31.4316 435.131 31.6387 434.787C31.9473 434.279 32.3398 433.891 32.8164 433.621C33.293 433.352 33.8242 433.217 34.4102 433.217C34.5859 433.217 34.7656 433.24 34.9492 433.287C35.1328 433.33 35.3145 433.395 35.4941 433.48L35.7344 433.217ZM39.6133 433.217H39.8535L39.4727 434.857C39.8438 434.334 40.2148 433.93 40.5859 433.645C40.957 433.359 41.2969 433.217 41.6055 433.217C41.8086 433.217 41.9707 433.275 42.0918 433.393C42.2168 433.506 42.2793 433.654 42.2793 433.838C42.2793 434.072 42.2051 434.262 42.0566 434.406C41.9121 434.547 41.7188 434.617 41.4766 434.617H41.3945L41.0781 433.973C40.5469 434.18 40.1484 434.445 39.8828 434.77C39.6211 435.094 39.4355 435.564 39.3262 436.182L38.834 439H37.8262L38.8223 434.09L37.8379 433.914V433.609L39.6133 433.217ZM46.4043 433.674C46.377 433.67 46.3301 433.664 46.2637 433.656C46.2012 433.645 46.1523 433.639 46.1172 433.639C45.5195 433.639 44.9961 433.959 44.5469 434.6C44.0977 435.24 43.873 436.023 43.873 436.949C43.873 437.41 43.9648 437.771 44.1484 438.033C44.332 438.295 44.584 438.426 44.9043 438.426C45.1387 438.426 45.3887 438.338 45.6543 438.162C45.9199 437.982 46.1816 437.73 46.4395 437.406L46.9785 434.354L46.4043 433.674ZM48.3496 430.17H48.6602L47.377 437.354C47.3535 437.482 47.3359 437.604 47.3242 437.717C47.3125 437.826 47.3066 437.922 47.3066 438.004C47.3066 438.176 47.3496 438.303 47.4355 438.385C47.5215 438.467 47.6543 438.508 47.834 438.508C47.9043 438.508 48.002 438.498 48.127 438.479C48.2559 438.455 48.418 438.422 48.6133 438.379V438.736C48.3008 438.85 48.0176 438.936 47.7637 438.994C47.5137 439.053 47.3047 439.082 47.1367 439.082C46.8594 439.082 46.6562 439.014 46.5273 438.877C46.3984 438.74 46.334 438.525 46.334 438.232C46.334 438.17 46.334 438.121 46.334 438.086C46.3379 438.051 46.3418 438.02 46.3457 437.992C46.0566 438.359 45.752 438.637 45.4316 438.824C45.1152 439.012 44.7949 439.105 44.4707 439.105C43.9824 439.105 43.5977 438.916 43.3164 438.537C43.0391 438.158 42.9004 437.633 42.9004 436.961C42.9004 436.555 42.9492 436.168 43.0469 435.801C43.1484 435.434 43.2949 435.096 43.4863 434.787C43.8027 434.291 44.2031 433.898 44.6875 433.609C45.1758 433.316 45.6758 433.17 46.1875 433.17C46.3594 433.17 46.5234 433.188 46.6797 433.223C46.8359 433.254 46.9922 433.303 47.1484 433.369L47.5703 430.973L46.5098 430.85V430.516L48.3496 430.17ZM49.7383 435.713H52.4219L52.2695 436.516H49.5801L49.7383 435.713ZM56.7051 434.57L56.2012 433.879C56.1426 433.836 56.082 433.805 56.0195 433.785C55.9609 433.766 55.8965 433.756 55.8262 433.756C55.584 433.756 55.3828 433.832 55.2227 433.984C55.0664 434.137 54.9883 434.328 54.9883 434.559C54.9883 434.844 55.2812 435.211 55.8672 435.66L55.8906 435.678C55.9258 435.705 55.9805 435.746 56.0547 435.801C56.75 436.332 57.0977 436.818 57.0977 437.26C57.0977 437.795 56.8926 438.236 56.4824 438.584C56.0723 438.932 55.5469 439.105 54.9062 439.105C54.4141 439.105 54.0234 439.012 53.7344 438.824C53.4492 438.633 53.3066 438.375 53.3066 438.051C53.3066 437.867 53.3652 437.721 53.4824 437.611C53.5957 437.498 53.7461 437.441 53.9336 437.441C54.0117 437.441 54.0918 437.459 54.1738 437.494C54.2559 437.525 54.3477 437.58 54.4492 437.658L54.2324 438.256C54.3262 438.393 54.4473 438.498 54.5957 438.572C54.7441 438.643 54.9102 438.678 55.0938 438.678C55.4375 438.678 55.7051 438.588 55.8965 438.408C56.0918 438.225 56.1895 437.975 56.1895 437.658C56.1895 437.479 56.1367 437.312 56.0312 437.16C55.9258 437.008 55.7012 436.801 55.3574 436.539L55.3047 436.498C54.582 435.955 54.2207 435.465 54.2207 435.027C54.2207 434.531 54.4219 434.105 54.8242 433.75C55.2266 433.395 55.7129 433.217 56.2832 433.217C56.6152 433.217 56.8848 433.287 57.0918 433.428C57.2988 433.564 57.4023 433.742 57.4023 433.961C57.4023 434.137 57.3398 434.279 57.2148 434.389C57.0898 434.498 56.9199 434.559 56.7051 434.57ZM61.5215 433.674C60.9863 433.674 60.5332 433.977 60.1621 434.582C59.7949 435.188 59.6113 435.939 59.6113 436.838C59.6113 437.404 59.7129 437.842 59.916 438.15C60.123 438.459 60.4102 438.613 60.7773 438.613C61.3047 438.613 61.7559 438.312 62.1309 437.711C62.5059 437.105 62.6934 436.363 62.6934 435.484C62.6934 434.906 62.5918 434.461 62.3887 434.148C62.1855 433.832 61.8965 433.674 61.5215 433.674ZM61.6738 433.205C62.3027 433.205 62.8008 433.416 63.168 433.838C63.5352 434.26 63.7188 434.832 63.7188 435.555C63.7188 436.027 63.6348 436.486 63.4668 436.932C63.2988 437.373 63.0586 437.775 62.7461 438.139C62.4648 438.459 62.1465 438.701 61.791 438.865C61.4355 439.025 61.0488 439.105 60.6309 439.105C60.0098 439.105 59.5137 438.9 59.1426 438.49C58.7754 438.076 58.5918 437.521 58.5918 436.826C58.5918 436.346 58.6758 435.875 58.8438 435.414C59.0156 434.949 59.252 434.545 59.5527 434.201C59.8418 433.873 60.166 433.625 60.5254 433.457C60.8887 433.289 61.2715 433.205 61.6738 433.205ZM66.8477 433.217H67.0879L66.707 434.857C67.0781 434.334 67.4492 433.93 67.8203 433.645C68.1914 433.359 68.5312 433.217 68.8398 433.217C69.043 433.217 69.2051 433.275 69.3262 433.393C69.4512 433.506 69.5137 433.654 69.5137 433.838C69.5137 434.072 69.4395 434.262 69.291 434.406C69.1465 434.547 68.9531 434.617 68.7109 434.617H68.6289L68.3125 433.973C67.7812 434.18 67.3828 434.445 67.1172 434.77C66.8555 435.094 66.6699 435.564 66.5605 436.182L66.0684 439H65.0605L66.0566 434.09L65.0723 433.914V433.609L66.8477 433.217ZM71.8867 432.051H72.4375L72.1855 433.422H73.9141V433.938H72.0918L71.4648 437.143C71.4609 437.17 71.4551 437.207 71.4473 437.254C71.4121 437.457 71.3945 437.596 71.3945 437.67C71.3945 437.912 71.457 438.098 71.582 438.227C71.707 438.352 71.8887 438.414 72.127 438.414C72.2598 438.414 72.4199 438.395 72.6074 438.355C72.7988 438.312 73.0195 438.252 73.2695 438.174V438.555C72.8633 438.73 72.5059 438.863 72.1973 438.953C71.8887 439.039 71.6289 439.082 71.418 439.082C71.0781 439.082 70.8242 438.992 70.6562 438.812C70.4922 438.633 70.4102 438.359 70.4102 437.992C70.4102 437.879 70.418 437.754 70.4336 437.617C70.4492 437.477 70.4727 437.334 70.5039 437.189L71.1543 433.938L70.4102 433.996V433.639L71.2891 433.252L71.8867 432.051ZM76.4277 433.217H76.7383L75.877 437.699C75.8613 437.773 75.8496 437.836 75.8418 437.887C75.8379 437.934 75.8359 437.973 75.8359 438.004C75.8359 438.156 75.8848 438.273 75.9824 438.355C76.0801 438.434 76.2246 438.473 76.416 438.473C76.5254 438.473 76.6523 438.459 76.7969 438.432C76.9453 438.4 77.1133 438.354 77.3008 438.291V438.666C76.9688 438.803 76.6602 438.906 76.375 438.977C76.0938 439.047 75.8379 439.082 75.6074 439.082C75.3535 439.082 75.1621 439.018 75.0332 438.889C74.9043 438.756 74.8398 438.557 74.8398 438.291C74.8398 438.217 74.8457 438.127 74.8574 438.021C74.873 437.916 74.8926 437.799 74.916 437.67L75.6191 434.09L74.6523 433.914V433.598L76.4277 433.217ZM76.668 430.551C76.8398 430.551 76.9902 430.615 77.1191 430.744C77.248 430.873 77.3125 431.025 77.3125 431.201C77.3125 431.377 77.248 431.529 77.1191 431.658C76.9941 431.783 76.8438 431.846 76.668 431.846C76.4844 431.846 76.3301 431.785 76.2051 431.664C76.0801 431.539 76.0176 431.385 76.0176 431.201C76.0176 431.021 76.0801 430.869 76.2051 430.744C76.334 430.615 76.4883 430.551 76.668 430.551ZM80.248 433.217H80.5469L80.3301 434.365C80.8301 433.971 81.2676 433.682 81.6426 433.498C82.0176 433.311 82.3555 433.217 82.6562 433.217C82.9688 433.217 83.2148 433.303 83.3945 433.475C83.5742 433.646 83.6641 433.881 83.6641 434.178C83.6641 434.287 83.6523 434.414 83.6289 434.559C83.6094 434.703 83.5664 434.932 83.5 435.244L83.0898 437.102C83.0859 437.129 83.0781 437.168 83.0664 437.219C82.9961 437.562 82.9609 437.789 82.9609 437.898C82.9609 438.086 83.0137 438.23 83.1191 438.332C83.2285 438.434 83.3828 438.484 83.582 438.484C83.6641 438.484 83.7578 438.477 83.8633 438.461C83.9727 438.441 84.0977 438.414 84.2383 438.379L84.2441 438.713C83.9316 438.834 83.6543 438.924 83.4121 438.982C83.1738 439.041 82.9707 439.07 82.8027 439.07C82.5098 439.07 82.2891 439.012 82.1406 438.895C81.9961 438.773 81.9238 438.592 81.9238 438.35C81.9238 438.275 81.9316 438.184 81.9473 438.074C81.9668 437.965 81.9922 437.842 82.0234 437.705L82.5391 435.484C82.5742 435.336 82.5996 435.197 82.6152 435.068C82.6348 434.936 82.6445 434.818 82.6445 434.717C82.6445 434.451 82.5938 434.26 82.4922 434.143C82.3906 434.021 82.2266 433.961 82 433.961C81.7773 433.961 81.5098 434.047 81.1973 434.219C80.8887 434.391 80.5645 434.633 80.2246 434.945L79.4805 439H78.4609L79.457 434.09L78.4727 433.914V433.609L80.248 433.217ZM86.7988 438.59C86.4355 438.676 86.1602 438.818 85.9727 439.018C85.7852 439.221 85.6914 439.475 85.6914 439.779C85.6914 440.166 85.8418 440.484 86.1426 440.734C86.4473 440.984 86.8379 441.109 87.3145 441.109C87.8027 441.109 88.2031 441.008 88.5156 440.805C88.832 440.605 88.9902 440.359 88.9902 440.066C88.9902 439.91 88.9355 439.768 88.8262 439.639C88.7168 439.514 88.5488 439.4 88.3223 439.299L86.7988 438.59ZM88.8613 434.74C88.8613 434.389 88.791 434.119 88.6504 433.932C88.5098 433.744 88.3086 433.65 88.0469 433.65C87.6836 433.65 87.3613 433.85 87.0801 434.248C86.8027 434.646 86.6641 435.119 86.6641 435.666C86.6641 435.982 86.7344 436.23 86.875 436.41C87.0195 436.586 87.2168 436.674 87.4668 436.674C87.8301 436.674 88.1523 436.482 88.4336 436.1C88.7188 435.713 88.8613 435.26 88.8613 434.74ZM89.1719 433.504H90.8887V434.02H89.6582C89.7051 434.152 89.7422 434.285 89.7695 434.418C89.7969 434.551 89.8105 434.682 89.8105 434.811C89.8105 435.451 89.5859 435.99 89.1367 436.428C88.6875 436.861 88.1445 437.078 87.5078 437.078C87.4648 437.078 87.4199 437.078 87.373 437.078C87.3262 437.074 87.2773 437.07 87.2266 437.066C87.1758 437.168 87.1367 437.271 87.1094 437.377C87.0859 437.479 87.0742 437.588 87.0742 437.705V437.775L88.9785 438.643C89.2949 438.787 89.5293 438.957 89.6816 439.152C89.8379 439.348 89.916 439.572 89.916 439.826C89.916 440.299 89.6309 440.715 89.0605 441.074C88.4902 441.434 87.8125 441.613 87.0273 441.613C86.332 441.613 85.7793 441.469 85.3691 441.18C84.9629 440.895 84.7598 440.508 84.7598 440.02C84.7598 439.652 84.8828 439.338 85.1289 439.076C85.3789 438.814 85.7871 438.572 86.3535 438.35C86.3496 438.326 86.3457 438.301 86.3418 438.273C86.3418 438.246 86.3418 438.205 86.3418 438.15C86.3418 437.955 86.3789 437.766 86.4531 437.582C86.5312 437.395 86.6543 437.195 86.8223 436.984C86.4668 436.844 86.1934 436.648 86.002 436.398C85.8105 436.145 85.7148 435.855 85.7148 435.531C85.7148 434.879 85.9414 434.328 86.3945 433.879C86.8477 433.43 87.4023 433.205 88.0586 433.205C88.2383 433.205 88.418 433.23 88.5977 433.281C88.7812 433.328 88.9727 433.402 89.1719 433.504ZM98.7988 433.686H98.6348C97.9238 433.686 97.3398 433.992 96.8828 434.605C96.4258 435.215 96.1973 435.992 96.1973 436.938C96.1973 437.418 96.2832 437.779 96.4551 438.021C96.6309 438.26 96.8926 438.379 97.2402 438.379C97.4668 438.379 97.6973 438.312 97.9316 438.18C98.166 438.047 98.4082 437.848 98.6582 437.582L99.2793 434.418L98.7988 433.686ZM99.918 433.217H100.539C100.477 433.346 100.406 433.557 100.328 433.85C100.254 434.139 100.172 434.5 100.082 434.934L99.6543 437.055C99.6152 437.242 99.584 437.408 99.5605 437.553C99.541 437.693 99.5312 437.809 99.5312 437.898C99.5312 438.086 99.582 438.225 99.6836 438.314C99.7891 438.404 99.9551 438.449 100.182 438.449C100.229 438.449 100.291 438.443 100.369 438.432C100.451 438.416 100.611 438.381 100.85 438.326V438.689C100.514 438.83 100.223 438.934 99.9766 439C99.7344 439.07 99.5352 439.105 99.3789 439.105C99.1289 439.105 98.9434 439.031 98.8223 438.883C98.7051 438.734 98.6465 438.506 98.6465 438.197V438.098C98.3223 438.441 98.0137 438.695 97.7207 438.859C97.4277 439.023 97.1387 439.105 96.8535 439.105C96.3418 439.105 95.9375 438.92 95.6406 438.549C95.3477 438.178 95.2012 437.664 95.2012 437.008C95.2012 436.613 95.252 436.23 95.3535 435.859C95.459 435.488 95.6152 435.131 95.8223 434.787C96.1309 434.279 96.5234 433.891 97 433.621C97.4766 433.352 98.0078 433.217 98.5938 433.217C98.7695 433.217 98.9492 433.24 99.1328 433.287C99.3164 433.33 99.498 433.395 99.6777 433.48L99.918 433.217ZM105.355 434.676L104.664 433.768H104.605C104.098 433.768 103.67 434.053 103.322 434.623C102.979 435.193 102.807 435.908 102.807 436.768C102.807 437.283 102.912 437.686 103.123 437.975C103.334 438.26 103.627 438.402 104.002 438.402C104.287 438.402 104.592 438.316 104.916 438.145C105.24 437.969 105.561 437.723 105.877 437.406V437.957C105.518 438.332 105.145 438.619 104.758 438.818C104.375 439.018 104 439.117 103.633 439.117C103.094 439.117 102.662 438.92 102.338 438.525C102.018 438.131 101.857 437.602 101.857 436.938C101.857 436.41 101.941 435.914 102.109 435.449C102.281 434.984 102.529 434.576 102.854 434.225C103.154 433.893 103.492 433.637 103.867 433.457C104.242 433.273 104.619 433.182 104.998 433.182C105.318 433.182 105.584 433.264 105.795 433.428C106.01 433.588 106.117 433.785 106.117 434.02C106.117 434.211 106.047 434.367 105.906 434.488C105.766 434.609 105.582 434.672 105.355 434.676ZM108.789 432.051H109.34L109.088 433.422H110.816V433.938H108.994L108.367 437.143C108.363 437.17 108.357 437.207 108.35 437.254C108.314 437.457 108.297 437.596 108.297 437.67C108.297 437.912 108.359 438.098 108.484 438.227C108.609 438.352 108.791 438.414 109.029 438.414C109.162 438.414 109.322 438.395 109.51 438.355C109.701 438.312 109.922 438.252 110.172 438.174V438.555C109.766 438.73 109.408 438.863 109.1 438.953C108.791 439.039 108.531 439.082 108.32 439.082C107.98 439.082 107.727 438.992 107.559 438.812C107.395 438.633 107.312 438.359 107.312 437.992C107.312 437.879 107.32 437.754 107.336 437.617C107.352 437.477 107.375 437.334 107.406 437.189L108.057 433.938L107.312 433.996V433.639L108.191 433.252L108.789 432.051ZM113.33 433.217H113.641L112.779 437.699C112.764 437.773 112.752 437.836 112.744 437.887C112.74 437.934 112.738 437.973 112.738 438.004C112.738 438.156 112.787 438.273 112.885 438.355C112.982 438.434 113.127 438.473 113.318 438.473C113.428 438.473 113.555 438.459 113.699 438.432C113.848 438.4 114.016 438.354 114.203 438.291V438.666C113.871 438.803 113.562 438.906 113.277 438.977C112.996 439.047 112.74 439.082 112.51 439.082C112.256 439.082 112.064 439.018 111.936 438.889C111.807 438.756 111.742 438.557 111.742 438.291C111.742 438.217 111.748 438.127 111.76 438.021C111.775 437.916 111.795 437.799 111.818 437.67L112.521 434.09L111.555 433.914V433.598L113.33 433.217ZM113.57 430.551C113.742 430.551 113.893 430.615 114.021 430.744C114.15 430.873 114.215 431.025 114.215 431.201C114.215 431.377 114.15 431.529 114.021 431.658C113.896 431.783 113.746 431.846 113.57 431.846C113.387 431.846 113.232 431.785 113.107 431.664C112.982 431.539 112.92 431.385 112.92 431.201C112.92 431.021 112.982 430.869 113.107 430.744C113.236 430.615 113.391 430.551 113.57 430.551ZM116.09 433.193H116.119C116.412 433.193 116.623 433.281 116.752 433.457C116.881 433.633 116.973 434.004 117.027 434.57L117.338 437.857C117.807 437.26 118.191 436.719 118.492 436.234C118.797 435.746 119.025 435.301 119.178 434.898L118.949 433.434C119.047 433.352 119.146 433.291 119.248 433.252C119.35 433.213 119.449 433.193 119.547 433.193C119.75 433.193 119.906 433.254 120.016 433.375C120.129 433.492 120.186 433.66 120.186 433.879C120.186 434.32 119.898 434.988 119.324 435.883C118.754 436.777 117.945 437.816 116.898 439H116.318C116.377 438.895 116.42 438.777 116.447 438.648C116.475 438.516 116.488 438.373 116.488 438.221C116.488 438.166 116.486 438.109 116.482 438.051C116.479 437.992 116.473 437.904 116.465 437.787L116.166 434.98C116.131 434.68 116.084 434.449 116.025 434.289C115.971 434.129 115.896 434.02 115.803 433.961L114.883 433.891V433.586L116.09 433.193ZM122.975 433.217H123.285L122.424 437.699C122.408 437.773 122.396 437.836 122.389 437.887C122.385 437.934 122.383 437.973 122.383 438.004C122.383 438.156 122.432 438.273 122.529 438.355C122.627 438.434 122.771 438.473 122.963 438.473C123.072 438.473 123.199 438.459 123.344 438.432C123.492 438.4 123.66 438.354 123.848 438.291V438.666C123.516 438.803 123.207 438.906 122.922 438.977C122.641 439.047 122.385 439.082 122.154 439.082C121.9 439.082 121.709 439.018 121.58 438.889C121.451 438.756 121.387 438.557 121.387 438.291C121.387 438.217 121.393 438.127 121.404 438.021C121.42 437.916 121.439 437.799 121.463 437.67L122.166 434.09L121.199 433.914V433.598L122.975 433.217ZM123.215 430.551C123.387 430.551 123.537 430.615 123.666 430.744C123.795 430.873 123.859 431.025 123.859 431.201C123.859 431.377 123.795 431.529 123.666 431.658C123.541 431.783 123.391 431.846 123.215 431.846C123.031 431.846 122.877 431.785 122.752 431.664C122.627 431.539 122.564 431.385 122.564 431.201C122.564 431.021 122.627 430.869 122.752 430.744C122.881 430.615 123.035 430.551 123.215 430.551ZM126.625 432.051H127.176L126.924 433.422H128.652V433.938H126.83L126.203 437.143C126.199 437.17 126.193 437.207 126.186 437.254C126.15 437.457 126.133 437.596 126.133 437.67C126.133 437.912 126.195 438.098 126.32 438.227C126.445 438.352 126.627 438.414 126.865 438.414C126.998 438.414 127.158 438.395 127.346 438.355C127.537 438.312 127.758 438.252 128.008 438.174V438.555C127.602 438.73 127.244 438.863 126.936 438.953C126.627 439.039 126.367 439.082 126.156 439.082C125.816 439.082 125.562 438.992 125.395 438.812C125.23 438.633 125.148 438.359 125.148 437.992C125.148 437.879 125.156 437.754 125.172 437.617C125.188 437.477 125.211 437.334 125.242 437.189L125.893 433.938L125.148 433.996V433.639L126.027 433.252L126.625 432.051ZM129.982 433.182C130.002 433.178 130.023 433.176 130.047 433.176C130.07 433.172 130.104 433.17 130.146 433.17C130.611 433.17 130.98 433.877 131.254 435.291C131.293 435.49 131.322 435.641 131.342 435.742L131.74 437.775C131.994 437.127 132.277 436.424 132.59 435.666C132.906 434.904 133.252 434.088 133.627 433.217H133.85L134.799 433.527V433.779L134.189 434.143C133.838 434.533 133.42 435.26 132.936 436.322C132.451 437.385 132.084 438.141 131.834 438.59C131.291 439.582 130.75 440.332 130.211 440.84C129.672 441.348 129.15 441.602 128.646 441.602C128.357 441.602 128.117 441.525 127.926 441.373C127.734 441.221 127.639 441.033 127.639 440.811C127.639 440.646 127.699 440.502 127.82 440.377C127.938 440.256 128.092 440.182 128.283 440.154L128.992 440.857C129.348 440.834 129.695 440.652 130.035 440.312C130.375 439.973 130.727 439.451 131.09 438.748L131.055 438.771L130.311 435.162C130.256 434.885 130.189 434.643 130.111 434.436C130.033 434.229 129.939 434.055 129.83 433.914L128.811 433.826V433.562L129.982 433.182ZM140.793 432.051H141.344L141.092 433.422H142.82V433.938H140.998L140.371 437.143C140.367 437.17 140.361 437.207 140.354 437.254C140.318 437.457 140.301 437.596 140.301 437.67C140.301 437.912 140.363 438.098 140.488 438.227C140.613 438.352 140.795 438.414 141.033 438.414C141.166 438.414 141.326 438.395 141.514 438.355C141.705 438.312 141.926 438.252 142.176 438.174V438.555C141.77 438.73 141.412 438.863 141.104 438.953C140.795 439.039 140.535 439.082 140.324 439.082C139.984 439.082 139.73 438.992 139.562 438.812C139.398 438.633 139.316 438.359 139.316 437.992C139.316 437.879 139.324 437.754 139.34 437.617C139.355 437.477 139.379 437.334 139.41 437.189L140.061 433.938L139.316 433.996V433.639L140.195 433.252L140.793 432.051ZM146.354 433.674C145.818 433.674 145.365 433.977 144.994 434.582C144.627 435.188 144.443 435.939 144.443 436.838C144.443 437.404 144.545 437.842 144.748 438.15C144.955 438.459 145.242 438.613 145.609 438.613C146.137 438.613 146.588 438.312 146.963 437.711C147.338 437.105 147.525 436.363 147.525 435.484C147.525 434.906 147.424 434.461 147.221 434.148C147.018 433.832 146.729 433.674 146.354 433.674ZM146.506 433.205C147.135 433.205 147.633 433.416 148 433.838C148.367 434.26 148.551 434.832 148.551 435.555C148.551 436.027 148.467 436.486 148.299 436.932C148.131 437.373 147.891 437.775 147.578 438.139C147.297 438.459 146.979 438.701 146.623 438.865C146.268 439.025 145.881 439.105 145.463 439.105C144.842 439.105 144.346 438.9 143.975 438.49C143.607 438.076 143.424 437.521 143.424 436.826C143.424 436.346 143.508 435.875 143.676 435.414C143.848 434.949 144.084 434.545 144.385 434.201C144.674 433.873 144.998 433.625 145.357 433.457C145.721 433.289 146.104 433.205 146.506 433.205ZM155.447 433.217H155.758L154.896 437.699C154.881 437.773 154.869 437.836 154.861 437.887C154.857 437.934 154.855 437.973 154.855 438.004C154.855 438.156 154.904 438.273 155.002 438.355C155.1 438.434 155.244 438.473 155.436 438.473C155.545 438.473 155.672 438.459 155.816 438.432C155.965 438.4 156.133 438.354 156.32 438.291V438.666C155.988 438.803 155.68 438.906 155.395 438.977C155.113 439.047 154.857 439.082 154.627 439.082C154.373 439.082 154.182 439.018 154.053 438.889C153.924 438.756 153.859 438.557 153.859 438.291C153.859 438.217 153.865 438.127 153.877 438.021C153.893 437.916 153.912 437.799 153.936 437.67L154.639 434.09L153.672 433.914V433.598L155.447 433.217ZM155.688 430.551C155.859 430.551 156.01 430.615 156.139 430.744C156.268 430.873 156.332 431.025 156.332 431.201C156.332 431.377 156.268 431.529 156.139 431.658C156.014 431.783 155.863 431.846 155.688 431.846C155.504 431.846 155.35 431.785 155.225 431.664C155.1 431.539 155.037 431.385 155.037 431.201C155.037 431.021 155.1 430.869 155.225 430.744C155.354 430.615 155.508 430.551 155.688 430.551ZM160.85 433.674C160.822 433.67 160.775 433.664 160.709 433.656C160.646 433.645 160.598 433.639 160.562 433.639C159.965 433.639 159.441 433.959 158.992 434.6C158.543 435.24 158.318 436.023 158.318 436.949C158.318 437.41 158.41 437.771 158.594 438.033C158.777 438.295 159.029 438.426 159.35 438.426C159.584 438.426 159.834 438.338 160.1 438.162C160.365 437.982 160.627 437.73 160.885 437.406L161.424 434.354L160.85 433.674ZM162.795 430.17H163.105L161.822 437.354C161.799 437.482 161.781 437.604 161.77 437.717C161.758 437.826 161.752 437.922 161.752 438.004C161.752 438.176 161.795 438.303 161.881 438.385C161.967 438.467 162.1 438.508 162.279 438.508C162.35 438.508 162.447 438.498 162.572 438.479C162.701 438.455 162.863 438.422 163.059 438.379V438.736C162.746 438.85 162.463 438.936 162.209 438.994C161.959 439.053 161.75 439.082 161.582 439.082C161.305 439.082 161.102 439.014 160.973 438.877C160.844 438.74 160.779 438.525 160.779 438.232C160.779 438.17 160.779 438.121 160.779 438.086C160.783 438.051 160.787 438.02 160.791 437.992C160.502 438.359 160.197 438.637 159.877 438.824C159.561 439.012 159.24 439.105 158.916 439.105C158.428 439.105 158.043 438.916 157.762 438.537C157.484 438.158 157.346 437.633 157.346 436.961C157.346 436.555 157.395 436.168 157.492 435.801C157.594 435.434 157.74 435.096 157.932 434.787C158.248 434.291 158.648 433.898 159.133 433.609C159.621 433.316 160.121 433.17 160.633 433.17C160.805 433.17 160.969 433.188 161.125 433.223C161.281 433.254 161.438 433.303 161.594 433.369L162.016 430.973L160.955 430.85V430.516L162.795 430.17ZM165.016 436.334C165 436.416 164.988 436.504 164.98 436.598C164.977 436.691 164.975 436.789 164.975 436.891C164.975 437.371 165.086 437.752 165.309 438.033C165.531 438.311 165.836 438.449 166.223 438.449C166.504 438.449 166.809 438.365 167.137 438.197C167.465 438.029 167.801 437.785 168.145 437.465V438.027C167.773 438.383 167.393 438.652 167.002 438.836C166.611 439.016 166.215 439.105 165.812 439.105C165.242 439.105 164.797 438.914 164.477 438.531C164.16 438.148 164.002 437.613 164.002 436.926C164.002 436.422 164.096 435.93 164.283 435.449C164.471 434.969 164.732 434.553 165.068 434.201C165.361 433.9 165.686 433.662 166.041 433.486C166.4 433.307 166.736 433.217 167.049 433.217C167.428 433.217 167.729 433.324 167.951 433.539C168.174 433.754 168.285 434.043 168.285 434.406C168.285 434.938 167.996 435.375 167.418 435.719C166.84 436.062 166.039 436.268 165.016 436.334ZM165.068 435.93C165.768 435.891 166.334 435.725 166.768 435.432C167.205 435.135 167.424 434.779 167.424 434.365C167.424 434.182 167.363 434.029 167.242 433.908C167.121 433.783 166.973 433.721 166.797 433.721C166.43 433.721 166.09 433.918 165.777 434.312C165.469 434.703 165.232 435.242 165.068 435.93ZM171.385 433.217H171.684L171.467 434.365C171.967 433.971 172.404 433.682 172.779 433.498C173.154 433.311 173.492 433.217 173.793 433.217C174.105 433.217 174.352 433.303 174.531 433.475C174.711 433.646 174.801 433.881 174.801 434.178C174.801 434.287 174.789 434.414 174.766 434.559C174.746 434.703 174.703 434.932 174.637 435.244L174.227 437.102C174.223 437.129 174.215 437.168 174.203 437.219C174.133 437.562 174.098 437.789 174.098 437.898C174.098 438.086 174.15 438.23 174.256 438.332C174.365 438.434 174.52 438.484 174.719 438.484C174.801 438.484 174.895 438.477 175 438.461C175.109 438.441 175.234 438.414 175.375 438.379L175.381 438.713C175.068 438.834 174.791 438.924 174.549 438.982C174.311 439.041 174.107 439.07 173.939 439.07C173.646 439.07 173.426 439.012 173.277 438.895C173.133 438.773 173.061 438.592 173.061 438.35C173.061 438.275 173.068 438.184 173.084 438.074C173.104 437.965 173.129 437.842 173.16 437.705L173.676 435.484C173.711 435.336 173.736 435.197 173.752 435.068C173.771 434.936 173.781 434.818 173.781 434.717C173.781 434.451 173.73 434.26 173.629 434.143C173.527 434.021 173.363 433.961 173.137 433.961C172.914 433.961 172.646 434.047 172.334 434.219C172.025 434.391 171.701 434.633 171.361 434.945L170.617 439H169.598L170.594 434.09L169.609 433.914V433.609L171.385 433.217ZM178.27 432.051H178.82L178.568 433.422H180.297V433.938H178.475L177.848 437.143C177.844 437.17 177.838 437.207 177.83 437.254C177.795 437.457 177.777 437.596 177.777 437.67C177.777 437.912 177.84 438.098 177.965 438.227C178.09 438.352 178.271 438.414 178.51 438.414C178.643 438.414 178.803 438.395 178.99 438.355C179.182 438.312 179.402 438.252 179.652 438.174V438.555C179.246 438.73 178.889 438.863 178.58 438.953C178.271 439.039 178.012 439.082 177.801 439.082C177.461 439.082 177.207 438.992 177.039 438.812C176.875 438.633 176.793 438.359 176.793 437.992C176.793 437.879 176.801 437.754 176.816 437.617C176.832 437.477 176.855 437.334 176.887 437.189L177.537 433.938L176.793 433.996V433.639L177.672 433.252L178.27 432.051ZM182.811 433.217H183.121L182.26 437.699C182.244 437.773 182.232 437.836 182.225 437.887C182.221 437.934 182.219 437.973 182.219 438.004C182.219 438.156 182.268 438.273 182.365 438.355C182.463 438.434 182.607 438.473 182.799 438.473C182.908 438.473 183.035 438.459 183.18 438.432C183.328 438.4 183.496 438.354 183.684 438.291V438.666C183.352 438.803 183.043 438.906 182.758 438.977C182.477 439.047 182.221 439.082 181.99 439.082C181.736 439.082 181.545 439.018 181.416 438.889C181.287 438.756 181.223 438.557 181.223 438.291C181.223 438.217 181.229 438.127 181.24 438.021C181.256 437.916 181.275 437.799 181.299 437.67L182.002 434.09L181.035 433.914V433.598L182.811 433.217ZM183.051 430.551C183.223 430.551 183.373 430.615 183.502 430.744C183.631 430.873 183.695 431.025 183.695 431.201C183.695 431.377 183.631 431.529 183.502 431.658C183.377 431.783 183.227 431.846 183.051 431.846C182.867 431.846 182.713 431.785 182.588 431.664C182.463 431.539 182.4 431.385 182.4 431.201C182.4 431.021 182.463 430.869 182.588 430.744C182.717 430.615 182.871 430.551 183.051 430.551ZM188.705 431.547L187.721 430.744C187.494 430.893 187.291 431.201 187.111 431.67C186.932 432.135 186.775 432.758 186.643 433.539H188.336V434.078H186.543L186.062 437.488C185.969 438.16 185.852 438.707 185.711 439.129C185.57 439.551 185.389 439.92 185.166 440.236C184.854 440.674 184.537 441.008 184.217 441.238C183.896 441.473 183.588 441.59 183.291 441.59C183.1 441.59 182.945 441.531 182.828 441.414C182.707 441.301 182.646 441.148 182.646 440.957C182.646 440.863 182.67 440.775 182.717 440.693C182.76 440.611 182.824 440.539 182.91 440.477L184.158 440.799C184.381 440.564 184.564 440.223 184.709 439.773C184.854 439.324 185.002 438.574 185.154 437.523L185.658 434.078L184.855 434.166L184.867 433.768L185.775 433.398C185.967 432.41 186.287 431.633 186.736 431.066C187.189 430.5 187.709 430.217 188.295 430.217C188.572 430.217 188.807 430.287 188.998 430.428C189.193 430.568 189.291 430.734 189.291 430.926C189.291 431.082 189.238 431.217 189.133 431.33C189.031 431.439 188.889 431.512 188.705 431.547ZM189.326 433.182C189.346 433.178 189.367 433.176 189.391 433.176C189.414 433.172 189.447 433.17 189.49 433.17C189.955 433.17 190.324 433.877 190.598 435.291C190.637 435.49 190.666 435.641 190.686 435.742L191.084 437.775C191.338 437.127 191.621 436.424 191.934 435.666C192.25 434.904 192.596 434.088 192.971 433.217H193.193L194.143 433.527V433.779L193.533 434.143C193.182 434.533 192.764 435.26 192.279 436.322C191.795 437.385 191.428 438.141 191.178 438.59C190.635 439.582 190.094 440.332 189.555 440.84C189.016 441.348 188.494 441.602 187.99 441.602C187.701 441.602 187.461 441.525 187.27 441.373C187.078 441.221 186.982 441.033 186.982 440.811C186.982 440.646 187.043 440.502 187.164 440.377C187.281 440.256 187.436 440.182 187.627 440.154L188.336 440.857C188.691 440.834 189.039 440.652 189.379 440.312C189.719 439.973 190.07 439.451 190.434 438.748L190.398 438.771L189.654 435.162C189.6 434.885 189.533 434.643 189.455 434.436C189.377 434.229 189.283 434.055 189.174 433.914L188.154 433.826V433.562L189.326 433.182ZM200.676 430.17H200.998C200.963 430.361 200.932 430.527 200.904 430.668C200.881 430.809 200.865 430.902 200.857 430.949L199.645 436.984C199.602 437.195 199.568 437.387 199.545 437.559C199.525 437.727 199.516 437.859 199.516 437.957C199.516 438.141 199.57 438.281 199.68 438.379C199.793 438.473 199.957 438.52 200.172 438.52C200.266 438.52 200.381 438.504 200.518 438.473C200.658 438.441 200.828 438.393 201.027 438.326V438.701C200.711 438.834 200.416 438.934 200.143 439C199.869 439.07 199.631 439.105 199.428 439.105C199.135 439.105 198.916 439.033 198.771 438.889C198.627 438.74 198.555 438.518 198.555 438.221C198.555 438.135 198.572 437.975 198.607 437.74C198.646 437.502 198.701 437.201 198.771 436.838L199.92 430.961L198.854 430.838V430.527L200.676 430.17ZM203.078 436.334C203.062 436.416 203.051 436.504 203.043 436.598C203.039 436.691 203.037 436.789 203.037 436.891C203.037 437.371 203.148 437.752 203.371 438.033C203.594 438.311 203.898 438.449 204.285 438.449C204.566 438.449 204.871 438.365 205.199 438.197C205.527 438.029 205.863 437.785 206.207 437.465V438.027C205.836 438.383 205.455 438.652 205.064 438.836C204.674 439.016 204.277 439.105 203.875 439.105C203.305 439.105 202.859 438.914 202.539 438.531C202.223 438.148 202.064 437.613 202.064 436.926C202.064 436.422 202.158 435.93 202.346 435.449C202.533 434.969 202.795 434.553 203.131 434.201C203.424 433.9 203.748 433.662 204.104 433.486C204.463 433.307 204.799 433.217 205.111 433.217C205.49 433.217 205.791 433.324 206.014 433.539C206.236 433.754 206.348 434.043 206.348 434.406C206.348 434.938 206.059 435.375 205.48 435.719C204.902 436.062 204.102 436.268 203.078 436.334ZM203.131 435.93C203.83 435.891 204.396 435.725 204.83 435.432C205.268 435.135 205.486 434.779 205.486 434.365C205.486 434.182 205.426 434.029 205.305 433.908C205.184 433.783 205.035 433.721 204.859 433.721C204.492 433.721 204.152 433.918 203.84 434.312C203.531 434.703 203.295 435.242 203.131 435.93ZM211.076 433.686H210.912C210.201 433.686 209.617 433.992 209.16 434.605C208.703 435.215 208.475 435.992 208.475 436.938C208.475 437.418 208.561 437.779 208.732 438.021C208.908 438.26 209.17 438.379 209.518 438.379C209.744 438.379 209.975 438.312 210.209 438.18C210.443 438.047 210.686 437.848 210.936 437.582L211.557 434.418L211.076 433.686ZM212.195 433.217H212.816C212.754 433.346 212.684 433.557 212.605 433.85C212.531 434.139 212.449 434.5 212.359 434.934L211.932 437.055C211.893 437.242 211.861 437.408 211.838 437.553C211.818 437.693 211.809 437.809 211.809 437.898C211.809 438.086 211.859 438.225 211.961 438.314C212.066 438.404 212.232 438.449 212.459 438.449C212.506 438.449 212.568 438.443 212.646 438.432C212.729 438.416 212.889 438.381 213.127 438.326V438.689C212.791 438.83 212.5 438.934 212.254 439C212.012 439.07 211.812 439.105 211.656 439.105C211.406 439.105 211.221 439.031 211.1 438.883C210.982 438.734 210.924 438.506 210.924 438.197V438.098C210.6 438.441 210.291 438.695 209.998 438.859C209.705 439.023 209.416 439.105 209.131 439.105C208.619 439.105 208.215 438.92 207.918 438.549C207.625 438.178 207.479 437.664 207.479 437.008C207.479 436.613 207.529 436.23 207.631 435.859C207.736 435.488 207.893 435.131 208.1 434.787C208.408 434.279 208.801 433.891 209.277 433.621C209.754 433.352 210.285 433.217 210.871 433.217C211.047 433.217 211.227 433.24 211.41 433.287C211.594 433.33 211.775 433.395 211.955 433.48L212.195 433.217ZM216.074 433.217H216.314L215.934 434.857C216.305 434.334 216.676 433.93 217.047 433.645C217.418 433.359 217.758 433.217 218.066 433.217C218.27 433.217 218.432 433.275 218.553 433.393C218.678 433.506 218.74 433.654 218.74 433.838C218.74 434.072 218.666 434.262 218.518 434.406C218.373 434.547 218.18 434.617 217.938 434.617H217.855L217.539 433.973C217.008 434.18 216.609 434.445 216.344 434.77C216.082 435.094 215.896 435.564 215.787 436.182L215.295 439H214.287L215.283 434.09L214.299 433.914V433.609L216.074 433.217ZM221.283 433.217H221.582L221.365 434.365C221.865 433.971 222.303 433.682 222.678 433.498C223.053 433.311 223.391 433.217 223.691 433.217C224.004 433.217 224.25 433.303 224.43 433.475C224.609 433.646 224.699 433.881 224.699 434.178C224.699 434.287 224.688 434.414 224.664 434.559C224.645 434.703 224.602 434.932 224.535 435.244L224.125 437.102C224.121 437.129 224.113 437.168 224.102 437.219C224.031 437.562 223.996 437.789 223.996 437.898C223.996 438.086 224.049 438.23 224.154 438.332C224.264 438.434 224.418 438.484 224.617 438.484C224.699 438.484 224.793 438.477 224.898 438.461C225.008 438.441 225.133 438.414 225.273 438.379L225.279 438.713C224.967 438.834 224.689 438.924 224.447 438.982C224.209 439.041 224.006 439.07 223.838 439.07C223.545 439.07 223.324 439.012 223.176 438.895C223.031 438.773 222.959 438.592 222.959 438.35C222.959 438.275 222.967 438.184 222.982 438.074C223.002 437.965 223.027 437.842 223.059 437.705L223.574 435.484C223.609 435.336 223.635 435.197 223.65 435.068C223.67 434.936 223.68 434.818 223.68 434.717C223.68 434.451 223.629 434.26 223.527 434.143C223.426 434.021 223.262 433.961 223.035 433.961C222.812 433.961 222.545 434.047 222.232 434.219C221.924 434.391 221.6 434.633 221.26 434.945L220.516 439H219.496L220.492 434.09L219.508 433.914V433.609L221.283 433.217ZM228.338 433.217H228.648L227.787 437.699C227.771 437.773 227.76 437.836 227.752 437.887C227.748 437.934 227.746 437.973 227.746 438.004C227.746 438.156 227.795 438.273 227.893 438.355C227.99 438.434 228.135 438.473 228.326 438.473C228.436 438.473 228.562 438.459 228.707 438.432C228.855 438.4 229.023 438.354 229.211 438.291V438.666C228.879 438.803 228.57 438.906 228.285 438.977C228.004 439.047 227.748 439.082 227.518 439.082C227.264 439.082 227.072 439.018 226.943 438.889C226.814 438.756 226.75 438.557 226.75 438.291C226.75 438.217 226.756 438.127 226.768 438.021C226.783 437.916 226.803 437.799 226.826 437.67L227.529 434.09L226.562 433.914V433.598L228.338 433.217ZM228.578 430.551C228.75 430.551 228.9 430.615 229.029 430.744C229.158 430.873 229.223 431.025 229.223 431.201C229.223 431.377 229.158 431.529 229.029 431.658C228.904 431.783 228.754 431.846 228.578 431.846C228.395 431.846 228.24 431.785 228.115 431.664C227.99 431.539 227.928 431.385 227.928 431.201C227.928 431.021 227.99 430.869 228.115 430.744C228.244 430.615 228.398 430.551 228.578 430.551ZM232.158 433.217H232.457L232.24 434.365C232.74 433.971 233.178 433.682 233.553 433.498C233.928 433.311 234.266 433.217 234.566 433.217C234.879 433.217 235.125 433.303 235.305 433.475C235.484 433.646 235.574 433.881 235.574 434.178C235.574 434.287 235.562 434.414 235.539 434.559C235.52 434.703 235.477 434.932 235.41 435.244L235 437.102C234.996 437.129 234.988 437.168 234.977 437.219C234.906 437.562 234.871 437.789 234.871 437.898C234.871 438.086 234.924 438.23 235.029 438.332C235.139 438.434 235.293 438.484 235.492 438.484C235.574 438.484 235.668 438.477 235.773 438.461C235.883 438.441 236.008 438.414 236.148 438.379L236.154 438.713C235.842 438.834 235.564 438.924 235.322 438.982C235.084 439.041 234.881 439.07 234.713 439.07C234.42 439.07 234.199 439.012 234.051 438.895C233.906 438.773 233.834 438.592 233.834 438.35C233.834 438.275 233.842 438.184 233.857 438.074C233.877 437.965 233.902 437.842 233.934 437.705L234.449 435.484C234.484 435.336 234.51 435.197 234.525 435.068C234.545 434.936 234.555 434.818 234.555 434.717C234.555 434.451 234.504 434.26 234.402 434.143C234.301 434.021 234.137 433.961 233.91 433.961C233.688 433.961 233.42 434.047 233.107 434.219C232.799 434.391 232.475 434.633 232.135 434.945L231.391 439H230.371L231.367 434.09L230.383 433.914V433.609L232.158 433.217ZM238.709 438.59C238.346 438.676 238.07 438.818 237.883 439.018C237.695 439.221 237.602 439.475 237.602 439.779C237.602 440.166 237.752 440.484 238.053 440.734C238.357 440.984 238.748 441.109 239.225 441.109C239.713 441.109 240.113 441.008 240.426 440.805C240.742 440.605 240.9 440.359 240.9 440.066C240.9 439.91 240.846 439.768 240.736 439.639C240.627 439.514 240.459 439.4 240.232 439.299L238.709 438.59ZM240.771 434.74C240.771 434.389 240.701 434.119 240.561 433.932C240.42 433.744 240.219 433.65 239.957 433.65C239.594 433.65 239.271 433.85 238.99 434.248C238.713 434.646 238.574 435.119 238.574 435.666C238.574 435.982 238.645 436.23 238.785 436.41C238.93 436.586 239.127 436.674 239.377 436.674C239.74 436.674 240.062 436.482 240.344 436.1C240.629 435.713 240.771 435.26 240.771 434.74ZM241.082 433.504H242.799V434.02H241.568C241.615 434.152 241.652 434.285 241.68 434.418C241.707 434.551 241.721 434.682 241.721 434.811C241.721 435.451 241.496 435.99 241.047 436.428C240.598 436.861 240.055 437.078 239.418 437.078C239.375 437.078 239.33 437.078 239.283 437.078C239.236 437.074 239.188 437.07 239.137 437.066C239.086 437.168 239.047 437.271 239.02 437.377C238.996 437.479 238.984 437.588 238.984 437.705V437.775L240.889 438.643C241.205 438.787 241.439 438.957 241.592 439.152C241.748 439.348 241.826 439.572 241.826 439.826C241.826 440.299 241.541 440.715 240.971 441.074C240.4 441.434 239.723 441.613 238.938 441.613C238.242 441.613 237.689 441.469 237.279 441.18C236.873 440.895 236.67 440.508 236.67 440.02C236.67 439.652 236.793 439.338 237.039 439.076C237.289 438.814 237.697 438.572 238.264 438.35C238.26 438.326 238.256 438.301 238.252 438.273C238.252 438.246 238.252 438.205 238.252 438.15C238.252 437.955 238.289 437.766 238.363 437.582C238.441 437.395 238.564 437.195 238.732 436.984C238.377 436.844 238.104 436.648 237.912 436.398C237.721 436.145 237.625 435.855 237.625 435.531C237.625 434.879 237.852 434.328 238.305 433.879C238.758 433.43 239.312 433.205 239.969 433.205C240.148 433.205 240.328 433.23 240.508 433.281C240.691 433.328 240.883 433.402 241.082 433.504ZM248.576 438.59C248.213 438.676 247.938 438.818 247.75 439.018C247.562 439.221 247.469 439.475 247.469 439.779C247.469 440.166 247.619 440.484 247.92 440.734C248.225 440.984 248.615 441.109 249.092 441.109C249.58 441.109 249.98 441.008 250.293 440.805C250.609 440.605 250.768 440.359 250.768 440.066C250.768 439.91 250.713 439.768 250.604 439.639C250.494 439.514 250.326 439.4 250.1 439.299L248.576 438.59ZM250.639 434.74C250.639 434.389 250.568 434.119 250.428 433.932C250.287 433.744 250.086 433.65 249.824 433.65C249.461 433.65 249.139 433.85 248.857 434.248C248.58 434.646 248.441 435.119 248.441 435.666C248.441 435.982 248.512 436.23 248.652 436.41C248.797 436.586 248.994 436.674 249.244 436.674C249.607 436.674 249.93 436.482 250.211 436.1C250.496 435.713 250.639 435.26 250.639 434.74ZM250.949 433.504H252.666V434.02H251.436C251.482 434.152 251.52 434.285 251.547 434.418C251.574 434.551 251.588 434.682 251.588 434.811C251.588 435.451 251.363 435.99 250.914 436.428C250.465 436.861 249.922 437.078 249.285 437.078C249.242 437.078 249.197 437.078 249.15 437.078C249.104 437.074 249.055 437.07 249.004 437.066C248.953 437.168 248.914 437.271 248.887 437.377C248.863 437.479 248.852 437.588 248.852 437.705V437.775L250.756 438.643C251.072 438.787 251.307 438.957 251.459 439.152C251.615 439.348 251.693 439.572 251.693 439.826C251.693 440.299 251.408 440.715 250.838 441.074C250.268 441.434 249.59 441.613 248.805 441.613C248.109 441.613 247.557 441.469 247.146 441.18C246.74 440.895 246.537 440.508 246.537 440.02C246.537 439.652 246.66 439.338 246.906 439.076C247.156 438.814 247.564 438.572 248.131 438.35C248.127 438.326 248.123 438.301 248.119 438.273C248.119 438.246 248.119 438.205 248.119 438.15C248.119 437.955 248.156 437.766 248.23 437.582C248.309 437.395 248.432 437.195 248.6 436.984C248.244 436.844 247.971 436.648 247.779 436.398C247.588 436.145 247.492 435.855 247.492 435.531C247.492 434.879 247.719 434.328 248.172 433.879C248.625 433.43 249.18 433.205 249.836 433.205C250.016 433.205 250.195 433.23 250.375 433.281C250.559 433.328 250.75 433.402 250.949 433.504ZM256.252 433.674C255.717 433.674 255.264 433.977 254.893 434.582C254.525 435.188 254.342 435.939 254.342 436.838C254.342 437.404 254.443 437.842 254.646 438.15C254.854 438.459 255.141 438.613 255.508 438.613C256.035 438.613 256.486 438.312 256.861 437.711C257.236 437.105 257.424 436.363 257.424 435.484C257.424 434.906 257.322 434.461 257.119 434.148C256.916 433.832 256.627 433.674 256.252 433.674ZM256.404 433.205C257.033 433.205 257.531 433.416 257.898 433.838C258.266 434.26 258.449 434.832 258.449 435.555C258.449 436.027 258.365 436.486 258.197 436.932C258.029 437.373 257.789 437.775 257.477 438.139C257.195 438.459 256.877 438.701 256.521 438.865C256.166 439.025 255.779 439.105 255.361 439.105C254.74 439.105 254.244 438.9 253.873 438.49C253.506 438.076 253.322 437.521 253.322 436.826C253.322 436.346 253.406 435.875 253.574 435.414C253.746 434.949 253.982 434.545 254.283 434.201C254.572 433.873 254.896 433.625 255.256 433.457C255.619 433.289 256.002 433.205 256.404 433.205ZM263.26 433.686H263.096C262.385 433.686 261.801 433.992 261.344 434.605C260.887 435.215 260.658 435.992 260.658 436.938C260.658 437.418 260.744 437.779 260.916 438.021C261.092 438.26 261.354 438.379 261.701 438.379C261.928 438.379 262.158 438.312 262.393 438.18C262.627 438.047 262.869 437.848 263.119 437.582L263.74 434.418L263.26 433.686ZM264.379 433.217H265C264.938 433.346 264.867 433.557 264.789 433.85C264.715 434.139 264.633 434.5 264.543 434.934L264.115 437.055C264.076 437.242 264.045 437.408 264.021 437.553C264.002 437.693 263.992 437.809 263.992 437.898C263.992 438.086 264.043 438.225 264.145 438.314C264.25 438.404 264.416 438.449 264.643 438.449C264.689 438.449 264.752 438.443 264.83 438.432C264.912 438.416 265.072 438.381 265.311 438.326V438.689C264.975 438.83 264.684 438.934 264.438 439C264.195 439.07 263.996 439.105 263.84 439.105C263.59 439.105 263.404 439.031 263.283 438.883C263.166 438.734 263.107 438.506 263.107 438.197V438.098C262.783 438.441 262.475 438.695 262.182 438.859C261.889 439.023 261.6 439.105 261.314 439.105C260.803 439.105 260.398 438.92 260.102 438.549C259.809 438.178 259.662 437.664 259.662 437.008C259.662 436.613 259.713 436.23 259.814 435.859C259.92 435.488 260.076 435.131 260.283 434.787C260.592 434.279 260.984 433.891 261.461 433.621C261.938 433.352 262.469 433.217 263.055 433.217C263.23 433.217 263.41 433.24 263.594 433.287C263.777 433.33 263.959 433.395 264.139 433.48L264.379 433.217ZM268.68 430.17H269.002C268.967 430.361 268.936 430.527 268.908 430.668C268.885 430.809 268.869 430.902 268.861 430.949L267.648 436.984C267.605 437.195 267.572 437.387 267.549 437.559C267.529 437.727 267.52 437.859 267.52 437.957C267.52 438.141 267.574 438.281 267.684 438.379C267.797 438.473 267.961 438.52 268.176 438.52C268.27 438.52 268.385 438.504 268.521 438.473C268.662 438.441 268.832 438.393 269.031 438.326V438.701C268.715 438.834 268.42 438.934 268.146 439C267.873 439.07 267.635 439.105 267.432 439.105C267.139 439.105 266.92 439.033 266.775 438.889C266.631 438.74 266.559 438.518 266.559 438.221C266.559 438.135 266.576 437.975 266.611 437.74C266.65 437.502 266.705 437.201 266.775 436.838L267.924 430.961L266.857 430.838V430.527L268.68 430.17Z" fill="#979797"/>
<rect width="253" height="44" rx="22" fill="#D5F0E4"/>
<path d="M34.5779 30.264C36.4259 30.264 37.9439 29.516 39.1099 28.174L37.7459 26.568C36.9319 27.448 35.9419 28.042 34.6659 28.042C32.2459 28.042 30.7059 26.062 30.7059 22.784C30.7059 19.55 32.3779 17.57 34.7319 17.57C35.8539 17.57 36.7119 18.076 37.4599 18.824L38.8239 17.174C37.9219 16.206 36.4699 15.348 34.6659 15.348C31.0359 15.348 28.0879 18.142 28.0879 22.85C28.0879 27.624 30.9479 30.264 34.5779 30.264ZM45.5844 30.264C47.0584 30.264 48.1144 29.538 49.0604 28.416H49.1264L49.3244 30H51.3924V19.198H48.8624V26.59C48.0484 27.646 47.4104 28.086 46.4644 28.086C45.2984 28.086 44.7924 27.426 44.7924 25.644V19.198H42.2624V25.974C42.2624 28.702 43.2744 30.264 45.5844 30.264ZM58.3566 30.264C58.9506 30.264 59.3906 30.176 59.6986 30.044L59.3686 28.152C59.1706 28.196 59.0826 28.196 58.9726 28.196C58.7086 28.196 58.4226 27.976 58.4226 27.36V14.468H55.8926V27.228C55.8926 29.098 56.5526 30.264 58.3566 30.264ZM66.9668 30.264C67.8248 30.264 68.5728 30.066 69.1668 29.868L68.7268 27.998C68.4188 28.13 67.9788 28.24 67.6048 28.24C66.5708 28.24 66.0868 27.624 66.0868 26.348V21.2H68.8368V19.198H66.0868V16.25H63.9748L63.6668 19.198L61.9948 19.308V21.2H63.5348V26.348C63.5348 28.68 64.4588 30.264 66.9668 30.264ZM72.4056 30H74.9356V19.198H72.4056V30ZM73.6816 17.306C74.5836 17.306 75.2436 16.712 75.2436 15.876C75.2436 15.018 74.5836 14.424 73.6816 14.424C72.7796 14.424 72.1196 15.018 72.1196 15.876C72.1196 16.712 72.7796 17.306 73.6816 17.306ZM81.8789 30H84.8049L88.4789 19.198H86.0369L84.3209 24.808C84.0129 25.864 83.7049 26.964 83.3969 28.064H83.3089C83.0229 26.964 82.6929 25.864 82.4069 24.808L80.6909 19.198H78.1169L81.8789 30ZM93.8354 30.264C95.1114 30.264 96.2114 29.626 97.1794 28.812H97.2674L97.4434 30H99.5334V23.598C99.5334 20.584 98.1914 18.934 95.5074 18.934C93.7914 18.934 92.2514 19.594 91.0634 20.342L91.9874 22.036C92.9554 21.464 93.9674 20.98 95.0234 20.98C96.4974 20.98 96.9594 21.948 97.0034 23.092C92.5594 23.576 90.6454 24.786 90.6454 27.096C90.6454 28.988 91.9434 30.264 93.8354 30.264ZM94.6494 28.284C93.7474 28.284 93.0874 27.866 93.0874 26.898C93.0874 25.82 94.0554 25.05 97.0034 24.676V27.096C96.1894 27.844 95.5294 28.284 94.6494 28.284ZM107.319 30.264C108.177 30.264 108.925 30.066 109.519 29.868L109.079 27.998C108.771 28.13 108.331 28.24 107.957 28.24C106.923 28.24 106.439 27.624 106.439 26.348V21.2H109.189V19.198H106.439V16.25H104.327L104.019 19.198L102.347 19.308V21.2H103.887V26.348C103.887 28.68 104.811 30.264 107.319 30.264ZM117.034 30.264C118.398 30.264 119.696 29.78 120.73 29.098L119.872 27.514C119.08 28.02 118.288 28.306 117.364 28.306C115.626 28.306 114.394 27.206 114.174 25.292H121.038C121.104 25.028 121.148 24.544 121.148 24.06C121.148 21.046 119.608 18.934 116.682 18.934C114.152 18.934 111.71 21.09 111.71 24.61C111.71 28.174 114.042 30.264 117.034 30.264ZM114.152 23.576C114.372 21.838 115.472 20.892 116.748 20.892C118.222 20.892 118.948 21.904 118.948 23.576H114.152ZM130.78 30H133.332V15.612H130.78V30ZM138.064 30H140.594V22.454C141.496 21.574 142.112 21.112 143.058 21.112C144.246 21.112 144.752 21.772 144.752 23.554V30H147.282V23.224C147.282 20.496 146.27 18.934 143.96 18.934C142.486 18.934 141.386 19.704 140.418 20.65H140.33L140.154 19.198H138.064V30ZM155.476 30.264C156.334 30.264 157.082 30.066 157.676 29.868L157.236 27.998C156.928 28.13 156.488 28.24 156.114 28.24C155.08 28.24 154.596 27.624 154.596 26.348V21.2H157.346V19.198H154.596V16.25H152.484L152.176 19.198L150.504 19.308V21.2H152.044V26.348C152.044 28.68 152.968 30.264 155.476 30.264ZM165.191 30.264C166.555 30.264 167.853 29.78 168.887 29.098L168.029 27.514C167.237 28.02 166.445 28.306 165.521 28.306C163.783 28.306 162.551 27.206 162.331 25.292H169.195C169.261 25.028 169.305 24.544 169.305 24.06C169.305 21.046 167.765 18.934 164.839 18.934C162.309 18.934 159.867 21.09 159.867 24.61C159.867 28.174 162.199 30.264 165.191 30.264ZM162.309 23.576C162.529 21.838 163.629 20.892 164.905 20.892C166.379 20.892 167.105 21.904 167.105 23.576H162.309ZM173.017 30H175.547V23.4C176.207 21.772 177.241 21.178 178.099 21.178C178.561 21.178 178.847 21.244 179.221 21.354L179.661 19.154C179.331 19 178.979 18.934 178.429 18.934C177.285 18.934 176.141 19.704 175.371 21.112H175.283L175.107 19.198H173.017V30ZM186.925 30.264C188.289 30.264 189.587 29.78 190.621 29.098L189.763 27.514C188.971 28.02 188.179 28.306 187.255 28.306C185.517 28.306 184.285 27.206 184.065 25.292H190.929C190.995 25.028 191.039 24.544 191.039 24.06C191.039 21.046 189.499 18.934 186.573 18.934C184.043 18.934 181.601 21.09 181.601 24.61C181.601 28.174 183.933 30.264 186.925 30.264ZM184.043 23.576C184.263 21.838 185.363 20.892 186.639 20.892C188.113 20.892 188.839 21.904 188.839 23.576H184.043ZM197.765 30.264C200.493 30.264 201.967 28.768 201.967 26.92C201.967 24.896 200.339 24.192 198.865 23.642C197.699 23.224 196.621 22.894 196.621 22.036C196.621 21.354 197.127 20.848 198.205 20.848C199.063 20.848 199.833 21.222 200.581 21.772L201.747 20.232C200.867 19.55 199.657 18.934 198.161 18.934C195.741 18.934 194.223 20.276 194.223 22.168C194.223 23.972 195.829 24.786 197.259 25.314C198.403 25.754 199.569 26.15 199.569 27.052C199.569 27.8 199.019 28.35 197.853 28.35C196.753 28.35 195.829 27.888 194.861 27.14L193.673 28.768C194.729 29.626 196.291 30.264 197.765 30.264ZM208.898 30.264C209.756 30.264 210.504 30.066 211.098 29.868L210.658 27.998C210.35 28.13 209.91 28.24 209.536 28.24C208.502 28.24 208.018 27.624 208.018 26.348V21.2H210.768V19.198H208.018V16.25H205.906L205.598 19.198L203.926 19.308V21.2H205.466V26.348C205.466 28.68 206.39 30.264 208.898 30.264ZM217.135 30.264C219.863 30.264 221.337 28.768 221.337 26.92C221.337 24.896 219.709 24.192 218.235 23.642C217.069 23.224 215.991 22.894 215.991 22.036C215.991 21.354 216.497 20.848 217.575 20.848C218.433 20.848 219.203 21.222 219.951 21.772L221.117 20.232C220.237 19.55 219.027 18.934 217.531 18.934C215.111 18.934 213.593 20.276 213.593 22.168C213.593 23.972 215.199 24.786 216.629 25.314C217.773 25.754 218.939 26.15 218.939 27.052C218.939 27.8 218.389 28.35 217.223 28.35C216.123 28.35 215.199 27.888 214.231 27.14L213.043 28.768C214.099 29.626 215.661 30.264 217.135 30.264Z" fill="#189779"/>
<rect y="55" width="212" height="44" rx="22" fill="#D5F0E4"/>
<path d="M28.1009 85H33.0729C36.2409 85 38.5949 83.658 38.5949 80.776C38.5949 78.84 37.4289 77.718 35.8449 77.366V77.278C37.0989 76.838 37.8469 75.518 37.8469 74.154C37.8469 71.514 35.6689 70.612 32.6989 70.612H28.1009V85ZM30.6529 76.552V72.592H32.5229C34.3929 72.592 35.3389 73.12 35.3389 74.528C35.3389 75.76 34.4809 76.552 32.4789 76.552H30.6529ZM30.6529 83.02V78.466H32.8089C34.9649 78.466 36.1089 79.126 36.1089 80.644C36.1089 82.25 34.9209 83.02 32.8089 83.02H30.6529ZM42.3034 85H44.8334V74.198H42.3034V85ZM43.5794 72.306C44.4814 72.306 45.1414 71.712 45.1414 70.876C45.1414 70.018 44.4814 69.424 43.5794 69.424C42.6774 69.424 42.0174 70.018 42.0174 70.876C42.0174 71.712 42.6774 72.306 43.5794 72.306ZM53.1187 89.774C56.6387 89.774 58.8827 88.102 58.8827 85.968C58.8827 84.098 57.5187 83.306 54.9227 83.306H53.0087C51.6887 83.306 51.2487 82.932 51.2487 82.316C51.2487 81.832 51.4467 81.568 51.7767 81.282C52.2607 81.48 52.7887 81.568 53.2507 81.568C55.5387 81.568 57.3427 80.292 57.3427 77.894C57.3427 77.146 57.0787 76.486 56.7267 76.068H58.7067V74.198H54.8347C54.3947 74.044 53.8447 73.934 53.2507 73.934C50.9847 73.934 48.9827 75.32 48.9827 77.806C48.9827 79.082 49.6647 80.116 50.3907 80.666V80.754C49.7747 81.194 49.2027 81.92 49.2027 82.756C49.2027 83.636 49.6207 84.208 50.1707 84.56V84.648C49.1807 85.264 48.6307 86.056 48.6307 86.958C48.6307 88.85 50.5447 89.774 53.1187 89.774ZM53.2507 79.984C52.1947 79.984 51.3587 79.192 51.3587 77.806C51.3587 76.442 52.1947 75.672 53.2507 75.672C54.3067 75.672 55.1207 76.464 55.1207 77.806C55.1207 79.192 54.2847 79.984 53.2507 79.984ZM53.5147 88.124C51.7987 88.124 50.7427 87.552 50.7427 86.584C50.7427 86.078 51.0067 85.594 51.5787 85.154C51.9967 85.264 52.4587 85.308 53.0527 85.308H54.5267C55.7587 85.308 56.4407 85.55 56.4407 86.386C56.4407 87.31 55.2527 88.124 53.5147 88.124ZM68.0018 85H70.5538V70.612H68.0018V85ZM79.0704 85.264C80.2364 85.264 81.3364 84.626 82.1284 83.834H82.2164L82.3924 85H84.4824V69.468H81.9524V73.384L82.0404 75.122C81.2044 74.396 80.4344 73.934 79.2024 73.934C76.8484 73.934 74.6264 76.09 74.6264 79.61C74.6264 83.174 76.3644 85.264 79.0704 85.264ZM79.6864 83.174C78.1244 83.174 77.2444 81.92 77.2444 79.588C77.2444 77.322 78.3664 76.024 79.7524 76.024C80.4784 76.024 81.2044 76.266 81.9524 76.926V81.964C81.2264 82.8 80.5224 83.174 79.6864 83.174ZM93.6199 85.264C94.9839 85.264 96.2819 84.78 97.3159 84.098L96.4579 82.514C95.6659 83.02 94.8739 83.306 93.9499 83.306C92.2119 83.306 90.9799 82.206 90.7599 80.292H97.6239C97.6899 80.028 97.7339 79.544 97.7339 79.06C97.7339 76.046 96.1939 73.934 93.2679 73.934C90.7379 73.934 88.2959 76.09 88.2959 79.61C88.2959 83.174 90.6279 85.264 93.6199 85.264ZM90.7379 78.576C90.9579 76.838 92.0579 75.892 93.3339 75.892C94.8079 75.892 95.5339 76.904 95.5339 78.576H90.7379ZM103.806 85.264C105.082 85.264 106.182 84.626 107.15 83.812H107.238L107.414 85H109.504V78.598C109.504 75.584 108.162 73.934 105.478 73.934C103.762 73.934 102.222 74.594 101.034 75.342L101.958 77.036C102.926 76.464 103.938 75.98 104.994 75.98C106.468 75.98 106.93 76.948 106.974 78.092C102.53 78.576 100.616 79.786 100.616 82.096C100.616 83.988 101.914 85.264 103.806 85.264ZM104.62 83.284C103.718 83.284 103.058 82.866 103.058 81.898C103.058 80.82 104.026 80.05 106.974 79.676V82.096C106.16 82.844 105.5 83.284 104.62 83.284ZM116.841 85.264C119.569 85.264 121.043 83.768 121.043 81.92C121.043 79.896 119.415 79.192 117.941 78.642C116.775 78.224 115.697 77.894 115.697 77.036C115.697 76.354 116.203 75.848 117.281 75.848C118.139 75.848 118.909 76.222 119.657 76.772L120.823 75.232C119.943 74.55 118.733 73.934 117.237 73.934C114.817 73.934 113.299 75.276 113.299 77.168C113.299 78.972 114.905 79.786 116.335 80.314C117.479 80.754 118.645 81.15 118.645 82.052C118.645 82.8 118.095 83.35 116.929 83.35C115.829 83.35 114.905 82.888 113.937 82.14L112.749 83.768C113.805 84.626 115.367 85.264 116.841 85.264ZM134.719 85.264C137.425 85.264 139.867 83.196 139.867 79.61C139.867 76.002 137.425 73.934 134.719 73.934C132.035 73.934 129.593 76.002 129.593 79.61C129.593 83.196 132.035 85.264 134.719 85.264ZM134.719 83.196C133.135 83.196 132.189 81.766 132.189 79.61C132.189 77.432 133.135 76.002 134.719 76.002C136.303 76.002 137.271 77.432 137.271 79.61C137.271 81.766 136.303 83.196 134.719 83.196ZM144.021 85H146.551V76.2H148.663V74.198H146.551V73.032C146.551 71.778 147.035 71.206 147.915 71.206C148.289 71.206 148.707 71.294 149.103 71.47L149.587 69.578C149.103 69.38 148.377 69.204 147.607 69.204C145.055 69.204 144.021 70.832 144.021 73.076V74.198L142.569 74.308V76.2H144.021V85ZM160.727 77.344C161.189 75.826 161.607 74.198 162.003 72.592H162.091C162.509 74.176 162.927 75.826 163.389 77.344L163.895 79.104H160.221L160.727 77.344ZM155.909 85H158.505L159.627 81.106H164.467L165.589 85H168.273L163.587 70.612H160.595L155.909 85ZM171.342 85H173.894V70.612H171.342V85Z" fill="#189779"/>
<rect y="110" width="238" height="38" rx="19" fill="#D4D4D4"/>
<path d="M30.4154 135.216C31.9454 135.216 33.0974 134.586 34.0334 133.506L33.2054 132.57C32.4494 133.398 31.6034 133.902 30.4694 133.902C28.2374 133.902 26.8154 132.03 26.8154 129.06C26.8154 126.126 28.2914 124.29 30.5234 124.29C31.5314 124.29 32.3054 124.74 32.9354 125.406L33.7454 124.434C33.0614 123.66 31.9454 122.976 30.5054 122.976C27.4994 122.976 25.2674 125.298 25.2674 129.096C25.2674 132.948 27.4634 135.216 30.4154 135.216ZM40.5526 135.216C42.6946 135.216 44.6026 133.542 44.6026 130.644C44.6026 127.71 42.6946 126.036 40.5526 126.036C38.4106 126.036 36.5026 127.71 36.5026 130.644C36.5026 133.542 38.4106 135.216 40.5526 135.216ZM40.5526 133.992C39.0586 133.992 38.0326 132.642 38.0326 130.644C38.0326 128.628 39.0586 127.26 40.5526 127.26C42.0646 127.26 43.0726 128.628 43.0726 130.644C43.0726 132.642 42.0646 133.992 40.5526 133.992ZM47.9664 135H49.4424V128.664C50.2524 127.764 50.9904 127.314 51.6384 127.314C52.7544 127.314 53.2764 128.016 53.2764 129.654V135H54.7524V128.664C55.5624 127.764 56.2644 127.314 56.9484 127.314C58.0464 127.314 58.5684 128.016 58.5684 129.654V135H60.0444V129.456C60.0444 127.224 59.1804 126.036 57.3804 126.036C56.3184 126.036 55.4184 126.72 54.5004 127.71C54.1404 126.666 53.4204 126.036 52.0884 126.036C51.0444 126.036 50.1264 126.684 49.3704 127.512H49.3164L49.1904 126.252H47.9664V135ZM63.9503 135H65.4263V128.664C66.2363 127.764 66.9743 127.314 67.6223 127.314C68.7383 127.314 69.2603 128.016 69.2603 129.654V135H70.7363V128.664C71.5463 127.764 72.2483 127.314 72.9323 127.314C74.0303 127.314 74.5523 128.016 74.5523 129.654V135H76.0283V129.456C76.0283 127.224 75.1643 126.036 73.3643 126.036C72.3023 126.036 71.4023 126.72 70.4843 127.71C70.1243 126.666 69.4043 126.036 68.0723 126.036C67.0283 126.036 66.1103 126.684 65.3543 127.512H65.3003L65.1743 126.252H63.9503V135ZM82.4901 135.216C83.6961 135.216 84.5601 134.586 85.3701 133.632H85.4241L85.5501 135H86.7741V126.252H85.2981V132.462C84.4701 133.488 83.8401 133.938 82.9401 133.938C81.7881 133.938 81.3021 133.236 81.3021 131.598V126.252H79.8081V131.796C79.8081 134.028 80.6361 135.216 82.4901 135.216ZM90.7851 135H92.2611V128.664C93.1431 127.782 93.7551 127.314 94.6551 127.314C95.8071 127.314 96.3111 128.016 96.3111 129.654V135H97.7871V129.456C97.7871 127.224 96.9591 126.036 95.1231 126.036C93.9171 126.036 93.0171 126.684 92.1891 127.512H92.1351L92.0091 126.252H90.7851V135ZM101.689 135H103.165V126.252H101.689V135ZM102.445 124.452C103.021 124.452 103.471 124.056 103.471 123.498C103.471 122.922 103.021 122.544 102.445 122.544C101.869 122.544 101.419 122.922 101.419 123.498C101.419 124.056 101.869 124.452 102.445 124.452ZM110.635 135.216C111.679 135.216 112.669 134.802 113.461 134.1L112.813 133.11C112.273 133.596 111.571 133.992 110.761 133.992C109.159 133.992 108.061 132.642 108.061 130.644C108.061 128.628 109.213 127.26 110.797 127.26C111.499 127.26 112.039 127.584 112.543 128.034L113.299 127.062C112.687 126.504 111.895 126.036 110.743 126.036C108.493 126.036 106.531 127.71 106.531 130.644C106.531 133.542 108.313 135.216 110.635 135.216ZM118.288 135.216C119.386 135.216 120.358 134.64 121.186 133.956H121.24L121.366 135H122.59V129.636C122.59 127.458 121.69 126.036 119.548 126.036C118.144 126.036 116.92 126.648 116.11 127.17L116.686 128.196C117.37 127.728 118.288 127.26 119.296 127.26C120.736 127.26 121.096 128.34 121.096 129.456C117.37 129.87 115.732 130.824 115.732 132.732C115.732 134.298 116.83 135.216 118.288 135.216ZM118.72 134.028C117.856 134.028 117.172 133.614 117.172 132.624C117.172 131.508 118.18 130.788 121.096 130.428V132.858C120.25 133.614 119.566 134.028 118.72 134.028ZM128.91 135.216C129.45 135.216 130.044 135.054 130.53 134.892L130.242 133.776C129.954 133.884 129.558 134.01 129.252 134.01C128.244 134.01 127.902 133.398 127.902 132.318V127.458H130.26V126.252H127.902V123.804H126.66L126.48 126.252L125.112 126.342V127.458H126.408V132.3C126.408 134.028 127.038 135.216 128.91 135.216ZM133.298 135H134.774V126.252H133.298V135ZM134.054 124.452C134.63 124.452 135.08 124.056 135.08 123.498C135.08 122.922 134.63 122.544 134.054 122.544C133.478 122.544 133.028 122.922 133.028 123.498C133.028 124.056 133.478 124.452 134.054 124.452ZM142.19 135.216C144.332 135.216 146.24 133.542 146.24 130.644C146.24 127.71 144.332 126.036 142.19 126.036C140.048 126.036 138.14 127.71 138.14 130.644C138.14 133.542 140.048 135.216 142.19 135.216ZM142.19 133.992C140.696 133.992 139.67 132.642 139.67 130.644C139.67 128.628 140.696 127.26 142.19 127.26C143.702 127.26 144.71 128.628 144.71 130.644C144.71 132.642 143.702 133.992 142.19 133.992ZM149.604 135H151.08V128.664C151.962 127.782 152.574 127.314 153.474 127.314C154.626 127.314 155.13 128.016 155.13 129.654V135H156.606V129.456C156.606 127.224 155.778 126.036 153.942 126.036C152.736 126.036 151.836 126.684 151.008 127.512H150.954L150.828 126.252H149.604V135ZM168.591 135.216C171.075 135.216 172.605 133.722 172.605 131.85C172.605 130.104 171.543 129.294 170.175 128.7L168.501 127.98C167.565 127.584 166.539 127.152 166.539 126.018C166.539 124.956 167.421 124.29 168.735 124.29C169.833 124.29 170.697 124.722 171.417 125.406L172.227 124.434C171.381 123.57 170.139 122.976 168.735 122.976C166.593 122.976 165.027 124.308 165.027 126.108C165.027 127.836 166.305 128.682 167.421 129.15L169.113 129.888C170.229 130.392 171.075 130.77 171.075 131.976C171.075 133.128 170.157 133.902 168.609 133.902C167.385 133.902 166.197 133.308 165.351 132.426L164.451 133.47C165.477 134.532 166.935 135.216 168.591 135.216ZM175.846 135H177.304V132.696L178.942 130.788L181.498 135H183.118L179.788 129.762L182.722 126.252H181.084L177.358 130.86H177.304V122.184H175.846V135ZM185.818 135H187.294V126.252H185.818V135ZM186.574 124.452C187.15 124.452 187.6 124.056 187.6 123.498C187.6 122.922 187.15 122.544 186.574 122.544C185.998 122.544 185.548 122.922 185.548 123.498C185.548 124.056 185.998 124.452 186.574 124.452ZM192.874 135.216C193.27 135.216 193.522 135.162 193.72 135.072L193.522 133.956C193.36 133.992 193.288 133.992 193.198 133.992C192.982 133.992 192.784 133.812 192.784 133.344V122.184H191.308V133.236C191.308 134.514 191.758 135.216 192.874 135.216ZM198.522 135.216C198.918 135.216 199.17 135.162 199.368 135.072L199.17 133.956C199.008 133.992 198.936 133.992 198.846 133.992C198.63 133.992 198.432 133.812 198.432 133.344V122.184H196.956V133.236C196.956 134.514 197.406 135.216 198.522 135.216ZM204.89 135.216C206.96 135.216 208.094 134.028 208.094 132.606C208.094 130.95 206.69 130.428 205.43 129.96C204.44 129.582 203.486 129.276 203.486 128.448C203.486 127.782 203.99 127.188 205.088 127.188C205.862 127.188 206.492 127.512 207.086 127.962L207.788 127.026C207.122 126.486 206.168 126.036 205.07 126.036C203.18 126.036 202.064 127.116 202.064 128.52C202.064 129.996 203.432 130.59 204.674 131.04C205.628 131.4 206.672 131.796 206.672 132.696C206.672 133.452 206.096 134.064 204.944 134.064C203.9 134.064 203.126 133.632 202.37 133.02L201.632 134.01C202.46 134.694 203.648 135.216 204.89 135.216Z" fill="#7E7E7E"/>
<rect y="159" width="201" height="38" rx="19" fill="#D4D4D4"/>
<path d="M28.6378 185H35.2978V183.722H30.1318V173.192H28.6378V185ZM41.4987 185.216C43.6407 185.216 45.5487 183.542 45.5487 180.644C45.5487 177.71 43.6407 176.036 41.4987 176.036C39.3567 176.036 37.4487 177.71 37.4487 180.644C37.4487 183.542 39.3567 185.216 41.4987 185.216ZM41.4987 183.992C40.0047 183.992 38.9787 182.642 38.9787 180.644C38.9787 178.628 40.0047 177.26 41.4987 177.26C43.0107 177.26 44.0187 178.628 44.0187 180.644C44.0187 182.642 43.0107 183.992 41.4987 183.992ZM51.8646 189.032C54.5826 189.032 56.2926 187.628 56.2926 186.008C56.2926 184.55 55.2666 183.92 53.2326 183.92H51.5406C50.3526 183.92 49.9926 183.524 49.9926 182.966C49.9926 182.48 50.2446 182.192 50.5506 181.922C50.9466 182.12 51.4326 182.228 51.8646 182.228C53.6466 182.228 55.0686 181.058 55.0686 179.186C55.0686 178.448 54.7626 177.782 54.3486 177.386H56.1486V176.252H53.1066C52.7826 176.126 52.3506 176.036 51.8646 176.036C50.0826 176.036 48.5706 177.242 48.5706 179.15C48.5706 180.194 49.1286 181.04 49.7046 181.508V181.58C49.2546 181.886 48.7506 182.462 48.7506 183.2C48.7506 183.884 49.0926 184.352 49.5246 184.622V184.694C48.7326 185.234 48.2466 185.936 48.2466 186.674C48.2466 188.186 49.7226 189.032 51.8646 189.032ZM51.8646 181.238C50.8566 181.238 50.0106 180.428 50.0106 179.15C50.0106 177.872 50.8386 177.116 51.8646 177.116C52.8906 177.116 53.7186 177.872 53.7186 179.15C53.7186 180.428 52.8726 181.238 51.8646 181.238ZM52.0806 188.006C50.4966 188.006 49.5426 187.412 49.5426 186.476C49.5426 185.972 49.8126 185.45 50.4426 185C50.8206 185.108 51.2346 185.144 51.5766 185.144H53.0886C54.2226 185.144 54.8526 185.414 54.8526 186.224C54.8526 187.142 53.7546 188.006 52.0806 188.006ZM59.0429 185H60.5189V176.252H59.0429V185ZM59.7989 174.452C60.3749 174.452 60.8249 174.056 60.8249 173.498C60.8249 172.922 60.3749 172.544 59.7989 172.544C59.2229 172.544 58.7729 172.922 58.7729 173.498C58.7729 174.056 59.2229 174.452 59.7989 174.452ZM67.9886 185.216C69.0326 185.216 70.0226 184.802 70.8146 184.1L70.1666 183.11C69.6266 183.596 68.9246 183.992 68.1146 183.992C66.5126 183.992 65.4146 182.642 65.4146 180.644C65.4146 178.628 66.5666 177.26 68.1506 177.26C68.8526 177.26 69.3926 177.584 69.8966 178.034L70.6526 177.062C70.0406 176.504 69.2486 176.036 68.0966 176.036C65.8466 176.036 63.8846 177.71 63.8846 180.644C63.8846 183.542 65.6666 185.216 67.9886 185.216ZM75.6418 185.216C76.7398 185.216 77.7118 184.64 78.5398 183.956H78.5938L78.7198 185H79.9438V179.636C79.9438 177.458 79.0438 176.036 76.9018 176.036C75.4978 176.036 74.2738 176.648 73.4638 177.17L74.0398 178.196C74.7238 177.728 75.6418 177.26 76.6498 177.26C78.0898 177.26 78.4498 178.34 78.4498 179.456C74.7238 179.87 73.0858 180.824 73.0858 182.732C73.0858 184.298 74.1838 185.216 75.6418 185.216ZM76.0738 184.028C75.2098 184.028 74.5258 183.614 74.5258 182.624C74.5258 181.508 75.5338 180.788 78.4498 180.428V182.858C77.6038 183.614 76.9198 184.028 76.0738 184.028ZM85.3221 185.216C85.7181 185.216 85.9701 185.162 86.1681 185.072L85.9701 183.956C85.8081 183.992 85.7361 183.992 85.6461 183.992C85.4301 183.992 85.2321 183.812 85.2321 183.344V172.184H83.7561V183.236C83.7561 184.514 84.2061 185.216 85.3221 185.216ZM96.6595 185H98.1715V174.452H101.736V173.192H93.0955V174.452H96.6595V185ZM104.778 185H106.254V178.664C107.136 177.782 107.748 177.314 108.648 177.314C109.8 177.314 110.304 178.016 110.304 179.654V185H111.78V179.456C111.78 177.224 110.952 176.036 109.116 176.036C107.91 176.036 107.028 176.684 106.2 177.476L106.254 175.676V172.184H104.778V185ZM115.629 185H117.105V176.252H115.629V185ZM116.385 174.452C116.961 174.452 117.411 174.056 117.411 173.498C117.411 172.922 116.961 172.544 116.385 172.544C115.809 172.544 115.359 172.922 115.359 173.498C115.359 174.056 115.809 174.452 116.385 174.452ZM121.119 185H122.595V178.664C123.477 177.782 124.089 177.314 124.989 177.314C126.141 177.314 126.645 178.016 126.645 179.654V185H128.121V179.456C128.121 177.224 127.293 176.036 125.457 176.036C124.251 176.036 123.351 176.684 122.523 177.512H122.469L122.343 176.252H121.119V185ZM132.022 185H133.48V182.696L135.118 180.788L137.674 185H139.294L135.964 179.762L138.898 176.252H137.26L133.534 180.86H133.48V172.184H132.022V185ZM141.994 185H143.47V176.252H141.994V185ZM142.75 174.452C143.326 174.452 143.776 174.056 143.776 173.498C143.776 172.922 143.326 172.544 142.75 172.544C142.174 172.544 141.724 172.922 141.724 173.498C141.724 174.056 142.174 174.452 142.75 174.452ZM147.484 185H148.96V178.664C149.842 177.782 150.454 177.314 151.354 177.314C152.506 177.314 153.01 178.016 153.01 179.654V185H154.486V179.456C154.486 177.224 153.658 176.036 151.822 176.036C150.616 176.036 149.716 176.684 148.888 177.512H148.834L148.708 176.252H147.484V185ZM161.34 189.032C164.058 189.032 165.768 187.628 165.768 186.008C165.768 184.55 164.742 183.92 162.708 183.92H161.016C159.828 183.92 159.468 183.524 159.468 182.966C159.468 182.48 159.72 182.192 160.026 181.922C160.422 182.12 160.908 182.228 161.34 182.228C163.122 182.228 164.544 181.058 164.544 179.186C164.544 178.448 164.238 177.782 163.824 177.386H165.624V176.252H162.582C162.258 176.126 161.826 176.036 161.34 176.036C159.558 176.036 158.046 177.242 158.046 179.15C158.046 180.194 158.604 181.04 159.18 181.508V181.58C158.73 181.886 158.226 182.462 158.226 183.2C158.226 183.884 158.568 184.352 159 184.622V184.694C158.208 185.234 157.722 185.936 157.722 186.674C157.722 188.186 159.198 189.032 161.34 189.032ZM161.34 181.238C160.332 181.238 159.486 180.428 159.486 179.15C159.486 177.872 160.314 177.116 161.34 177.116C162.366 177.116 163.194 177.872 163.194 179.15C163.194 180.428 162.348 181.238 161.34 181.238ZM161.556 188.006C159.972 188.006 159.018 187.412 159.018 186.476C159.018 185.972 159.288 185.45 159.918 185C160.296 185.108 160.71 185.144 161.052 185.144H162.564C163.698 185.144 164.328 185.414 164.328 186.224C164.328 187.142 163.23 188.006 161.556 188.006Z" fill="#7E7E7E"/>
<rect y="257" width="135" height="38" rx="19" fill="#D8D8D8"/>
<path d="M32.3453 283.216C33.8752 283.216 35.0272 282.586 35.9633 281.506L35.1353 280.57C34.3793 281.398 33.5332 281.902 32.3992 281.902C30.1672 281.902 28.7452 280.03 28.7452 277.06C28.7452 274.126 30.2212 272.29 32.4532 272.29C33.4612 272.29 34.2352 272.74 34.8652 273.406L35.6752 272.434C34.9912 271.66 33.8752 270.976 32.4352 270.976C29.4292 270.976 27.1972 273.298 27.1972 277.096C27.1972 280.948 29.3932 283.216 32.3453 283.216ZM39.0805 283H40.5565V277.384C41.1505 275.908 42.0325 275.368 42.7705 275.368C43.1305 275.368 43.3285 275.422 43.6165 275.512L43.9045 274.216C43.6165 274.09 43.3465 274.036 42.9685 274.036C41.9785 274.036 41.0785 274.738 40.4845 275.836H40.4305L40.3045 274.252H39.0805V283ZM49.7509 283.216C50.9389 283.216 51.8749 282.802 52.6309 282.316L52.1089 281.344C51.4609 281.758 50.7589 282.028 49.9309 282.028C48.2569 282.028 47.1229 280.84 47.0149 278.986H52.9189C52.9549 278.77 52.9729 278.446 52.9729 278.14C52.9729 275.638 51.7129 274.036 49.4809 274.036C47.4829 274.036 45.5569 275.782 45.5569 278.644C45.5569 281.506 47.4109 283.216 49.7509 283.216ZM46.9969 277.924C47.1769 276.196 48.2929 275.206 49.5169 275.206C50.8849 275.206 51.6769 276.16 51.6769 277.924H46.9969ZM57.9645 283.216C59.0625 283.216 60.0345 282.64 60.8625 281.956H60.9165L61.0425 283H62.2665V277.636C62.2665 275.458 61.3665 274.036 59.2245 274.036C57.8205 274.036 56.5965 274.648 55.7865 275.17L56.3625 276.196C57.0465 275.728 57.9645 275.26 58.9725 275.26C60.4125 275.26 60.7725 276.34 60.7725 277.456C57.0465 277.87 55.4085 278.824 55.4085 280.732C55.4085 282.298 56.5065 283.216 57.9645 283.216ZM58.3965 282.028C57.5325 282.028 56.8485 281.614 56.8485 280.624C56.8485 279.508 57.8565 278.788 60.7725 278.428V280.858C59.9265 281.614 59.2425 282.028 58.3965 282.028ZM68.5867 283.216C69.1267 283.216 69.7207 283.054 70.2067 282.892L69.9187 281.776C69.6307 281.884 69.2347 282.01 68.9287 282.01C67.9207 282.01 67.5787 281.398 67.5787 280.318V275.458H69.9367V274.252H67.5787V271.804H66.3367L66.1567 274.252L64.7887 274.342V275.458H66.0847V280.3C66.0847 282.028 66.7147 283.216 68.5867 283.216ZM72.9747 283H74.4507V274.252H72.9747V283ZM73.7307 272.452C74.3067 272.452 74.7567 272.056 74.7567 271.498C74.7567 270.922 74.3067 270.544 73.7307 270.544C73.1547 270.544 72.7047 270.922 72.7047 271.498C72.7047 272.056 73.1547 272.452 73.7307 272.452ZM80.3544 283H82.0824L85.1784 274.252H83.7204L82.0644 279.22C81.8124 280.084 81.5244 280.966 81.2724 281.794H81.2004C80.9304 280.966 80.6424 280.084 80.3904 279.22L78.7344 274.252H77.2044L80.3544 283ZM91.4025 283.216C92.5905 283.216 93.5265 282.802 94.2825 282.316L93.7605 281.344C93.1125 281.758 92.4105 282.028 91.5825 282.028C89.9085 282.028 88.7745 280.84 88.6665 278.986H94.5705C94.6065 278.77 94.6245 278.446 94.6245 278.14C94.6245 275.638 93.3645 274.036 91.1325 274.036C89.1345 274.036 87.2085 275.782 87.2085 278.644C87.2085 281.506 89.0625 283.216 91.4025 283.216ZM88.6485 277.924C88.8285 276.196 89.9445 275.206 91.1685 275.206C92.5365 275.206 93.3285 276.16 93.3285 277.924H88.6485ZM100.424 283.216C100.964 283.216 101.558 283.054 102.044 282.892L101.756 281.776C101.468 281.884 101.072 282.01 100.766 282.01C99.7584 282.01 99.4164 281.398 99.4164 280.318V275.458H101.774V274.252H99.4164V271.804H98.1744L97.9944 274.252L96.6264 274.342V275.458H97.9224V280.3C97.9224 282.028 98.5524 283.216 100.424 283.216ZM104.956 286.762C106.72 286.762 107.62 285.448 108.232 283.72L111.526 274.252H110.086L108.52 279.094C108.286 279.868 108.034 280.768 107.782 281.56H107.71C107.44 280.75 107.134 279.85 106.864 279.094L105.082 274.252H103.552L107.062 283.018L106.864 283.666C106.504 284.746 105.874 285.538 104.884 285.538C104.668 285.538 104.398 285.466 104.218 285.412L103.93 286.582C104.218 286.69 104.56 286.762 104.956 286.762Z" fill="#787878"/>
<rect y="208" width="167" height="38" rx="19" fill="#D8D8D8"/>
<path d="M32.3607 234.216C33.8907 234.216 35.0427 233.586 35.9787 232.506L35.1507 231.57C34.3947 232.398 33.5487 232.902 32.4147 232.902C30.1827 232.902 28.7607 231.03 28.7607 228.06C28.7607 225.126 30.2367 223.29 32.4687 223.29C33.4767 223.29 34.2507 223.74 34.8807 224.406L35.6907 223.434C35.0067 222.66 33.8907 221.976 32.4507 221.976C29.4447 221.976 27.2127 224.298 27.2127 228.096C27.2127 231.948 29.4087 234.216 32.3607 234.216ZM42.4979 234.216C44.6399 234.216 46.5479 232.542 46.5479 229.644C46.5479 226.71 44.6399 225.036 42.4979 225.036C40.3559 225.036 38.4479 226.71 38.4479 229.644C38.4479 232.542 40.3559 234.216 42.4979 234.216ZM42.4979 232.992C41.0039 232.992 39.9779 231.642 39.9779 229.644C39.9779 227.628 41.0039 226.26 42.4979 226.26C44.0099 226.26 45.0179 227.628 45.0179 229.644C45.0179 231.642 44.0099 232.992 42.4979 232.992ZM51.4778 234.216C51.8738 234.216 52.1258 234.162 52.3238 234.072L52.1258 232.956C51.9638 232.992 51.8918 232.992 51.8018 232.992C51.5858 232.992 51.3878 232.812 51.3878 232.344V221.184H49.9118V232.236C49.9118 233.514 50.3618 234.216 51.4778 234.216ZM57.1257 234.216C57.5217 234.216 57.7737 234.162 57.9717 234.072L57.7737 232.956C57.6117 232.992 57.5397 232.992 57.4497 232.992C57.2337 232.992 57.0357 232.812 57.0357 232.344V221.184H55.5597V232.236C55.5597 233.514 56.0097 234.216 57.1257 234.216ZM63.2236 234.216C64.3216 234.216 65.2936 233.64 66.1216 232.956H66.1756L66.3016 234H67.5256V228.636C67.5256 226.458 66.6256 225.036 64.4836 225.036C63.0796 225.036 61.8556 225.648 61.0456 226.17L61.6216 227.196C62.3056 226.728 63.2236 226.26 64.2316 226.26C65.6716 226.26 66.0316 227.34 66.0316 228.456C62.3056 228.87 60.6676 229.824 60.6676 231.732C60.6676 233.298 61.7656 234.216 63.2236 234.216ZM63.6556 233.028C62.7916 233.028 62.1076 232.614 62.1076 231.624C62.1076 230.508 63.1156 229.788 66.0316 229.428V231.858C65.1856 232.614 64.5016 233.028 63.6556 233.028ZM75.2079 234.216C77.2059 234.216 78.9879 232.47 78.9879 229.482C78.9879 226.782 77.7819 225.036 75.5139 225.036C74.5419 225.036 73.5699 225.558 72.7779 226.26L72.8139 224.676V221.184H71.3379V234H72.5259L72.6519 233.1H72.7059C73.4799 233.802 74.3979 234.216 75.2079 234.216ZM74.9559 232.974C74.3799 232.974 73.5879 232.722 72.8139 232.056V227.466C73.6419 226.692 74.4159 226.278 75.1539 226.278C76.8099 226.278 77.4579 227.574 77.4579 229.5C77.4579 231.66 76.3959 232.974 74.9559 232.974ZM85.7491 234.216C87.8911 234.216 89.7991 232.542 89.7991 229.644C89.7991 226.71 87.8911 225.036 85.7491 225.036C83.6071 225.036 81.6991 226.71 81.6991 229.644C81.6991 232.542 83.6071 234.216 85.7491 234.216ZM85.7491 232.992C84.2551 232.992 83.2291 231.642 83.2291 229.644C83.2291 227.628 84.2551 226.26 85.7491 226.26C87.2611 226.26 88.2691 227.628 88.2691 229.644C88.2691 231.642 87.2611 232.992 85.7491 232.992ZM93.163 234H94.639V228.384C95.233 226.908 96.115 226.368 96.853 226.368C97.213 226.368 97.411 226.422 97.699 226.512L97.987 225.216C97.699 225.09 97.429 225.036 97.051 225.036C96.061 225.036 95.161 225.738 94.567 226.836H94.513L94.387 225.252H93.163V234ZM102.04 234.216C103.138 234.216 104.11 233.64 104.938 232.956H104.992L105.118 234H106.342V228.636C106.342 226.458 105.442 225.036 103.3 225.036C101.896 225.036 100.672 225.648 99.8617 226.17L100.438 227.196C101.122 226.728 102.04 226.26 103.048 226.26C104.488 226.26 104.848 227.34 104.848 228.456C101.122 228.87 99.4837 229.824 99.4837 231.732C99.4837 233.298 100.582 234.216 102.04 234.216ZM102.472 233.028C101.608 233.028 100.924 232.614 100.924 231.624C100.924 230.508 101.932 229.788 104.848 229.428V231.858C104.002 232.614 103.318 233.028 102.472 233.028ZM112.662 234.216C113.202 234.216 113.796 234.054 114.282 233.892L113.994 232.776C113.706 232.884 113.31 233.01 113.004 233.01C111.996 233.01 111.654 232.398 111.654 231.318V226.458H114.012V225.252H111.654V222.804H110.412L110.232 225.252L108.864 225.342V226.458H110.16V231.3C110.16 233.028 110.79 234.216 112.662 234.216ZM117.05 234H118.526V225.252H117.05V234ZM117.806 223.452C118.382 223.452 118.832 223.056 118.832 222.498C118.832 221.922 118.382 221.544 117.806 221.544C117.23 221.544 116.78 221.922 116.78 222.498C116.78 223.056 117.23 223.452 117.806 223.452ZM125.942 234.216C128.084 234.216 129.992 232.542 129.992 229.644C129.992 226.71 128.084 225.036 125.942 225.036C123.8 225.036 121.892 226.71 121.892 229.644C121.892 232.542 123.8 234.216 125.942 234.216ZM125.942 232.992C124.448 232.992 123.422 231.642 123.422 229.644C123.422 227.628 124.448 226.26 125.942 226.26C127.454 226.26 128.462 227.628 128.462 229.644C128.462 231.642 127.454 232.992 125.942 232.992ZM133.356 234H134.832V227.664C135.714 226.782 136.326 226.314 137.226 226.314C138.378 226.314 138.882 227.016 138.882 228.654V234H140.358V228.456C140.358 226.224 139.53 225.036 137.694 225.036C136.488 225.036 135.588 225.684 134.76 226.512H134.706L134.58 225.252H133.356V234Z" fill="#787878"/>
<rect y="306" width="252" height="38" rx="19" fill="#E7E7E7"/>
<path d="M28.6606 332H30.1546V327.32H32.0986C34.6906 327.32 36.4546 326.15 36.4546 323.666C36.4546 321.074 34.6726 320.192 32.0266 320.192H28.6606V332ZM30.1546 326.096V321.398H31.8466C33.9166 321.398 34.9606 321.956 34.9606 323.666C34.9606 325.34 33.9706 326.096 31.9186 326.096H30.1546ZM41.0145 332.216C42.1125 332.216 43.0845 331.64 43.9125 330.956H43.9665L44.0925 332H45.3165V326.636C45.3165 324.458 44.4165 323.036 42.2745 323.036C40.8705 323.036 39.6465 323.648 38.8365 324.17L39.4125 325.196C40.0965 324.728 41.0145 324.26 42.0225 324.26C43.4625 324.26 43.8225 325.34 43.8225 326.456C40.0965 326.87 38.4585 327.824 38.4585 329.732C38.4585 331.298 39.5565 332.216 41.0145 332.216ZM41.4465 331.028C40.5825 331.028 39.8985 330.614 39.8985 329.624C39.8985 328.508 40.9065 327.788 43.8225 327.428V329.858C42.9765 330.614 42.2925 331.028 41.4465 331.028ZM51.6367 332.216C52.1767 332.216 52.7707 332.054 53.2567 331.892L52.9687 330.776C52.6807 330.884 52.2847 331.01 51.9787 331.01C50.9707 331.01 50.6287 330.398 50.6287 329.318V324.458H52.9867V323.252H50.6287V320.804H49.3867L49.2067 323.252L47.8387 323.342V324.458H49.1347V329.3C49.1347 331.028 49.7647 332.216 51.6367 332.216ZM56.0248 332H57.5008V323.252H56.0248V332ZM56.7808 321.452C57.3568 321.452 57.8068 321.056 57.8068 320.498C57.8068 319.922 57.3568 319.544 56.7808 319.544C56.2048 319.544 55.7548 319.922 55.7548 320.498C55.7548 321.056 56.2048 321.452 56.7808 321.452ZM65.0604 332.216C66.2484 332.216 67.1844 331.802 67.9404 331.316L67.4184 330.344C66.7704 330.758 66.0684 331.028 65.2404 331.028C63.5664 331.028 62.4324 329.84 62.3244 327.986H68.2284C68.2644 327.77 68.2824 327.446 68.2824 327.14C68.2824 324.638 67.0224 323.036 64.7904 323.036C62.7924 323.036 60.8664 324.782 60.8664 327.644C60.8664 330.506 62.7204 332.216 65.0604 332.216ZM62.3064 326.924C62.4864 325.196 63.6024 324.206 64.8264 324.206C66.1944 324.206 66.9864 325.16 66.9864 326.924H62.3064ZM71.5041 332H72.9801V325.664C73.8621 324.782 74.4741 324.314 75.3741 324.314C76.5261 324.314 77.0301 325.016 77.0301 326.654V332H78.5061V326.456C78.5061 324.224 77.6781 323.036 75.8421 323.036C74.6361 323.036 73.7361 323.684 72.9081 324.512H72.8541L72.7281 323.252H71.5041V332ZM85.8639 332.216C86.9079 332.216 87.8979 331.802 88.6899 331.1L88.0419 330.11C87.5019 330.596 86.7999 330.992 85.9899 330.992C84.3879 330.992 83.2899 329.642 83.2899 327.644C83.2899 325.628 84.4419 324.26 86.0259 324.26C86.7279 324.26 87.2679 324.584 87.7719 325.034L88.5279 324.062C87.9159 323.504 87.1239 323.036 85.9719 323.036C83.7219 323.036 81.7599 324.71 81.7599 327.644C81.7599 330.542 83.5419 332.216 85.8639 332.216ZM94.8361 332.216C96.0241 332.216 96.9601 331.802 97.7161 331.316L97.1941 330.344C96.5461 330.758 95.8441 331.028 95.0161 331.028C93.3421 331.028 92.2081 329.84 92.1001 327.986H98.0041C98.0401 327.77 98.0581 327.446 98.0581 327.14C98.0581 324.638 96.7981 323.036 94.5661 323.036C92.5681 323.036 90.6421 324.782 90.6421 327.644C90.6421 330.506 92.4961 332.216 94.8361 332.216ZM92.0821 326.924C92.2621 325.196 93.3781 324.206 94.6021 324.206C95.9701 324.206 96.7621 325.16 96.7621 326.924H92.0821ZM99.9838 334.88H101.064L105.87 319.22H104.79L99.9838 334.88ZM108.777 332H110.271V327.32H112.215C114.807 327.32 116.571 326.15 116.571 323.666C116.571 321.074 114.789 320.192 112.143 320.192H108.777V332ZM110.271 326.096V321.398H111.963C114.033 321.398 115.077 321.956 115.077 323.666C115.077 325.34 114.087 326.096 112.035 326.096H110.271ZM122.995 332.216C124.183 332.216 125.119 331.802 125.875 331.316L125.353 330.344C124.705 330.758 124.003 331.028 123.175 331.028C121.501 331.028 120.367 329.84 120.259 327.986H126.163C126.199 327.77 126.217 327.446 126.217 327.14C126.217 324.638 124.957 323.036 122.725 323.036C120.727 323.036 118.801 324.782 118.801 327.644C118.801 330.506 120.655 332.216 122.995 332.216ZM120.241 326.924C120.421 325.196 121.537 324.206 122.761 324.206C124.129 324.206 124.921 325.16 124.921 326.924H120.241ZM129.438 332H130.914V326.384C131.508 324.908 132.39 324.368 133.128 324.368C133.488 324.368 133.686 324.422 133.974 324.512L134.262 323.216C133.974 323.09 133.704 323.036 133.326 323.036C132.336 323.036 131.436 323.738 130.842 324.836H130.788L130.662 323.252H129.438V332ZM138.954 332.216C141.024 332.216 142.158 331.028 142.158 329.606C142.158 327.95 140.754 327.428 139.494 326.96C138.504 326.582 137.55 326.276 137.55 325.448C137.55 324.782 138.054 324.188 139.152 324.188C139.926 324.188 140.556 324.512 141.15 324.962L141.852 324.026C141.186 323.486 140.232 323.036 139.134 323.036C137.244 323.036 136.128 324.116 136.128 325.52C136.128 326.996 137.496 327.59 138.738 328.04C139.692 328.4 140.736 328.796 140.736 329.696C140.736 330.452 140.16 331.064 139.008 331.064C137.964 331.064 137.19 330.632 136.434 330.02L135.696 331.01C136.524 331.694 137.712 332.216 138.954 332.216ZM148.815 332.216C150.003 332.216 150.939 331.802 151.695 331.316L151.173 330.344C150.525 330.758 149.823 331.028 148.995 331.028C147.321 331.028 146.187 329.84 146.079 327.986H151.983C152.019 327.77 152.037 327.446 152.037 327.14C152.037 324.638 150.777 323.036 148.545 323.036C146.547 323.036 144.621 324.782 144.621 327.644C144.621 330.506 146.475 332.216 148.815 332.216ZM146.061 326.924C146.241 325.196 147.357 324.206 148.581 324.206C149.949 324.206 150.741 325.16 150.741 326.924H146.061ZM157.237 332H158.965L162.061 323.252H160.603L158.947 328.22C158.695 329.084 158.407 329.966 158.155 330.794H158.083C157.813 329.966 157.525 329.084 157.273 328.22L155.617 323.252H154.087L157.237 332ZM168.285 332.216C169.473 332.216 170.409 331.802 171.165 331.316L170.643 330.344C169.995 330.758 169.293 331.028 168.465 331.028C166.791 331.028 165.657 329.84 165.549 327.986H171.453C171.489 327.77 171.507 327.446 171.507 327.14C171.507 324.638 170.247 323.036 168.015 323.036C166.017 323.036 164.091 324.782 164.091 327.644C164.091 330.506 165.945 332.216 168.285 332.216ZM165.531 326.924C165.711 325.196 166.827 324.206 168.051 324.206C169.419 324.206 170.211 325.16 170.211 326.924H165.531ZM174.729 332H176.205V326.384C176.799 324.908 177.681 324.368 178.419 324.368C178.779 324.368 178.977 324.422 179.265 324.512L179.553 323.216C179.265 323.09 178.995 323.036 178.617 323.036C177.627 323.036 176.727 323.738 176.133 324.836H176.079L175.953 323.252H174.729V332ZM183.605 332.216C184.703 332.216 185.675 331.64 186.503 330.956H186.557L186.683 332H187.907V326.636C187.907 324.458 187.007 323.036 184.865 323.036C183.461 323.036 182.237 323.648 181.427 324.17L182.003 325.196C182.687 324.728 183.605 324.26 184.613 324.26C186.053 324.26 186.413 325.34 186.413 326.456C182.687 326.87 181.049 327.824 181.049 329.732C181.049 331.298 182.147 332.216 183.605 332.216ZM184.037 331.028C183.173 331.028 182.489 330.614 182.489 329.624C182.489 328.508 183.497 327.788 186.413 327.428V329.858C185.567 330.614 184.883 331.028 184.037 331.028ZM191.72 332H193.196V325.664C194.078 324.782 194.69 324.314 195.59 324.314C196.742 324.314 197.246 325.016 197.246 326.654V332H198.722V326.456C198.722 324.224 197.894 323.036 196.058 323.036C194.852 323.036 193.952 323.684 193.124 324.512H193.07L192.944 323.252H191.72V332ZM206.079 332.216C207.123 332.216 208.113 331.802 208.905 331.1L208.257 330.11C207.717 330.596 207.015 330.992 206.205 330.992C204.603 330.992 203.505 329.642 203.505 327.644C203.505 325.628 204.657 324.26 206.241 324.26C206.943 324.26 207.483 324.584 207.987 325.034L208.743 324.062C208.131 323.504 207.339 323.036 206.187 323.036C203.937 323.036 201.975 324.71 201.975 327.644C201.975 330.542 203.757 332.216 206.079 332.216ZM215.052 332.216C216.24 332.216 217.176 331.802 217.932 331.316L217.41 330.344C216.762 330.758 216.06 331.028 215.232 331.028C213.558 331.028 212.424 329.84 212.316 327.986H218.22C218.256 327.77 218.274 327.446 218.274 327.14C218.274 324.638 217.014 323.036 214.782 323.036C212.784 323.036 210.858 324.782 210.858 327.644C210.858 330.506 212.712 332.216 215.052 332.216ZM212.298 326.924C212.478 325.196 213.594 324.206 214.818 324.206C216.186 324.206 216.978 325.16 216.978 326.924H212.298Z" fill="#787878"/>
<rect y="355" width="209" height="38" rx="19" fill="#E7E7E7"/>
<path d="M32.4536 381.216C33.9836 381.216 35.1356 380.586 36.0716 379.506L35.2436 378.57C34.4876 379.398 33.6416 379.902 32.5076 379.902C30.2756 379.902 28.8536 378.03 28.8536 375.06C28.8536 372.126 30.3296 370.29 32.5616 370.29C33.5696 370.29 34.3436 370.74 34.9736 371.406L35.7836 370.434C35.0996 369.66 33.9836 368.976 32.5436 368.976C29.5376 368.976 27.3056 371.298 27.3056 375.096C27.3056 378.948 29.5016 381.216 32.4536 381.216ZM41.569 381.216C42.775 381.216 43.639 380.586 44.449 379.632H44.503L44.629 381H45.853V372.252H44.377V378.462C43.549 379.488 42.919 379.938 42.019 379.938C40.867 379.938 40.381 379.236 40.381 377.598V372.252H38.887V377.796C38.887 380.028 39.715 381.216 41.569 381.216ZM52.6181 381.216C53.1581 381.216 53.7521 381.054 54.2381 380.892L53.9501 379.776C53.6621 379.884 53.2661 380.01 52.9601 380.01C51.9521 380.01 51.6101 379.398 51.6101 378.318V373.458H53.9681V372.252H51.6101V369.804H50.3681L50.1881 372.252L48.8201 372.342V373.458H50.1161V378.3C50.1161 380.028 50.7461 381.216 52.6181 381.216ZM59.4085 381.216C59.9485 381.216 60.5425 381.054 61.0285 380.892L60.7405 379.776C60.4525 379.884 60.0565 380.01 59.7505 380.01C58.7425 380.01 58.4005 379.398 58.4005 378.318V373.458H60.7585V372.252H58.4005V369.804H57.1585L56.9785 372.252L55.6105 372.342V373.458H56.9065V378.3C56.9065 380.028 57.5365 381.216 59.4085 381.216ZM63.7965 381H65.2725V372.252H63.7965V381ZM64.5525 370.452C65.1285 370.452 65.5785 370.056 65.5785 369.498C65.5785 368.922 65.1285 368.544 64.5525 368.544C63.9765 368.544 63.5265 368.922 63.5265 369.498C63.5265 370.056 63.9765 370.452 64.5525 370.452ZM69.2862 381H70.7622V374.664C71.6442 373.782 72.2562 373.314 73.1562 373.314C74.3082 373.314 74.8122 374.016 74.8122 375.654V381H76.2882V375.456C76.2882 373.224 75.4602 372.036 73.6242 372.036C72.4182 372.036 71.5182 372.684 70.6902 373.512H70.6362L70.5102 372.252H69.2862V381ZM83.142 385.032C85.86 385.032 87.57 383.628 87.57 382.008C87.57 380.55 86.544 379.92 84.51 379.92H82.818C81.63 379.92 81.27 379.524 81.27 378.966C81.27 378.48 81.522 378.192 81.828 377.922C82.224 378.12 82.71 378.228 83.142 378.228C84.924 378.228 86.346 377.058 86.346 375.186C86.346 374.448 86.04 373.782 85.626 373.386H87.426V372.252H84.384C84.06 372.126 83.628 372.036 83.142 372.036C81.36 372.036 79.848 373.242 79.848 375.15C79.848 376.194 80.406 377.04 80.982 377.508V377.58C80.532 377.886 80.028 378.462 80.028 379.2C80.028 379.884 80.37 380.352 80.802 380.622V380.694C80.01 381.234 79.524 381.936 79.524 382.674C79.524 384.186 81 385.032 83.142 385.032ZM83.142 377.238C82.134 377.238 81.288 376.428 81.288 375.15C81.288 373.872 82.116 373.116 83.142 373.116C84.168 373.116 84.996 373.872 84.996 375.15C84.996 376.428 84.15 377.238 83.142 377.238ZM83.358 384.006C81.774 384.006 80.82 383.412 80.82 382.476C80.82 381.972 81.09 381.45 81.72 381C82.098 381.108 82.512 381.144 82.854 381.144H84.366C85.5 381.144 86.13 381.414 86.13 382.224C86.13 383.142 85.032 384.006 83.358 384.006ZM89.5823 377.058H93.7223V375.924H89.5823V377.058ZM100.516 381.216C101.704 381.216 102.64 380.802 103.396 380.316L102.874 379.344C102.226 379.758 101.524 380.028 100.696 380.028C99.0221 380.028 97.8881 378.84 97.7801 376.986H103.684C103.72 376.77 103.738 376.446 103.738 376.14C103.738 373.638 102.478 372.036 100.246 372.036C98.2481 372.036 96.3221 373.782 96.3221 376.644C96.3221 379.506 98.1761 381.216 100.516 381.216ZM97.7621 375.924C97.9421 374.196 99.0581 373.206 100.282 373.206C101.65 373.206 102.442 374.16 102.442 375.924H97.7621ZM109.948 381.216C110.974 381.216 111.91 380.64 112.594 379.974H112.648L112.774 381H113.998V368.184H112.504V371.55L112.576 373.044C111.802 372.414 111.136 372.036 110.128 372.036C108.13 372.036 106.33 373.8 106.33 376.644C106.33 379.56 107.752 381.216 109.948 381.216ZM110.272 379.974C108.742 379.974 107.86 378.714 107.86 376.626C107.86 374.628 108.976 373.278 110.38 373.278C111.1 373.278 111.766 373.53 112.504 374.196V378.768C111.784 379.578 111.082 379.974 110.272 379.974ZM120.956 385.032C123.674 385.032 125.384 383.628 125.384 382.008C125.384 380.55 124.358 379.92 122.324 379.92H120.632C119.444 379.92 119.084 379.524 119.084 378.966C119.084 378.48 119.336 378.192 119.642 377.922C120.038 378.12 120.524 378.228 120.956 378.228C122.738 378.228 124.16 377.058 124.16 375.186C124.16 374.448 123.854 373.782 123.44 373.386H125.24V372.252H122.198C121.874 372.126 121.442 372.036 120.956 372.036C119.174 372.036 117.662 373.242 117.662 375.15C117.662 376.194 118.22 377.04 118.796 377.508V377.58C118.346 377.886 117.842 378.462 117.842 379.2C117.842 379.884 118.184 380.352 118.616 380.622V380.694C117.824 381.234 117.338 381.936 117.338 382.674C117.338 384.186 118.814 385.032 120.956 385.032ZM120.956 377.238C119.948 377.238 119.102 376.428 119.102 375.15C119.102 373.872 119.93 373.116 120.956 373.116C121.982 373.116 122.81 373.872 122.81 375.15C122.81 376.428 121.964 377.238 120.956 377.238ZM121.172 384.006C119.588 384.006 118.634 383.412 118.634 382.476C118.634 381.972 118.904 381.45 119.534 381C119.912 381.108 120.326 381.144 120.668 381.144H122.18C123.314 381.144 123.944 381.414 123.944 382.224C123.944 383.142 122.846 384.006 121.172 384.006ZM131.434 381.216C132.622 381.216 133.558 380.802 134.314 380.316L133.792 379.344C133.144 379.758 132.442 380.028 131.614 380.028C129.94 380.028 128.806 378.84 128.698 376.986H134.602C134.638 376.77 134.656 376.446 134.656 376.14C134.656 373.638 133.396 372.036 131.164 372.036C129.166 372.036 127.24 373.782 127.24 376.644C127.24 379.506 129.094 381.216 131.434 381.216ZM128.68 375.924C128.86 374.196 129.976 373.206 131.2 373.206C132.568 373.206 133.36 374.16 133.36 375.924H128.68ZM145.134 381H146.646V370.452H150.21V369.192H141.57V370.452H145.134V381ZM155.603 381.216C156.791 381.216 157.727 380.802 158.483 380.316L157.961 379.344C157.313 379.758 156.611 380.028 155.783 380.028C154.109 380.028 152.975 378.84 152.867 376.986H158.771C158.807 376.77 158.825 376.446 158.825 376.14C158.825 373.638 157.565 372.036 155.333 372.036C153.335 372.036 151.409 373.782 151.409 376.644C151.409 379.506 153.263 381.216 155.603 381.216ZM152.849 375.924C153.029 374.196 154.145 373.206 155.369 373.206C156.737 373.206 157.529 374.16 157.529 375.924H152.849ZM165.502 381.216C166.546 381.216 167.536 380.802 168.328 380.1L167.68 379.11C167.14 379.596 166.438 379.992 165.628 379.992C164.026 379.992 162.928 378.642 162.928 376.644C162.928 374.628 164.08 373.26 165.664 373.26C166.366 373.26 166.906 373.584 167.41 374.034L168.166 373.062C167.554 372.504 166.762 372.036 165.61 372.036C163.36 372.036 161.398 373.71 161.398 376.644C161.398 379.542 163.18 381.216 165.502 381.216ZM171.315 381H172.791V374.664C173.673 373.782 174.285 373.314 175.185 373.314C176.337 373.314 176.841 374.016 176.841 375.654V381H178.317V375.456C178.317 373.224 177.489 372.036 175.653 372.036C174.447 372.036 173.565 372.684 172.737 373.476L172.791 371.676V368.184H171.315V381Z" fill="#787878"/>
<path d="M30.7315 412.288C31.4995 412.288 32.1475 411.664 32.1475 410.8C32.1475 409.888 31.4995 409.264 30.7315 409.264C29.9395 409.264 29.2915 409.888 29.2915 410.8C29.2915 411.664 29.9395 412.288 30.7315 412.288ZM38.7715 412.288C39.5395 412.288 40.1875 411.664 40.1875 410.8C40.1875 409.888 39.5395 409.264 38.7715 409.264C37.9795 409.264 37.3315 409.888 37.3315 410.8C37.3315 411.664 37.9795 412.288 38.7715 412.288ZM46.8115 412.288C47.5795 412.288 48.2275 411.664 48.2275 410.8C48.2275 409.888 47.5795 409.264 46.8115 409.264C46.0195 409.264 45.3715 409.888 45.3715 410.8C45.3715 411.664 46.0195 412.288 46.8115 412.288ZM54.9027 412.288C55.6707 412.288 56.3187 411.664 56.3187 410.8C56.3187 409.888 55.6707 409.264 54.9027 409.264C54.1107 409.264 53.4627 409.888 53.4627 410.8C53.4627 411.664 54.1107 412.288 54.9027 412.288ZM62.9427 412.288C63.7107 412.288 64.3587 411.664 64.3587 410.8C64.3587 409.888 63.7107 409.264 62.9427 409.264C62.1507 409.264 61.5027 409.888 61.5027 410.8C61.5027 411.664 62.1507 412.288 62.9427 412.288ZM70.9827 412.288C71.7507 412.288 72.3987 411.664 72.3987 410.8C72.3987 409.888 71.7507 409.264 70.9827 409.264C70.1907 409.264 69.5427 409.888 69.5427 410.8C69.5427 411.664 70.1907 412.288 70.9827 412.288Z" fill="#787878"/>
</svg>
