<svg width="103" height="98" viewBox="0 0 103 98" fill="none" xmlns="http://www.w3.org/2000/svg">
<path fill-rule="evenodd" clip-rule="evenodd" d="M30.5394 21.4909C31.6655 21.9461 32.9491 22.0504 34.3413 21.6983C40.0881 20.2446 38.9136 13.5336 37.6304 9.88726C36.3472 6.2409 27.503 3.48721 26.1002 10.1574C25.4998 13.0128 25.8705 15.8048 26.9418 17.9504L23.2152 28.3556L30.5081 29.3806L30.5394 21.4909Z" fill="#E7C1A9"/>
<path fill-rule="evenodd" clip-rule="evenodd" d="M36.8909 8.7581C36.789 9.72279 34.3075 10.2662 31.2185 10.0446C31.2775 10.5492 31.269 11.1119 31.1812 11.7368C31.1036 12.2885 30.9614 12.8653 30.7676 13.4439C30.5312 13.0602 30.1822 12.7825 29.796 12.7282C28.7155 12.5763 27.8365 13.3736 27.7017 14.3324C27.5307 15.5492 28.0984 16.5267 29.098 16.739C27.9398 18.3838 26.495 19.542 25.239 19.3655C22.8534 19.0302 21.6125 15.5515 22.1021 12.0676C22.1193 11.9452 22.1388 11.8239 22.1605 11.7039C21.2738 12.1534 20.4217 12.7863 19.5635 13.4236C17.74 14.778 15.8888 16.1529 13.6182 15.8338C9.07535 15.1953 8.57946 5.63289 14.9265 6.52491C19.243 7.13155 21.2764 8.06931 22.9733 9.27193C23.4795 8.28903 24.1519 7.49734 24.9101 6.98504C25.098 6.82266 25.3711 6.6804 25.7144 6.56119C25.9254 6.4799 26.1405 6.41975 26.358 6.38232C27.5195 6.12542 29.1587 6.05947 30.9531 6.24706C34.3416 6.6013 37 7.72553 36.8909 8.7581Z" fill="#191847"/>
<path fill-rule="evenodd" clip-rule="evenodd" d="M14.5357 64.8077C14.5357 64.8077 22.2309 66.8858 27.814 66.8858C33.3971 66.8858 38.1857 63.6855 38.1857 63.6855C38.1857 63.6855 30.6553 61.5525 25.7825 61.5525C20.9097 61.5525 14.5357 64.8077 14.5357 64.8077Z" fill="#AF9A08"/>
<path fill-rule="evenodd" clip-rule="evenodd" d="M33.8441 81.3938C33.795 81.3313 33.7535 81.2633 33.7206 81.1897C33.0399 79.6659 26.6604 65.3225 25.5742 62.3171L33.3259 60.2222C34.1518 62.5072 38.3698 76.9892 38.639 79.2978C38.9083 81.6065 40.3088 92.6618 40.7427 93.6743C41.1991 94.7394 38.8463 95.5464 38.162 94.2369C37.0731 92.1533 37.6639 93.6236 36.2409 89.345C34.8179 85.0664 34.2761 83.0757 33.8441 81.3938Z" fill="#DEB092"/>
<path fill-rule="evenodd" clip-rule="evenodd" d="M9.64348 88.9662C8.44625 89.3201 7.3965 86.7655 8.87635 86.2121C11.231 85.3316 18.713 79.6697 19.4968 79.1928C20.2805 78.7159 20.1125 78.2716 20.1125 76.8635C19.9483 71.2268 20.2602 63.1438 20.7522 60.2222H29.1073C28.6354 63.0238 25.9267 76.6697 25.1853 78.7159C24.95 79.4464 24.5275 81.4311 24.0618 81.957C23.596 82.4829 10.8073 88.6222 9.64348 88.9662Z" fill="#E7C1A9"/>
<path fill-rule="evenodd" clip-rule="evenodd" d="M9.38509 87.0362C9.22443 86.125 8.8661 85.089 7.94254 85.1436C7.88692 85.1469 7.83544 85.1525 7.78933 85.1606C7.23816 85.2578 6.21227 85.6232 6.21227 85.6232C6.32212 86.2461 8.18676 96.821 8.18676 96.821C8.18676 96.821 9.74476 96.9963 9.69702 96.0351C9.64929 95.0739 9.63478 94.4351 9.63478 94.4351L10.8869 89.6234C11.0306 89.071 10.6836 88.5106 10.125 88.393L10.0515 88.3775C10.0515 88.3775 9.48106 87.5805 9.38509 87.0362Z" fill="#E4E4E4"/>
<path fill-rule="evenodd" clip-rule="evenodd" d="M38.8558 93.213C37.9315 93.213 36.853 93.3852 36.7427 94.3029C36.7355 94.3623 36.7316 94.4177 36.7316 94.4676C36.7316 95.0312 36.9133 96.1125 36.9133 96.1125C37.5459 96.1125 48.2839 96.1125 48.2839 96.1125C48.2839 96.1125 48.7271 94.598 47.7722 94.4773C46.8173 94.3565 46.1856 94.2592 46.1856 94.2592L41.6682 92.1778C41.148 91.938 40.5331 92.1835 40.3209 92.7155L40.2925 92.7867C40.2925 92.7867 39.4085 93.213 38.8558 93.213Z" fill="#E4E4E4"/>
<path fill-rule="evenodd" clip-rule="evenodd" d="M18.6822 43.1238C18.6822 43.1238 25.9307 40.9719 32.399 43.1238C33.8992 50.2263 37.5447 53.0453 38.1857 63.9347C30.8987 67.6916 21.8971 61.2552 14.3957 64.919C12.2525 59.7943 15.253 47.4525 18.6822 43.1238Z" fill="#ECDD73"/>
<path fill-rule="evenodd" clip-rule="evenodd" d="M43.3289 52.6333L37.8743 44.9961L35.011 48.4237L41.1527 53.7018C42.3919 56.7308 43.1943 58.0867 43.56 57.7694C43.8683 57.5018 43.8125 57.1392 43.7612 56.8051C43.7212 56.5449 43.6839 56.3021 43.8234 56.1351C44.142 55.7537 45.4762 56.2395 46.7227 56.7551C47.9691 57.2706 47.782 56.5767 47.5653 56.1935C46.515 54.9821 45.1029 53.7953 43.3289 52.6333ZM7.60539 55.2559C8.53333 53.9835 13.2506 40.8188 13.2506 40.8188L18.1131 41.696C18.1131 41.696 11.0254 55.5387 10.5083 56.371C9.83654 57.4522 10.3311 59.2823 10.6664 60.5233C10.7183 60.7153 10.7664 60.8932 10.8057 61.052C10.0008 61.2563 9.71411 60.7873 9.41188 60.2929C9.07052 59.7344 8.70932 59.1435 7.55909 59.4535C7.11471 59.5733 6.6862 59.732 6.26755 59.887C4.82144 60.4225 3.49297 60.9144 2.03403 59.6085C1.80274 59.4015 1.62517 58.7442 2.39649 58.3911C4.31813 57.5112 7.15175 55.878 7.60539 55.2559Z" fill="#E7C1A9"/>
<path fill-rule="evenodd" clip-rule="evenodd" d="M28.3805 23.9532L30.1967 23.9493C31.6624 31.1291 34.911 38.0667 40.4634 44.7341L34.5278 49.9722C29.3692 40.9832 26.7378 32.2033 28.3805 23.9532Z" fill="#191847"/>
<path fill-rule="evenodd" clip-rule="evenodd" d="M17.6825 42.2735L31.992 44.8395C31.992 44.8395 28.3777 32.1118 29.815 23.9357L26.0719 22.6244C21.9098 27.3306 19.854 33.6676 17.6825 42.2735Z" fill="#DDE3E9"/>
<path fill-rule="evenodd" clip-rule="evenodd" d="M10.4793 47.0837C14.9055 30.3015 25.7266 22.4481 25.7266 22.4481L25.9225 22.6919C25.9276 22.6857 25.9326 22.6794 25.9376 22.6732L26.2067 22.7219C26.6869 22.826 27.6678 23.0485 27.6678 23.0485L28.1692 26.1075C27.4222 31.4012 26.3674 47.6624 26.3674 47.6624L17.4207 46.0449C17.3102 46.7792 17.2163 47.5272 17.1414 48.2881L10.4793 47.0837Z" fill="#2F3676"/>
<path fill-rule="evenodd" clip-rule="evenodd" d="M14.7475 52.7395C15.3967 48.4933 16.4746 44.589 17.7385 41.1066C17.3162 45.4288 17.1004 50.6813 18.1163 53.3335L14.7475 52.7395Z" fill="black" fill-opacity="0.1"/>
<path fill-rule="evenodd" clip-rule="evenodd" d="M77.8385 19.7423C76.3345 20.4586 74.5747 20.5285 72.6796 19.6388C67.034 16.9883 69.9667 11.4286 71.7214 8.10197C71.813 7.9284 71.9013 7.7609 71.9851 7.60022C73.6741 4.35996 82.357 2.94765 82.7946 9.36763C82.9667 11.892 82.358 14.4505 81.1947 16.4563L83.3415 26.4601L77.5309 26.8426L77.8385 19.7423Z" fill="#E7C1A9"/>
<path fill-rule="evenodd" clip-rule="evenodd" d="M69.4019 3.30493C69.5414 2.78761 69.9166 2.34468 70.4222 2.21327C70.5448 2.1814 70.6714 2.16852 70.7976 2.17389C70.8428 2.1758 70.8555 2.18957 70.8767 2.15617C70.8923 2.13142 70.8927 2.07094 70.8991 2.04184C70.9192 1.95137 70.9444 1.86203 70.9754 1.77501C71.0812 1.47818 71.2589 1.21549 71.4733 0.994194C71.8741 0.580199 72.4158 0.294478 72.9785 0.242787C73.2865 0.21451 73.5923 0.26731 73.8835 0.373026C74.0342 0.427751 74.1804 0.495894 74.3228 0.571233C74.3656 0.593909 74.5047 0.704973 74.5477 0.697777C74.5952 0.689843 74.6907 0.565263 74.7293 0.533992C75.2069 0.147436 75.7965 -0.00454473 76.3913 0.000103191C77.0626 0.00533453 77.709 0.0407287 78.2689 0.472538C78.3875 0.56396 78.5003 0.664056 78.6078 0.769441C78.6644 0.824924 78.7192 0.882488 78.7715 0.942445C78.8031 0.978617 78.8338 1.01561 78.8633 1.05359C78.9135 1.11805 78.9055 1.13923 78.9757 1.09425C79.2452 0.921519 79.5574 0.840735 79.8719 0.881516C80.0587 0.905747 80.2404 0.964906 80.4129 1.04277C80.4716 1.06928 80.6076 1.17502 80.6702 1.17605C80.7323 1.17706 80.8664 1.07904 80.9304 1.05413C81.2759 0.919536 81.6484 0.886358 82.0116 0.948551C82.3862 1.01273 82.7543 1.17045 83.0717 1.38839C83.2244 1.49323 83.3576 1.60939 83.4646 1.76528C83.5108 1.83259 83.5525 1.90379 83.6049 1.96619C83.6355 2.00273 83.6962 2.04023 83.7127 2.08647C83.7028 2.05878 84.1224 1.88811 84.162 1.8772C84.373 1.81907 84.5877 1.83086 84.7943 1.90258C85.1827 2.03745 85.5167 2.33989 85.7912 2.64998C85.9322 2.80926 86.0556 2.98531 86.1604 3.17288C86.2106 3.26273 86.2565 3.35514 86.2985 3.44952C86.3188 3.49524 86.3323 3.55244 86.3591 3.59363C86.3937 3.6467 86.4169 3.64771 86.4795 3.67085C86.7973 3.78835 87.0871 3.98724 87.3078 4.25598C87.531 4.52788 87.6758 4.8627 87.7365 5.2153C87.7401 5.23607 87.7422 5.32215 87.7538 5.33339C87.7696 5.34887 87.8335 5.34202 87.8577 5.34502C87.9414 5.35538 88.0246 5.3708 88.1066 5.3913C88.2578 5.42907 88.405 5.48465 88.5443 5.55734C89.0871 5.84071 89.4752 6.37195 89.6652 6.96973C89.8645 7.59706 89.861 8.31578 89.6227 8.9314C89.5843 9.03084 89.5385 9.12735 89.4847 9.21866C89.4517 9.27471 89.441 9.27484 89.4625 9.33365C89.4864 9.39907 89.53 9.46264 89.5584 9.52657C89.651 9.73518 89.7157 9.95643 89.7566 10.1824C89.8237 10.5531 89.857 10.9426 89.7908 11.3162C89.76 11.4896 89.7065 11.6591 89.6248 11.8136C89.5832 11.8924 89.5344 11.9671 89.4794 12.0362C89.4509 12.072 89.4205 12.1063 89.3888 12.1391C89.3706 12.1579 89.3468 12.1743 89.3314 12.1952C89.2937 12.2463 89.2858 12.2043 89.3052 12.2793C89.3324 12.3841 89.394 12.4876 89.4317 12.5896C89.4705 12.6947 89.5057 12.8013 89.5378 12.9089C89.6028 13.1269 89.6578 13.3487 89.6922 13.5744C89.7583 14.0077 89.7467 14.4694 89.5524 14.8671C89.4694 15.0372 89.3502 15.1864 89.2057 15.3025C89.135 15.3593 89.0584 15.4082 88.978 15.4484C88.9367 15.4691 88.884 15.478 88.8651 15.5201C88.8449 15.5655 88.875 15.6554 88.8818 15.7061C88.9415 16.1468 88.9715 16.6096 88.8473 17.0414C88.733 17.4392 88.4812 17.7905 88.1543 18.023C87.5201 18.4741 86.6653 18.4486 85.9989 18.0875C85.8252 17.9934 85.6627 17.8765 85.5178 17.7386C85.1486 18.2629 84.3891 18.2463 83.8496 18.0969C83.1775 17.9108 82.6381 17.4177 82.3274 16.7698C81.9025 17.3155 81.0108 17.1385 80.7162 16.5464C80.6441 16.4015 80.6013 16.2418 80.5802 16.0802C80.5692 15.9952 80.5762 15.9095 80.5679 15.8252C80.5573 15.7178 80.4893 15.6134 80.4502 15.5095C80.374 15.3072 80.3268 15.0983 80.3247 14.8801C80.3237 14.7662 80.3374 14.6552 80.3476 14.5422C80.3569 14.4405 80.3301 14.3457 80.3149 14.2454C80.4873 14.2753 80.6973 14.2263 80.8597 14.1735C81.0191 14.1218 81.1684 13.9855 81.2809 13.861C81.542 13.5719 81.7016 13.193 81.8107 12.8158C82.0503 11.9881 81.9521 10.995 81.163 10.5407C80.7954 10.329 79.6942 10.3297 79.2564 10.4343C78.796 10.5443 78.2741 11.6161 78.2485 11.7168C78.2326 11.7792 78.2406 11.8563 78.1863 11.8979C78.067 11.9892 77.8702 11.8307 77.7822 11.7525C77.6304 11.6174 77.5221 11.4378 77.4283 11.2557C77.2239 10.8589 77.0591 10.4335 76.9427 9.99918C76.853 9.66433 76.7956 9.31905 76.6783 8.99274C76.5616 8.66805 76.3777 8.37783 76.0916 8.1939C75.7804 7.99381 75.4237 7.88842 75.0821 7.76267C74.7435 7.63805 74.4108 7.48574 74.1483 7.22132C74.0906 7.16317 74.0345 7.10139 73.988 7.03293C73.9514 6.97889 73.9151 6.87543 73.8593 6.84116C73.7724 6.78786 73.6456 6.92648 73.5705 6.97681C73.1999 7.22515 72.8907 7.57151 72.6414 7.94987C72.3934 8.32618 72.1899 8.68827 72.0246 9.10847C71.9019 9.42011 71.8254 9.81923 71.6097 10.0746C71.5134 10.1887 70.7976 10.2577 70.5657 10.1581C70.3338 10.0585 70.074 9.80002 69.9962 9.638C69.9165 9.47217 69.8975 9.29001 69.9315 9.10847C69.9515 9.00167 69.9924 8.9019 70.0148 8.797C70.0336 8.70889 70.0507 8.62559 70.0914 8.54487C70.1684 8.39189 70.3 8.28194 70.4587 8.23596C70.2936 8.07527 70.1567 7.88303 70.062 7.66814C69.9636 7.44488 69.8802 7.17338 69.8565 6.92834C69.8373 6.72932 69.867 6.52312 69.9702 6.35208C70.0785 6.17266 70.2704 6.0556 70.4365 5.94368C70.1828 5.73431 69.9658 5.47969 69.7873 5.19778C69.4403 4.64956 69.2257 3.95852 69.4019 3.30493Z" fill="#191847"/>
<path fill-rule="evenodd" clip-rule="evenodd" d="M85.4375 44L77.5061 71.579L73.7756 92.2857H70.0312L73.7689 44H85.4375Z" fill="#E7C1A9"/>
<path fill-rule="evenodd" clip-rule="evenodd" d="M89.0821 44C88.5309 58.1986 88.7483 65.943 88.8717 67.233C88.995 68.523 89.6955 77.1626 94.4688 92.2857H90.5893C84.268 77.7777 82.0612 69.1381 81.3362 67.233C80.6112 65.3279 78.4699 57.5836 75.3438 44H89.0821Z" fill="#E7C1A9"/>
<path fill-rule="evenodd" clip-rule="evenodd" d="M85.4375 44C83.3453 52.6427 81.0158 66.6907 75.8709 85.6398L69.0281 85.3878C68.6179 65.9383 70.3629 53.1372 73.3848 44H85.4375Z" fill="#CDCDCD"/>
<path fill-rule="evenodd" clip-rule="evenodd" d="M89.1721 44C88.6214 57.1507 90.0484 70.1066 94.4688 85.9184L86.4591 86.5886C80.0005 73.3519 77.4449 59.7897 74.2812 44H89.1721Z" fill="#E8E8E8"/>
<path fill-rule="evenodd" clip-rule="evenodd" d="M95 95.3634L94.8627 93.2059C94.8222 92.5693 94.1952 92.1203 93.5574 92.1311C91.8556 92.1601 90.0303 91.543 90.0303 91.543C87.9222 92.9986 85.0649 93.8204 83.3365 94.2154C82.5385 94.3977 82.0229 95.2141 82.2515 96.0001H90.0303H94.5678L95 95.3634Z" fill="#191847"/>
<path fill-rule="evenodd" clip-rule="evenodd" d="M74.2812 95.3634L74.144 93.2059C74.1035 92.5693 73.4764 92.1203 72.8386 92.1311C71.1369 92.1601 69.3115 91.543 69.3115 91.543C67.2034 92.9986 64.3461 93.8204 62.6177 94.2154C61.8197 94.3977 61.3042 95.2141 61.5328 96.0001H69.3115H73.8491L74.2812 95.3634Z" fill="#191847"/>
<path fill-rule="evenodd" clip-rule="evenodd" d="M98.3659 55.7443C97.7264 54.4557 94.5313 37.8718 94.5313 37.8718L89.7527 37.8896C89.7527 37.8896 95.212 55.457 95.5486 56.2856C95.9859 57.362 95.2431 58.9259 94.7394 59.9864C94.6614 60.1504 94.5892 60.3025 94.528 60.4387C95.2269 60.7494 95.5627 60.3739 95.9166 59.9781C96.3164 59.531 96.7394 59.058 97.7352 59.5181C98.12 59.6959 98.484 59.906 98.8397 60.1114C100.068 60.8207 101.197 61.4723 102.732 60.5313C102.976 60.3822 103.243 59.8205 102.598 59.3816C100.992 58.2881 98.6786 56.3742 98.3659 55.7443ZM58.7988 45.5555L64.9808 39.5658L67.034 43.0944L60.6056 46.8586C58.9938 49.3805 58.0471 50.4701 57.7656 50.1276C57.5283 49.8387 57.637 49.5221 57.7372 49.2305C57.8153 49.0034 57.8881 48.7913 57.7881 48.6194C57.5596 48.2268 56.269 48.4516 55.0534 48.717C53.8378 48.9824 54.1191 48.3894 54.3775 48.0798C55.5263 47.159 57.0001 46.3175 58.7988 45.5555Z" fill="#E7C1A9"/>
<path fill-rule="evenodd" clip-rule="evenodd" d="M80.3441 21.8647L76.7655 22.7859C74.0986 32.1285 63.0293 37.159 62.0073 40.5768C61.1746 43.3614 62.0622 42.7085 61.5817 43.0986L63.7822 44.695C64.1548 44.2641 66.5196 44.4063 68.3865 43.7893C70.2534 43.1724 80.3441 32.9271 80.3441 21.8647Z" fill="#15765F"/>
<path fill-rule="evenodd" clip-rule="evenodd" d="M82.0375 20.0874C83.1439 20.0107 84.1034 20.8446 84.1816 21.9509C84.1854 22.0054 84.1871 22.0595 84.1866 22.1132C87.3756 24.5044 95.2538 31.6304 97.3081 44.8858C97.5241 46.2795 97.1335 47.026 96.8214 47.6224C96.6079 48.0304 96.4312 48.3682 96.5105 48.7949L93.6329 49.5682C93.6329 49.2531 93.2702 49.0134 92.8023 48.7042C92.122 48.2546 91.2191 47.6579 90.8853 46.4685C90.6814 45.7422 90.4166 44.8992 90.1059 43.9725C89.888 45.5605 89.2426 46.721 88.0162 47.2009C82.9844 49.1699 74.5096 47.4123 72.5203 44.1892C71.3059 42.2214 72.1471 39.3575 73.7479 33.9079C74.5585 31.1481 75.564 27.7252 76.5959 23.4196C76.4294 23.1513 76.3239 22.8397 76.3001 22.5028C76.2217 21.3944 77.0576 20.4327 78.1661 20.3559L82.0375 20.0874Z" fill="#189779"/>
</svg>
