<svg width="495" height="272" viewBox="0 0 495 272" fill="none" xmlns="http://www.w3.org/2000/svg">
<g filter="url(#filter0_i)">
<rect x="8" y="73.7251" width="120" height="84.2748" rx="42.1374" fill="#FF5949"/>
</g>
<path d="M42.5455 43.4961C42.5455 43.4961 44.252 44.4341 48.9091 53.5724C53.5662 62.7108 54.3637 73.7251 54.3637 73.7251" stroke="#FF5949" stroke-width="3"/>
<path fill-rule="evenodd" clip-rule="evenodd" d="M42.5454 48.9924C45.5579 48.9924 48 46.5316 48 43.4962C48 40.4607 45.5579 38 42.5454 38C39.533 38 37.0909 40.4607 37.0909 43.4962C37.0909 46.5316 39.533 48.9924 42.5454 48.9924Z" fill="black" stroke="black"/>
<path fill-rule="evenodd" clip-rule="evenodd" d="M40.7273 43.4961C41.2293 43.4961 41.6364 43.086 41.6364 42.5801C41.6364 42.0742 41.2293 41.6641 40.7273 41.6641C40.2252 41.6641 39.8182 42.0742 39.8182 42.5801C39.8182 43.086 40.2252 43.4961 40.7273 43.4961Z" fill="white"/>
<g filter="url(#filter1_d)">
<rect x="38.9091" y="96.626" width="73.6364" height="28.3969" rx="14.1985" fill="#F2C730"/>
</g>
<path fill-rule="evenodd" clip-rule="evenodd" d="M62.5455 116.779C65.558 116.779 68 114.318 68 111.283C68 108.247 65.558 105.786 62.5455 105.786C59.533 105.786 57.0909 108.247 57.0909 111.283C57.0909 114.318 59.533 116.779 62.5455 116.779Z" fill="black"/>
<path fill-rule="evenodd" clip-rule="evenodd" d="M95.2728 116.779C98.2852 116.779 100.727 114.318 100.727 111.283C100.727 108.247 98.2852 105.786 95.2728 105.786C92.2603 105.786 89.8182 108.247 89.8182 111.283C89.8182 114.318 92.2603 116.779 95.2728 116.779Z" fill="black"/>
<path fill-rule="evenodd" clip-rule="evenodd" d="M63.4546 112.199C64.4587 112.199 65.2728 111.378 65.2728 110.366C65.2728 109.355 64.4587 108.534 63.4546 108.534C62.4504 108.534 61.6364 109.355 61.6364 110.366C61.6364 111.378 62.4504 112.199 63.4546 112.199Z" fill="white"/>
<path fill-rule="evenodd" clip-rule="evenodd" d="M96.1818 112.199C97.186 112.199 98 111.378 98 110.366C98 109.355 97.186 108.534 96.1818 108.534C95.1777 108.534 94.3636 109.355 94.3636 110.366C94.3636 111.378 95.1777 112.199 96.1818 112.199Z" fill="white"/>
<rect opacity="0.299083" x="33.4545" y="130.519" width="10.9091" height="5.49618" rx="2.74809" fill="white"/>
<rect opacity="0.299083" x="107.091" y="130.519" width="10.9091" height="5.49618" rx="2.74809" fill="white"/>
<path fill-rule="evenodd" clip-rule="evenodd" d="M114.496 192.047C115.741 189.891 118.499 189.152 120.655 190.397L142.517 203.019C144.673 204.264 145.412 207.021 144.167 209.178C142.922 211.334 140.164 212.073 138.008 210.828L116.147 198.206C113.99 196.961 113.251 194.204 114.496 192.047Z" fill="#FF8A7F"/>
<path fill-rule="evenodd" clip-rule="evenodd" d="M171.694 175.895C173.461 177.66 173.461 180.524 171.694 182.29L144.221 209.728C142.457 211.49 139.599 211.49 137.834 209.728C136.067 207.962 136.067 205.098 137.834 203.332L165.306 175.895C167.071 174.132 169.929 174.132 171.694 175.895Z" fill="#FF8A7F"/>
<path fill-rule="evenodd" clip-rule="evenodd" d="M166.106 170.525C165.818 169.456 166.453 168.357 167.522 168.072L175.596 165.92C176.662 165.635 177.756 166.267 178.043 167.332L180.216 175.401C180.504 176.47 179.869 177.569 178.8 177.854L170.725 180.007C169.66 180.291 168.565 179.659 168.279 178.594L166.106 170.525Z" fill="black"/>
<path d="M122.994 196.953C124.695 194.008 123.676 190.249 120.736 188.552C117.797 186.855 114.032 187.852 112.331 190.797C110.631 193.742 111.65 197.502 114.589 199.199C117.529 200.896 121.294 199.899 122.994 196.953Z" fill="black" stroke="#E87F76" stroke-width="5"/>
<path d="M144.96 209.923C146.383 207.458 145.531 204.31 143.068 202.888C140.605 201.466 137.452 202.302 136.029 204.767C134.606 207.232 135.458 210.381 137.921 211.803C140.384 213.225 143.537 212.388 144.96 209.923Z" fill="#8F2218" stroke="#E87F76" stroke-width="3"/>
<path d="M173.707 180.763C174.992 178.539 174.223 175.695 171.998 174.411C169.773 173.126 166.927 173.882 165.642 176.107C164.358 178.332 165.126 181.175 167.351 182.46C169.576 183.744 172.423 182.988 173.707 180.763Z" fill="#8F2218" stroke="#E87F76" stroke-width="2"/>
<rect x="48.6607" y="233" width="88.3393" height="39" rx="19.5" fill="#252525"/>
<rect x="39" y="237" width="80.3393" height="31" rx="15.5" fill="#848484" stroke="black" stroke-width="8"/>
<path d="M47.5179 252.5C47.5179 248.12 51.0684 244.57 55.4481 244.57H102.973C107.353 244.57 110.903 248.12 110.903 252.5C110.903 256.88 107.353 260.43 102.973 260.43H55.4481C51.0684 260.43 47.5179 256.88 47.5179 252.5Z" fill="black" stroke="#252525" stroke-width="5"/>
<rect x="54.125" y="251.14" width="50.0893" height="2.72093" rx="1.36047" fill="#848484"/>
<path fill-rule="evenodd" clip-rule="evenodd" d="M6 193C6 175.327 20.3269 161 38 161H83.3333C101.006 161 115.333 175.327 115.333 193V220C115.333 237.673 101.006 252 83.3333 252H38C20.3269 252 6 237.673 6 220V193Z" fill="#DF4A3C"/>
<rect x="31.5111" y="161" width="97.4889" height="91" rx="19" fill="#FF5949"/>
<g filter="url(#filter2_d)">
<rect x="57.9333" y="185.57" width="48.2889" height="24.57" rx="8" fill="black"/>
</g>
<g filter="url(#filter3_d)">
<path fill-rule="evenodd" clip-rule="evenodd" d="M82.5334 203.77C85.5525 203.77 88 201.325 88 198.31C88 195.295 85.5525 192.85 82.5334 192.85C79.5142 192.85 77.0667 195.295 77.0667 198.31C77.0667 201.325 79.5142 203.77 82.5334 203.77Z" fill="#17EA29"/>
</g>
<path fill-rule="evenodd" clip-rule="evenodd" d="M18.794 183C21.2768 183 23.2895 185.013 23.2895 187.495L23.2895 212.579C23.2895 215.061 21.2768 217.074 18.794 217.074C16.3113 217.074 14.2986 215.061 14.2986 212.579L14.2986 187.495C14.2986 185.013 16.3113 183 18.794 183Z" fill="#FF8A7F"/>
<path fill-rule="evenodd" clip-rule="evenodd" d="M61.255 224.238C60.6124 226.636 58.1474 228.059 55.7492 227.417L18.3423 217.394C15.9441 216.751 14.5209 214.286 15.1635 211.888C15.8061 209.49 18.2711 208.066 20.6693 208.709L58.0762 218.732C60.4744 219.375 61.8976 221.84 61.255 224.238Z" fill="#FF8A7F"/>
<path fill-rule="evenodd" clip-rule="evenodd" d="M63.105 216.751C63.886 215.97 65.1523 215.97 65.9334 216.751L71.8059 222.624C72.587 223.405 72.587 224.671 71.8059 225.452L65.9334 231.325C65.1523 232.106 63.886 232.106 63.105 231.325L57.2324 225.452C56.4514 224.671 56.4514 223.405 57.2324 222.624L63.105 216.751Z" fill="black"/>
<path d="M18.794 192.773C22.183 192.773 24.9304 190.025 24.9304 186.636C24.9304 183.247 22.183 180.5 18.794 180.5C15.405 180.5 12.6577 183.247 12.6577 186.636C12.6577 190.025 15.405 192.773 18.794 192.773Z" fill="#8F2218" stroke="#E87F76" stroke-width="5"/>
<path d="M18.5455 218.136C21.3822 218.136 23.6818 215.837 23.6818 213C23.6818 210.163 21.3822 207.864 18.5455 207.864C15.7087 207.864 13.4091 210.163 13.4091 213C13.4091 215.837 15.7087 218.136 18.5455 218.136Z" fill="#8F2218" stroke="#E87F76" stroke-width="3"/>
<path d="M58.0562 228.393C60.6168 228.393 62.6926 226.318 62.6926 223.757C62.6926 221.196 60.6168 219.121 58.0562 219.121C55.4956 219.121 53.4199 221.196 53.4199 223.757C53.4199 226.318 55.4956 228.393 58.0562 228.393Z" fill="#8F2218" stroke="#E87F76" stroke-width="2"/>
<rect x="13.6607" y="233" width="88.3393" height="39" rx="19.5" fill="#252525"/>
<rect x="4" y="237" width="80.3393" height="31" rx="15.5" fill="#848484" stroke="black" stroke-width="8"/>
<path d="M12.5179 252.5C12.5179 248.12 16.0684 244.57 20.4481 244.57H67.9732C72.3529 244.57 75.9034 248.12 75.9034 252.5C75.9034 256.88 72.3529 260.43 67.9732 260.43H20.4481C16.0684 260.43 12.5179 256.88 12.5179 252.5Z" fill="black" stroke="#252525" stroke-width="5"/>
<rect x="19.125" y="251.14" width="50.0893" height="2.72093" rx="1.36047" fill="#848484"/>
<g filter="url(#filter4_d)">
<path fill-rule="evenodd" clip-rule="evenodd" d="M495 15C495 6.71573 488.284 0 480 0L165 0C156.716 0 150 6.71573 150 15V98C150 106.284 156.716 113 165 113H176.858L174 134L195.468 113H480C488.284 113 495 106.284 495 98L495 15Z" fill="#3826B0" fill-opacity="0.0585118"/>
</g>
<path d="M195.902 33.6909H198.927L197.789 39.5254H201.572L202.7 33.6909H205.725L202.741 49H199.716L201.039 42.1914H197.266L195.943 49H192.918L195.902 33.6909ZM208.822 37.5156H214.769L212.985 46.6929H216.717L216.276 49H205.797L206.238 46.6929H209.98L211.324 39.8228H208.381L208.822 37.5156ZM212.852 31.9272H215.856L215.169 35.4341H212.165L212.852 31.9272ZM239.655 34.2549L239.02 37.5156H242.947L242.506 39.8228H238.579L237.512 45.2573C237.485 45.394 237.464 45.5137 237.451 45.6162C237.437 45.7188 237.43 45.7974 237.43 45.8521C237.43 46.1597 237.533 46.3784 237.738 46.5083C237.943 46.6313 238.315 46.6929 238.855 46.6929H241.163L240.722 49H238.209C236.815 49 235.824 48.812 235.236 48.436C234.655 48.0532 234.364 47.4209 234.364 46.5391C234.364 46.3955 234.378 46.2075 234.405 45.9751C234.439 45.7427 234.487 45.4556 234.549 45.1138L235.584 39.8228H232.642L233.083 37.5156H236.025L236.651 34.2549H239.655ZM254.913 41.5352L253.467 49H250.463L251.827 42.0068C251.861 41.8291 251.885 41.6514 251.898 41.4736C251.919 41.2891 251.929 41.1045 251.929 40.9199C251.929 40.5234 251.83 40.2227 251.632 40.0176C251.434 39.8057 251.146 39.6997 250.771 39.6997C250.203 39.6997 249.721 39.9458 249.325 40.438C248.928 40.9233 248.641 41.6274 248.463 42.5503L247.223 49H244.218L247.325 33.0449H250.309L249.12 39.2383C249.448 38.6094 249.899 38.1206 250.473 37.772C251.047 37.4165 251.68 37.2388 252.37 37.2388C253.245 37.2388 253.918 37.478 254.39 37.9565C254.862 38.4282 255.098 39.0981 255.098 39.9663C255.098 40.1714 255.081 40.4038 255.046 40.6636C255.019 40.9233 254.975 41.2139 254.913 41.5352ZM266.449 48.436C265.799 48.7231 265.123 48.9385 264.418 49.082C263.714 49.2256 262.986 49.2974 262.234 49.2974C260.539 49.2974 259.25 48.894 258.369 48.0874C257.487 47.2739 257.046 46.0879 257.046 44.5293C257.046 43.5654 257.196 42.6323 257.497 41.73C257.798 40.8276 258.222 40.0449 258.769 39.3818C259.343 38.6846 260.026 38.1514 260.819 37.7822C261.612 37.4062 262.467 37.2183 263.383 37.2183C264.812 37.2183 265.957 37.6284 266.818 38.4487C267.679 39.269 268.11 40.356 268.11 41.7095C268.11 42.0171 268.086 42.3726 268.038 42.7759C267.997 43.1792 267.929 43.6646 267.833 44.2319H260.05C260.03 44.3481 260.013 44.4575 259.999 44.5601C259.992 44.6626 259.985 44.7651 259.979 44.8677C259.979 45.5444 260.208 46.0571 260.666 46.4058C261.124 46.7476 261.8 46.9185 262.696 46.9185C263.434 46.9185 264.172 46.8125 264.911 46.6006C265.649 46.3887 266.336 46.0811 266.972 45.6777L266.449 48.436ZM265.249 41.9863C265.276 41.8906 265.293 41.7983 265.3 41.7095C265.314 41.6138 265.321 41.5249 265.321 41.4429C265.321 40.8618 265.146 40.4038 264.798 40.0688C264.449 39.7339 263.971 39.5664 263.362 39.5664C262.679 39.5664 262.094 39.7681 261.609 40.1714C261.124 40.5747 260.744 41.1797 260.471 41.9863H265.249ZM280.958 40.6431C280.63 40.3491 280.264 40.1338 279.861 39.9971C279.458 39.8535 279.003 39.7817 278.497 39.7817C277.362 39.7817 276.487 40.0825 275.872 40.6841C275.264 41.2856 274.823 42.2939 274.549 43.709L273.524 49H270.499L272.745 37.5156H275.749L275.39 39.2998C275.814 38.6436 276.364 38.1377 277.041 37.7822C277.718 37.4199 278.463 37.2388 279.276 37.2388C279.7 37.2388 280.1 37.29 280.476 37.3926C280.859 37.4951 281.201 37.6387 281.501 37.8232L280.958 40.6431ZM291.755 48.436C291.106 48.7231 290.429 48.9385 289.725 49.082C289.021 49.2256 288.293 49.2974 287.541 49.2974C285.846 49.2974 284.557 48.894 283.675 48.0874C282.793 47.2739 282.353 46.0879 282.353 44.5293C282.353 43.5654 282.503 42.6323 282.804 41.73C283.104 40.8276 283.528 40.0449 284.075 39.3818C284.649 38.6846 285.333 38.1514 286.126 37.7822C286.919 37.4062 287.773 37.2183 288.689 37.2183C290.118 37.2183 291.263 37.6284 292.125 38.4487C292.986 39.269 293.417 40.356 293.417 41.7095C293.417 42.0171 293.393 42.3726 293.345 42.7759C293.304 43.1792 293.235 43.6646 293.14 44.2319H285.357C285.336 44.3481 285.319 44.4575 285.306 44.5601C285.299 44.6626 285.292 44.7651 285.285 44.8677C285.285 45.5444 285.514 46.0571 285.972 46.4058C286.43 46.7476 287.107 46.9185 288.002 46.9185C288.741 46.9185 289.479 46.8125 290.217 46.6006C290.956 46.3887 291.643 46.0811 292.278 45.6777L291.755 48.436ZM290.556 41.9863C290.583 41.8906 290.6 41.7983 290.607 41.7095C290.621 41.6138 290.627 41.5249 290.627 41.4429C290.627 40.8618 290.453 40.4038 290.104 40.0688C289.756 39.7339 289.277 39.5664 288.669 39.5664C287.985 39.5664 287.401 39.7681 286.916 40.1714C286.43 40.5747 286.051 41.1797 285.777 41.9863H290.556ZM298.677 45.2368H301.896L301.343 48.0156L298.574 51.9429H296.37L298.133 48.0156L298.677 45.2368ZM327.429 38.6641C327.647 38.2266 327.976 37.8813 328.413 37.6284C328.851 37.3687 329.329 37.2388 329.849 37.2388C330.478 37.2388 330.977 37.4302 331.346 37.813C331.715 38.1958 331.899 38.7188 331.899 39.3818C331.899 39.7031 331.879 40.0312 331.838 40.3662C331.804 40.6943 331.735 41.1147 331.633 41.6274L330.197 49H327.747L329.172 41.6274C329.24 41.2788 329.288 41.002 329.315 40.7969C329.343 40.585 329.356 40.4277 329.356 40.3252C329.356 40.0518 329.295 39.8433 329.172 39.6997C329.056 39.5562 328.881 39.4844 328.649 39.4844C328.321 39.4844 328.058 39.6382 327.859 39.9458C327.668 40.2534 327.497 40.814 327.347 41.6274L325.921 49H323.46L324.906 41.6274C324.961 41.3403 325.002 41.084 325.029 40.8584C325.063 40.6328 325.081 40.4551 325.081 40.3252C325.081 40.0518 325.019 39.8433 324.896 39.6997C324.773 39.5562 324.595 39.4844 324.363 39.4844C324.042 39.4844 323.785 39.6348 323.594 39.9355C323.409 40.2295 323.238 40.7935 323.081 41.6274L321.656 49H319.195L321.42 37.5156H323.604L323.378 38.7051C323.659 38.2402 324.004 37.8813 324.414 37.6284C324.831 37.3687 325.275 37.2388 325.747 37.2388C326.219 37.2388 326.602 37.3687 326.896 37.6284C327.196 37.8813 327.374 38.2266 327.429 38.6641ZM337.836 50.2407C337.071 51.5942 336.408 52.4487 335.847 52.8042C335.293 53.1665 334.586 53.3477 333.725 53.3477H331.264L331.725 51.061H332.925C333.52 51.061 333.988 50.9585 334.33 50.7534C334.671 50.5483 335.047 50.063 335.458 49.2974L335.857 48.5386L333.632 37.5156H336.678L337.98 44.6934L341.907 37.5156H345.076L337.836 50.2407ZM368.793 41.5352L367.347 49H364.343L365.707 42.0068C365.741 41.8291 365.765 41.6514 365.778 41.4736C365.799 41.2891 365.809 41.1045 365.809 40.9199C365.809 40.5234 365.71 40.2227 365.512 40.0176C365.313 39.8057 365.026 39.6997 364.65 39.6997C364.09 39.6997 363.608 39.9458 363.205 40.438C362.808 40.9302 362.521 41.6343 362.343 42.5503L361.103 49H358.098L360.323 37.5156H363.328L363 39.2383C363.328 38.6094 363.779 38.1206 364.353 37.772C364.927 37.4165 365.56 37.2388 366.25 37.2388C367.125 37.2388 367.798 37.478 368.27 37.9565C368.742 38.4282 368.978 39.0981 368.978 39.9663C368.978 40.1714 368.96 40.4038 368.926 40.6636C368.899 40.9233 368.854 41.2139 368.793 41.5352ZM377.222 43.5654C376.046 43.5654 375.174 43.7432 374.607 44.0986C374.04 44.4541 373.756 45.0044 373.756 45.7495C373.756 46.1802 373.893 46.5356 374.166 46.8159C374.446 47.0962 374.802 47.2363 375.232 47.2363C376.039 47.2363 376.716 46.9185 377.263 46.2827C377.81 45.647 378.182 44.7412 378.38 43.5654H377.222ZM381.569 42.4478L380.308 49H377.324L377.581 47.7183C377.123 48.2446 376.596 48.6411 376.001 48.9077C375.414 49.1675 374.744 49.2974 373.992 49.2974C372.959 49.2974 372.139 49 371.531 48.4053C370.929 47.8037 370.628 46.9937 370.628 45.9751C370.628 44.5054 371.158 43.3843 372.218 42.6118C373.284 41.8325 374.819 41.4429 376.822 41.4429H378.801L378.883 40.9404C378.89 40.8994 378.893 40.8618 378.893 40.8276C378.9 40.7866 378.903 40.7251 378.903 40.6431C378.903 40.2534 378.729 39.9561 378.38 39.751C378.032 39.5459 377.526 39.4434 376.863 39.4434C376.302 39.4434 375.667 39.5425 374.956 39.7407C374.251 39.9321 373.496 40.2192 372.689 40.6021L373.171 38.0386C373.944 37.772 374.672 37.5737 375.355 37.4438C376.046 37.3071 376.702 37.2388 377.324 37.2388C378.808 37.2388 379.932 37.4985 380.698 38.0181C381.463 38.5376 381.846 39.2998 381.846 40.3047C381.846 40.5713 381.822 40.8857 381.774 41.248C381.727 41.6104 381.658 42.0103 381.569 42.4478ZM390.695 38.6641C390.914 38.2266 391.242 37.8813 391.68 37.6284C392.117 37.3687 392.596 37.2388 393.115 37.2388C393.744 37.2388 394.243 37.4302 394.612 37.813C394.981 38.1958 395.166 38.7188 395.166 39.3818C395.166 39.7031 395.146 40.0312 395.104 40.3662C395.07 40.6943 395.002 41.1147 394.899 41.6274L393.464 49H391.013L392.438 41.6274C392.507 41.2788 392.555 41.002 392.582 40.7969C392.609 40.585 392.623 40.4277 392.623 40.3252C392.623 40.0518 392.562 39.8433 392.438 39.6997C392.322 39.5562 392.148 39.4844 391.916 39.4844C391.587 39.4844 391.324 39.6382 391.126 39.9458C390.935 40.2534 390.764 40.814 390.613 41.6274L389.188 49H386.727L388.173 41.6274C388.228 41.3403 388.269 41.084 388.296 40.8584C388.33 40.6328 388.347 40.4551 388.347 40.3252C388.347 40.0518 388.286 39.8433 388.163 39.6997C388.04 39.5562 387.862 39.4844 387.629 39.4844C387.308 39.4844 387.052 39.6348 386.86 39.9355C386.676 40.2295 386.505 40.7935 386.348 41.6274L384.922 49H382.461L384.687 37.5156H386.871L386.645 38.7051C386.925 38.2402 387.271 37.8813 387.681 37.6284C388.098 37.3687 388.542 37.2388 389.014 37.2388C389.485 37.2388 389.868 37.3687 390.162 37.6284C390.463 37.8813 390.641 38.2266 390.695 38.6641ZM405.635 48.436C404.986 48.7231 404.309 48.9385 403.605 49.082C402.901 49.2256 402.173 49.2974 401.421 49.2974C399.726 49.2974 398.437 48.894 397.555 48.0874C396.673 47.2739 396.232 46.0879 396.232 44.5293C396.232 43.5654 396.383 42.6323 396.684 41.73C396.984 40.8276 397.408 40.0449 397.955 39.3818C398.529 38.6846 399.213 38.1514 400.006 37.7822C400.799 37.4062 401.653 37.2183 402.569 37.2183C403.998 37.2183 405.143 37.6284 406.004 38.4487C406.866 39.269 407.296 40.356 407.296 41.7095C407.296 42.0171 407.272 42.3726 407.225 42.7759C407.184 43.1792 407.115 43.6646 407.02 44.2319H399.237C399.216 44.3481 399.199 44.4575 399.186 44.5601C399.179 44.6626 399.172 44.7651 399.165 44.8677C399.165 45.5444 399.394 46.0571 399.852 46.4058C400.31 46.7476 400.987 46.9185 401.882 46.9185C402.621 46.9185 403.359 46.8125 404.097 46.6006C404.835 46.3887 405.522 46.0811 406.158 45.6777L405.635 48.436ZM404.436 41.9863C404.463 41.8906 404.48 41.7983 404.487 41.7095C404.5 41.6138 404.507 41.5249 404.507 41.4429C404.507 40.8618 404.333 40.4038 403.984 40.0688C403.636 39.7339 403.157 39.5664 402.549 39.5664C401.865 39.5664 401.281 39.7681 400.795 40.1714C400.31 40.5747 399.931 41.1797 399.657 41.9863H404.436ZM423.928 37.5156H429.875L428.091 46.6929H431.824L431.383 49H420.903L421.344 46.6929H425.087L426.43 39.8228H423.487L423.928 37.5156ZM427.958 31.9272H430.962L430.275 35.4341H427.271L427.958 31.9272ZM444.631 37.8745L444.118 40.479C443.605 40.1167 443.052 39.8433 442.457 39.6587C441.862 39.4741 441.247 39.3818 440.611 39.3818C439.969 39.3818 439.459 39.5015 439.083 39.7407C438.708 39.98 438.52 40.3013 438.52 40.7046C438.52 41.0122 438.643 41.2617 438.889 41.4531C439.142 41.6377 439.709 41.8564 440.591 42.1094L441.35 42.3247C442.225 42.5776 442.864 42.9434 443.267 43.4219C443.67 43.9004 443.872 44.5293 443.872 45.3086C443.872 46.5527 443.4 47.5303 442.457 48.2412C441.521 48.9453 440.215 49.2974 438.54 49.2974C437.829 49.2974 437.118 49.2358 436.407 49.1128C435.703 48.9966 435.013 48.8188 434.336 48.5796L434.859 45.9546C435.447 46.3374 436.065 46.6313 436.715 46.8364C437.364 47.0347 438.007 47.1338 438.643 47.1338C439.395 47.1338 439.979 47.0073 440.396 46.7544C440.82 46.4946 441.032 46.1357 441.032 45.6777C441.032 45.3633 440.926 45.1172 440.714 44.9395C440.509 44.7617 439.952 44.5396 439.042 44.2729L438.14 44.0269C437.306 43.7808 436.694 43.4219 436.305 42.9502C435.915 42.4717 435.72 41.8496 435.72 41.084C435.72 39.9355 436.185 39.0093 437.115 38.3052C438.044 37.5942 439.282 37.2388 440.827 37.2388C441.462 37.2388 442.098 37.2935 442.734 37.4028C443.37 37.5054 444.002 37.6626 444.631 37.8745ZM201.08 65.771C201.497 65.8325 201.822 65.9863 202.054 66.2324C202.287 66.4785 202.495 66.8989 202.68 67.4937L204.361 73H201.275L200.188 69.1445C200.167 69.0762 200.14 68.9839 200.106 68.8677C199.744 67.5894 199.204 66.9502 198.486 66.9502H197.286L196.107 73H193.082L196.066 57.6909H200.27C201.856 57.6909 203.032 57.9917 203.797 58.5933C204.563 59.188 204.946 60.104 204.946 61.3413C204.946 62.6196 204.611 63.645 203.941 64.4175C203.271 65.1831 202.317 65.6343 201.08 65.771ZM198.609 60.2339L197.789 64.4072H199.05C199.973 64.4072 200.67 64.1885 201.142 63.751C201.62 63.3135 201.859 62.6709 201.859 61.8232C201.859 61.29 201.702 60.8936 201.388 60.6338C201.073 60.3672 200.602 60.2339 199.973 60.2339H198.609ZM214.369 65.9863C214.369 65.2412 214.208 64.667 213.887 64.2637C213.573 63.8604 213.125 63.6587 212.544 63.6587C211.703 63.6587 210.999 64.1235 210.432 65.0532C209.864 65.9829 209.581 67.1484 209.581 68.5498C209.581 69.2744 209.745 69.8452 210.073 70.2622C210.408 70.6724 210.859 70.8774 211.426 70.8774C212.253 70.8774 212.951 70.4126 213.518 69.4829C214.085 68.5464 214.369 67.3809 214.369 65.9863ZM206.556 68.6318C206.556 66.4307 207.123 64.6465 208.258 63.2793C209.399 61.9053 210.883 61.2183 212.708 61.2183C214.178 61.2183 215.326 61.6318 216.153 62.459C216.98 63.2793 217.394 64.4209 217.394 65.8838C217.394 68.0918 216.823 69.8794 215.682 71.2466C214.547 72.6138 213.067 73.2974 211.242 73.2974C209.772 73.2974 208.624 72.8872 207.796 72.0669C206.969 71.2397 206.556 70.0947 206.556 68.6318ZM224.459 70.8569C225.218 70.8569 225.867 70.375 226.407 69.4111C226.954 68.4404 227.228 67.2646 227.228 65.8838C227.228 65.1934 227.084 64.6567 226.797 64.2739C226.517 63.8911 226.124 63.6997 225.618 63.6997C224.838 63.6997 224.165 64.1748 223.598 65.125C223.037 66.0684 222.757 67.2168 222.757 68.5703C222.757 69.2812 222.911 69.8418 223.218 70.252C223.526 70.6553 223.939 70.8569 224.459 70.8569ZM222.213 70.8774L221.793 73H218.789L221.896 57.0449H224.9L223.68 63.2383C224.11 62.582 224.609 62.0864 225.177 61.7515C225.744 61.4097 226.353 61.2388 227.002 61.2388C228 61.2388 228.79 61.6147 229.371 62.3667C229.958 63.1118 230.252 64.1304 230.252 65.4224C230.252 66.3179 230.146 67.21 229.935 68.0986C229.729 68.9805 229.439 69.7803 229.063 70.498C228.591 71.3799 227.997 72.0669 227.279 72.5591C226.561 73.0513 225.802 73.2974 225.002 73.2974C224.244 73.2974 223.618 73.0854 223.126 72.6616C222.634 72.231 222.33 71.6362 222.213 70.8774ZM234.128 61.5156H240.076L238.292 70.6929H242.024L241.583 73H231.104L231.544 70.6929H235.287L236.63 63.8228H233.688L234.128 61.5156ZM238.158 55.9272H241.163L240.476 59.4341H237.471L238.158 55.9272ZM247.899 69.2368H251.324L250.606 73H247.182L247.899 69.2368Z" fill="#3826B0"/>
<defs>
<filter id="filter0_i" x="8" y="73.7251" width="120" height="84.2748" filterUnits="userSpaceOnUse" color-interpolation-filters="sRGB">
<feFlood flood-opacity="0" result="BackgroundImageFix"/>
<feBlend mode="normal" in="SourceGraphic" in2="BackgroundImageFix" result="shape"/>
<feColorMatrix in="SourceAlpha" type="matrix" values="0 0 0 0 0 0 0 0 0 0 0 0 0 0 0 0 0 0 127 0" result="hardAlpha"/>
<feOffset dx="4" dy="-4"/>
<feComposite in2="hardAlpha" operator="arithmetic" k2="-1" k3="1"/>
<feColorMatrix type="matrix" values="0 0 0 0 0 0 0 0 0 0 0 0 0 0 0 0 0 0 0.195822 0"/>
<feBlend mode="normal" in2="shape" result="effect1_innerShadow"/>
</filter>
<filter id="filter1_d" x="34.9091" y="96.626" width="77.6364" height="28.3969" filterUnits="userSpaceOnUse" color-interpolation-filters="sRGB">
<feFlood flood-opacity="0" result="BackgroundImageFix"/>
<feColorMatrix in="SourceAlpha" type="matrix" values="0 0 0 0 0 0 0 0 0 0 0 0 0 0 0 0 0 0 127 0"/>
<feOffset dx="-4"/>
<feColorMatrix type="matrix" values="0 0 0 0 0 0 0 0 0 0 0 0 0 0 0 0 0 0 0.269814 0"/>
<feBlend mode="normal" in2="BackgroundImageFix" result="effect1_dropShadow"/>
<feBlend mode="normal" in="SourceGraphic" in2="effect1_dropShadow" result="shape"/>
</filter>
<filter id="filter2_d" x="57.9333" y="185.57" width="50.2889" height="24.57" filterUnits="userSpaceOnUse" color-interpolation-filters="sRGB">
<feFlood flood-opacity="0" result="BackgroundImageFix"/>
<feColorMatrix in="SourceAlpha" type="matrix" values="0 0 0 0 0 0 0 0 0 0 0 0 0 0 0 0 0 0 127 0"/>
<feOffset dx="2"/>
<feColorMatrix type="matrix" values="0 0 0 0 0 0 0 0 0 0 0 0 0 0 0 0 0 0 0.303895 0"/>
<feBlend mode="normal" in2="BackgroundImageFix" result="effect1_dropShadow"/>
<feBlend mode="normal" in="SourceGraphic" in2="effect1_dropShadow" result="shape"/>
</filter>
<filter id="filter3_d" x="67.0667" y="182.85" width="30.9333" height="30.92" filterUnits="userSpaceOnUse" color-interpolation-filters="sRGB">
<feFlood flood-opacity="0" result="BackgroundImageFix"/>
<feColorMatrix in="SourceAlpha" type="matrix" values="0 0 0 0 0 0 0 0 0 0 0 0 0 0 0 0 0 0 127 0"/>
<feOffset/>
<feGaussianBlur stdDeviation="5"/>
<feColorMatrix type="matrix" values="0 0 0 0 0.0901961 0 0 0 0 0.917647 0 0 0 0 0.160784 0 0 0 1 0"/>
<feBlend mode="normal" in2="BackgroundImageFix" result="effect1_dropShadow"/>
<feBlend mode="normal" in="SourceGraphic" in2="effect1_dropShadow" result="shape"/>
</filter>
<filter id="filter4_d" x="138" y="-7" width="369" height="158" filterUnits="userSpaceOnUse" color-interpolation-filters="sRGB">
<feFlood flood-opacity="0" result="BackgroundImageFix"/>
<feColorMatrix in="SourceAlpha" type="matrix" values="0 0 0 0 0 0 0 0 0 0 0 0 0 0 0 0 0 0 127 0"/>
<feOffset dy="5"/>
<feGaussianBlur stdDeviation="6"/>
<feColorMatrix type="matrix" values="0 0 0 0 0 0 0 0 0 0 0 0 0 0 0 0 0 0 0.0697464 0"/>
<feBlend mode="normal" in2="BackgroundImageFix" result="effect1_dropShadow"/>
<feBlend mode="normal" in="SourceGraphic" in2="effect1_dropShadow" result="shape"/>
</filter>
</defs>
</svg>
