<svg width="166" height="166" viewBox="0 0 166 166" fill="none" xmlns="http://www.w3.org/2000/svg">
<g filter="url(#filter0_d)">
<path fill-rule="evenodd" clip-rule="evenodd" d="M83 126C115.033 126 141 100.033 141 68C141 35.9675 115.033 10 83 10C50.9675 10 25 35.9675 25 68C25 100.033 50.9675 126 83 126Z" fill="white"/>
</g>
<path d="M94.6091 59.0265C90.5159 61.0731 87.1049 63.4608 85.0583 65.8485C84.7172 62.4375 83.6939 58.6854 81.6472 54.251C77.554 46.0646 71.4142 40.607 68.0032 42.3125C64.5922 44.018 64.9333 52.2044 69.0265 60.3909C71.0731 64.4841 73.4608 67.8951 75.8485 69.9417C72.4375 70.2828 68.6854 71.3061 64.251 73.3528C56.0646 77.446 50.607 83.5858 52.3125 86.9968C54.018 90.4078 62.2044 90.0667 70.3909 85.9735C74.4841 83.9269 77.8951 81.5392 79.9417 79.1515C80.2828 82.5625 81.3061 86.3146 83.3528 90.749C87.446 98.9354 93.5858 104.393 96.9968 102.688C100.408 100.982 100.067 92.7956 95.9735 84.6091C93.9269 80.5159 91.5392 77.1049 89.1515 75.0583C92.5625 74.7172 96.3146 73.6939 100.749 71.6472C108.935 67.554 114.393 61.4142 112.688 58.0032C110.982 54.251 103.137 54.9333 94.6091 59.0265V59.0265Z" fill="#E64A19"/>
<path d="M81.9739 53.8103C80.6057 58.2623 79.9216 62.3718 79.9216 65.4539C77.5274 63.3992 73.7649 61.3444 69.3184 59.6321C60.4254 56.55 52.5585 57.2349 51.1903 60.6595C49.8222 64.4265 55.9789 69.9059 64.8719 72.988C69.3184 74.3579 73.4229 75.0428 76.5013 75.0428C74.449 77.44 72.3968 81.2071 70.6866 85.6591C67.6082 94.563 68.2923 102.44 71.7127 103.809C75.4751 105.179 80.9478 99.015 84.0261 90.111C85.3943 85.6591 86.0784 81.5495 86.0784 78.4674C88.4726 80.5222 92.2351 82.5769 96.6816 84.2892C105.575 87.3714 113.442 86.6864 114.81 83.2618C116.178 79.4948 110.021 74.0154 101.128 70.9333C96.6816 69.5634 92.5771 68.8785 89.4987 68.8785C91.551 66.4813 93.6032 62.7142 95.3134 58.2623C98.3918 49.3583 97.7077 41.4817 94.2873 40.1119C90.1828 39.0845 85.0522 45.2488 81.9739 53.8103V53.8103Z" fill="#FF5722"/>
<path d="M77 72C77 75.3137 79.6863 78 83 78C86.3137 78 89 75.3137 89 72C89 68.6863 86.3137 66 83 66C79.6863 66 77 68.6863 77 72H77Z" fill="#FFCCBC"/>
<defs>
<filter id="filter0_d" x="0" y="0" width="166" height="166" filterUnits="userSpaceOnUse" color-interpolation-filters="sRGB">
<feFlood flood-opacity="0" result="BackgroundImageFix"/>
<feColorMatrix in="SourceAlpha" type="matrix" values="0 0 0 0 0 0 0 0 0 0 0 0 0 0 0 0 0 0 127 0"/>
<feOffset dy="15"/>
<feGaussianBlur stdDeviation="12.5"/>
<feColorMatrix type="matrix" values="0 0 0 0 0 0 0 0 0 0 0 0 0 0 0 0 0 0 0.14906 0"/>
<feBlend mode="normal" in2="BackgroundImageFix" result="effect1_dropShadow"/>
<feBlend mode="normal" in="SourceGraphic" in2="effect1_dropShadow" result="shape"/>
</filter>
</defs>
</svg>
