<svg width="131" height="131" viewBox="0 0 131 131" fill="none" xmlns="http://www.w3.org/2000/svg">
<g filter="url(#filter0_d)">
<path fill-rule="evenodd" clip-rule="evenodd" d="M65.5 91C87.8675 91 106 72.8675 106 50.5C106 28.1325 87.8675 10 65.5 10C43.1325 10 25 28.1325 25 50.5C25 72.8675 43.1325 91 65.5 91Z" fill="white"/>
</g>
<path d="M73.6064 44.2339C70.7482 45.663 68.3663 47.3303 66.9372 48.9976C66.6991 46.6157 65.9845 43.9957 64.5554 40.8993C61.6972 35.1829 57.4099 31.372 55.0281 32.5629C52.6462 33.7538 52.8844 39.4702 55.7426 45.1866C57.1717 48.0448 58.839 50.4267 60.5063 51.8558C58.1245 52.094 55.5044 52.8085 52.4081 54.2376C46.6917 57.0958 42.8807 61.3831 44.0716 63.7649C45.2626 66.1468 50.979 65.9086 56.6954 63.0504C59.5536 61.6213 61.9354 59.954 63.3645 58.2867C63.6027 60.6685 64.3172 63.2886 65.7463 66.3849C68.6045 72.1013 72.8918 75.9123 75.2736 74.7214C77.6555 73.5304 77.4173 67.814 74.5591 62.0976C73.13 59.2394 71.4627 56.8576 69.7954 55.4285C72.1773 55.1903 74.7973 54.4758 77.8937 53.0467C83.6101 50.1885 87.421 45.9012 86.2301 43.5194C85.0392 40.8993 79.5609 41.3757 73.6064 44.2339Z" fill="#E64A19"/>
<path d="M64.7835 40.5916C63.8281 43.7003 63.3505 46.5699 63.3505 48.7221C61.6786 47.2873 59.0514 45.8525 55.9465 44.6569C49.7367 42.5047 44.2434 42.9829 43.2881 45.3743C42.3327 48.0047 46.6318 51.8308 52.8416 53.983C55.9465 54.9395 58.8125 55.4178 60.9621 55.4178C59.5291 57.0917 58.096 59.7222 56.9018 62.8309C54.7523 69.0483 55.23 74.5483 57.6184 75.5048C60.2456 76.4614 64.067 72.157 66.2165 65.9396C67.1719 62.8309 67.6495 59.9613 67.6495 57.8091C69.3214 59.2439 71.9486 60.6787 75.0535 61.8743C81.2633 64.0265 86.7566 63.5483 87.7119 61.1569C88.6673 58.5265 84.3682 54.7004 78.1584 52.5482C75.0535 51.5917 72.1875 51.1134 70.0379 51.1134C71.4709 49.4395 72.904 46.8091 74.0982 43.7003C76.2477 37.4829 75.77 31.9829 73.3817 31.0264C70.5156 30.309 66.933 34.6133 64.7835 40.5916Z" fill="#FF5722"/>
<path d="M61.3103 53.2932C61.3103 55.6071 63.1861 57.4828 65.5 57.4828C67.8139 57.4828 69.6897 55.6071 69.6897 53.2932C69.6897 50.9793 67.8139 49.1035 65.5 49.1035C63.1861 49.1035 61.3103 50.9793 61.3103 53.2932H61.3103Z" fill="#FFCCBC"/>
<defs>
<filter id="filter0_d" x="0" y="0" width="131" height="131" filterUnits="userSpaceOnUse" color-interpolation-filters="sRGB">
<feFlood flood-opacity="0" result="BackgroundImageFix"/>
<feColorMatrix in="SourceAlpha" type="matrix" values="0 0 0 0 0 0 0 0 0 0 0 0 0 0 0 0 0 0 127 0"/>
<feOffset dy="15"/>
<feGaussianBlur stdDeviation="12.5"/>
<feColorMatrix type="matrix" values="0 0 0 0 0 0 0 0 0 0 0 0 0 0 0 0 0 0 0.14906 0"/>
<feBlend mode="normal" in2="BackgroundImageFix" result="effect1_dropShadow"/>
<feBlend mode="normal" in="SourceGraphic" in2="effect1_dropShadow" result="shape"/>
</filter>
</defs>
</svg>
