<svg width="131" height="131" viewBox="0 0 131 131" fill="none" xmlns="http://www.w3.org/2000/svg">
<g filter="url(#filter0_d)">
<path fill-rule="evenodd" clip-rule="evenodd" d="M65.5 91C87.8675 91 106 72.8675 106 50.5C106 28.1325 87.8675 10 65.5 10C43.1325 10 25 28.1325 25 50.5C25 72.8675 43.1325 91 65.5 91Z" fill="white"/>
</g>
<g filter="url(#filter1_i)">
<path fill-rule="evenodd" clip-rule="evenodd" d="M42.5734 61.4924C39.9683 51.77 45.738 41.7766 55.4605 39.1715L71.1085 34.9786C80.8309 32.3735 90.8243 38.1432 93.4294 47.8656C96.0345 57.588 90.2648 67.5815 80.5424 70.1866L64.8944 74.3794C55.172 76.9846 45.1786 71.2148 42.5734 61.4924Z" fill="#FF5949"/>
</g>
<path d="M48.1661 26.0317C48.1661 26.0317 48.948 26.2385 51.8119 29.5272C54.6758 32.8159 56.2147 37.2923 56.2147 37.2923" stroke="#FF5949" stroke-width="3"/>
<path fill-rule="evenodd" clip-rule="evenodd" d="M49.7871 28.9517C51.0834 28.6044 51.8527 27.2719 51.5053 25.9756C51.158 24.6792 49.8255 23.91 48.5292 24.2573C47.2329 24.6046 46.4636 25.9371 46.8109 27.2334C47.1583 28.5298 48.4907 29.299 49.7871 28.9517Z" fill="black" stroke="black"/>
<path fill-rule="evenodd" clip-rule="evenodd" d="M48.3757 26.8141C48.5918 26.7562 48.72 26.5341 48.6621 26.318C48.6042 26.102 48.3821 25.9738 48.1661 26.0317C47.95 26.0895 47.8218 26.3116 47.8797 26.5277C47.9376 26.7437 48.1597 26.8719 48.3757 26.8141Z" fill="white"/>
<g filter="url(#filter2_d)">
<rect x="53.673" y="49.7134" width="32.4" height="12.96" rx="6.48" transform="rotate(-15 53.673 49.7134)" fill="#F2C730"/>
</g>
<path fill-rule="evenodd" clip-rule="evenodd" d="M66.0991 55.9056C67.3794 55.5625 68.1266 54.1996 67.7681 52.8615C67.4095 51.5234 66.081 50.7167 64.8006 51.0597C63.5203 51.4028 62.7731 52.7657 63.1316 54.1038C63.4902 55.442 64.8188 56.2486 66.0991 55.9056Z" fill="black"/>
<path fill-rule="evenodd" clip-rule="evenodd" d="M80.0084 52.1788C81.2887 51.8357 82.036 50.4728 81.6774 49.1347C81.3189 47.7965 79.9903 46.9899 78.71 47.3329C77.4296 47.676 76.6824 49.0389 77.041 50.377C77.3995 51.7152 78.7281 52.5218 80.0084 52.1788Z" fill="black"/>
<path fill-rule="evenodd" clip-rule="evenodd" d="M65.9444 53.783C66.3712 53.6686 66.6203 53.2143 66.5008 52.7683C66.3812 52.3222 65.9384 52.0533 65.5116 52.1677C65.0848 52.2821 64.8358 52.7363 64.9553 53.1824C65.0748 53.6284 65.5177 53.8973 65.9444 53.783Z" fill="white"/>
<path fill-rule="evenodd" clip-rule="evenodd" d="M79.8538 50.0562C80.2805 49.9418 80.5296 49.4875 80.4101 49.0415C80.2906 48.5954 79.8477 48.3265 79.4209 48.4409C78.9942 48.5552 78.7451 49.0095 78.8646 49.4556C78.9841 49.9016 79.427 50.1705 79.8538 50.0562Z" fill="white"/>
<path opacity="0.299083" fill-rule="evenodd" clip-rule="evenodd" d="M54.5266 65.4174C54.4108 64.9853 54.6672 64.5411 55.0994 64.4254L58.229 63.5868C58.6611 63.471 59.1052 63.7274 59.221 64.1595C59.3368 64.5917 59.0803 65.0358 58.6482 65.1516L55.5186 65.9902C55.0865 66.1059 54.6424 65.8495 54.5266 65.4174Z" fill="white"/>
<path opacity="0.299083" fill-rule="evenodd" clip-rule="evenodd" d="M86.605 56.8222C86.4892 56.3901 86.7456 55.9459 87.1778 55.8302L90.3074 54.9916C90.7395 54.8758 91.1836 55.1322 91.2994 55.5643C91.4152 55.9964 91.1587 56.4406 90.7266 56.5564L87.597 57.395C87.1649 57.5107 86.7208 57.2543 86.605 56.8222Z" fill="white"/>
<defs>
<filter id="filter0_d" x="0" y="0" width="131" height="131" filterUnits="userSpaceOnUse" color-interpolation-filters="sRGB">
<feFlood flood-opacity="0" result="BackgroundImageFix"/>
<feColorMatrix in="SourceAlpha" type="matrix" values="0 0 0 0 0 0 0 0 0 0 0 0 0 0 0 0 0 0 127 0"/>
<feOffset dy="15"/>
<feGaussianBlur stdDeviation="12.5"/>
<feColorMatrix type="matrix" values="0 0 0 0 0 0 0 0 0 0 0 0 0 0 0 0 0 0 0.14906 0"/>
<feBlend mode="normal" in2="BackgroundImageFix" result="effect1_dropShadow"/>
<feBlend mode="normal" in="SourceGraphic" in2="effect1_dropShadow" result="shape"/>
</filter>
<filter id="filter1_i" x="37.8565" y="30.2617" width="60.29" height="48.8348" filterUnits="userSpaceOnUse" color-interpolation-filters="sRGB">
<feFlood flood-opacity="0" result="BackgroundImageFix"/>
<feBlend mode="normal" in="SourceGraphic" in2="BackgroundImageFix" result="shape"/>
<feColorMatrix in="SourceAlpha" type="matrix" values="0 0 0 0 0 0 0 0 0 0 0 0 0 0 0 0 0 0 127 0" result="hardAlpha"/>
<feOffset dx="4" dy="-4"/>
<feComposite in2="hardAlpha" operator="arithmetic" k2="-1" k3="1"/>
<feColorMatrix type="matrix" values="0 0 0 0 0 0 0 0 0 0 0 0 0 0 0 0 0 0 0.195822 0"/>
<feBlend mode="normal" in2="shape" result="effect1_innerShadow"/>
</filter>
<filter id="filter2_d" x="49.673" y="41.3276" width="38.6503" height="20.9041" filterUnits="userSpaceOnUse" color-interpolation-filters="sRGB">
<feFlood flood-opacity="0" result="BackgroundImageFix"/>
<feColorMatrix in="SourceAlpha" type="matrix" values="0 0 0 0 0 0 0 0 0 0 0 0 0 0 0 0 0 0 127 0"/>
<feOffset dx="-4"/>
<feColorMatrix type="matrix" values="0 0 0 0 0 0 0 0 0 0 0 0 0 0 0 0 0 0 0.269814 0"/>
<feBlend mode="normal" in2="BackgroundImageFix" result="effect1_dropShadow"/>
<feBlend mode="normal" in="SourceGraphic" in2="effect1_dropShadow" result="shape"/>
</filter>
</defs>
</svg>
