<svg width="191" height="229" viewBox="0 0 191 229" fill="none" xmlns="http://www.w3.org/2000/svg">
<g filter="url(#filter0_i)">
<rect width="108" height="75.145" rx="37.5725" transform="matrix(-1 0 0 1 184 50.855)" fill="#FF5949"/>
</g>
<path d="M152.909 23.9009C152.909 23.9009 151.373 24.7372 147.182 32.8856C142.99 41.034 142.273 50.8551 142.273 50.8551" stroke="#FF5949" stroke-width="3"/>
<path fill-rule="evenodd" clip-rule="evenodd" d="M152.909 28.8015C150.198 28.8015 148 26.6074 148 23.9008C148 21.1941 150.198 19 152.909 19C155.62 19 157.818 21.1941 157.818 23.9008C157.818 26.6074 155.62 28.8015 152.909 28.8015Z" fill="black" stroke="black"/>
<path fill-rule="evenodd" clip-rule="evenodd" d="M154.545 23.9007C154.094 23.9007 153.727 23.535 153.727 23.0839C153.727 22.6328 154.094 22.2671 154.545 22.2671C154.997 22.2671 155.364 22.6328 155.364 23.0839C155.364 23.535 154.997 23.9007 154.545 23.9007Z" fill="white"/>
<g filter="url(#filter1_d)">
<rect width="66.2727" height="25.3206" rx="12.6603" transform="matrix(-1 0 0 1 156.182 71.2749)" fill="#F2C730"/>
</g>
<path fill-rule="evenodd" clip-rule="evenodd" d="M134.909 89.2444C132.198 89.2444 130 87.0503 130 84.3436C130 81.637 132.198 79.4429 134.909 79.4429C137.62 79.4429 139.818 81.637 139.818 84.3436C139.818 87.0503 137.62 89.2444 134.909 89.2444Z" fill="black"/>
<path fill-rule="evenodd" clip-rule="evenodd" d="M105.455 89.2444C102.743 89.2444 100.545 87.0503 100.545 84.3436C100.545 81.637 102.743 79.4429 105.455 79.4429C108.166 79.4429 110.364 81.637 110.364 84.3436C110.364 87.0503 108.166 89.2444 105.455 89.2444Z" fill="black"/>
<path fill-rule="evenodd" clip-rule="evenodd" d="M134.091 85.1602C133.187 85.1602 132.455 84.4289 132.455 83.5267C132.455 82.6244 133.187 81.8931 134.091 81.8931C134.995 81.8931 135.727 82.6244 135.727 83.5267C135.727 84.4289 134.995 85.1602 134.091 85.1602Z" fill="white"/>
<path fill-rule="evenodd" clip-rule="evenodd" d="M104.636 85.1602C103.733 85.1602 103 84.4289 103 83.5267C103 82.6244 103.733 81.8931 104.636 81.8931C105.54 81.8931 106.273 82.6244 106.273 83.5267C106.273 84.4289 105.54 85.1602 104.636 85.1602Z" fill="white"/>
<rect opacity="0.299083" width="9.81818" height="4.90076" rx="2.45038" transform="matrix(-1 0 0 1 161.091 101.496)" fill="white"/>
<rect opacity="0.299083" width="9.81818" height="4.90076" rx="2.45038" transform="matrix(-1 0 0 1 94.8182 101.496)" fill="white"/>
<path fill-rule="evenodd" clip-rule="evenodd" d="M88.1904 157.257C87.0726 155.321 84.5968 154.657 82.6606 155.775L63.0448 167.1C61.1086 168.218 60.4453 170.694 61.5631 172.63C62.681 174.566 65.1568 175.23 67.0929 174.112L86.7087 162.787C88.6449 161.669 89.3083 159.193 88.1904 157.257Z" fill="#FF8A7F"/>
<path fill-rule="evenodd" clip-rule="evenodd" d="M36.8501 142.746C35.2642 144.331 35.2642 146.901 36.8501 148.485L61.5148 173.124C63.0984 174.706 65.6641 174.706 67.2477 173.124C68.8336 171.54 68.8336 168.97 67.2477 167.386L42.583 142.746C40.9994 141.164 38.4337 141.164 36.8501 142.746Z" fill="#FF8A7F"/>
<path fill-rule="evenodd" clip-rule="evenodd" d="M41.8121 138.123C42.0995 137.055 41.4652 135.956 40.3965 135.671L33.5443 133.843C32.4786 133.558 31.3839 134.19 31.0973 135.256L29.2547 142.104C28.9673 143.172 29.6016 144.271 30.6704 144.556L37.5226 146.384C38.5883 146.669 39.683 146.037 39.9696 144.972L41.8121 138.123Z" fill="black"/>
<path d="M80.3421 161.788C78.7451 159.022 79.7006 155.49 82.4615 153.896C85.2225 152.302 88.7585 153.24 90.3555 156.006C91.9525 158.773 90.997 162.304 88.2361 163.898C85.4751 165.492 81.9391 164.554 80.3421 161.788Z" fill="black" stroke="#E87F76" stroke-width="5"/>
<path d="M60.7181 173.376C59.3982 171.09 60.1872 168.169 62.4716 166.851C64.7559 165.532 67.6796 166.309 68.9995 168.595C70.3194 170.881 69.5304 173.801 67.2461 175.12C64.9617 176.439 62.038 175.662 60.7181 173.376Z" fill="#8F2218" stroke="#E87F76" stroke-width="3"/>
<path d="M34.9556 147.167C33.7742 145.121 34.48 142.506 36.526 141.325C38.572 140.143 41.1896 140.84 42.3709 142.886C43.5523 144.932 42.8465 147.547 40.8005 148.728C38.7545 149.91 36.1369 149.213 34.9556 147.167Z" fill="#8F2218" stroke="#E87F76" stroke-width="2"/>
<rect width="79.6786" height="35" rx="17.5" transform="matrix(-1 0 0 1 147.679 194)" fill="#252525"/>
<rect x="-4" y="4" width="71.6786" height="27" rx="13.5" transform="matrix(-1 0 0 1 152 194)" fill="#848484" stroke="black" stroke-width="8"/>
<path d="M148.464 211.5C148.464 207.711 145.393 204.64 141.604 204.64H98.6437C94.8548 204.64 91.7832 207.711 91.7832 211.5C91.7832 215.289 94.8548 218.361 98.6437 218.361H141.604C145.393 218.361 148.464 215.289 148.464 211.5Z" fill="black" stroke="#252525" stroke-width="5"/>
<rect width="45.1786" height="2.44186" rx="1.22093" transform="matrix(-1 0 0 1 142.75 210.279)" fill="#848484"/>
<path fill-rule="evenodd" clip-rule="evenodd" d="M186 161C186 143.327 171.673 129 154 129H119.333C101.66 129 87.3333 143.327 87.3333 161V179C87.3333 196.673 101.66 211 119.333 211H154C171.673 211 186 196.673 186 179V161Z" fill="#DF4A3C"/>
<rect width="87.9778" height="82" rx="19" transform="matrix(-1 0 0 1 162.978 129)" fill="#FF5949"/>
<g filter="url(#filter2_d)">
<rect width="43.5778" height="22.14" rx="8" transform="matrix(-1 0 0 1 139.133 151.14)" fill="black"/>
</g>
<g filter="url(#filter3_d)">
<path fill-rule="evenodd" clip-rule="evenodd" d="M116.933 167.54C114.209 167.54 112 165.337 112 162.62C112 159.903 114.209 157.7 116.933 157.7C119.658 157.7 121.867 159.903 121.867 162.62C121.867 165.337 119.658 167.54 116.933 167.54Z" fill="#17EA29"/>
</g>
<path fill-rule="evenodd" clip-rule="evenodd" d="M174.685 149C172.451 149 170.639 150.811 170.639 153.046V175.621C170.639 177.855 172.451 179.667 174.685 179.667C176.92 179.667 178.731 177.855 178.731 175.621V153.046C178.731 150.811 176.92 149 174.685 149Z" fill="#FF8A7F"/>
<path fill-rule="evenodd" clip-rule="evenodd" d="M136.471 186.114C137.049 188.272 139.267 189.553 141.426 188.975L175.092 179.954C177.25 179.376 178.531 177.157 177.953 174.999C177.375 172.84 175.156 171.56 172.998 172.138L139.331 181.159C137.173 181.737 135.892 183.956 136.471 186.114Z" fill="#FF8A7F"/>
<path fill-rule="evenodd" clip-rule="evenodd" d="M134.947 179.518C134.166 178.737 132.9 178.737 132.119 179.518L127.116 184.52C126.335 185.301 126.335 186.568 127.116 187.349L132.119 192.351C132.9 193.132 134.166 193.132 134.947 192.351L139.949 187.349C140.73 186.568 140.73 185.301 139.949 184.52L134.947 179.518Z" fill="black"/>
<path d="M174.685 158.045C171.497 158.045 168.913 155.461 168.913 152.273C168.913 149.085 171.497 146.5 174.685 146.5C177.874 146.5 180.458 149.085 180.458 152.273C180.458 155.461 177.874 158.045 174.685 158.045Z" fill="#8F2218" stroke="#E87F76" stroke-width="5"/>
<path d="M174.909 180.773C172.273 180.773 170.136 178.636 170.136 176C170.136 173.364 172.273 171.227 174.909 171.227C177.545 171.227 179.682 173.364 179.682 176C179.682 178.636 177.545 180.773 174.909 180.773Z" fill="#8F2218" stroke="#E87F76" stroke-width="3"/>
<path d="M139.349 189.954C136.99 189.954 135.077 188.041 135.077 185.681C135.077 183.322 136.99 181.409 139.349 181.409C141.709 181.409 143.622 183.322 143.622 185.681C143.622 188.041 141.709 189.954 139.349 189.954Z" fill="#8F2218" stroke="#E87F76" stroke-width="2"/>
<rect width="79.6786" height="35" rx="17.5" transform="matrix(-1 0 0 1 178.679 194)" fill="#252525"/>
<rect x="-4" y="4" width="71.6786" height="27" rx="13.5" transform="matrix(-1 0 0 1 183 194)" fill="#848484" stroke="black" stroke-width="8"/>
<path d="M179.464 211.5C179.464 207.711 176.393 204.64 172.604 204.64H129.644C125.855 204.64 122.783 207.711 122.783 211.5C122.783 215.289 125.855 218.361 129.644 218.361H172.604C176.393 218.361 179.464 215.289 179.464 211.5Z" fill="black" stroke="#252525" stroke-width="5"/>
<rect width="45.1786" height="2.44186" rx="1.22093" transform="matrix(-1 0 0 1 173.75 210.279)" fill="#848484"/>
<g filter="url(#filter4_d)">
<path fill-rule="evenodd" clip-rule="evenodd" d="M16 26C16 17.7157 22.7157 11 31 11H61C69.2843 11 76 17.7157 76 26V51.2809C76 54.9434 73.0309 57.9125 69.3684 57.9125L71.8261 65L60.3573 57.9125H31C22.7157 57.9125 16 51.1968 16 42.9125L16 26Z" fill="white"/>
</g>
<path d="M46.5 49C47.8807 49 49 47.8807 49 46.5C49 45.1193 47.8807 44 46.5 44C45.1193 44 44 45.1193 44 46.5C44 47.8807 45.1193 49 46.5 49Z" fill="#4027C7"/>
<path d="M46.5 22C41.8131 22 38 25.4179 38 29.619C38 30.671 38.9514 31.5238 40.125 31.5238C41.2986 31.5238 42.25 30.671 42.25 29.619C42.25 27.5185 44.1565 25.8095 46.5 25.8095C48.8435 25.8095 50.75 27.5185 50.75 29.619C50.75 31.7196 48.8435 33.4286 46.5 33.4286C45.3264 33.4286 44.375 34.2813 44.375 35.3333V40.0952C44.375 41.1472 45.3264 42 46.5 42C47.6736 42 48.625 41.1472 48.625 40.0952V36.997C52.287 36.1491 55 33.1628 55 29.619C55 25.4179 51.1869 22 46.5 22Z" fill="#4027C7"/>
<defs>
<filter id="filter0_i" x="76" y="50.855" width="108" height="75.145" filterUnits="userSpaceOnUse" color-interpolation-filters="sRGB">
<feFlood flood-opacity="0" result="BackgroundImageFix"/>
<feBlend mode="normal" in="SourceGraphic" in2="BackgroundImageFix" result="shape"/>
<feColorMatrix in="SourceAlpha" type="matrix" values="0 0 0 0 0 0 0 0 0 0 0 0 0 0 0 0 0 0 127 0" result="hardAlpha"/>
<feOffset dx="4" dy="-4"/>
<feComposite in2="hardAlpha" operator="arithmetic" k2="-1" k3="1"/>
<feColorMatrix type="matrix" values="0 0 0 0 0 0 0 0 0 0 0 0 0 0 0 0 0 0 0.195822 0"/>
<feBlend mode="normal" in2="shape" result="effect1_innerShadow"/>
</filter>
<filter id="filter1_d" x="85.9091" y="71.2749" width="70.2727" height="25.3206" filterUnits="userSpaceOnUse" color-interpolation-filters="sRGB">
<feFlood flood-opacity="0" result="BackgroundImageFix"/>
<feColorMatrix in="SourceAlpha" type="matrix" values="0 0 0 0 0 0 0 0 0 0 0 0 0 0 0 0 0 0 127 0"/>
<feOffset dx="-4"/>
<feColorMatrix type="matrix" values="0 0 0 0 0 0 0 0 0 0 0 0 0 0 0 0 0 0 0.269814 0"/>
<feBlend mode="normal" in2="BackgroundImageFix" result="effect1_dropShadow"/>
<feBlend mode="normal" in="SourceGraphic" in2="effect1_dropShadow" result="shape"/>
</filter>
<filter id="filter2_d" x="95.5556" y="151.14" width="45.5778" height="22.14" filterUnits="userSpaceOnUse" color-interpolation-filters="sRGB">
<feFlood flood-opacity="0" result="BackgroundImageFix"/>
<feColorMatrix in="SourceAlpha" type="matrix" values="0 0 0 0 0 0 0 0 0 0 0 0 0 0 0 0 0 0 127 0"/>
<feOffset dx="2"/>
<feColorMatrix type="matrix" values="0 0 0 0 0 0 0 0 0 0 0 0 0 0 0 0 0 0 0.303895 0"/>
<feBlend mode="normal" in2="BackgroundImageFix" result="effect1_dropShadow"/>
<feBlend mode="normal" in="SourceGraphic" in2="effect1_dropShadow" result="shape"/>
</filter>
<filter id="filter3_d" x="102" y="147.7" width="29.8667" height="29.84" filterUnits="userSpaceOnUse" color-interpolation-filters="sRGB">
<feFlood flood-opacity="0" result="BackgroundImageFix"/>
<feColorMatrix in="SourceAlpha" type="matrix" values="0 0 0 0 0 0 0 0 0 0 0 0 0 0 0 0 0 0 127 0"/>
<feOffset/>
<feGaussianBlur stdDeviation="5"/>
<feColorMatrix type="matrix" values="0 0 0 0 0.0901961 0 0 0 0 0.917647 0 0 0 0 0.160784 0 0 0 1 0"/>
<feBlend mode="normal" in2="BackgroundImageFix" result="effect1_dropShadow"/>
<feBlend mode="normal" in="SourceGraphic" in2="effect1_dropShadow" result="shape"/>
</filter>
<filter id="filter4_d" x="0" y="0" width="92" height="86" filterUnits="userSpaceOnUse" color-interpolation-filters="sRGB">
<feFlood flood-opacity="0" result="BackgroundImageFix"/>
<feColorMatrix in="SourceAlpha" type="matrix" values="0 0 0 0 0 0 0 0 0 0 0 0 0 0 0 0 0 0 127 0"/>
<feOffset dy="5"/>
<feGaussianBlur stdDeviation="8"/>
<feColorMatrix type="matrix" values="0 0 0 0 0 0 0 0 0 0 0 0 0 0 0 0 0 0 0.123853 0"/>
<feBlend mode="normal" in2="BackgroundImageFix" result="effect1_dropShadow"/>
<feBlend mode="normal" in="SourceGraphic" in2="effect1_dropShadow" result="shape"/>
</filter>
</defs>
</svg>
