<svg width="166" height="166" viewBox="0 0 166 166" fill="none" xmlns="http://www.w3.org/2000/svg">
<g filter="url(#filter0_d)">
<path fill-rule="evenodd" clip-rule="evenodd" d="M83 126C115.033 126 141 100.033 141 68C141 35.9675 115.033 10 83 10C50.9675 10 25 35.9675 25 68C25 100.033 50.9675 126 83 126Z" fill="white"/>
</g>
<path fill-rule="evenodd" clip-rule="evenodd" d="M72.5 89C83.8218 89 93 79.8218 93 68.5C93 57.1782 83.8218 48 72.5 48C61.1782 48 52 57.1782 52 68.5C52 79.8218 61.1782 89 72.5 89Z" fill="#FFE441"/>
<path opacity="0.77281" fill-rule="evenodd" clip-rule="evenodd" d="M93.5 89C104.822 89 114 79.8218 114 68.5C114 57.1782 104.822 48 93.5 48C82.1782 48 73 57.1782 73 68.5C73 79.8218 82.1782 89 93.5 89Z" fill="#513ECC"/>
<path fill-rule="evenodd" clip-rule="evenodd" d="M83 50.9996C77.0107 54.556 73 61.0625 73 68.5C73 75.9375 77.0107 82.444 83 86.0004C88.9893 82.444 93 75.9375 93 68.5C93 61.0625 88.9893 54.556 83 50.9996Z" fill="#4C2EBA"/>
<defs>
<filter id="filter0_d" x="0" y="0" width="166" height="166" filterUnits="userSpaceOnUse" color-interpolation-filters="sRGB">
<feFlood flood-opacity="0" result="BackgroundImageFix"/>
<feColorMatrix in="SourceAlpha" type="matrix" values="0 0 0 0 0 0 0 0 0 0 0 0 0 0 0 0 0 0 127 0"/>
<feOffset dy="15"/>
<feGaussianBlur stdDeviation="12.5"/>
<feColorMatrix type="matrix" values="0 0 0 0 0 0 0 0 0 0 0 0 0 0 0 0 0 0 0.14906 0"/>
<feBlend mode="normal" in2="BackgroundImageFix" result="effect1_dropShadow"/>
<feBlend mode="normal" in="SourceGraphic" in2="effect1_dropShadow" result="shape"/>
</filter>
</defs>
</svg>
