<svg width="131" height="131" viewBox="0 0 131 131" fill="none" xmlns="http://www.w3.org/2000/svg">
<g filter="url(#filter0_d)">
<path fill-rule="evenodd" clip-rule="evenodd" d="M65.5 91C87.8675 91 106 72.8675 106 50.5C106 28.1325 87.8675 10 65.5 10C43.1325 10 25 28.1325 25 50.5C25 72.8675 43.1325 91 65.5 91Z" fill="white"/>
</g>
<path d="M86.529 30.8087H85.2098C83.7588 30.8087 82.5715 32.0028 82.5715 33.4622C82.5715 40.4672 72.0183 40.4672 72.0183 33.4622C72.0183 29.9599 66.7418 29.9599 66.7418 33.4622V40.0958C66.7418 40.8388 66.1612 41.4225 65.4226 41.4225C64.7101 41.4225 64.1035 40.8388 64.1035 40.0958V33.4621C64.1035 31.9232 64.6311 30.7026 65.4226 29.8535C68.2457 26.8021 74.6567 27.996 74.6567 33.4621C74.6567 36.9646 79.9333 36.9646 79.9333 33.4621C79.9333 30.5435 82.3079 28.1553 85.2098 28.1553H86.529C88.2702 28.1553 88.2966 30.8087 86.529 30.8087Z" fill="#0059AA"/>
<path d="M65.5 41.4225V29.8535C68.3132 26.8021 74.7022 27.996 74.7022 33.4622C74.7022 36.9647 79.9606 36.9647 79.9606 33.4622C79.9606 30.5435 82.327 28.1553 85.2189 28.1553H86.5336C88.2688 28.1553 88.295 30.8088 86.5336 30.8088H85.2189C83.7729 30.8088 82.5897 32.0028 82.5897 33.4622C82.5897 40.4673 72.0729 40.4673 72.0729 33.4622C72.0729 29.9599 66.8145 29.9599 66.8145 33.4622V40.0959C66.8146 40.8389 66.2361 41.4225 65.5 41.4225Z" fill="#08469C"/>
<path d="M67.5949 38.6294H62.0087C61.2265 38.6294 60.6121 39.2502 60.6121 40.04V45.5415C60.6121 46.3034 61.1987 46.9239 61.9527 46.9521C63.1816 47.0087 63.9917 47.0087 64.8017 47.0087C65.6116 47.0087 66.4218 47.0087 67.6508 46.9521C68.4049 46.9239 68.9914 46.3034 68.9914 45.5415V40.04C68.9915 39.2502 68.3769 38.6294 67.5949 38.6294Z" fill="#C5C9F7"/>
<path d="M68.9914 40.04V45.5415C68.9914 46.3034 68.5025 46.9239 67.8742 46.9521C66.8501 47.0087 66.175 47.0087 65.5 47.0087V38.6294H67.8276C68.4793 38.6294 68.9914 39.2502 68.9914 40.04Z" fill="#A8AFF1"/>
<path d="M85.3789 45.5971C85.3789 45.5711 85.3003 45.3112 85.2741 45.3112C84.3051 42.8163 81.4241 41.5429 78.7788 42.3745C75.2691 43.492 70.293 44.0118 65.3429 44.0118C60.3928 44.0118 55.4166 43.4399 52.0116 42.4006C49.4187 41.6208 46.6425 42.8943 45.6997 45.3112L45.6211 45.571C44.0234 49.885 41.6401 63.7365 44.4687 69.7917C45.1497 71.221 46.0926 72.1825 47.2974 72.5985C49.9426 73.586 53.3737 71.611 57.7214 66.5953L63.4571 62.4891C63.9809 62.3592 64.662 62.2811 65.3429 62.2811C66.1023 62.2551 66.8882 62.3332 67.543 62.4891L73.2787 66.5953C76.9192 70.7793 79.9051 72.8323 82.3145 72.8323C84.2789 72.8323 85.6933 71.5589 86.5313 69.7917C89.3599 63.7365 86.9766 49.8851 85.3789 45.5971Z" fill="#E1E4FB"/>
<path d="M86.5405 69.8032C85.7082 71.5711 84.3037 72.845 82.3532 72.845C79.9605 72.845 76.9955 70.7912 73.3804 66.6054L67.6848 62.4975C67.0346 62.3415 66.2542 62.2635 65.5 62.2895V44.0125C70.4155 44.0125 75.3569 43.4926 78.8421 42.3747C81.4689 41.5427 84.3298 42.8166 85.2921 45.3125C85.3181 45.3125 85.3962 45.5724 85.3962 45.5985C86.9827 49.8883 89.3493 63.7455 86.5405 69.8032Z" fill="#C5C9F7"/>
<path d="M55.0259 51.8966H53.6293V50.5001C53.6293 49.7282 53.0047 49.1035 52.2328 49.1035C51.4608 49.1035 50.8362 49.7281 50.8362 50.5001V51.8966H49.4397C48.6678 51.8966 48.0431 52.5212 48.0431 53.2932C48.0431 54.0651 48.6677 54.6897 49.4397 54.6897H50.8362V56.0863C50.8362 56.8582 51.4608 57.4828 52.2328 57.4828C53.0047 57.4828 53.6293 56.8582 53.6293 56.0863V54.6897H55.0259C55.7977 54.6897 56.4224 54.0651 56.4224 53.2932C56.4224 52.5212 55.7977 51.8966 55.0259 51.8966Z" fill="#0D70B2"/>
<path d="M78.069 51.8966C78.8403 51.8966 79.4655 51.2714 79.4655 50.5001C79.4655 49.7288 78.8403 49.1035 78.069 49.1035C77.2977 49.1035 76.6724 49.7288 76.6724 50.5001C76.6724 51.2714 77.2977 51.8966 78.069 51.8966Z" fill="#32D736"/>
<path d="M80.8621 54.6898C81.6334 54.6898 82.2586 54.0646 82.2586 53.2933C82.2586 52.522 81.6334 51.8967 80.8621 51.8967C80.0908 51.8967 79.4655 52.522 79.4655 53.2933C79.4655 54.0646 80.0908 54.6898 80.8621 54.6898Z" fill="#B758CE"/>
<path d="M78.069 56.7846C78.8403 56.7846 79.4655 56.1593 79.4655 55.388C79.4655 54.6167 78.8403 53.9915 78.069 53.9915C77.2977 53.9915 76.6724 54.6167 76.6724 55.388C76.6724 56.1593 77.2977 56.7846 78.069 56.7846Z" fill="#17ACE8"/>
<path d="M75.9741 54.6898C76.7454 54.6898 77.3707 54.0646 77.3707 53.2933C77.3707 52.522 76.7454 51.8967 75.9741 51.8967C75.2028 51.8967 74.5776 52.522 74.5776 53.2933C74.5776 54.0646 75.2028 54.6898 75.9741 54.6898Z" fill="#FD003A"/>
<path d="M62.8815 54.6898H60.4375C59.7621 54.6898 59.2155 54.0652 59.2155 53.2933C59.2155 52.5213 59.762 51.8967 60.4375 51.8967H62.8815C63.5569 51.8967 64.1034 52.5213 64.1034 53.2933C64.1034 54.0652 63.5569 54.6898 62.8815 54.6898Z" fill="#0D70B2"/>
<path d="M70.5625 54.6898H68.1185C67.4431 54.6898 66.8966 54.0652 66.8966 53.2933C66.8966 52.5213 67.4431 51.8967 68.1185 51.8967H70.5625C71.2379 51.8967 71.7845 52.5213 71.7845 53.2933C71.7845 54.0652 71.2379 54.6898 70.5625 54.6898Z" fill="#0059AA"/>
<path d="M58.8664 67.957C55.978 67.957 53.6293 65.6083 53.6293 62.72C53.6293 59.8317 55.9781 57.4829 58.8664 57.4829C61.7547 57.4829 64.1034 59.8317 64.1034 62.72C64.1034 65.6083 61.7548 67.957 58.8664 67.957Z" fill="#0D70B2"/>
<path d="M72.1336 67.957C69.2452 67.957 66.8966 65.6083 66.8966 62.72C66.8966 59.8317 69.2453 57.4829 72.1336 57.4829C75.0219 57.4829 77.3707 59.8317 77.3707 62.72C77.3707 65.6083 75.0219 67.957 72.1336 67.957Z" fill="#0059AA"/>
<defs>
<filter id="filter0_d" x="0" y="0" width="131" height="131" filterUnits="userSpaceOnUse" color-interpolation-filters="sRGB">
<feFlood flood-opacity="0" result="BackgroundImageFix"/>
<feColorMatrix in="SourceAlpha" type="matrix" values="0 0 0 0 0 0 0 0 0 0 0 0 0 0 0 0 0 0 127 0"/>
<feOffset dy="15"/>
<feGaussianBlur stdDeviation="12.5"/>
<feColorMatrix type="matrix" values="0 0 0 0 0 0 0 0 0 0 0 0 0 0 0 0 0 0 0.14906 0"/>
<feBlend mode="normal" in2="BackgroundImageFix" result="effect1_dropShadow"/>
<feBlend mode="normal" in="SourceGraphic" in2="effect1_dropShadow" result="shape"/>
</filter>
</defs>
</svg>
