<svg width="91" height="21" viewBox="0 0 91 21" fill="none" xmlns="http://www.w3.org/2000/svg">
<g opacity="0.303223">
<path d="M11.5285 4.23109C12.6931 5.00628 13.6098 6.14267 14.22 7.42909C14.8329 8.71829 15.1394 10.1575 14.9388 11.5218C14.7382 12.8887 14.0277 14.1779 13.0637 15.1921C12.0996 16.2062 10.8793 16.9481 9.52236 17.4371C8.16825 17.9289 6.68039 18.1678 5.27891 17.8677C3.88021 17.5677 2.56789 16.7258 1.65121 15.5894C0.737325 14.453 0.216297 13.0193 0.0546948 11.5662C-0.106908 10.1103 0.0881298 8.63772 0.65931 7.3124C1.23049 5.98708 2.1806 4.81179 3.38983 4.05605C4.59906 3.30031 6.06463 2.96412 7.50512 3.00302C8.94561 3.04192 10.361 3.45591 11.5285 4.23109Z" fill="#3FAB91"/>
</g>
<g opacity="0.303223">
<path d="M41.2587 4.38058C42.3177 3.56021 43.6158 3.09257 44.948 2.9606C46.2836 2.82697 47.6531 3.02902 48.7934 3.67708C49.9361 4.32608 50.8462 5.42274 51.4319 6.66202C52.0177 7.90131 52.2805 9.28676 52.2762 10.7136C52.2753 12.1387 52.0081 13.6027 51.2926 14.8039C50.578 16.0026 49.4128 16.9377 48.1146 17.4054C46.8173 17.8704 45.3837 17.8697 44.0485 17.5282C42.7108 17.1859 41.473 16.5063 40.4862 15.5269C39.4994 14.5476 38.7669 13.2667 38.4882 11.8869C38.2095 10.5071 38.3836 9.03102 38.881 7.70512C39.3784 6.37922 40.1989 5.20354 41.2587 4.38058Z" fill="#3FAB91"/>
</g>
<g opacity="0.303223">
<path d="M87.5465 8.70706C87.8618 10.0353 87.7597 11.4563 87.3391 12.7803C86.9186 14.1083 86.1796 15.3393 85.1286 16.1793C84.0757 17.0214 82.7108 17.4686 81.3479 17.5507C79.9851 17.6329 78.6205 17.3502 77.3268 16.7962C76.0332 16.246 74.8124 15.4264 74.012 14.2796C73.2135 13.1347 72.8373 11.6606 72.9393 10.2397C73.0434 8.82055 73.6256 7.45071 74.4773 6.30619C75.3308 5.15967 76.45 4.2386 77.7395 3.67292C79.0291 3.10724 80.4892 2.90079 81.8551 3.16618C83.2209 3.43157 84.4905 4.16693 85.4926 5.15329C86.4947 6.13964 87.2293 7.37698 87.5465 8.70706Z" fill="#3FAB91"/>
</g>
</svg>
