<svg width="166" height="166" viewBox="0 0 166 166" fill="none" xmlns="http://www.w3.org/2000/svg">
<g filter="url(#filter0_d)">
<path fill-rule="evenodd" clip-rule="evenodd" d="M83 126C115.033 126 141 100.033 141 68C141 35.9675 115.033 10 83 10C50.9675 10 25 35.9675 25 68C25 100.033 50.9675 126 83 126Z" fill="white"/>
</g>
<path d="M113.116 39.8H111.226C109.148 39.8 107.448 41.51 107.448 43.6001C107.448 53.632 92.3349 53.632 92.3349 43.6001C92.3349 38.5843 84.7783 38.5843 84.7783 43.6001V53.1C84.7783 54.1641 83.9469 55 82.8892 55C81.8688 55 81 54.1641 81 53.1V43.5999C81 41.3961 81.7557 39.648 82.8892 38.432C86.932 34.0621 96.1133 35.772 96.1133 43.5999C96.1133 48.6159 103.67 48.6159 103.67 43.5999C103.67 39.4201 107.071 36 111.226 36H113.116C115.609 36 115.647 39.8 113.116 39.8Z" fill="#0059AA"/>
<path d="M83 55V38.432C87.0288 34.0621 96.1785 35.772 96.1785 43.6C96.1785 48.616 103.709 48.616 103.709 43.6C103.709 39.4202 107.098 36 111.239 36H113.122C115.607 36 115.645 39.8001 113.122 39.8001H111.239C109.169 39.8001 107.474 41.5101 107.474 43.6001C107.474 53.6321 92.413 53.6321 92.413 43.6001C92.413 38.5844 84.8825 38.5844 84.8825 43.6001V53.1001C84.8827 54.1642 84.0542 55 83 55Z" fill="#08469C"/>
<path d="M86.0001 51H78C76.8799 51 76 51.8891 76 53.0202V60.8988C76 61.9899 76.8402 62.8786 77.9199 62.919C79.6799 63 80.84 63 82 63C83.1599 63 84.3201 63 86.0801 62.919C87.1601 62.8786 88 61.9899 88 60.8988V53.0202C88.0001 51.8891 87.1201 51 86.0001 51Z" fill="#C5C9F7"/>
<path d="M88 53.0202V60.8988C88 61.9899 87.2999 62.8786 86.4001 62.919C84.9334 63 83.9667 63 83 63V51H86.3334C87.2666 51 88 51.8891 88 53.0202Z" fill="#A8AFF1"/>
<path d="M111.469 60.9783C111.469 60.941 111.356 60.5689 111.318 60.5689C109.931 56.9959 105.805 55.1723 102.017 56.3633C96.9904 57.9636 89.864 58.708 82.775 58.708C75.6859 58.708 68.5596 57.889 63.6833 56.4006C59.97 55.2839 55.9942 57.1077 54.644 60.5689L54.5314 60.9409C52.2434 67.1191 48.8303 86.9557 52.881 95.6274C53.8563 97.6744 55.2067 99.0512 56.932 99.647C60.7203 101.061 65.6339 98.2327 71.8603 91.0498L80.0743 85.1693C80.8245 84.9833 81.7999 84.8715 82.775 84.8715C83.8626 84.8343 84.9881 84.9461 85.9258 85.1693L94.1398 91.0498C99.3535 97.0417 103.63 99.9818 107.08 99.9818C109.893 99.9818 111.919 98.1581 113.119 95.6274C117.17 86.9557 113.757 67.1192 111.469 60.9783Z" fill="#E1E4FB"/>
<path d="M113.132 95.6438C111.94 98.1756 109.929 100 107.135 100C103.709 100 99.4627 97.0587 94.2855 91.0643L86.1288 85.1814C85.1976 84.958 84.0801 84.8462 83 84.8835V58.7091C90.0396 58.7091 97.1161 57.9644 102.107 56.3635C105.869 55.172 109.966 56.9964 111.344 60.5708C111.381 60.5708 111.493 60.943 111.493 60.9803C113.765 67.1238 117.155 86.9686 113.132 95.6438Z" fill="#C5C9F7"/>
<path d="M68 70H66V68C66 66.8946 65.1055 66 64 66C62.8945 66 62 66.8945 62 68V70H60C58.8946 70 58 70.8945 58 72C58 73.1055 58.8945 74 60 74H62V76C62 77.1054 62.8945 78 64 78C65.1055 78 66 77.1055 66 76V74H68C69.1054 74 70 73.1055 70 72C70 70.8945 69.1054 70 68 70Z" fill="#0D70B2"/>
<path d="M101 70C102.105 70 103 69.1046 103 68C103 66.8954 102.105 66 101 66C99.8954 66 99 66.8954 99 68C99 69.1046 99.8954 70 101 70Z" fill="#32D736"/>
<path d="M105 74C106.105 74 107 73.1046 107 72C107 70.8954 106.105 70 105 70C103.895 70 103 70.8954 103 72C103 73.1046 103.895 74 105 74Z" fill="#B758CE"/>
<path d="M101 77C102.105 77 103 76.1046 103 75C103 73.8954 102.105 73 101 73C99.8954 73 99 73.8954 99 75C99 76.1046 99.8954 77 101 77Z" fill="#17ACE8"/>
<path d="M98 74C99.1046 74 100 73.1046 100 72C100 70.8954 99.1046 70 98 70C96.8954 70 96 70.8954 96 72C96 73.1046 96.8954 74 98 74Z" fill="#FD003A"/>
<path d="M79.25 74H75.75C74.7828 74 74 73.1055 74 72C74 70.8945 74.7827 70 75.75 70H79.25C80.2172 70 81 70.8945 81 72C81 73.1055 80.2172 74 79.25 74Z" fill="#0D70B2"/>
<path d="M90.25 74H86.75C85.7828 74 85 73.1055 85 72C85 70.8945 85.7827 70 86.75 70H90.25C91.2172 70 92 70.8945 92 72C92 73.1055 91.2172 74 90.25 74Z" fill="#0059AA"/>
<path d="M73.5 93C69.3635 93 66 89.6363 66 85.5C66 81.3637 69.3637 78 73.5 78C77.6363 78 81 81.3637 81 85.5C81 89.6363 77.6365 93 73.5 93Z" fill="#0D70B2"/>
<path d="M92.5 93C88.3635 93 85 89.6363 85 85.5C85 81.3637 88.3637 78 92.5 78C96.6363 78 100 81.3637 100 85.5C100 89.6363 96.6363 93 92.5 93Z" fill="#0059AA"/>
<defs>
<filter id="filter0_d" x="0" y="0" width="166" height="166" filterUnits="userSpaceOnUse" color-interpolation-filters="sRGB">
<feFlood flood-opacity="0" result="BackgroundImageFix"/>
<feColorMatrix in="SourceAlpha" type="matrix" values="0 0 0 0 0 0 0 0 0 0 0 0 0 0 0 0 0 0 127 0"/>
<feOffset dy="15"/>
<feGaussianBlur stdDeviation="12.5"/>
<feColorMatrix type="matrix" values="0 0 0 0 0 0 0 0 0 0 0 0 0 0 0 0 0 0 0.14906 0"/>
<feBlend mode="normal" in2="BackgroundImageFix" result="effect1_dropShadow"/>
<feBlend mode="normal" in="SourceGraphic" in2="effect1_dropShadow" result="shape"/>
</filter>
</defs>
</svg>
