<svg width="25" height="25" viewBox="0 0 25 25" fill="none" xmlns="http://www.w3.org/2000/svg">
<path d="M19.2141 2.05182C21.1552 3.3438 22.683 5.23778 23.7 7.38182C24.7216 9.53049 25.2324 11.9292 24.898 14.2029C24.5637 16.4812 23.3795 18.6299 21.7728 20.3201C20.1661 22.0104 18.1321 23.2468 15.8706 24.0618C13.6137 24.8814 11.134 25.2797 8.79818 24.7796C6.46702 24.2794 4.27982 22.8763 2.75202 20.9823C1.22888 19.0884 0.360495 16.6989 0.091158 14.277C-0.178179 11.8505 0.146883 9.3962 1.09885 7.18733C2.05082 4.97846 3.63434 3.01965 5.64972 1.76009C7.66511 0.500523 10.1077 -0.0597984 12.5085 0.00503209C14.9093 0.0698626 17.2684 0.759845 19.2141 2.05182Z" fill="#FCE99B"/>
</svg>
