<?xml version="1.0" encoding="UTF-8"?>
<svg width="88px" height="16px" viewBox="0 0 88 16" version="1.1" xmlns="http://www.w3.org/2000/svg" xmlns:xlink="http://www.w3.org/1999/xlink">
    <!-- Generator: Sketch 57.1 (83088) - https://sketch.com -->
    <title>编组 5</title>
    <desc>Created with Sketch.</desc>
    <g id="页面-1" stroke="none" stroke-width="1" fill="none" fill-rule="evenodd" fill-opacity="0.929987981" opacity="0.395810082">
        <g id="画板" transform="translate(-675.000000, -2024.000000)" fill="#70BDB4" fill-rule="nonzero">
            <g id="编组-5" transform="translate(675.000000, 2022.000000)">
                <g id="blob-shape-(2)" transform="translate(0.000000, 2.246451)">
                    <path d="M11.5284604,1.9846434 C12.6931117,2.75983129 13.609787,3.89621784 14.2199751,5.18264075 C14.8329495,6.47184212 15.1394367,7.91107985 14.9388269,9.2752994 C14.7382171,10.6422974 14.0277241,11.9314988 13.0636826,12.9456335 C12.0996411,13.9597681 10.8792648,14.7016146 9.5223625,15.190622 C8.1682464,15.6824079 6.68039044,15.9213547 5.27890815,15.621282 C3.88021209,15.3212092 2.5678897,14.4793385 1.6512144,13.342952 C0.737325348,12.2065654 0.216297137,10.7728846 0.0546948045,9.31975462 C-0.106907528,7.86384618 0.0881297699,6.39126703 0.659310428,5.0659458 C1.23049109,3.74062457 2.18060135,2.56533971 3.3898326,1.80960098 C4.59906385,1.05386225 6.06462983,0.717669648 7.50511959,0.756567965 C8.94560935,0.795466282 10.3610229,1.20945551 11.5284604,1.9846434 Z" id="路径"></path>
                </g>
                <g id="blob-shape-(2)" transform="translate(36.000000, 0.246451)">
                    <path d="M13.5714102,4.00436119 C14.7044766,4.718842 15.5879263,5.7788038 16.1675726,6.98550783 C16.7499149,8.19479479 17.0284537,9.55082398 16.8094749,10.8439794 C16.5904519,12.1397621 15.8712152,13.3700881 14.9069961,14.3443496 C13.942777,15.3186112 12.7307911,16.0394799 11.3885564,16.5234416 C10.0490178,17.0099863 8.58197049,17.2595797 7.20843709,16.9981189 C5.83764386,16.7366138 4.56040869,15.9614271 3.67695901,14.9014653 C2.7962495,13.8414592 2.30662949,12.494095 2.17080011,11.1226265 C2.03501489,9.74853077 2.25023597,8.35300223 2.83303855,7.09073698 C3.41584113,5.82847173 4.3689212,4.70205271 5.57016725,3.9682251 C6.77141331,3.23439749 8.21808517,2.89320558 9.63413276,2.90708738 C11.0501804,2.92096918 12.4356037,3.28992469 13.5714102,4.00436119 Z" id="路径" transform="translate(9.507747, 10.005131) rotate(-70.000000) translate(-9.507747, -10.005131) "></path>
                </g>
                <g id="blob-shape-(2)" transform="translate(70.000000, 0.000000)">
                    <path d="M14.4308008,4.38306816 C15.5672181,5.13946361 16.461671,6.24830139 17.0570666,7.5035383 C17.655181,8.7614863 17.9542382,10.1658334 17.7584917,11.496981 C17.5627452,12.8308396 16.8694762,14.0887876 15.9288054,15.0783372 C14.9881346,16.0678868 13.7973433,16.7917492 12.4733355,17.2689019 C11.1520465,17.7487656 9.70025977,17.9819198 8.3327528,17.6891216 C6.96796453,17.3963233 5.68745601,16.5748616 4.79300314,15.4660238 C3.90126898,14.357186 3.39287175,12.9582611 3.23518705,11.5403585 C3.07750235,10.1197448 3.26781147,8.68286455 3.82514533,7.38967232 C4.38247918,6.09648008 5.30955647,4.94968697 6.48947302,4.21226918 C7.66938957,3.47485139 9.09942668,3.14680892 10.5049955,3.18476424 C11.9105643,3.22271957 13.2916648,3.6266727 14.4308008,4.38306816 Z" id="路径" transform="translate(10.500000, 10.500000) rotate(43.000000) translate(-10.500000, -10.500000) "></path>
                </g>
            </g>
        </g>
    </g>
</svg>