<?xml version="1.0" encoding="UTF-8"?>
<svg width="40px" height="41px" viewBox="0 0 40 41" version="1.1" xmlns="http://www.w3.org/2000/svg" xmlns:xlink="http://www.w3.org/1999/xlink">
    <!-- Generator: Sketch 57.1 (83088) - https://sketch.com -->
    <title>blob-shape (2)</title>
    <desc>Created with Sketch.</desc>
    <g id="页面-1" stroke="none" stroke-width="1" fill="none" fill-rule="evenodd" fill-opacity="0.45" opacity="0.395810082">
        <g id="画板" transform="translate(-275.000000, -437.000000)" fill="#70BDB4" fill-rule="nonzero">
            <g id="blob-shape-(2)" transform="translate(275.000000, 437.000000)">
                <path d="M30.7425611,3.36499216 C33.8482979,5.48383906 36.2927654,8.58996229 37.9199337,12.1061849 C39.554532,15.630002 40.3718312,19.5639184 39.8368717,23.2927852 C39.3019123,27.0292464 37.4072642,30.5530635 34.8364869,33.3250316 C32.2657096,36.0969998 29.0113729,38.1247135 25.3929667,39.4613338 C21.7819904,40.8055485 17.8143745,41.4586697 14.0770884,40.6384709 C10.3472322,39.8182721 6.84770587,37.5171588 4.4032384,34.4110356 C1.96620093,31.3049124 0.576792366,27.3861848 0.145852812,23.4142961 C-0.285086742,19.4348131 0.23501272,15.4097634 1.75816114,11.7872187 C3.28130957,8.16467403 5.81493694,4.95222873 9.0395536,2.88654286 C12.2641703,0.820856998 16.1723462,-0.0980694347 20.0136522,0.00825263187 C23.8549583,0.114574698 27.6293944,1.24614526 30.7425611,3.36499216 Z" id="路径"></path>
            </g>
        </g>
    </g>
</svg>