<svg width="735" height="462" viewBox="0 0 735 462" fill="none" xmlns="http://www.w3.org/2000/svg">
<rect y="373" width="331" height="89" rx="6" fill="#41988E" fill-opacity="0.1023"/>
<path d="M56.7816 411H66.5016V408.024H60.3096V395.352H56.7816V411ZM74.6653 411.288C76.0813 411.288 77.6653 410.784 78.8893 409.944L77.7133 407.808C76.8493 408.336 76.0333 408.6 75.1453 408.6C73.5613 408.6 72.3613 407.808 72.0493 406.08H79.1773C79.2493 405.792 79.3213 405.144 79.3213 404.52C79.3213 401.28 77.6413 398.808 74.2573 398.808C71.4013 398.808 68.6413 401.184 68.6413 405.048C68.6413 408.984 71.2573 411.288 74.6653 411.288ZM72.0253 403.752C72.2653 402.24 73.2253 401.496 74.3293 401.496C75.7453 401.496 76.3213 402.432 76.3213 403.752H72.0253ZM85.2514 411.288C86.5954 411.288 87.6994 410.664 88.7074 409.776H88.8034L89.0434 411H91.9234V404.184C91.9234 400.536 90.2434 398.808 87.1954 398.808C85.3234 398.808 83.6194 399.456 82.1074 400.368L83.3794 402.696C84.5314 402.024 85.5154 401.616 86.5234 401.616C87.8194 401.616 88.3234 402.288 88.3954 403.344C83.6914 403.824 81.6994 405.192 81.6994 407.688C81.6994 409.704 83.0674 411.288 85.2514 411.288ZM86.4514 408.552C85.6114 408.552 85.0834 408.192 85.0834 407.424C85.0834 406.512 85.8994 405.792 88.3954 405.456V407.544C87.7714 408.168 87.2434 408.552 86.4514 408.552ZM98.3937 411H102.474L106.362 399.096H102.978L101.418 404.712C101.106 405.888 100.794 407.136 100.506 408.384H100.41C100.098 407.136 99.7857 405.888 99.4737 404.712L97.9377 399.096H94.3857L98.3937 411ZM114.111 411.288C115.527 411.288 117.111 410.784 118.335 409.944L117.159 407.808C116.295 408.336 115.479 408.6 114.591 408.6C113.007 408.6 111.807 407.808 111.495 406.08H118.623C118.695 405.792 118.767 405.144 118.767 404.52C118.767 401.28 117.087 398.808 113.703 398.808C110.847 398.808 108.087 401.184 108.087 405.048C108.087 408.984 110.703 411.288 114.111 411.288ZM111.471 403.752C111.711 402.24 112.671 401.496 113.775 401.496C115.191 401.496 115.767 402.432 115.767 403.752H111.471ZM127.509 411H131.037V402.96C131.781 402.192 132.477 401.808 133.053 401.808C134.061 401.808 134.517 402.336 134.517 404.064V411H138.045V402.96C138.813 402.192 139.485 401.808 140.085 401.808C141.093 401.808 141.549 402.336 141.549 404.064V411H145.077V403.608C145.077 400.632 143.925 398.808 141.357 398.808C139.773 398.808 138.669 399.72 137.613 400.8C137.013 399.528 136.005 398.808 134.325 398.808C132.765 398.808 131.709 399.648 130.725 400.632H130.629L130.389 399.096H127.509V411ZM153.949 411.288C156.949 411.288 159.733 409.008 159.733 405.048C159.733 401.088 156.949 398.808 153.949 398.808C150.925 398.808 148.141 401.088 148.141 405.048C148.141 409.008 150.925 411.288 153.949 411.288ZM153.949 408.432C152.485 408.432 151.765 407.112 151.765 405.048C151.765 402.984 152.485 401.664 153.949 401.664C155.389 401.664 156.133 402.984 156.133 405.048C156.133 407.112 155.389 408.432 153.949 408.432ZM162.9 411H166.428V404.088C167.052 402.48 168.156 401.904 169.044 401.904C169.548 401.904 169.908 401.976 170.34 402.096L170.916 399.048C170.58 398.904 170.172 398.808 169.5 398.808C168.276 398.808 166.98 399.576 166.116 401.184H166.02L165.78 399.096H162.9V411ZM178.306 411.288C179.722 411.288 181.306 410.784 182.53 409.944L181.354 407.808C180.49 408.336 179.674 408.6 178.786 408.6C177.202 408.6 176.002 407.808 175.69 406.08H182.818C182.89 405.792 182.962 405.144 182.962 404.52C182.962 401.28 181.282 398.808 177.898 398.808C175.042 398.808 172.282 401.184 172.282 405.048C172.282 408.984 174.898 411.288 178.306 411.288ZM175.666 403.752C175.906 402.24 176.866 401.496 177.97 401.496C179.386 401.496 179.962 402.432 179.962 403.752H175.666ZM196.289 411.288C197.441 411.288 198.305 411.048 198.929 410.856L198.377 408.288C198.065 408.408 197.633 408.528 197.249 408.528C196.313 408.528 195.713 407.976 195.713 406.632V401.856H198.569V399.096H195.713V395.928H192.785L192.377 399.096L190.553 399.24V401.856H192.185V406.68C192.185 409.44 193.337 411.288 196.289 411.288ZM201.642 411H205.17V399.096H201.642V411ZM203.394 397.344C204.594 397.344 205.434 396.576 205.434 395.496C205.434 394.416 204.594 393.672 203.394 393.672C202.218 393.672 201.354 394.416 201.354 395.496C201.354 396.576 202.218 397.344 203.394 397.344ZM209.025 411H212.553V402.96C213.297 402.192 213.993 401.808 214.569 401.808C215.577 401.808 216.033 402.336 216.033 404.064V411H219.561V402.96C220.329 402.192 221.001 401.808 221.601 401.808C222.609 401.808 223.065 402.336 223.065 404.064V411H226.593V403.608C226.593 400.632 225.441 398.808 222.873 398.808C221.289 398.808 220.185 399.72 219.129 400.8C218.529 399.528 217.521 398.808 215.841 398.808C214.281 398.808 213.225 399.648 212.241 400.632H212.145L211.905 399.096H209.025V411ZM235.681 411.288C237.097 411.288 238.681 410.784 239.905 409.944L238.729 407.808C237.865 408.336 237.049 408.6 236.161 408.6C234.577 408.6 233.377 407.808 233.065 406.08H240.193C240.265 405.792 240.337 405.144 240.337 404.52C240.337 401.28 238.657 398.808 235.273 398.808C232.417 398.808 229.657 401.184 229.657 405.048C229.657 408.984 232.273 411.288 235.681 411.288ZM233.041 403.752C233.281 402.24 234.241 401.496 235.345 401.496C236.761 401.496 237.337 402.432 237.337 403.752H233.041ZM254.192 411.288C257.192 411.288 259.976 409.008 259.976 405.048C259.976 401.088 257.192 398.808 254.192 398.808C251.168 398.808 248.384 401.088 248.384 405.048C248.384 409.008 251.168 411.288 254.192 411.288ZM254.192 408.432C252.728 408.432 252.008 407.112 252.008 405.048C252.008 402.984 252.728 401.664 254.192 401.664C255.632 401.664 256.376 402.984 256.376 405.048C256.376 407.112 255.632 408.432 254.192 408.432ZM263.142 411H266.67V402.96C267.438 402.216 267.99 401.808 268.878 401.808C269.886 401.808 270.342 402.336 270.342 404.064V411H273.87V403.608C273.87 400.632 272.766 398.808 270.174 398.808C268.566 398.808 267.366 399.648 266.358 400.608H266.262L266.022 399.096H263.142V411ZM46.7143 439.288C47.8663 439.288 49.0423 438.664 49.8823 437.824H49.9783L50.2183 439H53.0983V422.176H49.5703V426.232L49.7143 428.056C48.8983 427.288 48.1063 426.808 46.7863 426.808C44.2663 426.808 41.8423 429.16 41.8423 433.048C41.8423 436.936 43.7623 439.288 46.7143 439.288ZM47.6263 436.408C46.2583 436.408 45.4663 435.352 45.4663 433C45.4663 430.744 46.4743 429.688 47.6023 429.688C48.2503 429.688 48.9463 429.88 49.5703 430.456V435.328C48.9943 436.12 48.3943 436.408 47.6263 436.408ZM62.3021 439.288C63.7181 439.288 65.3021 438.784 66.5261 437.944L65.3501 435.808C64.4861 436.336 63.6701 436.6 62.7821 436.6C61.1981 436.6 59.9981 435.808 59.6861 434.08H66.8141C66.8861 433.792 66.9581 433.144 66.9581 432.52C66.9581 429.28 65.2781 426.808 61.8941 426.808C59.0381 426.808 56.2781 429.184 56.2781 433.048C56.2781 436.984 58.8941 439.288 62.3021 439.288ZM59.6621 431.752C59.9021 430.24 60.8621 429.496 61.9661 429.496C63.3821 429.496 63.9581 430.432 63.9581 431.752H59.6621ZM73.6499 439.288C76.8419 439.288 78.5459 437.608 78.5459 435.448C78.5459 433.264 76.8419 432.424 75.3299 431.872C74.1059 431.416 73.0019 431.128 73.0019 430.36C73.0019 429.76 73.4339 429.424 74.3459 429.424C75.1859 429.424 76.0019 429.808 76.8659 430.432L78.4499 428.32C77.4179 427.552 76.0739 426.808 74.2499 426.808C71.4899 426.808 69.6899 428.32 69.6899 430.528C69.6899 432.496 71.3939 433.48 72.8339 434.032C74.0579 434.512 75.2579 434.872 75.2579 435.664C75.2579 436.288 74.8019 436.672 73.7459 436.672C72.7379 436.672 71.7539 436.24 70.6739 435.424L69.0899 437.632C70.2899 438.616 72.0899 439.288 73.6499 439.288ZM81.5366 439H85.0646V427.096H81.5366V439ZM83.2886 425.344C84.4886 425.344 85.3286 424.576 85.3286 423.496C85.3286 422.416 84.4886 421.672 83.2886 421.672C82.1126 421.672 81.2486 422.416 81.2486 423.496C81.2486 424.576 82.1126 425.344 83.2886 425.344ZM93.1674 444.064C97.2474 444.064 99.8154 442.264 99.8154 439.792C99.8154 437.656 98.2074 436.768 95.2794 436.768H93.3594C92.0394 436.768 91.5594 436.48 91.5594 435.88C91.5594 435.472 91.6794 435.256 91.9914 434.992C92.5194 435.16 92.9994 435.232 93.4314 435.232C96.0474 435.232 98.1114 433.96 98.1114 431.224C98.1114 430.6 97.9434 430.024 97.7274 429.664H99.6234V427.096H95.2794C94.7514 426.904 94.1034 426.808 93.4314 426.808C90.8634 426.808 88.5114 428.248 88.5114 431.104C88.5114 432.496 89.2794 433.624 90.1194 434.2V434.296C89.3514 434.824 88.7754 435.664 88.7754 436.528C88.7754 437.512 89.2554 438.136 89.8794 438.544V438.64C88.7754 439.264 88.1754 440.056 88.1754 441.04C88.1754 443.152 90.3834 444.064 93.1674 444.064ZM93.4314 433.096C92.4954 433.096 91.7994 432.424 91.7994 431.104C91.7994 429.832 92.4954 429.184 93.4314 429.184C94.3674 429.184 95.0634 429.856 95.0634 431.104C95.0634 432.424 94.3674 433.096 93.4314 433.096ZM93.7194 441.856C92.1354 441.856 91.0794 441.376 91.0794 440.488C91.0794 440.056 91.2954 439.696 91.7274 439.312C92.1114 439.408 92.5914 439.456 93.4074 439.456H94.6314C95.8074 439.456 96.4554 439.648 96.4554 440.392C96.4554 441.208 95.3034 441.856 93.7194 441.856ZM102.49 439H106.018V430.96C106.786 430.216 107.338 429.808 108.226 429.808C109.234 429.808 109.69 430.336 109.69 432.064V439H113.218V431.608C113.218 428.632 112.114 426.808 109.522 426.808C107.914 426.808 106.714 427.648 105.706 428.608H105.61L105.37 427.096H102.49V439ZM125.529 439.288C126.873 439.288 127.977 438.664 128.985 437.776H129.081L129.321 439H132.201V432.184C132.201 428.536 130.521 426.808 127.473 426.808C125.601 426.808 123.897 427.456 122.385 428.368L123.657 430.696C124.809 430.024 125.793 429.616 126.801 429.616C128.097 429.616 128.601 430.288 128.673 431.344C123.969 431.824 121.977 433.192 121.977 435.688C121.977 437.704 123.345 439.288 125.529 439.288ZM126.729 436.552C125.889 436.552 125.361 436.192 125.361 435.424C125.361 434.512 126.177 433.792 128.673 433.456V435.544C128.049 436.168 127.521 436.552 126.729 436.552ZM135.935 439H139.463V430.96C140.231 430.216 140.783 429.808 141.671 429.808C142.679 429.808 143.135 430.336 143.135 432.064V439H146.663V431.608C146.663 428.632 145.559 426.808 142.967 426.808C141.359 426.808 140.159 427.648 139.151 428.608H139.055L138.815 427.096H135.935V439ZM154.667 439.288C155.819 439.288 156.995 438.664 157.835 437.824H157.931L158.171 439H161.051V422.176H157.523V426.232L157.667 428.056C156.851 427.288 156.059 426.808 154.739 426.808C152.219 426.808 149.795 429.16 149.795 433.048C149.795 436.936 151.715 439.288 154.667 439.288ZM155.579 436.408C154.211 436.408 153.419 435.352 153.419 433C153.419 430.744 154.427 429.688 155.555 429.688C156.203 429.688 156.899 429.88 157.523 430.456V435.328C156.947 436.12 156.347 436.408 155.579 436.408ZM170.482 439H174.01V427.096H170.482V439ZM172.234 425.344C173.434 425.344 174.274 424.576 174.274 423.496C174.274 422.416 173.434 421.672 172.234 421.672C171.058 421.672 170.194 422.416 170.194 423.496C170.194 424.576 171.058 425.344 172.234 425.344ZM177.865 439H181.393V430.96C182.161 430.216 182.713 429.808 183.601 429.808C184.609 429.808 185.065 430.336 185.065 432.064V439H188.593V431.608C188.593 428.632 187.489 426.808 184.897 426.808C183.289 426.808 182.089 427.648 181.081 428.608H180.985L180.745 427.096H177.865V439ZM192.349 439H195.877V430.96C196.645 430.216 197.197 429.808 198.085 429.808C199.093 429.808 199.549 430.336 199.549 432.064V439H203.077V431.608C203.077 428.632 201.973 426.808 199.381 426.808C197.773 426.808 196.573 427.648 195.565 428.608H195.469L195.229 427.096H192.349V439ZM211.945 439.288C214.945 439.288 217.729 437.008 217.729 433.048C217.729 429.088 214.945 426.808 211.945 426.808C208.921 426.808 206.137 429.088 206.137 433.048C206.137 437.008 208.921 439.288 211.945 439.288ZM211.945 436.432C210.481 436.432 209.761 435.112 209.761 433.048C209.761 430.984 210.481 429.664 211.945 429.664C213.385 429.664 214.129 430.984 214.129 433.048C214.129 435.112 213.385 436.432 211.945 436.432ZM223.444 439H227.524L231.412 427.096H228.028L226.468 432.712C226.156 433.888 225.844 435.136 225.556 436.384H225.46C225.148 435.136 224.836 433.888 224.524 432.712L222.988 427.096H219.436L223.444 439ZM236.552 439.288C237.896 439.288 239 438.664 240.008 437.776H240.104L240.344 439H243.224V432.184C243.224 428.536 241.544 426.808 238.496 426.808C236.624 426.808 234.92 427.456 233.408 428.368L234.68 430.696C235.832 430.024 236.816 429.616 237.824 429.616C239.12 429.616 239.624 430.288 239.696 431.344C234.992 431.824 233 433.192 233 435.688C233 437.704 234.368 439.288 236.552 439.288ZM237.752 436.552C236.912 436.552 236.384 436.192 236.384 435.424C236.384 434.512 237.2 433.792 239.696 433.456V435.544C239.072 436.168 238.544 436.552 237.752 436.552ZM251.121 439.288C252.273 439.288 253.137 439.048 253.761 438.856L253.209 436.288C252.897 436.408 252.465 436.528 252.081 436.528C251.145 436.528 250.545 435.976 250.545 434.632V429.856H253.401V427.096H250.545V423.928H247.617L247.209 427.096L245.385 427.24V429.856H247.017V434.68C247.017 437.44 248.169 439.288 251.121 439.288ZM256.474 439H260.002V427.096H256.474V439ZM258.226 425.344C259.426 425.344 260.266 424.576 260.266 423.496C260.266 422.416 259.426 421.672 258.226 421.672C257.05 421.672 256.186 422.416 256.186 423.496C256.186 424.576 257.05 425.344 258.226 425.344ZM268.969 439.288C271.969 439.288 274.753 437.008 274.753 433.048C274.753 429.088 271.969 426.808 268.969 426.808C265.945 426.808 263.161 429.088 263.161 433.048C263.161 437.008 265.945 439.288 268.969 439.288ZM268.969 436.432C267.505 436.432 266.785 435.112 266.785 433.048C266.785 430.984 267.505 429.664 268.969 429.664C270.409 429.664 271.153 430.984 271.153 433.048C271.153 435.112 270.409 436.432 268.969 436.432ZM277.919 439H281.447V430.96C282.215 430.216 282.767 429.808 283.655 429.808C284.663 429.808 285.119 430.336 285.119 432.064V439H288.647V431.608C288.647 428.632 287.543 426.808 284.951 426.808C283.343 426.808 282.143 427.648 281.135 428.608H281.039L280.799 427.096H277.919V439Z" fill="#4A4A4A"/>
<path d="M354.5 39C354.5 38.1716 353.828 37.5 353 37.5C352.172 37.5 351.5 38.1716 351.5 39H354.5ZM353 76.0785V77.5785C353.828 77.5785 354.5 76.9069 354.5 76.0785H353ZM166 76.0785V74.5785C165.172 74.5785 164.5 75.25 164.5 76.0785H166ZM164.939 374.061C165.525 374.646 166.475 374.646 167.061 374.061L176.607 364.515C177.192 363.929 177.192 362.979 176.607 362.393C176.021 361.808 175.071 361.808 174.485 362.393L166 370.879L157.515 362.393C156.929 361.808 155.979 361.808 155.393 362.393C154.808 362.979 154.808 363.929 155.393 364.515L164.939 374.061ZM351.5 39V76.0785H354.5V39H351.5ZM353 74.5785H166V77.5785H353V74.5785ZM164.5 76.0785V373H167.5V76.0785H164.5Z" fill="#41988E"/>
<path d="M379.5 39C379.5 38.1716 380.172 37.5 381 37.5C381.828 37.5 382.5 38.1716 382.5 39H379.5ZM381 76.0785V77.5785C380.172 77.5785 379.5 76.9069 379.5 76.0785H381ZM568 76.0785V74.5785C568.828 74.5785 569.5 75.25 569.5 76.0785H568ZM569.061 374.061C568.475 374.646 567.525 374.646 566.939 374.061L557.393 364.515C556.808 363.929 556.808 362.979 557.393 362.393C557.979 361.808 558.929 361.808 559.515 362.393L568 370.879L576.485 362.393C577.071 361.808 578.021 361.808 578.607 362.393C579.192 362.979 579.192 363.929 578.607 364.515L569.061 374.061ZM382.5 39V76.0785H379.5V39H382.5ZM381 74.5785H568V77.5785H381V74.5785ZM569.5 76.0785V373H566.5V76.0785H569.5Z" fill="#41988E"/>
<rect y="96" width="331" height="110" rx="6" fill="#F8F8F8"/>
<path d="M67.2277 134H76.1517V132.367H69.1367V126.893H74.8637V125.26H69.1367V120.522H75.9217V118.912H67.2277V134ZM82.4986 134.276C83.9016 134.276 85.1436 133.54 86.2016 132.666H86.2706L86.4316 134H87.9956V127.146C87.9956 124.363 86.8456 122.546 84.1086 122.546C82.3146 122.546 80.7506 123.328 79.7156 123.995L80.4516 125.306C81.3256 124.708 82.4986 124.11 83.7866 124.11C85.6266 124.11 86.0866 125.49 86.0866 126.916C81.3256 127.445 79.2326 128.664 79.2326 131.102C79.2326 133.103 80.6356 134.276 82.4986 134.276ZM83.0506 132.758C81.9466 132.758 81.0726 132.229 81.0726 130.964C81.0726 129.538 82.3606 128.618 86.0866 128.158V131.263C85.0056 132.229 84.1316 132.758 83.0506 132.758ZM95.1835 134.276C97.8285 134.276 99.2775 132.758 99.2775 130.941C99.2775 128.825 97.4835 128.158 95.8735 127.56C94.6085 127.077 93.3895 126.686 93.3895 125.628C93.3895 124.777 94.0335 124.018 95.4365 124.018C96.4255 124.018 97.2305 124.432 97.9895 125.007L98.8865 123.811C98.0355 123.121 96.8165 122.546 95.4135 122.546C92.9985 122.546 91.5725 123.926 91.5725 125.72C91.5725 127.606 93.3205 128.365 94.9075 128.94C96.1265 129.4 97.4605 129.906 97.4605 131.056C97.4605 132.022 96.7245 132.804 95.2525 132.804C93.9185 132.804 92.9295 132.252 91.9635 131.47L91.0205 132.735C92.0785 133.609 93.5965 134.276 95.1835 134.276ZM102.648 134H104.534V122.822H102.648V134ZM103.614 120.522C104.35 120.522 104.925 120.016 104.925 119.303C104.925 118.567 104.35 118.084 103.614 118.084C102.878 118.084 102.303 118.567 102.303 119.303C102.303 120.016 102.878 120.522 103.614 120.522ZM113.589 134.276C115.107 134.276 116.303 133.747 117.269 133.126L116.602 131.884C115.774 132.413 114.877 132.758 113.819 132.758C111.68 132.758 110.231 131.24 110.093 128.871H117.637C117.683 128.595 117.706 128.181 117.706 127.79C117.706 124.593 116.096 122.546 113.244 122.546C110.691 122.546 108.23 124.777 108.23 128.434C108.23 132.091 110.599 134.276 113.589 134.276ZM110.07 127.514C110.3 125.306 111.726 124.041 113.29 124.041C115.038 124.041 116.05 125.26 116.05 127.514H110.07ZM121.219 134H123.105V126.824C123.864 124.938 124.991 124.248 125.934 124.248C126.394 124.248 126.647 124.317 127.015 124.432L127.383 122.776C127.015 122.615 126.67 122.546 126.187 122.546C124.922 122.546 123.772 123.443 123.013 124.846H122.944L122.783 122.822H121.219V134ZM138.816 134.276C139.506 134.276 140.265 134.069 140.886 133.862L140.518 132.436C140.15 132.574 139.644 132.735 139.253 132.735C137.965 132.735 137.528 131.953 137.528 130.573V124.363H140.541V122.822H137.528V119.694H135.941L135.711 122.822L133.963 122.937V124.363H135.619V130.55C135.619 132.758 136.424 134.276 138.816 134.276ZM147.851 134.276C150.588 134.276 153.026 132.137 153.026 128.434C153.026 124.685 150.588 122.546 147.851 122.546C145.114 122.546 142.676 124.685 142.676 128.434C142.676 132.137 145.114 134.276 147.851 134.276ZM147.851 132.712C145.942 132.712 144.631 130.987 144.631 128.434C144.631 125.858 145.942 124.11 147.851 124.11C149.783 124.11 151.071 125.858 151.071 128.434C151.071 130.987 149.783 132.712 147.851 132.712ZM164.075 134.276C164.581 134.276 164.903 134.207 165.156 134.092L164.903 132.666C164.696 132.712 164.604 132.712 164.489 132.712C164.213 132.712 163.96 132.482 163.96 131.884V117.624H162.074V131.746C162.074 133.379 162.649 134.276 164.075 134.276ZM173.217 134.276C174.735 134.276 175.931 133.747 176.897 133.126L176.23 131.884C175.402 132.413 174.505 132.758 173.447 132.758C171.308 132.758 169.859 131.24 169.721 128.871H177.265C177.311 128.595 177.334 128.181 177.334 127.79C177.334 124.593 175.724 122.546 172.872 122.546C170.319 122.546 167.858 124.777 167.858 128.434C167.858 132.091 170.227 134.276 173.217 134.276ZM169.698 127.514C169.928 125.306 171.354 124.041 172.918 124.041C174.666 124.041 175.678 125.26 175.678 127.514H169.698ZM183.108 134.276C184.511 134.276 185.753 133.54 186.811 132.666H186.88L187.041 134H188.605V127.146C188.605 124.363 187.455 122.546 184.718 122.546C182.924 122.546 181.36 123.328 180.325 123.995L181.061 125.306C181.935 124.708 183.108 124.11 184.396 124.11C186.236 124.11 186.696 125.49 186.696 126.916C181.935 127.445 179.842 128.664 179.842 131.102C179.842 133.103 181.245 134.276 183.108 134.276ZM183.66 132.758C182.556 132.758 181.682 132.229 181.682 130.964C181.682 129.538 182.97 128.618 186.696 128.158V131.263C185.615 132.229 184.741 132.758 183.66 132.758ZM192.872 134H194.758V126.824C195.517 124.938 196.644 124.248 197.587 124.248C198.047 124.248 198.3 124.317 198.668 124.432L199.036 122.776C198.668 122.615 198.323 122.546 197.84 122.546C196.575 122.546 195.425 123.443 194.666 124.846H194.597L194.436 122.822H192.872V134ZM201.595 134H203.481V125.904C204.608 124.777 205.39 124.179 206.54 124.179C208.012 124.179 208.656 125.076 208.656 127.169V134H210.542V126.916C210.542 124.064 209.484 122.546 207.138 122.546C205.597 122.546 204.447 123.374 203.389 124.432H203.32L203.159 122.822H201.595V134ZM223.797 134.276C224.487 134.276 225.246 134.069 225.867 133.862L225.499 132.436C225.131 132.574 224.625 132.735 224.234 132.735C222.946 132.735 222.509 131.953 222.509 130.573V124.363H225.522V122.822H222.509V119.694H220.922L220.692 122.822L218.944 122.937V124.363H220.6V130.55C220.6 132.758 221.405 134.276 223.797 134.276ZM228.8 134H230.686V125.904C231.813 124.777 232.595 124.179 233.745 124.179C235.217 124.179 235.861 125.076 235.861 127.169V134H237.747V126.916C237.747 124.064 236.689 122.546 234.343 122.546C232.802 122.546 231.675 123.374 230.617 124.386L230.686 122.086V117.624H228.8V134ZM244.636 134.276C246.039 134.276 247.281 133.54 248.339 132.666H248.408L248.569 134H250.133V127.146C250.133 124.363 248.983 122.546 246.246 122.546C244.452 122.546 242.888 123.328 241.853 123.995L242.589 125.306C243.463 124.708 244.636 124.11 245.924 124.11C247.764 124.11 248.224 125.49 248.224 126.916C243.463 127.445 241.37 128.664 241.37 131.102C241.37 133.103 242.773 134.276 244.636 134.276ZM245.188 132.758C244.084 132.758 243.21 132.229 243.21 130.964C243.21 129.538 244.498 128.618 248.224 128.158V131.263C247.143 132.229 246.269 132.758 245.188 132.758ZM254.4 134H256.286V125.904C257.413 124.777 258.195 124.179 259.345 124.179C260.817 124.179 261.461 125.076 261.461 127.169V134H263.347V126.916C263.347 124.064 262.289 122.546 259.943 122.546C258.402 122.546 257.252 123.374 256.194 124.432H256.125L255.964 122.822H254.4V134ZM62.9309 159.276C63.4369 159.276 63.7589 159.207 64.0119 159.092L63.7589 157.666C63.5519 157.712 63.4599 157.712 63.3449 157.712C63.0689 157.712 62.8159 157.482 62.8159 156.884V142.624H60.9299V156.746C60.9299 158.379 61.5049 159.276 62.9309 159.276ZM67.5423 159H69.4283V147.822H67.5423V159ZM68.5083 145.522C69.2443 145.522 69.8193 145.016 69.8193 144.303C69.8193 143.567 69.2443 143.084 68.5083 143.084C67.7723 143.084 67.1973 143.567 67.1973 144.303C67.1973 145.016 67.7723 145.522 68.5083 145.522ZM73.9524 159H75.8384V150.904C76.9654 149.777 77.7474 149.179 78.8974 149.179C80.3694 149.179 81.0134 150.076 81.0134 152.169V159H82.8994V151.916C82.8994 149.064 81.8414 147.546 79.4954 147.546C77.9544 147.546 76.8044 148.374 75.7464 149.432H75.6774L75.5164 147.822H73.9524V159ZM91.8115 159.276C93.3295 159.276 94.5255 158.747 95.4915 158.126L94.8245 156.884C93.9965 157.413 93.0995 157.758 92.0415 157.758C89.9025 157.758 88.4535 156.24 88.3155 153.871H95.8595C95.9055 153.595 95.9285 153.181 95.9285 152.79C95.9285 149.593 94.3185 147.546 91.4665 147.546C88.9135 147.546 86.4525 149.777 86.4525 153.434C86.4525 157.091 88.8215 159.276 91.8115 159.276ZM88.2925 152.514C88.5225 150.306 89.9485 149.041 91.5125 149.041C93.2605 149.041 94.2725 150.26 94.2725 152.514H88.2925ZM98.7223 153.963H104.012V152.514H98.7223V153.963ZM112.503 159.276C115.056 159.276 117.333 157.045 117.333 153.227C117.333 149.777 115.792 147.546 112.894 147.546C111.652 147.546 110.41 148.213 109.398 149.11L109.444 147.086V142.624H107.558V159H109.076L109.237 157.85H109.306C110.295 158.747 111.468 159.276 112.503 159.276ZM112.181 157.689C111.445 157.689 110.433 157.367 109.444 156.516V150.651C110.502 149.662 111.491 149.133 112.434 149.133C114.55 149.133 115.378 150.789 115.378 153.25C115.378 156.01 114.021 157.689 112.181 157.689ZM121.115 163.807C123.369 163.807 124.519 162.128 125.301 159.92L129.51 147.822H127.67L125.669 154.009C125.37 154.998 125.048 156.148 124.726 157.16H124.634C124.289 156.125 123.898 154.975 123.553 154.009L121.276 147.822H119.321L123.806 159.023L123.553 159.851C123.093 161.231 122.288 162.243 121.023 162.243C120.747 162.243 120.402 162.151 120.172 162.082L119.804 163.577C120.172 163.715 120.609 163.807 121.115 163.807ZM131.474 153.963H136.764V152.514H131.474V153.963ZM142.311 159.276C142.817 159.276 143.139 159.207 143.392 159.092L143.139 157.666C142.932 157.712 142.84 157.712 142.725 157.712C142.449 157.712 142.196 157.482 142.196 156.884V142.624H140.31V156.746C140.31 158.379 140.885 159.276 142.311 159.276ZM146.922 159H148.808V147.822H146.922V159ZM147.888 145.522C148.624 145.522 149.199 145.016 149.199 144.303C149.199 143.567 148.624 143.084 147.888 143.084C147.152 143.084 146.577 143.567 146.577 144.303C146.577 145.016 147.152 145.522 147.888 145.522ZM153.332 159H155.218V150.904C156.345 149.777 157.127 149.179 158.277 149.179C159.749 149.179 160.393 150.076 160.393 152.169V159H162.279V151.916C162.279 149.064 161.221 147.546 158.875 147.546C157.334 147.546 156.184 148.374 155.126 149.432H155.057L154.896 147.822H153.332V159ZM171.191 159.276C172.709 159.276 173.905 158.747 174.871 158.126L174.204 156.884C173.376 157.413 172.479 157.758 171.421 157.758C169.282 157.758 167.833 156.24 167.695 153.871H175.239C175.285 153.595 175.308 153.181 175.308 152.79C175.308 149.593 173.698 147.546 170.846 147.546C168.293 147.546 165.832 149.777 165.832 153.434C165.832 157.091 168.201 159.276 171.191 159.276ZM167.672 152.514C167.902 150.306 169.328 149.041 170.892 149.041C172.64 149.041 173.652 150.26 173.652 152.514H167.672ZM188.591 159.276C189.925 159.276 191.19 158.747 192.202 157.85L191.374 156.585C190.684 157.206 189.787 157.712 188.752 157.712C186.705 157.712 185.302 155.987 185.302 153.434C185.302 150.858 186.774 149.11 188.798 149.11C189.695 149.11 190.385 149.524 191.029 150.099L191.995 148.857C191.213 148.144 190.201 147.546 188.729 147.546C185.854 147.546 183.347 149.685 183.347 153.434C183.347 157.137 185.624 159.276 188.591 159.276ZM199.267 159.276C202.004 159.276 204.442 157.137 204.442 153.434C204.442 149.685 202.004 147.546 199.267 147.546C196.53 147.546 194.092 149.685 194.092 153.434C194.092 157.137 196.53 159.276 199.267 159.276ZM199.267 157.712C197.358 157.712 196.047 155.987 196.047 153.434C196.047 150.858 197.358 149.11 199.267 149.11C201.199 149.11 202.487 150.858 202.487 153.434C202.487 155.987 201.199 157.712 199.267 157.712ZM211.954 159.276C213.265 159.276 214.461 158.54 215.335 157.689H215.404L215.565 159H217.129V142.624H215.22V146.925L215.312 148.834C214.323 148.029 213.472 147.546 212.184 147.546C209.631 147.546 207.331 149.8 207.331 153.434C207.331 157.16 209.148 159.276 211.954 159.276ZM212.368 157.689C210.413 157.689 209.286 156.079 209.286 153.411C209.286 150.858 210.712 149.133 212.506 149.133C213.426 149.133 214.277 149.455 215.22 150.306V156.148C214.3 157.183 213.403 157.689 212.368 157.689ZM221.644 159H223.53V147.822H221.644V159ZM222.61 145.522C223.346 145.522 223.921 145.016 223.921 144.303C223.921 143.567 223.346 143.084 222.61 143.084C221.874 143.084 221.299 143.567 221.299 144.303C221.299 145.016 221.874 145.522 222.61 145.522ZM228.054 159H229.94V150.904C231.067 149.777 231.849 149.179 232.999 149.179C234.471 149.179 235.115 150.076 235.115 152.169V159H237.001V151.916C237.001 149.064 235.943 147.546 233.597 147.546C232.056 147.546 230.906 148.374 229.848 149.432H229.779L229.618 147.822H228.054V159ZM245.154 164.152C248.627 164.152 250.812 162.358 250.812 160.288C250.812 158.425 249.501 157.62 246.902 157.62H244.74C243.222 157.62 242.762 157.114 242.762 156.401C242.762 155.78 243.084 155.412 243.475 155.067C243.981 155.32 244.602 155.458 245.154 155.458C247.431 155.458 249.248 153.963 249.248 151.571C249.248 150.628 248.857 149.777 248.328 149.271H250.628V147.822H246.741C246.327 147.661 245.775 147.546 245.154 147.546C242.877 147.546 240.945 149.087 240.945 151.525C240.945 152.859 241.658 153.94 242.394 154.538V154.63C241.819 155.021 241.175 155.757 241.175 156.7C241.175 157.574 241.612 158.172 242.164 158.517V158.609C241.152 159.299 240.531 160.196 240.531 161.139C240.531 163.071 242.417 164.152 245.154 164.152ZM245.154 154.193C243.866 154.193 242.785 153.158 242.785 151.525C242.785 149.892 243.843 148.926 245.154 148.926C246.465 148.926 247.523 149.892 247.523 151.525C247.523 153.158 246.442 154.193 245.154 154.193ZM245.43 162.841C243.406 162.841 242.187 162.082 242.187 160.886C242.187 160.242 242.532 159.575 243.337 159C243.82 159.138 244.349 159.184 244.786 159.184H246.718C248.167 159.184 248.972 159.529 248.972 160.564C248.972 161.737 247.569 162.841 245.43 162.841ZM262.526 159.276C264.297 159.276 265.723 158.586 266.873 157.551C268.092 158.402 269.288 158.977 270.346 159.276L270.852 157.712C270.024 157.482 269.058 156.976 268.023 156.263C269.219 154.676 270.07 152.836 270.668 150.858H268.897C268.437 152.583 267.701 154.078 266.781 155.32C265.355 154.124 263.952 152.629 262.963 151.088C264.642 149.869 266.367 148.604 266.367 146.626C266.367 144.855 265.263 143.636 263.4 143.636C261.307 143.636 259.904 145.2 259.904 147.201C259.904 148.305 260.272 149.501 260.893 150.743C259.352 151.801 257.926 153.066 257.926 155.09C257.926 157.528 259.789 159.276 262.526 159.276ZM261.537 147.178C261.537 145.936 262.273 144.993 263.4 144.993C264.412 144.993 264.826 145.775 264.826 146.649C264.826 147.983 263.63 148.903 262.25 149.823C261.813 148.903 261.537 148.006 261.537 147.178ZM262.733 157.758C261.077 157.758 259.766 156.654 259.766 154.975C259.766 153.802 260.594 152.905 261.652 152.054C262.71 153.687 264.136 155.251 265.608 156.539C264.734 157.298 263.768 157.758 262.733 157.758ZM117.004 184.276C118.315 184.276 119.511 183.54 120.385 182.689H120.454L120.615 184H122.179V167.624H120.27V171.925L120.362 173.834C119.373 173.029 118.522 172.546 117.234 172.546C114.681 172.546 112.381 174.8 112.381 178.434C112.381 182.16 114.198 184.276 117.004 184.276ZM117.418 182.689C115.463 182.689 114.336 181.079 114.336 178.411C114.336 175.858 115.762 174.133 117.556 174.133C118.476 174.133 119.327 174.455 120.27 175.306V181.148C119.35 182.183 118.453 182.689 117.418 182.689ZM131.225 184.276C132.743 184.276 133.939 183.747 134.905 183.126L134.238 181.884C133.41 182.413 132.513 182.758 131.455 182.758C129.316 182.758 127.867 181.24 127.729 178.871H135.273C135.319 178.595 135.342 178.181 135.342 177.79C135.342 174.593 133.732 172.546 130.88 172.546C128.327 172.546 125.866 174.777 125.866 178.434C125.866 182.091 128.235 184.276 131.225 184.276ZM127.706 177.514C127.936 175.306 129.362 174.041 130.926 174.041C132.674 174.041 133.686 175.26 133.686 177.514H127.706ZM143.799 184.276C146.352 184.276 148.629 182.045 148.629 178.227C148.629 174.777 147.088 172.546 144.19 172.546C142.948 172.546 141.706 173.213 140.694 174.11L140.74 172.086V167.624H138.854V184H140.372L140.533 182.85H140.602C141.591 183.747 142.764 184.276 143.799 184.276ZM143.477 182.689C142.741 182.689 141.729 182.367 140.74 181.516V175.651C141.798 174.662 142.787 174.133 143.73 174.133C145.846 174.133 146.674 175.789 146.674 178.25C146.674 181.01 145.317 182.689 143.477 182.689ZM155.583 184.276C157.124 184.276 158.228 183.471 159.263 182.252H159.332L159.493 184H161.057V172.822H159.171V180.757C158.113 182.068 157.308 182.643 156.158 182.643C154.686 182.643 154.065 181.746 154.065 179.653V172.822H152.156V179.906C152.156 182.758 153.214 184.276 155.583 184.276ZM169.35 189.152C172.823 189.152 175.008 187.358 175.008 185.288C175.008 183.425 173.697 182.62 171.098 182.62H168.936C167.418 182.62 166.958 182.114 166.958 181.401C166.958 180.78 167.28 180.412 167.671 180.067C168.177 180.32 168.798 180.458 169.35 180.458C171.627 180.458 173.444 178.963 173.444 176.571C173.444 175.628 173.053 174.777 172.524 174.271H174.824V172.822H170.937C170.523 172.661 169.971 172.546 169.35 172.546C167.073 172.546 165.141 174.087 165.141 176.525C165.141 177.859 165.854 178.94 166.59 179.538V179.63C166.015 180.021 165.371 180.757 165.371 181.7C165.371 182.574 165.808 183.172 166.36 183.517V183.609C165.348 184.299 164.727 185.196 164.727 186.139C164.727 188.071 166.613 189.152 169.35 189.152ZM169.35 179.193C168.062 179.193 166.981 178.158 166.981 176.525C166.981 174.892 168.039 173.926 169.35 173.926C170.661 173.926 171.719 174.892 171.719 176.525C171.719 178.158 170.638 179.193 169.35 179.193ZM169.626 187.841C167.602 187.841 166.383 187.082 166.383 185.886C166.383 185.242 166.728 184.575 167.533 184C168.016 184.138 168.545 184.184 168.982 184.184H170.914C172.363 184.184 173.168 184.529 173.168 185.564C173.168 186.737 171.765 187.841 169.626 187.841ZM181.69 189.152C185.163 189.152 187.348 187.358 187.348 185.288C187.348 183.425 186.037 182.62 183.438 182.62H181.276C179.758 182.62 179.298 182.114 179.298 181.401C179.298 180.78 179.62 180.412 180.011 180.067C180.517 180.32 181.138 180.458 181.69 180.458C183.967 180.458 185.784 178.963 185.784 176.571C185.784 175.628 185.393 174.777 184.864 174.271H187.164V172.822H183.277C182.863 172.661 182.311 172.546 181.69 172.546C179.413 172.546 177.481 174.087 177.481 176.525C177.481 177.859 178.194 178.94 178.93 179.538V179.63C178.355 180.021 177.711 180.757 177.711 181.7C177.711 182.574 178.148 183.172 178.7 183.517V183.609C177.688 184.299 177.067 185.196 177.067 186.139C177.067 188.071 178.953 189.152 181.69 189.152ZM181.69 179.193C180.402 179.193 179.321 178.158 179.321 176.525C179.321 174.892 180.379 173.926 181.69 173.926C183.001 173.926 184.059 174.892 184.059 176.525C184.059 178.158 182.978 179.193 181.69 179.193ZM181.966 187.841C179.942 187.841 178.723 187.082 178.723 185.886C178.723 185.242 179.068 184.575 179.873 184C180.356 184.138 180.885 184.184 181.322 184.184H183.254C184.703 184.184 185.508 184.529 185.508 185.564C185.508 186.737 184.105 187.841 181.966 187.841ZM190.258 184H192.144V172.822H190.258V184ZM191.224 170.522C191.96 170.522 192.535 170.016 192.535 169.303C192.535 168.567 191.96 168.084 191.224 168.084C190.488 168.084 189.913 168.567 189.913 169.303C189.913 170.016 190.488 170.522 191.224 170.522ZM196.668 184H198.554V175.904C199.681 174.777 200.463 174.179 201.613 174.179C203.085 174.179 203.729 175.076 203.729 177.169V184H205.615V176.916C205.615 174.064 204.557 172.546 202.211 172.546C200.67 172.546 199.52 173.374 198.462 174.432H198.393L198.232 172.822H196.668V184ZM213.768 189.152C217.241 189.152 219.426 187.358 219.426 185.288C219.426 183.425 218.115 182.62 215.516 182.62H213.354C211.836 182.62 211.376 182.114 211.376 181.401C211.376 180.78 211.698 180.412 212.089 180.067C212.595 180.32 213.216 180.458 213.768 180.458C216.045 180.458 217.862 178.963 217.862 176.571C217.862 175.628 217.471 174.777 216.942 174.271H219.242V172.822H215.355C214.941 172.661 214.389 172.546 213.768 172.546C211.491 172.546 209.559 174.087 209.559 176.525C209.559 177.859 210.272 178.94 211.008 179.538V179.63C210.433 180.021 209.789 180.757 209.789 181.7C209.789 182.574 210.226 183.172 210.778 183.517V183.609C209.766 184.299 209.145 185.196 209.145 186.139C209.145 188.071 211.031 189.152 213.768 189.152ZM213.768 179.193C212.48 179.193 211.399 178.158 211.399 176.525C211.399 174.892 212.457 173.926 213.768 173.926C215.079 173.926 216.137 174.892 216.137 176.525C216.137 178.158 215.056 179.193 213.768 179.193ZM214.044 187.841C212.02 187.841 210.801 187.082 210.801 185.886C210.801 185.242 211.146 184.575 211.951 184C212.434 184.138 212.963 184.184 213.4 184.184H215.332C216.781 184.184 217.586 184.529 217.586 185.564C217.586 186.737 216.183 187.841 214.044 187.841Z" fill="#4A4A4A"/>
<rect y="229" width="331" height="110" rx="6" fill="#F8F8F8"/>
<path d="M75.6061 276.288C78.9181 276.288 80.9581 274.296 80.9581 271.8C80.9581 269.472 79.5421 268.392 77.7181 267.6L75.4861 266.64C74.2381 266.112 72.8701 265.536 72.8701 264.024C72.8701 262.608 74.0461 261.72 75.7981 261.72C77.2621 261.72 78.4141 262.296 79.3741 263.208L80.4541 261.912C79.3261 260.76 77.6701 259.968 75.7981 259.968C72.9421 259.968 70.8541 261.744 70.8541 264.144C70.8541 266.448 72.5581 267.576 74.0461 268.2L76.3021 269.184C77.7901 269.856 78.9181 270.36 78.9181 271.968C78.9181 273.504 77.6941 274.536 75.6301 274.536C73.9981 274.536 72.4141 273.744 71.2861 272.568L70.0861 273.96C71.4541 275.376 73.3981 276.288 75.6061 276.288ZM87.3044 276.288C88.7684 276.288 90.0644 275.52 91.1684 274.608H91.2404L91.4084 276H93.0404V268.848C93.0404 265.944 91.8404 264.048 88.9844 264.048C87.1124 264.048 85.4804 264.864 84.4004 265.56L85.1684 266.928C86.0804 266.304 87.3044 265.68 88.6484 265.68C90.5684 265.68 91.0484 267.12 91.0484 268.608C86.0804 269.16 83.8964 270.432 83.8964 272.976C83.8964 275.064 85.3604 276.288 87.3044 276.288ZM87.8804 274.704C86.7284 274.704 85.8164 274.152 85.8164 272.832C85.8164 271.344 87.1604 270.384 91.0484 269.904V273.144C89.9204 274.152 89.0084 274.704 87.8804 274.704ZM99.9802 276H102.284L106.412 264.336H104.468L102.26 270.96C101.924 272.112 101.54 273.288 101.204 274.392H101.108C100.748 273.288 100.364 272.112 100.028 270.96L97.8202 264.336H95.7802L99.9802 276ZM114.048 276.288C115.632 276.288 116.88 275.736 117.888 275.088L117.192 273.792C116.328 274.344 115.392 274.704 114.288 274.704C112.056 274.704 110.544 273.12 110.4 270.648H118.272C118.32 270.36 118.344 269.928 118.344 269.52C118.344 266.184 116.664 264.048 113.688 264.048C111.024 264.048 108.456 266.376 108.456 270.192C108.456 274.008 110.928 276.288 114.048 276.288ZM110.376 269.232C110.616 266.928 112.104 265.608 113.736 265.608C115.56 265.608 116.616 266.88 116.616 269.232H110.376ZM127.531 276H129.499V267.552C130.579 266.352 131.562 265.752 132.427 265.752C133.915 265.752 134.611 266.688 134.611 268.872V276H136.579V267.552C137.659 266.352 138.595 265.752 139.507 265.752C140.971 265.752 141.667 266.688 141.667 268.872V276H143.635V268.608C143.635 265.632 142.483 264.048 140.083 264.048C138.667 264.048 137.467 264.96 136.243 266.28C135.763 264.888 134.803 264.048 133.027 264.048C131.635 264.048 130.411 264.912 129.403 266.016H129.331L129.163 264.336H127.531V276ZM152.715 276.288C155.571 276.288 158.115 274.056 158.115 270.192C158.115 266.28 155.571 264.048 152.715 264.048C149.859 264.048 147.315 266.28 147.315 270.192C147.315 274.056 149.859 276.288 152.715 276.288ZM152.715 274.656C150.723 274.656 149.355 272.856 149.355 270.192C149.355 267.504 150.723 265.68 152.715 265.68C154.731 265.68 156.075 267.504 156.075 270.192C156.075 272.856 154.731 274.656 152.715 274.656ZM161.937 276H163.905V268.512C164.697 266.544 165.873 265.824 166.857 265.824C167.337 265.824 167.601 265.896 167.985 266.016L168.369 264.288C167.985 264.12 167.625 264.048 167.121 264.048C165.801 264.048 164.601 264.984 163.809 266.448H163.737L163.569 264.336H161.937V276ZM175.501 276.288C177.085 276.288 178.333 275.736 179.341 275.088L178.645 273.792C177.781 274.344 176.845 274.704 175.741 274.704C173.509 274.704 171.997 273.12 171.853 270.648H179.725C179.773 270.36 179.797 269.928 179.797 269.52C179.797 266.184 178.117 264.048 175.141 264.048C172.477 264.048 169.909 266.376 169.909 270.192C169.909 274.008 172.381 276.288 175.501 276.288ZM171.829 269.232C172.069 266.928 173.557 265.608 175.189 265.608C177.013 265.608 178.069 266.88 178.069 269.232H171.829ZM192.656 276.288C193.376 276.288 194.168 276.072 194.816 275.856L194.432 274.368C194.048 274.512 193.52 274.68 193.112 274.68C191.768 274.68 191.312 273.864 191.312 272.424V265.944H194.456V264.336H191.312V261.072H189.656L189.416 264.336L187.592 264.456V265.944H189.32V272.4C189.32 274.704 190.16 276.288 192.656 276.288ZM197.843 276H199.811V264.336H197.843V276ZM198.851 261.936C199.619 261.936 200.219 261.408 200.219 260.664C200.219 259.896 199.619 259.392 198.851 259.392C198.083 259.392 197.483 259.896 197.483 260.664C197.483 261.408 198.083 261.936 198.851 261.936ZM204.499 276H206.467V267.552C207.547 266.352 208.531 265.752 209.395 265.752C210.883 265.752 211.579 266.688 211.579 268.872V276H213.547V267.552C214.627 266.352 215.563 265.752 216.475 265.752C217.939 265.752 218.635 266.688 218.635 268.872V276H220.603V268.608C220.603 265.632 219.451 264.048 217.051 264.048C215.635 264.048 214.435 264.96 213.211 266.28C212.731 264.888 211.771 264.048 209.995 264.048C208.603 264.048 207.379 264.912 206.371 266.016H206.299L206.131 264.336H204.499V276ZM229.876 276.288C231.46 276.288 232.708 275.736 233.716 275.088L233.02 273.792C232.156 274.344 231.22 274.704 230.116 274.704C227.884 274.704 226.372 273.12 226.228 270.648H234.1C234.148 270.36 234.172 269.928 234.172 269.52C234.172 266.184 232.492 264.048 229.516 264.048C226.852 264.048 224.284 266.376 224.284 270.192C224.284 274.008 226.756 276.288 229.876 276.288ZM226.204 269.232C226.444 266.928 227.932 265.608 229.564 265.608C231.388 265.608 232.444 266.88 232.444 269.232H226.204ZM243.359 276H245.327V264.336H243.359V276ZM244.367 261.936C245.135 261.936 245.735 261.408 245.735 260.664C245.735 259.896 245.135 259.392 244.367 259.392C243.599 259.392 242.999 259.896 242.999 260.664C242.999 261.408 243.599 261.936 244.367 261.936ZM250.015 276H251.983V267.552C253.159 266.376 253.975 265.752 255.175 265.752C256.711 265.752 257.383 266.688 257.383 268.872V276H259.351V268.608C259.351 265.632 258.247 264.048 255.799 264.048C254.191 264.048 252.991 264.912 251.887 266.016H251.815L251.647 264.336H250.015V276ZM95.093 308.92H97.061V304.984L97.013 302.944C98.093 303.784 99.173 304.288 100.253 304.288C102.917 304.288 105.293 301.96 105.293 298C105.293 294.376 103.685 292.048 100.685 292.048C99.317 292.048 98.021 292.792 96.965 293.68H96.893L96.725 292.336H95.093V308.92ZM99.917 302.632C99.149 302.632 98.117 302.296 97.061 301.408V295.288C98.213 294.256 99.197 293.704 100.181 293.704C102.389 293.704 103.253 295.432 103.253 298C103.253 300.88 101.837 302.632 99.917 302.632ZM109.156 304H111.124V296.512C111.916 294.544 113.092 293.824 114.076 293.824C114.556 293.824 114.82 293.896 115.204 294.016L115.588 292.288C115.204 292.12 114.844 292.048 114.34 292.048C113.02 292.048 111.82 292.984 111.028 294.448H110.956L110.788 292.336H109.156V304ZM122.527 304.288C125.383 304.288 127.927 302.056 127.927 298.192C127.927 294.28 125.383 292.048 122.527 292.048C119.671 292.048 117.127 294.28 117.127 298.192C117.127 302.056 119.671 304.288 122.527 304.288ZM122.527 302.656C120.535 302.656 119.167 300.856 119.167 298.192C119.167 295.504 120.535 293.68 122.527 293.68C124.543 293.68 125.887 295.504 125.887 298.192C125.887 300.856 124.543 302.656 122.527 302.656ZM135.685 309.376C139.309 309.376 141.589 307.504 141.589 305.344C141.589 303.4 140.221 302.56 137.509 302.56H135.253C133.669 302.56 133.189 302.032 133.189 301.288C133.189 300.64 133.525 300.256 133.933 299.896C134.461 300.16 135.109 300.304 135.685 300.304C138.061 300.304 139.957 298.744 139.957 296.248C139.957 295.264 139.549 294.376 138.997 293.848H141.397V292.336H137.341C136.909 292.168 136.333 292.048 135.685 292.048C133.309 292.048 131.293 293.656 131.293 296.2C131.293 297.592 132.037 298.72 132.805 299.344V299.44C132.205 299.848 131.533 300.616 131.533 301.6C131.533 302.512 131.989 303.136 132.565 303.496V303.592C131.509 304.312 130.861 305.248 130.861 306.232C130.861 308.248 132.829 309.376 135.685 309.376ZM135.685 298.984C134.341 298.984 133.213 297.904 133.213 296.2C133.213 294.496 134.317 293.488 135.685 293.488C137.053 293.488 138.157 294.496 138.157 296.2C138.157 297.904 137.029 298.984 135.685 298.984ZM135.973 308.008C133.861 308.008 132.589 307.216 132.589 305.968C132.589 305.296 132.949 304.6 133.789 304C134.293 304.144 134.845 304.192 135.301 304.192H137.317C138.829 304.192 139.669 304.552 139.669 305.632C139.669 306.856 138.205 308.008 135.973 308.008ZM144.593 304H146.561V296.512C147.353 294.544 148.529 293.824 149.513 293.824C149.993 293.824 150.257 293.896 150.641 294.016L151.025 292.288C150.641 292.12 150.281 292.048 149.777 292.048C148.457 292.048 147.257 292.984 146.465 294.448H146.393L146.225 292.336H144.593V304ZM155.765 304.288C157.229 304.288 158.525 303.52 159.629 302.608H159.701L159.869 304H161.501V296.848C161.501 293.944 160.301 292.048 157.445 292.048C155.573 292.048 153.941 292.864 152.861 293.56L153.629 294.928C154.541 294.304 155.765 293.68 157.109 293.68C159.029 293.68 159.509 295.12 159.509 296.608C154.541 297.16 152.357 298.432 152.357 300.976C152.357 303.064 153.821 304.288 155.765 304.288ZM156.341 302.704C155.189 302.704 154.277 302.152 154.277 300.832C154.277 299.344 155.621 298.384 159.509 297.904V301.144C158.381 302.152 157.469 302.704 156.341 302.704ZM165.921 304H167.889V295.552C168.969 294.352 169.953 293.752 170.817 293.752C172.305 293.752 173.001 294.688 173.001 296.872V304H174.969V295.552C176.049 294.352 176.985 293.752 177.897 293.752C179.361 293.752 180.057 294.688 180.057 296.872V304H182.025V296.608C182.025 293.632 180.873 292.048 178.473 292.048C177.057 292.048 175.857 292.96 174.633 294.28C174.153 292.888 173.193 292.048 171.417 292.048C170.025 292.048 168.801 292.912 167.793 294.016H167.721L167.553 292.336H165.921V304ZM186.57 304H188.538V295.552C189.618 294.352 190.602 293.752 191.466 293.752C192.954 293.752 193.65 294.688 193.65 296.872V304H195.618V295.552C196.698 294.352 197.634 293.752 198.546 293.752C200.01 293.752 200.706 294.688 200.706 296.872V304H202.674V296.608C202.674 293.632 201.522 292.048 199.122 292.048C197.706 292.048 196.506 292.96 195.282 294.28C194.802 292.888 193.842 292.048 192.066 292.048C190.674 292.048 189.45 292.912 188.442 294.016H188.37L188.202 292.336H186.57V304ZM207.218 304H209.186V292.336H207.218V304ZM208.226 289.936C208.994 289.936 209.594 289.408 209.594 288.664C209.594 287.896 208.994 287.392 208.226 287.392C207.458 287.392 206.858 287.896 206.858 288.664C206.858 289.408 207.458 289.936 208.226 289.936ZM213.874 304H215.842V295.552C217.018 294.376 217.834 293.752 219.034 293.752C220.57 293.752 221.242 294.688 221.242 296.872V304H223.21V296.608C223.21 293.632 222.106 292.048 219.658 292.048C218.05 292.048 216.85 292.912 215.746 294.016H215.674L215.506 292.336H213.874V304ZM231.685 309.376C235.309 309.376 237.589 307.504 237.589 305.344C237.589 303.4 236.221 302.56 233.509 302.56H231.253C229.669 302.56 229.189 302.032 229.189 301.288C229.189 300.64 229.525 300.256 229.933 299.896C230.461 300.16 231.109 300.304 231.685 300.304C234.061 300.304 235.957 298.744 235.957 296.248C235.957 295.264 235.549 294.376 234.997 293.848H237.397V292.336H233.341C232.909 292.168 232.333 292.048 231.685 292.048C229.309 292.048 227.293 293.656 227.293 296.2C227.293 297.592 228.037 298.72 228.805 299.344V299.44C228.205 299.848 227.533 300.616 227.533 301.6C227.533 302.512 227.989 303.136 228.565 303.496V303.592C227.509 304.312 226.861 305.248 226.861 306.232C226.861 308.248 228.829 309.376 231.685 309.376ZM231.685 298.984C230.341 298.984 229.213 297.904 229.213 296.2C229.213 294.496 230.317 293.488 231.685 293.488C233.053 293.488 234.157 294.496 234.157 296.2C234.157 297.904 233.029 298.984 231.685 298.984ZM231.973 308.008C229.861 308.008 228.589 307.216 228.589 305.968C228.589 305.296 228.949 304.6 229.789 304C230.293 304.144 230.845 304.192 231.301 304.192H233.317C234.829 304.192 235.669 304.552 235.669 305.632C235.669 306.856 234.205 308.008 231.973 308.008Z" fill="#4A4A4A"/>
<rect x="402" y="96" width="331" height="110" rx="6" fill="#F8F8F8"/>
<path d="M424.508 146.288C427.82 146.288 429.86 144.296 429.86 141.8C429.86 139.472 428.444 138.392 426.62 137.6L424.388 136.64C423.14 136.112 421.772 135.536 421.772 134.024C421.772 132.608 422.948 131.72 424.7 131.72C426.164 131.72 427.316 132.296 428.276 133.208L429.356 131.912C428.228 130.76 426.572 129.968 424.7 129.968C421.844 129.968 419.756 131.744 419.756 134.144C419.756 136.448 421.46 137.576 422.948 138.2L425.204 139.184C426.692 139.856 427.82 140.36 427.82 141.968C427.82 143.504 426.596 144.536 424.532 144.536C422.9 144.536 421.316 143.744 420.188 142.568L418.988 143.96C420.356 145.376 422.3 146.288 424.508 146.288ZM438.127 146.288C439.519 146.288 440.839 145.736 441.895 144.8L441.031 143.48C440.311 144.128 439.375 144.656 438.295 144.656C436.159 144.656 434.695 142.856 434.695 140.192C434.695 137.504 436.231 135.68 438.343 135.68C439.279 135.68 439.999 136.112 440.671 136.712L441.679 135.416C440.863 134.672 439.807 134.048 438.271 134.048C435.271 134.048 432.655 136.28 432.655 140.192C432.655 144.056 435.031 146.288 438.127 146.288ZM447.668 146.288C449.132 146.288 450.428 145.52 451.532 144.608H451.604L451.772 146H453.404V138.848C453.404 135.944 452.204 134.048 449.348 134.048C447.476 134.048 445.844 134.864 444.764 135.56L445.532 136.928C446.444 136.304 447.668 135.68 449.012 135.68C450.932 135.68 451.412 137.12 451.412 138.608C446.444 139.16 444.26 140.432 444.26 142.976C444.26 145.064 445.724 146.288 447.668 146.288ZM448.244 144.704C447.092 144.704 446.18 144.152 446.18 142.832C446.18 141.344 447.524 140.384 451.412 139.904V143.144C450.284 144.152 449.372 144.704 448.244 144.704ZM464.999 146H466.967V135.944H469.439V134.336H466.967V132.488C466.967 131 467.495 130.232 468.599 130.232C469.031 130.232 469.487 130.328 469.919 130.52L470.351 129.008C469.823 128.792 469.127 128.624 468.407 128.624C466.079 128.624 464.999 130.112 464.999 132.488V134.336H460.127V132.848C460.127 131.312 460.799 130.472 461.951 130.472C462.527 130.472 463.007 130.568 463.511 130.784L463.919 129.296C463.343 129.032 462.551 128.864 461.783 128.864C459.359 128.864 458.159 130.376 458.159 132.8V134.336L456.575 134.456V135.944H458.159V146H460.127V135.944H464.999V146ZM476.727 146.288C479.583 146.288 482.127 144.056 482.127 140.192C482.127 136.28 479.583 134.048 476.727 134.048C473.871 134.048 471.327 136.28 471.327 140.192C471.327 144.056 473.871 146.288 476.727 146.288ZM476.727 144.656C474.735 144.656 473.367 142.856 473.367 140.192C473.367 137.504 474.735 135.68 476.727 135.68C478.743 135.68 480.087 137.504 480.087 140.192C480.087 142.856 478.743 144.656 476.727 144.656ZM488.036 146.288C488.564 146.288 488.9 146.216 489.164 146.096L488.9 144.608C488.684 144.656 488.588 144.656 488.468 144.656C488.18 144.656 487.916 144.416 487.916 143.792V128.912H485.948V143.648C485.948 145.352 486.548 146.288 488.036 146.288ZM496.8 146.288C498.168 146.288 499.416 145.52 500.328 144.632H500.4L500.568 146H502.2V128.912H500.208V133.4L500.304 135.392C499.272 134.552 498.384 134.048 497.04 134.048C494.376 134.048 491.976 136.4 491.976 140.192C491.976 144.08 493.872 146.288 496.8 146.288ZM497.232 144.632C495.192 144.632 494.016 142.952 494.016 140.168C494.016 137.504 495.504 135.704 497.376 135.704C498.336 135.704 499.224 136.04 500.208 136.928V143.024C499.248 144.104 498.312 144.632 497.232 144.632ZM515.481 146.288C518.241 146.288 519.753 144.704 519.753 142.808C519.753 140.6 517.881 139.904 516.201 139.28C514.881 138.776 513.609 138.368 513.609 137.264C513.609 136.376 514.281 135.584 515.745 135.584C516.777 135.584 517.617 136.016 518.409 136.616L519.345 135.368C518.457 134.648 517.185 134.048 515.721 134.048C513.201 134.048 511.713 135.488 511.713 137.36C511.713 139.328 513.537 140.12 515.193 140.72C516.465 141.2 517.857 141.728 517.857 142.928C517.857 143.936 517.089 144.752 515.553 144.752C514.161 144.752 513.129 144.176 512.121 143.36L511.137 144.68C512.241 145.592 513.825 146.288 515.481 146.288ZM526.441 146.288C527.161 146.288 527.953 146.072 528.601 145.856L528.217 144.368C527.833 144.512 527.305 144.68 526.897 144.68C525.553 144.68 525.097 143.864 525.097 142.424V135.944H528.241V134.336H525.097V131.072H523.441L523.201 134.336L521.377 134.456V135.944H523.105V142.4C523.105 144.704 523.945 146.288 526.441 146.288ZM535.036 146.288C536.644 146.288 537.796 145.448 538.876 144.176H538.948L539.116 146H540.748V134.336H538.78V142.616C537.676 143.984 536.836 144.584 535.636 144.584C534.1 144.584 533.452 143.648 533.452 141.464V134.336H531.46V141.728C531.46 144.704 532.564 146.288 535.036 146.288ZM549.417 146.288C550.785 146.288 552.033 145.52 552.945 144.632H553.017L553.185 146H554.817V128.912H552.825V133.4L552.921 135.392C551.889 134.552 551.001 134.048 549.657 134.048C546.993 134.048 544.593 136.4 544.593 140.192C544.593 144.08 546.489 146.288 549.417 146.288ZM549.849 144.632C547.809 144.632 546.633 142.952 546.633 140.168C546.633 137.504 548.121 135.704 549.993 135.704C550.953 135.704 551.841 136.04 552.825 136.928V143.024C551.865 144.104 550.929 144.632 549.849 144.632ZM564.223 146.288C565.807 146.288 567.055 145.736 568.063 145.088L567.367 143.792C566.503 144.344 565.567 144.704 564.463 144.704C562.231 144.704 560.719 143.12 560.575 140.648H568.447C568.495 140.36 568.519 139.928 568.519 139.52C568.519 136.184 566.839 134.048 563.863 134.048C561.199 134.048 558.631 136.376 558.631 140.192C558.631 144.008 561.103 146.288 564.223 146.288ZM560.551 139.232C560.791 136.928 562.279 135.608 563.911 135.608C565.735 135.608 566.791 136.88 566.791 139.232H560.551ZM572.152 146H574.12V137.552C575.296 136.376 576.112 135.752 577.312 135.752C578.848 135.752 579.52 136.688 579.52 138.872V146H581.488V138.608C581.488 135.632 580.384 134.048 577.936 134.048C576.328 134.048 575.128 134.912 574.024 136.016H573.952L573.784 134.336H572.152V146ZM589.699 146.288C590.419 146.288 591.211 146.072 591.859 145.856L591.475 144.368C591.091 144.512 590.563 144.68 590.155 144.68C588.811 144.68 588.355 143.864 588.355 142.424V135.944H591.499V134.336H588.355V131.072H586.699L586.459 134.336L584.635 134.456V135.944H586.363V142.4C586.363 144.704 587.203 146.288 589.699 146.288ZM597.7 146.288C600.46 146.288 601.972 144.704 601.972 142.808C601.972 140.6 600.1 139.904 598.42 139.28C597.1 138.776 595.828 138.368 595.828 137.264C595.828 136.376 596.5 135.584 597.964 135.584C598.996 135.584 599.836 136.016 600.628 136.616L601.564 135.368C600.676 134.648 599.404 134.048 597.94 134.048C595.42 134.048 593.932 135.488 593.932 137.36C593.932 139.328 595.756 140.12 597.412 140.72C598.684 141.2 600.076 141.728 600.076 142.928C600.076 143.936 599.308 144.752 597.772 144.752C596.38 144.752 595.348 144.176 594.34 143.36L593.356 144.68C594.46 145.592 596.044 146.288 597.7 146.288ZM614.683 146.288C615.403 146.288 616.195 146.072 616.843 145.856L616.459 144.368C616.075 144.512 615.547 144.68 615.139 144.68C613.795 144.68 613.339 143.864 613.339 142.424V135.944H616.483V134.336H613.339V131.072H611.683L611.443 134.336L609.619 134.456V135.944H611.347V142.4C611.347 144.704 612.187 146.288 614.683 146.288ZM624.078 146.288C626.934 146.288 629.478 144.056 629.478 140.192C629.478 136.28 626.934 134.048 624.078 134.048C621.222 134.048 618.678 136.28 618.678 140.192C618.678 144.056 621.222 146.288 624.078 146.288ZM624.078 144.656C622.086 144.656 620.718 142.856 620.718 140.192C620.718 137.504 622.086 135.68 624.078 135.68C626.094 135.68 627.438 137.504 627.438 140.192C627.438 142.856 626.094 144.656 624.078 144.656ZM643.583 146.288C645.167 146.288 646.415 145.736 647.423 145.088L646.727 143.792C645.863 144.344 644.927 144.704 643.823 144.704C641.591 144.704 640.079 143.12 639.935 140.648H647.807C647.855 140.36 647.879 139.928 647.879 139.52C647.879 136.184 646.199 134.048 643.223 134.048C640.559 134.048 637.991 136.376 637.991 140.192C637.991 144.008 640.463 146.288 643.583 146.288ZM639.911 139.232C640.151 136.928 641.639 135.608 643.271 135.608C645.095 135.608 646.151 136.88 646.151 139.232H639.911ZM649.715 146H651.779L653.363 143.288C653.747 142.568 654.131 141.872 654.539 141.2H654.635C655.067 141.872 655.499 142.592 655.907 143.288L657.611 146H659.747L655.955 140.12L659.483 134.336H657.419L656.003 136.904C655.643 137.528 655.283 138.2 654.947 138.848H654.851C654.443 138.2 654.059 137.528 653.699 136.904L652.139 134.336H650.003L653.531 139.904L649.715 146ZM662.808 150.92H664.776V146.984L664.728 144.944C665.808 145.784 666.888 146.288 667.968 146.288C670.632 146.288 673.008 143.96 673.008 140C673.008 136.376 671.4 134.048 668.4 134.048C667.032 134.048 665.736 134.792 664.68 135.68H664.608L664.44 134.336H662.808V150.92ZM667.632 144.632C666.864 144.632 665.832 144.296 664.776 143.408V137.288C665.928 136.256 666.912 135.704 667.896 135.704C670.104 135.704 670.968 137.432 670.968 140C670.968 142.88 669.552 144.632 667.632 144.632ZM678.958 146.288C679.486 146.288 679.822 146.216 680.086 146.096L679.822 144.608C679.606 144.656 679.51 144.656 679.39 144.656C679.102 144.656 678.838 144.416 678.838 143.792V128.912H676.87V143.648C676.87 145.352 677.47 146.288 678.958 146.288ZM688.274 146.288C691.13 146.288 693.674 144.056 693.674 140.192C693.674 136.28 691.13 134.048 688.274 134.048C685.418 134.048 682.874 136.28 682.874 140.192C682.874 144.056 685.418 146.288 688.274 146.288ZM688.274 144.656C686.282 144.656 684.914 142.856 684.914 140.192C684.914 137.504 686.282 135.68 688.274 135.68C690.29 135.68 691.634 137.504 691.634 140.192C691.634 142.856 690.29 144.656 688.274 144.656ZM697.495 146H699.463V138.512C700.255 136.544 701.431 135.824 702.415 135.824C702.895 135.824 703.159 135.896 703.543 136.016L703.927 134.288C703.543 134.12 703.183 134.048 702.679 134.048C701.359 134.048 700.159 134.984 699.367 136.448H699.295L699.127 134.336H697.495V146ZM711.059 146.288C712.643 146.288 713.891 145.736 714.899 145.088L714.203 143.792C713.339 144.344 712.403 144.704 711.299 144.704C709.067 144.704 707.555 143.12 707.411 140.648H715.283C715.331 140.36 715.355 139.928 715.355 139.52C715.355 136.184 713.675 134.048 710.699 134.048C708.035 134.048 705.467 136.376 705.467 140.192C705.467 144.008 707.939 146.288 711.059 146.288ZM707.387 139.232C707.627 136.928 709.115 135.608 710.747 135.608C712.571 135.608 713.627 136.88 713.627 139.232H707.387ZM434.831 174H436.799V165.552C437.879 164.352 438.863 163.752 439.727 163.752C441.215 163.752 441.911 164.688 441.911 166.872V174H443.879V165.552C444.959 164.352 445.895 163.752 446.807 163.752C448.271 163.752 448.967 164.688 448.967 166.872V174H450.935V166.608C450.935 163.632 449.783 162.048 447.383 162.048C445.967 162.048 444.767 162.96 443.543 164.28C443.063 162.888 442.103 162.048 440.327 162.048C438.935 162.048 437.711 162.912 436.703 164.016H436.631L436.463 162.336H434.831V174ZM460.016 174.288C462.872 174.288 465.416 172.056 465.416 168.192C465.416 164.28 462.872 162.048 460.016 162.048C457.16 162.048 454.616 164.28 454.616 168.192C454.616 172.056 457.16 174.288 460.016 174.288ZM460.016 172.656C458.024 172.656 456.656 170.856 456.656 168.192C456.656 165.504 458.024 163.68 460.016 163.68C462.032 163.68 463.376 165.504 463.376 168.192C463.376 170.856 462.032 172.656 460.016 172.656ZM469.238 174H471.206V166.512C471.998 164.544 473.174 163.824 474.158 163.824C474.638 163.824 474.902 163.896 475.286 164.016L475.67 162.288C475.286 162.12 474.926 162.048 474.422 162.048C473.102 162.048 471.902 162.984 471.11 164.448H471.038L470.87 162.336H469.238V174ZM482.801 174.288C484.385 174.288 485.633 173.736 486.641 173.088L485.945 171.792C485.081 172.344 484.145 172.704 483.041 172.704C480.809 172.704 479.297 171.12 479.153 168.648H487.025C487.073 168.36 487.097 167.928 487.097 167.52C487.097 164.184 485.417 162.048 482.441 162.048C479.777 162.048 477.209 164.376 477.209 168.192C477.209 172.008 479.681 174.288 482.801 174.288ZM479.129 167.232C479.369 164.928 480.857 163.608 482.489 163.608C484.313 163.608 485.369 164.88 485.369 167.232H479.129ZM496.284 178.92H498.252V174.984L498.204 172.944C499.284 173.784 500.364 174.288 501.444 174.288C504.108 174.288 506.484 171.96 506.484 168C506.484 164.376 504.876 162.048 501.876 162.048C500.508 162.048 499.212 162.792 498.156 163.68H498.084L497.916 162.336H496.284V178.92ZM501.108 172.632C500.34 172.632 499.308 172.296 498.252 171.408V165.288C499.404 164.256 500.388 163.704 501.372 163.704C503.58 163.704 504.444 165.432 504.444 168C504.444 170.88 503.028 172.632 501.108 172.632ZM514.883 174.288C517.739 174.288 520.283 172.056 520.283 168.192C520.283 164.28 517.739 162.048 514.883 162.048C512.027 162.048 509.483 164.28 509.483 168.192C509.483 172.056 512.027 174.288 514.883 174.288ZM514.883 172.656C512.891 172.656 511.523 170.856 511.523 168.192C511.523 165.504 512.891 163.68 514.883 163.68C516.899 163.68 518.243 165.504 518.243 168.192C518.243 170.856 516.899 172.656 514.883 172.656ZM527.153 174.288C529.913 174.288 531.425 172.704 531.425 170.808C531.425 168.6 529.553 167.904 527.873 167.28C526.553 166.776 525.281 166.368 525.281 165.264C525.281 164.376 525.953 163.584 527.417 163.584C528.449 163.584 529.289 164.016 530.081 164.616L531.017 163.368C530.129 162.648 528.857 162.048 527.393 162.048C524.873 162.048 523.385 163.488 523.385 165.36C523.385 167.328 525.209 168.12 526.865 168.72C528.137 169.2 529.529 169.728 529.529 170.928C529.529 171.936 528.761 172.752 527.225 172.752C525.833 172.752 524.801 172.176 523.793 171.36L522.809 172.68C523.913 173.592 525.497 174.288 527.153 174.288ZM537.957 174.288C540.717 174.288 542.229 172.704 542.229 170.808C542.229 168.6 540.357 167.904 538.677 167.28C537.357 166.776 536.085 166.368 536.085 165.264C536.085 164.376 536.757 163.584 538.221 163.584C539.253 163.584 540.093 164.016 540.885 164.616L541.821 163.368C540.933 162.648 539.661 162.048 538.197 162.048C535.677 162.048 534.189 163.488 534.189 165.36C534.189 167.328 536.013 168.12 537.669 168.72C538.941 169.2 540.333 169.728 540.333 170.928C540.333 171.936 539.565 172.752 538.029 172.752C536.637 172.752 535.605 172.176 534.597 171.36L533.613 172.68C534.717 173.592 536.301 174.288 537.957 174.288ZM545.714 174H547.682V162.336H545.714V174ZM546.722 159.936C547.49 159.936 548.09 159.408 548.09 158.664C548.09 157.896 547.49 157.392 546.722 157.392C545.954 157.392 545.354 157.896 545.354 158.664C545.354 159.408 545.954 159.936 546.722 159.936ZM557.53 174.288C560.194 174.288 562.57 171.96 562.57 167.976C562.57 164.376 560.962 162.048 557.938 162.048C556.642 162.048 555.346 162.744 554.29 163.68L554.338 161.568V156.912H552.37V174H553.954L554.122 172.8H554.194C555.226 173.736 556.45 174.288 557.53 174.288ZM557.194 172.632C556.426 172.632 555.37 172.296 554.338 171.408V165.288C555.442 164.256 556.474 163.704 557.458 163.704C559.666 163.704 560.53 165.432 560.53 168C560.53 170.88 559.114 172.632 557.194 172.632ZM566.386 174H568.354V162.336H566.386V174ZM567.394 159.936C568.162 159.936 568.762 159.408 568.762 158.664C568.762 157.896 568.162 157.392 567.394 157.392C566.626 157.392 566.026 157.896 566.026 158.664C566.026 159.408 566.626 159.936 567.394 159.936ZM575.13 174.288C575.658 174.288 575.994 174.216 576.258 174.096L575.994 172.608C575.778 172.656 575.682 172.656 575.562 172.656C575.274 172.656 575.01 172.416 575.01 171.792V156.912H573.042V171.648C573.042 173.352 573.642 174.288 575.13 174.288ZM579.909 174H581.877V162.336H579.909V174ZM580.917 159.936C581.685 159.936 582.285 159.408 582.285 158.664C582.285 157.896 581.685 157.392 580.917 157.392C580.149 157.392 579.549 157.896 579.549 158.664C579.549 159.408 580.149 159.936 580.917 159.936ZM590.238 174.288C590.958 174.288 591.75 174.072 592.398 173.856L592.014 172.368C591.63 172.512 591.102 172.68 590.694 172.68C589.35 172.68 588.894 171.864 588.894 170.424V163.944H592.038V162.336H588.894V159.072H587.238L586.998 162.336L585.174 162.456V163.944H586.902V170.4C586.902 172.704 587.742 174.288 590.238 174.288ZM595.425 174H597.393V162.336H595.425V174ZM596.433 159.936C597.201 159.936 597.801 159.408 597.801 158.664C597.801 157.896 597.201 157.392 596.433 157.392C595.665 157.392 595.065 157.896 595.065 158.664C595.065 159.408 595.665 159.936 596.433 159.936ZM606.809 174.288C608.393 174.288 609.641 173.736 610.649 173.088L609.953 171.792C609.089 172.344 608.153 172.704 607.049 172.704C604.817 172.704 603.305 171.12 603.161 168.648H611.033C611.081 168.36 611.105 167.928 611.105 167.52C611.105 164.184 609.425 162.048 606.449 162.048C603.785 162.048 601.217 164.376 601.217 168.192C601.217 172.008 603.689 174.288 606.809 174.288ZM603.137 167.232C603.377 164.928 604.865 163.608 606.497 163.608C608.321 163.608 609.377 164.88 609.377 167.232H603.137ZM617.786 174.288C620.546 174.288 622.058 172.704 622.058 170.808C622.058 168.6 620.186 167.904 618.506 167.28C617.186 166.776 615.914 166.368 615.914 165.264C615.914 164.376 616.586 163.584 618.05 163.584C619.082 163.584 619.922 164.016 620.714 164.616L621.65 163.368C620.762 162.648 619.49 162.048 618.026 162.048C615.506 162.048 614.018 163.488 614.018 165.36C614.018 167.328 615.842 168.12 617.498 168.72C618.77 169.2 620.162 169.728 620.162 170.928C620.162 171.936 619.394 172.752 617.858 172.752C616.466 172.752 615.434 172.176 614.426 171.36L613.442 172.68C614.546 173.592 616.13 174.288 617.786 174.288ZM635.633 174.288C638.489 174.288 641.033 172.056 641.033 168.192C641.033 164.28 638.489 162.048 635.633 162.048C632.777 162.048 630.233 164.28 630.233 168.192C630.233 172.056 632.777 174.288 635.633 174.288ZM635.633 172.656C633.641 172.656 632.273 170.856 632.273 168.192C632.273 165.504 633.641 163.68 635.633 163.68C637.649 163.68 638.993 165.504 638.993 168.192C638.993 170.856 637.649 172.656 635.633 172.656ZM645.191 174H647.159V163.944H649.631V162.336H647.159V160.488C647.159 159 647.687 158.232 648.791 158.232C649.223 158.232 649.679 158.328 650.111 158.52L650.543 157.008C650.015 156.792 649.319 156.624 648.599 156.624C646.271 156.624 645.191 158.112 645.191 160.488V162.336L643.607 162.456V163.944H645.191V174ZM661.839 174.288C662.559 174.288 663.351 174.072 663.999 173.856L663.615 172.368C663.231 172.512 662.703 172.68 662.295 172.68C660.951 172.68 660.495 171.864 660.495 170.424V163.944H663.639V162.336H660.495V159.072H658.839L658.599 162.336L656.775 162.456V163.944H658.503V170.4C658.503 172.704 659.343 174.288 661.839 174.288ZM671.426 174.288C673.01 174.288 674.258 173.736 675.266 173.088L674.57 171.792C673.706 172.344 672.77 172.704 671.666 172.704C669.434 172.704 667.922 171.12 667.778 168.648H675.65C675.698 168.36 675.722 167.928 675.722 167.52C675.722 164.184 674.042 162.048 671.066 162.048C668.402 162.048 665.834 164.376 665.834 168.192C665.834 172.008 668.306 174.288 671.426 174.288ZM667.754 167.232C667.994 164.928 669.482 163.608 671.114 163.608C672.938 163.608 673.994 164.88 673.994 167.232H667.754ZM683.963 174.288C685.355 174.288 686.675 173.736 687.731 172.8L686.867 171.48C686.147 172.128 685.211 172.656 684.131 172.656C681.995 172.656 680.531 170.856 680.531 168.192C680.531 165.504 682.067 163.68 684.179 163.68C685.115 163.68 685.835 164.112 686.507 164.712L687.515 163.416C686.699 162.672 685.643 162.048 684.107 162.048C681.107 162.048 678.491 164.28 678.491 168.192C678.491 172.056 680.867 174.288 683.963 174.288ZM691.05 174H693.018V165.552C694.194 164.376 695.01 163.752 696.21 163.752C697.746 163.752 698.418 164.688 698.418 166.872V174H700.386V166.608C700.386 163.632 699.282 162.048 696.834 162.048C695.226 162.048 694.05 162.912 692.946 163.968L693.018 161.568V156.912H691.05V174Z" fill="#4A4A4A"/>
<rect x="402" y="229" width="331" height="110" rx="6" fill="#F8F8F8"/>
<path d="M476.484 279H481.5C485.028 279 487.476 277.488 487.476 274.392C487.476 272.232 486.156 270.984 484.26 270.624V270.528C485.748 270.048 486.564 268.656 486.564 267.096C486.564 264.336 484.356 263.256 481.164 263.256H476.484V279ZM478.476 269.952V264.84H480.9C483.348 264.84 484.596 265.536 484.596 267.36C484.596 268.968 483.492 269.952 480.804 269.952H478.476ZM478.476 277.416V271.488H481.212C483.972 271.488 485.508 272.376 485.508 274.32C485.508 276.432 483.924 277.416 481.212 277.416H478.476ZM495.88 279.288C497.464 279.288 498.712 278.736 499.72 278.088L499.024 276.792C498.16 277.344 497.224 277.704 496.12 277.704C493.888 277.704 492.376 276.12 492.232 273.648H500.104C500.152 273.36 500.176 272.928 500.176 272.52C500.176 269.184 498.496 267.048 495.52 267.048C492.856 267.048 490.288 269.376 490.288 273.192C490.288 277.008 492.76 279.288 495.88 279.288ZM492.208 272.232C492.448 269.928 493.936 268.608 495.568 268.608C497.392 268.608 498.448 269.88 498.448 272.232H492.208ZM507.245 279.288C507.965 279.288 508.757 279.072 509.405 278.856L509.021 277.368C508.637 277.512 508.109 277.68 507.701 277.68C506.357 277.68 505.901 276.864 505.901 275.424V268.944H509.045V267.336H505.901V264.072H504.245L504.005 267.336L502.181 267.456V268.944H503.909V275.4C503.909 277.704 504.749 279.288 507.245 279.288ZM515.636 279.288C516.356 279.288 517.148 279.072 517.796 278.856L517.412 277.368C517.028 277.512 516.5 277.68 516.092 277.68C514.748 277.68 514.292 276.864 514.292 275.424V268.944H517.436V267.336H514.292V264.072H512.636L512.396 267.336L510.572 267.456V268.944H512.3V275.4C512.3 277.704 513.14 279.288 515.636 279.288ZM525.223 279.288C526.807 279.288 528.055 278.736 529.063 278.088L528.367 276.792C527.503 277.344 526.567 277.704 525.463 277.704C523.231 277.704 521.719 276.12 521.575 273.648H529.447C529.495 273.36 529.519 272.928 529.519 272.52C529.519 269.184 527.839 267.048 524.863 267.048C522.199 267.048 519.631 269.376 519.631 273.192C519.631 277.008 522.103 279.288 525.223 279.288ZM521.551 272.232C521.791 269.928 523.279 268.608 524.911 268.608C526.735 268.608 527.791 269.88 527.791 272.232H521.551ZM533.152 279H535.12V271.512C535.912 269.544 537.088 268.824 538.072 268.824C538.552 268.824 538.816 268.896 539.2 269.016L539.584 267.288C539.2 267.12 538.84 267.048 538.336 267.048C537.016 267.048 535.816 267.984 535.024 269.448H534.952L534.784 267.336H533.152V279ZM551.449 279.288C552.169 279.288 552.961 279.072 553.609 278.856L553.225 277.368C552.841 277.512 552.313 277.68 551.905 277.68C550.561 277.68 550.105 276.864 550.105 275.424V268.944H553.249V267.336H550.105V264.072H548.449L548.209 267.336L546.385 267.456V268.944H548.113V275.4C548.113 277.704 548.953 279.288 551.449 279.288ZM561.036 279.288C562.62 279.288 563.868 278.736 564.876 278.088L564.18 276.792C563.316 277.344 562.38 277.704 561.276 277.704C559.044 277.704 557.532 276.12 557.388 273.648H565.26C565.308 273.36 565.332 272.928 565.332 272.52C565.332 269.184 563.652 267.048 560.676 267.048C558.012 267.048 555.444 269.376 555.444 273.192C555.444 277.008 557.916 279.288 561.036 279.288ZM557.364 272.232C557.604 269.928 559.092 268.608 560.724 268.608C562.548 268.608 563.604 269.88 563.604 272.232H557.364ZM573.572 279.288C574.964 279.288 576.284 278.736 577.34 277.8L576.476 276.48C575.756 277.128 574.82 277.656 573.74 277.656C571.604 277.656 570.14 275.856 570.14 273.192C570.14 270.504 571.676 268.68 573.788 268.68C574.724 268.68 575.444 269.112 576.116 269.712L577.124 268.416C576.308 267.672 575.252 267.048 573.716 267.048C570.716 267.048 568.1 269.28 568.1 273.192C568.1 277.056 570.476 279.288 573.572 279.288ZM580.659 279H582.627V270.552C583.803 269.376 584.619 268.752 585.819 268.752C587.355 268.752 588.027 269.688 588.027 271.872V279H589.995V271.608C589.995 268.632 588.891 267.048 586.443 267.048C584.835 267.048 583.659 267.912 582.555 268.968L582.627 266.568V261.912H580.659V279ZM594.104 283.08C596.048 282.264 597.248 280.656 597.248 278.592C597.248 277.152 596.624 276.264 595.592 276.264C594.8 276.264 594.128 276.792 594.128 277.656C594.128 278.544 594.776 279.024 595.544 279.024C595.616 279.024 595.712 279.024 595.784 279C595.808 280.272 594.992 281.328 593.624 281.928L594.104 283.08ZM606.745 279H608.713V270.552C609.793 269.352 610.777 268.752 611.641 268.752C613.129 268.752 613.825 269.688 613.825 271.872V279H615.793V270.552C616.873 269.352 617.809 268.752 618.721 268.752C620.185 268.752 620.881 269.688 620.881 271.872V279H622.849V271.608C622.849 268.632 621.697 267.048 619.297 267.048C617.881 267.048 616.681 267.96 615.457 269.28C614.977 267.888 614.017 267.048 612.241 267.048C610.849 267.048 609.625 267.912 608.617 269.016H608.545L608.377 267.336H606.745V279ZM631.93 279.288C634.786 279.288 637.33 277.056 637.33 273.192C637.33 269.28 634.786 267.048 631.93 267.048C629.074 267.048 626.53 269.28 626.53 273.192C626.53 277.056 629.074 279.288 631.93 279.288ZM631.93 277.656C629.938 277.656 628.57 275.856 628.57 273.192C628.57 270.504 629.938 268.68 631.93 268.68C633.946 268.68 635.29 270.504 635.29 273.192C635.29 275.856 633.946 277.656 631.93 277.656ZM641.152 279H643.12V271.512C643.912 269.544 645.088 268.824 646.072 268.824C646.552 268.824 646.816 268.896 647.2 269.016L647.584 267.288C647.2 267.12 646.84 267.048 646.336 267.048C645.016 267.048 643.816 267.984 643.024 269.448H642.952L642.784 267.336H641.152V279ZM654.716 279.288C656.3 279.288 657.548 278.736 658.556 278.088L657.86 276.792C656.996 277.344 656.06 277.704 654.956 277.704C652.724 277.704 651.212 276.12 651.068 273.648H658.94C658.988 273.36 659.012 272.928 659.012 272.52C659.012 269.184 657.332 267.048 654.356 267.048C651.692 267.048 649.124 269.376 649.124 273.192C649.124 277.008 651.596 279.288 654.716 279.288ZM651.044 272.232C651.284 269.928 652.772 268.608 654.404 268.608C656.228 268.608 657.284 269.88 657.284 272.232H651.044ZM486.102 307.288C488.862 307.288 490.374 305.704 490.374 303.808C490.374 301.6 488.502 300.904 486.822 300.28C485.502 299.776 484.23 299.368 484.23 298.264C484.23 297.376 484.902 296.584 486.366 296.584C487.398 296.584 488.238 297.016 489.03 297.616L489.966 296.368C489.078 295.648 487.806 295.048 486.342 295.048C483.822 295.048 482.334 296.488 482.334 298.36C482.334 300.328 484.158 301.12 485.814 301.72C487.086 302.2 488.478 302.728 488.478 303.928C488.478 304.936 487.71 305.752 486.174 305.752C484.782 305.752 483.75 305.176 482.742 304.36L481.758 305.68C482.862 306.592 484.446 307.288 486.102 307.288ZM493.859 311.92H495.827V307.984L495.779 305.944C496.859 306.784 497.939 307.288 499.019 307.288C501.683 307.288 504.059 304.96 504.059 301C504.059 297.376 502.451 295.048 499.451 295.048C498.083 295.048 496.787 295.792 495.731 296.68H495.659L495.491 295.336H493.859V311.92ZM498.683 305.632C497.915 305.632 496.883 305.296 495.827 304.408V298.288C496.979 297.256 497.963 296.704 498.947 296.704C501.155 296.704 502.019 298.432 502.019 301C502.019 303.88 500.603 305.632 498.683 305.632ZM510.281 307.288C511.745 307.288 513.041 306.52 514.145 305.608H514.217L514.385 307H516.017V299.848C516.017 296.944 514.817 295.048 511.961 295.048C510.089 295.048 508.457 295.864 507.377 296.56L508.145 297.928C509.057 297.304 510.281 296.68 511.625 296.68C513.545 296.68 514.025 298.12 514.025 299.608C509.057 300.16 506.873 301.432 506.873 303.976C506.873 306.064 508.337 307.288 510.281 307.288ZM510.857 305.704C509.705 305.704 508.793 305.152 508.793 303.832C508.793 302.344 510.137 301.384 514.025 300.904V304.144C512.897 305.152 511.985 305.704 510.857 305.704ZM525.045 307.288C526.437 307.288 527.757 306.736 528.813 305.8L527.949 304.48C527.229 305.128 526.293 305.656 525.213 305.656C523.077 305.656 521.613 303.856 521.613 301.192C521.613 298.504 523.149 296.68 525.261 296.68C526.197 296.68 526.917 297.112 527.589 297.712L528.597 296.416C527.781 295.672 526.725 295.048 525.189 295.048C522.189 295.048 519.573 297.28 519.573 301.192C519.573 305.056 521.949 307.288 525.045 307.288ZM536.344 307.288C537.928 307.288 539.176 306.736 540.184 306.088L539.488 304.792C538.624 305.344 537.688 305.704 536.584 305.704C534.352 305.704 532.84 304.12 532.696 301.648H540.568C540.616 301.36 540.64 300.928 540.64 300.52C540.64 297.184 538.96 295.048 535.984 295.048C533.32 295.048 530.752 297.376 530.752 301.192C530.752 305.008 533.224 307.288 536.344 307.288ZM532.672 300.232C532.912 297.928 534.4 296.608 536.032 296.608C537.856 296.608 538.912 297.88 538.912 300.232H532.672ZM550.163 307H552.131V296.944H554.603V295.336H552.131V293.488C552.131 292 552.659 291.232 553.763 291.232C554.195 291.232 554.651 291.328 555.083 291.52L555.515 290.008C554.987 289.792 554.291 289.624 553.571 289.624C551.243 289.624 550.163 291.112 550.163 293.488V295.336L548.579 295.456V296.944H550.163V307ZM561.887 307.288C564.743 307.288 567.287 305.056 567.287 301.192C567.287 297.28 564.743 295.048 561.887 295.048C559.031 295.048 556.487 297.28 556.487 301.192C556.487 305.056 559.031 307.288 561.887 307.288ZM561.887 305.656C559.895 305.656 558.527 303.856 558.527 301.192C558.527 298.504 559.895 296.68 561.887 296.68C563.903 296.68 565.247 298.504 565.247 301.192C565.247 303.856 563.903 305.656 561.887 305.656ZM571.109 307H573.077V299.512C573.869 297.544 575.045 296.824 576.029 296.824C576.509 296.824 576.773 296.896 577.157 297.016L577.541 295.288C577.157 295.12 576.797 295.048 576.293 295.048C574.973 295.048 573.773 295.984 572.981 297.448H572.909L572.741 295.336H571.109V307ZM589.718 307.288C591.086 307.288 592.334 306.52 593.246 305.632H593.318L593.486 307H595.118V289.912H593.126V294.4L593.222 296.392C592.19 295.552 591.302 295.048 589.958 295.048C587.294 295.048 584.894 297.4 584.894 301.192C584.894 305.08 586.79 307.288 589.718 307.288ZM590.15 305.632C588.11 305.632 586.934 303.952 586.934 301.168C586.934 298.504 588.422 296.704 590.294 296.704C591.254 296.704 592.142 297.04 593.126 297.928V304.024C592.166 305.104 591.23 305.632 590.15 305.632ZM604.524 307.288C606.108 307.288 607.356 306.736 608.364 306.088L607.668 304.792C606.804 305.344 605.868 305.704 604.764 305.704C602.532 305.704 601.02 304.12 600.876 301.648H608.748C608.796 301.36 608.82 300.928 608.82 300.52C608.82 297.184 607.14 295.048 604.164 295.048C601.5 295.048 598.932 297.376 598.932 301.192C598.932 305.008 601.404 307.288 604.524 307.288ZM600.852 300.232C601.092 297.928 602.58 296.608 604.212 296.608C606.036 296.608 607.092 297.88 607.092 300.232H600.852ZM615.5 307.288C618.26 307.288 619.772 305.704 619.772 303.808C619.772 301.6 617.9 300.904 616.22 300.28C614.9 299.776 613.628 299.368 613.628 298.264C613.628 297.376 614.3 296.584 615.764 296.584C616.796 296.584 617.636 297.016 618.428 297.616L619.364 296.368C618.476 295.648 617.204 295.048 615.74 295.048C613.22 295.048 611.732 296.488 611.732 298.36C611.732 300.328 613.556 301.12 615.212 301.72C616.484 302.2 617.876 302.728 617.876 303.928C617.876 304.936 617.108 305.752 615.572 305.752C614.18 305.752 613.148 305.176 612.14 304.36L611.156 305.68C612.26 306.592 613.844 307.288 615.5 307.288ZM623.257 307H625.225V295.336H623.257V307ZM624.265 292.936C625.033 292.936 625.633 292.408 625.633 291.664C625.633 290.896 625.033 290.392 624.265 290.392C623.497 290.392 622.897 290.896 622.897 291.664C622.897 292.408 623.497 292.936 624.265 292.936ZM633.849 312.376C637.473 312.376 639.753 310.504 639.753 308.344C639.753 306.4 638.385 305.56 635.673 305.56H633.417C631.833 305.56 631.353 305.032 631.353 304.288C631.353 303.64 631.689 303.256 632.097 302.896C632.625 303.16 633.273 303.304 633.849 303.304C636.225 303.304 638.121 301.744 638.121 299.248C638.121 298.264 637.713 297.376 637.161 296.848H639.561V295.336H635.505C635.073 295.168 634.497 295.048 633.849 295.048C631.473 295.048 629.457 296.656 629.457 299.2C629.457 300.592 630.201 301.72 630.969 302.344V302.44C630.369 302.848 629.697 303.616 629.697 304.6C629.697 305.512 630.153 306.136 630.729 306.496V306.592C629.673 307.312 629.025 308.248 629.025 309.232C629.025 311.248 630.993 312.376 633.849 312.376ZM633.849 301.984C632.505 301.984 631.377 300.904 631.377 299.2C631.377 297.496 632.481 296.488 633.849 296.488C635.217 296.488 636.321 297.496 636.321 299.2C636.321 300.904 635.193 301.984 633.849 301.984ZM634.137 311.008C632.025 311.008 630.753 310.216 630.753 308.968C630.753 308.296 631.113 307.6 631.953 307C632.457 307.144 633.009 307.192 633.465 307.192H635.481C636.993 307.192 637.833 307.552 637.833 308.632C637.833 309.856 636.369 311.008 634.137 311.008ZM642.757 307H644.725V298.552C645.901 297.376 646.717 296.752 647.917 296.752C649.453 296.752 650.125 297.688 650.125 299.872V307H652.093V299.608C652.093 296.632 650.989 295.048 648.541 295.048C646.933 295.048 645.733 295.912 644.629 297.016H644.557L644.389 295.336H642.757V307Z" fill="#4A4A4A"/>
<rect x="402" y="373" width="331" height="89" rx="6" fill="#41988E" fill-opacity="0.1023"/>
<path d="M457.09 427H460.618V411.352H457.09V427ZM464.771 427H468.299V418.96C469.067 418.216 469.619 417.808 470.507 417.808C471.515 417.808 471.971 418.336 471.971 420.064V427H475.499V419.608C475.499 416.632 474.395 414.808 471.803 414.808C470.195 414.808 468.995 415.648 467.987 416.608H467.891L467.651 415.096H464.771V427ZM479.255 427H482.783V418.96C483.551 418.216 484.103 417.808 484.991 417.808C485.999 417.808 486.455 418.336 486.455 420.064V427H489.983V419.608C489.983 416.632 488.879 414.808 486.287 414.808C484.679 414.808 483.479 415.648 482.471 416.608H482.375L482.135 415.096H479.255V427ZM498.852 427.288C501.852 427.288 504.636 425.008 504.636 421.048C504.636 417.088 501.852 414.808 498.852 414.808C495.828 414.808 493.044 417.088 493.044 421.048C493.044 425.008 495.828 427.288 498.852 427.288ZM498.852 424.432C497.388 424.432 496.668 423.112 496.668 421.048C496.668 418.984 497.388 417.664 498.852 417.664C500.292 417.664 501.036 418.984 501.036 421.048C501.036 423.112 500.292 424.432 498.852 424.432ZM510.351 427H514.431L518.319 415.096H514.935L513.375 420.712C513.063 421.888 512.751 423.136 512.463 424.384H512.367C512.055 423.136 511.743 421.888 511.431 420.712L509.895 415.096H506.343L510.351 427ZM523.458 427.288C524.802 427.288 525.906 426.664 526.914 425.776H527.01L527.25 427H530.13V420.184C530.13 416.536 528.45 414.808 525.402 414.808C523.53 414.808 521.826 415.456 520.314 416.368L521.586 418.696C522.738 418.024 523.722 417.616 524.73 417.616C526.026 417.616 526.53 418.288 526.602 419.344C521.898 419.824 519.906 421.192 519.906 423.688C519.906 425.704 521.274 427.288 523.458 427.288ZM524.658 424.552C523.818 424.552 523.29 424.192 523.29 423.424C523.29 422.512 524.106 421.792 526.602 421.456V423.544C525.978 424.168 525.45 424.552 524.658 424.552ZM538.027 427.288C539.179 427.288 540.043 427.048 540.667 426.856L540.115 424.288C539.803 424.408 539.371 424.528 538.987 424.528C538.051 424.528 537.451 423.976 537.451 422.632V417.856H540.307V415.096H537.451V411.928H534.523L534.115 415.096L532.291 415.24V417.856H533.923V422.68C533.923 425.44 535.075 427.288 538.027 427.288ZM543.38 427H546.908V415.096H543.38V427ZM545.132 413.344C546.332 413.344 547.172 412.576 547.172 411.496C547.172 410.416 546.332 409.672 545.132 409.672C543.956 409.672 543.092 410.416 543.092 411.496C543.092 412.576 543.956 413.344 545.132 413.344ZM555.875 427.288C558.875 427.288 561.659 425.008 561.659 421.048C561.659 417.088 558.875 414.808 555.875 414.808C552.851 414.808 550.067 417.088 550.067 421.048C550.067 425.008 552.851 427.288 555.875 427.288ZM555.875 424.432C554.411 424.432 553.691 423.112 553.691 421.048C553.691 418.984 554.411 417.664 555.875 417.664C557.315 417.664 558.059 418.984 558.059 421.048C558.059 423.112 557.315 424.432 555.875 424.432ZM564.826 427H568.354V418.96C569.122 418.216 569.674 417.808 570.562 417.808C571.57 417.808 572.026 418.336 572.026 420.064V427H575.554V419.608C575.554 416.632 574.45 414.808 571.858 414.808C570.25 414.808 569.05 415.648 568.042 416.608H567.946L567.706 415.096H564.826V427ZM585.465 427H588.993V417.856H591.129V415.096H588.993V414.376C588.993 413.152 589.497 412.672 590.361 412.672C590.745 412.672 591.177 412.768 591.585 412.912L592.233 410.32C591.705 410.128 590.841 409.888 589.857 409.888C586.641 409.888 585.465 411.952 585.465 414.472V415.12L583.881 415.24V417.856H585.465V427ZM597.034 427.288C597.826 427.288 598.426 427.168 598.81 427L598.378 424.384C598.186 424.432 598.09 424.432 597.946 424.432C597.658 424.432 597.322 424.192 597.322 423.448V410.176H593.794V423.304C593.794 425.704 594.61 427.288 597.034 427.288ZM606.524 427.288C609.524 427.288 612.308 425.008 612.308 421.048C612.308 417.088 609.524 414.808 606.524 414.808C603.5 414.808 600.716 417.088 600.716 421.048C600.716 425.008 603.5 427.288 606.524 427.288ZM606.524 424.432C605.06 424.432 604.34 423.112 604.34 421.048C604.34 418.984 605.06 417.664 606.524 417.664C607.964 417.664 608.708 418.984 608.708 421.048C608.708 423.112 607.964 424.432 606.524 424.432ZM619.05 427.288C620.682 427.288 621.786 426.544 622.794 425.344H622.866L623.13 427H626.01V415.096H622.482V422.968C621.786 423.904 621.258 424.288 620.37 424.288C619.338 424.288 618.882 423.736 618.882 422.032V415.096H615.354V422.488C615.354 425.464 616.458 427.288 619.05 427.288ZM629.865 427H633.393V420.088C634.017 418.48 635.121 417.904 636.009 417.904C636.513 417.904 636.873 417.976 637.305 418.096L637.881 415.048C637.545 414.904 637.137 414.808 636.465 414.808C635.241 414.808 633.945 415.576 633.081 417.184H632.985L632.745 415.096H629.865V427ZM640.177 427H643.705V415.096H640.177V427ZM641.929 413.344C643.129 413.344 643.969 412.576 643.969 411.496C643.969 410.416 643.129 409.672 641.929 409.672C640.753 409.672 639.889 410.416 639.889 411.496C639.889 412.576 640.753 413.344 641.929 413.344ZM651.064 427.288C654.256 427.288 655.96 425.608 655.96 423.448C655.96 421.264 654.256 420.424 652.744 419.872C651.52 419.416 650.416 419.128 650.416 418.36C650.416 417.76 650.848 417.424 651.76 417.424C652.6 417.424 653.416 417.808 654.28 418.432L655.864 416.32C654.832 415.552 653.488 414.808 651.664 414.808C648.904 414.808 647.104 416.32 647.104 418.528C647.104 420.496 648.808 421.48 650.248 422.032C651.472 422.512 652.672 422.872 652.672 423.664C652.672 424.288 652.216 424.672 651.16 424.672C650.152 424.672 649.168 424.24 648.088 423.424L646.504 425.632C647.704 426.616 649.504 427.288 651.064 427.288ZM658.951 427H662.479V418.96C663.247 418.216 663.799 417.808 664.687 417.808C665.695 417.808 666.151 418.336 666.151 420.064V427H669.679V419.608C669.679 416.632 668.575 414.808 665.983 414.808C664.375 414.808 663.199 415.648 662.311 416.44L662.479 414.304V410.176H658.951V427ZM674.78 421.456H677.084L677.588 414.112L677.708 410.92H674.156L674.276 414.112L674.78 421.456ZM675.932 427.288C677.156 427.288 678.068 426.328 678.068 425.08C678.068 423.808 677.156 422.848 675.932 422.848C674.708 422.848 673.796 423.808 673.796 425.08C673.796 426.328 674.708 427.288 675.932 427.288Z" fill="#4A4A4A"/>
<path d="M280.383 27H285.339L290.827 8.744H286.627L284.471 17.256C283.939 19.244 283.547 21.092 283.015 23.108H282.903C282.343 21.092 281.979 19.244 281.419 17.256L279.235 8.744H274.866L280.383 27ZM293.316 27H297.432V13.112H293.316V27ZM295.36 11.068C296.76 11.068 297.74 10.172 297.74 8.912C297.74 7.652 296.76 6.784 295.36 6.784C293.988 6.784 292.98 7.652 292.98 8.912C292.98 10.172 293.988 11.068 295.36 11.068ZM306.017 27.336C309.741 27.336 311.729 25.376 311.729 22.856C311.729 20.308 309.741 19.328 307.977 18.684C306.549 18.152 305.261 17.816 305.261 16.92C305.261 16.22 305.765 15.828 306.829 15.828C307.809 15.828 308.761 16.276 309.769 17.004L311.617 14.54C310.413 13.644 308.845 12.776 306.717 12.776C303.497 12.776 301.397 14.54 301.397 17.116C301.397 19.412 303.385 20.56 305.065 21.204C306.493 21.764 307.893 22.184 307.893 23.108C307.893 23.836 307.361 24.284 306.129 24.284C304.953 24.284 303.805 23.78 302.545 22.828L300.697 25.404C302.097 26.552 304.197 27.336 306.017 27.336ZM319.39 27.336C321.294 27.336 322.582 26.468 323.758 25.068H323.842L324.15 27H327.51V13.112H323.394V22.296C322.582 23.388 321.966 23.836 320.93 23.836C319.726 23.836 319.194 23.192 319.194 21.204V13.112H315.078V21.736C315.078 25.208 316.366 27.336 319.39 27.336ZM335.508 27.336C337.076 27.336 338.364 26.608 339.54 25.572H339.652L339.932 27H343.292V19.048C343.292 14.792 341.332 12.776 337.776 12.776C335.592 12.776 333.604 13.532 331.84 14.596L333.324 17.312C334.668 16.528 335.816 16.052 336.992 16.052C338.504 16.052 339.092 16.836 339.176 18.068C333.688 18.628 331.364 20.224 331.364 23.136C331.364 25.488 332.96 27.336 335.508 27.336ZM336.908 24.144C335.928 24.144 335.312 23.724 335.312 22.828C335.312 21.764 336.264 20.924 339.176 20.532V22.968C338.448 23.696 337.832 24.144 336.908 24.144ZM351.428 27.336C352.352 27.336 353.052 27.196 353.5 27L352.996 23.948C352.772 24.004 352.66 24.004 352.492 24.004C352.156 24.004 351.764 23.724 351.764 22.856V7.372H347.648V22.688C347.648 25.488 348.6 27.336 351.428 27.336ZM363.351 27H368.727C374.075 27 377.659 24.06 377.659 17.788C377.659 11.516 374.075 8.744 368.503 8.744H363.351V27ZM367.467 23.668V12.076H368.251C371.359 12.076 373.431 13.42 373.431 17.788C373.431 22.156 371.359 23.668 368.251 23.668H367.467ZM387.88 27.336C389.532 27.336 391.38 26.748 392.808 25.768L391.436 23.276C390.428 23.892 389.476 24.2 388.44 24.2C386.592 24.2 385.192 23.276 384.828 21.26H393.144C393.228 20.924 393.312 20.168 393.312 19.44C393.312 15.66 391.352 12.776 387.404 12.776C384.072 12.776 380.852 15.548 380.852 20.056C380.852 24.648 383.904 27.336 387.88 27.336ZM384.8 18.544C385.08 16.78 386.2 15.912 387.488 15.912C389.14 15.912 389.812 17.004 389.812 18.544H384.8ZM400.059 27H404.819L409.355 13.112H405.407L403.587 19.664C403.223 21.036 402.859 22.492 402.523 23.948H402.411C402.047 22.492 401.683 21.036 401.319 19.664L399.527 13.112H395.383L400.059 27ZM423.499 17.76C424.003 15.94 424.479 13.812 424.927 11.88H425.039C425.515 13.784 426.019 15.94 426.523 17.76L426.943 19.44H423.051L423.499 17.76ZM416.891 27H421.091L422.211 22.66H427.783L428.903 27H433.271L427.559 8.744H422.603L416.891 27ZM435.804 27H439.92V13.112H435.804V27ZM437.848 11.068C439.248 11.068 440.228 10.172 440.228 8.912C440.228 7.652 439.248 6.784 437.848 6.784C436.476 6.784 435.468 7.652 435.468 8.912C435.468 10.172 436.476 11.068 437.848 11.068ZM449.374 27.336C450.718 27.336 452.09 26.608 453.07 25.628H453.182L453.462 27H456.822V7.372H452.706V12.104L452.874 14.232C451.922 13.336 450.998 12.776 449.458 12.776C446.518 12.776 443.69 15.52 443.69 20.056C443.69 24.592 445.93 27.336 449.374 27.336ZM450.438 23.976C448.842 23.976 447.918 22.744 447.918 20C447.918 17.368 449.094 16.136 450.41 16.136C451.166 16.136 451.978 16.36 452.706 17.032V22.716C452.034 23.64 451.334 23.976 450.438 23.976ZM465.431 27.336C469.155 27.336 471.143 25.376 471.143 22.856C471.143 20.308 469.155 19.328 467.391 18.684C465.963 18.152 464.675 17.816 464.675 16.92C464.675 16.22 465.179 15.828 466.243 15.828C467.223 15.828 468.175 16.276 469.183 17.004L471.031 14.54C469.827 13.644 468.259 12.776 466.131 12.776C462.911 12.776 460.811 14.54 460.811 17.116C460.811 19.412 462.799 20.56 464.479 21.204C465.907 21.764 467.307 22.184 467.307 23.108C467.307 23.836 466.775 24.284 465.543 24.284C464.367 24.284 463.219 23.78 461.959 22.828L460.111 25.404C461.511 26.552 463.611 27.336 465.431 27.336Z" fill="#41988E"/>
</svg>
