<svg width="86" height="88" viewBox="0 0 86 88" fill="none" xmlns="http://www.w3.org/2000/svg">
<g filter="url(#filter0_d)">
<path d="M61.7995 9.90925C67.2345 13.6302 71.5123 19.0848 74.3599 25.2596C77.2204 31.4478 78.6507 38.3561 77.7145 44.9044C76.7783 51.466 73.4627 57.6542 68.9639 62.522C64.465 67.3899 58.7699 70.9507 52.4377 73.298C46.1185 75.6585 39.1752 76.8055 32.6349 75.3651C26.1077 73.9248 19.9835 69.8838 15.7057 64.4291C11.4409 58.9745 9.00939 52.0928 8.25524 45.1178C7.5011 38.1294 8.41127 31.061 11.0768 24.6995C13.7423 18.338 18.1761 12.6966 23.8192 9.06905C29.4623 5.4415 36.3016 3.82778 43.0239 4.01449C49.7462 4.2012 56.3514 6.18835 61.7995 9.90925Z" fill="#E2F4FC"/>
<path fill-rule="evenodd" clip-rule="evenodd" d="M63 32.6773C63 21.1888 54.0771 15.3873 44.768 15H42.7464C39.808 15.1196 36.8902 15.7797 34.2699 16.9628C28.4136 19.6075 24 24.8802 24 32.6773C40.9857 32.5191 39.5742 49.2322 63 32.6773Z" fill="#454545"/>
<path fill-rule="evenodd" clip-rule="evenodd" d="M63 32.6862C39.6436 41.8824 41.0282 27.9291 24 32.6862V43.6621C24 48.3972 26.2574 54.9518 30.411 59.088C39.4926 67.2782 49.1043 66.6573 56.8284 59.088C60.9812 54.951 63 48.3972 63 43.6621V32.6862Z" fill="#FFDDA6"/>
<path fill-rule="evenodd" clip-rule="evenodd" d="M42.688 64.9112C45.3669 63.9465 47.9361 62.2145 50.3212 59.7751C54.3806 55.5546 55.5579 48.8685 55.5579 44.0378V34.9587C57.7218 34.4526 60.1759 33.6605 63 32.5V43.2313C63 48.062 61.0267 54.7481 56.9674 58.9686C52.6616 63.3725 47.7557 65.4708 42.688 64.9112Z" fill="#F5CA86"/>
<path d="M37.0004 45.8333C36.103 45.8333 35.375 45.1148 35.375 44.2291V42.4374C35.375 41.5509 36.103 40.8333 37.0004 40.8333C37.8978 40.8333 38.625 41.5509 38.625 42.4374V44.2291C38.625 45.1156 37.8978 45.8333 37.0004 45.8333Z" fill="#5D5D5D"/>
<path d="M50.0004 45.8333C49.103 45.8333 48.375 45.1148 48.375 44.2291V42.4374C48.375 41.5509 49.103 40.8333 50.0004 40.8333C50.8978 40.8333 51.625 41.5509 51.625 42.4374V44.2291C51.625 45.1156 50.8978 45.8333 50.0004 45.8333Z" fill="#5D5D5D"/>
<path fill-rule="evenodd" clip-rule="evenodd" d="M44.5176 15H42.4683C40.3285 15.0877 38.2038 15.4479 36.1875 16.0872C45.8672 16.2231 55.348 22.0352 55.348 33.8164V35C57.574 34.4973 60.0959 33.8274 63 32.7074C63 21.1993 53.9545 15.388 44.5176 15Z" fill="#202020"/>
<path d="M40.2522 52.5C40.2522 52.5 40.046 55 43.6267 55C47.2074 55 47.5625 52.5 47.5625 52.5" stroke="#DC8F7D" stroke-width="2" stroke-linecap="round" stroke-linejoin="round"/>
</g>
<defs>
<filter id="filter0_d" x="0" y="0" width="86" height="88" filterUnits="userSpaceOnUse" color-interpolation-filters="sRGB">
<feFlood flood-opacity="0" result="BackgroundImageFix"/>
<feColorMatrix in="SourceAlpha" type="matrix" values="0 0 0 0 0 0 0 0 0 0 0 0 0 0 0 0 0 0 127 0"/>
<feOffset dy="4"/>
<feGaussianBlur stdDeviation="4"/>
<feColorMatrix type="matrix" values="0 0 0 0 0.801432 0 0 0 0 0.801432 0 0 0 0 0.801432 0 0 0 0.5 0"/>
<feBlend mode="normal" in2="BackgroundImageFix" result="effect1_dropShadow"/>
<feBlend mode="normal" in="SourceGraphic" in2="effect1_dropShadow" result="shape"/>
</filter>
</defs>
</svg>
