<svg width="86" height="88" viewBox="0 0 86 88" fill="none" xmlns="http://www.w3.org/2000/svg">
<g filter="url(#filter0_d)">
<path d="M61.7995 9.89463C67.2345 13.6063 71.5123 19.0475 74.3599 25.207C77.2204 31.3799 78.6507 38.2711 77.7145 44.8032C76.7783 51.3486 73.4627 57.5214 68.9639 62.3772C64.465 67.233 58.7699 70.7851 52.4377 73.1265C46.1185 75.4812 39.1752 76.6253 32.6349 75.1886C26.1077 73.7518 19.9835 69.7208 15.7057 64.2796C11.4409 58.8385 9.00939 51.9738 8.25524 45.0161C7.5011 38.045 8.41127 30.9941 11.0768 24.6483C13.7423 18.3025 18.1761 12.6751 23.8192 9.05651C29.4623 5.43794 36.3016 3.82821 43.0239 4.01446C49.7462 4.20071 56.3514 6.18294 61.7995 9.89463Z" fill="#E2F4FC"/>
<path d="M50.8818 27.7953C40.3613 28.0077 32.0015 36.7989 32.0015 47.4038L60.9152 54.0742H63.75C67.5073 54.0742 70.5532 51.0045 70.5532 47.2178C70.5532 36.3562 61.7084 27.5765 50.8818 27.7953Z" fill="#D3AF55"/>
<path d="M61.853 31.3442C61.798 31.1316 61.7216 30.9224 61.6249 30.72C61.5239 30.5207 61.4002 30.3304 61.2589 30.1495C61.1882 30.0593 61.1137 29.973 61.0361 29.8911C60.9564 29.8106 60.8721 29.7358 60.7859 29.6649C60.6129 29.5232 60.4286 29.4001 60.2363 29.2975C59.8429 29.0995 59.4179 28.9835 58.9811 28.966C58.113 28.9353 57.4405 28.2585 57.3751 27.3952C57.3604 27.1748 57.3225 26.9569 57.2627 26.744C57.2002 26.5344 57.1129 26.3333 57.0069 26.139C56.7987 25.7459 56.4892 25.4105 56.1242 25.1277C55.3768 24.5816 54.4588 24.3748 53.6008 24.5916C52.7639 24.783 51.9218 24.3495 51.6195 23.5255C51.465 23.1124 51.2184 22.7403 50.9009 22.4275C50.5783 22.1273 50.1907 21.8716 49.748 21.7268C49.3108 21.5672 48.8488 21.5253 48.4101 21.5637C47.9688 21.61 47.5448 21.7563 47.1719 21.9832C46.43 22.448 45.5041 22.2732 44.9508 21.6103C44.8116 21.4392 44.6541 21.2811 44.4808 21.1443C44.3072 21.013 44.1179 20.899 43.9167 20.8037C43.8162 20.7562 43.7126 20.7133 43.6067 20.6752C43.5005 20.6392 43.3918 20.6126 43.2811 20.5886C43.0598 20.5417 42.8304 20.5153 42.5977 20.5105C42.365 20.5154 42.1357 20.5418 41.9144 20.5886C41.8038 20.6125 41.6949 20.6393 41.5888 20.6752C41.4828 20.7133 41.3793 20.7562 41.2787 20.8037C41.0776 20.899 40.8884 21.0128 40.7145 21.1443C40.5413 21.2811 40.3838 21.4392 40.2445 21.6103C39.6914 22.2731 38.7655 22.4478 38.0234 21.9831C37.6503 21.7562 37.2266 21.6099 36.7853 21.5636C36.3466 21.5252 35.8846 21.5671 35.4474 21.7267C35.0048 21.8715 34.6171 22.1273 34.2944 22.4275C33.977 22.7403 33.7303 23.1125 33.5759 23.5256C33.2737 24.3493 32.4317 24.7829 31.5944 24.5917C30.7367 24.3748 29.8188 24.5816 29.0713 25.1278C28.7063 25.4106 28.3966 25.7461 28.1885 26.1391C28.0825 26.3334 27.9952 26.5347 27.9325 26.7442C27.8728 26.957 27.8348 27.1749 27.8202 27.3954C27.755 28.2586 27.0825 28.9353 26.2141 28.9662C25.7774 28.9838 25.3525 29.0997 24.9591 29.2977C24.7668 29.4004 24.5827 29.5236 24.4095 29.6651C24.3233 29.736 24.2388 29.8108 24.1593 29.8913C24.0817 29.9732 24.0073 30.0594 23.9365 30.1498C23.7953 30.3306 23.6715 30.521 23.5705 30.7202C23.4739 30.9227 23.3974 31.1318 23.3425 31.3444C23.2277 31.7665 23.2226 32.2176 23.2986 32.6487C23.3178 32.7553 23.3263 32.8611 23.3245 32.965C23.325 33.0704 23.3157 33.174 23.2968 33.2747C23.2593 33.4758 23.1843 33.6651 23.0771 33.8342C22.8673 34.1749 22.5396 34.4429 22.1177 34.5572C21.701 34.6789 21.3115 34.8876 20.9772 35.1708C20.8139 35.3143 20.663 35.4756 20.5274 35.6522C20.4596 35.7405 20.3955 35.8326 20.3356 35.9279C20.278 36.0246 20.2257 36.1251 20.1773 36.2285C20.0806 36.4355 20.0045 36.6485 19.9499 36.8639C19.8982 37.0806 19.8728 37.3019 19.8661 37.5206C19.8615 37.74 19.8728 37.9559 19.9162 38.1715C19.9588 38.3867 20.0228 38.597 20.1086 38.7997C20.1947 39.0009 20.2309 39.2025 20.2398 39.4117L42.4516 46.7743L57.5701 36.1336C61.4254 35.3253 61.8966 32.6487 61.8966 32.6487C61.9728 32.2173 61.9677 31.7662 61.853 31.3442Z" fill="#B5CF57"/>
<path d="M57.5703 36.1333C55.9671 37.448 48.5889 41.7974 42.4518 46.774L58.5497 52.1099C58.7904 51.7345 59.1256 51.4747 59.5014 51.3306C59.6909 51.2618 59.8863 51.2091 60.095 51.2046C60.301 51.194 60.5111 51.2094 60.7265 51.2726C61.1578 51.3909 61.6278 51.393 62.0857 51.2718C62.3175 51.2159 62.5356 51.1154 62.7555 51.0028C62.9681 50.8814 63.1732 50.7345 63.3611 50.5637C63.7307 50.2147 64.0153 49.7966 64.1696 49.3452C64.2091 49.2332 64.2425 49.1204 64.2694 49.008C64.2931 48.893 64.3089 48.7771 64.3191 48.6627C64.3291 48.5481 64.3326 48.4344 64.3294 48.3222C64.3236 48.2082 64.3092 48.0941 64.2895 47.9832C64.25 47.7637 64.254 47.5519 64.2794 47.3438C64.2939 47.2407 64.3175 47.1409 64.3499 47.0447C64.3812 46.948 64.4145 46.8513 64.4599 46.7608C64.5039 46.6696 64.5588 46.5838 64.6177 46.5007C64.6738 46.4164 64.7382 46.3369 64.8106 46.2628C64.959 46.1161 65.1253 45.985 65.3214 45.883C65.4211 45.8314 65.5188 45.7733 65.6135 45.7091C65.7043 45.6435 65.7911 45.5715 65.8753 45.4938C65.9594 45.416 66.0403 45.3326 66.1176 45.2439C66.1911 45.1542 66.2582 45.0584 66.3227 44.9584C66.386 44.8581 66.4486 44.754 66.5006 44.6445C66.5502 44.5346 66.5953 44.4208 66.6354 44.3037C66.7214 44.0705 66.7614 43.8207 66.7891 43.5663C66.8147 43.3118 66.7953 43.0573 66.7664 42.8131C66.7229 42.5685 66.6587 42.3328 66.569 42.1133C66.4704 41.8943 66.3568 41.6903 66.2187 41.5081C66.074 41.3266 65.9131 41.1657 65.7381 41.0291C65.5604 40.8954 65.4091 40.7396 65.2971 40.5675C65.1839 40.3957 65.0864 40.2128 65.0356 40.0166C64.981 39.8214 64.9445 39.6209 64.9559 39.4114C64.9647 39.2022 65.0008 39.0005 65.0871 38.7993C65.1727 38.5966 65.237 38.3864 65.2795 38.1712C65.3229 37.9559 65.3342 37.7398 65.3295 37.5203C65.3229 37.3015 65.2975 37.0803 65.2458 36.8636C65.191 36.6483 65.115 36.4351 65.0184 36.2282C64.97 36.1248 64.9176 36.0243 64.8601 35.9276C64.8001 35.832 64.7361 35.7401 64.6683 35.6519C64.5325 35.4753 64.3818 35.314 64.2185 35.1705C64.1813 35.1392 64.1436 35.1085 64.105 35.0789C63.6137 34.7007 63.0074 34.4285 62.3941 34.3514C60.8227 34.1538 59.5026 34.5489 57.5703 36.1333Z" fill="#915729"/>
<path d="M44.0202 38.3039C47.7776 38.3039 50.8236 35.2344 50.8236 31.448C50.8236 27.6615 47.7776 24.592 44.0202 24.592C40.2627 24.592 37.2167 27.6615 37.2167 31.448C37.2167 35.2344 40.2627 38.3039 44.0202 38.3039Z" fill="#E56E31"/>
<path d="M29.0538 40.2472C32.8113 40.2472 35.8573 37.1777 35.8573 33.3913C35.8573 29.6049 32.8113 26.5354 29.0538 26.5354C25.2963 26.5354 22.2503 29.6049 22.2503 33.3913C22.2503 37.1777 25.2963 40.2472 29.0538 40.2472Z" fill="#E56E31"/>
<path d="M22.2503 50.0634C26.0078 50.0634 29.0538 46.9939 29.0538 43.2075C29.0538 39.4211 26.0078 36.3516 22.2503 36.3516C18.4929 36.3516 15.4468 39.4211 15.4468 43.2075C15.4468 46.9939 18.4929 50.0634 22.2503 50.0634Z" fill="#D55D3B"/>
<path d="M54.6788 48.3605C58.4363 48.3605 61.4823 45.291 61.4823 41.5046C61.4823 37.7182 58.4363 34.6487 54.6788 34.6487C50.9213 34.6487 47.8753 37.7182 47.8753 41.5046C47.8753 45.291 50.9213 48.3605 54.6788 48.3605Z" fill="#D55D3B"/>
<path d="M53.8316 30.0543C55.0478 29.7258 56.1608 30.8475 55.8349 32.0733L55.1995 34.4632L54.5642 36.8531C54.2383 38.0789 52.7179 38.4894 51.8276 37.592L50.0917 35.8425L48.3558 34.0931C47.4655 33.1958 47.8729 31.6635 49.0891 31.3351L51.4603 30.6947L53.8316 30.0543Z" fill="#B7B82C"/>
<path d="M52.8606 34.2188L53.496 31.829C53.6565 31.225 53.4669 30.6473 53.0886 30.2549L51.4603 30.6946L49.0891 31.3349C47.8729 31.6634 47.4655 33.1956 48.3558 34.0929L50.0917 35.8423L51.6895 37.4526C51.938 37.2465 52.1313 36.9616 52.2253 36.6084L52.8606 34.2188Z" fill="#D9DA64"/>
<path d="M35.6983 25.4411C36.3278 24.613 37.9019 24.613 38.5314 25.4411L39.7589 27.0558L40.9863 28.6705C41.6158 29.4986 40.8288 30.5339 39.5696 30.5339H37.1148H34.6599C33.4007 30.5339 32.6138 29.4987 33.2433 28.6705L34.4707 27.0558L35.6983 25.4411Z" fill="#B7B82C"/>
<path d="M37.9337 28.1817L36.7063 26.567C36.3962 26.159 35.8567 25.953 35.3139 25.947L34.4711 27.0557L33.2436 28.6704C32.6141 29.4985 33.4011 30.5338 34.6603 30.5338H37.1152H39.3748C39.4059 30.2905 39.3427 30.0348 39.1613 29.7963L37.9337 28.1817Z" fill="#D9DA64"/>
<path d="M18.6704 35.1049C18.5345 34.0707 19.6474 32.9489 20.6737 33.0859L22.6745 33.3528L24.6753 33.6198C25.7016 33.7567 25.8714 35.0496 24.981 35.9469L23.2451 37.6963L21.5091 39.4458C20.6188 40.3432 19.3358 40.172 19.2 39.1377L18.9351 37.1213L18.6704 35.1049Z" fill="#B7B82C"/>
<path d="M22.1738 35.4497L20.1729 35.1828C19.6673 35.1153 19.1413 35.354 18.7534 35.7366L18.9354 37.1213L19.2003 39.1377C19.3361 40.1719 20.619 40.3431 21.5094 39.4458L23.2453 37.6963L24.8431 36.0861C24.6946 35.8919 24.4704 35.7562 24.1747 35.7166L22.1738 35.4497Z" fill="#D9DA64"/>
<path d="M18.3948 47.4038C18.3948 36.799 26.7548 28.0078 37.2751 27.7953C48.1019 27.5766 56.9466 36.3562 56.9466 47.2179C56.9466 51.0045 59.9925 54.0744 63.7499 54.0744H25.0137C21.3582 54.0742 18.3948 51.0877 18.3948 47.4038Z" fill="#FFE996"/>
<path d="M57.0103 48.1448H18.4366C18.8025 51.4799 21.6069 54.0744 25.0137 54.0744H63.75C60.3047 54.0743 57.4595 51.4929 57.0103 48.1448Z" fill="#FFDF66"/>
<path d="M30.0373 38.0197C30.4965 38.0197 30.8688 37.644 30.8688 37.1806C30.8688 36.7172 30.4965 36.3416 30.0373 36.3416C29.578 36.3416 29.2057 36.7172 29.2057 37.1806C29.2057 37.644 29.578 38.0197 30.0373 38.0197Z" fill="#D3AF55"/>
<path d="M26.0457 41.3759C26.5049 41.3759 26.8772 41.0002 26.8772 40.5368C26.8772 40.0734 26.5049 39.6978 26.0457 39.6978C25.5864 39.6978 25.2141 40.0734 25.2141 40.5368C25.2141 41.0002 25.5864 41.3759 26.0457 41.3759Z" fill="#D3AF55"/>
<path d="M32.6984 44.0612C33.1576 44.0612 33.5299 43.6855 33.5299 43.2221C33.5299 42.7587 33.1576 42.3831 32.6984 42.3831C32.2391 42.3831 31.8668 42.7587 31.8668 43.2221C31.8668 43.6855 32.2391 44.0612 32.6984 44.0612Z" fill="#D3AF55"/>
<path d="M26.1565 37.3483C26.6157 37.3483 26.988 36.9726 26.988 36.5092C26.988 36.0458 26.6157 35.6702 26.1565 35.6702C25.6972 35.6702 25.325 36.0458 25.325 36.5092C25.325 36.9726 25.6972 37.3483 26.1565 37.3483Z" fill="#D3AF55"/>
<path d="M36.1355 33.9918C36.5948 33.9918 36.967 33.6162 36.967 33.1528C36.967 32.6894 36.5948 32.3137 36.1355 32.3137C35.6763 32.3137 35.304 32.6894 35.304 33.1528C35.304 33.6162 35.6763 33.9918 36.1355 33.9918Z" fill="#D3AF55"/>
<path d="M39.4619 41.8236C39.9212 41.8236 40.2935 41.448 40.2935 40.9846C40.2935 40.5212 39.9212 40.1455 39.4619 40.1455C39.0027 40.1455 38.6304 40.5212 38.6304 40.9846C38.6304 41.448 39.0027 41.8236 39.4619 41.8236Z" fill="#D3AF55"/>
<path d="M42.7882 36.2296C43.2475 36.2296 43.6198 35.854 43.6198 35.3906C43.6198 34.9272 43.2475 34.5515 42.7882 34.5515C42.329 34.5515 41.9567 34.9272 41.9567 35.3906C41.9567 35.854 42.329 36.2296 42.7882 36.2296Z" fill="#D3AF55"/>
<path d="M50.5497 42.9423C51.0089 42.9423 51.3812 42.5666 51.3812 42.1032C51.3812 41.6398 51.0089 41.2642 50.5497 41.2642C50.0904 41.2642 49.7181 41.6398 49.7181 42.1032C49.7181 42.5666 50.0904 42.9423 50.5497 42.9423Z" fill="#D3AF55"/>
</g>
<defs>
<filter id="filter0_d" x="0" y="0" width="86" height="87.8219" filterUnits="userSpaceOnUse" color-interpolation-filters="sRGB">
<feFlood flood-opacity="0" result="BackgroundImageFix"/>
<feColorMatrix in="SourceAlpha" type="matrix" values="0 0 0 0 0 0 0 0 0 0 0 0 0 0 0 0 0 0 127 0"/>
<feOffset dy="4"/>
<feGaussianBlur stdDeviation="4"/>
<feColorMatrix type="matrix" values="0 0 0 0 0.801432 0 0 0 0 0.801432 0 0 0 0 0.801432 0 0 0 0.5 0"/>
<feBlend mode="normal" in2="BackgroundImageFix" result="effect1_dropShadow"/>
<feBlend mode="normal" in="SourceGraphic" in2="effect1_dropShadow" result="shape"/>
</filter>
</defs>
</svg>
