<svg width="70" height="72" viewBox="0 0 70 72" fill="none" xmlns="http://www.w3.org/2000/svg">
<path d="M53.7995 5.90925C59.2345 9.63016 63.5123 15.0848 66.3599 21.2596C69.2204 27.4478 70.6507 34.3561 69.7145 40.9044C68.7783 47.466 65.4627 53.6542 60.9639 58.522C56.465 63.3899 50.7699 66.9507 44.4377 69.298C38.1185 71.6585 31.1752 72.8055 24.6349 71.3651C18.1077 69.9248 11.9835 65.8838 7.70567 60.4291C3.44085 54.9745 1.00939 48.0928 0.255242 41.1178C-0.498902 34.1294 0.411272 27.061 3.07678 20.6995C5.74229 14.338 10.1761 8.6966 15.8192 5.06905C21.4623 1.4415 28.3016 -0.172219 35.0239 0.0144924C41.7462 0.201204 48.3514 2.18835 53.7995 5.90925Z" fill="#E2F4FC"/>
<path fill-rule="evenodd" clip-rule="evenodd" d="M55 28.6773C55 17.1888 46.0771 11.3873 36.768 11H34.7464C31.808 11.1196 28.8902 11.7797 26.2699 12.9628C20.4136 15.6075 16 20.8802 16 28.6773C32.9857 28.5191 31.5742 45.2322 55 28.6773Z" fill="#454545"/>
<path fill-rule="evenodd" clip-rule="evenodd" d="M55 28.6862C31.6436 37.8824 33.0282 23.9291 16 28.6862V39.6621C16 44.3972 18.2574 50.9518 22.411 55.088C31.4926 63.2782 41.1043 62.6573 48.8284 55.088C52.9812 50.951 55 44.3972 55 39.6621V28.6862Z" fill="#FFDDA6"/>
<path fill-rule="evenodd" clip-rule="evenodd" d="M34.688 60.9112C37.3669 59.9465 39.9361 58.2145 42.3212 55.7751C46.3806 51.5546 47.5579 44.8685 47.5579 40.0378V30.9587C49.7218 30.4526 52.1759 29.6605 55 28.5V39.2313C55 44.062 53.0267 50.7481 48.9674 54.9686C44.6616 59.3725 39.7557 61.4708 34.688 60.9112Z" fill="#F5CA86"/>
<path d="M29.0004 41.8333C28.103 41.8333 27.375 41.1148 27.375 40.2291V38.4374C27.375 37.5509 28.103 36.8333 29.0004 36.8333C29.8978 36.8333 30.625 37.5509 30.625 38.4374V40.2291C30.625 41.1156 29.8978 41.8333 29.0004 41.8333Z" fill="#5D5D5D"/>
<path d="M42.0004 41.8333C41.103 41.8333 40.375 41.1148 40.375 40.2291V38.4374C40.375 37.5509 41.103 36.8333 42.0004 36.8333C42.8978 36.8333 43.625 37.5509 43.625 38.4374V40.2291C43.625 41.1156 42.8978 41.8333 42.0004 41.8333Z" fill="#5D5D5D"/>
<path fill-rule="evenodd" clip-rule="evenodd" d="M36.5176 11H34.4683C32.3285 11.0877 30.2038 11.4479 28.1875 12.0872C37.8672 12.2231 47.348 18.0352 47.348 29.8164V31C49.574 30.4973 52.0959 29.8274 55 28.7074C55 17.1993 45.9545 11.388 36.5176 11Z" fill="#202020"/>
<path d="M32.2522 48.5C32.2522 48.5 32.046 51 35.6267 51C39.2074 51 39.5625 48.5 39.5625 48.5" stroke="#DC8F7D" stroke-width="2" stroke-linecap="round" stroke-linejoin="round"/>
</svg>
