<svg width="20" height="21" viewBox="0 0 20 21" fill="none" xmlns="http://www.w3.org/2000/svg">
<path d="M15.3713 1.6825C16.9241 2.74192 18.1464 4.29498 18.96 6.05309C19.7773 7.815 20.1859 9.78196 19.9184 11.6464C19.651 13.5146 18.7036 15.2765 17.4182 16.6625C16.1329 18.0485 14.5057 19.0624 12.6965 19.7307C10.891 20.4028 8.90719 20.7293 7.03854 20.3192C5.17362 19.9091 3.42385 18.7586 2.20162 17.2055C0.9831 15.6525 0.288396 13.6931 0.0729264 11.7071C-0.142543 9.71741 0.117506 7.70488 0.879081 5.89361C1.64065 4.08234 2.90747 2.47611 4.51978 1.44327C6.13209 0.410429 8.08617 -0.0490347 10.0068 0.00412632C11.9275 0.0572874 13.8147 0.623073 15.3713 1.6825Z" fill="#3FAB91"/>
</svg>
