<svg width="240" height="661" viewBox="0 0 240 661" fill="none" xmlns="http://www.w3.org/2000/svg">
<path d="M120.5 618.238C120.493 617.686 120.041 617.244 119.488 617.25C118.936 617.257 118.494 617.709 118.5 618.262L120.5 618.238ZM120 661L125.656 650.933L114.11 651.068L120 661ZM118.5 618.262L118.895 652.012L120.895 651.989L120.5 618.238L118.5 618.262Z" fill="#7EB6A9"/>
<path fill-rule="evenodd" clip-rule="evenodd" d="M0 0H223C231.837 0 239 7.16344 239 16V111C239 119.837 231.837 127 223 127H0V0Z" fill="#F6FAF6"/>
<rect opacity="0.0516881" width="240" height="604" fill="#A9A9A9"/>
<path d="M86.396 62H88.496V56.02C88.496 54.8 88.296 53.06 88.196 51.86H88.276L89.316 54.9L91.476 60.78H92.856L94.996 54.9L96.056 51.86H96.136C96.016 53.06 95.836 54.8 95.836 56.02V62H97.976V48.92H95.336L93.076 55.32C92.796 56.14 92.536 57.02 92.256 57.88H92.176C91.896 57.02 91.616 56.14 91.336 55.32L89.016 48.92H86.396V62ZM104.538 62.24C105.698 62.24 106.698 61.66 107.578 60.92H107.658L107.818 62H109.718V56.18C109.718 53.44 108.498 51.94 106.058 51.94C104.498 51.94 103.098 52.54 102.018 53.22L102.858 54.76C103.738 54.24 104.658 53.8 105.618 53.8C106.958 53.8 107.378 54.68 107.418 55.72C103.378 56.16 101.638 57.26 101.638 59.36C101.638 61.08 102.818 62.24 104.538 62.24ZM105.278 60.44C104.458 60.44 103.858 60.06 103.858 59.18C103.858 58.2 104.738 57.5 107.418 57.16V59.36C106.678 60.04 106.078 60.44 105.278 60.44ZM117.631 62.24C118.751 62.24 119.911 61.84 120.831 61.04L119.891 59.52C119.331 59.98 118.631 60.36 117.871 60.36C116.331 60.36 115.251 59.06 115.251 57.1C115.251 55.12 116.351 53.82 117.931 53.82C118.551 53.82 119.051 54.08 119.571 54.54L120.691 53.04C119.971 52.42 119.071 51.94 117.811 51.94C115.191 51.94 112.891 53.82 112.891 57.1C112.891 60.36 114.951 62.24 117.631 62.24ZM123.829 62H126.129V55.14C126.949 54.34 127.509 53.92 128.369 53.92C129.449 53.92 129.909 54.52 129.909 56.14V62H132.209V55.84C132.209 53.36 131.289 51.94 129.189 51.94C127.849 51.94 126.869 52.64 126.049 53.42L126.129 51.52V47.88H123.829V62ZM136.041 62H138.341V52.18H136.041V62ZM137.201 50.46C138.021 50.46 138.621 49.92 138.621 49.16C138.621 48.38 138.021 47.84 137.201 47.84C136.381 47.84 135.781 48.38 135.781 49.16C135.781 49.92 136.381 50.46 137.201 50.46ZM142.336 62H144.636V55.14C145.456 54.34 146.016 53.92 146.876 53.92C147.956 53.92 148.416 54.52 148.416 56.14V62H150.716V55.84C150.716 53.36 149.796 51.94 147.696 51.94C146.356 51.94 145.356 52.64 144.476 53.5H144.396L144.236 52.18H142.336V62ZM158.787 62.24C160.027 62.24 161.207 61.8 162.147 61.18L161.367 59.74C160.647 60.2 159.927 60.46 159.087 60.46C157.507 60.46 156.387 59.46 156.187 57.72H162.427C162.487 57.48 162.527 57.04 162.527 56.6C162.527 53.86 161.127 51.94 158.467 51.94C156.167 51.94 153.947 53.9 153.947 57.1C153.947 60.34 156.067 62.24 158.787 62.24ZM156.167 56.16C156.367 54.58 157.367 53.72 158.527 53.72C159.867 53.72 160.527 54.64 160.527 56.16H156.167Z" fill="#262626"/>
<path d="M91.2277 89H92.5557V84.296H96.5557V83.176H92.5557V79.624H97.2757V78.504H91.2277V89ZM99.8539 89H101.166V81.224H99.8539V89ZM100.526 79.624C101.038 79.624 101.438 79.272 101.438 78.776C101.438 78.264 101.038 77.928 100.526 77.928C100.014 77.928 99.6139 78.264 99.6139 78.776C99.6139 79.272 100.014 79.624 100.526 79.624ZM107.087 89.192C107.567 89.192 108.095 89.048 108.527 88.904L108.271 87.912C108.015 88.008 107.663 88.12 107.391 88.12C106.495 88.12 106.191 87.576 106.191 86.616V82.296H108.287V81.224H106.191V79.048H105.087L104.927 81.224L103.711 81.304V82.296H104.863V86.6C104.863 88.136 105.423 89.192 107.087 89.192ZM115.073 89H116.273V83.224C116.273 82.296 116.177 81.048 116.113 80.12H116.177L117.009 82.504L118.993 87.944H119.873L121.857 82.504L122.689 80.12H122.753C122.689 81.048 122.577 82.296 122.577 83.224V89H123.825V78.504H122.209L120.225 84.104C119.969 84.824 119.761 85.576 119.505 86.296H119.441C119.185 85.576 118.945 84.824 118.689 84.104L116.673 78.504H115.073V89ZM130.442 89.192C132.346 89.192 134.042 87.704 134.042 85.128C134.042 82.52 132.346 81.032 130.442 81.032C128.538 81.032 126.842 82.52 126.842 85.128C126.842 87.704 128.538 89.192 130.442 89.192ZM130.442 88.104C129.114 88.104 128.202 86.904 128.202 85.128C128.202 83.336 129.114 82.12 130.442 82.12C131.786 82.12 132.682 83.336 132.682 85.128C132.682 86.904 131.786 88.104 130.442 88.104ZM139.594 89.192C140.506 89.192 141.338 88.68 141.946 88.088H141.994L142.106 89H143.194V77.608H141.866V80.6L141.93 81.928C141.242 81.368 140.65 81.032 139.754 81.032C137.978 81.032 136.378 82.6 136.378 85.128C136.378 87.72 137.642 89.192 139.594 89.192ZM139.882 88.088C138.522 88.088 137.738 86.968 137.738 85.112C137.738 83.336 138.73 82.136 139.978 82.136C140.618 82.136 141.21 82.36 141.866 82.952V87.016C141.226 87.736 140.602 88.088 139.882 88.088ZM149.813 89.192C150.869 89.192 151.701 88.824 152.373 88.392L151.909 87.528C151.333 87.896 150.709 88.136 149.973 88.136C148.485 88.136 147.477 87.08 147.381 85.432H152.629C152.661 85.24 152.677 84.952 152.677 84.68C152.677 82.456 151.557 81.032 149.573 81.032C147.797 81.032 146.085 82.584 146.085 85.128C146.085 87.672 147.733 89.192 149.813 89.192ZM147.365 84.488C147.525 82.952 148.517 82.072 149.605 82.072C150.821 82.072 151.525 82.92 151.525 84.488H147.365ZM156.838 89.192C157.19 89.192 157.414 89.144 157.59 89.064L157.414 88.072C157.27 88.104 157.206 88.104 157.126 88.104C156.934 88.104 156.758 87.944 156.758 87.528V77.608H155.446V87.432C155.446 88.568 155.846 89.192 156.838 89.192Z" fill="#262626"/>
<rect x="43" y="151" width="163" height="97" rx="19" fill="#51BAA1"/>
<path d="M95.3533 192H98.5873V186.83H100.369L103.119 192H106.749L103.493 186.258C105.033 185.576 106.045 184.234 106.045 182.122C106.045 178.712 103.559 177.656 100.523 177.656H95.3533V192ZM98.5873 184.256V180.23H100.259C101.953 180.23 102.877 180.714 102.877 182.122C102.877 183.53 101.953 184.256 100.259 184.256H98.5873ZM113.542 192.264C116.292 192.264 118.844 190.174 118.844 186.544C118.844 182.914 116.292 180.824 113.542 180.824C110.77 180.824 108.218 182.914 108.218 186.544C108.218 190.174 110.77 192.264 113.542 192.264ZM113.542 189.646C112.2 189.646 111.54 188.436 111.54 186.544C111.54 184.652 112.2 183.442 113.542 183.442C114.862 183.442 115.544 184.652 115.544 186.544C115.544 188.436 114.862 189.646 113.542 189.646ZM127.268 192.264C129.622 192.264 131.866 190.108 131.866 186.346C131.866 183.002 130.216 180.824 127.576 180.824C126.564 180.824 125.53 181.286 124.694 182.034L124.782 180.362V176.578H121.548V192H124.078L124.342 190.834H124.43C125.288 191.78 126.3 192.264 127.268 192.264ZM126.52 189.624C125.97 189.624 125.354 189.448 124.782 188.92V184.454C125.398 183.772 125.992 183.464 126.652 183.464C127.95 183.464 128.544 184.454 128.544 186.412C128.544 188.656 127.642 189.624 126.52 189.624ZM134.648 192H137.882V181.088H134.648V192ZM136.254 179.482C137.354 179.482 138.124 178.778 138.124 177.788C138.124 176.798 137.354 176.116 136.254 176.116C135.176 176.116 134.384 176.798 134.384 177.788C134.384 178.778 135.176 179.482 136.254 179.482ZM142.053 184.256C144.165 183.222 145.199 181.616 145.199 179.548C145.199 177.722 144.473 176.666 143.131 176.666C142.141 176.666 141.437 177.37 141.437 178.47C141.437 179.46 142.185 180.076 143.131 180.076C143.197 180.076 143.263 180.076 143.329 180.054C143.329 181.352 142.669 182.188 141.349 182.848L142.053 184.256ZM150.74 192.264C153.666 192.264 155.228 190.724 155.228 188.744C155.228 186.742 153.666 185.972 152.28 185.466C151.158 185.048 150.146 184.784 150.146 184.08C150.146 183.53 150.542 183.222 151.378 183.222C152.148 183.222 152.896 183.574 153.688 184.146L155.14 182.21C154.194 181.506 152.962 180.824 151.29 180.824C148.76 180.824 147.11 182.21 147.11 184.234C147.11 186.038 148.672 186.94 149.992 187.446C151.114 187.886 152.214 188.216 152.214 188.942C152.214 189.514 151.796 189.866 150.828 189.866C149.904 189.866 149.002 189.47 148.012 188.722L146.56 190.746C147.66 191.648 149.31 192.264 150.74 192.264ZM85.2172 220H88.4512V212.63C89.1332 211.926 89.7712 211.574 90.2992 211.574C91.2232 211.574 91.6412 212.058 91.6412 213.642V220H94.8752V212.63C95.5792 211.926 96.1952 211.574 96.7452 211.574C97.6692 211.574 98.0872 212.058 98.0872 213.642V220H101.321V213.224C101.321 210.496 100.265 208.824 97.9112 208.824C96.4592 208.824 95.4472 209.66 94.4792 210.65C93.9292 209.484 93.0052 208.824 91.4652 208.824C90.0352 208.824 89.0672 209.594 88.1652 210.496H88.0772L87.8572 209.088H85.2172V220ZM104.569 220H107.803V209.088H104.569V220ZM106.175 207.482C107.275 207.482 108.045 206.778 108.045 205.788C108.045 204.798 107.275 204.116 106.175 204.116C105.097 204.116 104.305 204.798 104.305 205.788C104.305 206.778 105.097 207.482 106.175 207.482ZM111.138 220H114.372V212.63C115.076 211.948 115.582 211.574 116.396 211.574C117.32 211.574 117.738 212.058 117.738 213.642V220H120.972V213.224C120.972 210.496 119.96 208.824 117.584 208.824C116.11 208.824 115.01 209.594 114.086 210.474H113.998L113.778 209.088H111.138V220ZM128.111 220.264C129.167 220.264 130.245 219.692 131.015 218.922H131.103L131.323 220H133.963V204.578H130.729V208.296L130.861 209.968C130.113 209.264 129.387 208.824 128.177 208.824C125.867 208.824 123.645 210.98 123.645 214.544C123.645 218.108 125.405 220.264 128.111 220.264ZM128.947 217.624C127.693 217.624 126.967 216.656 126.967 214.5C126.967 212.432 127.891 211.464 128.925 211.464C129.519 211.464 130.157 211.64 130.729 212.168V216.634C130.201 217.36 129.651 217.624 128.947 217.624ZM140.529 220.264C143.455 220.264 145.017 218.724 145.017 216.744C145.017 214.742 143.455 213.972 142.069 213.466C140.947 213.048 139.935 212.784 139.935 212.08C139.935 211.53 140.331 211.222 141.167 211.222C141.937 211.222 142.685 211.574 143.477 212.146L144.929 210.21C143.983 209.506 142.751 208.824 141.079 208.824C138.549 208.824 136.899 210.21 136.899 212.234C136.899 214.038 138.461 214.94 139.781 215.446C140.903 215.886 142.003 216.216 142.003 216.942C142.003 217.514 141.585 217.866 140.617 217.866C139.693 217.866 138.791 217.47 137.801 216.722L136.349 218.746C137.449 219.648 139.099 220.264 140.529 220.264ZM152.444 220.264C153.742 220.264 155.194 219.802 156.316 219.032L155.238 217.074C154.446 217.558 153.698 217.8 152.884 217.8C151.432 217.8 150.332 217.074 150.046 215.49H156.58C156.646 215.226 156.712 214.632 156.712 214.06C156.712 211.09 155.172 208.824 152.07 208.824C149.452 208.824 146.922 211.002 146.922 214.544C146.922 218.152 149.32 220.264 152.444 220.264ZM150.024 213.356C150.244 211.97 151.124 211.288 152.136 211.288C153.434 211.288 153.962 212.146 153.962 213.356H150.024ZM163.423 220.264C164.479 220.264 165.271 220.044 165.843 219.868L165.337 217.514C165.051 217.624 164.655 217.734 164.303 217.734C163.445 217.734 162.895 217.228 162.895 215.996V211.618H165.513V209.088H162.895V206.184H160.211L159.837 209.088L158.165 209.22V211.618H159.661V216.04C159.661 218.57 160.717 220.264 163.423 220.264Z" fill="white"/>
<path d="M53.5 376.5L53.5 279.5" stroke="#7A7A7A" stroke-linecap="round" stroke-linejoin="round"/>
<path d="M54.5 377.5H188.5" stroke="#7A7A7A" stroke-linecap="round" stroke-linejoin="round"/>
<path opacity="0.446661" fill-rule="evenodd" clip-rule="evenodd" d="M125 334C125 340.627 116.046 346 105 346C104.655 346 104.311 345.995 103.97 345.984C103.462 354.362 96.506 361 88 361C79.1634 361 72 353.837 72 345C72 336.574 78.5126 329.67 86.7785 329.046C89.922 324.89 96.8985 322 105 322C116.046 322 125 327.373 125 334Z" fill="#51BAA1"/>
<path opacity="0.548038" fill-rule="evenodd" clip-rule="evenodd" d="M112.247 319.359C109.67 321.546 108 325.05 108 329C108 335.627 112.701 341 118.5 341C122.664 341 126.262 338.23 127.96 334.214C131.553 337.683 138.064 340 145.5 340C156.822 340 166 334.627 166 328C166 321.373 156.822 316 145.5 316C145.33 316 145.161 316.001 144.993 316.004C144.73 307.121 137.447 300 128.5 300C119.387 300 112 307.387 112 316.5C112 317.475 112.085 318.43 112.247 319.359Z" fill="#F8DA06"/>
<path d="M49 371L160 309" stroke="#7A7A7A" stroke-width="2" stroke-linecap="round" stroke-linejoin="round"/>
<path d="M56.5 546.5L56.5 449.5" stroke="#7A7A7A" stroke-linecap="round" stroke-linejoin="round"/>
<path d="M57.5 547.5H191.5" stroke="#7A7A7A" stroke-linecap="round" stroke-linejoin="round"/>
<path opacity="0.446661" fill-rule="evenodd" clip-rule="evenodd" d="M128 504C128 510.627 119.046 516 108 516C107.655 516 107.311 515.995 106.97 515.984C106.462 524.362 99.506 531 91 531C82.1634 531 75 523.837 75 515C75 506.574 81.5126 499.67 89.7785 499.046C92.922 494.89 99.8985 492 108 492C119.046 492 128 497.373 128 504Z" fill="#51BAA1"/>
<path opacity="0.548038" fill-rule="evenodd" clip-rule="evenodd" d="M115.247 489.359C112.67 491.546 111 495.05 111 499C111 505.627 115.701 511 121.5 511C125.664 511 129.262 508.23 130.96 504.214C134.553 507.683 141.064 510 148.5 510C159.822 510 169 504.627 169 498C169 491.373 159.822 486 148.5 486C148.33 486 148.161 486.001 147.993 486.004C147.73 477.121 140.447 470 131.5 470C122.387 470 115 477.387 115 486.5C115 487.475 115.085 488.43 115.247 489.359Z" fill="#F8DA06"/>
<path d="M145 543L96 464" stroke="#51BAA1" stroke-width="2" stroke-linecap="round" stroke-linejoin="round"/>
<path d="M110.897 448L111 419" stroke="#4D9786" stroke-opacity="0.400896" stroke-width="2" stroke-linecap="round" stroke-linejoin="round"/>
<path d="M125 448V419" stroke="#4D9786" stroke-opacity="0.400896" stroke-width="2" stroke-linecap="round" stroke-linejoin="round"/>
<path d="M104 437.576L117.397 460L130.992 437.576" stroke="#4D9786" stroke-opacity="0.400896" stroke-width="2" stroke-linecap="round" stroke-linejoin="round"/>
<path d="M89.658 398.204C92.242 398.204 93.857 396.776 93.857 393.121V386.882H91.97V393.274C91.97 395.688 91.018 396.487 89.658 396.487C88.315 396.487 87.414 395.688 87.414 393.274V386.882H85.442V393.121C85.442 396.776 87.091 398.204 89.658 398.204ZM97.3637 398H99.3187V392.169C100.016 391.489 100.492 391.132 101.223 391.132C102.141 391.132 102.532 391.642 102.532 393.019V398H104.487V392.764C104.487 390.656 103.705 389.449 101.92 389.449C100.781 389.449 99.9307 390.044 99.1827 390.775H99.1147L98.9787 389.653H97.3637V398ZM110.718 398.204C111.381 398.204 111.959 398.051 112.418 397.898L112.078 396.453C111.84 396.555 111.5 396.64 111.211 396.64C110.412 396.64 110.038 396.164 110.038 395.178V391.2H112.163V389.653H110.038V387.375H108.406L108.168 389.653L106.876 389.738V391.2H108.066V395.178C108.066 396.98 108.78 398.204 110.718 398.204ZM114.821 398H116.776V392.9C117.286 391.642 118.085 391.183 118.748 391.183C119.105 391.183 119.326 391.234 119.615 391.319L119.955 389.619C119.7 389.5 119.428 389.449 119.003 389.449C118.119 389.449 117.235 390.044 116.64 391.132H116.572L116.436 389.653H114.821V398ZM123.639 398.204C124.625 398.204 125.475 397.711 126.223 397.082H126.291L126.427 398H128.042V393.053C128.042 390.724 127.005 389.449 124.931 389.449C123.605 389.449 122.415 389.959 121.497 390.537L122.211 391.846C122.959 391.404 123.741 391.03 124.557 391.03C125.696 391.03 126.053 391.778 126.087 392.662C122.653 393.036 121.174 393.971 121.174 395.756C121.174 397.218 122.177 398.204 123.639 398.204ZM124.268 396.674C123.571 396.674 123.061 396.351 123.061 395.603C123.061 394.77 123.809 394.175 126.087 393.886V395.756C125.458 396.334 124.948 396.674 124.268 396.674ZM131.282 398H133.237V389.653H131.282V398ZM132.268 388.191C132.965 388.191 133.475 387.732 133.475 387.086C133.475 386.423 132.965 385.964 132.268 385.964C131.571 385.964 131.061 386.423 131.061 387.086C131.061 387.732 131.571 388.191 132.268 388.191ZM136.632 398H138.587V392.169C139.284 391.489 139.76 391.132 140.491 391.132C141.409 391.132 141.8 391.642 141.8 393.019V398H143.755V392.764C143.755 390.656 142.973 389.449 141.188 389.449C140.049 389.449 139.199 390.044 138.451 390.775H138.383L138.247 389.653H136.632V398ZM150.616 398.204C151.67 398.204 152.673 397.83 153.472 397.303L152.809 396.079C152.197 396.47 151.585 396.691 150.871 396.691C149.528 396.691 148.576 395.841 148.406 394.362H153.71C153.761 394.158 153.795 393.784 153.795 393.41C153.795 391.081 152.605 389.449 150.344 389.449C148.389 389.449 146.502 391.115 146.502 393.835C146.502 396.589 148.304 398.204 150.616 398.204ZM148.389 393.036C148.559 391.693 149.409 390.962 150.395 390.962C151.534 390.962 152.095 391.744 152.095 393.036H148.389ZM159.487 398.204C160.388 398.204 161.238 397.711 161.85 397.099H161.918L162.054 398H163.669V385.998H161.714V389.024L161.782 390.367C161.136 389.806 160.541 389.449 159.589 389.449C157.77 389.449 156.053 391.115 156.053 393.835C156.053 396.589 157.396 398.204 159.487 398.204ZM159.963 396.589C158.756 396.589 158.076 395.62 158.076 393.818C158.076 392.067 158.943 391.064 160.014 391.064C160.575 391.064 161.136 391.251 161.714 391.761V395.654C161.153 396.3 160.609 396.589 159.963 396.589Z" fill="#5A5A5A"/>
<path d="M97.7689 569H99.7409V559.548H102.954V557.882H94.5559V559.548H97.7689V569ZM104.789 569H106.744V563.9C107.254 562.642 108.053 562.183 108.716 562.183C109.073 562.183 109.294 562.234 109.583 562.319L109.923 560.619C109.668 560.5 109.396 560.449 108.971 560.449C108.087 560.449 107.203 561.044 106.608 562.132H106.54L106.404 560.653H104.789V569ZM113.607 569.204C114.593 569.204 115.443 568.711 116.191 568.082H116.259L116.395 569H118.01V564.053C118.01 561.724 116.973 560.449 114.899 560.449C113.573 560.449 112.383 560.959 111.465 561.537L112.179 562.846C112.927 562.404 113.709 562.03 114.525 562.03C115.664 562.03 116.021 562.778 116.055 563.662C112.621 564.036 111.142 564.971 111.142 566.756C111.142 568.218 112.145 569.204 113.607 569.204ZM114.236 567.674C113.539 567.674 113.029 567.351 113.029 566.603C113.029 565.77 113.777 565.175 116.055 564.886V566.756C115.426 567.334 114.916 567.674 114.236 567.674ZM121.25 569H123.205V560.653H121.25V569ZM122.236 559.191C122.933 559.191 123.443 558.732 123.443 558.086C123.443 557.423 122.933 556.964 122.236 556.964C121.539 556.964 121.029 557.423 121.029 558.086C121.029 558.732 121.539 559.191 122.236 559.191ZM126.6 569H128.555V563.169C129.252 562.489 129.728 562.132 130.459 562.132C131.377 562.132 131.768 562.642 131.768 564.019V569H133.723V563.764C133.723 561.656 132.941 560.449 131.156 560.449C130.017 560.449 129.167 561.044 128.419 561.775H128.351L128.215 560.653H126.6V569ZM140.584 569.204C141.638 569.204 142.641 568.83 143.44 568.303L142.777 567.079C142.165 567.47 141.553 567.691 140.839 567.691C139.496 567.691 138.544 566.841 138.374 565.362H143.678C143.729 565.158 143.763 564.784 143.763 564.41C143.763 562.081 142.573 560.449 140.312 560.449C138.357 560.449 136.47 562.115 136.47 564.835C136.47 567.589 138.272 569.204 140.584 569.204ZM138.357 564.036C138.527 562.693 139.377 561.962 140.363 561.962C141.502 561.962 142.063 562.744 142.063 564.036H138.357ZM149.455 569.204C150.356 569.204 151.206 568.711 151.818 568.099H151.886L152.022 569H153.637V556.998H151.682V560.024L151.75 561.367C151.104 560.806 150.509 560.449 149.557 560.449C147.738 560.449 146.021 562.115 146.021 564.835C146.021 567.589 147.364 569.204 149.455 569.204ZM149.931 567.589C148.724 567.589 148.044 566.62 148.044 564.818C148.044 563.067 148.911 562.064 149.982 562.064C150.543 562.064 151.104 562.251 151.682 562.761V566.654C151.121 567.3 150.577 567.589 149.931 567.589Z" fill="#189779"/>
</svg>
